<?xml version="1.0" encoding="utf-8" standalone="no"?>
<!DOCTYPE svg PUBLIC "-//W3C//DTD SVG 1.1//EN"
  "http://www.w3.org/Graphics/SVG/1.1/DTD/svg11.dtd">
<svg xmlns:xlink="http://www.w3.org/1999/xlink" width="864pt" height="504pt" viewBox="0 0 864 504" xmlns="http://www.w3.org/2000/svg" version="1.1">
 <metadata>
  <rdf:RDF xmlns:dc="http://purl.org/dc/elements/1.1/" xmlns:cc="http://creativecommons.org/ns#" xmlns:rdf="http://www.w3.org/1999/02/22-rdf-syntax-ns#">
   <cc:Work>
    <dc:type rdf:resource="http://purl.org/dc/dcmitype/StillImage"/>
    <dc:date>2025-08-08T12:15:17.670438</dc:date>
    <dc:format>image/svg+xml</dc:format>
    <dc:creator>
     <cc:Agent>
      <dc:title>Matplotlib v3.7.5, https://matplotlib.org/</dc:title>
     </cc:Agent>
    </dc:creator>
   </cc:Work>
  </rdf:RDF>
 </metadata>
 <defs>
  <style type="text/css">*{stroke-linejoin: round; stroke-linecap: butt}</style>
 </defs>
 <g id="figure_1">
  <g id="patch_1">
   <path d="M 0 504 
L 864 504 
L 864 0 
L 0 0 
z
" style="fill: #ffffff"/>
  </g>
  <g id="axes_1">
   <g id="patch_2">
    <path d="M 52.805 462.04 
L 799.675 462.04 
L 799.675 29.04 
L 52.805 29.04 
z
" style="fill: #ffffff"/>
   </g>
   <g id="matplotlib.axis_1">
    <g id="xtick_1">
     <g id="line2d_1">
      <path d="M 86.753636 462.04 
L 86.753636 29.04 
" clip-path="url(#p60ae7e0293)" style="fill: none; stroke-dasharray: 2.96,1.28; stroke-dashoffset: 0; stroke: #b0b0b0; stroke-width: 0.8"/>
     </g>
     <g id="line2d_2">
      <defs>
       <path id="mbbadfc0f55" d="M 0 0 
L 0 3.5 
" style="stroke: #000000; stroke-width: 0.8"/>
      </defs>
      <g>
       <use xlink:href="#mbbadfc0f55" x="86.753636" y="462.04" style="stroke: #000000; stroke-width: 0.8"/>
      </g>
     </g>
     <g id="text_1">
      <!-- 0.0 -->
      <g transform="translate(78.802074 476.638438) scale(0.1 -0.1)">
       <defs>
        <path id="DejaVuSans-30" d="M 2034 4250 
Q 1547 4250 1301 3770 
Q 1056 3291 1056 2328 
Q 1056 1369 1301 889 
Q 1547 409 2034 409 
Q 2525 409 2770 889 
Q 3016 1369 3016 2328 
Q 3016 3291 2770 3770 
Q 2525 4250 2034 4250 
z
M 2034 4750 
Q 2819 4750 3233 4129 
Q 3647 3509 3647 2328 
Q 3647 1150 3233 529 
Q 2819 -91 2034 -91 
Q 1250 -91 836 529 
Q 422 1150 422 2328 
Q 422 3509 836 4129 
Q 1250 4750 2034 4750 
z
" transform="scale(0.015625)"/>
        <path id="DejaVuSans-2e" d="M 684 794 
L 1344 794 
L 1344 0 
L 684 0 
L 684 794 
z
" transform="scale(0.015625)"/>
       </defs>
       <use xlink:href="#DejaVuSans-30"/>
       <use xlink:href="#DejaVuSans-2e" x="63.623047"/>
       <use xlink:href="#DejaVuSans-30" x="95.410156"/>
      </g>
     </g>
    </g>
    <g id="xtick_2">
     <g id="line2d_3">
      <path d="M 177.286351 462.04 
L 177.286351 29.04 
" clip-path="url(#p60ae7e0293)" style="fill: none; stroke-dasharray: 2.96,1.28; stroke-dashoffset: 0; stroke: #b0b0b0; stroke-width: 0.8"/>
     </g>
     <g id="line2d_4">
      <g>
       <use xlink:href="#mbbadfc0f55" x="177.286351" y="462.04" style="stroke: #000000; stroke-width: 0.8"/>
      </g>
     </g>
     <g id="text_2">
      <!-- 0.2 -->
      <g transform="translate(169.334789 476.638438) scale(0.1 -0.1)">
       <defs>
        <path id="DejaVuSans-32" d="M 1228 531 
L 3431 531 
L 3431 0 
L 469 0 
L 469 531 
Q 828 903 1448 1529 
Q 2069 2156 2228 2338 
Q 2531 2678 2651 2914 
Q 2772 3150 2772 3378 
Q 2772 3750 2511 3984 
Q 2250 4219 1831 4219 
Q 1534 4219 1204 4116 
Q 875 4013 500 3803 
L 500 4441 
Q 881 4594 1212 4672 
Q 1544 4750 1819 4750 
Q 2544 4750 2975 4387 
Q 3406 4025 3406 3419 
Q 3406 3131 3298 2873 
Q 3191 2616 2906 2266 
Q 2828 2175 2409 1742 
Q 1991 1309 1228 531 
z
" transform="scale(0.015625)"/>
       </defs>
       <use xlink:href="#DejaVuSans-30"/>
       <use xlink:href="#DejaVuSans-2e" x="63.623047"/>
       <use xlink:href="#DejaVuSans-32" x="95.410156"/>
      </g>
     </g>
    </g>
    <g id="xtick_3">
     <g id="line2d_5">
      <path d="M 267.819066 462.04 
L 267.819066 29.04 
" clip-path="url(#p60ae7e0293)" style="fill: none; stroke-dasharray: 2.96,1.28; stroke-dashoffset: 0; stroke: #b0b0b0; stroke-width: 0.8"/>
     </g>
     <g id="line2d_6">
      <g>
       <use xlink:href="#mbbadfc0f55" x="267.819066" y="462.04" style="stroke: #000000; stroke-width: 0.8"/>
      </g>
     </g>
     <g id="text_3">
      <!-- 0.4 -->
      <g transform="translate(259.867503 476.638438) scale(0.1 -0.1)">
       <defs>
        <path id="DejaVuSans-34" d="M 2419 4116 
L 825 1625 
L 2419 1625 
L 2419 4116 
z
M 2253 4666 
L 3047 4666 
L 3047 1625 
L 3713 1625 
L 3713 1100 
L 3047 1100 
L 3047 0 
L 2419 0 
L 2419 1100 
L 313 1100 
L 313 1709 
L 2253 4666 
z
" transform="scale(0.015625)"/>
       </defs>
       <use xlink:href="#DejaVuSans-30"/>
       <use xlink:href="#DejaVuSans-2e" x="63.623047"/>
       <use xlink:href="#DejaVuSans-34" x="95.410156"/>
      </g>
     </g>
    </g>
    <g id="xtick_4">
     <g id="line2d_7">
      <path d="M 358.351781 462.04 
L 358.351781 29.04 
" clip-path="url(#p60ae7e0293)" style="fill: none; stroke-dasharray: 2.96,1.28; stroke-dashoffset: 0; stroke: #b0b0b0; stroke-width: 0.8"/>
     </g>
     <g id="line2d_8">
      <g>
       <use xlink:href="#mbbadfc0f55" x="358.351781" y="462.04" style="stroke: #000000; stroke-width: 0.8"/>
      </g>
     </g>
     <g id="text_4">
      <!-- 0.6 -->
      <g transform="translate(350.400218 476.638438) scale(0.1 -0.1)">
       <defs>
        <path id="DejaVuSans-36" d="M 2113 2584 
Q 1688 2584 1439 2293 
Q 1191 2003 1191 1497 
Q 1191 994 1439 701 
Q 1688 409 2113 409 
Q 2538 409 2786 701 
Q 3034 994 3034 1497 
Q 3034 2003 2786 2293 
Q 2538 2584 2113 2584 
z
M 3366 4563 
L 3366 3988 
Q 3128 4100 2886 4159 
Q 2644 4219 2406 4219 
Q 1781 4219 1451 3797 
Q 1122 3375 1075 2522 
Q 1259 2794 1537 2939 
Q 1816 3084 2150 3084 
Q 2853 3084 3261 2657 
Q 3669 2231 3669 1497 
Q 3669 778 3244 343 
Q 2819 -91 2113 -91 
Q 1303 -91 875 529 
Q 447 1150 447 2328 
Q 447 3434 972 4092 
Q 1497 4750 2381 4750 
Q 2619 4750 2861 4703 
Q 3103 4656 3366 4563 
z
" transform="scale(0.015625)"/>
       </defs>
       <use xlink:href="#DejaVuSans-30"/>
       <use xlink:href="#DejaVuSans-2e" x="63.623047"/>
       <use xlink:href="#DejaVuSans-36" x="95.410156"/>
      </g>
     </g>
    </g>
    <g id="xtick_5">
     <g id="line2d_9">
      <path d="M 448.884495 462.04 
L 448.884495 29.04 
" clip-path="url(#p60ae7e0293)" style="fill: none; stroke-dasharray: 2.96,1.28; stroke-dashoffset: 0; stroke: #b0b0b0; stroke-width: 0.8"/>
     </g>
     <g id="line2d_10">
      <g>
       <use xlink:href="#mbbadfc0f55" x="448.884495" y="462.04" style="stroke: #000000; stroke-width: 0.8"/>
      </g>
     </g>
     <g id="text_5">
      <!-- 0.8 -->
      <g transform="translate(440.932933 476.638438) scale(0.1 -0.1)">
       <defs>
        <path id="DejaVuSans-38" d="M 2034 2216 
Q 1584 2216 1326 1975 
Q 1069 1734 1069 1313 
Q 1069 891 1326 650 
Q 1584 409 2034 409 
Q 2484 409 2743 651 
Q 3003 894 3003 1313 
Q 3003 1734 2745 1975 
Q 2488 2216 2034 2216 
z
M 1403 2484 
Q 997 2584 770 2862 
Q 544 3141 544 3541 
Q 544 4100 942 4425 
Q 1341 4750 2034 4750 
Q 2731 4750 3128 4425 
Q 3525 4100 3525 3541 
Q 3525 3141 3298 2862 
Q 3072 2584 2669 2484 
Q 3125 2378 3379 2068 
Q 3634 1759 3634 1313 
Q 3634 634 3220 271 
Q 2806 -91 2034 -91 
Q 1263 -91 848 271 
Q 434 634 434 1313 
Q 434 1759 690 2068 
Q 947 2378 1403 2484 
z
M 1172 3481 
Q 1172 3119 1398 2916 
Q 1625 2713 2034 2713 
Q 2441 2713 2670 2916 
Q 2900 3119 2900 3481 
Q 2900 3844 2670 4047 
Q 2441 4250 2034 4250 
Q 1625 4250 1398 4047 
Q 1172 3844 1172 3481 
z
" transform="scale(0.015625)"/>
       </defs>
       <use xlink:href="#DejaVuSans-30"/>
       <use xlink:href="#DejaVuSans-2e" x="63.623047"/>
       <use xlink:href="#DejaVuSans-38" x="95.410156"/>
      </g>
     </g>
    </g>
    <g id="xtick_6">
     <g id="line2d_11">
      <path d="M 539.41721 462.04 
L 539.41721 29.04 
" clip-path="url(#p60ae7e0293)" style="fill: none; stroke-dasharray: 2.96,1.28; stroke-dashoffset: 0; stroke: #b0b0b0; stroke-width: 0.8"/>
     </g>
     <g id="line2d_12">
      <g>
       <use xlink:href="#mbbadfc0f55" x="539.41721" y="462.04" style="stroke: #000000; stroke-width: 0.8"/>
      </g>
     </g>
     <g id="text_6">
      <!-- 1.0 -->
      <g transform="translate(531.465647 476.638438) scale(0.1 -0.1)">
       <defs>
        <path id="DejaVuSans-31" d="M 794 531 
L 1825 531 
L 1825 4091 
L 703 3866 
L 703 4441 
L 1819 4666 
L 2450 4666 
L 2450 531 
L 3481 531 
L 3481 0 
L 794 0 
L 794 531 
z
" transform="scale(0.015625)"/>
       </defs>
       <use xlink:href="#DejaVuSans-31"/>
       <use xlink:href="#DejaVuSans-2e" x="63.623047"/>
       <use xlink:href="#DejaVuSans-30" x="95.410156"/>
      </g>
     </g>
    </g>
    <g id="xtick_7">
     <g id="line2d_13">
      <path d="M 629.949925 462.04 
L 629.949925 29.04 
" clip-path="url(#p60ae7e0293)" style="fill: none; stroke-dasharray: 2.96,1.28; stroke-dashoffset: 0; stroke: #b0b0b0; stroke-width: 0.8"/>
     </g>
     <g id="line2d_14">
      <g>
       <use xlink:href="#mbbadfc0f55" x="629.949925" y="462.04" style="stroke: #000000; stroke-width: 0.8"/>
      </g>
     </g>
     <g id="text_7">
      <!-- 1.2 -->
      <g transform="translate(621.998362 476.638438) scale(0.1 -0.1)">
       <use xlink:href="#DejaVuSans-31"/>
       <use xlink:href="#DejaVuSans-2e" x="63.623047"/>
       <use xlink:href="#DejaVuSans-32" x="95.410156"/>
      </g>
     </g>
    </g>
    <g id="xtick_8">
     <g id="line2d_15">
      <path d="M 720.482639 462.04 
L 720.482639 29.04 
" clip-path="url(#p60ae7e0293)" style="fill: none; stroke-dasharray: 2.96,1.28; stroke-dashoffset: 0; stroke: #b0b0b0; stroke-width: 0.8"/>
     </g>
     <g id="line2d_16">
      <g>
       <use xlink:href="#mbbadfc0f55" x="720.482639" y="462.04" style="stroke: #000000; stroke-width: 0.8"/>
      </g>
     </g>
     <g id="text_8">
      <!-- 1.4 -->
      <g transform="translate(712.531077 476.638438) scale(0.1 -0.1)">
       <use xlink:href="#DejaVuSans-31"/>
       <use xlink:href="#DejaVuSans-2e" x="63.623047"/>
       <use xlink:href="#DejaVuSans-34" x="95.410156"/>
      </g>
     </g>
    </g>
    <g id="text_9">
     <!-- Time (s) -->
     <g transform="translate(405.911094 490.316563) scale(0.1 -0.1)">
      <defs>
       <path id="DejaVuSans-54" d="M -19 4666 
L 3928 4666 
L 3928 4134 
L 2272 4134 
L 2272 0 
L 1638 0 
L 1638 4134 
L -19 4134 
L -19 4666 
z
" transform="scale(0.015625)"/>
       <path id="DejaVuSans-69" d="M 603 3500 
L 1178 3500 
L 1178 0 
L 603 0 
L 603 3500 
z
M 603 4863 
L 1178 4863 
L 1178 4134 
L 603 4134 
L 603 4863 
z
" transform="scale(0.015625)"/>
       <path id="DejaVuSans-6d" d="M 3328 2828 
Q 3544 3216 3844 3400 
Q 4144 3584 4550 3584 
Q 5097 3584 5394 3201 
Q 5691 2819 5691 2113 
L 5691 0 
L 5113 0 
L 5113 2094 
Q 5113 2597 4934 2840 
Q 4756 3084 4391 3084 
Q 3944 3084 3684 2787 
Q 3425 2491 3425 1978 
L 3425 0 
L 2847 0 
L 2847 2094 
Q 2847 2600 2669 2842 
Q 2491 3084 2119 3084 
Q 1678 3084 1418 2786 
Q 1159 2488 1159 1978 
L 1159 0 
L 581 0 
L 581 3500 
L 1159 3500 
L 1159 2956 
Q 1356 3278 1631 3431 
Q 1906 3584 2284 3584 
Q 2666 3584 2933 3390 
Q 3200 3197 3328 2828 
z
" transform="scale(0.015625)"/>
       <path id="DejaVuSans-65" d="M 3597 1894 
L 3597 1613 
L 953 1613 
Q 991 1019 1311 708 
Q 1631 397 2203 397 
Q 2534 397 2845 478 
Q 3156 559 3463 722 
L 3463 178 
Q 3153 47 2828 -22 
Q 2503 -91 2169 -91 
Q 1331 -91 842 396 
Q 353 884 353 1716 
Q 353 2575 817 3079 
Q 1281 3584 2069 3584 
Q 2775 3584 3186 3129 
Q 3597 2675 3597 1894 
z
M 3022 2063 
Q 3016 2534 2758 2815 
Q 2500 3097 2075 3097 
Q 1594 3097 1305 2825 
Q 1016 2553 972 2059 
L 3022 2063 
z
" transform="scale(0.015625)"/>
       <path id="DejaVuSans-20" transform="scale(0.015625)"/>
       <path id="DejaVuSans-28" d="M 1984 4856 
Q 1566 4138 1362 3434 
Q 1159 2731 1159 2009 
Q 1159 1288 1364 580 
Q 1569 -128 1984 -844 
L 1484 -844 
Q 1016 -109 783 600 
Q 550 1309 550 2009 
Q 550 2706 781 3412 
Q 1013 4119 1484 4856 
L 1984 4856 
z
" transform="scale(0.015625)"/>
       <path id="DejaVuSans-73" d="M 2834 3397 
L 2834 2853 
Q 2591 2978 2328 3040 
Q 2066 3103 1784 3103 
Q 1356 3103 1142 2972 
Q 928 2841 928 2578 
Q 928 2378 1081 2264 
Q 1234 2150 1697 2047 
L 1894 2003 
Q 2506 1872 2764 1633 
Q 3022 1394 3022 966 
Q 3022 478 2636 193 
Q 2250 -91 1575 -91 
Q 1294 -91 989 -36 
Q 684 19 347 128 
L 347 722 
Q 666 556 975 473 
Q 1284 391 1588 391 
Q 1994 391 2212 530 
Q 2431 669 2431 922 
Q 2431 1156 2273 1281 
Q 2116 1406 1581 1522 
L 1381 1569 
Q 847 1681 609 1914 
Q 372 2147 372 2553 
Q 372 3047 722 3315 
Q 1072 3584 1716 3584 
Q 2034 3584 2315 3537 
Q 2597 3491 2834 3397 
z
" transform="scale(0.015625)"/>
       <path id="DejaVuSans-29" d="M 513 4856 
L 1013 4856 
Q 1481 4119 1714 3412 
Q 1947 2706 1947 2009 
Q 1947 1309 1714 600 
Q 1481 -109 1013 -844 
L 513 -844 
Q 928 -128 1133 580 
Q 1338 1288 1338 2009 
Q 1338 2731 1133 3434 
Q 928 4138 513 4856 
z
" transform="scale(0.015625)"/>
      </defs>
      <use xlink:href="#DejaVuSans-54"/>
      <use xlink:href="#DejaVuSans-69" x="57.958984"/>
      <use xlink:href="#DejaVuSans-6d" x="85.742188"/>
      <use xlink:href="#DejaVuSans-65" x="183.154297"/>
      <use xlink:href="#DejaVuSans-20" x="244.677734"/>
      <use xlink:href="#DejaVuSans-28" x="276.464844"/>
      <use xlink:href="#DejaVuSans-73" x="315.478516"/>
      <use xlink:href="#DejaVuSans-29" x="367.578125"/>
     </g>
    </g>
   </g>
   <g id="matplotlib.axis_2">
    <g id="ytick_1">
     <g id="line2d_17">
      <path d="M 52.805 442.358182 
L 799.675 442.358182 
" clip-path="url(#p60ae7e0293)" style="fill: none; stroke-dasharray: 2.96,1.28; stroke-dashoffset: 0; stroke: #b0b0b0; stroke-width: 0.8"/>
     </g>
     <g id="line2d_18">
      <defs>
       <path id="me88cef1db9" d="M 0 0 
L -3.5 0 
" style="stroke: #000000; stroke-width: 0.8"/>
      </defs>
      <g>
       <use xlink:href="#me88cef1db9" x="52.805" y="442.358182" style="stroke: #000000; stroke-width: 0.8"/>
      </g>
     </g>
     <g id="text_10">
      <!-- 600 -->
      <g style="fill: #1f77b4" transform="translate(26.7175 446.157401) scale(0.1 -0.1)">
       <use xlink:href="#DejaVuSans-36"/>
       <use xlink:href="#DejaVuSans-30" x="63.623047"/>
       <use xlink:href="#DejaVuSans-30" x="127.246094"/>
      </g>
     </g>
    </g>
    <g id="ytick_2">
     <g id="line2d_19">
      <path d="M 52.805 389.873333 
L 799.675 389.873333 
" clip-path="url(#p60ae7e0293)" style="fill: none; stroke-dasharray: 2.96,1.28; stroke-dashoffset: 0; stroke: #b0b0b0; stroke-width: 0.8"/>
     </g>
     <g id="line2d_20">
      <g>
       <use xlink:href="#me88cef1db9" x="52.805" y="389.873333" style="stroke: #000000; stroke-width: 0.8"/>
      </g>
     </g>
     <g id="text_11">
      <!-- 602 -->
      <g style="fill: #1f77b4" transform="translate(26.7175 393.672552) scale(0.1 -0.1)">
       <use xlink:href="#DejaVuSans-36"/>
       <use xlink:href="#DejaVuSans-30" x="63.623047"/>
       <use xlink:href="#DejaVuSans-32" x="127.246094"/>
      </g>
     </g>
    </g>
    <g id="ytick_3">
     <g id="line2d_21">
      <path d="M 52.805 337.388485 
L 799.675 337.388485 
" clip-path="url(#p60ae7e0293)" style="fill: none; stroke-dasharray: 2.96,1.28; stroke-dashoffset: 0; stroke: #b0b0b0; stroke-width: 0.8"/>
     </g>
     <g id="line2d_22">
      <g>
       <use xlink:href="#me88cef1db9" x="52.805" y="337.388485" style="stroke: #000000; stroke-width: 0.8"/>
      </g>
     </g>
     <g id="text_12">
      <!-- 604 -->
      <g style="fill: #1f77b4" transform="translate(26.7175 341.187704) scale(0.1 -0.1)">
       <use xlink:href="#DejaVuSans-36"/>
       <use xlink:href="#DejaVuSans-30" x="63.623047"/>
       <use xlink:href="#DejaVuSans-34" x="127.246094"/>
      </g>
     </g>
    </g>
    <g id="ytick_4">
     <g id="line2d_23">
      <path d="M 52.805 284.903636 
L 799.675 284.903636 
" clip-path="url(#p60ae7e0293)" style="fill: none; stroke-dasharray: 2.96,1.28; stroke-dashoffset: 0; stroke: #b0b0b0; stroke-width: 0.8"/>
     </g>
     <g id="line2d_24">
      <g>
       <use xlink:href="#me88cef1db9" x="52.805" y="284.903636" style="stroke: #000000; stroke-width: 0.8"/>
      </g>
     </g>
     <g id="text_13">
      <!-- 606 -->
      <g style="fill: #1f77b4" transform="translate(26.7175 288.702855) scale(0.1 -0.1)">
       <use xlink:href="#DejaVuSans-36"/>
       <use xlink:href="#DejaVuSans-30" x="63.623047"/>
       <use xlink:href="#DejaVuSans-36" x="127.246094"/>
      </g>
     </g>
    </g>
    <g id="ytick_5">
     <g id="line2d_25">
      <path d="M 52.805 232.418788 
L 799.675 232.418788 
" clip-path="url(#p60ae7e0293)" style="fill: none; stroke-dasharray: 2.96,1.28; stroke-dashoffset: 0; stroke: #b0b0b0; stroke-width: 0.8"/>
     </g>
     <g id="line2d_26">
      <g>
       <use xlink:href="#me88cef1db9" x="52.805" y="232.418788" style="stroke: #000000; stroke-width: 0.8"/>
      </g>
     </g>
     <g id="text_14">
      <!-- 608 -->
      <g style="fill: #1f77b4" transform="translate(26.7175 236.218007) scale(0.1 -0.1)">
       <use xlink:href="#DejaVuSans-36"/>
       <use xlink:href="#DejaVuSans-30" x="63.623047"/>
       <use xlink:href="#DejaVuSans-38" x="127.246094"/>
      </g>
     </g>
    </g>
    <g id="ytick_6">
     <g id="line2d_27">
      <path d="M 52.805 179.933939 
L 799.675 179.933939 
" clip-path="url(#p60ae7e0293)" style="fill: none; stroke-dasharray: 2.96,1.28; stroke-dashoffset: 0; stroke: #b0b0b0; stroke-width: 0.8"/>
     </g>
     <g id="line2d_28">
      <g>
       <use xlink:href="#me88cef1db9" x="52.805" y="179.933939" style="stroke: #000000; stroke-width: 0.8"/>
      </g>
     </g>
     <g id="text_15">
      <!-- 610 -->
      <g style="fill: #1f77b4" transform="translate(26.7175 183.733158) scale(0.1 -0.1)">
       <use xlink:href="#DejaVuSans-36"/>
       <use xlink:href="#DejaVuSans-31" x="63.623047"/>
       <use xlink:href="#DejaVuSans-30" x="127.246094"/>
      </g>
     </g>
    </g>
    <g id="ytick_7">
     <g id="line2d_29">
      <path d="M 52.805 127.449091 
L 799.675 127.449091 
" clip-path="url(#p60ae7e0293)" style="fill: none; stroke-dasharray: 2.96,1.28; stroke-dashoffset: 0; stroke: #b0b0b0; stroke-width: 0.8"/>
     </g>
     <g id="line2d_30">
      <g>
       <use xlink:href="#me88cef1db9" x="52.805" y="127.449091" style="stroke: #000000; stroke-width: 0.8"/>
      </g>
     </g>
     <g id="text_16">
      <!-- 612 -->
      <g style="fill: #1f77b4" transform="translate(26.7175 131.24831) scale(0.1 -0.1)">
       <use xlink:href="#DejaVuSans-36"/>
       <use xlink:href="#DejaVuSans-31" x="63.623047"/>
       <use xlink:href="#DejaVuSans-32" x="127.246094"/>
      </g>
     </g>
    </g>
    <g id="ytick_8">
     <g id="line2d_31">
      <path d="M 52.805 74.964242 
L 799.675 74.964242 
" clip-path="url(#p60ae7e0293)" style="fill: none; stroke-dasharray: 2.96,1.28; stroke-dashoffset: 0; stroke: #b0b0b0; stroke-width: 0.8"/>
     </g>
     <g id="line2d_32">
      <g>
       <use xlink:href="#me88cef1db9" x="52.805" y="74.964242" style="stroke: #000000; stroke-width: 0.8"/>
      </g>
     </g>
     <g id="text_17">
      <!-- 614 -->
      <g style="fill: #1f77b4" transform="translate(26.7175 78.763461) scale(0.1 -0.1)">
       <use xlink:href="#DejaVuSans-36"/>
       <use xlink:href="#DejaVuSans-31" x="63.623047"/>
       <use xlink:href="#DejaVuSans-34" x="127.246094"/>
      </g>
     </g>
    </g>
    <g id="text_18">
     <!-- Displacement (µm) -->
     <g style="fill: #1f77b4" transform="translate(20.221875 303.037812) rotate(-90) scale(0.12 -0.12)">
      <defs>
       <path id="DejaVuSans-44" d="M 1259 4147 
L 1259 519 
L 2022 519 
Q 2988 519 3436 956 
Q 3884 1394 3884 2338 
Q 3884 3275 3436 3711 
Q 2988 4147 2022 4147 
L 1259 4147 
z
M 628 4666 
L 1925 4666 
Q 3281 4666 3915 4102 
Q 4550 3538 4550 2338 
Q 4550 1131 3912 565 
Q 3275 0 1925 0 
L 628 0 
L 628 4666 
z
" transform="scale(0.015625)"/>
       <path id="DejaVuSans-70" d="M 1159 525 
L 1159 -1331 
L 581 -1331 
L 581 3500 
L 1159 3500 
L 1159 2969 
Q 1341 3281 1617 3432 
Q 1894 3584 2278 3584 
Q 2916 3584 3314 3078 
Q 3713 2572 3713 1747 
Q 3713 922 3314 415 
Q 2916 -91 2278 -91 
Q 1894 -91 1617 61 
Q 1341 213 1159 525 
z
M 3116 1747 
Q 3116 2381 2855 2742 
Q 2594 3103 2138 3103 
Q 1681 3103 1420 2742 
Q 1159 2381 1159 1747 
Q 1159 1113 1420 752 
Q 1681 391 2138 391 
Q 2594 391 2855 752 
Q 3116 1113 3116 1747 
z
" transform="scale(0.015625)"/>
       <path id="DejaVuSans-6c" d="M 603 4863 
L 1178 4863 
L 1178 0 
L 603 0 
L 603 4863 
z
" transform="scale(0.015625)"/>
       <path id="DejaVuSans-61" d="M 2194 1759 
Q 1497 1759 1228 1600 
Q 959 1441 959 1056 
Q 959 750 1161 570 
Q 1363 391 1709 391 
Q 2188 391 2477 730 
Q 2766 1069 2766 1631 
L 2766 1759 
L 2194 1759 
z
M 3341 1997 
L 3341 0 
L 2766 0 
L 2766 531 
Q 2569 213 2275 61 
Q 1981 -91 1556 -91 
Q 1019 -91 701 211 
Q 384 513 384 1019 
Q 384 1609 779 1909 
Q 1175 2209 1959 2209 
L 2766 2209 
L 2766 2266 
Q 2766 2663 2505 2880 
Q 2244 3097 1772 3097 
Q 1472 3097 1187 3025 
Q 903 2953 641 2809 
L 641 3341 
Q 956 3463 1253 3523 
Q 1550 3584 1831 3584 
Q 2591 3584 2966 3190 
Q 3341 2797 3341 1997 
z
" transform="scale(0.015625)"/>
       <path id="DejaVuSans-63" d="M 3122 3366 
L 3122 2828 
Q 2878 2963 2633 3030 
Q 2388 3097 2138 3097 
Q 1578 3097 1268 2742 
Q 959 2388 959 1747 
Q 959 1106 1268 751 
Q 1578 397 2138 397 
Q 2388 397 2633 464 
Q 2878 531 3122 666 
L 3122 134 
Q 2881 22 2623 -34 
Q 2366 -91 2075 -91 
Q 1284 -91 818 406 
Q 353 903 353 1747 
Q 353 2603 823 3093 
Q 1294 3584 2113 3584 
Q 2378 3584 2631 3529 
Q 2884 3475 3122 3366 
z
" transform="scale(0.015625)"/>
       <path id="DejaVuSans-6e" d="M 3513 2113 
L 3513 0 
L 2938 0 
L 2938 2094 
Q 2938 2591 2744 2837 
Q 2550 3084 2163 3084 
Q 1697 3084 1428 2787 
Q 1159 2491 1159 1978 
L 1159 0 
L 581 0 
L 581 3500 
L 1159 3500 
L 1159 2956 
Q 1366 3272 1645 3428 
Q 1925 3584 2291 3584 
Q 2894 3584 3203 3211 
Q 3513 2838 3513 2113 
z
" transform="scale(0.015625)"/>
       <path id="DejaVuSans-74" d="M 1172 4494 
L 1172 3500 
L 2356 3500 
L 2356 3053 
L 1172 3053 
L 1172 1153 
Q 1172 725 1289 603 
Q 1406 481 1766 481 
L 2356 481 
L 2356 0 
L 1766 0 
Q 1100 0 847 248 
Q 594 497 594 1153 
L 594 3053 
L 172 3053 
L 172 3500 
L 594 3500 
L 594 4494 
L 1172 4494 
z
" transform="scale(0.015625)"/>
       <path id="DejaVuSans-b5" d="M 544 -1331 
L 544 3500 
L 1119 3500 
L 1119 1325 
Q 1119 872 1334 640 
Q 1550 409 1972 409 
Q 2434 409 2667 671 
Q 2900 934 2900 1459 
L 2900 3500 
L 3475 3500 
L 3475 806 
Q 3475 619 3529 530 
Q 3584 441 3700 441 
Q 3728 441 3778 458 
Q 3828 475 3916 513 
L 3916 50 
Q 3788 -22 3673 -56 
Q 3559 -91 3450 -91 
Q 3234 -91 3106 31 
Q 2978 153 2931 403 
Q 2775 156 2548 32 
Q 2322 -91 2016 -91 
Q 1697 -91 1473 31 
Q 1250 153 1119 397 
L 1119 -1331 
L 544 -1331 
z
" transform="scale(0.015625)"/>
      </defs>
      <use xlink:href="#DejaVuSans-44"/>
      <use xlink:href="#DejaVuSans-69" x="77.001953"/>
      <use xlink:href="#DejaVuSans-73" x="104.785156"/>
      <use xlink:href="#DejaVuSans-70" x="156.884766"/>
      <use xlink:href="#DejaVuSans-6c" x="220.361328"/>
      <use xlink:href="#DejaVuSans-61" x="248.144531"/>
      <use xlink:href="#DejaVuSans-63" x="309.423828"/>
      <use xlink:href="#DejaVuSans-65" x="364.404297"/>
      <use xlink:href="#DejaVuSans-6d" x="425.927734"/>
      <use xlink:href="#DejaVuSans-65" x="523.339844"/>
      <use xlink:href="#DejaVuSans-6e" x="584.863281"/>
      <use xlink:href="#DejaVuSans-74" x="648.242188"/>
      <use xlink:href="#DejaVuSans-20" x="687.451172"/>
      <use xlink:href="#DejaVuSans-28" x="719.238281"/>
      <use xlink:href="#DejaVuSans-b5" x="758.251953"/>
      <use xlink:href="#DejaVuSans-6d" x="821.875"/>
      <use xlink:href="#DejaVuSans-29" x="919.287109"/>
     </g>
    </g>
   </g>
   <g id="line2d_33">
    <path d="M 86.753636 442.356711 
L 96.689602 442.238555 
L 99.654548 441.988251 
L 101.646268 441.605108 
L 103.185324 441.087534 
L 104.475415 440.422533 
L 105.629707 439.575381 
L 106.693467 438.513721 
L 107.71196 437.172828 
L 108.70782 435.477432 
L 109.681046 433.369616 
L 110.654273 430.722802 
L 111.650133 427.348432 
L 112.668626 423.074673 
L 113.709752 417.701832 
L 114.773512 411.003261 
L 115.882537 402.540049 
L 117.036829 391.935738 
L 118.236388 378.784315 
L 119.503846 362.358803 
L 120.861837 341.766517 
L 122.355626 315.572648 
L 124.053115 281.683807 
L 126.203267 233.934944 
L 131.227832 120.552193 
L 132.676356 93.721478 
L 133.853281 75.77348 
L 134.826508 64.062069 
L 135.641302 56.680019 
L 136.320298 52.323383 
L 136.886127 49.984388 
L 137.316158 49.006516 
L 137.633022 48.731471 
L 137.881987 48.781131 
L 138.153585 49.101854 
L 138.493083 49.892649 
L 138.923113 51.511816 
L 139.46631 54.529733 
L 140.122672 59.588437 
L 140.8922 67.404007 
L 141.797527 79.027814 
L 142.883919 96.076838 
L 144.196644 120.437666 
L 145.916765 156.838958 
L 152.548287 301.672652 
L 154.155242 329.667275 
L 155.581133 350.779124 
L 156.893857 367.023672 
L 158.093416 379.252012 
L 159.225075 388.619546 
L 160.288834 395.644314 
L 161.284694 400.790354 
L 162.212654 404.45669 
L 163.050082 406.920539 
L 163.81961 408.545792 
L 164.521238 409.543952 
L 165.154967 410.084136 
L 165.74343 410.304365 
L 166.309259 410.281005 
L 166.897722 410.03151 
L 167.554084 409.504732 
L 168.323612 408.584059 
L 169.228939 407.12615 
L 170.292699 404.958005 
L 171.537524 401.881935 
L 172.986047 397.682084 
L 174.683536 392.051971 
L 176.675255 384.64767 
L 179.051739 374.919449 
L 182.039319 361.69323 
L 192.609013 313.988064 
L 194.736532 305.908137 
L 196.547186 299.861842 
L 198.131509 295.308131 
L 199.534766 291.915396 
L 200.802224 289.408913 
L 201.933883 287.642709 
L 202.952376 286.447668 
L 203.857703 285.706783 
L 204.69513 285.29479 
L 205.487292 285.148809 
L 206.25682 285.234571 
L 207.026348 285.544245 
L 207.841142 286.114705 
L 208.723836 287.011102 
L 209.697063 288.329094 
L 210.783456 290.19796 
L 211.983014 292.730404 
L 213.318372 296.097813 
L 214.812161 300.499293 
L 216.487017 306.150812 
L 218.43347 313.535389 
L 220.764687 323.294102 
L 223.910699 337.50214 
L 232.330242 375.993424 
L 235.091489 387.324309 
L 237.51324 396.358945 
L 239.731291 403.807152 
L 241.813544 410.048545 
L 243.805263 415.336232 
L 245.729083 419.825903 
L 247.585004 423.607912 
L 249.418292 426.847047 
L 251.206313 429.566586 
L 252.994334 431.890279 
L 254.782355 433.857605 
L 256.615642 435.546193 
L 258.494196 436.974547 
L 260.44065 438.177116 
L 262.522902 439.199916 
L 264.763587 440.049996 
L 267.253236 440.751985 
L 270.082384 441.313513 
L 273.454727 441.748162 
L 277.709765 442.060624 
L 283.662291 442.256878 
L 294.164086 442.34589 
L 341.286364 442.358182 
L 435.983583 442.247826 
L 439.039063 442.003301 
L 441.053415 441.628447 
L 442.615105 441.115925 
L 443.905196 440.464186 
L 445.059488 439.633206 
L 446.123247 438.590986 
L 447.141741 437.273654 
L 448.1376 435.606826 
L 449.110827 433.533029 
L 450.084054 430.927057 
L 451.079914 427.602309 
L 452.098407 423.388198 
L 453.139533 418.08618 
L 454.203292 411.470531 
L 455.312318 403.104965 
L 456.46661 392.613537 
L 457.666169 379.589645 
L 458.933627 363.306662 
L 460.291617 342.869987 
L 461.762774 317.261961 
L 463.437629 284.064588 
L 465.542515 237.581691 
L 470.861312 117.848798 
L 472.287202 91.831666 
L 473.441494 74.558228 
L 474.414721 63.129399 
L 475.229515 56.003118 
L 475.908511 51.86944 
L 476.451707 49.783843 
L 476.859104 48.944043 
L 477.175969 48.723103 
L 477.424934 48.815283 
L 477.696532 49.182303 
L 478.058663 50.102584 
L 478.511326 51.939908 
L 479.054522 55.136687 
L 479.710885 60.404339 
L 480.503046 68.717745 
L 481.431006 80.982947 
L 482.540032 98.816188 
L 483.898023 124.522636 
L 485.708677 163.406328 
L 491.593303 293.038887 
L 493.245525 322.979725 
L 494.716682 345.75932 
L 496.05204 363.113913 
L 497.274231 376.258004 
L 498.428523 386.378282 
L 499.514916 394.006596 
L 500.510776 399.516479 
L 501.438736 403.489827 
L 502.298797 406.266909 
L 503.090958 408.127708 
L 503.81522 409.299111 
L 504.471582 409.963004 
L 505.060045 410.264092 
L 505.625874 410.312427 
L 506.214337 410.131618 
L 506.848066 409.694881 
L 507.572328 408.915737 
L 508.432388 407.641553 
L 509.428248 405.747264 
L 510.605174 403.004883 
L 511.985797 399.194237 
L 513.615386 394.005179 
L 515.516573 387.172336 
L 517.757258 378.255267 
L 520.518506 366.299124 
L 524.547212 347.73867 
L 529.866009 323.39216 
L 532.446191 312.636713 
L 534.528443 304.869467 
L 536.293831 299.098331 
L 537.855521 294.718754 
L 539.236145 291.475965 
L 540.480969 289.095897 
L 541.589995 287.431981 
L 542.585855 286.317111 
L 543.491182 285.622052 
L 544.32861 285.252901 
L 545.098138 285.147353 
L 545.867666 285.26609 
L 546.659827 285.622052 
L 547.497255 286.254393 
L 548.402582 287.230351 
L 549.398442 288.647946 
L 550.484834 290.593906 
L 551.707026 293.26147 
L 553.065017 296.78641 
L 554.58144 301.366698 
L 556.301561 307.297165 
L 558.293281 314.992799 
L 560.737664 325.379312 
L 564.155274 340.974094 
L 571.17156 373.160626 
L 574.045973 385.176685 
L 576.535623 394.658055 
L 578.798941 402.427049 
L 580.903827 408.885042 
L 582.918179 414.366168 
L 584.842 418.975338 
L 586.720553 422.910812 
L 588.553841 426.244611 
L 590.364495 429.081851 
L 592.152516 431.477694 
L 593.940537 433.509625 
L 595.751192 435.237032 
L 597.607112 436.704797 
L 599.553566 437.959689 
L 601.590552 439.008661 
L 603.78597 439.888755 
L 606.20772 440.617539 
L 608.968968 441.20992 
L 612.205513 441.669348 
L 616.234218 442.006174 
L 621.711448 442.225469 
L 630.742086 442.33549 
L 659.350424 442.358159 
L 765.726364 442.358182 
L 765.726364 442.358182 
" clip-path="url(#p60ae7e0293)" style="fill: none; stroke: #1f77b4; stroke-width: 1.5; stroke-linecap: square"/>
   </g>
   <g id="patch_3">
    <path d="M 52.805 462.04 
L 52.805 29.04 
" style="fill: none; stroke: #000000; stroke-width: 0.8; stroke-linejoin: miter; stroke-linecap: square"/>
   </g>
   <g id="patch_4">
    <path d="M 799.675 462.04 
L 799.675 29.04 
" style="fill: none; stroke: #000000; stroke-width: 0.8; stroke-linejoin: miter; stroke-linecap: square"/>
   </g>
   <g id="patch_5">
    <path d="M 52.805 462.04 
L 799.675 462.04 
" style="fill: none; stroke: #000000; stroke-width: 0.8; stroke-linejoin: miter; stroke-linecap: square"/>
   </g>
   <g id="patch_6">
    <path d="M 52.805 29.04 
L 799.675 29.04 
" style="fill: none; stroke: #000000; stroke-width: 0.8; stroke-linejoin: miter; stroke-linecap: square"/>
   </g>
   <g id="text_19">
    <!-- Input Pulse vs. Output Power -->
    <g transform="translate(310.8725 23.04) scale(0.16 -0.16)">
     <defs>
      <path id="DejaVuSans-49" d="M 628 4666 
L 1259 4666 
L 1259 0 
L 628 0 
L 628 4666 
z
" transform="scale(0.015625)"/>
      <path id="DejaVuSans-75" d="M 544 1381 
L 544 3500 
L 1119 3500 
L 1119 1403 
Q 1119 906 1312 657 
Q 1506 409 1894 409 
Q 2359 409 2629 706 
Q 2900 1003 2900 1516 
L 2900 3500 
L 3475 3500 
L 3475 0 
L 2900 0 
L 2900 538 
Q 2691 219 2414 64 
Q 2138 -91 1772 -91 
Q 1169 -91 856 284 
Q 544 659 544 1381 
z
M 1991 3584 
L 1991 3584 
z
" transform="scale(0.015625)"/>
      <path id="DejaVuSans-50" d="M 1259 4147 
L 1259 2394 
L 2053 2394 
Q 2494 2394 2734 2622 
Q 2975 2850 2975 3272 
Q 2975 3691 2734 3919 
Q 2494 4147 2053 4147 
L 1259 4147 
z
M 628 4666 
L 2053 4666 
Q 2838 4666 3239 4311 
Q 3641 3956 3641 3272 
Q 3641 2581 3239 2228 
Q 2838 1875 2053 1875 
L 1259 1875 
L 1259 0 
L 628 0 
L 628 4666 
z
" transform="scale(0.015625)"/>
      <path id="DejaVuSans-76" d="M 191 3500 
L 800 3500 
L 1894 563 
L 2988 3500 
L 3597 3500 
L 2284 0 
L 1503 0 
L 191 3500 
z
" transform="scale(0.015625)"/>
      <path id="DejaVuSans-4f" d="M 2522 4238 
Q 1834 4238 1429 3725 
Q 1025 3213 1025 2328 
Q 1025 1447 1429 934 
Q 1834 422 2522 422 
Q 3209 422 3611 934 
Q 4013 1447 4013 2328 
Q 4013 3213 3611 3725 
Q 3209 4238 2522 4238 
z
M 2522 4750 
Q 3503 4750 4090 4092 
Q 4678 3434 4678 2328 
Q 4678 1225 4090 567 
Q 3503 -91 2522 -91 
Q 1538 -91 948 565 
Q 359 1222 359 2328 
Q 359 3434 948 4092 
Q 1538 4750 2522 4750 
z
" transform="scale(0.015625)"/>
      <path id="DejaVuSans-6f" d="M 1959 3097 
Q 1497 3097 1228 2736 
Q 959 2375 959 1747 
Q 959 1119 1226 758 
Q 1494 397 1959 397 
Q 2419 397 2687 759 
Q 2956 1122 2956 1747 
Q 2956 2369 2687 2733 
Q 2419 3097 1959 3097 
z
M 1959 3584 
Q 2709 3584 3137 3096 
Q 3566 2609 3566 1747 
Q 3566 888 3137 398 
Q 2709 -91 1959 -91 
Q 1206 -91 779 398 
Q 353 888 353 1747 
Q 353 2609 779 3096 
Q 1206 3584 1959 3584 
z
" transform="scale(0.015625)"/>
      <path id="DejaVuSans-77" d="M 269 3500 
L 844 3500 
L 1563 769 
L 2278 3500 
L 2956 3500 
L 3675 769 
L 4391 3500 
L 4966 3500 
L 4050 0 
L 3372 0 
L 2619 2869 
L 1863 0 
L 1184 0 
L 269 3500 
z
" transform="scale(0.015625)"/>
      <path id="DejaVuSans-72" d="M 2631 2963 
Q 2534 3019 2420 3045 
Q 2306 3072 2169 3072 
Q 1681 3072 1420 2755 
Q 1159 2438 1159 1844 
L 1159 0 
L 581 0 
L 581 3500 
L 1159 3500 
L 1159 2956 
Q 1341 3275 1631 3429 
Q 1922 3584 2338 3584 
Q 2397 3584 2469 3576 
Q 2541 3569 2628 3553 
L 2631 2963 
z
" transform="scale(0.015625)"/>
     </defs>
     <use xlink:href="#DejaVuSans-49"/>
     <use xlink:href="#DejaVuSans-6e" x="29.492188"/>
     <use xlink:href="#DejaVuSans-70" x="92.871094"/>
     <use xlink:href="#DejaVuSans-75" x="156.347656"/>
     <use xlink:href="#DejaVuSans-74" x="219.726562"/>
     <use xlink:href="#DejaVuSans-20" x="258.935547"/>
     <use xlink:href="#DejaVuSans-50" x="290.722656"/>
     <use xlink:href="#DejaVuSans-75" x="349.275391"/>
     <use xlink:href="#DejaVuSans-6c" x="412.654297"/>
     <use xlink:href="#DejaVuSans-73" x="440.4375"/>
     <use xlink:href="#DejaVuSans-65" x="492.537109"/>
     <use xlink:href="#DejaVuSans-20" x="554.060547"/>
     <use xlink:href="#DejaVuSans-76" x="585.847656"/>
     <use xlink:href="#DejaVuSans-73" x="645.027344"/>
     <use xlink:href="#DejaVuSans-2e" x="697.126953"/>
     <use xlink:href="#DejaVuSans-20" x="728.914062"/>
     <use xlink:href="#DejaVuSans-4f" x="760.701172"/>
     <use xlink:href="#DejaVuSans-75" x="839.412109"/>
     <use xlink:href="#DejaVuSans-74" x="902.791016"/>
     <use xlink:href="#DejaVuSans-70" x="942"/>
     <use xlink:href="#DejaVuSans-75" x="1005.476562"/>
     <use xlink:href="#DejaVuSans-74" x="1068.855469"/>
     <use xlink:href="#DejaVuSans-20" x="1108.064453"/>
     <use xlink:href="#DejaVuSans-50" x="1139.851562"/>
     <use xlink:href="#DejaVuSans-6f" x="1196.529297"/>
     <use xlink:href="#DejaVuSans-77" x="1257.710938"/>
     <use xlink:href="#DejaVuSans-65" x="1339.498047"/>
     <use xlink:href="#DejaVuSans-72" x="1401.021484"/>
    </g>
   </g>
  </g>
  <g id="axes_2">
   <g id="matplotlib.axis_3">
    <g id="ytick_9">
     <g id="line2d_34">
      <defs>
       <path id="m35535aa0ab" d="M 0 0 
L 3.5 0 
" style="stroke: #000000; stroke-width: 0.8"/>
      </defs>
      <g>
       <use xlink:href="#m35535aa0ab" x="799.675" y="419.338506" style="stroke: #000000; stroke-width: 0.8"/>
      </g>
     </g>
     <g id="text_20">
      <!-- −45.8 -->
      <g style="fill: #d62728" transform="translate(806.675 423.137725) scale(0.1 -0.1)">
       <defs>
        <path id="DejaVuSans-2212" d="M 678 2272 
L 4684 2272 
L 4684 1741 
L 678 1741 
L 678 2272 
z
" transform="scale(0.015625)"/>
        <path id="DejaVuSans-35" d="M 691 4666 
L 3169 4666 
L 3169 4134 
L 1269 4134 
L 1269 2991 
Q 1406 3038 1543 3061 
Q 1681 3084 1819 3084 
Q 2600 3084 3056 2656 
Q 3513 2228 3513 1497 
Q 3513 744 3044 326 
Q 2575 -91 1722 -91 
Q 1428 -91 1123 -41 
Q 819 9 494 109 
L 494 744 
Q 775 591 1075 516 
Q 1375 441 1709 441 
Q 2250 441 2565 725 
Q 2881 1009 2881 1497 
Q 2881 1984 2565 2268 
Q 2250 2553 1709 2553 
Q 1456 2553 1204 2497 
Q 953 2441 691 2322 
L 691 4666 
z
" transform="scale(0.015625)"/>
       </defs>
       <use xlink:href="#DejaVuSans-2212"/>
       <use xlink:href="#DejaVuSans-34" x="83.789062"/>
       <use xlink:href="#DejaVuSans-35" x="147.412109"/>
       <use xlink:href="#DejaVuSans-2e" x="211.035156"/>
       <use xlink:href="#DejaVuSans-38" x="242.822266"/>
      </g>
     </g>
    </g>
    <g id="ytick_10">
     <g id="line2d_35">
      <g>
       <use xlink:href="#m35535aa0ab" x="799.675" y="368.148265" style="stroke: #000000; stroke-width: 0.8"/>
      </g>
     </g>
     <g id="text_21">
      <!-- −45.6 -->
      <g style="fill: #d62728" transform="translate(806.675 371.947484) scale(0.1 -0.1)">
       <use xlink:href="#DejaVuSans-2212"/>
       <use xlink:href="#DejaVuSans-34" x="83.789062"/>
       <use xlink:href="#DejaVuSans-35" x="147.412109"/>
       <use xlink:href="#DejaVuSans-2e" x="211.035156"/>
       <use xlink:href="#DejaVuSans-36" x="242.822266"/>
      </g>
     </g>
    </g>
    <g id="ytick_11">
     <g id="line2d_36">
      <g>
       <use xlink:href="#m35535aa0ab" x="799.675" y="316.958023" style="stroke: #000000; stroke-width: 0.8"/>
      </g>
     </g>
     <g id="text_22">
      <!-- −45.4 -->
      <g style="fill: #d62728" transform="translate(806.675 320.757242) scale(0.1 -0.1)">
       <use xlink:href="#DejaVuSans-2212"/>
       <use xlink:href="#DejaVuSans-34" x="83.789062"/>
       <use xlink:href="#DejaVuSans-35" x="147.412109"/>
       <use xlink:href="#DejaVuSans-2e" x="211.035156"/>
       <use xlink:href="#DejaVuSans-34" x="242.822266"/>
      </g>
     </g>
    </g>
    <g id="ytick_12">
     <g id="line2d_37">
      <g>
       <use xlink:href="#m35535aa0ab" x="799.675" y="265.767782" style="stroke: #000000; stroke-width: 0.8"/>
      </g>
     </g>
     <g id="text_23">
      <!-- −45.2 -->
      <g style="fill: #d62728" transform="translate(806.675 269.567001) scale(0.1 -0.1)">
       <use xlink:href="#DejaVuSans-2212"/>
       <use xlink:href="#DejaVuSans-34" x="83.789062"/>
       <use xlink:href="#DejaVuSans-35" x="147.412109"/>
       <use xlink:href="#DejaVuSans-2e" x="211.035156"/>
       <use xlink:href="#DejaVuSans-32" x="242.822266"/>
      </g>
     </g>
    </g>
    <g id="ytick_13">
     <g id="line2d_38">
      <g>
       <use xlink:href="#m35535aa0ab" x="799.675" y="214.57754" style="stroke: #000000; stroke-width: 0.8"/>
      </g>
     </g>
     <g id="text_24">
      <!-- −45.0 -->
      <g style="fill: #d62728" transform="translate(806.675 218.376759) scale(0.1 -0.1)">
       <use xlink:href="#DejaVuSans-2212"/>
       <use xlink:href="#DejaVuSans-34" x="83.789062"/>
       <use xlink:href="#DejaVuSans-35" x="147.412109"/>
       <use xlink:href="#DejaVuSans-2e" x="211.035156"/>
       <use xlink:href="#DejaVuSans-30" x="242.822266"/>
      </g>
     </g>
    </g>
    <g id="ytick_14">
     <g id="line2d_39">
      <g>
       <use xlink:href="#m35535aa0ab" x="799.675" y="163.387299" style="stroke: #000000; stroke-width: 0.8"/>
      </g>
     </g>
     <g id="text_25">
      <!-- −44.8 -->
      <g style="fill: #d62728" transform="translate(806.675 167.186518) scale(0.1 -0.1)">
       <use xlink:href="#DejaVuSans-2212"/>
       <use xlink:href="#DejaVuSans-34" x="83.789062"/>
       <use xlink:href="#DejaVuSans-34" x="147.412109"/>
       <use xlink:href="#DejaVuSans-2e" x="211.035156"/>
       <use xlink:href="#DejaVuSans-38" x="242.822266"/>
      </g>
     </g>
    </g>
    <g id="ytick_15">
     <g id="line2d_40">
      <g>
       <use xlink:href="#m35535aa0ab" x="799.675" y="112.197057" style="stroke: #000000; stroke-width: 0.8"/>
      </g>
     </g>
     <g id="text_26">
      <!-- −44.6 -->
      <g style="fill: #d62728" transform="translate(806.675 115.996276) scale(0.1 -0.1)">
       <use xlink:href="#DejaVuSans-2212"/>
       <use xlink:href="#DejaVuSans-34" x="83.789062"/>
       <use xlink:href="#DejaVuSans-34" x="147.412109"/>
       <use xlink:href="#DejaVuSans-2e" x="211.035156"/>
       <use xlink:href="#DejaVuSans-36" x="242.822266"/>
      </g>
     </g>
    </g>
    <g id="ytick_16">
     <g id="line2d_41">
      <g>
       <use xlink:href="#m35535aa0ab" x="799.675" y="61.006816" style="stroke: #000000; stroke-width: 0.8"/>
      </g>
     </g>
     <g id="text_27">
      <!-- −44.4 -->
      <g style="fill: #d62728" transform="translate(806.675 64.806035) scale(0.1 -0.1)">
       <use xlink:href="#DejaVuSans-2212"/>
       <use xlink:href="#DejaVuSans-34" x="83.789062"/>
       <use xlink:href="#DejaVuSans-34" x="147.412109"/>
       <use xlink:href="#DejaVuSans-2e" x="211.035156"/>
       <use xlink:href="#DejaVuSans-34" x="242.822266"/>
      </g>
     </g>
    </g>
    <g id="text_28">
     <!-- Output Power (arbitrary units) -->
     <g style="fill: #d62728" transform="translate(850.438437 335.803437) rotate(-90) scale(0.12 -0.12)">
      <defs>
       <path id="DejaVuSans-62" d="M 3116 1747 
Q 3116 2381 2855 2742 
Q 2594 3103 2138 3103 
Q 1681 3103 1420 2742 
Q 1159 2381 1159 1747 
Q 1159 1113 1420 752 
Q 1681 391 2138 391 
Q 2594 391 2855 752 
Q 3116 1113 3116 1747 
z
M 1159 2969 
Q 1341 3281 1617 3432 
Q 1894 3584 2278 3584 
Q 2916 3584 3314 3078 
Q 3713 2572 3713 1747 
Q 3713 922 3314 415 
Q 2916 -91 2278 -91 
Q 1894 -91 1617 61 
Q 1341 213 1159 525 
L 1159 0 
L 581 0 
L 581 4863 
L 1159 4863 
L 1159 2969 
z
" transform="scale(0.015625)"/>
       <path id="DejaVuSans-79" d="M 2059 -325 
Q 1816 -950 1584 -1140 
Q 1353 -1331 966 -1331 
L 506 -1331 
L 506 -850 
L 844 -850 
Q 1081 -850 1212 -737 
Q 1344 -625 1503 -206 
L 1606 56 
L 191 3500 
L 800 3500 
L 1894 763 
L 2988 3500 
L 3597 3500 
L 2059 -325 
z
" transform="scale(0.015625)"/>
      </defs>
      <use xlink:href="#DejaVuSans-4f"/>
      <use xlink:href="#DejaVuSans-75" x="78.710938"/>
      <use xlink:href="#DejaVuSans-74" x="142.089844"/>
      <use xlink:href="#DejaVuSans-70" x="181.298828"/>
      <use xlink:href="#DejaVuSans-75" x="244.775391"/>
      <use xlink:href="#DejaVuSans-74" x="308.154297"/>
      <use xlink:href="#DejaVuSans-20" x="347.363281"/>
      <use xlink:href="#DejaVuSans-50" x="379.150391"/>
      <use xlink:href="#DejaVuSans-6f" x="435.828125"/>
      <use xlink:href="#DejaVuSans-77" x="497.009766"/>
      <use xlink:href="#DejaVuSans-65" x="578.796875"/>
      <use xlink:href="#DejaVuSans-72" x="640.320312"/>
      <use xlink:href="#DejaVuSans-20" x="681.433594"/>
      <use xlink:href="#DejaVuSans-28" x="713.220703"/>
      <use xlink:href="#DejaVuSans-61" x="752.234375"/>
      <use xlink:href="#DejaVuSans-72" x="813.513672"/>
      <use xlink:href="#DejaVuSans-62" x="854.626953"/>
      <use xlink:href="#DejaVuSans-69" x="918.103516"/>
      <use xlink:href="#DejaVuSans-74" x="945.886719"/>
      <use xlink:href="#DejaVuSans-72" x="985.095703"/>
      <use xlink:href="#DejaVuSans-61" x="1026.208984"/>
      <use xlink:href="#DejaVuSans-72" x="1087.488281"/>
      <use xlink:href="#DejaVuSans-79" x="1128.601562"/>
      <use xlink:href="#DejaVuSans-20" x="1187.78125"/>
      <use xlink:href="#DejaVuSans-75" x="1219.568359"/>
      <use xlink:href="#DejaVuSans-6e" x="1282.947266"/>
      <use xlink:href="#DejaVuSans-69" x="1346.326172"/>
      <use xlink:href="#DejaVuSans-74" x="1374.109375"/>
      <use xlink:href="#DejaVuSans-73" x="1413.318359"/>
      <use xlink:href="#DejaVuSans-29" x="1465.417969"/>
     </g>
    </g>
   </g>
   <g id="line2d_42">
    <path d="M 86.753636 219.089004 
L 93.362525 219.22154 
L 95.920074 219.484502 
L 97.640195 219.874628 
L 98.975553 220.397434 
L 100.107212 221.075855 
L 101.125705 221.950705 
L 102.053665 223.043523 
L 102.958992 224.466571 
L 103.841686 226.289891 
L 104.701747 228.589871 
L 105.561808 231.534713 
L 106.444502 235.386607 
L 107.327196 240.270315 
L 108.232523 246.58709 
L 109.160483 254.727343 
L 110.088444 264.894979 
L 111.039037 277.816783 
L 111.853832 290.90577 
L 111.899098 289.797601 
L 112.894958 262.608894 
L 113.936084 227.821194 
L 114.999843 184.56733 
L 116.108869 130.074157 
L 116.357834 122.497165 
L 117.534759 87.177293 
L 118.643785 48.736645 
L 118.802217 48.854389 
L 120.477073 50.249487 
L 120.703404 54.169401 
L 122.016129 79.586301 
L 122.084028 88.651131 
L 123.396753 328.383052 
L 123.464652 315.034102 
L 124.641577 71.208836 
L 124.754743 78.909755 
L 126.135367 193.88421 
L 126.950162 275.156504 
L 126.995428 270.141683 
L 128.081821 115.78789 
L 128.14972 121.392521 
L 129.326645 226.541945 
L 130.413038 397.109652 
L 130.435671 394.052759 
L 131.952094 204.236093 
L 133.196919 80.619889 
L 133.242185 86.262488 
L 134.328578 292.892562 
L 135.233905 425.606762 
L 135.369704 442.200134 
L 135.414971 437.740871 
L 136.139232 358.43288 
L 136.727695 315.511917 
L 137.202992 295.249349 
L 137.542489 288.738773 
L 137.700922 287.979228 
L 137.723555 287.989167 
L 137.814087 288.325011 
L 137.97252 290.052249 
L 138.221485 295.692795 
L 138.560982 309.1283 
L 139.013646 337.270432 
L 139.556842 386.235217 
L 140.032139 442.358182 
L 140.100039 435.226381 
L 140.869567 327.896867 
L 141.774894 167.941205 
L 142.204924 80.190758 
L 142.295457 87.264925 
L 143.472382 204.150739 
L 144.400342 315.39323 
L 145.034071 398.219702 
L 145.079338 391.273312 
L 146.527861 184.944087 
L 147.387922 115.662532 
L 147.410555 118.835351 
L 148.542214 274.55758 
L 148.587481 270.109792 
L 150.14917 127.551161 
L 150.896065 71.26708 
L 150.918698 72.938359 
L 152.208789 328.207796 
L 152.231422 324.61673 
L 153.679946 79.590904 
L 155.151102 53.646279 
L 155.467967 50.172408 
L 157.120189 48.986622 
L 157.550219 48.723663 
L 158.229215 68.190108 
L 159.33824 95.346782 
L 160.379367 115.71308 
L 161.488392 136.72663 
L 162.371086 157.159104 
L 163.185881 171.215554 
L 163.910142 180.198103 
L 164.543871 185.585765 
L 165.087068 188.515583 
L 165.517098 189.807796 
L 165.833963 190.212797 
L 166.082928 190.220187 
L 166.331893 189.964372 
L 166.648757 189.272543 
L 167.078788 187.707889 
L 167.621984 184.763059 
L 168.278346 179.870523 
L 169.070507 172.197431 
L 170.021101 160.709862 
L 171.15276 144.194086 
L 172.465484 125.088882 
L 174.049807 109.856706 
L 175.905727 89.750883 
L 178.101146 63.425064 
L 179.255438 48.721818 
L 179.368604 48.750243 
L 185.026898 50.253729 
L 185.162697 50.91416 
L 190.345695 77.722084 
L 190.798359 79.939397 
L 195.07603 238.993323 
L 196.818784 292.748377 
L 198.154142 328.426535 
L 199.512133 296.178404 
L 200.711691 272.652266 
L 201.77545 255.884842 
L 202.703411 244.513583 
L 203.518205 237.089646 
L 204.197201 232.759495 
L 204.76303 230.451759 
L 205.19306 229.492438 
L 205.509925 229.22559 
L 205.75889 229.27801 
L 206.030488 229.598212 
L 206.369986 230.384141 
L 206.800016 231.993806 
L 207.320579 234.857724 
L 207.954308 239.689469 
L 208.701203 247.261932 
L 209.561264 258.460344 
L 210.534491 274.259492 
L 211.620883 295.690558 
L 212.843075 324.369131 
L 213.001507 328.42662 
L 213.046773 327.39306 
L 214.45003 289.491778 
L 216.034353 240.482478 
L 217.86764 176.587008 
L 220.040426 92.712655 
L 220.470456 79.387372 
L 223.458036 64.250075 
L 226.26455 50.216106 
L 231.877578 48.722017 
L 232.53394 57.214994 
L 235.249922 90.790415 
L 237.626405 117.504835 
L 238.803331 131.185422 
L 240.908216 172.299292 
L 242.899936 206.938963 
L 244.77849 235.860604 
L 246.589144 260.411992 
L 248.331899 281.118444 
L 249.259859 291.037075 
L 249.305126 290.815645 
L 250.979981 279.005977 
L 252.60957 269.059182 
L 254.193892 260.717898 
L 255.755582 253.654115 
L 257.294638 247.701156 
L 258.811061 242.706899 
L 260.30485 238.5344 
L 261.776007 235.06185 
L 263.247164 232.140919 
L 264.71832 229.698391 
L 266.21211 227.639478 
L 267.728533 225.919667 
L 269.290222 224.477688 
L 270.942444 223.254972 
L 272.685199 222.24162 
L 274.586386 221.395236 
L 276.713905 220.697123 
L 279.158288 220.13668 
L 282.077968 219.704133 
L 285.78981 219.390791 
L 290.995441 219.191438 
L 300.139245 219.097306 
L 337.053959 219.082282 
L 432.317008 219.192556 
L 435.100889 219.436177 
L 436.911544 219.808184 
L 438.292168 220.311345 
L 439.44646 220.964468 
L 440.464953 221.794651 
L 441.415546 222.86271 
L 442.320873 224.226891 
L 443.203567 225.977005 
L 444.063628 228.187382 
L 444.923689 231.020988 
L 445.806383 234.732038 
L 446.689077 239.443187 
L 447.594404 245.544705 
L 448.499731 253.204064 
L 449.427692 262.999372 
L 450.378285 275.468294 
L 451.351512 290.90577 
L 451.419411 289.239557 
L 452.415271 261.925123 
L 453.456397 226.985642 
L 454.520157 183.554868 
L 456.217645 112.296461 
L 457.39457 75.01513 
L 458.141465 48.736645 
L 458.254631 48.820501 
L 459.929486 50.208143 
L 459.974753 50.249487 
L 460.201085 54.169401 
L 461.513809 79.586301 
L 461.581709 88.651131 
L 462.894433 328.383052 
L 462.962332 315.034102 
L 464.139258 71.208836 
L 464.252424 78.909755 
L 465.633047 193.88421 
L 466.447842 275.156504 
L 466.493108 270.141683 
L 467.579501 115.78789 
L 467.6474 121.392521 
L 468.824326 226.541945 
L 469.910718 397.109652 
L 469.933351 394.052759 
L 471.449774 204.236093 
L 472.694599 80.619889 
L 472.739866 86.262488 
L 473.826258 292.892562 
L 474.731585 425.606762 
L 474.867384 442.200134 
L 474.912651 437.740871 
L 475.636912 358.43288 
L 476.225375 315.511917 
L 476.700672 295.249349 
L 477.04017 288.738773 
L 477.198602 287.979228 
L 477.221235 287.989167 
L 477.311768 288.325011 
L 477.4702 290.052249 
L 477.719165 295.692795 
L 478.058663 309.1283 
L 478.511326 337.270432 
L 479.054522 386.235217 
L 479.529819 442.358182 
L 479.597719 435.226381 
L 480.367247 327.896867 
L 481.272574 167.941205 
L 481.702604 80.190758 
L 481.793137 87.264925 
L 482.970062 204.150739 
L 483.898023 315.39323 
L 484.531752 398.219702 
L 484.577018 391.273312 
L 486.025541 184.944087 
L 486.885602 115.662532 
L 486.908235 118.835351 
L 488.039894 274.55758 
L 488.085161 270.109792 
L 489.64685 127.551161 
L 490.393745 71.26708 
L 490.416378 72.938359 
L 491.706469 328.207796 
L 491.729103 324.61673 
L 493.177626 79.590904 
L 494.648783 53.646279 
L 494.965647 50.172408 
L 496.617869 48.986622 
L 497.0479 48.723663 
L 497.726895 68.190108 
L 498.835921 95.346782 
L 499.877047 115.71308 
L 500.986073 136.72663 
L 501.868767 157.159104 
L 502.683561 171.215554 
L 503.407823 180.198103 
L 504.041552 185.585765 
L 504.584748 188.515583 
L 505.014778 189.807796 
L 505.331643 190.212797 
L 505.580608 190.220187 
L 505.829573 189.964372 
L 506.146437 189.272543 
L 506.576468 187.707889 
L 507.119664 184.763059 
L 507.776026 179.870523 
L 508.568187 172.197431 
L 509.518781 160.709862 
L 510.65044 144.194086 
L 511.963164 125.088882 
L 513.547487 109.856706 
L 515.403407 89.750883 
L 517.598826 63.425064 
L 518.753118 48.721818 
L 518.866284 48.750243 
L 524.524578 50.253729 
L 524.660377 50.91416 
L 529.843375 77.722084 
L 530.296039 79.939397 
L 534.57371 238.993323 
L 536.316465 292.748377 
L 537.651822 328.426535 
L 539.009813 296.178404 
L 540.209371 272.652266 
L 541.273131 255.884842 
L 542.201091 244.513583 
L 543.015885 237.089646 
L 543.694881 232.759495 
L 544.26071 230.451759 
L 544.690741 229.492438 
L 545.007605 229.22559 
L 545.25657 229.27801 
L 545.528168 229.598212 
L 545.867666 230.384141 
L 546.297696 231.993806 
L 546.818259 234.857724 
L 547.451988 239.689469 
L 548.198883 247.261932 
L 549.058944 258.460344 
L 550.032171 274.259492 
L 551.118563 295.690558 
L 552.340755 324.369131 
L 552.499187 328.42662 
L 552.544454 327.39306 
L 553.947711 289.491778 
L 555.532033 240.482478 
L 557.365321 176.587008 
L 559.538106 92.712655 
L 559.968136 79.387372 
L 562.955716 64.250075 
L 565.76223 50.216106 
L 571.375258 48.722017 
L 572.03162 57.214994 
L 574.747602 90.790415 
L 577.124086 117.504835 
L 578.301011 131.185422 
L 580.405897 172.299292 
L 582.397616 206.938963 
L 584.27617 235.860604 
L 586.086824 260.411992 
L 587.829579 281.118444 
L 588.75754 291.037075 
L 588.802806 290.815645 
L 590.477661 279.005977 
L 592.10725 269.059182 
L 593.691572 260.717898 
L 595.253262 253.654115 
L 596.792318 247.701156 
L 598.308741 242.706899 
L 599.802531 238.5344 
L 601.273687 235.06185 
L 602.744844 232.140919 
L 604.216001 229.698391 
L 605.70979 227.639478 
L 607.226213 225.919667 
L 608.787903 224.477688 
L 610.440125 223.254972 
L 612.182879 222.24162 
L 614.084066 221.395236 
L 616.211585 220.697123 
L 618.655969 220.13668 
L 621.575649 219.704133 
L 625.28749 219.390791 
L 630.493121 219.191438 
L 639.636925 219.097306 
L 676.55164 219.082282 
L 765.726364 219.082282 
L 765.726364 219.082282 
" clip-path="url(#p60ae7e0293)" style="fill: none; stroke: #d62728; stroke-opacity: 0.9; stroke-width: 1.5; stroke-linecap: square"/>
   </g>
   <g id="patch_7">
    <path d="M 52.805 462.04 
L 52.805 29.04 
" style="fill: none; stroke: #000000; stroke-width: 0.8; stroke-linejoin: miter; stroke-linecap: square"/>
   </g>
   <g id="patch_8">
    <path d="M 799.675 462.04 
L 799.675 29.04 
" style="fill: none; stroke: #000000; stroke-width: 0.8; stroke-linejoin: miter; stroke-linecap: square"/>
   </g>
   <g id="patch_9">
    <path d="M 52.805 462.04 
L 799.675 462.04 
" style="fill: none; stroke: #000000; stroke-width: 0.8; stroke-linejoin: miter; stroke-linecap: square"/>
   </g>
   <g id="patch_10">
    <path d="M 52.805 29.04 
L 799.675 29.04 
" style="fill: none; stroke: #000000; stroke-width: 0.8; stroke-linejoin: miter; stroke-linecap: square"/>
   </g>
  </g>
 </g>
 <defs>
  <clipPath id="p60ae7e0293">
   <rect x="52.805" y="29.04" width="746.87" height="433"/>
  </clipPath>
 </defs>
</svg>
