<?xml version="1.0" encoding="utf-8" standalone="no"?>
<!DOCTYPE svg PUBLIC "-//W3C//DTD SVG 1.1//EN"
  "http://www.w3.org/Graphics/SVG/1.1/DTD/svg11.dtd">
<svg xmlns:xlink="http://www.w3.org/1999/xlink" width="720pt" height="432pt" viewBox="0 0 720 432" xmlns="http://www.w3.org/2000/svg" version="1.1">
 <metadata>
  <rdf:RDF xmlns:dc="http://purl.org/dc/elements/1.1/" xmlns:cc="http://creativecommons.org/ns#" xmlns:rdf="http://www.w3.org/1999/02/22-rdf-syntax-ns#">
   <cc:Work>
    <dc:type rdf:resource="http://purl.org/dc/dcmitype/StillImage"/>
    <dc:date>2025-08-08T12:05:08.394035</dc:date>
    <dc:format>image/svg+xml</dc:format>
    <dc:creator>
     <cc:Agent>
      <dc:title>Matplotlib v3.7.5, https://matplotlib.org/</dc:title>
     </cc:Agent>
    </dc:creator>
   </cc:Work>
  </rdf:RDF>
 </metadata>
 <defs>
  <style type="text/css">*{stroke-linejoin: round; stroke-linecap: butt}</style>
 </defs>
 <g id="figure_1">
  <g id="patch_1">
   <path d="M 0 432 
L 720 432 
L 720 0 
L 0 0 
z
" style="fill: #ffffff"/>
  </g>
  <g id="axes_1">
   <g id="patch_2">
    <path d="M 90 384.48 
L 648 384.48 
L 648 51.84 
L 90 51.84 
z
" style="fill: #ffffff"/>
   </g>
   <g id="matplotlib.axis_1">
    <g id="xtick_1">
     <g id="line2d_1">
      <path d="M 115.363636 384.48 
L 115.363636 51.84 
" clip-path="url(#pb761bd8a82)" style="fill: none; stroke: #b0b0b0; stroke-width: 0.8; stroke-linecap: square"/>
     </g>
     <g id="line2d_2">
      <defs>
       <path id="m31b1d25d07" d="M 0 0 
L 0 3.5 
" style="stroke: #000000; stroke-width: 0.8"/>
      </defs>
      <g>
       <use xlink:href="#m31b1d25d07" x="115.363636" y="384.48" style="stroke: #000000; stroke-width: 0.8"/>
      </g>
     </g>
     <g id="text_1">
      <!-- 0.00 -->
      <g transform="translate(104.230824 399.078438) scale(0.1 -0.1)">
       <defs>
        <path id="DejaVuSans-30" d="M 2034 4250 
Q 1547 4250 1301 3770 
Q 1056 3291 1056 2328 
Q 1056 1369 1301 889 
Q 1547 409 2034 409 
Q 2525 409 2770 889 
Q 3016 1369 3016 2328 
Q 3016 3291 2770 3770 
Q 2525 4250 2034 4250 
z
M 2034 4750 
Q 2819 4750 3233 4129 
Q 3647 3509 3647 2328 
Q 3647 1150 3233 529 
Q 2819 -91 2034 -91 
Q 1250 -91 836 529 
Q 422 1150 422 2328 
Q 422 3509 836 4129 
Q 1250 4750 2034 4750 
z
" transform="scale(0.015625)"/>
        <path id="DejaVuSans-2e" d="M 684 794 
L 1344 794 
L 1344 0 
L 684 0 
L 684 794 
z
" transform="scale(0.015625)"/>
       </defs>
       <use xlink:href="#DejaVuSans-30"/>
       <use xlink:href="#DejaVuSans-2e" x="63.623047"/>
       <use xlink:href="#DejaVuSans-30" x="95.410156"/>
       <use xlink:href="#DejaVuSans-30" x="159.033203"/>
      </g>
     </g>
    </g>
    <g id="xtick_2">
     <g id="line2d_3">
      <path d="M 216.868934 384.48 
L 216.868934 51.84 
" clip-path="url(#pb761bd8a82)" style="fill: none; stroke: #b0b0b0; stroke-width: 0.8; stroke-linecap: square"/>
     </g>
     <g id="line2d_4">
      <g>
       <use xlink:href="#m31b1d25d07" x="216.868934" y="384.48" style="stroke: #000000; stroke-width: 0.8"/>
      </g>
     </g>
     <g id="text_2">
      <!-- 0.02 -->
      <g transform="translate(205.736122 399.078438) scale(0.1 -0.1)">
       <defs>
        <path id="DejaVuSans-32" d="M 1228 531 
L 3431 531 
L 3431 0 
L 469 0 
L 469 531 
Q 828 903 1448 1529 
Q 2069 2156 2228 2338 
Q 2531 2678 2651 2914 
Q 2772 3150 2772 3378 
Q 2772 3750 2511 3984 
Q 2250 4219 1831 4219 
Q 1534 4219 1204 4116 
Q 875 4013 500 3803 
L 500 4441 
Q 881 4594 1212 4672 
Q 1544 4750 1819 4750 
Q 2544 4750 2975 4387 
Q 3406 4025 3406 3419 
Q 3406 3131 3298 2873 
Q 3191 2616 2906 2266 
Q 2828 2175 2409 1742 
Q 1991 1309 1228 531 
z
" transform="scale(0.015625)"/>
       </defs>
       <use xlink:href="#DejaVuSans-30"/>
       <use xlink:href="#DejaVuSans-2e" x="63.623047"/>
       <use xlink:href="#DejaVuSans-30" x="95.410156"/>
       <use xlink:href="#DejaVuSans-32" x="159.033203"/>
      </g>
     </g>
    </g>
    <g id="xtick_3">
     <g id="line2d_5">
      <path d="M 318.374233 384.48 
L 318.374233 51.84 
" clip-path="url(#pb761bd8a82)" style="fill: none; stroke: #b0b0b0; stroke-width: 0.8; stroke-linecap: square"/>
     </g>
     <g id="line2d_6">
      <g>
       <use xlink:href="#m31b1d25d07" x="318.374233" y="384.48" style="stroke: #000000; stroke-width: 0.8"/>
      </g>
     </g>
     <g id="text_3">
      <!-- 0.04 -->
      <g transform="translate(307.24142 399.078438) scale(0.1 -0.1)">
       <defs>
        <path id="DejaVuSans-34" d="M 2419 4116 
L 825 1625 
L 2419 1625 
L 2419 4116 
z
M 2253 4666 
L 3047 4666 
L 3047 1625 
L 3713 1625 
L 3713 1100 
L 3047 1100 
L 3047 0 
L 2419 0 
L 2419 1100 
L 313 1100 
L 313 1709 
L 2253 4666 
z
" transform="scale(0.015625)"/>
       </defs>
       <use xlink:href="#DejaVuSans-30"/>
       <use xlink:href="#DejaVuSans-2e" x="63.623047"/>
       <use xlink:href="#DejaVuSans-30" x="95.410156"/>
       <use xlink:href="#DejaVuSans-34" x="159.033203"/>
      </g>
     </g>
    </g>
    <g id="xtick_4">
     <g id="line2d_7">
      <path d="M 419.879531 384.48 
L 419.879531 51.84 
" clip-path="url(#pb761bd8a82)" style="fill: none; stroke: #b0b0b0; stroke-width: 0.8; stroke-linecap: square"/>
     </g>
     <g id="line2d_8">
      <g>
       <use xlink:href="#m31b1d25d07" x="419.879531" y="384.48" style="stroke: #000000; stroke-width: 0.8"/>
      </g>
     </g>
     <g id="text_4">
      <!-- 0.06 -->
      <g transform="translate(408.746718 399.078438) scale(0.1 -0.1)">
       <defs>
        <path id="DejaVuSans-36" d="M 2113 2584 
Q 1688 2584 1439 2293 
Q 1191 2003 1191 1497 
Q 1191 994 1439 701 
Q 1688 409 2113 409 
Q 2538 409 2786 701 
Q 3034 994 3034 1497 
Q 3034 2003 2786 2293 
Q 2538 2584 2113 2584 
z
M 3366 4563 
L 3366 3988 
Q 3128 4100 2886 4159 
Q 2644 4219 2406 4219 
Q 1781 4219 1451 3797 
Q 1122 3375 1075 2522 
Q 1259 2794 1537 2939 
Q 1816 3084 2150 3084 
Q 2853 3084 3261 2657 
Q 3669 2231 3669 1497 
Q 3669 778 3244 343 
Q 2819 -91 2113 -91 
Q 1303 -91 875 529 
Q 447 1150 447 2328 
Q 447 3434 972 4092 
Q 1497 4750 2381 4750 
Q 2619 4750 2861 4703 
Q 3103 4656 3366 4563 
z
" transform="scale(0.015625)"/>
       </defs>
       <use xlink:href="#DejaVuSans-30"/>
       <use xlink:href="#DejaVuSans-2e" x="63.623047"/>
       <use xlink:href="#DejaVuSans-30" x="95.410156"/>
       <use xlink:href="#DejaVuSans-36" x="159.033203"/>
      </g>
     </g>
    </g>
    <g id="xtick_5">
     <g id="line2d_9">
      <path d="M 521.384829 384.48 
L 521.384829 51.84 
" clip-path="url(#pb761bd8a82)" style="fill: none; stroke: #b0b0b0; stroke-width: 0.8; stroke-linecap: square"/>
     </g>
     <g id="line2d_10">
      <g>
       <use xlink:href="#m31b1d25d07" x="521.384829" y="384.48" style="stroke: #000000; stroke-width: 0.8"/>
      </g>
     </g>
     <g id="text_5">
      <!-- 0.08 -->
      <g transform="translate(510.252016 399.078438) scale(0.1 -0.1)">
       <defs>
        <path id="DejaVuSans-38" d="M 2034 2216 
Q 1584 2216 1326 1975 
Q 1069 1734 1069 1313 
Q 1069 891 1326 650 
Q 1584 409 2034 409 
Q 2484 409 2743 651 
Q 3003 894 3003 1313 
Q 3003 1734 2745 1975 
Q 2488 2216 2034 2216 
z
M 1403 2484 
Q 997 2584 770 2862 
Q 544 3141 544 3541 
Q 544 4100 942 4425 
Q 1341 4750 2034 4750 
Q 2731 4750 3128 4425 
Q 3525 4100 3525 3541 
Q 3525 3141 3298 2862 
Q 3072 2584 2669 2484 
Q 3125 2378 3379 2068 
Q 3634 1759 3634 1313 
Q 3634 634 3220 271 
Q 2806 -91 2034 -91 
Q 1263 -91 848 271 
Q 434 634 434 1313 
Q 434 1759 690 2068 
Q 947 2378 1403 2484 
z
M 1172 3481 
Q 1172 3119 1398 2916 
Q 1625 2713 2034 2713 
Q 2441 2713 2670 2916 
Q 2900 3119 2900 3481 
Q 2900 3844 2670 4047 
Q 2441 4250 2034 4250 
Q 1625 4250 1398 4047 
Q 1172 3844 1172 3481 
z
" transform="scale(0.015625)"/>
       </defs>
       <use xlink:href="#DejaVuSans-30"/>
       <use xlink:href="#DejaVuSans-2e" x="63.623047"/>
       <use xlink:href="#DejaVuSans-30" x="95.410156"/>
       <use xlink:href="#DejaVuSans-38" x="159.033203"/>
      </g>
     </g>
    </g>
    <g id="xtick_6">
     <g id="line2d_11">
      <path d="M 622.890127 384.48 
L 622.890127 51.84 
" clip-path="url(#pb761bd8a82)" style="fill: none; stroke: #b0b0b0; stroke-width: 0.8; stroke-linecap: square"/>
     </g>
     <g id="line2d_12">
      <g>
       <use xlink:href="#m31b1d25d07" x="622.890127" y="384.48" style="stroke: #000000; stroke-width: 0.8"/>
      </g>
     </g>
     <g id="text_6">
      <!-- 0.10 -->
      <g transform="translate(611.757314 399.078438) scale(0.1 -0.1)">
       <defs>
        <path id="DejaVuSans-31" d="M 794 531 
L 1825 531 
L 1825 4091 
L 703 3866 
L 703 4441 
L 1819 4666 
L 2450 4666 
L 2450 531 
L 3481 531 
L 3481 0 
L 794 0 
L 794 531 
z
" transform="scale(0.015625)"/>
       </defs>
       <use xlink:href="#DejaVuSans-30"/>
       <use xlink:href="#DejaVuSans-2e" x="63.623047"/>
       <use xlink:href="#DejaVuSans-31" x="95.410156"/>
       <use xlink:href="#DejaVuSans-30" x="159.033203"/>
      </g>
     </g>
    </g>
    <g id="text_7">
     <!-- Time (s) -->
     <g transform="translate(348.671094 412.756563) scale(0.1 -0.1)">
      <defs>
       <path id="DejaVuSans-54" d="M -19 4666 
L 3928 4666 
L 3928 4134 
L 2272 4134 
L 2272 0 
L 1638 0 
L 1638 4134 
L -19 4134 
L -19 4666 
z
" transform="scale(0.015625)"/>
       <path id="DejaVuSans-69" d="M 603 3500 
L 1178 3500 
L 1178 0 
L 603 0 
L 603 3500 
z
M 603 4863 
L 1178 4863 
L 1178 4134 
L 603 4134 
L 603 4863 
z
" transform="scale(0.015625)"/>
       <path id="DejaVuSans-6d" d="M 3328 2828 
Q 3544 3216 3844 3400 
Q 4144 3584 4550 3584 
Q 5097 3584 5394 3201 
Q 5691 2819 5691 2113 
L 5691 0 
L 5113 0 
L 5113 2094 
Q 5113 2597 4934 2840 
Q 4756 3084 4391 3084 
Q 3944 3084 3684 2787 
Q 3425 2491 3425 1978 
L 3425 0 
L 2847 0 
L 2847 2094 
Q 2847 2600 2669 2842 
Q 2491 3084 2119 3084 
Q 1678 3084 1418 2786 
Q 1159 2488 1159 1978 
L 1159 0 
L 581 0 
L 581 3500 
L 1159 3500 
L 1159 2956 
Q 1356 3278 1631 3431 
Q 1906 3584 2284 3584 
Q 2666 3584 2933 3390 
Q 3200 3197 3328 2828 
z
" transform="scale(0.015625)"/>
       <path id="DejaVuSans-65" d="M 3597 1894 
L 3597 1613 
L 953 1613 
Q 991 1019 1311 708 
Q 1631 397 2203 397 
Q 2534 397 2845 478 
Q 3156 559 3463 722 
L 3463 178 
Q 3153 47 2828 -22 
Q 2503 -91 2169 -91 
Q 1331 -91 842 396 
Q 353 884 353 1716 
Q 353 2575 817 3079 
Q 1281 3584 2069 3584 
Q 2775 3584 3186 3129 
Q 3597 2675 3597 1894 
z
M 3022 2063 
Q 3016 2534 2758 2815 
Q 2500 3097 2075 3097 
Q 1594 3097 1305 2825 
Q 1016 2553 972 2059 
L 3022 2063 
z
" transform="scale(0.015625)"/>
       <path id="DejaVuSans-20" transform="scale(0.015625)"/>
       <path id="DejaVuSans-28" d="M 1984 4856 
Q 1566 4138 1362 3434 
Q 1159 2731 1159 2009 
Q 1159 1288 1364 580 
Q 1569 -128 1984 -844 
L 1484 -844 
Q 1016 -109 783 600 
Q 550 1309 550 2009 
Q 550 2706 781 3412 
Q 1013 4119 1484 4856 
L 1984 4856 
z
" transform="scale(0.015625)"/>
       <path id="DejaVuSans-73" d="M 2834 3397 
L 2834 2853 
Q 2591 2978 2328 3040 
Q 2066 3103 1784 3103 
Q 1356 3103 1142 2972 
Q 928 2841 928 2578 
Q 928 2378 1081 2264 
Q 1234 2150 1697 2047 
L 1894 2003 
Q 2506 1872 2764 1633 
Q 3022 1394 3022 966 
Q 3022 478 2636 193 
Q 2250 -91 1575 -91 
Q 1294 -91 989 -36 
Q 684 19 347 128 
L 347 722 
Q 666 556 975 473 
Q 1284 391 1588 391 
Q 1994 391 2212 530 
Q 2431 669 2431 922 
Q 2431 1156 2273 1281 
Q 2116 1406 1581 1522 
L 1381 1569 
Q 847 1681 609 1914 
Q 372 2147 372 2553 
Q 372 3047 722 3315 
Q 1072 3584 1716 3584 
Q 2034 3584 2315 3537 
Q 2597 3491 2834 3397 
z
" transform="scale(0.015625)"/>
       <path id="DejaVuSans-29" d="M 513 4856 
L 1013 4856 
Q 1481 4119 1714 3412 
Q 1947 2706 1947 2009 
Q 1947 1309 1714 600 
Q 1481 -109 1013 -844 
L 513 -844 
Q 928 -128 1133 580 
Q 1338 1288 1338 2009 
Q 1338 2731 1133 3434 
Q 928 4138 513 4856 
z
" transform="scale(0.015625)"/>
      </defs>
      <use xlink:href="#DejaVuSans-54"/>
      <use xlink:href="#DejaVuSans-69" x="57.958984"/>
      <use xlink:href="#DejaVuSans-6d" x="85.742188"/>
      <use xlink:href="#DejaVuSans-65" x="183.154297"/>
      <use xlink:href="#DejaVuSans-20" x="244.677734"/>
      <use xlink:href="#DejaVuSans-28" x="276.464844"/>
      <use xlink:href="#DejaVuSans-73" x="315.478516"/>
      <use xlink:href="#DejaVuSans-29" x="367.578125"/>
     </g>
    </g>
   </g>
   <g id="matplotlib.axis_2">
    <g id="ytick_1">
     <g id="line2d_13">
      <path d="M 90 369.36 
L 648 369.36 
" clip-path="url(#pb761bd8a82)" style="fill: none; stroke: #b0b0b0; stroke-width: 0.8; stroke-linecap: square"/>
     </g>
     <g id="line2d_14">
      <defs>
       <path id="m8f58c1898c" d="M 0 0 
L -3.5 0 
" style="stroke: #000000; stroke-width: 0.8"/>
      </defs>
      <g>
       <use xlink:href="#m8f58c1898c" x="90" y="369.36" style="stroke: #000000; stroke-width: 0.8"/>
      </g>
     </g>
     <g id="text_8">
      <!-- 585 -->
      <g transform="translate(63.9125 373.159219) scale(0.1 -0.1)">
       <defs>
        <path id="DejaVuSans-35" d="M 691 4666 
L 3169 4666 
L 3169 4134 
L 1269 4134 
L 1269 2991 
Q 1406 3038 1543 3061 
Q 1681 3084 1819 3084 
Q 2600 3084 3056 2656 
Q 3513 2228 3513 1497 
Q 3513 744 3044 326 
Q 2575 -91 1722 -91 
Q 1428 -91 1123 -41 
Q 819 9 494 109 
L 494 744 
Q 775 591 1075 516 
Q 1375 441 1709 441 
Q 2250 441 2565 725 
Q 2881 1009 2881 1497 
Q 2881 1984 2565 2268 
Q 2250 2553 1709 2553 
Q 1456 2553 1204 2497 
Q 953 2441 691 2322 
L 691 4666 
z
" transform="scale(0.015625)"/>
       </defs>
       <use xlink:href="#DejaVuSans-35"/>
       <use xlink:href="#DejaVuSans-38" x="63.623047"/>
       <use xlink:href="#DejaVuSans-35" x="127.246094"/>
      </g>
     </g>
    </g>
    <g id="ytick_2">
     <g id="line2d_15">
      <path d="M 90 318.96 
L 648 318.96 
" clip-path="url(#pb761bd8a82)" style="fill: none; stroke: #b0b0b0; stroke-width: 0.8; stroke-linecap: square"/>
     </g>
     <g id="line2d_16">
      <g>
       <use xlink:href="#m8f58c1898c" x="90" y="318.96" style="stroke: #000000; stroke-width: 0.8"/>
      </g>
     </g>
     <g id="text_9">
      <!-- 590 -->
      <g transform="translate(63.9125 322.759219) scale(0.1 -0.1)">
       <defs>
        <path id="DejaVuSans-39" d="M 703 97 
L 703 672 
Q 941 559 1184 500 
Q 1428 441 1663 441 
Q 2288 441 2617 861 
Q 2947 1281 2994 2138 
Q 2813 1869 2534 1725 
Q 2256 1581 1919 1581 
Q 1219 1581 811 2004 
Q 403 2428 403 3163 
Q 403 3881 828 4315 
Q 1253 4750 1959 4750 
Q 2769 4750 3195 4129 
Q 3622 3509 3622 2328 
Q 3622 1225 3098 567 
Q 2575 -91 1691 -91 
Q 1453 -91 1209 -44 
Q 966 3 703 97 
z
M 1959 2075 
Q 2384 2075 2632 2365 
Q 2881 2656 2881 3163 
Q 2881 3666 2632 3958 
Q 2384 4250 1959 4250 
Q 1534 4250 1286 3958 
Q 1038 3666 1038 3163 
Q 1038 2656 1286 2365 
Q 1534 2075 1959 2075 
z
" transform="scale(0.015625)"/>
       </defs>
       <use xlink:href="#DejaVuSans-35"/>
       <use xlink:href="#DejaVuSans-39" x="63.623047"/>
       <use xlink:href="#DejaVuSans-30" x="127.246094"/>
      </g>
     </g>
    </g>
    <g id="ytick_3">
     <g id="line2d_17">
      <path d="M 90 268.56 
L 648 268.56 
" clip-path="url(#pb761bd8a82)" style="fill: none; stroke: #b0b0b0; stroke-width: 0.8; stroke-linecap: square"/>
     </g>
     <g id="line2d_18">
      <g>
       <use xlink:href="#m8f58c1898c" x="90" y="268.56" style="stroke: #000000; stroke-width: 0.8"/>
      </g>
     </g>
     <g id="text_10">
      <!-- 595 -->
      <g transform="translate(63.9125 272.359219) scale(0.1 -0.1)">
       <use xlink:href="#DejaVuSans-35"/>
       <use xlink:href="#DejaVuSans-39" x="63.623047"/>
       <use xlink:href="#DejaVuSans-35" x="127.246094"/>
      </g>
     </g>
    </g>
    <g id="ytick_4">
     <g id="line2d_19">
      <path d="M 90 218.16 
L 648 218.16 
" clip-path="url(#pb761bd8a82)" style="fill: none; stroke: #b0b0b0; stroke-width: 0.8; stroke-linecap: square"/>
     </g>
     <g id="line2d_20">
      <g>
       <use xlink:href="#m8f58c1898c" x="90" y="218.16" style="stroke: #000000; stroke-width: 0.8"/>
      </g>
     </g>
     <g id="text_11">
      <!-- 600 -->
      <g transform="translate(63.9125 221.959219) scale(0.1 -0.1)">
       <use xlink:href="#DejaVuSans-36"/>
       <use xlink:href="#DejaVuSans-30" x="63.623047"/>
       <use xlink:href="#DejaVuSans-30" x="127.246094"/>
      </g>
     </g>
    </g>
    <g id="ytick_5">
     <g id="line2d_21">
      <path d="M 90 167.76 
L 648 167.76 
" clip-path="url(#pb761bd8a82)" style="fill: none; stroke: #b0b0b0; stroke-width: 0.8; stroke-linecap: square"/>
     </g>
     <g id="line2d_22">
      <g>
       <use xlink:href="#m8f58c1898c" x="90" y="167.76" style="stroke: #000000; stroke-width: 0.8"/>
      </g>
     </g>
     <g id="text_12">
      <!-- 605 -->
      <g transform="translate(63.9125 171.559219) scale(0.1 -0.1)">
       <use xlink:href="#DejaVuSans-36"/>
       <use xlink:href="#DejaVuSans-30" x="63.623047"/>
       <use xlink:href="#DejaVuSans-35" x="127.246094"/>
      </g>
     </g>
    </g>
    <g id="ytick_6">
     <g id="line2d_23">
      <path d="M 90 117.36 
L 648 117.36 
" clip-path="url(#pb761bd8a82)" style="fill: none; stroke: #b0b0b0; stroke-width: 0.8; stroke-linecap: square"/>
     </g>
     <g id="line2d_24">
      <g>
       <use xlink:href="#m8f58c1898c" x="90" y="117.36" style="stroke: #000000; stroke-width: 0.8"/>
      </g>
     </g>
     <g id="text_13">
      <!-- 610 -->
      <g transform="translate(63.9125 121.159219) scale(0.1 -0.1)">
       <use xlink:href="#DejaVuSans-36"/>
       <use xlink:href="#DejaVuSans-31" x="63.623047"/>
       <use xlink:href="#DejaVuSans-30" x="127.246094"/>
      </g>
     </g>
    </g>
    <g id="ytick_7">
     <g id="line2d_25">
      <path d="M 90 66.96 
L 648 66.96 
" clip-path="url(#pb761bd8a82)" style="fill: none; stroke: #b0b0b0; stroke-width: 0.8; stroke-linecap: square"/>
     </g>
     <g id="line2d_26">
      <g>
       <use xlink:href="#m8f58c1898c" x="90" y="66.96" style="stroke: #000000; stroke-width: 0.8"/>
      </g>
     </g>
     <g id="text_14">
      <!-- 615 -->
      <g transform="translate(63.9125 70.759219) scale(0.1 -0.1)">
       <use xlink:href="#DejaVuSans-36"/>
       <use xlink:href="#DejaVuSans-31" x="63.623047"/>
       <use xlink:href="#DejaVuSans-35" x="127.246094"/>
      </g>
     </g>
    </g>
    <g id="text_15">
     <!-- Displacement (µm) -->
     <g transform="translate(57.832812 266.074844) rotate(-90) scale(0.1 -0.1)">
      <defs>
       <path id="DejaVuSans-44" d="M 1259 4147 
L 1259 519 
L 2022 519 
Q 2988 519 3436 956 
Q 3884 1394 3884 2338 
Q 3884 3275 3436 3711 
Q 2988 4147 2022 4147 
L 1259 4147 
z
M 628 4666 
L 1925 4666 
Q 3281 4666 3915 4102 
Q 4550 3538 4550 2338 
Q 4550 1131 3912 565 
Q 3275 0 1925 0 
L 628 0 
L 628 4666 
z
" transform="scale(0.015625)"/>
       <path id="DejaVuSans-70" d="M 1159 525 
L 1159 -1331 
L 581 -1331 
L 581 3500 
L 1159 3500 
L 1159 2969 
Q 1341 3281 1617 3432 
Q 1894 3584 2278 3584 
Q 2916 3584 3314 3078 
Q 3713 2572 3713 1747 
Q 3713 922 3314 415 
Q 2916 -91 2278 -91 
Q 1894 -91 1617 61 
Q 1341 213 1159 525 
z
M 3116 1747 
Q 3116 2381 2855 2742 
Q 2594 3103 2138 3103 
Q 1681 3103 1420 2742 
Q 1159 2381 1159 1747 
Q 1159 1113 1420 752 
Q 1681 391 2138 391 
Q 2594 391 2855 752 
Q 3116 1113 3116 1747 
z
" transform="scale(0.015625)"/>
       <path id="DejaVuSans-6c" d="M 603 4863 
L 1178 4863 
L 1178 0 
L 603 0 
L 603 4863 
z
" transform="scale(0.015625)"/>
       <path id="DejaVuSans-61" d="M 2194 1759 
Q 1497 1759 1228 1600 
Q 959 1441 959 1056 
Q 959 750 1161 570 
Q 1363 391 1709 391 
Q 2188 391 2477 730 
Q 2766 1069 2766 1631 
L 2766 1759 
L 2194 1759 
z
M 3341 1997 
L 3341 0 
L 2766 0 
L 2766 531 
Q 2569 213 2275 61 
Q 1981 -91 1556 -91 
Q 1019 -91 701 211 
Q 384 513 384 1019 
Q 384 1609 779 1909 
Q 1175 2209 1959 2209 
L 2766 2209 
L 2766 2266 
Q 2766 2663 2505 2880 
Q 2244 3097 1772 3097 
Q 1472 3097 1187 3025 
Q 903 2953 641 2809 
L 641 3341 
Q 956 3463 1253 3523 
Q 1550 3584 1831 3584 
Q 2591 3584 2966 3190 
Q 3341 2797 3341 1997 
z
" transform="scale(0.015625)"/>
       <path id="DejaVuSans-63" d="M 3122 3366 
L 3122 2828 
Q 2878 2963 2633 3030 
Q 2388 3097 2138 3097 
Q 1578 3097 1268 2742 
Q 959 2388 959 1747 
Q 959 1106 1268 751 
Q 1578 397 2138 397 
Q 2388 397 2633 464 
Q 2878 531 3122 666 
L 3122 134 
Q 2881 22 2623 -34 
Q 2366 -91 2075 -91 
Q 1284 -91 818 406 
Q 353 903 353 1747 
Q 353 2603 823 3093 
Q 1294 3584 2113 3584 
Q 2378 3584 2631 3529 
Q 2884 3475 3122 3366 
z
" transform="scale(0.015625)"/>
       <path id="DejaVuSans-6e" d="M 3513 2113 
L 3513 0 
L 2938 0 
L 2938 2094 
Q 2938 2591 2744 2837 
Q 2550 3084 2163 3084 
Q 1697 3084 1428 2787 
Q 1159 2491 1159 1978 
L 1159 0 
L 581 0 
L 581 3500 
L 1159 3500 
L 1159 2956 
Q 1366 3272 1645 3428 
Q 1925 3584 2291 3584 
Q 2894 3584 3203 3211 
Q 3513 2838 3513 2113 
z
" transform="scale(0.015625)"/>
       <path id="DejaVuSans-74" d="M 1172 4494 
L 1172 3500 
L 2356 3500 
L 2356 3053 
L 1172 3053 
L 1172 1153 
Q 1172 725 1289 603 
Q 1406 481 1766 481 
L 2356 481 
L 2356 0 
L 1766 0 
Q 1100 0 847 248 
Q 594 497 594 1153 
L 594 3053 
L 172 3053 
L 172 3500 
L 594 3500 
L 594 4494 
L 1172 4494 
z
" transform="scale(0.015625)"/>
       <path id="DejaVuSans-b5" d="M 544 -1331 
L 544 3500 
L 1119 3500 
L 1119 1325 
Q 1119 872 1334 640 
Q 1550 409 1972 409 
Q 2434 409 2667 671 
Q 2900 934 2900 1459 
L 2900 3500 
L 3475 3500 
L 3475 806 
Q 3475 619 3529 530 
Q 3584 441 3700 441 
Q 3728 441 3778 458 
Q 3828 475 3916 513 
L 3916 50 
Q 3788 -22 3673 -56 
Q 3559 -91 3450 -91 
Q 3234 -91 3106 31 
Q 2978 153 2931 403 
Q 2775 156 2548 32 
Q 2322 -91 2016 -91 
Q 1697 -91 1473 31 
Q 1250 153 1119 397 
L 1119 -1331 
L 544 -1331 
z
" transform="scale(0.015625)"/>
      </defs>
      <use xlink:href="#DejaVuSans-44"/>
      <use xlink:href="#DejaVuSans-69" x="77.001953"/>
      <use xlink:href="#DejaVuSans-73" x="104.785156"/>
      <use xlink:href="#DejaVuSans-70" x="156.884766"/>
      <use xlink:href="#DejaVuSans-6c" x="220.361328"/>
      <use xlink:href="#DejaVuSans-61" x="248.144531"/>
      <use xlink:href="#DejaVuSans-63" x="309.423828"/>
      <use xlink:href="#DejaVuSans-65" x="364.404297"/>
      <use xlink:href="#DejaVuSans-6d" x="425.927734"/>
      <use xlink:href="#DejaVuSans-65" x="523.339844"/>
      <use xlink:href="#DejaVuSans-6e" x="584.863281"/>
      <use xlink:href="#DejaVuSans-74" x="648.242188"/>
      <use xlink:href="#DejaVuSans-20" x="687.451172"/>
      <use xlink:href="#DejaVuSans-28" x="719.238281"/>
      <use xlink:href="#DejaVuSans-b5" x="758.251953"/>
      <use xlink:href="#DejaVuSans-6d" x="821.875"/>
      <use xlink:href="#DejaVuSans-29" x="919.287109"/>
     </g>
    </g>
   </g>
   <g id="line2d_27">
    <path d="M 115.363636 218.16 
L 116.886216 137.142989 
L 117.647506 104.743206 
L 118.408795 81.35015 
L 118.916322 71.710226 
L 119.170085 68.821523 
L 119.423848 67.258359 
L 119.677612 67.034608 
L 119.931375 68.152257 
L 120.185138 70.601386 
L 120.692665 79.395501 
L 121.200191 93.105417 
L 121.961481 121.781493 
L 122.976534 171.43663 
L 125.767929 318.150354 
L 126.529219 345.822382 
L 127.036746 358.742205 
L 127.544272 366.681832 
L 127.798035 368.688969 
L 128.051799 369.36 
L 128.305562 368.688969 
L 128.559325 366.681832 
L 129.066852 358.742205 
L 129.574378 345.822382 
L 130.335668 318.150354 
L 131.350721 269.377174 
L 134.39588 111.245455 
L 135.157169 85.66243 
L 135.664696 74.360255 
L 136.172222 68.152257 
L 136.425986 67.034608 
L 136.679749 67.258359 
L 136.933512 68.821523 
L 137.187275 71.710226 
L 137.694802 81.35015 
L 138.202328 95.83663 
L 138.963618 125.488453 
L 139.978671 175.976545 
L 142.516304 310.831547 
L 143.277593 340.48337 
L 143.78512 354.96985 
L 144.292646 364.609774 
L 144.54641 367.498477 
L 144.800173 369.061641 
L 145.053936 369.285392 
L 145.307699 368.167743 
L 145.561463 365.718614 
L 146.068989 356.924499 
L 146.576516 343.214583 
L 147.337805 314.538507 
L 148.352858 264.88337 
L 151.144254 118.169646 
L 151.905544 90.497618 
L 152.41307 77.577795 
L 152.920597 69.638168 
L 153.17436 67.631031 
L 153.428123 66.96 
L 153.681886 67.631031 
L 153.93565 69.638168 
L 154.443176 77.577795 
L 154.950703 90.497618 
L 155.711992 118.169646 
L 156.727045 166.942826 
L 159.772204 325.074545 
L 160.533494 350.65757 
L 161.041021 361.959745 
L 161.548547 368.167743 
L 161.80231 369.285392 
L 162.056073 369.061641 
L 162.309837 367.498477 
L 162.5636 364.609774 
L 163.071126 354.96985 
L 163.578653 340.48337 
L 164.339943 310.831547 
L 165.354996 260.343455 
L 167.892628 125.488453 
L 168.653918 95.83663 
L 169.161444 81.35015 
L 169.668971 71.710226 
L 169.922734 68.821523 
L 170.176497 67.258359 
L 170.430261 67.034608 
L 170.684024 68.152257 
L 170.937787 70.601386 
L 171.445314 79.395501 
L 171.95284 93.105417 
L 172.71413 121.781493 
L 173.729183 171.43663 
L 176.520578 318.150354 
L 177.281868 345.822382 
L 177.789395 358.742205 
L 178.296921 366.681832 
L 178.550684 368.688969 
L 178.804448 369.36 
L 179.058211 368.688969 
L 179.311974 366.681832 
L 179.819501 358.742205 
L 180.327027 345.822382 
L 181.088317 318.150354 
L 182.10337 269.377174 
L 185.148529 111.245455 
L 185.909819 85.66243 
L 186.417345 74.360255 
L 186.924872 68.152257 
L 187.178635 67.034608 
L 187.432398 67.258359 
L 187.686161 68.821523 
L 187.939925 71.710226 
L 188.447451 81.35015 
L 188.954977 95.83663 
L 189.716267 125.488453 
L 190.73132 175.976545 
L 193.268953 310.831547 
L 194.030242 340.48337 
L 194.537769 354.96985 
L 195.045295 364.609774 
L 195.299059 367.498477 
L 195.552822 369.061641 
L 195.806585 369.285392 
L 196.060348 368.167743 
L 196.314112 365.718614 
L 196.821638 356.924499 
L 197.329165 343.214583 
L 198.090454 314.538507 
L 199.105507 264.88337 
L 201.896903 118.169646 
L 202.658193 90.497618 
L 203.165719 77.577795 
L 203.673246 69.638168 
L 203.927009 67.631031 
L 204.180772 66.96 
L 204.434535 67.631031 
L 204.688299 69.638168 
L 205.195825 77.577795 
L 205.703352 90.497618 
L 206.464641 118.169646 
L 207.479694 166.942826 
L 210.524853 325.074545 
L 211.286143 350.65757 
L 211.79367 361.959745 
L 212.301196 368.167743 
L 212.554959 369.285392 
L 212.808723 369.061641 
L 213.062486 367.498477 
L 213.316249 364.609774 
L 213.823776 354.96985 
L 214.331302 340.48337 
L 215.092592 310.831547 
L 216.107645 260.343455 
L 218.645277 125.488453 
L 219.406567 95.83663 
L 219.914093 81.35015 
L 220.42162 71.710226 
L 220.675383 68.821523 
L 220.929146 67.258359 
L 221.18291 67.034608 
L 221.436673 68.152257 
L 221.690436 70.601386 
L 222.197963 79.395501 
L 222.705489 93.105417 
L 223.466779 121.781493 
L 224.481832 171.43663 
L 227.273228 318.150354 
L 228.034517 345.822382 
L 228.542044 358.742205 
L 229.04957 366.681832 
L 229.303333 368.688969 
L 229.557097 369.36 
L 229.81086 368.688969 
L 230.064623 366.681832 
L 230.57215 358.742205 
L 231.079676 345.822382 
L 231.840966 318.150354 
L 232.856019 269.377174 
L 235.901178 111.245455 
L 236.662468 85.66243 
L 237.169994 74.360255 
L 237.677521 68.152257 
L 237.931284 67.034608 
L 238.185047 67.258359 
L 238.43881 68.821523 
L 238.692574 71.710226 
L 239.2001 81.35015 
L 239.707627 95.83663 
L 240.468916 125.488453 
L 241.483969 175.976545 
L 244.021602 310.831547 
L 244.782891 340.48337 
L 245.290418 354.96985 
L 245.797944 364.609774 
L 246.051708 367.498477 
L 246.305471 369.061641 
L 246.559234 369.285392 
L 246.812997 368.167743 
L 247.066761 365.718614 
L 247.574287 356.924499 
L 248.081814 343.214583 
L 248.843103 314.538507 
L 249.858156 264.88337 
L 252.649552 118.169646 
L 253.410842 90.497618 
L 253.918368 77.577795 
L 254.425895 69.638168 
L 254.679658 67.631031 
L 254.933421 66.96 
L 255.187185 67.631031 
L 255.440948 69.638168 
L 255.948474 77.577795 
L 256.456001 90.497618 
L 257.21729 118.169646 
L 258.232343 166.942826 
L 261.277502 325.074545 
L 262.038792 350.65757 
L 262.546319 361.959745 
L 263.053845 368.167743 
L 263.307608 369.285392 
L 263.561372 369.061641 
L 263.815135 367.498477 
L 264.068898 364.609774 
L 264.576425 354.96985 
L 265.083951 340.48337 
L 265.845241 310.831547 
L 266.860294 260.343455 
L 269.397926 125.488453 
L 270.159216 95.83663 
L 270.666742 81.35015 
L 271.174269 71.710226 
L 271.428032 68.821523 
L 271.681795 67.258359 
L 271.935559 67.034608 
L 272.189322 68.152257 
L 272.443085 70.601386 
L 272.950612 79.395501 
L 273.458138 93.105417 
L 274.219428 121.781493 
L 275.234481 171.43663 
L 278.025877 318.150354 
L 278.787166 345.822382 
L 279.294693 358.742205 
L 279.802219 366.681832 
L 280.055983 368.688969 
L 280.309746 369.36 
L 280.563509 368.688969 
L 280.817272 366.681832 
L 281.324799 358.742205 
L 281.832325 345.822382 
L 282.593615 318.150354 
L 283.608668 269.377174 
L 286.653827 111.245455 
L 287.415117 85.66243 
L 287.922643 74.360255 
L 288.43017 68.152257 
L 288.683933 67.034608 
L 288.937696 67.258359 
L 289.191459 68.821523 
L 289.445223 71.710226 
L 289.952749 81.35015 
L 290.460276 95.83663 
L 291.221565 125.488453 
L 292.236618 175.976545 
L 294.774251 310.831547 
L 295.53554 340.48337 
L 296.043067 354.96985 
L 296.550593 364.609774 
L 296.804357 367.498477 
L 297.05812 369.061641 
L 297.311883 369.285392 
L 297.565646 368.167743 
L 297.81941 365.718614 
L 298.326936 356.924499 
L 298.834463 343.214583 
L 299.595752 314.538507 
L 300.610805 264.88337 
L 303.402201 118.169646 
L 304.163491 90.497618 
L 304.671017 77.577795 
L 305.178544 69.638168 
L 305.432307 67.631031 
L 305.68607 66.96 
L 305.939834 67.631031 
L 306.193597 69.638168 
L 306.701123 77.577795 
L 307.20865 90.497618 
L 307.96994 118.169646 
L 308.984992 166.942826 
L 312.030151 325.074545 
L 312.791441 350.65757 
L 313.298968 361.959745 
L 313.806494 368.167743 
L 314.060257 369.285392 
L 314.314021 369.061641 
L 314.567784 367.498477 
L 314.821547 364.609774 
L 315.329074 354.96985 
L 315.8366 340.48337 
L 316.59789 310.831547 
L 317.612943 260.343455 
L 320.150575 125.488453 
L 320.911865 95.83663 
L 321.419392 81.35015 
L 321.926918 71.710226 
L 322.180681 68.821523 
L 322.434444 67.258359 
L 322.688208 67.034608 
L 322.941971 68.152257 
L 323.195734 70.601386 
L 323.703261 79.395501 
L 324.210787 93.105417 
L 324.972077 121.781493 
L 325.98713 171.43663 
L 328.778526 318.150354 
L 329.539815 345.822382 
L 330.047342 358.742205 
L 330.554868 366.681832 
L 330.808632 368.688969 
L 331.062395 369.36 
L 331.316158 368.688969 
L 331.569921 366.681832 
L 332.077448 358.742205 
L 332.584974 345.822382 
L 333.346264 318.150354 
L 334.361317 269.377174 
L 337.406476 111.245455 
L 338.167766 85.66243 
L 338.675292 74.360255 
L 339.182819 68.152257 
L 339.436582 67.034608 
L 339.690345 67.258359 
L 339.944108 68.821523 
L 340.197872 71.710226 
L 340.705398 81.35015 
L 341.212925 95.83663 
L 341.974214 125.488453 
L 342.989267 175.976545 
L 345.5269 310.831547 
L 346.28819 340.48337 
L 346.795716 354.96985 
L 347.303243 364.609774 
L 347.557006 367.498477 
L 347.810769 369.061641 
L 348.064532 369.285392 
L 348.318296 368.167743 
L 348.572059 365.718614 
L 349.079585 356.924499 
L 349.587112 343.214583 
L 350.348401 314.538507 
L 351.363454 264.88337 
L 354.15485 118.169646 
L 354.91614 90.497618 
L 355.423666 77.577795 
L 355.931193 69.638168 
L 356.184956 67.631031 
L 356.438719 66.96 
L 356.692483 67.631031 
L 356.946246 69.638168 
L 357.453772 77.577795 
L 357.961299 90.497618 
L 358.722589 118.169646 
L 359.737642 166.942826 
L 362.7828 325.074545 
L 363.54409 350.65757 
L 364.051617 361.959745 
L 364.559143 368.167743 
L 364.812906 369.285392 
L 365.06667 369.061641 
L 365.320433 367.498477 
L 365.574196 364.609774 
L 366.081723 354.96985 
L 366.589249 340.48337 
L 367.350539 310.831547 
L 368.365592 260.343455 
L 370.903224 125.488453 
L 371.664514 95.83663 
L 372.172041 81.35015 
L 372.679567 71.710226 
L 372.93333 68.821523 
L 373.187094 67.258359 
L 373.440857 67.034608 
L 373.69462 68.152257 
L 373.948383 70.601386 
L 374.45591 79.395501 
L 374.963436 93.105417 
L 375.724726 121.781493 
L 376.739779 171.43663 
L 379.531175 318.150354 
L 380.292464 345.822382 
L 380.799991 358.742205 
L 381.307517 366.681832 
L 381.561281 368.688969 
L 381.815044 369.36 
L 382.068807 368.688969 
L 382.32257 366.681832 
L 382.830097 358.742205 
L 383.337623 345.822382 
L 384.098913 318.150354 
L 385.113966 269.377174 
L 388.159125 111.245455 
L 388.920415 85.66243 
L 389.427941 74.360255 
L 389.935468 68.152257 
L 390.189231 67.034608 
L 390.442994 67.258359 
L 390.696757 68.821523 
L 390.950521 71.710226 
L 391.458047 81.35015 
L 391.965574 95.83663 
L 392.726863 125.488453 
L 393.741916 175.976545 
L 396.279549 310.831547 
L 397.040839 340.48337 
L 397.548365 354.96985 
L 398.055892 364.609774 
L 398.309655 367.498477 
L 398.563418 369.061641 
L 398.817181 369.285392 
L 399.070945 368.167743 
L 399.324708 365.718614 
L 399.832234 356.924499 
L 400.339761 343.214583 
L 401.101051 314.538507 
L 402.116104 264.88337 
L 404.907499 118.169646 
L 405.668789 90.497618 
L 406.176315 77.577795 
L 406.683842 69.638168 
L 406.937605 67.631031 
L 407.191368 66.96 
L 407.445132 67.631031 
L 407.698895 69.638168 
L 408.206421 77.577795 
L 408.713948 90.497618 
L 409.475238 118.169646 
L 410.490291 166.942826 
L 413.53545 325.074545 
L 414.296739 350.65757 
L 414.804266 361.959745 
L 415.311792 368.167743 
L 415.565556 369.285392 
L 415.819319 369.061641 
L 416.073082 367.498477 
L 416.326845 364.609774 
L 416.834372 354.96985 
L 417.341898 340.48337 
L 418.103188 310.831547 
L 419.118241 260.343455 
L 421.655873 125.488453 
L 422.417163 95.83663 
L 422.92469 81.35015 
L 423.432216 71.710226 
L 423.685979 68.821523 
L 423.939743 67.258359 
L 424.193506 67.034608 
L 424.447269 68.152257 
L 424.701032 70.601386 
L 425.208559 79.395501 
L 425.716085 93.105417 
L 426.477375 121.781493 
L 427.492428 171.43663 
L 430.283824 318.150354 
L 431.045113 345.822382 
L 431.55264 358.742205 
L 432.060166 366.681832 
L 432.31393 368.688969 
L 432.567693 369.36 
L 432.821456 368.688969 
L 433.075219 366.681832 
L 433.582746 358.742205 
L 434.090272 345.822382 
L 434.851562 318.150354 
L 435.866615 269.377174 
L 438.911774 111.245455 
L 439.673064 85.66243 
L 440.18059 74.360255 
L 440.688117 68.152257 
L 440.94188 67.034608 
L 441.195643 67.258359 
L 441.449407 68.821523 
L 441.70317 71.710226 
L 442.210696 81.35015 
L 442.718223 95.83663 
L 443.479512 125.488453 
L 444.494565 175.976545 
L 447.032198 310.831547 
L 447.793488 340.48337 
L 448.301014 354.96985 
L 448.808541 364.609774 
L 449.062304 367.498477 
L 449.316067 369.061641 
L 449.56983 369.285392 
L 449.823594 368.167743 
L 450.077357 365.718614 
L 450.584883 356.924499 
L 451.09241 343.214583 
L 451.8537 314.538507 
L 452.868753 264.88337 
L 455.660148 118.169646 
L 456.421438 90.497618 
L 456.928964 77.577795 
L 457.436491 69.638168 
L 457.690254 67.631031 
L 457.944017 66.96 
L 458.197781 67.631031 
L 458.451544 69.638168 
L 458.95907 77.577795 
L 459.466597 90.497618 
L 460.227887 118.169646 
L 461.24294 166.942826 
L 464.288099 325.074545 
L 465.049388 350.65757 
L 465.556915 361.959745 
L 466.064441 368.167743 
L 466.318205 369.285392 
L 466.571968 369.061641 
L 466.825731 367.498477 
L 467.079494 364.609774 
L 467.587021 354.96985 
L 468.094547 340.48337 
L 468.855837 310.831547 
L 469.87089 260.343455 
L 472.408522 125.488453 
L 473.169812 95.83663 
L 473.677339 81.35015 
L 474.184865 71.710226 
L 474.438628 68.821523 
L 474.692392 67.258359 
L 474.946155 67.034608 
L 475.199918 68.152257 
L 475.453681 70.601386 
L 475.961208 79.395501 
L 476.468734 93.105417 
L 477.230024 121.781493 
L 478.245077 171.43663 
L 481.036473 318.150354 
L 481.797763 345.822382 
L 482.305289 358.742205 
L 482.812815 366.681832 
L 483.066579 368.688969 
L 483.320342 369.36 
L 483.574105 368.688969 
L 483.827868 366.681832 
L 484.335395 358.742205 
L 484.842921 345.822382 
L 485.604211 318.150354 
L 486.619264 269.377174 
L 489.664423 111.245455 
L 490.425713 85.66243 
L 490.933239 74.360255 
L 491.440766 68.152257 
L 491.694529 67.034608 
L 491.948292 67.258359 
L 492.202056 68.821523 
L 492.455819 71.710226 
L 492.963345 81.35015 
L 493.470872 95.83663 
L 494.232162 125.488453 
L 495.247215 175.976545 
L 497.784847 310.831547 
L 498.546137 340.48337 
L 499.053663 354.96985 
L 499.56119 364.609774 
L 499.814953 367.498477 
L 500.068716 369.061641 
L 500.322479 369.285392 
L 500.576243 368.167743 
L 500.830006 365.718614 
L 501.337532 356.924499 
L 501.845059 343.214583 
L 502.606349 314.538507 
L 503.621402 264.88337 
L 506.412797 118.169646 
L 507.174087 90.497618 
L 507.681614 77.577795 
L 508.18914 69.638168 
L 508.442903 67.631031 
L 508.696667 66.96 
L 508.95043 67.631031 
L 509.204193 69.638168 
L 509.711719 77.577795 
L 510.219246 90.497618 
L 510.980536 118.169646 
L 511.995589 166.942826 
L 515.040748 325.074545 
L 515.802037 350.65757 
L 516.309564 361.959745 
L 516.81709 368.167743 
L 517.070854 369.285392 
L 517.324617 369.061641 
L 517.57838 367.498477 
L 517.832143 364.609774 
L 518.33967 354.96985 
L 518.847196 340.48337 
L 519.608486 310.831547 
L 520.623539 260.343455 
L 523.161171 125.488453 
L 523.922461 95.83663 
L 524.429988 81.35015 
L 524.937514 71.710226 
L 525.191277 68.821523 
L 525.445041 67.258359 
L 525.698804 67.034608 
L 525.952567 68.152257 
L 526.20633 70.601386 
L 526.713857 79.395501 
L 527.221383 93.105417 
L 527.982673 121.781493 
L 528.997726 171.43663 
L 531.789122 318.150354 
L 532.550412 345.822382 
L 533.057938 358.742205 
L 533.565465 366.681832 
L 533.819228 368.688969 
L 534.072991 369.36 
L 534.326754 368.688969 
L 534.580518 366.681832 
L 535.088044 358.742205 
L 535.595571 345.822382 
L 536.35686 318.150354 
L 537.371913 269.377174 
L 540.417072 111.245455 
L 541.178362 85.66243 
L 541.685888 74.360255 
L 542.193415 68.152257 
L 542.447178 67.034608 
L 542.700941 67.258359 
L 542.954705 68.821523 
L 543.208468 71.710226 
L 543.715994 81.35015 
L 544.223521 95.83663 
L 544.984811 125.488453 
L 545.999864 175.976545 
L 548.537496 310.831547 
L 549.298786 340.48337 
L 549.806312 354.96985 
L 550.313839 364.609774 
L 550.567602 367.498477 
L 550.821365 369.061641 
L 551.075128 369.285392 
L 551.328892 368.167743 
L 551.582655 365.718614 
L 552.090181 356.924499 
L 552.597708 343.214583 
L 553.358998 314.538507 
L 554.374051 264.88337 
L 557.165446 118.169646 
L 557.926736 90.497618 
L 558.434263 77.577795 
L 558.941789 69.638168 
L 559.195552 67.631031 
L 559.449316 66.96 
L 559.703079 67.631031 
L 559.956842 69.638168 
L 560.464369 77.577795 
L 560.971895 90.497618 
L 561.733185 118.169646 
L 562.748238 166.942826 
L 565.793397 325.074545 
L 566.554686 350.65757 
L 567.062213 361.959745 
L 567.569739 368.167743 
L 567.823503 369.285392 
L 568.077266 369.061641 
L 568.331029 367.498477 
L 568.584792 364.609774 
L 569.092319 354.96985 
L 569.599845 340.48337 
L 570.361135 310.831547 
L 571.376188 260.343455 
L 573.913821 125.488453 
L 574.67511 95.83663 
L 575.182637 81.35015 
L 575.690163 71.710226 
L 575.943927 68.821523 
L 576.19769 67.258359 
L 576.451453 67.034608 
L 576.705216 68.152257 
L 576.958979 70.601386 
L 577.466506 79.395501 
L 577.974032 93.105417 
L 578.735322 121.781493 
L 579.750375 171.43663 
L 582.541771 318.150354 
L 583.303061 345.822382 
L 583.810587 358.742205 
L 584.318114 366.681832 
L 584.571877 368.688969 
L 584.82564 369.36 
L 585.079403 368.688969 
L 585.333167 366.681832 
L 585.840693 358.742205 
L 586.34822 345.822382 
L 587.109509 318.150354 
L 588.124562 269.377174 
L 591.169721 111.245455 
L 591.931011 85.66243 
L 592.438537 74.360255 
L 592.946064 68.152257 
L 593.199827 67.034608 
L 593.45359 67.258359 
L 593.707354 68.821523 
L 593.961117 71.710226 
L 594.468643 81.35015 
L 594.97617 95.83663 
L 595.73746 125.488453 
L 596.752513 175.976545 
L 599.290145 310.831547 
L 600.051435 340.48337 
L 600.558961 354.96985 
L 601.066488 364.609774 
L 601.320251 367.498477 
L 601.574014 369.061641 
L 601.827778 369.285392 
L 602.081541 368.167743 
L 602.335304 365.718614 
L 602.842831 356.924499 
L 603.350357 343.214583 
L 604.111647 314.538507 
L 605.1267 264.88337 
L 607.918095 118.169646 
L 608.679385 90.497618 
L 609.186912 77.577795 
L 609.694438 69.638168 
L 609.948201 67.631031 
L 610.201965 66.96 
L 610.455728 67.631031 
L 610.709491 69.638168 
L 611.217018 77.577795 
L 611.724544 90.497618 
L 612.485834 118.169646 
L 613.500887 166.942826 
L 616.546046 325.074545 
L 617.307335 350.65757 
L 617.814862 361.959745 
L 618.322388 368.167743 
L 618.576152 369.285392 
L 618.829915 369.061641 
L 619.083678 367.498477 
L 619.337441 364.609774 
L 619.844968 354.96985 
L 620.352494 340.48337 
L 621.113784 310.831547 
L 622.128837 260.343455 
L 622.636364 232.389177 
L 622.636364 232.389177 
" clip-path="url(#pb761bd8a82)" style="fill: none; stroke: #1f77b4; stroke-width: 1.5; stroke-linecap: square"/>
   </g>
   <g id="patch_3">
    <path d="M 90 384.48 
L 90 51.84 
" style="fill: none; stroke: #000000; stroke-width: 0.8; stroke-linejoin: miter; stroke-linecap: square"/>
   </g>
   <g id="patch_4">
    <path d="M 648 384.48 
L 648 51.84 
" style="fill: none; stroke: #000000; stroke-width: 0.8; stroke-linejoin: miter; stroke-linecap: square"/>
   </g>
   <g id="patch_5">
    <path d="M 90 384.48 
L 648 384.48 
" style="fill: none; stroke: #000000; stroke-width: 0.8; stroke-linejoin: miter; stroke-linecap: square"/>
   </g>
   <g id="patch_6">
    <path d="M 90 51.84 
L 648 51.84 
" style="fill: none; stroke: #000000; stroke-width: 0.8; stroke-linejoin: miter; stroke-linecap: square"/>
   </g>
   <g id="text_16">
    <!-- Input Signal: Mirror Vibration -->
    <g transform="translate(282.534375 45.84) scale(0.12 -0.12)">
     <defs>
      <path id="DejaVuSans-49" d="M 628 4666 
L 1259 4666 
L 1259 0 
L 628 0 
L 628 4666 
z
" transform="scale(0.015625)"/>
      <path id="DejaVuSans-75" d="M 544 1381 
L 544 3500 
L 1119 3500 
L 1119 1403 
Q 1119 906 1312 657 
Q 1506 409 1894 409 
Q 2359 409 2629 706 
Q 2900 1003 2900 1516 
L 2900 3500 
L 3475 3500 
L 3475 0 
L 2900 0 
L 2900 538 
Q 2691 219 2414 64 
Q 2138 -91 1772 -91 
Q 1169 -91 856 284 
Q 544 659 544 1381 
z
M 1991 3584 
L 1991 3584 
z
" transform="scale(0.015625)"/>
      <path id="DejaVuSans-53" d="M 3425 4513 
L 3425 3897 
Q 3066 4069 2747 4153 
Q 2428 4238 2131 4238 
Q 1616 4238 1336 4038 
Q 1056 3838 1056 3469 
Q 1056 3159 1242 3001 
Q 1428 2844 1947 2747 
L 2328 2669 
Q 3034 2534 3370 2195 
Q 3706 1856 3706 1288 
Q 3706 609 3251 259 
Q 2797 -91 1919 -91 
Q 1588 -91 1214 -16 
Q 841 59 441 206 
L 441 856 
Q 825 641 1194 531 
Q 1563 422 1919 422 
Q 2459 422 2753 634 
Q 3047 847 3047 1241 
Q 3047 1584 2836 1778 
Q 2625 1972 2144 2069 
L 1759 2144 
Q 1053 2284 737 2584 
Q 422 2884 422 3419 
Q 422 4038 858 4394 
Q 1294 4750 2059 4750 
Q 2388 4750 2728 4690 
Q 3069 4631 3425 4513 
z
" transform="scale(0.015625)"/>
      <path id="DejaVuSans-67" d="M 2906 1791 
Q 2906 2416 2648 2759 
Q 2391 3103 1925 3103 
Q 1463 3103 1205 2759 
Q 947 2416 947 1791 
Q 947 1169 1205 825 
Q 1463 481 1925 481 
Q 2391 481 2648 825 
Q 2906 1169 2906 1791 
z
M 3481 434 
Q 3481 -459 3084 -895 
Q 2688 -1331 1869 -1331 
Q 1566 -1331 1297 -1286 
Q 1028 -1241 775 -1147 
L 775 -588 
Q 1028 -725 1275 -790 
Q 1522 -856 1778 -856 
Q 2344 -856 2625 -561 
Q 2906 -266 2906 331 
L 2906 616 
Q 2728 306 2450 153 
Q 2172 0 1784 0 
Q 1141 0 747 490 
Q 353 981 353 1791 
Q 353 2603 747 3093 
Q 1141 3584 1784 3584 
Q 2172 3584 2450 3431 
Q 2728 3278 2906 2969 
L 2906 3500 
L 3481 3500 
L 3481 434 
z
" transform="scale(0.015625)"/>
      <path id="DejaVuSans-3a" d="M 750 794 
L 1409 794 
L 1409 0 
L 750 0 
L 750 794 
z
M 750 3309 
L 1409 3309 
L 1409 2516 
L 750 2516 
L 750 3309 
z
" transform="scale(0.015625)"/>
      <path id="DejaVuSans-4d" d="M 628 4666 
L 1569 4666 
L 2759 1491 
L 3956 4666 
L 4897 4666 
L 4897 0 
L 4281 0 
L 4281 4097 
L 3078 897 
L 2444 897 
L 1241 4097 
L 1241 0 
L 628 0 
L 628 4666 
z
" transform="scale(0.015625)"/>
      <path id="DejaVuSans-72" d="M 2631 2963 
Q 2534 3019 2420 3045 
Q 2306 3072 2169 3072 
Q 1681 3072 1420 2755 
Q 1159 2438 1159 1844 
L 1159 0 
L 581 0 
L 581 3500 
L 1159 3500 
L 1159 2956 
Q 1341 3275 1631 3429 
Q 1922 3584 2338 3584 
Q 2397 3584 2469 3576 
Q 2541 3569 2628 3553 
L 2631 2963 
z
" transform="scale(0.015625)"/>
      <path id="DejaVuSans-6f" d="M 1959 3097 
Q 1497 3097 1228 2736 
Q 959 2375 959 1747 
Q 959 1119 1226 758 
Q 1494 397 1959 397 
Q 2419 397 2687 759 
Q 2956 1122 2956 1747 
Q 2956 2369 2687 2733 
Q 2419 3097 1959 3097 
z
M 1959 3584 
Q 2709 3584 3137 3096 
Q 3566 2609 3566 1747 
Q 3566 888 3137 398 
Q 2709 -91 1959 -91 
Q 1206 -91 779 398 
Q 353 888 353 1747 
Q 353 2609 779 3096 
Q 1206 3584 1959 3584 
z
" transform="scale(0.015625)"/>
      <path id="DejaVuSans-56" d="M 1831 0 
L 50 4666 
L 709 4666 
L 2188 738 
L 3669 4666 
L 4325 4666 
L 2547 0 
L 1831 0 
z
" transform="scale(0.015625)"/>
      <path id="DejaVuSans-62" d="M 3116 1747 
Q 3116 2381 2855 2742 
Q 2594 3103 2138 3103 
Q 1681 3103 1420 2742 
Q 1159 2381 1159 1747 
Q 1159 1113 1420 752 
Q 1681 391 2138 391 
Q 2594 391 2855 752 
Q 3116 1113 3116 1747 
z
M 1159 2969 
Q 1341 3281 1617 3432 
Q 1894 3584 2278 3584 
Q 2916 3584 3314 3078 
Q 3713 2572 3713 1747 
Q 3713 922 3314 415 
Q 2916 -91 2278 -91 
Q 1894 -91 1617 61 
Q 1341 213 1159 525 
L 1159 0 
L 581 0 
L 581 4863 
L 1159 4863 
L 1159 2969 
z
" transform="scale(0.015625)"/>
     </defs>
     <use xlink:href="#DejaVuSans-49"/>
     <use xlink:href="#DejaVuSans-6e" x="29.492188"/>
     <use xlink:href="#DejaVuSans-70" x="92.871094"/>
     <use xlink:href="#DejaVuSans-75" x="156.347656"/>
     <use xlink:href="#DejaVuSans-74" x="219.726562"/>
     <use xlink:href="#DejaVuSans-20" x="258.935547"/>
     <use xlink:href="#DejaVuSans-53" x="290.722656"/>
     <use xlink:href="#DejaVuSans-69" x="354.199219"/>
     <use xlink:href="#DejaVuSans-67" x="381.982422"/>
     <use xlink:href="#DejaVuSans-6e" x="445.458984"/>
     <use xlink:href="#DejaVuSans-61" x="508.837891"/>
     <use xlink:href="#DejaVuSans-6c" x="570.117188"/>
     <use xlink:href="#DejaVuSans-3a" x="597.900391"/>
     <use xlink:href="#DejaVuSans-20" x="631.591797"/>
     <use xlink:href="#DejaVuSans-4d" x="663.378906"/>
     <use xlink:href="#DejaVuSans-69" x="749.658203"/>
     <use xlink:href="#DejaVuSans-72" x="777.441406"/>
     <use xlink:href="#DejaVuSans-72" x="816.804688"/>
     <use xlink:href="#DejaVuSans-6f" x="855.667969"/>
     <use xlink:href="#DejaVuSans-72" x="916.849609"/>
     <use xlink:href="#DejaVuSans-20" x="957.962891"/>
     <use xlink:href="#DejaVuSans-56" x="989.75"/>
     <use xlink:href="#DejaVuSans-69" x="1055.908203"/>
     <use xlink:href="#DejaVuSans-62" x="1083.691406"/>
     <use xlink:href="#DejaVuSans-72" x="1147.167969"/>
     <use xlink:href="#DejaVuSans-61" x="1188.28125"/>
     <use xlink:href="#DejaVuSans-74" x="1249.560547"/>
     <use xlink:href="#DejaVuSans-69" x="1288.769531"/>
     <use xlink:href="#DejaVuSans-6f" x="1316.552734"/>
     <use xlink:href="#DejaVuSans-6e" x="1377.734375"/>
    </g>
   </g>
  </g>
 </g>
 <defs>
  <clipPath id="pb761bd8a82">
   <rect x="90" y="51.84" width="558" height="332.64"/>
  </clipPath>
 </defs>
</svg>
