<?xml version="1.0" encoding="utf-8" standalone="no"?>
<!DOCTYPE svg PUBLIC "-//W3C//DTD SVG 1.1//EN"
  "http://www.w3.org/Graphics/SVG/1.1/DTD/svg11.dtd">
<svg xmlns:xlink="http://www.w3.org/1999/xlink" width="720pt" height="432pt" viewBox="0 0 720 432" xmlns="http://www.w3.org/2000/svg" version="1.1">
 <metadata>
  <rdf:RDF xmlns:dc="http://purl.org/dc/elements/1.1/" xmlns:cc="http://creativecommons.org/ns#" xmlns:rdf="http://www.w3.org/1999/02/22-rdf-syntax-ns#">
   <cc:Work>
    <dc:type rdf:resource="http://purl.org/dc/dcmitype/StillImage"/>
    <dc:date>2025-08-08T12:05:08.493315</dc:date>
    <dc:format>image/svg+xml</dc:format>
    <dc:creator>
     <cc:Agent>
      <dc:title>Matplotlib v3.7.5, https://matplotlib.org/</dc:title>
     </cc:Agent>
    </dc:creator>
   </cc:Work>
  </rdf:RDF>
 </metadata>
 <defs>
  <style type="text/css">*{stroke-linejoin: round; stroke-linecap: butt}</style>
 </defs>
 <g id="figure_1">
  <g id="patch_1">
   <path d="M 0 432 
L 720 432 
L 720 0 
L 0 0 
z
" style="fill: #ffffff"/>
  </g>
  <g id="axes_1">
   <g id="patch_2">
    <path d="M 90 384.48 
L 648 384.48 
L 648 51.84 
L 90 51.84 
z
" style="fill: #ffffff"/>
   </g>
   <g id="matplotlib.axis_1">
    <g id="xtick_1">
     <g id="line2d_1">
      <path d="M 115.363636 384.48 
L 115.363636 51.84 
" clip-path="url(#pff19067fc8)" style="fill: none; stroke: #b0b0b0; stroke-width: 0.8; stroke-linecap: square"/>
     </g>
     <g id="line2d_2">
      <defs>
       <path id="m85ea6b9f01" d="M 0 0 
L 0 3.5 
" style="stroke: #000000; stroke-width: 0.8"/>
      </defs>
      <g>
       <use xlink:href="#m85ea6b9f01" x="115.363636" y="384.48" style="stroke: #000000; stroke-width: 0.8"/>
      </g>
     </g>
     <g id="text_1">
      <!-- 0.00 -->
      <g transform="translate(104.230824 399.078438) scale(0.1 -0.1)">
       <defs>
        <path id="DejaVuSans-30" d="M 2034 4250 
Q 1547 4250 1301 3770 
Q 1056 3291 1056 2328 
Q 1056 1369 1301 889 
Q 1547 409 2034 409 
Q 2525 409 2770 889 
Q 3016 1369 3016 2328 
Q 3016 3291 2770 3770 
Q 2525 4250 2034 4250 
z
M 2034 4750 
Q 2819 4750 3233 4129 
Q 3647 3509 3647 2328 
Q 3647 1150 3233 529 
Q 2819 -91 2034 -91 
Q 1250 -91 836 529 
Q 422 1150 422 2328 
Q 422 3509 836 4129 
Q 1250 4750 2034 4750 
z
" transform="scale(0.015625)"/>
        <path id="DejaVuSans-2e" d="M 684 794 
L 1344 794 
L 1344 0 
L 684 0 
L 684 794 
z
" transform="scale(0.015625)"/>
       </defs>
       <use xlink:href="#DejaVuSans-30"/>
       <use xlink:href="#DejaVuSans-2e" x="63.623047"/>
       <use xlink:href="#DejaVuSans-30" x="95.410156"/>
       <use xlink:href="#DejaVuSans-30" x="159.033203"/>
      </g>
     </g>
    </g>
    <g id="xtick_2">
     <g id="line2d_3">
      <path d="M 216.868934 384.48 
L 216.868934 51.84 
" clip-path="url(#pff19067fc8)" style="fill: none; stroke: #b0b0b0; stroke-width: 0.8; stroke-linecap: square"/>
     </g>
     <g id="line2d_4">
      <g>
       <use xlink:href="#m85ea6b9f01" x="216.868934" y="384.48" style="stroke: #000000; stroke-width: 0.8"/>
      </g>
     </g>
     <g id="text_2">
      <!-- 0.02 -->
      <g transform="translate(205.736122 399.078438) scale(0.1 -0.1)">
       <defs>
        <path id="DejaVuSans-32" d="M 1228 531 
L 3431 531 
L 3431 0 
L 469 0 
L 469 531 
Q 828 903 1448 1529 
Q 2069 2156 2228 2338 
Q 2531 2678 2651 2914 
Q 2772 3150 2772 3378 
Q 2772 3750 2511 3984 
Q 2250 4219 1831 4219 
Q 1534 4219 1204 4116 
Q 875 4013 500 3803 
L 500 4441 
Q 881 4594 1212 4672 
Q 1544 4750 1819 4750 
Q 2544 4750 2975 4387 
Q 3406 4025 3406 3419 
Q 3406 3131 3298 2873 
Q 3191 2616 2906 2266 
Q 2828 2175 2409 1742 
Q 1991 1309 1228 531 
z
" transform="scale(0.015625)"/>
       </defs>
       <use xlink:href="#DejaVuSans-30"/>
       <use xlink:href="#DejaVuSans-2e" x="63.623047"/>
       <use xlink:href="#DejaVuSans-30" x="95.410156"/>
       <use xlink:href="#DejaVuSans-32" x="159.033203"/>
      </g>
     </g>
    </g>
    <g id="xtick_3">
     <g id="line2d_5">
      <path d="M 318.374233 384.48 
L 318.374233 51.84 
" clip-path="url(#pff19067fc8)" style="fill: none; stroke: #b0b0b0; stroke-width: 0.8; stroke-linecap: square"/>
     </g>
     <g id="line2d_6">
      <g>
       <use xlink:href="#m85ea6b9f01" x="318.374233" y="384.48" style="stroke: #000000; stroke-width: 0.8"/>
      </g>
     </g>
     <g id="text_3">
      <!-- 0.04 -->
      <g transform="translate(307.24142 399.078438) scale(0.1 -0.1)">
       <defs>
        <path id="DejaVuSans-34" d="M 2419 4116 
L 825 1625 
L 2419 1625 
L 2419 4116 
z
M 2253 4666 
L 3047 4666 
L 3047 1625 
L 3713 1625 
L 3713 1100 
L 3047 1100 
L 3047 0 
L 2419 0 
L 2419 1100 
L 313 1100 
L 313 1709 
L 2253 4666 
z
" transform="scale(0.015625)"/>
       </defs>
       <use xlink:href="#DejaVuSans-30"/>
       <use xlink:href="#DejaVuSans-2e" x="63.623047"/>
       <use xlink:href="#DejaVuSans-30" x="95.410156"/>
       <use xlink:href="#DejaVuSans-34" x="159.033203"/>
      </g>
     </g>
    </g>
    <g id="xtick_4">
     <g id="line2d_7">
      <path d="M 419.879531 384.48 
L 419.879531 51.84 
" clip-path="url(#pff19067fc8)" style="fill: none; stroke: #b0b0b0; stroke-width: 0.8; stroke-linecap: square"/>
     </g>
     <g id="line2d_8">
      <g>
       <use xlink:href="#m85ea6b9f01" x="419.879531" y="384.48" style="stroke: #000000; stroke-width: 0.8"/>
      </g>
     </g>
     <g id="text_4">
      <!-- 0.06 -->
      <g transform="translate(408.746718 399.078438) scale(0.1 -0.1)">
       <defs>
        <path id="DejaVuSans-36" d="M 2113 2584 
Q 1688 2584 1439 2293 
Q 1191 2003 1191 1497 
Q 1191 994 1439 701 
Q 1688 409 2113 409 
Q 2538 409 2786 701 
Q 3034 994 3034 1497 
Q 3034 2003 2786 2293 
Q 2538 2584 2113 2584 
z
M 3366 4563 
L 3366 3988 
Q 3128 4100 2886 4159 
Q 2644 4219 2406 4219 
Q 1781 4219 1451 3797 
Q 1122 3375 1075 2522 
Q 1259 2794 1537 2939 
Q 1816 3084 2150 3084 
Q 2853 3084 3261 2657 
Q 3669 2231 3669 1497 
Q 3669 778 3244 343 
Q 2819 -91 2113 -91 
Q 1303 -91 875 529 
Q 447 1150 447 2328 
Q 447 3434 972 4092 
Q 1497 4750 2381 4750 
Q 2619 4750 2861 4703 
Q 3103 4656 3366 4563 
z
" transform="scale(0.015625)"/>
       </defs>
       <use xlink:href="#DejaVuSans-30"/>
       <use xlink:href="#DejaVuSans-2e" x="63.623047"/>
       <use xlink:href="#DejaVuSans-30" x="95.410156"/>
       <use xlink:href="#DejaVuSans-36" x="159.033203"/>
      </g>
     </g>
    </g>
    <g id="xtick_5">
     <g id="line2d_9">
      <path d="M 521.384829 384.48 
L 521.384829 51.84 
" clip-path="url(#pff19067fc8)" style="fill: none; stroke: #b0b0b0; stroke-width: 0.8; stroke-linecap: square"/>
     </g>
     <g id="line2d_10">
      <g>
       <use xlink:href="#m85ea6b9f01" x="521.384829" y="384.48" style="stroke: #000000; stroke-width: 0.8"/>
      </g>
     </g>
     <g id="text_5">
      <!-- 0.08 -->
      <g transform="translate(510.252016 399.078438) scale(0.1 -0.1)">
       <defs>
        <path id="DejaVuSans-38" d="M 2034 2216 
Q 1584 2216 1326 1975 
Q 1069 1734 1069 1313 
Q 1069 891 1326 650 
Q 1584 409 2034 409 
Q 2484 409 2743 651 
Q 3003 894 3003 1313 
Q 3003 1734 2745 1975 
Q 2488 2216 2034 2216 
z
M 1403 2484 
Q 997 2584 770 2862 
Q 544 3141 544 3541 
Q 544 4100 942 4425 
Q 1341 4750 2034 4750 
Q 2731 4750 3128 4425 
Q 3525 4100 3525 3541 
Q 3525 3141 3298 2862 
Q 3072 2584 2669 2484 
Q 3125 2378 3379 2068 
Q 3634 1759 3634 1313 
Q 3634 634 3220 271 
Q 2806 -91 2034 -91 
Q 1263 -91 848 271 
Q 434 634 434 1313 
Q 434 1759 690 2068 
Q 947 2378 1403 2484 
z
M 1172 3481 
Q 1172 3119 1398 2916 
Q 1625 2713 2034 2713 
Q 2441 2713 2670 2916 
Q 2900 3119 2900 3481 
Q 2900 3844 2670 4047 
Q 2441 4250 2034 4250 
Q 1625 4250 1398 4047 
Q 1172 3844 1172 3481 
z
" transform="scale(0.015625)"/>
       </defs>
       <use xlink:href="#DejaVuSans-30"/>
       <use xlink:href="#DejaVuSans-2e" x="63.623047"/>
       <use xlink:href="#DejaVuSans-30" x="95.410156"/>
       <use xlink:href="#DejaVuSans-38" x="159.033203"/>
      </g>
     </g>
    </g>
    <g id="xtick_6">
     <g id="line2d_11">
      <path d="M 622.890127 384.48 
L 622.890127 51.84 
" clip-path="url(#pff19067fc8)" style="fill: none; stroke: #b0b0b0; stroke-width: 0.8; stroke-linecap: square"/>
     </g>
     <g id="line2d_12">
      <g>
       <use xlink:href="#m85ea6b9f01" x="622.890127" y="384.48" style="stroke: #000000; stroke-width: 0.8"/>
      </g>
     </g>
     <g id="text_6">
      <!-- 0.10 -->
      <g transform="translate(611.757314 399.078438) scale(0.1 -0.1)">
       <defs>
        <path id="DejaVuSans-31" d="M 794 531 
L 1825 531 
L 1825 4091 
L 703 3866 
L 703 4441 
L 1819 4666 
L 2450 4666 
L 2450 531 
L 3481 531 
L 3481 0 
L 794 0 
L 794 531 
z
" transform="scale(0.015625)"/>
       </defs>
       <use xlink:href="#DejaVuSans-30"/>
       <use xlink:href="#DejaVuSans-2e" x="63.623047"/>
       <use xlink:href="#DejaVuSans-31" x="95.410156"/>
       <use xlink:href="#DejaVuSans-30" x="159.033203"/>
      </g>
     </g>
    </g>
    <g id="text_7">
     <!-- Time (s) -->
     <g transform="translate(348.671094 412.756563) scale(0.1 -0.1)">
      <defs>
       <path id="DejaVuSans-54" d="M -19 4666 
L 3928 4666 
L 3928 4134 
L 2272 4134 
L 2272 0 
L 1638 0 
L 1638 4134 
L -19 4134 
L -19 4666 
z
" transform="scale(0.015625)"/>
       <path id="DejaVuSans-69" d="M 603 3500 
L 1178 3500 
L 1178 0 
L 603 0 
L 603 3500 
z
M 603 4863 
L 1178 4863 
L 1178 4134 
L 603 4134 
L 603 4863 
z
" transform="scale(0.015625)"/>
       <path id="DejaVuSans-6d" d="M 3328 2828 
Q 3544 3216 3844 3400 
Q 4144 3584 4550 3584 
Q 5097 3584 5394 3201 
Q 5691 2819 5691 2113 
L 5691 0 
L 5113 0 
L 5113 2094 
Q 5113 2597 4934 2840 
Q 4756 3084 4391 3084 
Q 3944 3084 3684 2787 
Q 3425 2491 3425 1978 
L 3425 0 
L 2847 0 
L 2847 2094 
Q 2847 2600 2669 2842 
Q 2491 3084 2119 3084 
Q 1678 3084 1418 2786 
Q 1159 2488 1159 1978 
L 1159 0 
L 581 0 
L 581 3500 
L 1159 3500 
L 1159 2956 
Q 1356 3278 1631 3431 
Q 1906 3584 2284 3584 
Q 2666 3584 2933 3390 
Q 3200 3197 3328 2828 
z
" transform="scale(0.015625)"/>
       <path id="DejaVuSans-65" d="M 3597 1894 
L 3597 1613 
L 953 1613 
Q 991 1019 1311 708 
Q 1631 397 2203 397 
Q 2534 397 2845 478 
Q 3156 559 3463 722 
L 3463 178 
Q 3153 47 2828 -22 
Q 2503 -91 2169 -91 
Q 1331 -91 842 396 
Q 353 884 353 1716 
Q 353 2575 817 3079 
Q 1281 3584 2069 3584 
Q 2775 3584 3186 3129 
Q 3597 2675 3597 1894 
z
M 3022 2063 
Q 3016 2534 2758 2815 
Q 2500 3097 2075 3097 
Q 1594 3097 1305 2825 
Q 1016 2553 972 2059 
L 3022 2063 
z
" transform="scale(0.015625)"/>
       <path id="DejaVuSans-20" transform="scale(0.015625)"/>
       <path id="DejaVuSans-28" d="M 1984 4856 
Q 1566 4138 1362 3434 
Q 1159 2731 1159 2009 
Q 1159 1288 1364 580 
Q 1569 -128 1984 -844 
L 1484 -844 
Q 1016 -109 783 600 
Q 550 1309 550 2009 
Q 550 2706 781 3412 
Q 1013 4119 1484 4856 
L 1984 4856 
z
" transform="scale(0.015625)"/>
       <path id="DejaVuSans-73" d="M 2834 3397 
L 2834 2853 
Q 2591 2978 2328 3040 
Q 2066 3103 1784 3103 
Q 1356 3103 1142 2972 
Q 928 2841 928 2578 
Q 928 2378 1081 2264 
Q 1234 2150 1697 2047 
L 1894 2003 
Q 2506 1872 2764 1633 
Q 3022 1394 3022 966 
Q 3022 478 2636 193 
Q 2250 -91 1575 -91 
Q 1294 -91 989 -36 
Q 684 19 347 128 
L 347 722 
Q 666 556 975 473 
Q 1284 391 1588 391 
Q 1994 391 2212 530 
Q 2431 669 2431 922 
Q 2431 1156 2273 1281 
Q 2116 1406 1581 1522 
L 1381 1569 
Q 847 1681 609 1914 
Q 372 2147 372 2553 
Q 372 3047 722 3315 
Q 1072 3584 1716 3584 
Q 2034 3584 2315 3537 
Q 2597 3491 2834 3397 
z
" transform="scale(0.015625)"/>
       <path id="DejaVuSans-29" d="M 513 4856 
L 1013 4856 
Q 1481 4119 1714 3412 
Q 1947 2706 1947 2009 
Q 1947 1309 1714 600 
Q 1481 -109 1013 -844 
L 513 -844 
Q 928 -128 1133 580 
Q 1338 1288 1338 2009 
Q 1338 2731 1133 3434 
Q 928 4138 513 4856 
z
" transform="scale(0.015625)"/>
      </defs>
      <use xlink:href="#DejaVuSans-54"/>
      <use xlink:href="#DejaVuSans-69" x="57.958984"/>
      <use xlink:href="#DejaVuSans-6d" x="85.742188"/>
      <use xlink:href="#DejaVuSans-65" x="183.154297"/>
      <use xlink:href="#DejaVuSans-20" x="244.677734"/>
      <use xlink:href="#DejaVuSans-28" x="276.464844"/>
      <use xlink:href="#DejaVuSans-73" x="315.478516"/>
      <use xlink:href="#DejaVuSans-29" x="367.578125"/>
     </g>
    </g>
   </g>
   <g id="matplotlib.axis_2">
    <g id="ytick_1">
     <g id="line2d_13">
      <path d="M 90 350.533669 
L 648 350.533669 
" clip-path="url(#pff19067fc8)" style="fill: none; stroke: #b0b0b0; stroke-width: 0.8; stroke-linecap: square"/>
     </g>
     <g id="line2d_14">
      <defs>
       <path id="ma25dd09382" d="M 0 0 
L -3.5 0 
" style="stroke: #000000; stroke-width: 0.8"/>
      </defs>
      <g>
       <use xlink:href="#ma25dd09382" x="90" y="350.533669" style="stroke: #000000; stroke-width: 0.8"/>
      </g>
     </g>
     <g id="text_8">
      <!-- −45.75 -->
      <g transform="translate(45.992188 354.332888) scale(0.1 -0.1)">
       <defs>
        <path id="DejaVuSans-2212" d="M 678 2272 
L 4684 2272 
L 4684 1741 
L 678 1741 
L 678 2272 
z
" transform="scale(0.015625)"/>
        <path id="DejaVuSans-35" d="M 691 4666 
L 3169 4666 
L 3169 4134 
L 1269 4134 
L 1269 2991 
Q 1406 3038 1543 3061 
Q 1681 3084 1819 3084 
Q 2600 3084 3056 2656 
Q 3513 2228 3513 1497 
Q 3513 744 3044 326 
Q 2575 -91 1722 -91 
Q 1428 -91 1123 -41 
Q 819 9 494 109 
L 494 744 
Q 775 591 1075 516 
Q 1375 441 1709 441 
Q 2250 441 2565 725 
Q 2881 1009 2881 1497 
Q 2881 1984 2565 2268 
Q 2250 2553 1709 2553 
Q 1456 2553 1204 2497 
Q 953 2441 691 2322 
L 691 4666 
z
" transform="scale(0.015625)"/>
        <path id="DejaVuSans-37" d="M 525 4666 
L 3525 4666 
L 3525 4397 
L 1831 0 
L 1172 0 
L 2766 4134 
L 525 4134 
L 525 4666 
z
" transform="scale(0.015625)"/>
       </defs>
       <use xlink:href="#DejaVuSans-2212"/>
       <use xlink:href="#DejaVuSans-34" x="83.789062"/>
       <use xlink:href="#DejaVuSans-35" x="147.412109"/>
       <use xlink:href="#DejaVuSans-2e" x="211.035156"/>
       <use xlink:href="#DejaVuSans-37" x="242.822266"/>
       <use xlink:href="#DejaVuSans-35" x="306.445312"/>
      </g>
     </g>
    </g>
    <g id="ytick_2">
     <g id="line2d_15">
      <path d="M 90 305.31931 
L 648 305.31931 
" clip-path="url(#pff19067fc8)" style="fill: none; stroke: #b0b0b0; stroke-width: 0.8; stroke-linecap: square"/>
     </g>
     <g id="line2d_16">
      <g>
       <use xlink:href="#ma25dd09382" x="90" y="305.31931" style="stroke: #000000; stroke-width: 0.8"/>
      </g>
     </g>
     <g id="text_9">
      <!-- −45.50 -->
      <g transform="translate(45.992188 309.118529) scale(0.1 -0.1)">
       <use xlink:href="#DejaVuSans-2212"/>
       <use xlink:href="#DejaVuSans-34" x="83.789062"/>
       <use xlink:href="#DejaVuSans-35" x="147.412109"/>
       <use xlink:href="#DejaVuSans-2e" x="211.035156"/>
       <use xlink:href="#DejaVuSans-35" x="242.822266"/>
       <use xlink:href="#DejaVuSans-30" x="306.445312"/>
      </g>
     </g>
    </g>
    <g id="ytick_3">
     <g id="line2d_17">
      <path d="M 90 260.104952 
L 648 260.104952 
" clip-path="url(#pff19067fc8)" style="fill: none; stroke: #b0b0b0; stroke-width: 0.8; stroke-linecap: square"/>
     </g>
     <g id="line2d_18">
      <g>
       <use xlink:href="#ma25dd09382" x="90" y="260.104952" style="stroke: #000000; stroke-width: 0.8"/>
      </g>
     </g>
     <g id="text_10">
      <!-- −45.25 -->
      <g transform="translate(45.992188 263.904171) scale(0.1 -0.1)">
       <use xlink:href="#DejaVuSans-2212"/>
       <use xlink:href="#DejaVuSans-34" x="83.789062"/>
       <use xlink:href="#DejaVuSans-35" x="147.412109"/>
       <use xlink:href="#DejaVuSans-2e" x="211.035156"/>
       <use xlink:href="#DejaVuSans-32" x="242.822266"/>
       <use xlink:href="#DejaVuSans-35" x="306.445312"/>
      </g>
     </g>
    </g>
    <g id="ytick_4">
     <g id="line2d_19">
      <path d="M 90 214.890594 
L 648 214.890594 
" clip-path="url(#pff19067fc8)" style="fill: none; stroke: #b0b0b0; stroke-width: 0.8; stroke-linecap: square"/>
     </g>
     <g id="line2d_20">
      <g>
       <use xlink:href="#ma25dd09382" x="90" y="214.890594" style="stroke: #000000; stroke-width: 0.8"/>
      </g>
     </g>
     <g id="text_11">
      <!-- −45.00 -->
      <g transform="translate(45.992188 218.689812) scale(0.1 -0.1)">
       <use xlink:href="#DejaVuSans-2212"/>
       <use xlink:href="#DejaVuSans-34" x="83.789062"/>
       <use xlink:href="#DejaVuSans-35" x="147.412109"/>
       <use xlink:href="#DejaVuSans-2e" x="211.035156"/>
       <use xlink:href="#DejaVuSans-30" x="242.822266"/>
       <use xlink:href="#DejaVuSans-30" x="306.445312"/>
      </g>
     </g>
    </g>
    <g id="ytick_5">
     <g id="line2d_21">
      <path d="M 90 169.676235 
L 648 169.676235 
" clip-path="url(#pff19067fc8)" style="fill: none; stroke: #b0b0b0; stroke-width: 0.8; stroke-linecap: square"/>
     </g>
     <g id="line2d_22">
      <g>
       <use xlink:href="#ma25dd09382" x="90" y="169.676235" style="stroke: #000000; stroke-width: 0.8"/>
      </g>
     </g>
     <g id="text_12">
      <!-- −44.75 -->
      <g transform="translate(45.992188 173.475454) scale(0.1 -0.1)">
       <use xlink:href="#DejaVuSans-2212"/>
       <use xlink:href="#DejaVuSans-34" x="83.789062"/>
       <use xlink:href="#DejaVuSans-34" x="147.412109"/>
       <use xlink:href="#DejaVuSans-2e" x="211.035156"/>
       <use xlink:href="#DejaVuSans-37" x="242.822266"/>
       <use xlink:href="#DejaVuSans-35" x="306.445312"/>
      </g>
     </g>
    </g>
    <g id="ytick_6">
     <g id="line2d_23">
      <path d="M 90 124.461877 
L 648 124.461877 
" clip-path="url(#pff19067fc8)" style="fill: none; stroke: #b0b0b0; stroke-width: 0.8; stroke-linecap: square"/>
     </g>
     <g id="line2d_24">
      <g>
       <use xlink:href="#ma25dd09382" x="90" y="124.461877" style="stroke: #000000; stroke-width: 0.8"/>
      </g>
     </g>
     <g id="text_13">
      <!-- −44.50 -->
      <g transform="translate(45.992188 128.261096) scale(0.1 -0.1)">
       <use xlink:href="#DejaVuSans-2212"/>
       <use xlink:href="#DejaVuSans-34" x="83.789062"/>
       <use xlink:href="#DejaVuSans-34" x="147.412109"/>
       <use xlink:href="#DejaVuSans-2e" x="211.035156"/>
       <use xlink:href="#DejaVuSans-35" x="242.822266"/>
       <use xlink:href="#DejaVuSans-30" x="306.445312"/>
      </g>
     </g>
    </g>
    <g id="ytick_7">
     <g id="line2d_25">
      <path d="M 90 79.247519 
L 648 79.247519 
" clip-path="url(#pff19067fc8)" style="fill: none; stroke: #b0b0b0; stroke-width: 0.8; stroke-linecap: square"/>
     </g>
     <g id="line2d_26">
      <g>
       <use xlink:href="#ma25dd09382" x="90" y="79.247519" style="stroke: #000000; stroke-width: 0.8"/>
      </g>
     </g>
     <g id="text_14">
      <!-- −44.25 -->
      <g transform="translate(45.992188 83.046737) scale(0.1 -0.1)">
       <use xlink:href="#DejaVuSans-2212"/>
       <use xlink:href="#DejaVuSans-34" x="83.789062"/>
       <use xlink:href="#DejaVuSans-34" x="147.412109"/>
       <use xlink:href="#DejaVuSans-2e" x="211.035156"/>
       <use xlink:href="#DejaVuSans-32" x="242.822266"/>
       <use xlink:href="#DejaVuSans-35" x="306.445312"/>
      </g>
     </g>
    </g>
    <g id="text_15">
     <!-- Power (arbitrary units) -->
     <g transform="translate(39.9125 274.4225) rotate(-90) scale(0.1 -0.1)">
      <defs>
       <path id="DejaVuSans-50" d="M 1259 4147 
L 1259 2394 
L 2053 2394 
Q 2494 2394 2734 2622 
Q 2975 2850 2975 3272 
Q 2975 3691 2734 3919 
Q 2494 4147 2053 4147 
L 1259 4147 
z
M 628 4666 
L 2053 4666 
Q 2838 4666 3239 4311 
Q 3641 3956 3641 3272 
Q 3641 2581 3239 2228 
Q 2838 1875 2053 1875 
L 1259 1875 
L 1259 0 
L 628 0 
L 628 4666 
z
" transform="scale(0.015625)"/>
       <path id="DejaVuSans-6f" d="M 1959 3097 
Q 1497 3097 1228 2736 
Q 959 2375 959 1747 
Q 959 1119 1226 758 
Q 1494 397 1959 397 
Q 2419 397 2687 759 
Q 2956 1122 2956 1747 
Q 2956 2369 2687 2733 
Q 2419 3097 1959 3097 
z
M 1959 3584 
Q 2709 3584 3137 3096 
Q 3566 2609 3566 1747 
Q 3566 888 3137 398 
Q 2709 -91 1959 -91 
Q 1206 -91 779 398 
Q 353 888 353 1747 
Q 353 2609 779 3096 
Q 1206 3584 1959 3584 
z
" transform="scale(0.015625)"/>
       <path id="DejaVuSans-77" d="M 269 3500 
L 844 3500 
L 1563 769 
L 2278 3500 
L 2956 3500 
L 3675 769 
L 4391 3500 
L 4966 3500 
L 4050 0 
L 3372 0 
L 2619 2869 
L 1863 0 
L 1184 0 
L 269 3500 
z
" transform="scale(0.015625)"/>
       <path id="DejaVuSans-72" d="M 2631 2963 
Q 2534 3019 2420 3045 
Q 2306 3072 2169 3072 
Q 1681 3072 1420 2755 
Q 1159 2438 1159 1844 
L 1159 0 
L 581 0 
L 581 3500 
L 1159 3500 
L 1159 2956 
Q 1341 3275 1631 3429 
Q 1922 3584 2338 3584 
Q 2397 3584 2469 3576 
Q 2541 3569 2628 3553 
L 2631 2963 
z
" transform="scale(0.015625)"/>
       <path id="DejaVuSans-61" d="M 2194 1759 
Q 1497 1759 1228 1600 
Q 959 1441 959 1056 
Q 959 750 1161 570 
Q 1363 391 1709 391 
Q 2188 391 2477 730 
Q 2766 1069 2766 1631 
L 2766 1759 
L 2194 1759 
z
M 3341 1997 
L 3341 0 
L 2766 0 
L 2766 531 
Q 2569 213 2275 61 
Q 1981 -91 1556 -91 
Q 1019 -91 701 211 
Q 384 513 384 1019 
Q 384 1609 779 1909 
Q 1175 2209 1959 2209 
L 2766 2209 
L 2766 2266 
Q 2766 2663 2505 2880 
Q 2244 3097 1772 3097 
Q 1472 3097 1187 3025 
Q 903 2953 641 2809 
L 641 3341 
Q 956 3463 1253 3523 
Q 1550 3584 1831 3584 
Q 2591 3584 2966 3190 
Q 3341 2797 3341 1997 
z
" transform="scale(0.015625)"/>
       <path id="DejaVuSans-62" d="M 3116 1747 
Q 3116 2381 2855 2742 
Q 2594 3103 2138 3103 
Q 1681 3103 1420 2742 
Q 1159 2381 1159 1747 
Q 1159 1113 1420 752 
Q 1681 391 2138 391 
Q 2594 391 2855 752 
Q 3116 1113 3116 1747 
z
M 1159 2969 
Q 1341 3281 1617 3432 
Q 1894 3584 2278 3584 
Q 2916 3584 3314 3078 
Q 3713 2572 3713 1747 
Q 3713 922 3314 415 
Q 2916 -91 2278 -91 
Q 1894 -91 1617 61 
Q 1341 213 1159 525 
L 1159 0 
L 581 0 
L 581 4863 
L 1159 4863 
L 1159 2969 
z
" transform="scale(0.015625)"/>
       <path id="DejaVuSans-74" d="M 1172 4494 
L 1172 3500 
L 2356 3500 
L 2356 3053 
L 1172 3053 
L 1172 1153 
Q 1172 725 1289 603 
Q 1406 481 1766 481 
L 2356 481 
L 2356 0 
L 1766 0 
Q 1100 0 847 248 
Q 594 497 594 1153 
L 594 3053 
L 172 3053 
L 172 3500 
L 594 3500 
L 594 4494 
L 1172 4494 
z
" transform="scale(0.015625)"/>
       <path id="DejaVuSans-79" d="M 2059 -325 
Q 1816 -950 1584 -1140 
Q 1353 -1331 966 -1331 
L 506 -1331 
L 506 -850 
L 844 -850 
Q 1081 -850 1212 -737 
Q 1344 -625 1503 -206 
L 1606 56 
L 191 3500 
L 800 3500 
L 1894 763 
L 2988 3500 
L 3597 3500 
L 2059 -325 
z
" transform="scale(0.015625)"/>
       <path id="DejaVuSans-75" d="M 544 1381 
L 544 3500 
L 1119 3500 
L 1119 1403 
Q 1119 906 1312 657 
Q 1506 409 1894 409 
Q 2359 409 2629 706 
Q 2900 1003 2900 1516 
L 2900 3500 
L 3475 3500 
L 3475 0 
L 2900 0 
L 2900 538 
Q 2691 219 2414 64 
Q 2138 -91 1772 -91 
Q 1169 -91 856 284 
Q 544 659 544 1381 
z
M 1991 3584 
L 1991 3584 
z
" transform="scale(0.015625)"/>
       <path id="DejaVuSans-6e" d="M 3513 2113 
L 3513 0 
L 2938 0 
L 2938 2094 
Q 2938 2591 2744 2837 
Q 2550 3084 2163 3084 
Q 1697 3084 1428 2787 
Q 1159 2491 1159 1978 
L 1159 0 
L 581 0 
L 581 3500 
L 1159 3500 
L 1159 2956 
Q 1366 3272 1645 3428 
Q 1925 3584 2291 3584 
Q 2894 3584 3203 3211 
Q 3513 2838 3513 2113 
z
" transform="scale(0.015625)"/>
      </defs>
      <use xlink:href="#DejaVuSans-50"/>
      <use xlink:href="#DejaVuSans-6f" x="56.677734"/>
      <use xlink:href="#DejaVuSans-77" x="117.859375"/>
      <use xlink:href="#DejaVuSans-65" x="199.646484"/>
      <use xlink:href="#DejaVuSans-72" x="261.169922"/>
      <use xlink:href="#DejaVuSans-20" x="302.283203"/>
      <use xlink:href="#DejaVuSans-28" x="334.070312"/>
      <use xlink:href="#DejaVuSans-61" x="373.083984"/>
      <use xlink:href="#DejaVuSans-72" x="434.363281"/>
      <use xlink:href="#DejaVuSans-62" x="475.476562"/>
      <use xlink:href="#DejaVuSans-69" x="538.953125"/>
      <use xlink:href="#DejaVuSans-74" x="566.736328"/>
      <use xlink:href="#DejaVuSans-72" x="605.945312"/>
      <use xlink:href="#DejaVuSans-61" x="647.058594"/>
      <use xlink:href="#DejaVuSans-72" x="708.337891"/>
      <use xlink:href="#DejaVuSans-79" x="749.451172"/>
      <use xlink:href="#DejaVuSans-20" x="808.630859"/>
      <use xlink:href="#DejaVuSans-75" x="840.417969"/>
      <use xlink:href="#DejaVuSans-6e" x="903.796875"/>
      <use xlink:href="#DejaVuSans-69" x="967.175781"/>
      <use xlink:href="#DejaVuSans-74" x="994.958984"/>
      <use xlink:href="#DejaVuSans-73" x="1034.167969"/>
      <use xlink:href="#DejaVuSans-29" x="1086.267578"/>
     </g>
    </g>
   </g>
   <g id="line2d_27">
    <path d="M 115.363636 218.073685 
L 115.6174 175.771942 
L 115.871163 97.920588 
L 116.124926 110.962512 
L 116.378689 280.681532 
L 116.632453 126.324744 
L 116.886216 212.602703 
L 117.139979 191.950269 
L 117.393742 188.093243 
L 117.647506 296.491201 
L 117.901269 283.34429 
L 118.408795 123.842706 
L 118.916322 354.185273 
L 119.423848 275.163723 
L 119.677612 268.859116 
L 119.931375 300.35105 
L 120.185138 369.36 
L 120.438901 286.735539 
L 120.692665 158.576174 
L 120.946428 169.987492 
L 121.453954 337.518549 
L 121.707717 210.28709 
L 121.961481 150.355986 
L 122.215244 243.983929 
L 122.469007 153.487225 
L 122.72277 231.335738 
L 122.976534 125.136781 
L 123.230297 98.420805 
L 123.48406 138.298401 
L 123.737823 257.998635 
L 123.991587 195.688613 
L 124.24535 263.715251 
L 124.499113 257.145328 
L 124.752876 237.714815 
L 125.00664 93.842751 
L 125.260403 108.041375 
L 125.767929 193.574966 
L 126.021693 213.329091 
L 126.275456 199.28763 
L 126.529219 147.09185 
L 126.782982 140.134023 
L 127.290509 66.96 
L 127.798035 153.810571 
L 128.051799 165.044477 
L 128.305562 153.810571 
L 128.559325 120.208569 
L 128.813088 66.96 
L 129.320615 140.134023 
L 129.574378 147.09185 
L 129.828141 199.28763 
L 130.081905 213.329091 
L 130.335668 193.574966 
L 130.843194 108.041375 
L 131.096958 93.842751 
L 131.350721 237.714815 
L 131.604484 257.145328 
L 131.858247 263.715251 
L 132.112011 195.688613 
L 132.365774 257.998635 
L 132.619537 138.298401 
L 132.8733 98.420805 
L 133.127064 125.136781 
L 133.380827 231.335738 
L 133.63459 153.487225 
L 133.888353 243.983929 
L 134.142117 150.355986 
L 134.39588 210.28709 
L 134.649643 337.518549 
L 135.157169 169.987492 
L 135.410933 158.576174 
L 135.918459 369.36 
L 136.172222 300.35105 
L 136.425986 268.859116 
L 136.679749 275.163723 
L 137.187275 354.185273 
L 137.694802 123.842706 
L 138.202328 283.34429 
L 138.456092 296.491201 
L 138.709855 188.093243 
L 138.963618 191.950269 
L 139.217381 212.602703 
L 139.471145 126.324744 
L 139.724908 280.681532 
L 139.978671 110.962512 
L 140.232434 97.920588 
L 140.486198 175.771942 
L 140.739961 218.073685 
L 140.993724 206.115872 
L 141.501251 298.287853 
L 142.008777 97.704003 
L 142.26254 110.6547 
L 142.516304 182.582579 
L 142.770067 188.033522 
L 143.02383 230.003147 
L 143.277593 174.188311 
L 144.038883 88.320427 
L 144.292646 85.519697 
L 144.54641 133.880234 
L 144.800173 160.049576 
L 145.053936 163.795443 
L 145.307699 145.084587 
L 145.815226 77.123845 
L 146.322752 142.325155 
L 146.576516 150.151413 
L 146.830279 225.424598 
L 147.084042 196.087674 
L 147.337805 199.272059 
L 147.591569 115.090119 
L 147.845332 103.873874 
L 148.099095 139.93439 
L 148.352858 290.715482 
L 148.606621 232.744126 
L 148.860385 234.972716 
L 149.114148 185.653443 
L 149.367911 229.752999 
L 149.621674 112.084535 
L 149.875438 101.436498 
L 150.129201 203.349012 
L 150.382964 153.119623 
L 150.636727 180.589472 
L 150.890491 234.570737 
L 151.144254 165.234786 
L 151.65178 316.520374 
L 152.159307 146.203751 
L 152.41307 204.841234 
L 152.666833 322.283964 
L 152.920597 342.219465 
L 153.17436 285.664489 
L 153.428123 266.756889 
L 153.681886 285.664489 
L 153.93565 342.219465 
L 154.189413 322.283964 
L 154.443176 204.841234 
L 154.696939 146.203751 
L 155.204466 316.520374 
L 155.711992 165.234786 
L 155.965756 234.570737 
L 156.219519 180.589472 
L 156.473282 153.119623 
L 156.727045 203.349012 
L 156.980809 101.436498 
L 157.234572 112.084535 
L 157.488335 229.752999 
L 157.742098 185.653443 
L 157.995862 234.972716 
L 158.249625 232.744126 
L 158.503388 290.715482 
L 158.757151 139.93439 
L 159.010915 103.873874 
L 159.264678 115.090119 
L 159.518441 199.272059 
L 159.772204 196.087674 
L 160.025968 225.424598 
L 160.279731 150.151413 
L 160.533494 142.325155 
L 161.041021 77.123845 
L 161.294784 104.083086 
L 161.548547 145.084587 
L 161.80231 163.795443 
L 162.056073 160.049576 
L 162.309837 133.880234 
L 162.5636 85.519697 
L 162.817363 88.320427 
L 163.071126 127.991065 
L 163.32489 144.645194 
L 163.578653 174.188311 
L 163.832416 230.003147 
L 164.086179 188.033522 
L 164.339943 182.582579 
L 164.593706 110.6547 
L 164.847469 97.704003 
L 165.354996 298.287853 
L 165.862522 206.115872 
L 166.116285 218.073685 
L 166.370049 175.771942 
L 166.623812 97.920588 
L 166.877575 110.962512 
L 167.131338 280.681532 
L 167.385102 126.324744 
L 167.638865 212.602703 
L 167.892628 191.950269 
L 168.146391 188.093243 
L 168.400155 296.491201 
L 168.653918 283.34429 
L 169.161444 123.842706 
L 169.668971 354.185273 
L 170.176497 275.163723 
L 170.430261 268.859116 
L 170.684024 300.35105 
L 170.937787 369.36 
L 171.19155 286.735539 
L 171.445314 158.576174 
L 171.699077 169.987492 
L 172.206603 337.518549 
L 172.460367 210.28709 
L 172.71413 150.355986 
L 172.967893 243.983929 
L 173.221656 153.487225 
L 173.47542 231.335738 
L 173.729183 125.136781 
L 173.982946 98.420805 
L 174.236709 138.298401 
L 174.490473 257.998635 
L 174.744236 195.688613 
L 174.997999 263.715251 
L 175.251762 257.145328 
L 175.505525 237.714815 
L 175.759289 93.842751 
L 176.013052 108.041375 
L 176.520578 193.574966 
L 176.774342 213.329091 
L 177.028105 199.28763 
L 177.281868 147.09185 
L 177.535631 140.134023 
L 178.043158 66.96 
L 178.550684 153.810571 
L 178.804448 165.044477 
L 179.058211 153.810571 
L 179.311974 120.208569 
L 179.565737 66.96 
L 180.073264 140.134023 
L 180.327027 147.09185 
L 180.58079 199.28763 
L 180.834554 213.329091 
L 181.088317 193.574966 
L 181.595843 108.041375 
L 181.849607 93.842751 
L 182.10337 237.714815 
L 182.357133 257.145328 
L 182.610896 263.715251 
L 182.86466 195.688613 
L 183.118423 257.998635 
L 183.372186 138.298401 
L 183.625949 98.420805 
L 183.879713 125.136781 
L 184.133476 231.335738 
L 184.387239 153.487225 
L 184.641002 243.983929 
L 184.894766 150.355986 
L 185.148529 210.28709 
L 185.402292 337.518549 
L 185.909819 169.987492 
L 186.163582 158.576174 
L 186.671108 369.36 
L 186.924872 300.35105 
L 187.178635 268.859116 
L 187.432398 275.163723 
L 187.939925 354.185273 
L 188.447451 123.842706 
L 188.954977 283.34429 
L 189.208741 296.491201 
L 189.462504 188.093243 
L 189.716267 191.950269 
L 189.97003 212.602703 
L 190.223794 126.324744 
L 190.477557 280.681532 
L 190.73132 110.962512 
L 190.985083 97.920588 
L 191.238847 175.771942 
L 191.49261 218.073685 
L 191.746373 206.115872 
L 192.2539 298.287853 
L 192.761426 97.704003 
L 193.015189 110.6547 
L 193.268953 182.582579 
L 193.522716 188.033522 
L 193.776479 230.003147 
L 194.030242 174.188311 
L 194.791532 88.320427 
L 195.045295 85.519697 
L 195.299059 133.880234 
L 195.552822 160.049576 
L 195.806585 163.795443 
L 196.060348 145.084587 
L 196.567875 77.123845 
L 197.075401 142.325155 
L 197.329165 150.151413 
L 197.582928 225.424598 
L 197.836691 196.087674 
L 198.090454 199.272059 
L 198.344218 115.090119 
L 198.597981 103.873874 
L 198.851744 139.93439 
L 199.105507 290.715482 
L 199.359271 232.744126 
L 199.613034 234.972716 
L 199.866797 185.653443 
L 200.12056 229.752999 
L 200.374324 112.084535 
L 200.628087 101.436498 
L 200.88185 203.349012 
L 201.135613 153.119623 
L 201.389377 180.589472 
L 201.64314 234.570737 
L 201.896903 165.234786 
L 202.404429 316.520374 
L 202.911956 146.203751 
L 203.165719 204.841234 
L 203.419482 322.283964 
L 203.673246 342.219465 
L 203.927009 285.664489 
L 204.180772 266.756889 
L 204.434535 285.664489 
L 204.688299 342.219465 
L 204.942062 322.283964 
L 205.195825 204.841234 
L 205.449588 146.203751 
L 205.957115 316.520374 
L 206.464641 165.234786 
L 206.718405 234.570737 
L 206.972168 180.589472 
L 207.225931 153.119623 
L 207.479694 203.349012 
L 207.733458 101.436498 
L 207.987221 112.084535 
L 208.240984 229.752999 
L 208.494747 185.653443 
L 208.748511 234.972716 
L 209.002274 232.744126 
L 209.256037 290.715482 
L 209.5098 139.93439 
L 209.763564 103.873874 
L 210.017327 115.090119 
L 210.27109 199.272059 
L 210.524853 196.087674 
L 210.778617 225.424598 
L 211.03238 150.151413 
L 211.286143 142.325155 
L 211.79367 77.123845 
L 212.047433 104.083086 
L 212.301196 145.084587 
L 212.554959 163.795443 
L 212.808723 160.049576 
L 213.062486 133.880234 
L 213.316249 85.519697 
L 213.570012 88.320427 
L 213.823776 127.991065 
L 214.077539 144.645194 
L 214.331302 174.188311 
L 214.585065 230.003147 
L 214.838829 188.033522 
L 215.092592 182.582579 
L 215.346355 110.6547 
L 215.600118 97.704003 
L 216.107645 298.287853 
L 216.615171 206.115872 
L 216.868934 218.073685 
L 217.122698 175.771942 
L 217.376461 97.920588 
L 217.630224 110.962512 
L 217.883987 280.681532 
L 218.137751 126.324744 
L 218.391514 212.602703 
L 218.645277 191.950269 
L 218.89904 188.093243 
L 219.152804 296.491201 
L 219.406567 283.34429 
L 219.914093 123.842706 
L 220.42162 354.185273 
L 220.929146 275.163723 
L 221.18291 268.859116 
L 221.436673 300.35105 
L 221.690436 369.36 
L 221.944199 286.735539 
L 222.197963 158.576174 
L 222.451726 169.987492 
L 222.959252 337.518549 
L 223.213016 210.28709 
L 223.466779 150.355986 
L 223.720542 243.983929 
L 223.974305 153.487225 
L 224.228069 231.335738 
L 224.481832 125.136781 
L 224.735595 98.420805 
L 224.989358 138.298401 
L 225.243122 257.998635 
L 225.496885 195.688613 
L 225.750648 263.715251 
L 226.004411 257.145328 
L 226.258175 237.714815 
L 226.511938 93.842751 
L 226.765701 108.041375 
L 227.273228 193.574966 
L 227.526991 213.329091 
L 227.780754 199.28763 
L 228.034517 147.09185 
L 228.288281 140.134023 
L 228.795807 66.96 
L 229.303333 153.810571 
L 229.557097 165.044477 
L 229.81086 153.810571 
L 230.064623 120.208569 
L 230.318386 66.96 
L 230.825913 140.134023 
L 231.079676 147.09185 
L 231.333439 199.28763 
L 231.587203 213.329091 
L 231.840966 193.574966 
L 232.348492 108.041375 
L 232.602256 93.842751 
L 232.856019 237.714815 
L 233.109782 257.145328 
L 233.363545 263.715251 
L 233.617309 195.688613 
L 233.871072 257.998635 
L 234.124835 138.298401 
L 234.378598 98.420805 
L 234.632362 125.136781 
L 234.886125 231.335738 
L 235.139888 153.487225 
L 235.393651 243.983929 
L 235.647415 150.355986 
L 235.901178 210.28709 
L 236.154941 337.518549 
L 236.662468 169.987492 
L 236.916231 158.576174 
L 237.423757 369.36 
L 237.677521 300.35105 
L 237.931284 268.859116 
L 238.185047 275.163723 
L 238.692574 354.185273 
L 239.2001 123.842706 
L 239.707627 283.34429 
L 239.96139 296.491201 
L 240.215153 188.093243 
L 240.468916 191.950269 
L 240.72268 212.602703 
L 240.976443 126.324744 
L 241.230206 280.681532 
L 241.483969 110.962512 
L 241.737733 97.920588 
L 241.991496 175.771942 
L 242.245259 218.073685 
L 242.499022 206.115872 
L 243.006549 298.287853 
L 243.514075 97.704003 
L 243.767838 110.6547 
L 244.021602 182.582579 
L 244.275365 188.033522 
L 244.529128 230.003147 
L 244.782891 174.188311 
L 245.544181 88.320427 
L 245.797944 85.519697 
L 246.051708 133.880234 
L 246.305471 160.049576 
L 246.559234 163.795443 
L 246.812997 145.084587 
L 247.320524 77.123845 
L 247.82805 142.325155 
L 248.081814 150.151413 
L 248.335577 225.424598 
L 248.58934 196.087674 
L 248.843103 199.272059 
L 249.096867 115.090119 
L 249.35063 103.873874 
L 249.604393 139.93439 
L 249.858156 290.715482 
L 250.11192 232.744126 
L 250.365683 234.972716 
L 250.619446 185.653443 
L 250.873209 229.752999 
L 251.126973 112.084535 
L 251.380736 101.436498 
L 251.634499 203.349012 
L 251.888262 153.119623 
L 252.142026 180.589472 
L 252.395789 234.570737 
L 252.649552 165.234786 
L 253.157079 316.520374 
L 253.664605 146.203751 
L 253.918368 204.841234 
L 254.172132 322.283964 
L 254.425895 342.219465 
L 254.679658 285.664489 
L 254.933421 266.756889 
L 255.187185 285.664489 
L 255.440948 342.219465 
L 255.694711 322.283964 
L 255.948474 204.841234 
L 256.202237 146.203751 
L 256.709764 316.520374 
L 257.21729 165.234786 
L 257.471054 234.570737 
L 257.724817 180.589472 
L 257.97858 153.119623 
L 258.232343 203.349012 
L 258.486107 101.436498 
L 258.73987 112.084535 
L 258.993633 229.752999 
L 259.247396 185.653443 
L 259.50116 234.972716 
L 259.754923 232.744126 
L 260.008686 290.715482 
L 260.262449 139.93439 
L 260.516213 103.873874 
L 260.769976 115.090119 
L 261.023739 199.272059 
L 261.277502 196.087674 
L 261.531266 225.424598 
L 261.785029 150.151413 
L 262.038792 142.325155 
L 262.546319 77.123845 
L 262.800082 104.083086 
L 263.053845 145.084587 
L 263.307608 163.795443 
L 263.561372 160.049576 
L 263.815135 133.880234 
L 264.068898 85.519697 
L 264.322661 88.320427 
L 264.576425 127.991065 
L 264.830188 144.645194 
L 265.083951 174.188311 
L 265.337714 230.003147 
L 265.591478 188.033522 
L 265.845241 182.582579 
L 266.099004 110.6547 
L 266.352767 97.704003 
L 266.860294 298.287853 
L 267.36782 206.115872 
L 267.621584 218.073685 
L 267.875347 175.771942 
L 268.12911 97.920588 
L 268.382873 110.962512 
L 268.636637 280.681532 
L 268.8904 126.324744 
L 269.144163 212.602703 
L 269.397926 191.950269 
L 269.651689 188.093243 
L 269.905453 296.491201 
L 270.159216 283.34429 
L 270.666742 123.842706 
L 271.174269 354.185273 
L 271.681795 275.163723 
L 271.935559 268.859116 
L 272.189322 300.35105 
L 272.443085 369.36 
L 272.696848 286.735539 
L 272.950612 158.576174 
L 273.204375 169.987492 
L 273.711901 337.518549 
L 273.965665 210.28709 
L 274.219428 150.355986 
L 274.473191 243.983929 
L 274.726954 153.487225 
L 274.980718 231.335738 
L 275.234481 125.136781 
L 275.488244 98.420805 
L 275.742007 138.298401 
L 275.995771 257.998635 
L 276.249534 195.688613 
L 276.503297 263.715251 
L 276.75706 257.145328 
L 277.010824 237.714815 
L 277.264587 93.842751 
L 277.51835 108.041375 
L 278.025877 193.574966 
L 278.27964 213.329091 
L 278.533403 199.28763 
L 278.787166 147.09185 
L 279.04093 140.134023 
L 279.548456 66.96 
L 280.055983 153.810571 
L 280.309746 165.044477 
L 280.563509 153.810571 
L 280.817272 120.208569 
L 281.071036 66.96 
L 281.578562 140.134023 
L 281.832325 147.09185 
L 282.086088 199.28763 
L 282.339852 213.329091 
L 282.593615 193.574966 
L 283.101141 108.041375 
L 283.354905 93.842751 
L 283.608668 237.714815 
L 283.862431 257.145328 
L 284.116194 263.715251 
L 284.369958 195.688613 
L 284.623721 257.998635 
L 284.877484 138.298401 
L 285.131247 98.420805 
L 285.385011 125.136781 
L 285.638774 231.335738 
L 285.892537 153.487225 
L 286.1463 243.983929 
L 286.400064 150.355986 
L 286.653827 210.28709 
L 286.90759 337.518549 
L 287.415117 169.987492 
L 287.66888 158.576174 
L 288.176406 369.36 
L 288.43017 300.35105 
L 288.683933 268.859116 
L 288.937696 275.163723 
L 289.445223 354.185273 
L 289.952749 123.842706 
L 290.460276 283.34429 
L 290.714039 296.491201 
L 290.967802 188.093243 
L 291.221565 191.950269 
L 291.475329 212.602703 
L 291.729092 126.324744 
L 291.982855 280.681532 
L 292.236618 110.962512 
L 292.490382 97.920588 
L 292.744145 175.771942 
L 292.997908 218.073685 
L 293.251671 206.115872 
L 293.759198 298.287853 
L 294.266724 97.704003 
L 294.520488 110.6547 
L 294.774251 182.582579 
L 295.028014 188.033522 
L 295.281777 230.003147 
L 295.53554 174.188311 
L 296.29683 88.320427 
L 296.550593 85.519697 
L 296.804357 133.880234 
L 297.05812 160.049576 
L 297.311883 163.795443 
L 297.565646 145.084587 
L 298.073173 77.123845 
L 298.580699 142.325155 
L 298.834463 150.151413 
L 299.088226 225.424598 
L 299.341989 196.087674 
L 299.595752 199.272059 
L 299.849516 115.090119 
L 300.103279 103.873874 
L 300.357042 139.93439 
L 300.610805 290.715482 
L 300.864569 232.744126 
L 301.118332 234.972716 
L 301.372095 185.653443 
L 301.625858 229.752999 
L 301.879622 112.084535 
L 302.133385 101.436498 
L 302.387148 203.349012 
L 302.640911 153.119623 
L 302.894675 180.589472 
L 303.148438 234.570737 
L 303.402201 165.234786 
L 303.909728 316.520374 
L 304.417254 146.203751 
L 304.671017 204.841234 
L 304.924781 322.283964 
L 305.178544 342.219465 
L 305.432307 285.664489 
L 305.68607 266.756889 
L 305.939834 285.664489 
L 306.193597 342.219465 
L 306.44736 322.283964 
L 306.701123 204.841234 
L 306.954887 146.203751 
L 307.462413 316.520374 
L 307.96994 165.234786 
L 308.223703 234.570737 
L 308.477466 180.589472 
L 308.731229 153.119623 
L 308.984992 203.349012 
L 309.238756 101.436498 
L 309.492519 112.084535 
L 309.746282 229.752999 
L 310.000045 185.653443 
L 310.253809 234.972716 
L 310.507572 232.744126 
L 310.761335 290.715482 
L 311.015098 139.93439 
L 311.268862 103.873874 
L 311.522625 115.090119 
L 311.776388 199.272059 
L 312.030151 196.087674 
L 312.283915 225.424598 
L 312.537678 150.151413 
L 312.791441 142.325155 
L 313.298968 77.123845 
L 313.552731 104.083086 
L 313.806494 145.084587 
L 314.060257 163.795443 
L 314.314021 160.049576 
L 314.567784 133.880234 
L 314.821547 85.519697 
L 315.07531 88.320427 
L 315.329074 127.991065 
L 315.582837 144.645194 
L 315.8366 174.188311 
L 316.090363 230.003147 
L 316.344127 188.033522 
L 316.59789 182.582579 
L 316.851653 110.6547 
L 317.105416 97.704003 
L 317.612943 298.287853 
L 318.120469 206.115872 
L 318.374233 218.073685 
L 318.627996 175.771942 
L 318.881759 97.920588 
L 319.135522 110.962512 
L 319.389286 280.681532 
L 319.643049 126.324744 
L 319.896812 212.602703 
L 320.150575 191.950269 
L 320.404339 188.093243 
L 320.658102 296.491201 
L 320.911865 283.34429 
L 321.419392 123.842706 
L 321.926918 354.185273 
L 322.434444 275.163723 
L 322.688208 268.859116 
L 322.941971 300.35105 
L 323.195734 369.36 
L 323.449497 286.735539 
L 323.703261 158.576174 
L 323.957024 169.987492 
L 324.46455 337.518549 
L 324.718314 210.28709 
L 324.972077 150.355986 
L 325.22584 243.983929 
L 325.479603 153.487225 
L 325.733367 231.335738 
L 325.98713 125.136781 
L 326.240893 98.420805 
L 326.494656 138.298401 
L 326.74842 257.998635 
L 327.002183 195.688613 
L 327.255946 263.715251 
L 327.509709 257.145328 
L 327.763473 237.714815 
L 328.017236 93.842751 
L 328.270999 108.041375 
L 328.778526 193.574966 
L 329.032289 213.329091 
L 329.286052 199.28763 
L 329.539815 147.09185 
L 329.793579 140.134023 
L 330.301105 66.96 
L 330.808632 153.810571 
L 331.062395 165.044477 
L 331.316158 153.810571 
L 331.569921 120.208569 
L 331.823685 66.96 
L 332.331211 140.134023 
L 332.584974 147.09185 
L 332.838738 199.28763 
L 333.092501 213.329091 
L 333.346264 193.574966 
L 333.853791 108.041375 
L 334.107554 93.842751 
L 334.361317 237.714815 
L 334.61508 257.145328 
L 334.868844 263.715251 
L 335.122607 195.688613 
L 335.37637 257.998635 
L 335.630133 138.298401 
L 335.883896 98.420805 
L 336.13766 125.136781 
L 336.391423 231.335738 
L 336.645186 153.487225 
L 336.898949 243.983929 
L 337.152713 150.355986 
L 337.406476 210.28709 
L 337.660239 337.518549 
L 338.167766 169.987492 
L 338.421529 158.576174 
L 338.929055 369.36 
L 339.182819 300.35105 
L 339.436582 268.859116 
L 339.690345 275.163723 
L 340.197872 354.185273 
L 340.705398 123.842706 
L 341.212925 283.34429 
L 341.466688 296.491201 
L 341.720451 188.093243 
L 341.974214 191.950269 
L 342.227978 212.602703 
L 342.481741 126.324744 
L 342.735504 280.681532 
L 342.989267 110.962512 
L 343.243031 97.920588 
L 343.496794 175.771942 
L 343.750557 218.073685 
L 344.00432 206.115872 
L 344.511847 298.287853 
L 345.019373 97.704003 
L 345.273137 110.6547 
L 345.5269 182.582579 
L 345.780663 188.033522 
L 346.034426 230.003147 
L 346.28819 174.188311 
L 347.049479 88.320427 
L 347.303243 85.519697 
L 347.557006 133.880234 
L 347.810769 160.049576 
L 348.064532 163.795443 
L 348.318296 145.084587 
L 348.825822 77.123845 
L 349.333348 142.325155 
L 349.587112 150.151413 
L 349.840875 225.424598 
L 350.094638 196.087674 
L 350.348401 199.272059 
L 350.602165 115.090119 
L 350.855928 103.873874 
L 351.109691 139.93439 
L 351.363454 290.715482 
L 351.617218 232.744126 
L 351.870981 234.972716 
L 352.124744 185.653443 
L 352.378507 229.752999 
L 352.632271 112.084535 
L 352.886034 101.436498 
L 353.139797 203.349012 
L 353.39356 153.119623 
L 353.647324 180.589472 
L 353.901087 234.570737 
L 354.15485 165.234786 
L 354.662377 316.520374 
L 355.169903 146.203751 
L 355.423666 204.841234 
L 355.67743 322.283964 
L 355.931193 342.219465 
L 356.184956 285.664489 
L 356.438719 266.756889 
L 356.692483 285.664489 
L 356.946246 342.219465 
L 357.200009 322.283964 
L 357.453772 204.841234 
L 357.707536 146.203751 
L 358.215062 316.520374 
L 358.722589 165.234786 
L 358.976352 234.570737 
L 359.230115 180.589472 
L 359.483878 153.119623 
L 359.737642 203.349012 
L 359.991405 101.436498 
L 360.245168 112.084535 
L 360.498931 229.752999 
L 360.752695 185.653443 
L 361.006458 234.972716 
L 361.260221 232.744126 
L 361.513984 290.715482 
L 361.767748 139.93439 
L 362.021511 103.873874 
L 362.275274 115.090119 
L 362.529037 199.272059 
L 362.7828 196.087674 
L 363.036564 225.424598 
L 363.290327 150.151413 
L 363.54409 142.325155 
L 364.051617 77.123845 
L 364.30538 104.083086 
L 364.559143 145.084587 
L 364.812906 163.795443 
L 365.06667 160.049576 
L 365.320433 133.880234 
L 365.574196 85.519697 
L 365.827959 88.320427 
L 366.081723 127.991065 
L 366.335486 144.645194 
L 366.589249 174.188311 
L 366.843012 230.003147 
L 367.096776 188.033522 
L 367.350539 182.582579 
L 367.604302 110.6547 
L 367.858065 97.704003 
L 368.365592 298.287853 
L 368.873118 206.115872 
L 369.126882 218.073685 
L 369.380645 175.771942 
L 369.634408 97.920588 
L 369.888171 110.962512 
L 370.141935 280.681532 
L 370.395698 126.324744 
L 370.649461 212.602703 
L 370.903224 191.950269 
L 371.156988 188.093243 
L 371.410751 296.491201 
L 371.664514 283.34429 
L 372.172041 123.842706 
L 372.679567 354.185273 
L 373.187094 275.163723 
L 373.440857 268.859116 
L 373.69462 300.35105 
L 373.948383 369.36 
L 374.202147 286.735539 
L 374.45591 158.576174 
L 374.709673 169.987492 
L 375.2172 337.518549 
L 375.470963 210.28709 
L 375.724726 150.355986 
L 375.978489 243.983929 
L 376.232252 153.487225 
L 376.486016 231.335738 
L 376.739779 125.136781 
L 376.993542 98.420805 
L 377.247305 138.298401 
L 377.501069 257.998635 
L 377.754832 195.688613 
L 378.008595 263.715251 
L 378.262358 257.145328 
L 378.516122 237.714815 
L 378.769885 93.842751 
L 379.023648 108.041375 
L 379.531175 193.574966 
L 379.784938 213.329091 
L 380.038701 199.28763 
L 380.292464 147.09185 
L 380.546228 140.134023 
L 381.053754 66.96 
L 381.561281 153.810571 
L 381.815044 165.044477 
L 382.068807 153.810571 
L 382.32257 120.208569 
L 382.576334 66.96 
L 383.08386 140.134023 
L 383.337623 147.09185 
L 383.591387 199.28763 
L 383.84515 213.329091 
L 384.098913 193.574966 
L 384.60644 108.041375 
L 384.860203 93.842751 
L 385.113966 237.714815 
L 385.367729 257.145328 
L 385.621493 263.715251 
L 385.875256 195.688613 
L 386.129019 257.998635 
L 386.382782 138.298401 
L 386.636546 98.420805 
L 386.890309 125.136781 
L 387.144072 231.335738 
L 387.397835 153.487225 
L 387.651599 243.983929 
L 387.905362 150.355986 
L 388.159125 210.28709 
L 388.412888 337.518549 
L 388.920415 169.987492 
L 389.174178 158.576174 
L 389.681704 369.36 
L 389.935468 300.35105 
L 390.189231 268.859116 
L 390.442994 275.163723 
L 390.950521 354.185273 
L 391.458047 123.842706 
L 391.965574 283.34429 
L 392.219337 296.491201 
L 392.4731 188.093243 
L 392.726863 191.950269 
L 392.980627 212.602703 
L 393.23439 126.324744 
L 393.488153 280.681532 
L 393.741916 110.962512 
L 393.99568 97.920588 
L 394.249443 175.771942 
L 394.503206 218.073685 
L 394.756969 206.115872 
L 395.264496 298.287853 
L 395.772022 97.704003 
L 396.025786 110.6547 
L 396.279549 182.582579 
L 396.533312 188.033522 
L 396.787075 230.003147 
L 397.040839 174.188311 
L 397.802128 88.320427 
L 398.055892 85.519697 
L 398.309655 133.880234 
L 398.563418 160.049576 
L 398.817181 163.795443 
L 399.070945 145.084587 
L 399.578471 77.123845 
L 400.085998 142.325155 
L 400.339761 150.151413 
L 400.593524 225.424598 
L 400.847287 196.087674 
L 401.101051 199.272059 
L 401.354814 115.090119 
L 401.608577 103.873874 
L 401.86234 139.93439 
L 402.116104 290.715482 
L 402.369867 232.744126 
L 402.62363 234.972716 
L 402.877393 185.653443 
L 403.131156 229.752999 
L 403.38492 112.084535 
L 403.638683 101.436498 
L 403.892446 203.349012 
L 404.146209 153.119623 
L 404.399973 180.589472 
L 404.653736 234.570737 
L 404.907499 165.234786 
L 405.415026 316.520374 
L 405.922552 146.203751 
L 406.176315 204.841234 
L 406.430079 322.283964 
L 406.683842 342.219465 
L 406.937605 285.664489 
L 407.191368 266.756889 
L 407.445132 285.664489 
L 407.698895 342.219465 
L 407.952658 322.283964 
L 408.206421 204.841234 
L 408.460185 146.203751 
L 408.967711 316.520374 
L 409.475238 165.234786 
L 409.729001 234.570737 
L 409.982764 180.589472 
L 410.236527 153.119623 
L 410.490291 203.349012 
L 410.744054 101.436498 
L 410.997817 112.084535 
L 411.25158 229.752999 
L 411.505344 185.653443 
L 411.759107 234.972716 
L 412.01287 232.744126 
L 412.266633 290.715482 
L 412.520397 139.93439 
L 412.77416 103.873874 
L 413.027923 115.090119 
L 413.281686 199.272059 
L 413.53545 196.087674 
L 413.789213 225.424598 
L 414.042976 150.151413 
L 414.296739 142.325155 
L 414.804266 77.123845 
L 415.058029 104.083086 
L 415.311792 145.084587 
L 415.565556 163.795443 
L 415.819319 160.049576 
L 416.073082 133.880234 
L 416.326845 85.519697 
L 416.580608 88.320427 
L 416.834372 127.991065 
L 417.088135 144.645194 
L 417.341898 174.188311 
L 417.595661 230.003147 
L 417.849425 188.033522 
L 418.103188 182.582579 
L 418.356951 110.6547 
L 418.610714 97.704003 
L 419.118241 298.287853 
L 419.625767 206.115872 
L 419.879531 218.073685 
L 420.133294 175.771942 
L 420.387057 97.920588 
L 420.64082 110.962512 
L 420.894584 280.681532 
L 421.148347 126.324744 
L 421.40211 212.602703 
L 421.655873 191.950269 
L 421.909637 188.093243 
L 422.1634 296.491201 
L 422.417163 283.34429 
L 422.92469 123.842706 
L 423.432216 354.185273 
L 423.939743 275.163723 
L 424.193506 268.859116 
L 424.447269 300.35105 
L 424.701032 369.36 
L 424.954796 286.735539 
L 425.208559 158.576174 
L 425.462322 169.987492 
L 425.969849 337.518549 
L 426.223612 210.28709 
L 426.477375 150.355986 
L 426.731138 243.983929 
L 426.984902 153.487225 
L 427.238665 231.335738 
L 427.492428 125.136781 
L 427.746191 98.420805 
L 427.999955 138.298401 
L 428.253718 257.998635 
L 428.507481 195.688613 
L 428.761244 263.715251 
L 429.015008 257.145328 
L 429.268771 237.714815 
L 429.522534 93.842751 
L 429.776297 108.041375 
L 430.283824 193.574966 
L 430.537587 213.329091 
L 430.79135 199.28763 
L 431.045113 147.09185 
L 431.298877 140.134023 
L 431.806403 66.96 
L 432.31393 153.810571 
L 432.567693 165.044477 
L 432.821456 153.810571 
L 433.075219 120.208569 
L 433.328983 66.96 
L 433.836509 140.134023 
L 434.090272 147.09185 
L 434.344036 199.28763 
L 434.597799 213.329091 
L 434.851562 193.574966 
L 435.359089 108.041375 
L 435.612852 93.842751 
L 435.866615 237.714815 
L 436.120378 257.145328 
L 436.374142 263.715251 
L 436.627905 195.688613 
L 436.881668 257.998635 
L 437.135431 138.298401 
L 437.389195 98.420805 
L 437.642958 125.136781 
L 437.896721 231.335738 
L 438.150484 153.487225 
L 438.404248 243.983929 
L 438.658011 150.355986 
L 438.911774 210.28709 
L 439.165537 337.518549 
L 439.673064 169.987492 
L 439.926827 158.576174 
L 440.434354 369.36 
L 440.688117 300.35105 
L 440.94188 268.859116 
L 441.195643 275.163723 
L 441.70317 354.185273 
L 442.210696 123.842706 
L 442.718223 283.34429 
L 442.971986 296.491201 
L 443.225749 188.093243 
L 443.479512 191.950269 
L 443.733276 212.602703 
L 443.987039 126.324744 
L 444.240802 280.681532 
L 444.494565 110.962512 
L 444.748329 97.920588 
L 445.002092 175.771942 
L 445.255855 218.073685 
L 445.509618 206.115872 
L 446.017145 298.287853 
L 446.524671 97.704003 
L 446.778435 110.6547 
L 447.032198 182.582579 
L 447.285961 188.033522 
L 447.539724 230.003147 
L 447.793488 174.188311 
L 448.554777 88.320427 
L 448.808541 85.519697 
L 449.062304 133.880234 
L 449.316067 160.049576 
L 449.56983 163.795443 
L 449.823594 145.084587 
L 450.33112 77.123845 
L 450.838647 142.325155 
L 451.09241 150.151413 
L 451.346173 225.424598 
L 451.599936 196.087674 
L 451.8537 199.272059 
L 452.107463 115.090119 
L 452.361226 103.873874 
L 452.614989 139.93439 
L 452.868753 290.715482 
L 453.122516 232.744126 
L 453.376279 234.972716 
L 453.630042 185.653443 
L 453.883806 229.752999 
L 454.137569 112.084535 
L 454.391332 101.436498 
L 454.645095 203.349012 
L 454.898859 153.119623 
L 455.152622 180.589472 
L 455.406385 234.570737 
L 455.660148 165.234786 
L 456.167675 316.520374 
L 456.675201 146.203751 
L 456.928964 204.841234 
L 457.182728 322.283964 
L 457.436491 342.219465 
L 457.690254 285.664489 
L 457.944017 266.756889 
L 458.197781 285.664489 
L 458.451544 342.219465 
L 458.705307 322.283964 
L 458.95907 204.841234 
L 459.212834 146.203751 
L 459.72036 316.520374 
L 460.227887 165.234786 
L 460.48165 234.570737 
L 460.735413 180.589472 
L 460.989176 153.119623 
L 461.24294 203.349012 
L 461.496703 101.436498 
L 461.750466 112.084535 
L 462.004229 229.752999 
L 462.257993 185.653443 
L 462.511756 234.972716 
L 462.765519 232.744126 
L 463.019282 290.715482 
L 463.273046 139.93439 
L 463.526809 103.873874 
L 463.780572 115.090119 
L 464.034335 199.272059 
L 464.288099 196.087674 
L 464.541862 225.424598 
L 464.795625 150.151413 
L 465.049388 142.325155 
L 465.556915 77.123845 
L 465.810678 104.083086 
L 466.064441 145.084587 
L 466.318205 163.795443 
L 466.571968 160.049576 
L 466.825731 133.880234 
L 467.079494 85.519697 
L 467.333258 88.320427 
L 467.587021 127.991065 
L 467.840784 144.645194 
L 468.094547 174.188311 
L 468.348311 230.003147 
L 468.602074 188.033522 
L 468.855837 182.582579 
L 469.1096 110.6547 
L 469.363363 97.704003 
L 469.87089 298.287853 
L 470.378416 206.115872 
L 470.63218 218.073685 
L 470.885943 175.771942 
L 471.139706 97.920588 
L 471.393469 110.962512 
L 471.647233 280.681532 
L 471.900996 126.324744 
L 472.154759 212.602703 
L 472.408522 191.950269 
L 472.662286 188.093243 
L 472.916049 296.491201 
L 473.169812 283.34429 
L 473.677339 123.842706 
L 474.184865 354.185273 
L 474.692392 275.163723 
L 474.946155 268.859116 
L 475.199918 300.35105 
L 475.453681 369.36 
L 475.707445 286.735539 
L 475.961208 158.576174 
L 476.214971 169.987492 
L 476.722498 337.518549 
L 476.976261 210.28709 
L 477.230024 150.355986 
L 477.483787 243.983929 
L 477.737551 153.487225 
L 477.991314 231.335738 
L 478.245077 125.136781 
L 478.49884 98.420805 
L 478.752604 138.298401 
L 479.006367 257.998635 
L 479.26013 195.688613 
L 479.513893 263.715251 
L 479.767657 257.145328 
L 480.02142 237.714815 
L 480.275183 93.842751 
L 480.528946 108.041375 
L 481.036473 193.574966 
L 481.290236 213.329091 
L 481.543999 199.28763 
L 481.797763 147.09185 
L 482.051526 140.134023 
L 482.559052 66.96 
L 483.066579 153.810571 
L 483.320342 165.044477 
L 483.574105 153.810571 
L 483.827868 120.208569 
L 484.081632 66.96 
L 484.589158 140.134023 
L 484.842921 147.09185 
L 485.096685 199.28763 
L 485.350448 213.329091 
L 485.604211 193.574966 
L 486.111738 108.041375 
L 486.365501 93.842751 
L 486.619264 237.714815 
L 486.873027 257.145328 
L 487.126791 263.715251 
L 487.380554 195.688613 
L 487.634317 257.998635 
L 487.88808 138.298401 
L 488.141844 98.420805 
L 488.395607 125.136781 
L 488.64937 231.335738 
L 488.903133 153.487225 
L 489.156897 243.983929 
L 489.41066 150.355986 
L 489.664423 210.28709 
L 489.918186 337.518549 
L 490.425713 169.987492 
L 490.679476 158.576174 
L 491.187003 369.36 
L 491.440766 300.35105 
L 491.694529 268.859116 
L 491.948292 275.163723 
L 492.455819 354.185273 
L 492.963345 123.842706 
L 493.470872 283.34429 
L 493.724635 296.491201 
L 493.978398 188.093243 
L 494.232162 191.950269 
L 494.485925 212.602703 
L 494.739688 126.324744 
L 494.993451 280.681532 
L 495.247215 110.962512 
L 495.500978 97.920588 
L 495.754741 175.771942 
L 496.008504 218.073685 
L 496.262267 206.115872 
L 496.769794 298.287853 
L 497.27732 97.704003 
L 497.531084 110.6547 
L 497.784847 182.582579 
L 498.03861 188.033522 
L 498.292373 230.003147 
L 498.546137 174.188311 
L 499.307426 88.320427 
L 499.56119 85.519697 
L 499.814953 133.880234 
L 500.068716 160.049576 
L 500.322479 163.795443 
L 500.576243 145.084587 
L 501.083769 77.123845 
L 501.591296 142.325155 
L 501.845059 150.151413 
L 502.098822 225.424598 
L 502.352585 196.087674 
L 502.606349 199.272059 
L 502.860112 115.090119 
L 503.113875 103.873874 
L 503.367638 139.93439 
L 503.621402 290.715482 
L 503.875165 232.744126 
L 504.128928 234.972716 
L 504.382691 185.653443 
L 504.636455 229.752999 
L 504.890218 112.084535 
L 505.143981 101.436498 
L 505.397744 203.349012 
L 505.651508 153.119623 
L 505.905271 180.589472 
L 506.159034 234.570737 
L 506.412797 165.234786 
L 506.920324 316.520374 
L 507.42785 146.203751 
L 507.681614 204.841234 
L 507.935377 322.283964 
L 508.18914 342.219465 
L 508.442903 285.664489 
L 508.696667 266.756889 
L 508.95043 285.664489 
L 509.204193 342.219465 
L 509.457956 322.283964 
L 509.711719 204.841234 
L 509.965483 146.203751 
L 510.473009 316.520374 
L 510.980536 165.234786 
L 511.234299 234.570737 
L 511.488062 180.589472 
L 511.741825 153.119623 
L 511.995589 203.349012 
L 512.249352 101.436498 
L 512.503115 112.084535 
L 512.756878 229.752999 
L 513.010642 185.653443 
L 513.264405 234.972716 
L 513.518168 232.744126 
L 513.771931 290.715482 
L 514.025695 139.93439 
L 514.279458 103.873874 
L 514.533221 115.090119 
L 514.786984 199.272059 
L 515.040748 196.087674 
L 515.294511 225.424598 
L 515.548274 150.151413 
L 515.802037 142.325155 
L 516.309564 77.123845 
L 516.563327 104.083086 
L 516.81709 145.084587 
L 517.070854 163.795443 
L 517.324617 160.049576 
L 517.57838 133.880234 
L 517.832143 85.519697 
L 518.085907 88.320427 
L 518.33967 127.991065 
L 518.593433 144.645194 
L 518.847196 174.188311 
L 519.10096 230.003147 
L 519.354723 188.033522 
L 519.608486 182.582579 
L 519.862249 110.6547 
L 520.116013 97.704003 
L 520.623539 298.287853 
L 521.131066 206.115872 
L 521.384829 218.073685 
L 521.638592 175.771942 
L 521.892355 97.920588 
L 522.146119 110.962512 
L 522.399882 280.681532 
L 522.653645 126.324744 
L 522.907408 212.602703 
L 523.161171 191.950269 
L 523.414935 188.093243 
L 523.668698 296.491201 
L 523.922461 283.34429 
L 524.429988 123.842706 
L 524.937514 354.185273 
L 525.445041 275.163723 
L 525.698804 268.859116 
L 525.952567 300.35105 
L 526.20633 369.36 
L 526.460094 286.735539 
L 526.713857 158.576174 
L 526.96762 169.987492 
L 527.475147 337.518549 
L 527.72891 210.28709 
L 527.982673 150.355986 
L 528.236436 243.983929 
L 528.4902 153.487225 
L 528.743963 231.335738 
L 528.997726 125.136781 
L 529.251489 98.420805 
L 529.505253 138.298401 
L 529.759016 257.998635 
L 530.012779 195.688613 
L 530.266542 263.715251 
L 530.520306 257.145328 
L 530.774069 237.714815 
L 531.027832 93.842751 
L 531.281595 108.041375 
L 531.789122 193.574966 
L 532.042885 213.329091 
L 532.296648 199.28763 
L 532.550412 147.09185 
L 532.804175 140.134023 
L 533.311701 66.96 
L 533.819228 153.810571 
L 534.072991 165.044477 
L 534.326754 153.810571 
L 534.580518 120.208569 
L 534.834281 66.96 
L 535.341807 140.134023 
L 535.595571 147.09185 
L 535.849334 199.28763 
L 536.103097 213.329091 
L 536.35686 193.574966 
L 536.864387 108.041375 
L 537.11815 93.842751 
L 537.371913 237.714815 
L 537.625676 257.145328 
L 537.87944 263.715251 
L 538.133203 195.688613 
L 538.386966 257.998635 
L 538.640729 138.298401 
L 538.894493 98.420805 
L 539.148256 125.136781 
L 539.402019 231.335738 
L 539.655782 153.487225 
L 539.909546 243.983929 
L 540.163309 150.355986 
L 540.417072 210.28709 
L 540.670835 337.518549 
L 541.178362 169.987492 
L 541.432125 158.576174 
L 541.939652 369.36 
L 542.193415 300.35105 
L 542.447178 268.859116 
L 542.700941 275.163723 
L 543.208468 354.185273 
L 543.715994 123.842706 
L 544.223521 283.34429 
L 544.477284 296.491201 
L 544.731047 188.093243 
L 544.984811 191.950269 
L 545.238574 212.602703 
L 545.492337 126.324744 
L 545.7461 280.681532 
L 545.999864 110.962512 
L 546.253627 97.920588 
L 546.50739 175.771942 
L 546.761153 218.073685 
L 547.014917 206.115872 
L 547.522443 298.287853 
L 548.02997 97.704003 
L 548.283733 110.6547 
L 548.537496 182.582579 
L 548.791259 188.033522 
L 549.045023 230.003147 
L 549.298786 174.188311 
L 550.060075 88.320427 
L 550.313839 85.519697 
L 550.567602 133.880234 
L 550.821365 160.049576 
L 551.075128 163.795443 
L 551.328892 145.084587 
L 551.836418 77.123845 
L 552.343945 142.325155 
L 552.597708 150.151413 
L 552.851471 225.424598 
L 553.105234 196.087674 
L 553.358998 199.272059 
L 553.612761 115.090119 
L 553.866524 103.873874 
L 554.120287 139.93439 
L 554.374051 290.715482 
L 554.627814 232.744126 
L 554.881577 234.972716 
L 555.13534 185.653443 
L 555.389104 229.752999 
L 555.642867 112.084535 
L 555.89663 101.436498 
L 556.150393 203.349012 
L 556.404157 153.119623 
L 556.65792 180.589472 
L 556.911683 234.570737 
L 557.165446 165.234786 
L 557.672973 316.520374 
L 558.180499 146.203751 
L 558.434263 204.841234 
L 558.688026 322.283964 
L 558.941789 342.219465 
L 559.195552 285.664489 
L 559.449316 266.756889 
L 559.703079 285.664489 
L 559.956842 342.219465 
L 560.210605 322.283964 
L 560.464369 204.841234 
L 560.718132 146.203751 
L 561.225658 316.520374 
L 561.733185 165.234786 
L 561.986948 234.570737 
L 562.240711 180.589472 
L 562.494475 153.119623 
L 562.748238 203.349012 
L 563.002001 101.436498 
L 563.255764 112.084535 
L 563.509527 229.752999 
L 563.763291 185.653443 
L 564.017054 234.972716 
L 564.270817 232.744126 
L 564.52458 290.715482 
L 564.778344 139.93439 
L 565.032107 103.873874 
L 565.28587 115.090119 
L 565.539633 199.272059 
L 565.793397 196.087674 
L 566.04716 225.424598 
L 566.300923 150.151413 
L 566.554686 142.325155 
L 567.062213 77.123845 
L 567.315976 104.083086 
L 567.569739 145.084587 
L 567.823503 163.795443 
L 568.077266 160.049576 
L 568.331029 133.880234 
L 568.584792 85.519697 
L 568.838556 88.320427 
L 569.092319 127.991065 
L 569.346082 144.645194 
L 569.599845 174.188311 
L 569.853609 230.003147 
L 570.107372 188.033522 
L 570.361135 182.582579 
L 570.614898 110.6547 
L 570.868662 97.704003 
L 571.376188 298.287853 
L 571.883715 206.115872 
L 572.137478 218.073685 
L 572.391241 175.771942 
L 572.645004 97.920588 
L 572.898768 110.962512 
L 573.152531 280.681532 
L 573.406294 126.324744 
L 573.660057 212.602703 
L 573.913821 191.950269 
L 574.167584 188.093243 
L 574.421347 296.491201 
L 574.67511 283.34429 
L 575.182637 123.842706 
L 575.690163 354.185273 
L 576.19769 275.163723 
L 576.451453 268.859116 
L 576.705216 300.35105 
L 576.958979 369.36 
L 577.212743 286.735539 
L 577.466506 158.576174 
L 577.720269 169.987492 
L 578.227796 337.518549 
L 578.481559 210.28709 
L 578.735322 150.355986 
L 578.989085 243.983929 
L 579.242849 153.487225 
L 579.496612 231.335738 
L 579.750375 125.136781 
L 580.004138 98.420805 
L 580.257902 138.298401 
L 580.511665 257.998635 
L 580.765428 195.688613 
L 581.019191 263.715251 
L 581.272955 257.145328 
L 581.526718 237.714815 
L 581.780481 93.842751 
L 582.034244 108.041375 
L 582.541771 193.574966 
L 582.795534 213.329091 
L 583.049297 199.28763 
L 583.303061 147.09185 
L 583.556824 140.134023 
L 584.06435 66.96 
L 584.571877 153.810571 
L 584.82564 165.044477 
L 585.079403 153.810571 
L 585.333167 120.208569 
L 585.58693 66.96 
L 586.094456 140.134023 
L 586.34822 147.09185 
L 586.601983 199.28763 
L 586.855746 213.329091 
L 587.109509 193.574966 
L 587.617036 108.041375 
L 587.870799 93.842751 
L 588.124562 237.714815 
L 588.378326 257.145328 
L 588.632089 263.715251 
L 588.885852 195.688613 
L 589.139615 257.998635 
L 589.393379 138.298401 
L 589.647142 98.420805 
L 589.900905 125.136781 
L 590.154668 231.335738 
L 590.408431 153.487225 
L 590.662195 243.983929 
L 590.915958 150.355986 
L 591.169721 210.28709 
L 591.423484 337.518549 
L 591.931011 169.987492 
L 592.184774 158.576174 
L 592.692301 369.36 
L 592.946064 300.35105 
L 593.199827 268.859116 
L 593.45359 275.163723 
L 593.961117 354.185273 
L 594.468643 123.842706 
L 594.97617 283.34429 
L 595.229933 296.491201 
L 595.483696 188.093243 
L 595.73746 191.950269 
L 595.991223 212.602703 
L 596.244986 126.324744 
L 596.498749 280.681532 
L 596.752513 110.962512 
L 597.006276 97.920588 
L 597.260039 175.771942 
L 597.513802 218.073685 
L 597.767566 206.115872 
L 598.275092 298.287853 
L 598.782619 97.704003 
L 599.036382 110.6547 
L 599.290145 182.582579 
L 599.543908 188.033522 
L 599.797672 230.003147 
L 600.051435 174.188311 
L 600.812725 88.320427 
L 601.066488 85.519697 
L 601.320251 133.880234 
L 601.574014 160.049576 
L 601.827778 163.795443 
L 602.081541 145.084587 
L 602.589067 77.123845 
L 603.096594 142.325155 
L 603.350357 150.151413 
L 603.60412 225.424598 
L 603.857883 196.087674 
L 604.111647 199.272059 
L 604.36541 115.090119 
L 604.619173 103.873874 
L 604.872936 139.93439 
L 605.1267 290.715482 
L 605.380463 232.744126 
L 605.634226 234.972716 
L 605.887989 185.653443 
L 606.141753 229.752999 
L 606.395516 112.084535 
L 606.649279 101.436498 
L 606.903042 203.349012 
L 607.156806 153.119623 
L 607.410569 180.589472 
L 607.664332 234.570737 
L 607.918095 165.234786 
L 608.425622 316.520374 
L 608.933148 146.203751 
L 609.186912 204.841234 
L 609.440675 322.283964 
L 609.694438 342.219465 
L 609.948201 285.664489 
L 610.201965 266.756889 
L 610.455728 285.664489 
L 610.709491 342.219465 
L 610.963254 322.283964 
L 611.217018 204.841234 
L 611.470781 146.203751 
L 611.978307 316.520374 
L 612.485834 165.234786 
L 612.739597 234.570737 
L 612.99336 180.589472 
L 613.247124 153.119623 
L 613.500887 203.349012 
L 613.75465 101.436498 
L 614.008413 112.084535 
L 614.262177 229.752999 
L 614.51594 185.653443 
L 614.769703 234.972716 
L 615.023466 232.744126 
L 615.27723 290.715482 
L 615.530993 139.93439 
L 615.784756 103.873874 
L 616.038519 115.090119 
L 616.292283 199.272059 
L 616.546046 196.087674 
L 616.799809 225.424598 
L 617.053572 150.151413 
L 617.307335 142.325155 
L 617.814862 77.123845 
L 618.068625 104.083086 
L 618.322388 145.084587 
L 618.576152 163.795443 
L 618.829915 160.049576 
L 619.083678 133.880234 
L 619.337441 85.519697 
L 619.591205 88.320427 
L 619.844968 127.991065 
L 620.098731 144.645194 
L 620.352494 174.188311 
L 620.606258 230.003147 
L 620.860021 188.033522 
L 621.113784 182.582579 
L 621.367547 110.6547 
L 621.621311 97.704003 
L 622.128837 298.287853 
L 622.636364 206.115872 
L 622.636364 206.115872 
" clip-path="url(#pff19067fc8)" style="fill: none; stroke: #d62728; stroke-width: 1.5; stroke-linecap: square"/>
   </g>
   <g id="patch_3">
    <path d="M 90 384.48 
L 90 51.84 
" style="fill: none; stroke: #000000; stroke-width: 0.8; stroke-linejoin: miter; stroke-linecap: square"/>
   </g>
   <g id="patch_4">
    <path d="M 648 384.48 
L 648 51.84 
" style="fill: none; stroke: #000000; stroke-width: 0.8; stroke-linejoin: miter; stroke-linecap: square"/>
   </g>
   <g id="patch_5">
    <path d="M 90 384.48 
L 648 384.48 
" style="fill: none; stroke: #000000; stroke-width: 0.8; stroke-linejoin: miter; stroke-linecap: square"/>
   </g>
   <g id="patch_6">
    <path d="M 90 51.84 
L 648 51.84 
" style="fill: none; stroke: #000000; stroke-width: 0.8; stroke-linejoin: miter; stroke-linecap: square"/>
   </g>
   <g id="text_16">
    <!-- Simulated Output Power -->
    <g transform="translate(295.888125 45.84) scale(0.12 -0.12)">
     <defs>
      <path id="DejaVuSans-53" d="M 3425 4513 
L 3425 3897 
Q 3066 4069 2747 4153 
Q 2428 4238 2131 4238 
Q 1616 4238 1336 4038 
Q 1056 3838 1056 3469 
Q 1056 3159 1242 3001 
Q 1428 2844 1947 2747 
L 2328 2669 
Q 3034 2534 3370 2195 
Q 3706 1856 3706 1288 
Q 3706 609 3251 259 
Q 2797 -91 1919 -91 
Q 1588 -91 1214 -16 
Q 841 59 441 206 
L 441 856 
Q 825 641 1194 531 
Q 1563 422 1919 422 
Q 2459 422 2753 634 
Q 3047 847 3047 1241 
Q 3047 1584 2836 1778 
Q 2625 1972 2144 2069 
L 1759 2144 
Q 1053 2284 737 2584 
Q 422 2884 422 3419 
Q 422 4038 858 4394 
Q 1294 4750 2059 4750 
Q 2388 4750 2728 4690 
Q 3069 4631 3425 4513 
z
" transform="scale(0.015625)"/>
      <path id="DejaVuSans-6c" d="M 603 4863 
L 1178 4863 
L 1178 0 
L 603 0 
L 603 4863 
z
" transform="scale(0.015625)"/>
      <path id="DejaVuSans-64" d="M 2906 2969 
L 2906 4863 
L 3481 4863 
L 3481 0 
L 2906 0 
L 2906 525 
Q 2725 213 2448 61 
Q 2172 -91 1784 -91 
Q 1150 -91 751 415 
Q 353 922 353 1747 
Q 353 2572 751 3078 
Q 1150 3584 1784 3584 
Q 2172 3584 2448 3432 
Q 2725 3281 2906 2969 
z
M 947 1747 
Q 947 1113 1208 752 
Q 1469 391 1925 391 
Q 2381 391 2643 752 
Q 2906 1113 2906 1747 
Q 2906 2381 2643 2742 
Q 2381 3103 1925 3103 
Q 1469 3103 1208 2742 
Q 947 2381 947 1747 
z
" transform="scale(0.015625)"/>
      <path id="DejaVuSans-4f" d="M 2522 4238 
Q 1834 4238 1429 3725 
Q 1025 3213 1025 2328 
Q 1025 1447 1429 934 
Q 1834 422 2522 422 
Q 3209 422 3611 934 
Q 4013 1447 4013 2328 
Q 4013 3213 3611 3725 
Q 3209 4238 2522 4238 
z
M 2522 4750 
Q 3503 4750 4090 4092 
Q 4678 3434 4678 2328 
Q 4678 1225 4090 567 
Q 3503 -91 2522 -91 
Q 1538 -91 948 565 
Q 359 1222 359 2328 
Q 359 3434 948 4092 
Q 1538 4750 2522 4750 
z
" transform="scale(0.015625)"/>
      <path id="DejaVuSans-70" d="M 1159 525 
L 1159 -1331 
L 581 -1331 
L 581 3500 
L 1159 3500 
L 1159 2969 
Q 1341 3281 1617 3432 
Q 1894 3584 2278 3584 
Q 2916 3584 3314 3078 
Q 3713 2572 3713 1747 
Q 3713 922 3314 415 
Q 2916 -91 2278 -91 
Q 1894 -91 1617 61 
Q 1341 213 1159 525 
z
M 3116 1747 
Q 3116 2381 2855 2742 
Q 2594 3103 2138 3103 
Q 1681 3103 1420 2742 
Q 1159 2381 1159 1747 
Q 1159 1113 1420 752 
Q 1681 391 2138 391 
Q 2594 391 2855 752 
Q 3116 1113 3116 1747 
z
" transform="scale(0.015625)"/>
     </defs>
     <use xlink:href="#DejaVuSans-53"/>
     <use xlink:href="#DejaVuSans-69" x="63.476562"/>
     <use xlink:href="#DejaVuSans-6d" x="91.259766"/>
     <use xlink:href="#DejaVuSans-75" x="188.671875"/>
     <use xlink:href="#DejaVuSans-6c" x="252.050781"/>
     <use xlink:href="#DejaVuSans-61" x="279.833984"/>
     <use xlink:href="#DejaVuSans-74" x="341.113281"/>
     <use xlink:href="#DejaVuSans-65" x="380.322266"/>
     <use xlink:href="#DejaVuSans-64" x="441.845703"/>
     <use xlink:href="#DejaVuSans-20" x="505.322266"/>
     <use xlink:href="#DejaVuSans-4f" x="537.109375"/>
     <use xlink:href="#DejaVuSans-75" x="615.820312"/>
     <use xlink:href="#DejaVuSans-74" x="679.199219"/>
     <use xlink:href="#DejaVuSans-70" x="718.408203"/>
     <use xlink:href="#DejaVuSans-75" x="781.884766"/>
     <use xlink:href="#DejaVuSans-74" x="845.263672"/>
     <use xlink:href="#DejaVuSans-20" x="884.472656"/>
     <use xlink:href="#DejaVuSans-50" x="916.259766"/>
     <use xlink:href="#DejaVuSans-6f" x="972.9375"/>
     <use xlink:href="#DejaVuSans-77" x="1034.119141"/>
     <use xlink:href="#DejaVuSans-65" x="1115.90625"/>
     <use xlink:href="#DejaVuSans-72" x="1177.429688"/>
    </g>
   </g>
  </g>
 </g>
 <defs>
  <clipPath id="pff19067fc8">
   <rect x="90" y="51.84" width="558" height="332.64"/>
  </clipPath>
 </defs>
</svg>
