<?xml version="1.0" encoding="utf-8" standalone="no"?>
<!DOCTYPE svg PUBLIC "-//W3C//DTD SVG 1.1//EN"
  "http://www.w3.org/Graphics/SVG/1.1/DTD/svg11.dtd">
<svg xmlns:xlink="http://www.w3.org/1999/xlink" width="720pt" height="432pt" viewBox="0 0 720 432" xmlns="http://www.w3.org/2000/svg" version="1.1">
 <metadata>
  <rdf:RDF xmlns:dc="http://purl.org/dc/elements/1.1/" xmlns:cc="http://creativecommons.org/ns#" xmlns:rdf="http://www.w3.org/1999/02/22-rdf-syntax-ns#">
   <cc:Work>
    <dc:type rdf:resource="http://purl.org/dc/dcmitype/StillImage"/>
    <dc:date>2025-08-08T15:33:53.436886</dc:date>
    <dc:format>image/svg+xml</dc:format>
    <dc:creator>
     <cc:Agent>
      <dc:title>Matplotlib v3.7.5, https://matplotlib.org/</dc:title>
     </cc:Agent>
    </dc:creator>
   </cc:Work>
  </rdf:RDF>
 </metadata>
 <defs>
  <style type="text/css">*{stroke-linejoin: round; stroke-linecap: butt}</style>
 </defs>
 <g id="figure_1">
  <g id="patch_1">
   <path d="M 0 432 
L 720 432 
L 720 0 
L 0 0 
z
" style="fill: #ffffff"/>
  </g>
  <g id="axes_1">
   <g id="patch_2">
    <path d="M 90 384.48 
L 648 384.48 
L 648 51.84 
L 90 51.84 
z
" style="fill: #ffffff"/>
   </g>
   <g id="matplotlib.axis_1">
    <g id="xtick_1">
     <g id="line2d_1">
      <path d="M 115.363636 384.48 
L 115.363636 51.84 
" clip-path="url(#pb034391d6f)" style="fill: none; stroke: #b0b0b0; stroke-width: 0.8; stroke-linecap: square"/>
     </g>
     <g id="line2d_2">
      <defs>
       <path id="m0efe79da4a" d="M 0 0 
L 0 3.5 
" style="stroke: #000000; stroke-width: 0.8"/>
      </defs>
      <g>
       <use xlink:href="#m0efe79da4a" x="115.363636" y="384.48" style="stroke: #000000; stroke-width: 0.8"/>
      </g>
     </g>
     <g id="text_1">
      <!-- 0 -->
      <g transform="translate(112.182386 399.078438) scale(0.1 -0.1)">
       <defs>
        <path id="DejaVuSans-30" d="M 2034 4250 
Q 1547 4250 1301 3770 
Q 1056 3291 1056 2328 
Q 1056 1369 1301 889 
Q 1547 409 2034 409 
Q 2525 409 2770 889 
Q 3016 1369 3016 2328 
Q 3016 3291 2770 3770 
Q 2525 4250 2034 4250 
z
M 2034 4750 
Q 2819 4750 3233 4129 
Q 3647 3509 3647 2328 
Q 3647 1150 3233 529 
Q 2819 -91 2034 -91 
Q 1250 -91 836 529 
Q 422 1150 422 2328 
Q 422 3509 836 4129 
Q 1250 4750 2034 4750 
z
" transform="scale(0.015625)"/>
       </defs>
       <use xlink:href="#DejaVuSans-30"/>
      </g>
     </g>
    </g>
    <g id="xtick_2">
     <g id="line2d_3">
      <path d="M 216.818182 384.48 
L 216.818182 51.84 
" clip-path="url(#pb034391d6f)" style="fill: none; stroke: #b0b0b0; stroke-width: 0.8; stroke-linecap: square"/>
     </g>
     <g id="line2d_4">
      <g>
       <use xlink:href="#m0efe79da4a" x="216.818182" y="384.48" style="stroke: #000000; stroke-width: 0.8"/>
      </g>
     </g>
     <g id="text_2">
      <!-- 200 -->
      <g transform="translate(207.274432 399.078438) scale(0.1 -0.1)">
       <defs>
        <path id="DejaVuSans-32" d="M 1228 531 
L 3431 531 
L 3431 0 
L 469 0 
L 469 531 
Q 828 903 1448 1529 
Q 2069 2156 2228 2338 
Q 2531 2678 2651 2914 
Q 2772 3150 2772 3378 
Q 2772 3750 2511 3984 
Q 2250 4219 1831 4219 
Q 1534 4219 1204 4116 
Q 875 4013 500 3803 
L 500 4441 
Q 881 4594 1212 4672 
Q 1544 4750 1819 4750 
Q 2544 4750 2975 4387 
Q 3406 4025 3406 3419 
Q 3406 3131 3298 2873 
Q 3191 2616 2906 2266 
Q 2828 2175 2409 1742 
Q 1991 1309 1228 531 
z
" transform="scale(0.015625)"/>
       </defs>
       <use xlink:href="#DejaVuSans-32"/>
       <use xlink:href="#DejaVuSans-30" x="63.623047"/>
       <use xlink:href="#DejaVuSans-30" x="127.246094"/>
      </g>
     </g>
    </g>
    <g id="xtick_3">
     <g id="line2d_5">
      <path d="M 318.272727 384.48 
L 318.272727 51.84 
" clip-path="url(#pb034391d6f)" style="fill: none; stroke: #b0b0b0; stroke-width: 0.8; stroke-linecap: square"/>
     </g>
     <g id="line2d_6">
      <g>
       <use xlink:href="#m0efe79da4a" x="318.272727" y="384.48" style="stroke: #000000; stroke-width: 0.8"/>
      </g>
     </g>
     <g id="text_3">
      <!-- 400 -->
      <g transform="translate(308.728977 399.078438) scale(0.1 -0.1)">
       <defs>
        <path id="DejaVuSans-34" d="M 2419 4116 
L 825 1625 
L 2419 1625 
L 2419 4116 
z
M 2253 4666 
L 3047 4666 
L 3047 1625 
L 3713 1625 
L 3713 1100 
L 3047 1100 
L 3047 0 
L 2419 0 
L 2419 1100 
L 313 1100 
L 313 1709 
L 2253 4666 
z
" transform="scale(0.015625)"/>
       </defs>
       <use xlink:href="#DejaVuSans-34"/>
       <use xlink:href="#DejaVuSans-30" x="63.623047"/>
       <use xlink:href="#DejaVuSans-30" x="127.246094"/>
      </g>
     </g>
    </g>
    <g id="xtick_4">
     <g id="line2d_7">
      <path d="M 419.727273 384.48 
L 419.727273 51.84 
" clip-path="url(#pb034391d6f)" style="fill: none; stroke: #b0b0b0; stroke-width: 0.8; stroke-linecap: square"/>
     </g>
     <g id="line2d_8">
      <g>
       <use xlink:href="#m0efe79da4a" x="419.727273" y="384.48" style="stroke: #000000; stroke-width: 0.8"/>
      </g>
     </g>
     <g id="text_4">
      <!-- 600 -->
      <g transform="translate(410.183523 399.078438) scale(0.1 -0.1)">
       <defs>
        <path id="DejaVuSans-36" d="M 2113 2584 
Q 1688 2584 1439 2293 
Q 1191 2003 1191 1497 
Q 1191 994 1439 701 
Q 1688 409 2113 409 
Q 2538 409 2786 701 
Q 3034 994 3034 1497 
Q 3034 2003 2786 2293 
Q 2538 2584 2113 2584 
z
M 3366 4563 
L 3366 3988 
Q 3128 4100 2886 4159 
Q 2644 4219 2406 4219 
Q 1781 4219 1451 3797 
Q 1122 3375 1075 2522 
Q 1259 2794 1537 2939 
Q 1816 3084 2150 3084 
Q 2853 3084 3261 2657 
Q 3669 2231 3669 1497 
Q 3669 778 3244 343 
Q 2819 -91 2113 -91 
Q 1303 -91 875 529 
Q 447 1150 447 2328 
Q 447 3434 972 4092 
Q 1497 4750 2381 4750 
Q 2619 4750 2861 4703 
Q 3103 4656 3366 4563 
z
" transform="scale(0.015625)"/>
       </defs>
       <use xlink:href="#DejaVuSans-36"/>
       <use xlink:href="#DejaVuSans-30" x="63.623047"/>
       <use xlink:href="#DejaVuSans-30" x="127.246094"/>
      </g>
     </g>
    </g>
    <g id="xtick_5">
     <g id="line2d_9">
      <path d="M 521.181818 384.48 
L 521.181818 51.84 
" clip-path="url(#pb034391d6f)" style="fill: none; stroke: #b0b0b0; stroke-width: 0.8; stroke-linecap: square"/>
     </g>
     <g id="line2d_10">
      <g>
       <use xlink:href="#m0efe79da4a" x="521.181818" y="384.48" style="stroke: #000000; stroke-width: 0.8"/>
      </g>
     </g>
     <g id="text_5">
      <!-- 800 -->
      <g transform="translate(511.638068 399.078438) scale(0.1 -0.1)">
       <defs>
        <path id="DejaVuSans-38" d="M 2034 2216 
Q 1584 2216 1326 1975 
Q 1069 1734 1069 1313 
Q 1069 891 1326 650 
Q 1584 409 2034 409 
Q 2484 409 2743 651 
Q 3003 894 3003 1313 
Q 3003 1734 2745 1975 
Q 2488 2216 2034 2216 
z
M 1403 2484 
Q 997 2584 770 2862 
Q 544 3141 544 3541 
Q 544 4100 942 4425 
Q 1341 4750 2034 4750 
Q 2731 4750 3128 4425 
Q 3525 4100 3525 3541 
Q 3525 3141 3298 2862 
Q 3072 2584 2669 2484 
Q 3125 2378 3379 2068 
Q 3634 1759 3634 1313 
Q 3634 634 3220 271 
Q 2806 -91 2034 -91 
Q 1263 -91 848 271 
Q 434 634 434 1313 
Q 434 1759 690 2068 
Q 947 2378 1403 2484 
z
M 1172 3481 
Q 1172 3119 1398 2916 
Q 1625 2713 2034 2713 
Q 2441 2713 2670 2916 
Q 2900 3119 2900 3481 
Q 2900 3844 2670 4047 
Q 2441 4250 2034 4250 
Q 1625 4250 1398 4047 
Q 1172 3844 1172 3481 
z
" transform="scale(0.015625)"/>
       </defs>
       <use xlink:href="#DejaVuSans-38"/>
       <use xlink:href="#DejaVuSans-30" x="63.623047"/>
       <use xlink:href="#DejaVuSans-30" x="127.246094"/>
      </g>
     </g>
    </g>
    <g id="xtick_6">
     <g id="line2d_11">
      <path d="M 622.636364 384.48 
L 622.636364 51.84 
" clip-path="url(#pb034391d6f)" style="fill: none; stroke: #b0b0b0; stroke-width: 0.8; stroke-linecap: square"/>
     </g>
     <g id="line2d_12">
      <g>
       <use xlink:href="#m0efe79da4a" x="622.636364" y="384.48" style="stroke: #000000; stroke-width: 0.8"/>
      </g>
     </g>
     <g id="text_6">
      <!-- 1000 -->
      <g transform="translate(609.911364 399.078438) scale(0.1 -0.1)">
       <defs>
        <path id="DejaVuSans-31" d="M 794 531 
L 1825 531 
L 1825 4091 
L 703 3866 
L 703 4441 
L 1819 4666 
L 2450 4666 
L 2450 531 
L 3481 531 
L 3481 0 
L 794 0 
L 794 531 
z
" transform="scale(0.015625)"/>
       </defs>
       <use xlink:href="#DejaVuSans-31"/>
       <use xlink:href="#DejaVuSans-30" x="63.623047"/>
       <use xlink:href="#DejaVuSans-30" x="127.246094"/>
       <use xlink:href="#DejaVuSans-30" x="190.869141"/>
      </g>
     </g>
    </g>
    <g id="text_7">
     <!-- Mirror Displacement (µm) -->
     <g transform="translate(304.767187 412.756563) scale(0.1 -0.1)">
      <defs>
       <path id="DejaVuSans-4d" d="M 628 4666 
L 1569 4666 
L 2759 1491 
L 3956 4666 
L 4897 4666 
L 4897 0 
L 4281 0 
L 4281 4097 
L 3078 897 
L 2444 897 
L 1241 4097 
L 1241 0 
L 628 0 
L 628 4666 
z
" transform="scale(0.015625)"/>
       <path id="DejaVuSans-69" d="M 603 3500 
L 1178 3500 
L 1178 0 
L 603 0 
L 603 3500 
z
M 603 4863 
L 1178 4863 
L 1178 4134 
L 603 4134 
L 603 4863 
z
" transform="scale(0.015625)"/>
       <path id="DejaVuSans-72" d="M 2631 2963 
Q 2534 3019 2420 3045 
Q 2306 3072 2169 3072 
Q 1681 3072 1420 2755 
Q 1159 2438 1159 1844 
L 1159 0 
L 581 0 
L 581 3500 
L 1159 3500 
L 1159 2956 
Q 1341 3275 1631 3429 
Q 1922 3584 2338 3584 
Q 2397 3584 2469 3576 
Q 2541 3569 2628 3553 
L 2631 2963 
z
" transform="scale(0.015625)"/>
       <path id="DejaVuSans-6f" d="M 1959 3097 
Q 1497 3097 1228 2736 
Q 959 2375 959 1747 
Q 959 1119 1226 758 
Q 1494 397 1959 397 
Q 2419 397 2687 759 
Q 2956 1122 2956 1747 
Q 2956 2369 2687 2733 
Q 2419 3097 1959 3097 
z
M 1959 3584 
Q 2709 3584 3137 3096 
Q 3566 2609 3566 1747 
Q 3566 888 3137 398 
Q 2709 -91 1959 -91 
Q 1206 -91 779 398 
Q 353 888 353 1747 
Q 353 2609 779 3096 
Q 1206 3584 1959 3584 
z
" transform="scale(0.015625)"/>
       <path id="DejaVuSans-20" transform="scale(0.015625)"/>
       <path id="DejaVuSans-44" d="M 1259 4147 
L 1259 519 
L 2022 519 
Q 2988 519 3436 956 
Q 3884 1394 3884 2338 
Q 3884 3275 3436 3711 
Q 2988 4147 2022 4147 
L 1259 4147 
z
M 628 4666 
L 1925 4666 
Q 3281 4666 3915 4102 
Q 4550 3538 4550 2338 
Q 4550 1131 3912 565 
Q 3275 0 1925 0 
L 628 0 
L 628 4666 
z
" transform="scale(0.015625)"/>
       <path id="DejaVuSans-73" d="M 2834 3397 
L 2834 2853 
Q 2591 2978 2328 3040 
Q 2066 3103 1784 3103 
Q 1356 3103 1142 2972 
Q 928 2841 928 2578 
Q 928 2378 1081 2264 
Q 1234 2150 1697 2047 
L 1894 2003 
Q 2506 1872 2764 1633 
Q 3022 1394 3022 966 
Q 3022 478 2636 193 
Q 2250 -91 1575 -91 
Q 1294 -91 989 -36 
Q 684 19 347 128 
L 347 722 
Q 666 556 975 473 
Q 1284 391 1588 391 
Q 1994 391 2212 530 
Q 2431 669 2431 922 
Q 2431 1156 2273 1281 
Q 2116 1406 1581 1522 
L 1381 1569 
Q 847 1681 609 1914 
Q 372 2147 372 2553 
Q 372 3047 722 3315 
Q 1072 3584 1716 3584 
Q 2034 3584 2315 3537 
Q 2597 3491 2834 3397 
z
" transform="scale(0.015625)"/>
       <path id="DejaVuSans-70" d="M 1159 525 
L 1159 -1331 
L 581 -1331 
L 581 3500 
L 1159 3500 
L 1159 2969 
Q 1341 3281 1617 3432 
Q 1894 3584 2278 3584 
Q 2916 3584 3314 3078 
Q 3713 2572 3713 1747 
Q 3713 922 3314 415 
Q 2916 -91 2278 -91 
Q 1894 -91 1617 61 
Q 1341 213 1159 525 
z
M 3116 1747 
Q 3116 2381 2855 2742 
Q 2594 3103 2138 3103 
Q 1681 3103 1420 2742 
Q 1159 2381 1159 1747 
Q 1159 1113 1420 752 
Q 1681 391 2138 391 
Q 2594 391 2855 752 
Q 3116 1113 3116 1747 
z
" transform="scale(0.015625)"/>
       <path id="DejaVuSans-6c" d="M 603 4863 
L 1178 4863 
L 1178 0 
L 603 0 
L 603 4863 
z
" transform="scale(0.015625)"/>
       <path id="DejaVuSans-61" d="M 2194 1759 
Q 1497 1759 1228 1600 
Q 959 1441 959 1056 
Q 959 750 1161 570 
Q 1363 391 1709 391 
Q 2188 391 2477 730 
Q 2766 1069 2766 1631 
L 2766 1759 
L 2194 1759 
z
M 3341 1997 
L 3341 0 
L 2766 0 
L 2766 531 
Q 2569 213 2275 61 
Q 1981 -91 1556 -91 
Q 1019 -91 701 211 
Q 384 513 384 1019 
Q 384 1609 779 1909 
Q 1175 2209 1959 2209 
L 2766 2209 
L 2766 2266 
Q 2766 2663 2505 2880 
Q 2244 3097 1772 3097 
Q 1472 3097 1187 3025 
Q 903 2953 641 2809 
L 641 3341 
Q 956 3463 1253 3523 
Q 1550 3584 1831 3584 
Q 2591 3584 2966 3190 
Q 3341 2797 3341 1997 
z
" transform="scale(0.015625)"/>
       <path id="DejaVuSans-63" d="M 3122 3366 
L 3122 2828 
Q 2878 2963 2633 3030 
Q 2388 3097 2138 3097 
Q 1578 3097 1268 2742 
Q 959 2388 959 1747 
Q 959 1106 1268 751 
Q 1578 397 2138 397 
Q 2388 397 2633 464 
Q 2878 531 3122 666 
L 3122 134 
Q 2881 22 2623 -34 
Q 2366 -91 2075 -91 
Q 1284 -91 818 406 
Q 353 903 353 1747 
Q 353 2603 823 3093 
Q 1294 3584 2113 3584 
Q 2378 3584 2631 3529 
Q 2884 3475 3122 3366 
z
" transform="scale(0.015625)"/>
       <path id="DejaVuSans-65" d="M 3597 1894 
L 3597 1613 
L 953 1613 
Q 991 1019 1311 708 
Q 1631 397 2203 397 
Q 2534 397 2845 478 
Q 3156 559 3463 722 
L 3463 178 
Q 3153 47 2828 -22 
Q 2503 -91 2169 -91 
Q 1331 -91 842 396 
Q 353 884 353 1716 
Q 353 2575 817 3079 
Q 1281 3584 2069 3584 
Q 2775 3584 3186 3129 
Q 3597 2675 3597 1894 
z
M 3022 2063 
Q 3016 2534 2758 2815 
Q 2500 3097 2075 3097 
Q 1594 3097 1305 2825 
Q 1016 2553 972 2059 
L 3022 2063 
z
" transform="scale(0.015625)"/>
       <path id="DejaVuSans-6d" d="M 3328 2828 
Q 3544 3216 3844 3400 
Q 4144 3584 4550 3584 
Q 5097 3584 5394 3201 
Q 5691 2819 5691 2113 
L 5691 0 
L 5113 0 
L 5113 2094 
Q 5113 2597 4934 2840 
Q 4756 3084 4391 3084 
Q 3944 3084 3684 2787 
Q 3425 2491 3425 1978 
L 3425 0 
L 2847 0 
L 2847 2094 
Q 2847 2600 2669 2842 
Q 2491 3084 2119 3084 
Q 1678 3084 1418 2786 
Q 1159 2488 1159 1978 
L 1159 0 
L 581 0 
L 581 3500 
L 1159 3500 
L 1159 2956 
Q 1356 3278 1631 3431 
Q 1906 3584 2284 3584 
Q 2666 3584 2933 3390 
Q 3200 3197 3328 2828 
z
" transform="scale(0.015625)"/>
       <path id="DejaVuSans-6e" d="M 3513 2113 
L 3513 0 
L 2938 0 
L 2938 2094 
Q 2938 2591 2744 2837 
Q 2550 3084 2163 3084 
Q 1697 3084 1428 2787 
Q 1159 2491 1159 1978 
L 1159 0 
L 581 0 
L 581 3500 
L 1159 3500 
L 1159 2956 
Q 1366 3272 1645 3428 
Q 1925 3584 2291 3584 
Q 2894 3584 3203 3211 
Q 3513 2838 3513 2113 
z
" transform="scale(0.015625)"/>
       <path id="DejaVuSans-74" d="M 1172 4494 
L 1172 3500 
L 2356 3500 
L 2356 3053 
L 1172 3053 
L 1172 1153 
Q 1172 725 1289 603 
Q 1406 481 1766 481 
L 2356 481 
L 2356 0 
L 1766 0 
Q 1100 0 847 248 
Q 594 497 594 1153 
L 594 3053 
L 172 3053 
L 172 3500 
L 594 3500 
L 594 4494 
L 1172 4494 
z
" transform="scale(0.015625)"/>
       <path id="DejaVuSans-28" d="M 1984 4856 
Q 1566 4138 1362 3434 
Q 1159 2731 1159 2009 
Q 1159 1288 1364 580 
Q 1569 -128 1984 -844 
L 1484 -844 
Q 1016 -109 783 600 
Q 550 1309 550 2009 
Q 550 2706 781 3412 
Q 1013 4119 1484 4856 
L 1984 4856 
z
" transform="scale(0.015625)"/>
       <path id="DejaVuSans-b5" d="M 544 -1331 
L 544 3500 
L 1119 3500 
L 1119 1325 
Q 1119 872 1334 640 
Q 1550 409 1972 409 
Q 2434 409 2667 671 
Q 2900 934 2900 1459 
L 2900 3500 
L 3475 3500 
L 3475 806 
Q 3475 619 3529 530 
Q 3584 441 3700 441 
Q 3728 441 3778 458 
Q 3828 475 3916 513 
L 3916 50 
Q 3788 -22 3673 -56 
Q 3559 -91 3450 -91 
Q 3234 -91 3106 31 
Q 2978 153 2931 403 
Q 2775 156 2548 32 
Q 2322 -91 2016 -91 
Q 1697 -91 1473 31 
Q 1250 153 1119 397 
L 1119 -1331 
L 544 -1331 
z
" transform="scale(0.015625)"/>
       <path id="DejaVuSans-29" d="M 513 4856 
L 1013 4856 
Q 1481 4119 1714 3412 
Q 1947 2706 1947 2009 
Q 1947 1309 1714 600 
Q 1481 -109 1013 -844 
L 513 -844 
Q 928 -128 1133 580 
Q 1338 1288 1338 2009 
Q 1338 2731 1133 3434 
Q 928 4138 513 4856 
z
" transform="scale(0.015625)"/>
      </defs>
      <use xlink:href="#DejaVuSans-4d"/>
      <use xlink:href="#DejaVuSans-69" x="86.279297"/>
      <use xlink:href="#DejaVuSans-72" x="114.0625"/>
      <use xlink:href="#DejaVuSans-72" x="153.425781"/>
      <use xlink:href="#DejaVuSans-6f" x="192.289062"/>
      <use xlink:href="#DejaVuSans-72" x="253.470703"/>
      <use xlink:href="#DejaVuSans-20" x="294.583984"/>
      <use xlink:href="#DejaVuSans-44" x="326.371094"/>
      <use xlink:href="#DejaVuSans-69" x="403.373047"/>
      <use xlink:href="#DejaVuSans-73" x="431.15625"/>
      <use xlink:href="#DejaVuSans-70" x="483.255859"/>
      <use xlink:href="#DejaVuSans-6c" x="546.732422"/>
      <use xlink:href="#DejaVuSans-61" x="574.515625"/>
      <use xlink:href="#DejaVuSans-63" x="635.794922"/>
      <use xlink:href="#DejaVuSans-65" x="690.775391"/>
      <use xlink:href="#DejaVuSans-6d" x="752.298828"/>
      <use xlink:href="#DejaVuSans-65" x="849.710938"/>
      <use xlink:href="#DejaVuSans-6e" x="911.234375"/>
      <use xlink:href="#DejaVuSans-74" x="974.613281"/>
      <use xlink:href="#DejaVuSans-20" x="1013.822266"/>
      <use xlink:href="#DejaVuSans-28" x="1045.609375"/>
      <use xlink:href="#DejaVuSans-b5" x="1084.623047"/>
      <use xlink:href="#DejaVuSans-6d" x="1148.246094"/>
      <use xlink:href="#DejaVuSans-29" x="1245.658203"/>
     </g>
    </g>
   </g>
   <g id="matplotlib.axis_2">
    <g id="ytick_1">
     <g id="line2d_13">
      <path d="M 90 357.686398 
L 648 357.686398 
" clip-path="url(#pb034391d6f)" style="fill: none; stroke: #b0b0b0; stroke-width: 0.8; stroke-linecap: square"/>
     </g>
     <g id="line2d_14">
      <defs>
       <path id="mf87a7355b6" d="M 0 0 
L -3.5 0 
" style="stroke: #000000; stroke-width: 0.8"/>
      </defs>
      <g>
       <use xlink:href="#mf87a7355b6" x="90" y="357.686398" style="stroke: #000000; stroke-width: 0.8"/>
      </g>
     </g>
     <g id="text_8">
      <!-- −70 -->
      <g transform="translate(61.895313 361.485617) scale(0.1 -0.1)">
       <defs>
        <path id="DejaVuSans-2212" d="M 678 2272 
L 4684 2272 
L 4684 1741 
L 678 1741 
L 678 2272 
z
" transform="scale(0.015625)"/>
        <path id="DejaVuSans-37" d="M 525 4666 
L 3525 4666 
L 3525 4397 
L 1831 0 
L 1172 0 
L 2766 4134 
L 525 4134 
L 525 4666 
z
" transform="scale(0.015625)"/>
       </defs>
       <use xlink:href="#DejaVuSans-2212"/>
       <use xlink:href="#DejaVuSans-37" x="83.789062"/>
       <use xlink:href="#DejaVuSans-30" x="147.412109"/>
      </g>
     </g>
    </g>
    <g id="ytick_2">
     <g id="line2d_15">
      <path d="M 90 301.59365 
L 648 301.59365 
" clip-path="url(#pb034391d6f)" style="fill: none; stroke: #b0b0b0; stroke-width: 0.8; stroke-linecap: square"/>
     </g>
     <g id="line2d_16">
      <g>
       <use xlink:href="#mf87a7355b6" x="90" y="301.59365" style="stroke: #000000; stroke-width: 0.8"/>
      </g>
     </g>
     <g id="text_9">
      <!-- −65 -->
      <g transform="translate(61.895313 305.392869) scale(0.1 -0.1)">
       <defs>
        <path id="DejaVuSans-35" d="M 691 4666 
L 3169 4666 
L 3169 4134 
L 1269 4134 
L 1269 2991 
Q 1406 3038 1543 3061 
Q 1681 3084 1819 3084 
Q 2600 3084 3056 2656 
Q 3513 2228 3513 1497 
Q 3513 744 3044 326 
Q 2575 -91 1722 -91 
Q 1428 -91 1123 -41 
Q 819 9 494 109 
L 494 744 
Q 775 591 1075 516 
Q 1375 441 1709 441 
Q 2250 441 2565 725 
Q 2881 1009 2881 1497 
Q 2881 1984 2565 2268 
Q 2250 2553 1709 2553 
Q 1456 2553 1204 2497 
Q 953 2441 691 2322 
L 691 4666 
z
" transform="scale(0.015625)"/>
       </defs>
       <use xlink:href="#DejaVuSans-2212"/>
       <use xlink:href="#DejaVuSans-36" x="83.789062"/>
       <use xlink:href="#DejaVuSans-35" x="147.412109"/>
      </g>
     </g>
    </g>
    <g id="ytick_3">
     <g id="line2d_17">
      <path d="M 90 245.500902 
L 648 245.500902 
" clip-path="url(#pb034391d6f)" style="fill: none; stroke: #b0b0b0; stroke-width: 0.8; stroke-linecap: square"/>
     </g>
     <g id="line2d_18">
      <g>
       <use xlink:href="#mf87a7355b6" x="90" y="245.500902" style="stroke: #000000; stroke-width: 0.8"/>
      </g>
     </g>
     <g id="text_10">
      <!-- −60 -->
      <g transform="translate(61.895313 249.300121) scale(0.1 -0.1)">
       <use xlink:href="#DejaVuSans-2212"/>
       <use xlink:href="#DejaVuSans-36" x="83.789062"/>
       <use xlink:href="#DejaVuSans-30" x="147.412109"/>
      </g>
     </g>
    </g>
    <g id="ytick_4">
     <g id="line2d_19">
      <path d="M 90 189.408155 
L 648 189.408155 
" clip-path="url(#pb034391d6f)" style="fill: none; stroke: #b0b0b0; stroke-width: 0.8; stroke-linecap: square"/>
     </g>
     <g id="line2d_20">
      <g>
       <use xlink:href="#mf87a7355b6" x="90" y="189.408155" style="stroke: #000000; stroke-width: 0.8"/>
      </g>
     </g>
     <g id="text_11">
      <!-- −55 -->
      <g transform="translate(61.895313 193.207373) scale(0.1 -0.1)">
       <use xlink:href="#DejaVuSans-2212"/>
       <use xlink:href="#DejaVuSans-35" x="83.789062"/>
       <use xlink:href="#DejaVuSans-35" x="147.412109"/>
      </g>
     </g>
    </g>
    <g id="ytick_5">
     <g id="line2d_21">
      <path d="M 90 133.315407 
L 648 133.315407 
" clip-path="url(#pb034391d6f)" style="fill: none; stroke: #b0b0b0; stroke-width: 0.8; stroke-linecap: square"/>
     </g>
     <g id="line2d_22">
      <g>
       <use xlink:href="#mf87a7355b6" x="90" y="133.315407" style="stroke: #000000; stroke-width: 0.8"/>
      </g>
     </g>
     <g id="text_12">
      <!-- −50 -->
      <g transform="translate(61.895313 137.114626) scale(0.1 -0.1)">
       <use xlink:href="#DejaVuSans-2212"/>
       <use xlink:href="#DejaVuSans-35" x="83.789062"/>
       <use xlink:href="#DejaVuSans-30" x="147.412109"/>
      </g>
     </g>
    </g>
    <g id="ytick_6">
     <g id="line2d_23">
      <path d="M 90 77.222659 
L 648 77.222659 
" clip-path="url(#pb034391d6f)" style="fill: none; stroke: #b0b0b0; stroke-width: 0.8; stroke-linecap: square"/>
     </g>
     <g id="line2d_24">
      <g>
       <use xlink:href="#mf87a7355b6" x="90" y="77.222659" style="stroke: #000000; stroke-width: 0.8"/>
      </g>
     </g>
     <g id="text_13">
      <!-- −45 -->
      <g transform="translate(61.895313 81.021878) scale(0.1 -0.1)">
       <use xlink:href="#DejaVuSans-2212"/>
       <use xlink:href="#DejaVuSans-34" x="83.789062"/>
       <use xlink:href="#DejaVuSans-35" x="147.412109"/>
      </g>
     </g>
    </g>
    <g id="text_14">
     <!-- Power (arbitrary units) -->
     <g transform="translate(55.815625 274.4225) rotate(-90) scale(0.1 -0.1)">
      <defs>
       <path id="DejaVuSans-50" d="M 1259 4147 
L 1259 2394 
L 2053 2394 
Q 2494 2394 2734 2622 
Q 2975 2850 2975 3272 
Q 2975 3691 2734 3919 
Q 2494 4147 2053 4147 
L 1259 4147 
z
M 628 4666 
L 2053 4666 
Q 2838 4666 3239 4311 
Q 3641 3956 3641 3272 
Q 3641 2581 3239 2228 
Q 2838 1875 2053 1875 
L 1259 1875 
L 1259 0 
L 628 0 
L 628 4666 
z
" transform="scale(0.015625)"/>
       <path id="DejaVuSans-77" d="M 269 3500 
L 844 3500 
L 1563 769 
L 2278 3500 
L 2956 3500 
L 3675 769 
L 4391 3500 
L 4966 3500 
L 4050 0 
L 3372 0 
L 2619 2869 
L 1863 0 
L 1184 0 
L 269 3500 
z
" transform="scale(0.015625)"/>
       <path id="DejaVuSans-62" d="M 3116 1747 
Q 3116 2381 2855 2742 
Q 2594 3103 2138 3103 
Q 1681 3103 1420 2742 
Q 1159 2381 1159 1747 
Q 1159 1113 1420 752 
Q 1681 391 2138 391 
Q 2594 391 2855 752 
Q 3116 1113 3116 1747 
z
M 1159 2969 
Q 1341 3281 1617 3432 
Q 1894 3584 2278 3584 
Q 2916 3584 3314 3078 
Q 3713 2572 3713 1747 
Q 3713 922 3314 415 
Q 2916 -91 2278 -91 
Q 1894 -91 1617 61 
Q 1341 213 1159 525 
L 1159 0 
L 581 0 
L 581 4863 
L 1159 4863 
L 1159 2969 
z
" transform="scale(0.015625)"/>
       <path id="DejaVuSans-79" d="M 2059 -325 
Q 1816 -950 1584 -1140 
Q 1353 -1331 966 -1331 
L 506 -1331 
L 506 -850 
L 844 -850 
Q 1081 -850 1212 -737 
Q 1344 -625 1503 -206 
L 1606 56 
L 191 3500 
L 800 3500 
L 1894 763 
L 2988 3500 
L 3597 3500 
L 2059 -325 
z
" transform="scale(0.015625)"/>
       <path id="DejaVuSans-75" d="M 544 1381 
L 544 3500 
L 1119 3500 
L 1119 1403 
Q 1119 906 1312 657 
Q 1506 409 1894 409 
Q 2359 409 2629 706 
Q 2900 1003 2900 1516 
L 2900 3500 
L 3475 3500 
L 3475 0 
L 2900 0 
L 2900 538 
Q 2691 219 2414 64 
Q 2138 -91 1772 -91 
Q 1169 -91 856 284 
Q 544 659 544 1381 
z
M 1991 3584 
L 1991 3584 
z
" transform="scale(0.015625)"/>
      </defs>
      <use xlink:href="#DejaVuSans-50"/>
      <use xlink:href="#DejaVuSans-6f" x="56.677734"/>
      <use xlink:href="#DejaVuSans-77" x="117.859375"/>
      <use xlink:href="#DejaVuSans-65" x="199.646484"/>
      <use xlink:href="#DejaVuSans-72" x="261.169922"/>
      <use xlink:href="#DejaVuSans-20" x="302.283203"/>
      <use xlink:href="#DejaVuSans-28" x="334.070312"/>
      <use xlink:href="#DejaVuSans-61" x="373.083984"/>
      <use xlink:href="#DejaVuSans-72" x="434.363281"/>
      <use xlink:href="#DejaVuSans-62" x="475.476562"/>
      <use xlink:href="#DejaVuSans-69" x="538.953125"/>
      <use xlink:href="#DejaVuSans-74" x="566.736328"/>
      <use xlink:href="#DejaVuSans-72" x="605.945312"/>
      <use xlink:href="#DejaVuSans-61" x="647.058594"/>
      <use xlink:href="#DejaVuSans-72" x="708.337891"/>
      <use xlink:href="#DejaVuSans-79" x="749.451172"/>
      <use xlink:href="#DejaVuSans-20" x="808.630859"/>
      <use xlink:href="#DejaVuSans-75" x="840.417969"/>
      <use xlink:href="#DejaVuSans-6e" x="903.796875"/>
      <use xlink:href="#DejaVuSans-69" x="967.175781"/>
      <use xlink:href="#DejaVuSans-74" x="994.958984"/>
      <use xlink:href="#DejaVuSans-73" x="1034.167969"/>
      <use xlink:href="#DejaVuSans-29" x="1086.267578"/>
     </g>
    </g>
   </g>
   <g id="line2d_25">
    <path d="M 115.363636 206.121361 
L 115.871417 218.236218 
L 116.379197 227.291824 
L 116.886978 233.942881 
L 118.9181 253.084852 
L 119.42588 260.924725 
L 119.933661 265.57208 
L 120.441441 273.128474 
L 120.949222 275.522162 
L 121.457002 280.476133 
L 121.964783 284.132118 
L 122.472563 284.915033 
L 123.488124 302.469749 
L 123.995905 308.825057 
L 124.503686 318.171792 
L 125.519247 328.415169 
L 126.027027 341.854781 
L 127.550369 362.373648 
L 128.058149 363.893972 
L 128.56593 355.786537 
L 129.07371 352.582098 
L 129.581491 345.325169 
L 130.089271 340.345746 
L 130.597052 339.947137 
L 132.120393 314.716689 
L 132.628174 306.299481 
L 133.135954 292.823128 
L 134.151515 282.588726 
L 134.659296 276.084842 
L 135.167076 272.373676 
L 135.674857 263.374225 
L 136.182637 257.164127 
L 136.690418 254.684547 
L 137.198198 254.73447 
L 137.705979 250.732813 
L 138.213759 250.91203 
L 138.72154 246.992549 
L 139.22932 240.208832 
L 139.737101 237.040854 
L 140.244881 232.130635 
L 141.260442 225.355262 
L 141.768223 226.148904 
L 142.276003 222.773243 
L 142.783784 221.064518 
L 143.291564 216.826991 
L 143.799345 211.030717 
L 144.307125 210.088569 
L 144.814906 208.778944 
L 145.322686 203.742236 
L 145.830467 200.047476 
L 146.338247 199.618928 
L 146.846028 199.657562 
L 148.369369 193.715517 
L 148.87715 191.471176 
L 149.38493 188.205596 
L 149.892711 181.97278 
L 150.400491 178.306418 
L 151.416052 175.843105 
L 151.923833 175.299847 
L 152.939394 178.796599 
L 153.954955 172.987984 
L 154.970516 162.634034 
L 155.478296 160.434427 
L 155.986077 157.05533 
L 157.001638 159.574035 
L 157.509419 159.041294 
L 158.52498 150.2998 
L 159.540541 139.115467 
L 160.048321 139.279889 
L 160.556102 140.000961 
L 161.063882 140.470457 
L 161.571663 143.028287 
L 162.079443 147.840343 
L 162.587224 147.282501 
L 163.095004 145.453948 
L 163.602785 146.042431 
L 164.110565 143.057876 
L 164.618346 141.296634 
L 165.126126 137.527131 
L 165.633907 131.145809 
L 166.141687 130.832531 
L 166.649468 133.859787 
L 167.157248 132.855096 
L 167.665029 133.672718 
L 168.172809 133.614381 
L 168.68059 133.881383 
L 169.18837 129.528656 
L 169.696151 126.826107 
L 170.203931 122.88447 
L 170.711712 121.414489 
L 171.219492 122.644322 
L 171.727273 122.443721 
L 172.235053 121.753219 
L 172.742834 118.794116 
L 173.250614 117.130826 
L 173.758395 113.779845 
L 174.266175 114.186658 
L 175.281736 110.743335 
L 175.789517 109.8394 
L 176.297297 109.250847 
L 176.805078 110.351877 
L 177.312858 110.328178 
L 177.820639 110.660528 
L 178.328419 111.187098 
L 178.8362 111.960477 
L 179.34398 109.666915 
L 180.359541 101.840434 
L 180.867322 101.072664 
L 181.375102 100.06012 
L 181.882883 100.317586 
L 182.390663 100.261844 
L 182.898444 97.511616 
L 183.406224 95.724782 
L 183.914005 94.960167 
L 184.421785 92.806767 
L 184.929566 93.21975 
L 185.437346 92.840983 
L 185.945127 93.628245 
L 186.452907 95.417604 
L 186.960688 98.22736 
L 187.468468 99.399979 
L 187.976249 99.37074 
L 188.484029 100.064888 
L 188.99181 98.015049 
L 189.49959 96.754645 
L 190.007371 92.264981 
L 191.022932 88.104302 
L 191.530713 90.683516 
L 192.038493 92.538714 
L 192.546274 91.348566 
L 193.054054 93.397634 
L 193.561835 92.804453 
L 194.069615 93.763499 
L 194.577396 91.894068 
L 195.085176 89.358816 
L 195.592957 88.038673 
L 196.608518 84.225488 
L 197.116298 80.680006 
L 197.624079 82.386277 
L 198.63964 84.916551 
L 199.14742 84.346929 
L 199.655201 84.68615 
L 200.162981 83.364394 
L 200.670762 82.990676 
L 201.178542 80.635622 
L 201.686323 80.687789 
L 202.701884 84.063099 
L 203.209664 82.899315 
L 203.717445 82.510663 
L 204.225225 83.447832 
L 204.733006 82.69079 
L 205.240786 83.572218 
L 205.748567 81.746609 
L 206.256347 80.383485 
L 206.764128 77.797469 
L 207.271908 78.816815 
L 207.779689 77.23535 
L 208.287469 79.566635 
L 208.79525 81.012916 
L 209.30303 82.916003 
L 209.810811 82.846588 
L 211.334152 76.094914 
L 211.841933 76.417167 
L 212.349713 75.543032 
L 212.857494 78.537333 
L 213.365274 74.765306 
L 213.873055 78.44478 
L 214.380835 78.908106 
L 214.888616 77.237383 
L 215.396396 75.115395 
L 215.904177 73.659998 
L 216.411957 73.967597 
L 216.919738 72.85682 
L 217.427518 74.71349 
L 217.935299 71.501129 
L 218.443079 77.524438 
L 218.95086 79.502969 
L 219.966421 75.850069 
L 220.474201 76.925227 
L 220.981982 76.397535 
L 221.489762 75.296504 
L 221.997543 75.793977 
L 222.505324 74.056364 
L 223.013104 76.285139 
L 223.520885 76.038471 
L 224.028665 76.754705 
L 225.044226 81.328508 
L 225.552007 80.479614 
L 226.059787 80.754889 
L 226.567568 78.822845 
L 227.075348 76.03174 
L 227.583129 71.439988 
L 228.090909 68.828099 
L 229.10647 70.021332 
L 229.614251 73.519135 
L 230.122031 73.599979 
L 230.629812 73.820704 
L 231.137592 75.189858 
L 231.645373 71.785379 
L 232.153153 71.182522 
L 232.660934 71.017539 
L 233.168714 71.409697 
L 233.676495 70.47996 
L 234.184275 71.516835 
L 234.692056 70.69781 
L 235.199836 71.122152 
L 235.707617 73.00799 
L 236.215397 71.711547 
L 236.723178 74.723797 
L 237.738739 75.661878 
L 238.246519 74.551312 
L 238.7543 76.998779 
L 239.26208 78.69292 
L 239.769861 79.978285 
L 240.277641 79.447227 
L 240.785422 78.737023 
L 241.293202 77.423752 
L 241.800983 73.053145 
L 242.308763 73.648289 
L 242.816544 73.252204 
L 243.324324 78.308825 
L 243.832105 79.581289 
L 244.339885 83.164283 
L 244.847666 82.486262 
L 245.355446 82.111142 
L 245.863227 80.187231 
L 246.371007 77.581793 
L 246.878788 79.615786 
L 247.386568 78.492669 
L 247.894349 81.047974 
L 248.402129 79.728252 
L 248.90991 83.602157 
L 249.41769 82.130073 
L 249.925471 84.013457 
L 250.433251 87.200367 
L 250.941032 88.885463 
L 251.448812 88.414354 
L 251.956593 87.199245 
L 252.464373 88.103881 
L 253.479934 85.863396 
L 254.495495 84.06927 
L 255.003276 83.82751 
L 255.511057 84.894254 
L 256.018837 83.504766 
L 256.526618 83.391178 
L 257.034398 86.750784 
L 257.542179 88.788843 
L 258.049959 88.533411 
L 258.55774 88.842622 
L 259.06552 88.620144 
L 259.573301 90.847307 
L 260.081081 95.799666 
L 260.588862 97.860583 
L 261.096642 100.621118 
L 261.604423 102.761056 
L 262.112203 103.326611 
L 262.619984 98.737173 
L 263.127764 96.61883 
L 263.635545 95.736772 
L 264.143325 94.117234 
L 264.651106 93.36482 
L 265.158886 97.076407 
L 266.174447 101.149161 
L 266.682228 102.659739 
L 267.190008 99.46757 
L 267.697789 103.896093 
L 268.205569 103.534575 
L 268.71335 101.75335 
L 269.22113 100.518748 
L 269.728911 104.388307 
L 270.236691 104.48689 
L 270.744472 105.757881 
L 271.252252 105.522292 
L 271.760033 104.213087 
L 272.267813 107.422644 
L 272.775594 107.953211 
L 273.283374 110.702176 
L 274.298935 120.020654 
L 275.314496 121.003399 
L 275.822277 119.777843 
L 277.345618 109.212914 
L 277.853399 110.163125 
L 278.361179 115.260834 
L 278.86896 117.061832 
L 279.884521 125.167234 
L 280.392301 128.298962 
L 281.407862 128.887866 
L 281.915643 124.613599 
L 282.423423 126.769664 
L 282.931204 129.885055 
L 283.438984 131.904043 
L 283.946765 134.535003 
L 284.454545 138.194214 
L 284.962326 140.768661 
L 285.470106 144.450238 
L 285.977887 145.422255 
L 286.485667 145.25005 
L 286.993448 148.180406 
L 287.501229 148.21336 
L 288.009009 150.692449 
L 288.51679 147.283272 
L 289.02457 146.472311 
L 289.532351 148.272328 
L 290.547912 154.12217 
L 291.055692 155.321994 
L 291.563473 158.579651 
L 292.579034 167.371978 
L 293.086814 167.69367 
L 293.594595 168.647037 
L 294.102375 175.548688 
L 294.610156 178.327733 
L 295.117936 179.443909 
L 295.625717 178.70047 
L 296.133497 182.81333 
L 296.641278 185.073307 
L 297.149058 185.981098 
L 297.656839 186.032002 
L 298.164619 185.74025 
L 299.18018 188.638632 
L 299.687961 187.502333 
L 300.195741 188.537595 
L 302.734644 214.417036 
L 303.750205 227.732683 
L 304.257985 229.310081 
L 304.765766 228.005995 
L 305.273546 228.898361 
L 306.289107 238.265569 
L 306.796888 237.696929 
L 307.304668 242.28223 
L 307.812449 248.861349 
L 308.320229 250.671322 
L 308.82801 255.573687 
L 309.33579 267.170092 
L 309.843571 272.328872 
L 310.351351 275.463405 
L 310.859132 283.035365 
L 311.366912 285.710007 
L 311.874693 293.5862 
L 312.890254 284.900589 
L 313.905815 301.109149 
L 314.413595 302.764937 
L 314.921376 300.278065 
L 316.444717 335.91547 
L 317.460278 350.521601 
L 317.968059 349.242546 
L 318.475839 339.42309 
L 318.98362 334.300771 
L 319.4914 317.930242 
L 319.999181 310.363541 
L 320.506962 298.39426 
L 321.014742 292.280852 
L 321.522523 294.407398 
L 322.030303 290.342076 
L 322.538084 284.843514 
L 323.045864 277.936183 
L 323.553645 275.72052 
L 324.569206 270.335476 
L 325.584767 249.816889 
L 326.092547 247.680106 
L 326.600328 241.249072 
L 327.108108 242.114653 
L 327.615889 235.679062 
L 328.123669 232.737839 
L 328.63145 231.819671 
L 329.647011 224.786973 
L 330.154791 218.960619 
L 330.662572 216.360159 
L 331.170352 217.058163 
L 331.678133 216.37909 
L 332.693694 209.973228 
L 333.201474 208.466016 
L 333.709255 206.289127 
L 334.217035 202.116948 
L 334.724816 195.684863 
L 335.232596 191.248978 
L 335.740377 187.891547 
L 336.248157 182.046613 
L 336.755938 178.249554 
L 337.263718 175.491053 
L 337.771499 177.571533 
L 338.279279 178.149008 
L 338.78706 175.197337 
L 339.29484 175.753006 
L 339.802621 173.750916 
L 340.310401 170.864663 
L 340.818182 166.327882 
L 341.325962 163.871581 
L 341.833743 160.202764 
L 342.341523 159.548793 
L 342.849304 157.59978 
L 343.357084 159.186925 
L 343.864865 164.685556 
L 344.372645 166.382923 
L 344.880426 167.227119 
L 345.388206 166.849825 
L 345.895987 166.766387 
L 346.403767 161.830786 
L 347.419328 150.192803 
L 348.434889 144.816103 
L 348.94267 140.663487 
L 349.45045 140.220003 
L 349.958231 141.26417 
L 350.466011 140.294396 
L 350.973792 142.858746 
L 351.481572 143.866943 
L 351.989353 143.255042 
L 352.497133 140.950191 
L 353.004914 137.708661 
L 353.512695 132.975274 
L 354.020475 131.746983 
L 354.528256 130.084885 
L 355.036036 131.267531 
L 355.543817 134.717445 
L 356.051597 135.771007 
L 356.559378 133.880331 
L 357.067158 130.94633 
L 357.574939 130.086638 
L 358.082719 126.641141 
L 358.5905 125.433324 
L 359.09828 125.389011 
L 359.606061 125.027844 
L 360.113841 121.509496 
L 360.621622 119.395641 
L 361.129402 118.308844 
L 361.637183 116.194147 
L 362.144963 116.738317 
L 362.652744 116.164558 
L 363.160524 118.219306 
L 363.668305 117.31467 
L 364.176085 113.620752 
L 365.191646 108.063433 
L 365.699427 106.884995 
L 366.207207 101.835666 
L 367.222768 103.611072 
L 367.730549 106.241541 
L 368.238329 107.672467 
L 368.74611 107.37826 
L 369.25389 108.407983 
L 369.761671 106.867606 
L 370.269451 106.938143 
L 371.285012 104.1727 
L 371.792793 101.829566 
L 372.300573 101.991183 
L 372.808354 104.086878 
L 373.316134 102.442519 
L 373.823915 101.853125 
L 374.331695 100.926543 
L 374.839476 103.040258 
L 375.347256 103.652159 
L 376.362817 97.059018 
L 376.870598 95.697296 
L 377.378378 95.934569 
L 377.886159 94.878973 
L 378.393939 95.348259 
L 378.90172 95.136229 
L 379.4095 96.447116 
L 379.917281 96.795733 
L 380.425061 95.022711 
L 380.932842 94.765315 
L 381.440622 95.77807 
L 381.948403 95.619958 
L 382.456183 96.659357 
L 382.963964 94.672552 
L 383.471744 94.641701 
L 383.979525 93.429607 
L 384.487305 91.837695 
L 384.995086 89.739265 
L 385.502867 90.248867 
L 386.518428 86.865283 
L 387.026208 85.934704 
L 387.533989 82.794492 
L 388.54955 86.286336 
L 389.05733 87.324192 
L 389.565111 86.148347 
L 390.072891 87.269291 
L 390.580672 84.806048 
L 391.088452 84.835917 
L 392.104013 81.545166 
L 392.611794 81.131622 
L 393.119574 81.027921 
L 393.627355 81.81371 
L 394.135135 81.923091 
L 395.150696 83.615479 
L 395.658477 84.939899 
L 396.166257 85.874475 
L 396.674038 85.014012 
L 397.181818 87.246082 
L 397.689599 87.914287 
L 398.197379 90.187867 
L 398.70516 88.142304 
L 399.720721 83.341326 
L 400.228501 82.107566 
L 400.736282 82.027494 
L 401.244062 80.844498 
L 401.751843 82.948116 
L 402.259623 84.467458 
L 402.767404 83.983798 
L 403.275184 81.721999 
L 403.782965 80.542719 
L 404.290745 78.29992 
L 404.798526 81.076792 
L 405.306306 83.02931 
L 405.814087 81.469651 
L 406.321867 84.436747 
L 406.829648 85.848812 
L 407.337428 83.472373 
L 407.845209 82.013541 
L 408.352989 79.844715 
L 408.86077 75.224635 
L 409.36855 78.809313 
L 409.876331 81.373032 
L 410.384111 79.90873 
L 410.891892 82.421335 
L 411.907453 78.573793 
L 412.923014 75.126543 
L 413.430794 72.352406 
L 413.938575 74.720291 
L 414.446355 74.708091 
L 414.954136 72.813418 
L 415.969697 72.86257 
L 416.985258 76.639645 
L 418.000819 79.63661 
L 418.5086 80.010749 
L 419.01638 78.230435 
L 420.031941 73.72163 
L 421.047502 73.127117 
L 421.555283 72.481069 
L 422.063063 73.192605 
L 422.570844 74.667985 
L 423.078624 75.085175 
L 424.094185 77.836945 
L 424.601966 76.29811 
L 425.109746 79.368137 
L 425.617527 76.820123 
L 426.125307 78.568745 
L 426.633088 79.722923 
L 427.140868 81.943915 
L 427.648649 84.985124 
L 428.156429 87.090425 
L 428.66421 87.683325 
L 429.17199 83.934787 
L 429.679771 83.852191 
L 430.187551 79.005006 
L 430.695332 78.658914 
L 431.203112 78.473527 
L 431.710893 80.782725 
L 432.218673 82.282996 
L 432.726454 81.084855 
L 433.234234 83.685595 
L 433.742015 83.106297 
L 434.249795 84.406597 
L 435.265356 82.232022 
L 435.773137 84.457782 
L 436.280917 82.136524 
L 436.788698 82.776612 
L 437.296478 82.462283 
L 437.804259 86.288649 
L 438.312039 88.192928 
L 438.81982 87.705973 
L 439.3276 85.111824 
L 440.343161 84.429035 
L 440.850942 81.167662 
L 441.358722 83.790699 
L 441.866503 83.365306 
L 442.374283 84.024396 
L 442.882064 87.407139 
L 443.389844 87.533347 
L 443.897625 89.953329 
L 444.405405 91.805932 
L 444.913186 94.78635 
L 445.420966 95.014577 
L 445.928747 98.134596 
L 446.944308 93.545649 
L 447.452088 95.071161 
L 447.959869 95.272254 
L 448.467649 98.745937 
L 448.97543 98.589999 
L 449.48321 100.056965 
L 449.990991 99.628557 
L 450.498771 99.564751 
L 451.006552 95.12473 
L 451.514333 94.347565 
L 452.022113 94.50806 
L 452.529894 95.902315 
L 453.037674 98.217614 
L 453.545455 96.328831 
L 454.053235 96.126195 
L 454.561016 97.144489 
L 455.068796 96.705423 
L 455.576577 97.972979 
L 456.592138 103.711197 
L 457.099918 107.32336 
L 457.607699 108.255481 
L 458.115479 109.696434 
L 458.62326 111.676508 
L 459.13104 111.103871 
L 459.638821 109.574572 
L 460.146601 109.370394 
L 460.654382 109.387713 
L 461.162162 109.287587 
L 461.669943 108.284369 
L 462.685504 114.384104 
L 463.193284 115.322606 
L 463.701065 116.930996 
L 464.208845 114.861945 
L 464.716626 116.913186 
L 465.224406 115.58491 
L 465.732187 117.128863 
L 466.239967 118.314173 
L 466.747748 121.958168 
L 467.255528 120.328674 
L 467.763309 121.288 
L 468.271089 124.355572 
L 468.77887 125.105953 
L 469.28665 132.269838 
L 469.794431 132.628271 
L 470.302211 139.006507 
L 470.809992 140.682558 
L 471.317772 139.835768 
L 471.825553 136.146828 
L 472.333333 137.175219 
L 472.841114 138.851971 
L 473.348894 138.872656 
L 473.856675 144.767583 
L 474.364455 144.011593 
L 474.872236 147.888443 
L 475.380016 149.245116 
L 475.887797 146.745483 
L 476.395577 145.947003 
L 476.903358 147.678095 
L 477.411138 148.683417 
L 477.918919 148.165471 
L 478.426699 151.541273 
L 478.93448 147.307813 
L 479.44226 151.030548 
L 479.950041 156.186033 
L 480.457821 156.212466 
L 480.965602 157.27318 
L 481.473382 159.339777 
L 482.488943 167.247172 
L 482.996724 169.799532 
L 483.504505 171.533289 
L 484.012285 177.710503 
L 484.520066 179.979735 
L 485.027846 178.875549 
L 486.043407 182.161533 
L 486.551188 182.000056 
L 487.058968 183.182491 
L 487.566749 186.73239 
L 488.58231 196.333646 
L 489.09009 196.80202 
L 490.613432 208.394849 
L 491.121212 209.311755 
L 491.628993 212.924058 
L 492.136773 218.521763 
L 492.644554 222.288181 
L 493.152334 229.923175 
L 493.660115 231.628395 
L 494.167895 241.025963 
L 494.675676 240.441757 
L 495.183456 241.01818 
L 496.199017 242.54201 
L 496.706798 248.269991 
L 497.214578 251.493711 
L 498.73792 283.146989 
L 499.2457 289.451113 
L 499.753481 303.556406 
L 500.261261 304.409997 
L 500.769042 307.716033 
L 501.276822 317.246822 
L 501.784603 315.924646 
L 502.292383 325.165015 
L 503.307944 339.874356 
L 504.323505 362.795115 
L 505.339066 366.416463 
L 505.846847 369.36 
L 506.354627 357.325161 
L 506.862408 353.298262 
L 508.89353 299.685305 
L 509.40131 295.428146 
L 509.909091 288.492418 
L 510.416871 287.429881 
L 510.924652 276.813487 
L 511.432432 271.764649 
L 512.447993 257.588539 
L 512.955774 252.723895 
L 513.463554 246.552501 
L 513.971335 247.330438 
L 514.479115 245.935972 
L 514.986896 243.181818 
L 515.494676 237.707586 
L 516.002457 237.174916 
L 516.510238 238.544069 
L 517.018018 236.72989 
L 518.033579 227.73058 
L 518.54136 224.143028 
L 519.04914 219.595869 
L 519.556921 217.483977 
L 520.064701 211.914037 
L 520.572482 210.874358 
L 521.080262 209.357751 
L 522.603604 201.301079 
L 523.111384 200.266589 
L 523.619165 197.683027 
L 524.126945 195.68276 
L 524.634726 187.152034 
L 526.158067 176.563757 
L 526.665848 178.137088 
L 527.173628 177.967898 
L 528.189189 173.280298 
L 528.69697 172.850347 
L 529.20475 171.097799 
L 529.712531 168.317912 
L 530.220311 167.126432 
L 530.728092 164.608359 
L 531.235872 167.743242 
L 531.743653 169.799392 
L 532.251433 168.437951 
L 532.759214 167.422602 
L 533.266994 167.329208 
L 533.774775 165.088653 
L 534.790336 154.50325 
L 535.298116 151.228556 
L 535.805897 151.699735 
L 536.313677 150.558528 
L 536.821458 150.695324 
L 537.329238 148.8301 
L 537.837019 150.901605 
L 538.344799 147.907024 
L 538.85258 145.720879 
L 539.36036 144.302714 
L 539.868141 144.037956 
L 540.375921 141.344873 
L 540.883702 140.402655 
L 541.391482 142.045191 
L 541.899263 142.255259 
L 542.407043 141.288781 
L 542.914824 136.477495 
L 543.930385 129.133412 
L 544.438165 123.212612 
L 544.945946 120.718658 
L 545.453726 123.292404 
L 545.961507 124.259022 
L 546.469287 122.257984 
L 546.977068 121.636336 
L 548.50041 110.610535 
L 549.00819 108.880705 
L 549.515971 108.309681 
L 550.023751 109.437285 
L 550.531532 109.96631 
L 551.039312 109.0168 
L 551.547093 110.884268 
L 552.054873 107.435615 
L 552.562654 105.869786 
L 553.070434 106.187972 
L 553.578215 104.68083 
L 554.085995 99.888967 
L 554.593776 98.157664 
L 555.101556 100.170412 
L 555.609337 101.52954 
L 556.117117 103.42898 
L 556.624898 104.66856 
L 557.640459 106.11989 
L 558.148239 104.000986 
L 558.65602 99.687173 
L 559.1638 97.05418 
L 559.671581 96.383872 
L 560.179361 96.081672 
L 560.687142 94.893417 
L 561.194922 92.99615 
L 561.702703 89.862599 
L 562.210483 87.540359 
L 562.718264 84.469211 
L 563.226044 84.392434 
L 563.733825 85.798819 
L 564.241605 88.62975 
L 564.749386 93.419791 
L 565.257166 94.914312 
L 565.764947 95.902736 
L 566.780508 94.616038 
L 567.288288 91.971265 
L 568.303849 88.69608 
L 568.81163 87.972694 
L 569.31941 88.833788 
L 569.827191 86.916748 
L 570.334971 87.219929 
L 570.842752 85.419422 
L 571.350532 86.568132 
L 571.858313 86.743281 
L 572.366093 85.69035 
L 572.873874 84.19639 
L 573.381654 84.965912 
L 573.889435 82.429258 
L 574.397215 81.133445 
L 574.904996 84.520255 
L 575.412776 84.331503 
L 575.920557 87.289204 
L 576.428337 87.978233 
L 577.443898 84.144364 
L 577.951679 81.417766 
L 578.459459 74.336266 
L 578.96724 74.232355 
L 580.490581 80.743881 
L 580.998362 79.318284 
L 581.506143 79.551069 
L 582.013923 80.733154 
L 582.521704 78.17252 
L 583.029484 74.854984 
L 583.537265 75.091976 
L 584.045045 75.947881 
L 584.552826 77.209617 
L 585.060606 75.589378 
L 585.568387 73.1952 
L 586.076167 73.89117 
L 586.583948 74.327712 
L 587.091728 72.16709 
L 587.599509 70.959904 
L 588.61507 73.344827 
L 589.12285 74.69533 
L 589.630631 75.64477 
L 590.138411 75.558808 
L 590.646192 76.355605 
L 591.153972 75.818307 
L 591.661753 72.637638 
L 592.169533 72.463259 
L 592.677314 72.779412 
L 593.185094 68.552964 
L 593.692875 70.279078 
L 594.200655 71.470628 
L 594.708436 72.19114 
L 595.216216 73.878269 
L 595.723997 72.412215 
L 596.231777 72.98997 
L 596.739558 76.265506 
L 597.247338 78.153448 
L 597.755119 74.973059 
L 598.262899 77.546384 
L 598.77068 74.655224 
L 599.27846 73.780317 
L 600.294021 66.96 
L 600.801802 68.052757 
L 601.309582 71.300387 
L 601.817363 73.573055 
L 602.325143 73.726188 
L 602.832924 72.595638 
L 603.340704 70.58247 
L 603.848485 69.749562 
L 604.356265 69.436845 
L 604.864046 72.242675 
L 605.371826 76.229256 
L 605.879607 81.561784 
L 606.387387 83.514933 
L 606.895168 81.850381 
L 607.910729 80.534936 
L 608.418509 77.527733 
L 608.92629 76.579065 
L 609.43407 73.635668 
L 609.941851 69.623354 
L 610.449631 68.563972 
L 610.957412 69.262888 
L 611.465192 70.549094 
L 611.972973 74.496061 
L 612.480753 74.952235 
L 612.988534 76.938199 
L 613.496314 79.720119 
L 614.004095 78.780285 
L 614.511876 78.322708 
L 615.019656 80.474987 
L 615.527437 83.394895 
L 616.035217 83.653693 
L 616.542998 83.158534 
L 617.050778 80.951144 
L 617.558559 80.223621 
L 618.066339 80.969024 
L 618.57412 78.998766 
L 619.0819 79.18864 
L 619.589681 80.723828 
L 620.097461 79.442459 
L 620.605242 79.039164 
L 621.113022 78.376956 
L 621.620803 78.132489 
L 622.128583 78.57604 
L 622.636364 79.977888 
L 622.636364 79.977888 
" clip-path="url(#pb034391d6f)" style="fill: none; stroke: #1f77b4; stroke-width: 1.5; stroke-linecap: square"/>
   </g>
   <g id="patch_3">
    <path d="M 90 384.48 
L 90 51.84 
" style="fill: none; stroke: #000000; stroke-width: 0.8; stroke-linejoin: miter; stroke-linecap: square"/>
   </g>
   <g id="patch_4">
    <path d="M 648 384.48 
L 648 51.84 
" style="fill: none; stroke: #000000; stroke-width: 0.8; stroke-linejoin: miter; stroke-linecap: square"/>
   </g>
   <g id="patch_5">
    <path d="M 90 384.48 
L 648 384.48 
" style="fill: none; stroke: #000000; stroke-width: 0.8; stroke-linejoin: miter; stroke-linecap: square"/>
   </g>
   <g id="patch_6">
    <path d="M 90 51.84 
L 648 51.84 
" style="fill: none; stroke: #000000; stroke-width: 0.8; stroke-linejoin: miter; stroke-linecap: square"/>
   </g>
   <g id="text_15">
    <!-- Calibration Curve -->
    <g transform="translate(316.745625 45.84) scale(0.12 -0.12)">
     <defs>
      <path id="DejaVuSans-43" d="M 4122 4306 
L 4122 3641 
Q 3803 3938 3442 4084 
Q 3081 4231 2675 4231 
Q 1875 4231 1450 3742 
Q 1025 3253 1025 2328 
Q 1025 1406 1450 917 
Q 1875 428 2675 428 
Q 3081 428 3442 575 
Q 3803 722 4122 1019 
L 4122 359 
Q 3791 134 3420 21 
Q 3050 -91 2638 -91 
Q 1578 -91 968 557 
Q 359 1206 359 2328 
Q 359 3453 968 4101 
Q 1578 4750 2638 4750 
Q 3056 4750 3426 4639 
Q 3797 4528 4122 4306 
z
" transform="scale(0.015625)"/>
      <path id="DejaVuSans-76" d="M 191 3500 
L 800 3500 
L 1894 563 
L 2988 3500 
L 3597 3500 
L 2284 0 
L 1503 0 
L 191 3500 
z
" transform="scale(0.015625)"/>
     </defs>
     <use xlink:href="#DejaVuSans-43"/>
     <use xlink:href="#DejaVuSans-61" x="69.824219"/>
     <use xlink:href="#DejaVuSans-6c" x="131.103516"/>
     <use xlink:href="#DejaVuSans-69" x="158.886719"/>
     <use xlink:href="#DejaVuSans-62" x="186.669922"/>
     <use xlink:href="#DejaVuSans-72" x="250.146484"/>
     <use xlink:href="#DejaVuSans-61" x="291.259766"/>
     <use xlink:href="#DejaVuSans-74" x="352.539062"/>
     <use xlink:href="#DejaVuSans-69" x="391.748047"/>
     <use xlink:href="#DejaVuSans-6f" x="419.53125"/>
     <use xlink:href="#DejaVuSans-6e" x="480.712891"/>
     <use xlink:href="#DejaVuSans-20" x="544.091797"/>
     <use xlink:href="#DejaVuSans-43" x="575.878906"/>
     <use xlink:href="#DejaVuSans-75" x="645.703125"/>
     <use xlink:href="#DejaVuSans-72" x="709.082031"/>
     <use xlink:href="#DejaVuSans-76" x="750.195312"/>
     <use xlink:href="#DejaVuSans-65" x="809.375"/>
    </g>
   </g>
  </g>
 </g>
 <defs>
  <clipPath id="pb034391d6f">
   <rect x="90" y="51.84" width="558" height="332.64"/>
  </clipPath>
 </defs>
</svg>
