<?xml version="1.0" encoding="utf-8" standalone="no"?>
<!DOCTYPE svg PUBLIC "-//W3C//DTD SVG 1.1//EN"
  "http://www.w3.org/Graphics/SVG/1.1/DTD/svg11.dtd">
<svg xmlns:xlink="http://www.w3.org/1999/xlink" width="864pt" height="504pt" viewBox="0 0 864 504" xmlns="http://www.w3.org/2000/svg" version="1.1">
 <metadata>
  <rdf:RDF xmlns:dc="http://purl.org/dc/elements/1.1/" xmlns:cc="http://creativecommons.org/ns#" xmlns:rdf="http://www.w3.org/1999/02/22-rdf-syntax-ns#">
   <cc:Work>
    <dc:type rdf:resource="http://purl.org/dc/dcmitype/StillImage"/>
    <dc:date>2025-08-08T15:33:54.232228</dc:date>
    <dc:format>image/svg+xml</dc:format>
    <dc:creator>
     <cc:Agent>
      <dc:title>Matplotlib v3.7.5, https://matplotlib.org/</dc:title>
     </cc:Agent>
    </dc:creator>
   </cc:Work>
  </rdf:RDF>
 </metadata>
 <defs>
  <style type="text/css">*{stroke-linejoin: round; stroke-linecap: butt}</style>
 </defs>
 <g id="figure_1">
  <g id="patch_1">
   <path d="M 0 504 
L 864 504 
L 864 0 
L 0 0 
z
" style="fill: #ffffff"/>
  </g>
  <g id="axes_1">
   <g id="patch_2">
    <path d="M 52.805 462.04 
L 809.215 462.04 
L 809.215 29.04 
L 52.805 29.04 
z
" style="fill: #ffffff"/>
   </g>
   <g id="matplotlib.axis_1">
    <g id="xtick_1">
     <g id="line2d_1">
      <path d="M 87.187273 462.04 
L 87.187273 29.04 
" clip-path="url(#pec5e5aa2c2)" style="fill: none; stroke-dasharray: 2.96,1.28; stroke-dashoffset: 0; stroke: #b0b0b0; stroke-width: 0.8"/>
     </g>
     <g id="line2d_2">
      <defs>
       <path id="m0c32eada1c" d="M 0 0 
L 0 3.5 
" style="stroke: #000000; stroke-width: 0.8"/>
      </defs>
      <g>
       <use xlink:href="#m0c32eada1c" x="87.187273" y="462.04" style="stroke: #000000; stroke-width: 0.8"/>
      </g>
     </g>
     <g id="text_1">
      <!-- 0 -->
      <g transform="translate(84.006023 476.638438) scale(0.1 -0.1)">
       <defs>
        <path id="DejaVuSans-30" d="M 2034 4250 
Q 1547 4250 1301 3770 
Q 1056 3291 1056 2328 
Q 1056 1369 1301 889 
Q 1547 409 2034 409 
Q 2525 409 2770 889 
Q 3016 1369 3016 2328 
Q 3016 3291 2770 3770 
Q 2525 4250 2034 4250 
z
M 2034 4750 
Q 2819 4750 3233 4129 
Q 3647 3509 3647 2328 
Q 3647 1150 3233 529 
Q 2819 -91 2034 -91 
Q 1250 -91 836 529 
Q 422 1150 422 2328 
Q 422 3509 836 4129 
Q 1250 4750 2034 4750 
z
" transform="scale(0.015625)"/>
       </defs>
       <use xlink:href="#DejaVuSans-30"/>
      </g>
     </g>
    </g>
    <g id="xtick_2">
     <g id="line2d_3">
      <path d="M 224.717051 462.04 
L 224.717051 29.04 
" clip-path="url(#pec5e5aa2c2)" style="fill: none; stroke-dasharray: 2.96,1.28; stroke-dashoffset: 0; stroke: #b0b0b0; stroke-width: 0.8"/>
     </g>
     <g id="line2d_4">
      <g>
       <use xlink:href="#m0c32eada1c" x="224.717051" y="462.04" style="stroke: #000000; stroke-width: 0.8"/>
      </g>
     </g>
     <g id="text_2">
      <!-- 2 -->
      <g transform="translate(221.535801 476.638438) scale(0.1 -0.1)">
       <defs>
        <path id="DejaVuSans-32" d="M 1228 531 
L 3431 531 
L 3431 0 
L 469 0 
L 469 531 
Q 828 903 1448 1529 
Q 2069 2156 2228 2338 
Q 2531 2678 2651 2914 
Q 2772 3150 2772 3378 
Q 2772 3750 2511 3984 
Q 2250 4219 1831 4219 
Q 1534 4219 1204 4116 
Q 875 4013 500 3803 
L 500 4441 
Q 881 4594 1212 4672 
Q 1544 4750 1819 4750 
Q 2544 4750 2975 4387 
Q 3406 4025 3406 3419 
Q 3406 3131 3298 2873 
Q 3191 2616 2906 2266 
Q 2828 2175 2409 1742 
Q 1991 1309 1228 531 
z
" transform="scale(0.015625)"/>
       </defs>
       <use xlink:href="#DejaVuSans-32"/>
      </g>
     </g>
    </g>
    <g id="xtick_3">
     <g id="line2d_5">
      <path d="M 362.24683 462.04 
L 362.24683 29.04 
" clip-path="url(#pec5e5aa2c2)" style="fill: none; stroke-dasharray: 2.96,1.28; stroke-dashoffset: 0; stroke: #b0b0b0; stroke-width: 0.8"/>
     </g>
     <g id="line2d_6">
      <g>
       <use xlink:href="#m0c32eada1c" x="362.24683" y="462.04" style="stroke: #000000; stroke-width: 0.8"/>
      </g>
     </g>
     <g id="text_3">
      <!-- 4 -->
      <g transform="translate(359.06558 476.638438) scale(0.1 -0.1)">
       <defs>
        <path id="DejaVuSans-34" d="M 2419 4116 
L 825 1625 
L 2419 1625 
L 2419 4116 
z
M 2253 4666 
L 3047 4666 
L 3047 1625 
L 3713 1625 
L 3713 1100 
L 3047 1100 
L 3047 0 
L 2419 0 
L 2419 1100 
L 313 1100 
L 313 1709 
L 2253 4666 
z
" transform="scale(0.015625)"/>
       </defs>
       <use xlink:href="#DejaVuSans-34"/>
      </g>
     </g>
    </g>
    <g id="xtick_4">
     <g id="line2d_7">
      <path d="M 499.776608 462.04 
L 499.776608 29.04 
" clip-path="url(#pec5e5aa2c2)" style="fill: none; stroke-dasharray: 2.96,1.28; stroke-dashoffset: 0; stroke: #b0b0b0; stroke-width: 0.8"/>
     </g>
     <g id="line2d_8">
      <g>
       <use xlink:href="#m0c32eada1c" x="499.776608" y="462.04" style="stroke: #000000; stroke-width: 0.8"/>
      </g>
     </g>
     <g id="text_4">
      <!-- 6 -->
      <g transform="translate(496.595358 476.638438) scale(0.1 -0.1)">
       <defs>
        <path id="DejaVuSans-36" d="M 2113 2584 
Q 1688 2584 1439 2293 
Q 1191 2003 1191 1497 
Q 1191 994 1439 701 
Q 1688 409 2113 409 
Q 2538 409 2786 701 
Q 3034 994 3034 1497 
Q 3034 2003 2786 2293 
Q 2538 2584 2113 2584 
z
M 3366 4563 
L 3366 3988 
Q 3128 4100 2886 4159 
Q 2644 4219 2406 4219 
Q 1781 4219 1451 3797 
Q 1122 3375 1075 2522 
Q 1259 2794 1537 2939 
Q 1816 3084 2150 3084 
Q 2853 3084 3261 2657 
Q 3669 2231 3669 1497 
Q 3669 778 3244 343 
Q 2819 -91 2113 -91 
Q 1303 -91 875 529 
Q 447 1150 447 2328 
Q 447 3434 972 4092 
Q 1497 4750 2381 4750 
Q 2619 4750 2861 4703 
Q 3103 4656 3366 4563 
z
" transform="scale(0.015625)"/>
       </defs>
       <use xlink:href="#DejaVuSans-36"/>
      </g>
     </g>
    </g>
    <g id="xtick_5">
     <g id="line2d_9">
      <path d="M 637.306387 462.04 
L 637.306387 29.04 
" clip-path="url(#pec5e5aa2c2)" style="fill: none; stroke-dasharray: 2.96,1.28; stroke-dashoffset: 0; stroke: #b0b0b0; stroke-width: 0.8"/>
     </g>
     <g id="line2d_10">
      <g>
       <use xlink:href="#m0c32eada1c" x="637.306387" y="462.04" style="stroke: #000000; stroke-width: 0.8"/>
      </g>
     </g>
     <g id="text_5">
      <!-- 8 -->
      <g transform="translate(634.125137 476.638438) scale(0.1 -0.1)">
       <defs>
        <path id="DejaVuSans-38" d="M 2034 2216 
Q 1584 2216 1326 1975 
Q 1069 1734 1069 1313 
Q 1069 891 1326 650 
Q 1584 409 2034 409 
Q 2484 409 2743 651 
Q 3003 894 3003 1313 
Q 3003 1734 2745 1975 
Q 2488 2216 2034 2216 
z
M 1403 2484 
Q 997 2584 770 2862 
Q 544 3141 544 3541 
Q 544 4100 942 4425 
Q 1341 4750 2034 4750 
Q 2731 4750 3128 4425 
Q 3525 4100 3525 3541 
Q 3525 3141 3298 2862 
Q 3072 2584 2669 2484 
Q 3125 2378 3379 2068 
Q 3634 1759 3634 1313 
Q 3634 634 3220 271 
Q 2806 -91 2034 -91 
Q 1263 -91 848 271 
Q 434 634 434 1313 
Q 434 1759 690 2068 
Q 947 2378 1403 2484 
z
M 1172 3481 
Q 1172 3119 1398 2916 
Q 1625 2713 2034 2713 
Q 2441 2713 2670 2916 
Q 2900 3119 2900 3481 
Q 2900 3844 2670 4047 
Q 2441 4250 2034 4250 
Q 1625 4250 1398 4047 
Q 1172 3844 1172 3481 
z
" transform="scale(0.015625)"/>
       </defs>
       <use xlink:href="#DejaVuSans-38"/>
      </g>
     </g>
    </g>
    <g id="xtick_6">
     <g id="line2d_11">
      <path d="M 774.836166 462.04 
L 774.836166 29.04 
" clip-path="url(#pec5e5aa2c2)" style="fill: none; stroke-dasharray: 2.96,1.28; stroke-dashoffset: 0; stroke: #b0b0b0; stroke-width: 0.8"/>
     </g>
     <g id="line2d_12">
      <g>
       <use xlink:href="#m0c32eada1c" x="774.836166" y="462.04" style="stroke: #000000; stroke-width: 0.8"/>
      </g>
     </g>
     <g id="text_6">
      <!-- 10 -->
      <g transform="translate(768.473666 476.638438) scale(0.1 -0.1)">
       <defs>
        <path id="DejaVuSans-31" d="M 794 531 
L 1825 531 
L 1825 4091 
L 703 3866 
L 703 4441 
L 1819 4666 
L 2450 4666 
L 2450 531 
L 3481 531 
L 3481 0 
L 794 0 
L 794 531 
z
" transform="scale(0.015625)"/>
       </defs>
       <use xlink:href="#DejaVuSans-31"/>
       <use xlink:href="#DejaVuSans-30" x="63.623047"/>
      </g>
     </g>
    </g>
    <g id="text_7">
     <!-- Time (s) -->
     <g transform="translate(410.681094 490.316563) scale(0.1 -0.1)">
      <defs>
       <path id="DejaVuSans-54" d="M -19 4666 
L 3928 4666 
L 3928 4134 
L 2272 4134 
L 2272 0 
L 1638 0 
L 1638 4134 
L -19 4134 
L -19 4666 
z
" transform="scale(0.015625)"/>
       <path id="DejaVuSans-69" d="M 603 3500 
L 1178 3500 
L 1178 0 
L 603 0 
L 603 3500 
z
M 603 4863 
L 1178 4863 
L 1178 4134 
L 603 4134 
L 603 4863 
z
" transform="scale(0.015625)"/>
       <path id="DejaVuSans-6d" d="M 3328 2828 
Q 3544 3216 3844 3400 
Q 4144 3584 4550 3584 
Q 5097 3584 5394 3201 
Q 5691 2819 5691 2113 
L 5691 0 
L 5113 0 
L 5113 2094 
Q 5113 2597 4934 2840 
Q 4756 3084 4391 3084 
Q 3944 3084 3684 2787 
Q 3425 2491 3425 1978 
L 3425 0 
L 2847 0 
L 2847 2094 
Q 2847 2600 2669 2842 
Q 2491 3084 2119 3084 
Q 1678 3084 1418 2786 
Q 1159 2488 1159 1978 
L 1159 0 
L 581 0 
L 581 3500 
L 1159 3500 
L 1159 2956 
Q 1356 3278 1631 3431 
Q 1906 3584 2284 3584 
Q 2666 3584 2933 3390 
Q 3200 3197 3328 2828 
z
" transform="scale(0.015625)"/>
       <path id="DejaVuSans-65" d="M 3597 1894 
L 3597 1613 
L 953 1613 
Q 991 1019 1311 708 
Q 1631 397 2203 397 
Q 2534 397 2845 478 
Q 3156 559 3463 722 
L 3463 178 
Q 3153 47 2828 -22 
Q 2503 -91 2169 -91 
Q 1331 -91 842 396 
Q 353 884 353 1716 
Q 353 2575 817 3079 
Q 1281 3584 2069 3584 
Q 2775 3584 3186 3129 
Q 3597 2675 3597 1894 
z
M 3022 2063 
Q 3016 2534 2758 2815 
Q 2500 3097 2075 3097 
Q 1594 3097 1305 2825 
Q 1016 2553 972 2059 
L 3022 2063 
z
" transform="scale(0.015625)"/>
       <path id="DejaVuSans-20" transform="scale(0.015625)"/>
       <path id="DejaVuSans-28" d="M 1984 4856 
Q 1566 4138 1362 3434 
Q 1159 2731 1159 2009 
Q 1159 1288 1364 580 
Q 1569 -128 1984 -844 
L 1484 -844 
Q 1016 -109 783 600 
Q 550 1309 550 2009 
Q 550 2706 781 3412 
Q 1013 4119 1484 4856 
L 1984 4856 
z
" transform="scale(0.015625)"/>
       <path id="DejaVuSans-73" d="M 2834 3397 
L 2834 2853 
Q 2591 2978 2328 3040 
Q 2066 3103 1784 3103 
Q 1356 3103 1142 2972 
Q 928 2841 928 2578 
Q 928 2378 1081 2264 
Q 1234 2150 1697 2047 
L 1894 2003 
Q 2506 1872 2764 1633 
Q 3022 1394 3022 966 
Q 3022 478 2636 193 
Q 2250 -91 1575 -91 
Q 1294 -91 989 -36 
Q 684 19 347 128 
L 347 722 
Q 666 556 975 473 
Q 1284 391 1588 391 
Q 1994 391 2212 530 
Q 2431 669 2431 922 
Q 2431 1156 2273 1281 
Q 2116 1406 1581 1522 
L 1381 1569 
Q 847 1681 609 1914 
Q 372 2147 372 2553 
Q 372 3047 722 3315 
Q 1072 3584 1716 3584 
Q 2034 3584 2315 3537 
Q 2597 3491 2834 3397 
z
" transform="scale(0.015625)"/>
       <path id="DejaVuSans-29" d="M 513 4856 
L 1013 4856 
Q 1481 4119 1714 3412 
Q 1947 2706 1947 2009 
Q 1947 1309 1714 600 
Q 1481 -109 1013 -844 
L 513 -844 
Q 928 -128 1133 580 
Q 1338 1288 1338 2009 
Q 1338 2731 1133 3434 
Q 928 4138 513 4856 
z
" transform="scale(0.015625)"/>
      </defs>
      <use xlink:href="#DejaVuSans-54"/>
      <use xlink:href="#DejaVuSans-69" x="57.958984"/>
      <use xlink:href="#DejaVuSans-6d" x="85.742188"/>
      <use xlink:href="#DejaVuSans-65" x="183.154297"/>
      <use xlink:href="#DejaVuSans-20" x="244.677734"/>
      <use xlink:href="#DejaVuSans-28" x="276.464844"/>
      <use xlink:href="#DejaVuSans-73" x="315.478516"/>
      <use xlink:href="#DejaVuSans-29" x="367.578125"/>
     </g>
    </g>
   </g>
   <g id="matplotlib.axis_2">
    <g id="ytick_1">
     <g id="line2d_13">
      <path d="M 52.805 420.440241 
L 809.215 420.440241 
" clip-path="url(#pec5e5aa2c2)" style="fill: none; stroke-dasharray: 2.96,1.28; stroke-dashoffset: 0; stroke: #b0b0b0; stroke-width: 0.8"/>
     </g>
     <g id="line2d_14">
      <defs>
       <path id="mbaeefdc79a" d="M 0 0 
L -3.5 0 
" style="stroke: #000000; stroke-width: 0.8"/>
      </defs>
      <g>
       <use xlink:href="#mbaeefdc79a" x="52.805" y="420.440241" style="stroke: #000000; stroke-width: 0.8"/>
      </g>
     </g>
     <g id="text_8">
      <!-- 775 -->
      <g style="fill: #1f77b4" transform="translate(26.7175 424.23946) scale(0.1 -0.1)">
       <defs>
        <path id="DejaVuSans-37" d="M 525 4666 
L 3525 4666 
L 3525 4397 
L 1831 0 
L 1172 0 
L 2766 4134 
L 525 4134 
L 525 4666 
z
" transform="scale(0.015625)"/>
        <path id="DejaVuSans-35" d="M 691 4666 
L 3169 4666 
L 3169 4134 
L 1269 4134 
L 1269 2991 
Q 1406 3038 1543 3061 
Q 1681 3084 1819 3084 
Q 2600 3084 3056 2656 
Q 3513 2228 3513 1497 
Q 3513 744 3044 326 
Q 2575 -91 1722 -91 
Q 1428 -91 1123 -41 
Q 819 9 494 109 
L 494 744 
Q 775 591 1075 516 
Q 1375 441 1709 441 
Q 2250 441 2565 725 
Q 2881 1009 2881 1497 
Q 2881 1984 2565 2268 
Q 2250 2553 1709 2553 
Q 1456 2553 1204 2497 
Q 953 2441 691 2322 
L 691 4666 
z
" transform="scale(0.015625)"/>
       </defs>
       <use xlink:href="#DejaVuSans-37"/>
       <use xlink:href="#DejaVuSans-37" x="63.623047"/>
       <use xlink:href="#DejaVuSans-35" x="127.246094"/>
      </g>
     </g>
    </g>
    <g id="ytick_2">
     <g id="line2d_15">
      <path d="M 52.805 371.235696 
L 809.215 371.235696 
" clip-path="url(#pec5e5aa2c2)" style="fill: none; stroke-dasharray: 2.96,1.28; stroke-dashoffset: 0; stroke: #b0b0b0; stroke-width: 0.8"/>
     </g>
     <g id="line2d_16">
      <g>
       <use xlink:href="#mbaeefdc79a" x="52.805" y="371.235696" style="stroke: #000000; stroke-width: 0.8"/>
      </g>
     </g>
     <g id="text_9">
      <!-- 780 -->
      <g style="fill: #1f77b4" transform="translate(26.7175 375.034914) scale(0.1 -0.1)">
       <use xlink:href="#DejaVuSans-37"/>
       <use xlink:href="#DejaVuSans-38" x="63.623047"/>
       <use xlink:href="#DejaVuSans-30" x="127.246094"/>
      </g>
     </g>
    </g>
    <g id="ytick_3">
     <g id="line2d_17">
      <path d="M 52.805 322.03115 
L 809.215 322.03115 
" clip-path="url(#pec5e5aa2c2)" style="fill: none; stroke-dasharray: 2.96,1.28; stroke-dashoffset: 0; stroke: #b0b0b0; stroke-width: 0.8"/>
     </g>
     <g id="line2d_18">
      <g>
       <use xlink:href="#mbaeefdc79a" x="52.805" y="322.03115" style="stroke: #000000; stroke-width: 0.8"/>
      </g>
     </g>
     <g id="text_10">
      <!-- 785 -->
      <g style="fill: #1f77b4" transform="translate(26.7175 325.830369) scale(0.1 -0.1)">
       <use xlink:href="#DejaVuSans-37"/>
       <use xlink:href="#DejaVuSans-38" x="63.623047"/>
       <use xlink:href="#DejaVuSans-35" x="127.246094"/>
      </g>
     </g>
    </g>
    <g id="ytick_4">
     <g id="line2d_19">
      <path d="M 52.805 272.826605 
L 809.215 272.826605 
" clip-path="url(#pec5e5aa2c2)" style="fill: none; stroke-dasharray: 2.96,1.28; stroke-dashoffset: 0; stroke: #b0b0b0; stroke-width: 0.8"/>
     </g>
     <g id="line2d_20">
      <g>
       <use xlink:href="#mbaeefdc79a" x="52.805" y="272.826605" style="stroke: #000000; stroke-width: 0.8"/>
      </g>
     </g>
     <g id="text_11">
      <!-- 790 -->
      <g style="fill: #1f77b4" transform="translate(26.7175 276.625824) scale(0.1 -0.1)">
       <defs>
        <path id="DejaVuSans-39" d="M 703 97 
L 703 672 
Q 941 559 1184 500 
Q 1428 441 1663 441 
Q 2288 441 2617 861 
Q 2947 1281 2994 2138 
Q 2813 1869 2534 1725 
Q 2256 1581 1919 1581 
Q 1219 1581 811 2004 
Q 403 2428 403 3163 
Q 403 3881 828 4315 
Q 1253 4750 1959 4750 
Q 2769 4750 3195 4129 
Q 3622 3509 3622 2328 
Q 3622 1225 3098 567 
Q 2575 -91 1691 -91 
Q 1453 -91 1209 -44 
Q 966 3 703 97 
z
M 1959 2075 
Q 2384 2075 2632 2365 
Q 2881 2656 2881 3163 
Q 2881 3666 2632 3958 
Q 2384 4250 1959 4250 
Q 1534 4250 1286 3958 
Q 1038 3666 1038 3163 
Q 1038 2656 1286 2365 
Q 1534 2075 1959 2075 
z
" transform="scale(0.015625)"/>
       </defs>
       <use xlink:href="#DejaVuSans-37"/>
       <use xlink:href="#DejaVuSans-39" x="63.623047"/>
       <use xlink:href="#DejaVuSans-30" x="127.246094"/>
      </g>
     </g>
    </g>
    <g id="ytick_5">
     <g id="line2d_21">
      <path d="M 52.805 223.622059 
L 809.215 223.622059 
" clip-path="url(#pec5e5aa2c2)" style="fill: none; stroke-dasharray: 2.96,1.28; stroke-dashoffset: 0; stroke: #b0b0b0; stroke-width: 0.8"/>
     </g>
     <g id="line2d_22">
      <g>
       <use xlink:href="#mbaeefdc79a" x="52.805" y="223.622059" style="stroke: #000000; stroke-width: 0.8"/>
      </g>
     </g>
     <g id="text_12">
      <!-- 795 -->
      <g style="fill: #1f77b4" transform="translate(26.7175 227.421278) scale(0.1 -0.1)">
       <use xlink:href="#DejaVuSans-37"/>
       <use xlink:href="#DejaVuSans-39" x="63.623047"/>
       <use xlink:href="#DejaVuSans-35" x="127.246094"/>
      </g>
     </g>
    </g>
    <g id="ytick_6">
     <g id="line2d_23">
      <path d="M 52.805 174.417514 
L 809.215 174.417514 
" clip-path="url(#pec5e5aa2c2)" style="fill: none; stroke-dasharray: 2.96,1.28; stroke-dashoffset: 0; stroke: #b0b0b0; stroke-width: 0.8"/>
     </g>
     <g id="line2d_24">
      <g>
       <use xlink:href="#mbaeefdc79a" x="52.805" y="174.417514" style="stroke: #000000; stroke-width: 0.8"/>
      </g>
     </g>
     <g id="text_13">
      <!-- 800 -->
      <g style="fill: #1f77b4" transform="translate(26.7175 178.216733) scale(0.1 -0.1)">
       <use xlink:href="#DejaVuSans-38"/>
       <use xlink:href="#DejaVuSans-30" x="63.623047"/>
       <use xlink:href="#DejaVuSans-30" x="127.246094"/>
      </g>
     </g>
    </g>
    <g id="ytick_7">
     <g id="line2d_25">
      <path d="M 52.805 125.212968 
L 809.215 125.212968 
" clip-path="url(#pec5e5aa2c2)" style="fill: none; stroke-dasharray: 2.96,1.28; stroke-dashoffset: 0; stroke: #b0b0b0; stroke-width: 0.8"/>
     </g>
     <g id="line2d_26">
      <g>
       <use xlink:href="#mbaeefdc79a" x="52.805" y="125.212968" style="stroke: #000000; stroke-width: 0.8"/>
      </g>
     </g>
     <g id="text_14">
      <!-- 805 -->
      <g style="fill: #1f77b4" transform="translate(26.7175 129.012187) scale(0.1 -0.1)">
       <use xlink:href="#DejaVuSans-38"/>
       <use xlink:href="#DejaVuSans-30" x="63.623047"/>
       <use xlink:href="#DejaVuSans-35" x="127.246094"/>
      </g>
     </g>
    </g>
    <g id="ytick_8">
     <g id="line2d_27">
      <path d="M 52.805 76.008423 
L 809.215 76.008423 
" clip-path="url(#pec5e5aa2c2)" style="fill: none; stroke-dasharray: 2.96,1.28; stroke-dashoffset: 0; stroke: #b0b0b0; stroke-width: 0.8"/>
     </g>
     <g id="line2d_28">
      <g>
       <use xlink:href="#mbaeefdc79a" x="52.805" y="76.008423" style="stroke: #000000; stroke-width: 0.8"/>
      </g>
     </g>
     <g id="text_15">
      <!-- 810 -->
      <g style="fill: #1f77b4" transform="translate(26.7175 79.807642) scale(0.1 -0.1)">
       <use xlink:href="#DejaVuSans-38"/>
       <use xlink:href="#DejaVuSans-31" x="63.623047"/>
       <use xlink:href="#DejaVuSans-30" x="127.246094"/>
      </g>
     </g>
    </g>
    <g id="text_16">
     <!-- Displacement (µm) -->
     <g style="fill: #1f77b4" transform="translate(20.221875 303.037812) rotate(-90) scale(0.12 -0.12)">
      <defs>
       <path id="DejaVuSans-44" d="M 1259 4147 
L 1259 519 
L 2022 519 
Q 2988 519 3436 956 
Q 3884 1394 3884 2338 
Q 3884 3275 3436 3711 
Q 2988 4147 2022 4147 
L 1259 4147 
z
M 628 4666 
L 1925 4666 
Q 3281 4666 3915 4102 
Q 4550 3538 4550 2338 
Q 4550 1131 3912 565 
Q 3275 0 1925 0 
L 628 0 
L 628 4666 
z
" transform="scale(0.015625)"/>
       <path id="DejaVuSans-70" d="M 1159 525 
L 1159 -1331 
L 581 -1331 
L 581 3500 
L 1159 3500 
L 1159 2969 
Q 1341 3281 1617 3432 
Q 1894 3584 2278 3584 
Q 2916 3584 3314 3078 
Q 3713 2572 3713 1747 
Q 3713 922 3314 415 
Q 2916 -91 2278 -91 
Q 1894 -91 1617 61 
Q 1341 213 1159 525 
z
M 3116 1747 
Q 3116 2381 2855 2742 
Q 2594 3103 2138 3103 
Q 1681 3103 1420 2742 
Q 1159 2381 1159 1747 
Q 1159 1113 1420 752 
Q 1681 391 2138 391 
Q 2594 391 2855 752 
Q 3116 1113 3116 1747 
z
" transform="scale(0.015625)"/>
       <path id="DejaVuSans-6c" d="M 603 4863 
L 1178 4863 
L 1178 0 
L 603 0 
L 603 4863 
z
" transform="scale(0.015625)"/>
       <path id="DejaVuSans-61" d="M 2194 1759 
Q 1497 1759 1228 1600 
Q 959 1441 959 1056 
Q 959 750 1161 570 
Q 1363 391 1709 391 
Q 2188 391 2477 730 
Q 2766 1069 2766 1631 
L 2766 1759 
L 2194 1759 
z
M 3341 1997 
L 3341 0 
L 2766 0 
L 2766 531 
Q 2569 213 2275 61 
Q 1981 -91 1556 -91 
Q 1019 -91 701 211 
Q 384 513 384 1019 
Q 384 1609 779 1909 
Q 1175 2209 1959 2209 
L 2766 2209 
L 2766 2266 
Q 2766 2663 2505 2880 
Q 2244 3097 1772 3097 
Q 1472 3097 1187 3025 
Q 903 2953 641 2809 
L 641 3341 
Q 956 3463 1253 3523 
Q 1550 3584 1831 3584 
Q 2591 3584 2966 3190 
Q 3341 2797 3341 1997 
z
" transform="scale(0.015625)"/>
       <path id="DejaVuSans-63" d="M 3122 3366 
L 3122 2828 
Q 2878 2963 2633 3030 
Q 2388 3097 2138 3097 
Q 1578 3097 1268 2742 
Q 959 2388 959 1747 
Q 959 1106 1268 751 
Q 1578 397 2138 397 
Q 2388 397 2633 464 
Q 2878 531 3122 666 
L 3122 134 
Q 2881 22 2623 -34 
Q 2366 -91 2075 -91 
Q 1284 -91 818 406 
Q 353 903 353 1747 
Q 353 2603 823 3093 
Q 1294 3584 2113 3584 
Q 2378 3584 2631 3529 
Q 2884 3475 3122 3366 
z
" transform="scale(0.015625)"/>
       <path id="DejaVuSans-6e" d="M 3513 2113 
L 3513 0 
L 2938 0 
L 2938 2094 
Q 2938 2591 2744 2837 
Q 2550 3084 2163 3084 
Q 1697 3084 1428 2787 
Q 1159 2491 1159 1978 
L 1159 0 
L 581 0 
L 581 3500 
L 1159 3500 
L 1159 2956 
Q 1366 3272 1645 3428 
Q 1925 3584 2291 3584 
Q 2894 3584 3203 3211 
Q 3513 2838 3513 2113 
z
" transform="scale(0.015625)"/>
       <path id="DejaVuSans-74" d="M 1172 4494 
L 1172 3500 
L 2356 3500 
L 2356 3053 
L 1172 3053 
L 1172 1153 
Q 1172 725 1289 603 
Q 1406 481 1766 481 
L 2356 481 
L 2356 0 
L 1766 0 
Q 1100 0 847 248 
Q 594 497 594 1153 
L 594 3053 
L 172 3053 
L 172 3500 
L 594 3500 
L 594 4494 
L 1172 4494 
z
" transform="scale(0.015625)"/>
       <path id="DejaVuSans-b5" d="M 544 -1331 
L 544 3500 
L 1119 3500 
L 1119 1325 
Q 1119 872 1334 640 
Q 1550 409 1972 409 
Q 2434 409 2667 671 
Q 2900 934 2900 1459 
L 2900 3500 
L 3475 3500 
L 3475 806 
Q 3475 619 3529 530 
Q 3584 441 3700 441 
Q 3728 441 3778 458 
Q 3828 475 3916 513 
L 3916 50 
Q 3788 -22 3673 -56 
Q 3559 -91 3450 -91 
Q 3234 -91 3106 31 
Q 2978 153 2931 403 
Q 2775 156 2548 32 
Q 2322 -91 2016 -91 
Q 1697 -91 1473 31 
Q 1250 153 1119 397 
L 1119 -1331 
L 544 -1331 
z
" transform="scale(0.015625)"/>
      </defs>
      <use xlink:href="#DejaVuSans-44"/>
      <use xlink:href="#DejaVuSans-69" x="77.001953"/>
      <use xlink:href="#DejaVuSans-73" x="104.785156"/>
      <use xlink:href="#DejaVuSans-70" x="156.884766"/>
      <use xlink:href="#DejaVuSans-6c" x="220.361328"/>
      <use xlink:href="#DejaVuSans-61" x="248.144531"/>
      <use xlink:href="#DejaVuSans-63" x="309.423828"/>
      <use xlink:href="#DejaVuSans-65" x="364.404297"/>
      <use xlink:href="#DejaVuSans-6d" x="425.927734"/>
      <use xlink:href="#DejaVuSans-65" x="523.339844"/>
      <use xlink:href="#DejaVuSans-6e" x="584.863281"/>
      <use xlink:href="#DejaVuSans-74" x="648.242188"/>
      <use xlink:href="#DejaVuSans-20" x="687.451172"/>
      <use xlink:href="#DejaVuSans-28" x="719.238281"/>
      <use xlink:href="#DejaVuSans-b5" x="758.251953"/>
      <use xlink:href="#DejaVuSans-6d" x="821.875"/>
      <use xlink:href="#DejaVuSans-29" x="919.287109"/>
     </g>
    </g>
   </g>
   <g id="line2d_29">
    <path d="M 87.187273 442.356711 
L 95.236203 442.238622 
L 97.649851 441.986521 
L 99.258949 441.603256 
L 100.513908 441.080344 
L 101.579764 440.396081 
L 102.539034 439.512735 
L 103.439854 438.373424 
L 104.30973 436.904131 
L 105.169291 435.00152 
L 106.032291 432.53114 
L 106.905605 429.331519 
L 107.799548 425.175218 
L 108.714121 419.822812 
L 109.659639 412.913408 
L 110.639538 404.044007 
L 111.664135 392.655672 
L 112.740306 378.107505 
L 113.885241 359.488906 
L 115.123009 335.583795 
L 116.501745 304.454589 
L 118.138349 262.167351 
L 120.723909 188.585646 
L 123.051601 124.7575 
L 124.399393 93.602426 
L 125.454934 73.997211 
L 126.317933 61.796035 
L 127.026211 54.652779 
L 127.600398 50.87845 
L 128.043932 49.237471 
L 128.363688 48.752831 
L 128.57686 48.756157 
L 128.790031 49.020584 
L 129.075405 49.782153 
L 129.453612 51.505391 
L 129.931528 54.829558 
L 130.519468 60.625814 
L 131.227746 69.986463 
L 132.080431 84.422072 
L 133.115342 105.971039 
L 134.439066 138.53007 
L 136.498575 195.471356 
L 139.510477 277.856153 
L 141.109261 315.440338 
L 142.467367 342.379413 
L 143.684506 362.307735 
L 144.798497 377.076333 
L 145.82997 387.944118 
L 146.785802 395.792548 
L 147.672869 401.34295 
L 148.487733 405.122081 
L 149.230394 407.582789 
L 149.893975 409.071467 
L 150.478477 409.883383 
L 150.990775 410.246111 
L 151.458376 410.316934 
L 151.925978 410.159371 
L 152.448591 409.735145 
L 153.067475 408.924701 
L 153.806697 407.564788 
L 154.697203 405.429688 
L 155.763059 402.261746 
L 157.038647 397.73475 
L 158.56179 391.467211 
L 160.384059 382.98065 
L 162.605165 371.521659 
L 165.592999 354.838493 
L 171.902178 319.326057 
L 174.016698 308.878489 
L 175.735821 301.449009 
L 177.207389 296.028436 
L 178.486416 292.121405 
L 179.610722 289.361735 
L 180.600937 287.485683 
L 181.474251 286.279024 
L 182.244417 285.571819 
L 182.932066 285.22711 
L 183.568142 285.150759 
L 184.190464 285.301975 
L 184.840292 285.697644 
L 185.54857 286.403402 
L 186.335928 287.519317 
L 187.219557 289.177935 
L 188.21321 291.539202 
L 189.337516 294.813466 
L 190.609666 299.235893 
L 192.067482 305.14713 
L 193.769413 313.023173 
L 195.849551 323.763343 
L 198.765182 340.104153 
L 205.009034 375.33839 
L 207.505199 387.975683 
L 209.664417 397.797645 
L 211.631093 405.740854 
L 213.470554 412.272739 
L 215.217182 417.678538 
L 216.895045 422.168617 
L 218.521335 425.902659 
L 220.109804 429.007894 
L 221.677643 431.595914 
L 223.235168 433.747218 
L 224.803007 435.540265 
L 226.398353 437.03159 
L 228.04871 438.272355 
L 229.785024 439.300277 
L 231.655429 440.147786 
L 233.721814 440.836719 
L 236.080449 441.383662 
L 238.896371 441.800748 
L 242.48246 442.095796 
L 247.605445 442.275793 
L 257.208461 442.350936 
L 317.556528 442.358182 
L 370.144477 442.247142 
L 372.620013 442.001266 
L 374.249741 441.625206 
L 375.515015 441.110647 
L 376.587748 440.435638 
L 377.550456 439.564417 
L 378.451276 438.443308 
L 379.32459 436.989937 
L 380.187589 435.104637 
L 381.050589 432.663818 
L 381.923903 429.500595 
L 382.814408 425.40677 
L 383.728981 420.113144 
L 384.67106 413.302358 
L 385.65096 404.523924 
L 386.672119 393.284408 
L 387.744851 378.919059 
L 388.886348 360.520359 
L 390.120678 336.872035 
L 391.492537 306.112989 
L 393.11195 264.506946 
L 395.570295 194.732573 
L 398.063022 125.973078 
L 399.424567 94.318769 
L 400.483547 74.501899 
L 401.349984 62.127102 
L 402.065139 54.822491 
L 402.642764 50.964578 
L 403.089736 49.271476 
L 403.412931 48.759296 
L 403.626102 48.749982 
L 403.835835 48.995654 
L 404.117771 49.723109 
L 404.489101 51.371658 
L 404.960141 54.576115 
L 405.541204 60.197748 
L 406.242606 69.322291 
L 407.084976 83.393937 
L 408.109573 104.496089 
L 409.409229 136.193638 
L 411.379343 190.396445 
L 414.600978 278.636887 
L 416.196324 316.03372 
L 417.550992 342.812414 
L 418.764692 362.611004 
L 419.878684 377.319488 
L 420.910157 388.13535 
L 421.865989 395.939877 
L 422.749618 401.43521 
L 423.564482 405.189221 
L 424.303704 407.620177 
L 424.967285 409.095747 
L 425.551787 409.897235 
L 426.064085 410.251632 
L 426.528248 410.315853 
L 426.999288 410.151468 
L 427.525339 409.716999 
L 428.147661 408.892318 
L 428.893761 407.506604 
L 429.787704 405.346634 
L 430.860436 402.138376 
L 432.142902 397.563314 
L 433.676359 391.2256 
L 435.508943 382.659445 
L 437.74724 371.077114 
L 440.779772 354.108951 
L 446.872341 319.793584 
L 449.007491 309.197435 
L 450.740366 301.669397 
L 452.218811 296.190617 
L 453.504714 292.234978 
L 454.635897 289.436356 
L 455.629549 287.53622 
L 456.506302 286.310508 
L 457.279907 285.5888 
L 457.967556 285.234581 
L 458.603631 285.149398 
L 459.225953 285.291978 
L 459.872343 285.675993 
L 460.577183 286.366632 
L 461.361103 287.463392 
L 462.241294 289.098309 
L 463.231508 291.430998 
L 464.348937 294.660707 
L 465.614211 299.029808 
L 467.061712 304.864584 
L 468.753329 312.653637 
L 470.812837 323.244801 
L 473.670018 339.215678 
L 480.18893 375.975269 
L 482.664466 388.453306 
L 484.813368 398.179924 
L 486.773168 406.052522 
L 488.60919 412.534103 
L 490.35238 417.895514 
L 492.026805 422.346976 
L 493.653095 426.055061 
L 495.241564 429.137105 
L 496.809403 431.704506 
L 498.366928 433.837623 
L 499.934768 435.614648 
L 501.533551 437.094789 
L 503.187347 438.324958 
L 504.930537 439.3447 
L 506.807818 440.183835 
L 508.884518 440.865435 
L 511.260345 441.406084 
L 514.103773 441.817295 
L 517.737997 442.106724 
L 522.971006 442.281535 
L 532.996926 442.352239 
L 605.06253 442.358182 
L 645.204034 442.247142 
L 647.679571 442.001266 
L 649.309298 441.625206 
L 650.574572 441.110647 
L 651.647305 440.435638 
L 652.610013 439.564417 
L 653.510833 438.443308 
L 654.384147 436.989937 
L 655.247147 435.104637 
L 656.110146 432.663818 
L 656.98346 429.500595 
L 657.873965 425.40677 
L 658.788538 420.113144 
L 659.730617 413.302358 
L 660.710517 404.523924 
L 661.731676 393.284408 
L 662.804408 378.919059 
L 663.945905 360.520359 
L 665.180235 336.872035 
L 666.552094 306.112989 
L 668.171508 264.506946 
L 670.629852 194.732573 
L 673.12258 125.973078 
L 674.484124 94.318769 
L 675.543104 74.501899 
L 676.409541 62.127102 
L 677.124696 54.822491 
L 677.702321 50.964578 
L 678.149293 49.271476 
L 678.472488 48.759296 
L 678.685659 48.749982 
L 678.895392 48.995654 
L 679.177328 49.723109 
L 679.548658 51.371658 
L 680.019698 54.576115 
L 680.600761 60.197748 
L 681.302163 69.322291 
L 682.144533 83.393937 
L 683.16913 104.496089 
L 684.468786 136.193638 
L 686.4389 190.396445 
L 689.660535 278.636887 
L 691.255881 316.03372 
L 692.610549 342.812414 
L 693.824249 362.611004 
L 694.938241 377.319488 
L 695.969714 388.13535 
L 696.925546 395.939877 
L 697.809175 401.43521 
L 698.624039 405.189221 
L 699.363261 407.620177 
L 700.026842 409.095747 
L 700.611344 409.897235 
L 701.123642 410.251632 
L 701.587805 410.315853 
L 702.058845 410.151468 
L 702.584896 409.716999 
L 703.207219 408.892318 
L 703.953318 407.506604 
L 704.847261 405.346634 
L 705.919993 402.138376 
L 707.202459 397.563314 
L 708.735916 391.2256 
L 710.5685 382.659445 
L 712.806797 371.077114 
L 715.839329 354.108951 
L 721.931898 319.793584 
L 724.067048 309.197435 
L 725.799923 301.669397 
L 727.278368 296.190617 
L 728.564272 292.234978 
L 729.695454 289.436356 
L 730.689107 287.53622 
L 731.565859 286.310508 
L 732.339464 285.5888 
L 733.027113 285.234581 
L 733.663188 285.149398 
L 734.28551 285.291978 
L 734.9319 285.675993 
L 735.63674 286.366632 
L 736.42066 287.463392 
L 737.300851 289.098309 
L 738.291065 291.430998 
L 739.408495 294.660707 
L 740.673769 299.029808 
L 742.121269 304.864584 
L 743.812886 312.653637 
L 745.872394 323.244801 
L 748.729575 339.215678 
L 755.248487 375.975269 
L 757.724023 388.453306 
L 759.872926 398.179924 
L 761.832725 406.052522 
L 763.668747 412.534103 
L 765.411937 417.895514 
L 767.086362 422.346976 
L 768.712652 426.055061 
L 770.301121 429.137105 
L 771.868961 431.704506 
L 773.426485 433.837623 
L 774.832727 435.447218 
L 774.832727 435.447218 
" clip-path="url(#pec5e5aa2c2)" style="fill: none; stroke: #1f77b4; stroke-width: 1.5; stroke-linecap: square"/>
   </g>
   <g id="patch_3">
    <path d="M 52.805 462.04 
L 52.805 29.04 
" style="fill: none; stroke: #000000; stroke-width: 0.8; stroke-linejoin: miter; stroke-linecap: square"/>
   </g>
   <g id="patch_4">
    <path d="M 809.215 462.04 
L 809.215 29.04 
" style="fill: none; stroke: #000000; stroke-width: 0.8; stroke-linejoin: miter; stroke-linecap: square"/>
   </g>
   <g id="patch_5">
    <path d="M 52.805 462.04 
L 809.215 462.04 
" style="fill: none; stroke: #000000; stroke-width: 0.8; stroke-linejoin: miter; stroke-linecap: square"/>
   </g>
   <g id="patch_6">
    <path d="M 52.805 29.04 
L 809.215 29.04 
" style="fill: none; stroke: #000000; stroke-width: 0.8; stroke-linejoin: miter; stroke-linecap: square"/>
   </g>
   <g id="text_17">
    <!-- Input Pulse vs. Output Power -->
    <g transform="translate(315.6425 23.04) scale(0.16 -0.16)">
     <defs>
      <path id="DejaVuSans-49" d="M 628 4666 
L 1259 4666 
L 1259 0 
L 628 0 
L 628 4666 
z
" transform="scale(0.015625)"/>
      <path id="DejaVuSans-75" d="M 544 1381 
L 544 3500 
L 1119 3500 
L 1119 1403 
Q 1119 906 1312 657 
Q 1506 409 1894 409 
Q 2359 409 2629 706 
Q 2900 1003 2900 1516 
L 2900 3500 
L 3475 3500 
L 3475 0 
L 2900 0 
L 2900 538 
Q 2691 219 2414 64 
Q 2138 -91 1772 -91 
Q 1169 -91 856 284 
Q 544 659 544 1381 
z
M 1991 3584 
L 1991 3584 
z
" transform="scale(0.015625)"/>
      <path id="DejaVuSans-50" d="M 1259 4147 
L 1259 2394 
L 2053 2394 
Q 2494 2394 2734 2622 
Q 2975 2850 2975 3272 
Q 2975 3691 2734 3919 
Q 2494 4147 2053 4147 
L 1259 4147 
z
M 628 4666 
L 2053 4666 
Q 2838 4666 3239 4311 
Q 3641 3956 3641 3272 
Q 3641 2581 3239 2228 
Q 2838 1875 2053 1875 
L 1259 1875 
L 1259 0 
L 628 0 
L 628 4666 
z
" transform="scale(0.015625)"/>
      <path id="DejaVuSans-76" d="M 191 3500 
L 800 3500 
L 1894 563 
L 2988 3500 
L 3597 3500 
L 2284 0 
L 1503 0 
L 191 3500 
z
" transform="scale(0.015625)"/>
      <path id="DejaVuSans-2e" d="M 684 794 
L 1344 794 
L 1344 0 
L 684 0 
L 684 794 
z
" transform="scale(0.015625)"/>
      <path id="DejaVuSans-4f" d="M 2522 4238 
Q 1834 4238 1429 3725 
Q 1025 3213 1025 2328 
Q 1025 1447 1429 934 
Q 1834 422 2522 422 
Q 3209 422 3611 934 
Q 4013 1447 4013 2328 
Q 4013 3213 3611 3725 
Q 3209 4238 2522 4238 
z
M 2522 4750 
Q 3503 4750 4090 4092 
Q 4678 3434 4678 2328 
Q 4678 1225 4090 567 
Q 3503 -91 2522 -91 
Q 1538 -91 948 565 
Q 359 1222 359 2328 
Q 359 3434 948 4092 
Q 1538 4750 2522 4750 
z
" transform="scale(0.015625)"/>
      <path id="DejaVuSans-6f" d="M 1959 3097 
Q 1497 3097 1228 2736 
Q 959 2375 959 1747 
Q 959 1119 1226 758 
Q 1494 397 1959 397 
Q 2419 397 2687 759 
Q 2956 1122 2956 1747 
Q 2956 2369 2687 2733 
Q 2419 3097 1959 3097 
z
M 1959 3584 
Q 2709 3584 3137 3096 
Q 3566 2609 3566 1747 
Q 3566 888 3137 398 
Q 2709 -91 1959 -91 
Q 1206 -91 779 398 
Q 353 888 353 1747 
Q 353 2609 779 3096 
Q 1206 3584 1959 3584 
z
" transform="scale(0.015625)"/>
      <path id="DejaVuSans-77" d="M 269 3500 
L 844 3500 
L 1563 769 
L 2278 3500 
L 2956 3500 
L 3675 769 
L 4391 3500 
L 4966 3500 
L 4050 0 
L 3372 0 
L 2619 2869 
L 1863 0 
L 1184 0 
L 269 3500 
z
" transform="scale(0.015625)"/>
      <path id="DejaVuSans-72" d="M 2631 2963 
Q 2534 3019 2420 3045 
Q 2306 3072 2169 3072 
Q 1681 3072 1420 2755 
Q 1159 2438 1159 1844 
L 1159 0 
L 581 0 
L 581 3500 
L 1159 3500 
L 1159 2956 
Q 1341 3275 1631 3429 
Q 1922 3584 2338 3584 
Q 2397 3584 2469 3576 
Q 2541 3569 2628 3553 
L 2631 2963 
z
" transform="scale(0.015625)"/>
     </defs>
     <use xlink:href="#DejaVuSans-49"/>
     <use xlink:href="#DejaVuSans-6e" x="29.492188"/>
     <use xlink:href="#DejaVuSans-70" x="92.871094"/>
     <use xlink:href="#DejaVuSans-75" x="156.347656"/>
     <use xlink:href="#DejaVuSans-74" x="219.726562"/>
     <use xlink:href="#DejaVuSans-20" x="258.935547"/>
     <use xlink:href="#DejaVuSans-50" x="290.722656"/>
     <use xlink:href="#DejaVuSans-75" x="349.275391"/>
     <use xlink:href="#DejaVuSans-6c" x="412.654297"/>
     <use xlink:href="#DejaVuSans-73" x="440.4375"/>
     <use xlink:href="#DejaVuSans-65" x="492.537109"/>
     <use xlink:href="#DejaVuSans-20" x="554.060547"/>
     <use xlink:href="#DejaVuSans-76" x="585.847656"/>
     <use xlink:href="#DejaVuSans-73" x="645.027344"/>
     <use xlink:href="#DejaVuSans-2e" x="697.126953"/>
     <use xlink:href="#DejaVuSans-20" x="728.914062"/>
     <use xlink:href="#DejaVuSans-4f" x="760.701172"/>
     <use xlink:href="#DejaVuSans-75" x="839.412109"/>
     <use xlink:href="#DejaVuSans-74" x="902.791016"/>
     <use xlink:href="#DejaVuSans-70" x="942"/>
     <use xlink:href="#DejaVuSans-75" x="1005.476562"/>
     <use xlink:href="#DejaVuSans-74" x="1068.855469"/>
     <use xlink:href="#DejaVuSans-20" x="1108.064453"/>
     <use xlink:href="#DejaVuSans-50" x="1139.851562"/>
     <use xlink:href="#DejaVuSans-6f" x="1196.529297"/>
     <use xlink:href="#DejaVuSans-77" x="1257.710938"/>
     <use xlink:href="#DejaVuSans-65" x="1339.498047"/>
     <use xlink:href="#DejaVuSans-72" x="1401.021484"/>
    </g>
   </g>
  </g>
  <g id="axes_2">
   <g id="matplotlib.axis_3">
    <g id="ytick_9">
     <g id="line2d_30">
      <defs>
       <path id="m37a458d292" d="M 0 0 
L 3.5 0 
" style="stroke: #000000; stroke-width: 0.8"/>
      </defs>
      <g>
       <use xlink:href="#m37a458d292" x="809.215" y="429.734172" style="stroke: #000000; stroke-width: 0.8"/>
      </g>
     </g>
     <g id="text_18">
      <!-- −68 -->
      <g style="fill: #d62728" transform="translate(816.215 433.533391) scale(0.1 -0.1)">
       <defs>
        <path id="DejaVuSans-2212" d="M 678 2272 
L 4684 2272 
L 4684 1741 
L 678 1741 
L 678 2272 
z
" transform="scale(0.015625)"/>
       </defs>
       <use xlink:href="#DejaVuSans-2212"/>
       <use xlink:href="#DejaVuSans-36" x="83.789062"/>
       <use xlink:href="#DejaVuSans-38" x="147.412109"/>
      </g>
     </g>
    </g>
    <g id="ytick_10">
     <g id="line2d_31">
      <g>
       <use xlink:href="#m37a458d292" x="809.215" y="376.178072" style="stroke: #000000; stroke-width: 0.8"/>
      </g>
     </g>
     <g id="text_19">
      <!-- −66 -->
      <g style="fill: #d62728" transform="translate(816.215 379.977291) scale(0.1 -0.1)">
       <use xlink:href="#DejaVuSans-2212"/>
       <use xlink:href="#DejaVuSans-36" x="83.789062"/>
       <use xlink:href="#DejaVuSans-36" x="147.412109"/>
      </g>
     </g>
    </g>
    <g id="ytick_11">
     <g id="line2d_32">
      <g>
       <use xlink:href="#m37a458d292" x="809.215" y="322.621972" style="stroke: #000000; stroke-width: 0.8"/>
      </g>
     </g>
     <g id="text_20">
      <!-- −64 -->
      <g style="fill: #d62728" transform="translate(816.215 326.421191) scale(0.1 -0.1)">
       <use xlink:href="#DejaVuSans-2212"/>
       <use xlink:href="#DejaVuSans-36" x="83.789062"/>
       <use xlink:href="#DejaVuSans-34" x="147.412109"/>
      </g>
     </g>
    </g>
    <g id="ytick_12">
     <g id="line2d_33">
      <g>
       <use xlink:href="#m37a458d292" x="809.215" y="269.065873" style="stroke: #000000; stroke-width: 0.8"/>
      </g>
     </g>
     <g id="text_21">
      <!-- −62 -->
      <g style="fill: #d62728" transform="translate(816.215 272.865091) scale(0.1 -0.1)">
       <use xlink:href="#DejaVuSans-2212"/>
       <use xlink:href="#DejaVuSans-36" x="83.789062"/>
       <use xlink:href="#DejaVuSans-32" x="147.412109"/>
      </g>
     </g>
    </g>
    <g id="ytick_13">
     <g id="line2d_34">
      <g>
       <use xlink:href="#m37a458d292" x="809.215" y="215.509773" style="stroke: #000000; stroke-width: 0.8"/>
      </g>
     </g>
     <g id="text_22">
      <!-- −60 -->
      <g style="fill: #d62728" transform="translate(816.215 219.308991) scale(0.1 -0.1)">
       <use xlink:href="#DejaVuSans-2212"/>
       <use xlink:href="#DejaVuSans-36" x="83.789062"/>
       <use xlink:href="#DejaVuSans-30" x="147.412109"/>
      </g>
     </g>
    </g>
    <g id="ytick_14">
     <g id="line2d_35">
      <g>
       <use xlink:href="#m37a458d292" x="809.215" y="161.953673" style="stroke: #000000; stroke-width: 0.8"/>
      </g>
     </g>
     <g id="text_23">
      <!-- −58 -->
      <g style="fill: #d62728" transform="translate(816.215 165.752891) scale(0.1 -0.1)">
       <use xlink:href="#DejaVuSans-2212"/>
       <use xlink:href="#DejaVuSans-35" x="83.789062"/>
       <use xlink:href="#DejaVuSans-38" x="147.412109"/>
      </g>
     </g>
    </g>
    <g id="ytick_15">
     <g id="line2d_36">
      <g>
       <use xlink:href="#m37a458d292" x="809.215" y="108.397573" style="stroke: #000000; stroke-width: 0.8"/>
      </g>
     </g>
     <g id="text_24">
      <!-- −56 -->
      <g style="fill: #d62728" transform="translate(816.215 112.196792) scale(0.1 -0.1)">
       <use xlink:href="#DejaVuSans-2212"/>
       <use xlink:href="#DejaVuSans-35" x="83.789062"/>
       <use xlink:href="#DejaVuSans-36" x="147.412109"/>
      </g>
     </g>
    </g>
    <g id="ytick_16">
     <g id="line2d_37">
      <g>
       <use xlink:href="#m37a458d292" x="809.215" y="54.841473" style="stroke: #000000; stroke-width: 0.8"/>
      </g>
     </g>
     <g id="text_25">
      <!-- −54 -->
      <g style="fill: #d62728" transform="translate(816.215 58.640692) scale(0.1 -0.1)">
       <use xlink:href="#DejaVuSans-2212"/>
       <use xlink:href="#DejaVuSans-35" x="83.789062"/>
       <use xlink:href="#DejaVuSans-34" x="147.412109"/>
      </g>
     </g>
    </g>
    <g id="text_26">
     <!-- Output Power (arbitrary units) -->
     <g style="fill: #d62728" transform="translate(850.437813 335.803437) rotate(-90) scale(0.12 -0.12)">
      <defs>
       <path id="DejaVuSans-62" d="M 3116 1747 
Q 3116 2381 2855 2742 
Q 2594 3103 2138 3103 
Q 1681 3103 1420 2742 
Q 1159 2381 1159 1747 
Q 1159 1113 1420 752 
Q 1681 391 2138 391 
Q 2594 391 2855 752 
Q 3116 1113 3116 1747 
z
M 1159 2969 
Q 1341 3281 1617 3432 
Q 1894 3584 2278 3584 
Q 2916 3584 3314 3078 
Q 3713 2572 3713 1747 
Q 3713 922 3314 415 
Q 2916 -91 2278 -91 
Q 1894 -91 1617 61 
Q 1341 213 1159 525 
L 1159 0 
L 581 0 
L 581 4863 
L 1159 4863 
L 1159 2969 
z
" transform="scale(0.015625)"/>
       <path id="DejaVuSans-79" d="M 2059 -325 
Q 1816 -950 1584 -1140 
Q 1353 -1331 966 -1331 
L 506 -1331 
L 506 -850 
L 844 -850 
Q 1081 -850 1212 -737 
Q 1344 -625 1503 -206 
L 1606 56 
L 191 3500 
L 800 3500 
L 1894 763 
L 2988 3500 
L 3597 3500 
L 2059 -325 
z
" transform="scale(0.015625)"/>
      </defs>
      <use xlink:href="#DejaVuSans-4f"/>
      <use xlink:href="#DejaVuSans-75" x="78.710938"/>
      <use xlink:href="#DejaVuSans-74" x="142.089844"/>
      <use xlink:href="#DejaVuSans-70" x="181.298828"/>
      <use xlink:href="#DejaVuSans-75" x="244.775391"/>
      <use xlink:href="#DejaVuSans-74" x="308.154297"/>
      <use xlink:href="#DejaVuSans-20" x="347.363281"/>
      <use xlink:href="#DejaVuSans-50" x="379.150391"/>
      <use xlink:href="#DejaVuSans-6f" x="435.828125"/>
      <use xlink:href="#DejaVuSans-77" x="497.009766"/>
      <use xlink:href="#DejaVuSans-65" x="578.796875"/>
      <use xlink:href="#DejaVuSans-72" x="640.320312"/>
      <use xlink:href="#DejaVuSans-20" x="681.433594"/>
      <use xlink:href="#DejaVuSans-28" x="713.220703"/>
      <use xlink:href="#DejaVuSans-61" x="752.234375"/>
      <use xlink:href="#DejaVuSans-72" x="813.513672"/>
      <use xlink:href="#DejaVuSans-62" x="854.626953"/>
      <use xlink:href="#DejaVuSans-69" x="918.103516"/>
      <use xlink:href="#DejaVuSans-74" x="945.886719"/>
      <use xlink:href="#DejaVuSans-72" x="985.095703"/>
      <use xlink:href="#DejaVuSans-61" x="1026.208984"/>
      <use xlink:href="#DejaVuSans-72" x="1087.488281"/>
      <use xlink:href="#DejaVuSans-79" x="1128.601562"/>
      <use xlink:href="#DejaVuSans-20" x="1187.78125"/>
      <use xlink:href="#DejaVuSans-75" x="1219.568359"/>
      <use xlink:href="#DejaVuSans-6e" x="1282.947266"/>
      <use xlink:href="#DejaVuSans-69" x="1346.326172"/>
      <use xlink:href="#DejaVuSans-74" x="1374.109375"/>
      <use xlink:href="#DejaVuSans-73" x="1413.318359"/>
      <use xlink:href="#DejaVuSans-29" x="1465.417969"/>
     </g>
    </g>
   </g>
   <g id="line2d_38">
    <path d="M 87.187273 442.352998 
L 92.9704 442.223765 
L 95.10555 441.962942 
L 96.539298 441.572735 
L 97.663604 441.040401 
L 98.619436 440.341851 
L 99.482435 439.431745 
L 100.297299 438.239708 
L 101.088095 436.673531 
L 101.868577 434.614691 
L 102.652496 431.890462 
L 103.443293 428.299452 
L 104.244404 423.580354 
L 105.059267 417.394737 
L 105.891323 409.305731 
L 107.331947 392.310234 
L 108.225891 378.180192 
L 108.851651 365.173582 
L 109.98971 342.086511 
L 110.797697 333.806512 
L 111.8498 317.416797 
L 112.389605 315.335178 
L 113.376381 283.855058 
L 113.854297 272.037284 
L 115.655937 218.030161 
L 115.704072 218.232277 
L 116.085717 219.871927 
L 116.126976 219.560731 
L 116.601454 214.935748 
L 117.003729 206.579205 
L 117.41288 196.493045 
L 117.663872 195.641284 
L 117.694816 195.895294 
L 118.031764 198.896813 
L 118.079899 198.339317 
L 118.45123 192.621975 
L 119.317667 167.560693 
L 120.393838 138.06611 
L 120.600132 134.348144 
L 121.053981 130.239253 
L 121.287781 126.621265 
L 122.319255 109.260418 
L 122.656203 106.242724 
L 123.457314 91.39606 
L 123.942106 72.762868 
L 125.049221 53.060265 
L 125.224571 50.968134 
L 125.293336 51.417503 
L 125.846893 54.714878 
L 125.908782 54.678852 
L 126.67551 54.120178 
L 127.3219 50.942876 
L 127.837637 49.395368 
L 128.229597 48.818037 
L 128.518409 48.726212 
L 128.776278 48.8837 
L 129.08572 49.370067 
L 129.47768 50.44834 
L 129.969349 52.5198 
L 130.450703 54.380921 
L 131.093655 54.715857 
L 131.12116 54.567705 
L 131.715977 50.971108 
L 131.770989 51.592203 
L 132.37612 60.110736 
L 133.259749 80.055678 
L 133.754856 98.453178 
L 134.311851 106.427179 
L 134.566281 108.765848 
L 134.820712 111.170022 
L 136.23383 133.291658 
L 136.543272 136.219232 
L 137.045256 151.218045 
L 137.310001 156.629378 
L 138.176438 180.099063 
L 138.960358 198.301847 
L 139.011932 198.896489 
L 139.07382 198.373502 
L 139.393577 195.637935 
L 139.469218 195.883535 
L 139.79929 197.334133 
L 140.390668 213.096855 
L 140.827325 218.170549 
L 141.057687 219.872192 
L 141.126452 219.591543 
L 141.52185 218.022021 
L 141.532165 218.319611 
L 142.360782 240.345571 
L 142.869642 253.715573 
L 143.952689 281.392204 
L 144.657529 295.352176 
L 145.420819 315.769487 
L 146.486675 318.883723 
L 147.394372 329.329233 
L 148.095773 335.196832 
L 148.872817 338.348628 
L 149.574219 340.334128 
L 150.196541 341.483279 
L 150.739783 342.061052 
L 151.221138 342.271 
L 151.674986 342.230239 
L 152.15634 341.953912 
L 152.713336 341.359854 
L 153.380355 340.298282 
L 154.181466 338.575423 
L 155.144175 335.943166 
L 155.677102 333.984758 
L 156.918309 326.678785 
L 158.417383 317.868674 
L 160.329047 315.583356 
L 162.667053 287.541964 
L 164.228016 276.511425 
L 167.848488 241.993116 
L 169.722331 228.515201 
L 170.99792 218.022692 
L 171.073561 218.099701 
L 172.888954 219.875682 
L 172.919898 219.823768 
L 174.955339 216.629134 
L 175.151319 216.150682 
L 176.726035 212.043588 
L 177.888162 208.984614 
L 179.074356 204.668293 
L 180.112706 201.680498 
L 181.020402 199.702312 
L 181.811199 198.475549 
L 182.498848 197.791768 
L 183.10054 197.488738 
L 183.650659 197.453988 
L 184.193902 197.646943 
L 184.771527 198.09913 
L 185.417917 198.904958 
L 186.150263 200.19595 
L 186.982318 202.140599 
L 187.924397 204.937992 
L 188.993691 208.846493 
L 189.526619 210.52641 
L 190.860658 213.708576 
L 192.311597 217.146051 
L 194.030719 219.874119 
L 194.175126 219.73828 
L 195.918316 218.022567 
L 195.942383 218.1933 
L 198.620776 238.968637 
L 199.666002 246.795132 
L 203.375868 281.764596 
L 204.771795 291.981525 
L 206.604379 315.671168 
L 208.646697 318.468261 
L 210.682137 333.130194 
L 211.187559 335.7979 
L 213.051088 342.837283 
L 213.690601 345.478232 
L 215.392532 362.740954 
L 217.018822 377.042673 
L 217.960901 383.818519 
L 219.497796 393.532173 
L 220.989994 401.583393 
L 222.874152 410.380928 
L 224.280394 416.363585 
L 225.662569 421.301402 
L 227.024113 425.364479 
L 228.371905 428.705647 
L 229.71282 431.450079 
L 231.053736 433.70017 
L 232.408404 435.548187 
L 233.794017 437.068051 
L 235.227765 438.314723 
L 236.74403 439.339924 
L 238.384073 440.179141 
L 240.206343 440.858417 
L 242.300233 441.396436 
L 244.820467 441.806693 
L 248.062731 442.097613 
L 252.749058 442.275832 
L 261.633482 442.350749 
L 317.226457 442.358182 
L 367.665503 442.24711 
L 369.951936 442.002224 
L 371.444134 441.627782 
L 372.595946 441.114185 
L 373.568969 440.43688 
L 374.442283 439.553457 
L 375.260585 438.400648 
L 376.051381 436.889567 
L 376.831863 434.900748 
L 377.612344 432.279168 
L 378.399702 428.822994 
L 379.200813 424.257688 
L 380.015677 418.26548 
L 380.847732 410.418403 
L 382.226468 394.580304 
L 383.116974 381.093593 
L 383.797746 367.689304 
L 385.097403 341.650511 
L 385.867569 333.626942 
L 386.905919 317.428017 
L 387.449162 315.335178 
L 388.435938 283.855058 
L 388.913854 272.037284 
L 390.715494 218.030161 
L 390.763629 218.232277 
L 391.145275 219.871927 
L 391.186533 219.560731 
L 391.661011 214.935748 
L 392.063286 206.579205 
L 392.472437 196.493045 
L 392.723429 195.641284 
L 392.754373 195.895294 
L 393.091321 198.896813 
L 393.139456 198.339317 
L 393.510787 192.621975 
L 394.377224 167.560693 
L 395.453395 138.06611 
L 395.65969 134.348144 
L 396.113538 130.239253 
L 396.347338 126.621265 
L 397.378812 109.260418 
L 397.71576 106.242724 
L 398.516871 91.39606 
L 399.001663 72.762868 
L 400.108778 53.060265 
L 400.284128 50.968134 
L 400.352893 51.417503 
L 400.906451 54.714878 
L 400.968339 54.678852 
L 401.735068 54.120178 
L 402.381457 50.942876 
L 402.897194 49.395368 
L 403.289154 48.818037 
L 403.577967 48.726212 
L 403.835835 48.8837 
L 404.145277 49.370067 
L 404.537237 50.44834 
L 405.028906 52.5198 
L 405.51026 54.380921 
L 406.153212 54.715857 
L 406.180718 54.567705 
L 406.775534 50.971108 
L 406.830546 51.592203 
L 407.435677 60.110736 
L 408.319306 80.055678 
L 408.814413 98.453178 
L 409.371408 106.427179 
L 409.625839 108.765848 
L 409.880269 111.170022 
L 411.293387 133.291658 
L 411.602829 136.219232 
L 412.104813 151.218045 
L 412.369558 156.629378 
L 413.235995 180.099063 
L 414.019915 198.301847 
L 414.071489 198.896489 
L 414.133377 198.373502 
L 414.453134 195.637935 
L 414.528775 195.883535 
L 414.858847 197.334133 
L 415.450225 213.096855 
L 415.886882 218.170549 
L 416.117244 219.872192 
L 416.186009 219.591543 
L 416.581407 218.022021 
L 416.591722 218.319611 
L 417.420339 240.345571 
L 417.929199 253.715573 
L 419.012246 281.392204 
L 419.717086 295.352176 
L 420.480376 315.769487 
L 421.546232 318.883723 
L 422.453929 329.329233 
L 423.155331 335.196832 
L 423.932374 338.348628 
L 424.633776 340.334128 
L 425.256098 341.483279 
L 425.799341 342.061052 
L 426.280695 342.271 
L 426.734543 342.230239 
L 427.215897 341.953912 
L 427.772893 341.359854 
L 428.439912 340.298282 
L 429.241023 338.575423 
L 430.203732 335.943166 
L 430.73666 333.984758 
L 431.977866 326.678785 
L 433.47694 317.868674 
L 435.388604 315.583356 
L 437.726611 287.541964 
L 439.287574 276.511425 
L 442.908045 241.993116 
L 444.781888 228.515201 
L 446.057477 218.022692 
L 446.133118 218.099701 
L 447.948511 219.875682 
L 447.979456 219.823768 
L 450.014896 216.629134 
L 450.210876 216.150682 
L 451.785592 212.043588 
L 452.947719 208.984614 
L 454.133913 204.668293 
L 455.172263 201.680498 
L 456.07996 199.702312 
L 456.870756 198.475549 
L 457.558405 197.791768 
L 458.160097 197.488738 
L 458.710217 197.453988 
L 459.253459 197.646943 
L 459.831084 198.09913 
L 460.477474 198.904958 
L 461.20982 200.19595 
L 462.041875 202.140599 
L 462.983954 204.937992 
L 464.053248 208.846493 
L 464.586176 210.52641 
L 465.920215 213.708576 
L 467.371154 217.146051 
L 469.090277 219.874119 
L 469.234683 219.73828 
L 470.977873 218.022567 
L 471.00194 218.1933 
L 473.680333 238.968637 
L 474.725559 246.795132 
L 478.435425 281.764596 
L 479.831352 291.981525 
L 481.663937 315.671168 
L 483.706254 318.468261 
L 485.741694 333.130194 
L 486.247116 335.7979 
L 488.110645 342.837283 
L 488.750158 345.478232 
L 490.452089 362.740954 
L 492.078379 377.042673 
L 493.020458 383.818519 
L 494.557353 393.532173 
L 496.049551 401.583393 
L 497.933709 410.380928 
L 499.339951 416.363585 
L 500.722126 421.301402 
L 502.08367 425.364479 
L 503.431462 428.705647 
L 504.772378 431.450079 
L 506.113293 433.70017 
L 507.467961 435.548187 
L 508.853574 437.068051 
L 510.287322 438.314723 
L 511.803588 439.339924 
L 513.44363 440.179141 
L 515.2659 440.858417 
L 517.359791 441.396436 
L 519.880024 441.806693 
L 523.122288 442.097613 
L 527.808616 442.275832 
L 536.693039 442.350749 
L 592.286014 442.358182 
L 642.72506 442.24711 
L 645.011493 442.002224 
L 646.503691 441.627782 
L 647.655503 441.114185 
L 648.628526 440.43688 
L 649.50184 439.553457 
L 650.320142 438.400648 
L 651.110938 436.889567 
L 651.89142 434.900748 
L 652.671901 432.279168 
L 653.459259 428.822994 
L 654.26037 424.257688 
L 655.075234 418.26548 
L 655.90729 410.418403 
L 657.286026 394.580304 
L 658.176531 381.093593 
L 658.857303 367.689304 
L 660.15696 341.650511 
L 660.927126 333.626942 
L 661.965476 317.428017 
L 662.508719 315.335178 
L 663.495495 283.855058 
L 663.973411 272.037284 
L 665.775051 218.030161 
L 665.823187 218.232277 
L 666.204832 219.871927 
L 666.246091 219.560731 
L 666.720568 214.935748 
L 667.122843 206.579205 
L 667.531994 196.493045 
L 667.782986 195.641284 
L 667.81393 195.895294 
L 668.150878 198.896813 
L 668.199013 198.339317 
L 668.570344 192.621975 
L 669.436781 167.560693 
L 670.512952 138.06611 
L 670.719247 134.348144 
L 671.173095 130.239253 
L 671.406896 126.621265 
L 672.438369 109.260418 
L 672.775317 106.242724 
L 673.576428 91.39606 
L 674.06122 72.762868 
L 675.168335 53.060265 
L 675.343685 50.968134 
L 675.41245 51.417503 
L 675.966008 54.714878 
L 676.027896 54.678852 
L 676.794625 54.120178 
L 677.441015 50.942876 
L 677.956751 49.395368 
L 678.348711 48.818037 
L 678.637524 48.726212 
L 678.895392 48.8837 
L 679.204834 49.370067 
L 679.596794 50.44834 
L 680.088463 52.5198 
L 680.569817 54.380921 
L 681.212769 54.715857 
L 681.240275 54.567705 
L 681.835091 50.971108 
L 681.890103 51.592203 
L 682.495234 60.110736 
L 683.378863 80.055678 
L 683.87397 98.453178 
L 684.430966 106.427179 
L 684.685396 108.765848 
L 684.939826 111.170022 
L 686.352944 133.291658 
L 686.662386 136.219232 
L 687.16437 151.218045 
L 687.429115 156.629378 
L 688.295552 180.099063 
L 689.079472 198.301847 
L 689.131046 198.896489 
L 689.192934 198.373502 
L 689.512691 195.637935 
L 689.588332 195.883535 
L 689.918404 197.334133 
L 690.509782 213.096855 
L 690.946439 218.170549 
L 691.176801 219.872192 
L 691.245566 219.591543 
L 691.640964 218.022021 
L 691.651279 218.319611 
L 692.479896 240.345571 
L 692.988756 253.715573 
L 694.071803 281.392204 
L 694.776643 295.352176 
L 695.539933 315.769487 
L 696.605789 318.883723 
L 697.513486 329.329233 
L 698.214888 335.196832 
L 698.991931 338.348628 
L 699.693333 340.334128 
L 700.315655 341.483279 
L 700.858898 342.061052 
L 701.340252 342.271 
L 701.7941 342.230239 
L 702.275454 341.953912 
L 702.83245 341.359854 
L 703.499469 340.298282 
L 704.30058 338.575423 
L 705.263289 335.943166 
L 705.796217 333.984758 
L 707.037423 326.678785 
L 708.536498 317.868674 
L 710.448161 315.583356 
L 712.786168 287.541964 
L 714.347131 276.511425 
L 717.967602 241.993116 
L 719.841445 228.515201 
L 721.117034 218.022692 
L 721.192675 218.099701 
L 723.008068 219.875682 
L 723.039013 219.823768 
L 725.074453 216.629134 
L 725.270433 216.150682 
L 726.845149 212.043588 
L 728.007276 208.984614 
L 729.19347 204.668293 
L 730.23182 201.680498 
L 731.139517 199.702312 
L 731.930313 198.475549 
L 732.617962 197.791768 
L 733.219655 197.488738 
L 733.769774 197.453988 
L 734.313016 197.646943 
L 734.890641 198.09913 
L 735.537031 198.904958 
L 736.269377 200.19595 
L 737.101433 202.140599 
L 738.043512 204.937992 
L 739.112806 208.846493 
L 739.645733 210.52641 
L 740.979772 213.708576 
L 742.430711 217.146051 
L 744.149834 219.874119 
L 744.29424 219.73828 
L 746.03743 218.022567 
L 746.061498 218.1933 
L 748.73989 238.968637 
L 749.785116 246.795132 
L 753.494982 281.764596 
L 754.890909 291.981525 
L 756.723494 315.671168 
L 758.765811 318.468261 
L 760.801252 333.130194 
L 761.306674 335.7979 
L 763.170202 342.837283 
L 763.809716 345.478232 
L 765.511647 362.740954 
L 767.137936 377.042673 
L 768.080015 383.818519 
L 769.61691 393.532173 
L 771.109109 401.583393 
L 772.993266 410.380928 
L 774.399508 416.363585 
L 774.832727 418.006188 
L 774.832727 418.006188 
" clip-path="url(#pec5e5aa2c2)" style="fill: none; stroke: #d62728; stroke-opacity: 0.9; stroke-width: 1.5; stroke-linecap: square"/>
   </g>
   <g id="patch_7">
    <path d="M 52.805 462.04 
L 52.805 29.04 
" style="fill: none; stroke: #000000; stroke-width: 0.8; stroke-linejoin: miter; stroke-linecap: square"/>
   </g>
   <g id="patch_8">
    <path d="M 809.215 462.04 
L 809.215 29.04 
" style="fill: none; stroke: #000000; stroke-width: 0.8; stroke-linejoin: miter; stroke-linecap: square"/>
   </g>
   <g id="patch_9">
    <path d="M 52.805 462.04 
L 809.215 462.04 
" style="fill: none; stroke: #000000; stroke-width: 0.8; stroke-linejoin: miter; stroke-linecap: square"/>
   </g>
   <g id="patch_10">
    <path d="M 52.805 29.04 
L 809.215 29.04 
" style="fill: none; stroke: #000000; stroke-width: 0.8; stroke-linejoin: miter; stroke-linecap: square"/>
   </g>
  </g>
 </g>
 <defs>
  <clipPath id="pec5e5aa2c2">
   <rect x="52.805" y="29.04" width="756.41" height="433"/>
  </clipPath>
 </defs>
</svg>
