<?xml version="1.0" encoding="utf-8" standalone="no"?>
<!DOCTYPE svg PUBLIC "-//W3C//DTD SVG 1.1//EN"
  "http://www.w3.org/Graphics/SVG/1.1/DTD/svg11.dtd">
<svg xmlns:xlink="http://www.w3.org/1999/xlink" width="720pt" height="432pt" viewBox="0 0 720 432" xmlns="http://www.w3.org/2000/svg" version="1.1">
 <metadata>
  <rdf:RDF xmlns:dc="http://purl.org/dc/elements/1.1/" xmlns:cc="http://creativecommons.org/ns#" xmlns:rdf="http://www.w3.org/1999/02/22-rdf-syntax-ns#">
   <cc:Work>
    <dc:type rdf:resource="http://purl.org/dc/dcmitype/StillImage"/>
    <dc:date>2025-08-08T15:33:53.931677</dc:date>
    <dc:format>image/svg+xml</dc:format>
    <dc:creator>
     <cc:Agent>
      <dc:title>Matplotlib v3.7.5, https://matplotlib.org/</dc:title>
     </cc:Agent>
    </dc:creator>
   </cc:Work>
  </rdf:RDF>
 </metadata>
 <defs>
  <style type="text/css">*{stroke-linejoin: round; stroke-linecap: butt}</style>
 </defs>
 <g id="figure_1">
  <g id="patch_1">
   <path d="M 0 432 
L 720 432 
L 720 0 
L 0 0 
z
" style="fill: #ffffff"/>
  </g>
  <g id="axes_1">
   <g id="patch_2">
    <path d="M 90 384.48 
L 648 384.48 
L 648 51.84 
L 90 51.84 
z
" style="fill: #ffffff"/>
   </g>
   <g id="matplotlib.axis_1">
    <g id="xtick_1">
     <g id="line2d_1">
      <path d="M 115.363636 384.48 
L 115.363636 51.84 
" clip-path="url(#pf8bc3851c1)" style="fill: none; stroke: #b0b0b0; stroke-width: 0.8; stroke-linecap: square"/>
     </g>
     <g id="line2d_2">
      <defs>
       <path id="m9c6ed9aa3a" d="M 0 0 
L 0 3.5 
" style="stroke: #000000; stroke-width: 0.8"/>
      </defs>
      <g>
       <use xlink:href="#m9c6ed9aa3a" x="115.363636" y="384.48" style="stroke: #000000; stroke-width: 0.8"/>
      </g>
     </g>
     <g id="text_1">
      <!-- 0 -->
      <g transform="translate(112.182386 399.078438) scale(0.1 -0.1)">
       <defs>
        <path id="DejaVuSans-30" d="M 2034 4250 
Q 1547 4250 1301 3770 
Q 1056 3291 1056 2328 
Q 1056 1369 1301 889 
Q 1547 409 2034 409 
Q 2525 409 2770 889 
Q 3016 1369 3016 2328 
Q 3016 3291 2770 3770 
Q 2525 4250 2034 4250 
z
M 2034 4750 
Q 2819 4750 3233 4129 
Q 3647 3509 3647 2328 
Q 3647 1150 3233 529 
Q 2819 -91 2034 -91 
Q 1250 -91 836 529 
Q 422 1150 422 2328 
Q 422 3509 836 4129 
Q 1250 4750 2034 4750 
z
" transform="scale(0.015625)"/>
       </defs>
       <use xlink:href="#DejaVuSans-30"/>
      </g>
     </g>
    </g>
    <g id="xtick_2">
     <g id="line2d_3">
      <path d="M 216.818689 384.48 
L 216.818689 51.84 
" clip-path="url(#pf8bc3851c1)" style="fill: none; stroke: #b0b0b0; stroke-width: 0.8; stroke-linecap: square"/>
     </g>
     <g id="line2d_4">
      <g>
       <use xlink:href="#m9c6ed9aa3a" x="216.818689" y="384.48" style="stroke: #000000; stroke-width: 0.8"/>
      </g>
     </g>
     <g id="text_2">
      <!-- 2 -->
      <g transform="translate(213.637439 399.078438) scale(0.1 -0.1)">
       <defs>
        <path id="DejaVuSans-32" d="M 1228 531 
L 3431 531 
L 3431 0 
L 469 0 
L 469 531 
Q 828 903 1448 1529 
Q 2069 2156 2228 2338 
Q 2531 2678 2651 2914 
Q 2772 3150 2772 3378 
Q 2772 3750 2511 3984 
Q 2250 4219 1831 4219 
Q 1534 4219 1204 4116 
Q 875 4013 500 3803 
L 500 4441 
Q 881 4594 1212 4672 
Q 1544 4750 1819 4750 
Q 2544 4750 2975 4387 
Q 3406 4025 3406 3419 
Q 3406 3131 3298 2873 
Q 3191 2616 2906 2266 
Q 2828 2175 2409 1742 
Q 1991 1309 1228 531 
z
" transform="scale(0.015625)"/>
       </defs>
       <use xlink:href="#DejaVuSans-32"/>
      </g>
     </g>
    </g>
    <g id="xtick_3">
     <g id="line2d_5">
      <path d="M 318.273742 384.48 
L 318.273742 51.84 
" clip-path="url(#pf8bc3851c1)" style="fill: none; stroke: #b0b0b0; stroke-width: 0.8; stroke-linecap: square"/>
     </g>
     <g id="line2d_6">
      <g>
       <use xlink:href="#m9c6ed9aa3a" x="318.273742" y="384.48" style="stroke: #000000; stroke-width: 0.8"/>
      </g>
     </g>
     <g id="text_3">
      <!-- 4 -->
      <g transform="translate(315.092492 399.078438) scale(0.1 -0.1)">
       <defs>
        <path id="DejaVuSans-34" d="M 2419 4116 
L 825 1625 
L 2419 1625 
L 2419 4116 
z
M 2253 4666 
L 3047 4666 
L 3047 1625 
L 3713 1625 
L 3713 1100 
L 3047 1100 
L 3047 0 
L 2419 0 
L 2419 1100 
L 313 1100 
L 313 1709 
L 2253 4666 
z
" transform="scale(0.015625)"/>
       </defs>
       <use xlink:href="#DejaVuSans-34"/>
      </g>
     </g>
    </g>
    <g id="xtick_4">
     <g id="line2d_7">
      <path d="M 419.728795 384.48 
L 419.728795 51.84 
" clip-path="url(#pf8bc3851c1)" style="fill: none; stroke: #b0b0b0; stroke-width: 0.8; stroke-linecap: square"/>
     </g>
     <g id="line2d_8">
      <g>
       <use xlink:href="#m9c6ed9aa3a" x="419.728795" y="384.48" style="stroke: #000000; stroke-width: 0.8"/>
      </g>
     </g>
     <g id="text_4">
      <!-- 6 -->
      <g transform="translate(416.547545 399.078438) scale(0.1 -0.1)">
       <defs>
        <path id="DejaVuSans-36" d="M 2113 2584 
Q 1688 2584 1439 2293 
Q 1191 2003 1191 1497 
Q 1191 994 1439 701 
Q 1688 409 2113 409 
Q 2538 409 2786 701 
Q 3034 994 3034 1497 
Q 3034 2003 2786 2293 
Q 2538 2584 2113 2584 
z
M 3366 4563 
L 3366 3988 
Q 3128 4100 2886 4159 
Q 2644 4219 2406 4219 
Q 1781 4219 1451 3797 
Q 1122 3375 1075 2522 
Q 1259 2794 1537 2939 
Q 1816 3084 2150 3084 
Q 2853 3084 3261 2657 
Q 3669 2231 3669 1497 
Q 3669 778 3244 343 
Q 2819 -91 2113 -91 
Q 1303 -91 875 529 
Q 447 1150 447 2328 
Q 447 3434 972 4092 
Q 1497 4750 2381 4750 
Q 2619 4750 2861 4703 
Q 3103 4656 3366 4563 
z
" transform="scale(0.015625)"/>
       </defs>
       <use xlink:href="#DejaVuSans-36"/>
      </g>
     </g>
    </g>
    <g id="xtick_5">
     <g id="line2d_9">
      <path d="M 521.183847 384.48 
L 521.183847 51.84 
" clip-path="url(#pf8bc3851c1)" style="fill: none; stroke: #b0b0b0; stroke-width: 0.8; stroke-linecap: square"/>
     </g>
     <g id="line2d_10">
      <g>
       <use xlink:href="#m9c6ed9aa3a" x="521.183847" y="384.48" style="stroke: #000000; stroke-width: 0.8"/>
      </g>
     </g>
     <g id="text_5">
      <!-- 8 -->
      <g transform="translate(518.002597 399.078438) scale(0.1 -0.1)">
       <defs>
        <path id="DejaVuSans-38" d="M 2034 2216 
Q 1584 2216 1326 1975 
Q 1069 1734 1069 1313 
Q 1069 891 1326 650 
Q 1584 409 2034 409 
Q 2484 409 2743 651 
Q 3003 894 3003 1313 
Q 3003 1734 2745 1975 
Q 2488 2216 2034 2216 
z
M 1403 2484 
Q 997 2584 770 2862 
Q 544 3141 544 3541 
Q 544 4100 942 4425 
Q 1341 4750 2034 4750 
Q 2731 4750 3128 4425 
Q 3525 4100 3525 3541 
Q 3525 3141 3298 2862 
Q 3072 2584 2669 2484 
Q 3125 2378 3379 2068 
Q 3634 1759 3634 1313 
Q 3634 634 3220 271 
Q 2806 -91 2034 -91 
Q 1263 -91 848 271 
Q 434 634 434 1313 
Q 434 1759 690 2068 
Q 947 2378 1403 2484 
z
M 1172 3481 
Q 1172 3119 1398 2916 
Q 1625 2713 2034 2713 
Q 2441 2713 2670 2916 
Q 2900 3119 2900 3481 
Q 2900 3844 2670 4047 
Q 2441 4250 2034 4250 
Q 1625 4250 1398 4047 
Q 1172 3844 1172 3481 
z
" transform="scale(0.015625)"/>
       </defs>
       <use xlink:href="#DejaVuSans-38"/>
      </g>
     </g>
    </g>
    <g id="xtick_6">
     <g id="line2d_11">
      <path d="M 622.6389 384.48 
L 622.6389 51.84 
" clip-path="url(#pf8bc3851c1)" style="fill: none; stroke: #b0b0b0; stroke-width: 0.8; stroke-linecap: square"/>
     </g>
     <g id="line2d_12">
      <g>
       <use xlink:href="#m9c6ed9aa3a" x="622.6389" y="384.48" style="stroke: #000000; stroke-width: 0.8"/>
      </g>
     </g>
     <g id="text_6">
      <!-- 10 -->
      <g transform="translate(616.2764 399.078438) scale(0.1 -0.1)">
       <defs>
        <path id="DejaVuSans-31" d="M 794 531 
L 1825 531 
L 1825 4091 
L 703 3866 
L 703 4441 
L 1819 4666 
L 2450 4666 
L 2450 531 
L 3481 531 
L 3481 0 
L 794 0 
L 794 531 
z
" transform="scale(0.015625)"/>
       </defs>
       <use xlink:href="#DejaVuSans-31"/>
       <use xlink:href="#DejaVuSans-30" x="63.623047"/>
      </g>
     </g>
    </g>
    <g id="text_7">
     <!-- Time (s) -->
     <g transform="translate(348.671094 412.756563) scale(0.1 -0.1)">
      <defs>
       <path id="DejaVuSans-54" d="M -19 4666 
L 3928 4666 
L 3928 4134 
L 2272 4134 
L 2272 0 
L 1638 0 
L 1638 4134 
L -19 4134 
L -19 4666 
z
" transform="scale(0.015625)"/>
       <path id="DejaVuSans-69" d="M 603 3500 
L 1178 3500 
L 1178 0 
L 603 0 
L 603 3500 
z
M 603 4863 
L 1178 4863 
L 1178 4134 
L 603 4134 
L 603 4863 
z
" transform="scale(0.015625)"/>
       <path id="DejaVuSans-6d" d="M 3328 2828 
Q 3544 3216 3844 3400 
Q 4144 3584 4550 3584 
Q 5097 3584 5394 3201 
Q 5691 2819 5691 2113 
L 5691 0 
L 5113 0 
L 5113 2094 
Q 5113 2597 4934 2840 
Q 4756 3084 4391 3084 
Q 3944 3084 3684 2787 
Q 3425 2491 3425 1978 
L 3425 0 
L 2847 0 
L 2847 2094 
Q 2847 2600 2669 2842 
Q 2491 3084 2119 3084 
Q 1678 3084 1418 2786 
Q 1159 2488 1159 1978 
L 1159 0 
L 581 0 
L 581 3500 
L 1159 3500 
L 1159 2956 
Q 1356 3278 1631 3431 
Q 1906 3584 2284 3584 
Q 2666 3584 2933 3390 
Q 3200 3197 3328 2828 
z
" transform="scale(0.015625)"/>
       <path id="DejaVuSans-65" d="M 3597 1894 
L 3597 1613 
L 953 1613 
Q 991 1019 1311 708 
Q 1631 397 2203 397 
Q 2534 397 2845 478 
Q 3156 559 3463 722 
L 3463 178 
Q 3153 47 2828 -22 
Q 2503 -91 2169 -91 
Q 1331 -91 842 396 
Q 353 884 353 1716 
Q 353 2575 817 3079 
Q 1281 3584 2069 3584 
Q 2775 3584 3186 3129 
Q 3597 2675 3597 1894 
z
M 3022 2063 
Q 3016 2534 2758 2815 
Q 2500 3097 2075 3097 
Q 1594 3097 1305 2825 
Q 1016 2553 972 2059 
L 3022 2063 
z
" transform="scale(0.015625)"/>
       <path id="DejaVuSans-20" transform="scale(0.015625)"/>
       <path id="DejaVuSans-28" d="M 1984 4856 
Q 1566 4138 1362 3434 
Q 1159 2731 1159 2009 
Q 1159 1288 1364 580 
Q 1569 -128 1984 -844 
L 1484 -844 
Q 1016 -109 783 600 
Q 550 1309 550 2009 
Q 550 2706 781 3412 
Q 1013 4119 1484 4856 
L 1984 4856 
z
" transform="scale(0.015625)"/>
       <path id="DejaVuSans-73" d="M 2834 3397 
L 2834 2853 
Q 2591 2978 2328 3040 
Q 2066 3103 1784 3103 
Q 1356 3103 1142 2972 
Q 928 2841 928 2578 
Q 928 2378 1081 2264 
Q 1234 2150 1697 2047 
L 1894 2003 
Q 2506 1872 2764 1633 
Q 3022 1394 3022 966 
Q 3022 478 2636 193 
Q 2250 -91 1575 -91 
Q 1294 -91 989 -36 
Q 684 19 347 128 
L 347 722 
Q 666 556 975 473 
Q 1284 391 1588 391 
Q 1994 391 2212 530 
Q 2431 669 2431 922 
Q 2431 1156 2273 1281 
Q 2116 1406 1581 1522 
L 1381 1569 
Q 847 1681 609 1914 
Q 372 2147 372 2553 
Q 372 3047 722 3315 
Q 1072 3584 1716 3584 
Q 2034 3584 2315 3537 
Q 2597 3491 2834 3397 
z
" transform="scale(0.015625)"/>
       <path id="DejaVuSans-29" d="M 513 4856 
L 1013 4856 
Q 1481 4119 1714 3412 
Q 1947 2706 1947 2009 
Q 1947 1309 1714 600 
Q 1481 -109 1013 -844 
L 513 -844 
Q 928 -128 1133 580 
Q 1338 1288 1338 2009 
Q 1338 2731 1133 3434 
Q 928 4138 513 4856 
z
" transform="scale(0.015625)"/>
      </defs>
      <use xlink:href="#DejaVuSans-54"/>
      <use xlink:href="#DejaVuSans-69" x="57.958984"/>
      <use xlink:href="#DejaVuSans-6d" x="85.742188"/>
      <use xlink:href="#DejaVuSans-65" x="183.154297"/>
      <use xlink:href="#DejaVuSans-20" x="244.677734"/>
      <use xlink:href="#DejaVuSans-28" x="276.464844"/>
      <use xlink:href="#DejaVuSans-73" x="315.478516"/>
      <use xlink:href="#DejaVuSans-29" x="367.578125"/>
     </g>
    </g>
   </g>
   <g id="matplotlib.axis_2">
    <g id="ytick_1">
     <g id="line2d_13">
      <path d="M 90 359.661962 
L 648 359.661962 
" clip-path="url(#pf8bc3851c1)" style="fill: none; stroke: #b0b0b0; stroke-width: 0.8; stroke-linecap: square"/>
     </g>
     <g id="line2d_14">
      <defs>
       <path id="m10c7ff27de" d="M 0 0 
L -3.5 0 
" style="stroke: #000000; stroke-width: 0.8"/>
      </defs>
      <g>
       <use xlink:href="#m10c7ff27de" x="90" y="359.661962" style="stroke: #000000; stroke-width: 0.8"/>
      </g>
     </g>
     <g id="text_8">
      <!-- −68 -->
      <g transform="translate(61.895313 363.461181) scale(0.1 -0.1)">
       <defs>
        <path id="DejaVuSans-2212" d="M 678 2272 
L 4684 2272 
L 4684 1741 
L 678 1741 
L 678 2272 
z
" transform="scale(0.015625)"/>
       </defs>
       <use xlink:href="#DejaVuSans-2212"/>
       <use xlink:href="#DejaVuSans-36" x="83.789062"/>
       <use xlink:href="#DejaVuSans-38" x="147.412109"/>
      </g>
     </g>
    </g>
    <g id="ytick_2">
     <g id="line2d_15">
      <path d="M 90 318.519003 
L 648 318.519003 
" clip-path="url(#pf8bc3851c1)" style="fill: none; stroke: #b0b0b0; stroke-width: 0.8; stroke-linecap: square"/>
     </g>
     <g id="line2d_16">
      <g>
       <use xlink:href="#m10c7ff27de" x="90" y="318.519003" style="stroke: #000000; stroke-width: 0.8"/>
      </g>
     </g>
     <g id="text_9">
      <!-- −66 -->
      <g transform="translate(61.895313 322.318222) scale(0.1 -0.1)">
       <use xlink:href="#DejaVuSans-2212"/>
       <use xlink:href="#DejaVuSans-36" x="83.789062"/>
       <use xlink:href="#DejaVuSans-36" x="147.412109"/>
      </g>
     </g>
    </g>
    <g id="ytick_3">
     <g id="line2d_17">
      <path d="M 90 277.376045 
L 648 277.376045 
" clip-path="url(#pf8bc3851c1)" style="fill: none; stroke: #b0b0b0; stroke-width: 0.8; stroke-linecap: square"/>
     </g>
     <g id="line2d_18">
      <g>
       <use xlink:href="#m10c7ff27de" x="90" y="277.376045" style="stroke: #000000; stroke-width: 0.8"/>
      </g>
     </g>
     <g id="text_10">
      <!-- −64 -->
      <g transform="translate(61.895313 281.175263) scale(0.1 -0.1)">
       <use xlink:href="#DejaVuSans-2212"/>
       <use xlink:href="#DejaVuSans-36" x="83.789062"/>
       <use xlink:href="#DejaVuSans-34" x="147.412109"/>
      </g>
     </g>
    </g>
    <g id="ytick_4">
     <g id="line2d_19">
      <path d="M 90 236.233086 
L 648 236.233086 
" clip-path="url(#pf8bc3851c1)" style="fill: none; stroke: #b0b0b0; stroke-width: 0.8; stroke-linecap: square"/>
     </g>
     <g id="line2d_20">
      <g>
       <use xlink:href="#m10c7ff27de" x="90" y="236.233086" style="stroke: #000000; stroke-width: 0.8"/>
      </g>
     </g>
     <g id="text_11">
      <!-- −62 -->
      <g transform="translate(61.895313 240.032305) scale(0.1 -0.1)">
       <use xlink:href="#DejaVuSans-2212"/>
       <use xlink:href="#DejaVuSans-36" x="83.789062"/>
       <use xlink:href="#DejaVuSans-32" x="147.412109"/>
      </g>
     </g>
    </g>
    <g id="ytick_5">
     <g id="line2d_21">
      <path d="M 90 195.090127 
L 648 195.090127 
" clip-path="url(#pf8bc3851c1)" style="fill: none; stroke: #b0b0b0; stroke-width: 0.8; stroke-linecap: square"/>
     </g>
     <g id="line2d_22">
      <g>
       <use xlink:href="#m10c7ff27de" x="90" y="195.090127" style="stroke: #000000; stroke-width: 0.8"/>
      </g>
     </g>
     <g id="text_12">
      <!-- −60 -->
      <g transform="translate(61.895313 198.889346) scale(0.1 -0.1)">
       <use xlink:href="#DejaVuSans-2212"/>
       <use xlink:href="#DejaVuSans-36" x="83.789062"/>
       <use xlink:href="#DejaVuSans-30" x="147.412109"/>
      </g>
     </g>
    </g>
    <g id="ytick_6">
     <g id="line2d_23">
      <path d="M 90 153.947169 
L 648 153.947169 
" clip-path="url(#pf8bc3851c1)" style="fill: none; stroke: #b0b0b0; stroke-width: 0.8; stroke-linecap: square"/>
     </g>
     <g id="line2d_24">
      <g>
       <use xlink:href="#m10c7ff27de" x="90" y="153.947169" style="stroke: #000000; stroke-width: 0.8"/>
      </g>
     </g>
     <g id="text_13">
      <!-- −58 -->
      <g transform="translate(61.895313 157.746388) scale(0.1 -0.1)">
       <defs>
        <path id="DejaVuSans-35" d="M 691 4666 
L 3169 4666 
L 3169 4134 
L 1269 4134 
L 1269 2991 
Q 1406 3038 1543 3061 
Q 1681 3084 1819 3084 
Q 2600 3084 3056 2656 
Q 3513 2228 3513 1497 
Q 3513 744 3044 326 
Q 2575 -91 1722 -91 
Q 1428 -91 1123 -41 
Q 819 9 494 109 
L 494 744 
Q 775 591 1075 516 
Q 1375 441 1709 441 
Q 2250 441 2565 725 
Q 2881 1009 2881 1497 
Q 2881 1984 2565 2268 
Q 2250 2553 1709 2553 
Q 1456 2553 1204 2497 
Q 953 2441 691 2322 
L 691 4666 
z
" transform="scale(0.015625)"/>
       </defs>
       <use xlink:href="#DejaVuSans-2212"/>
       <use xlink:href="#DejaVuSans-35" x="83.789062"/>
       <use xlink:href="#DejaVuSans-38" x="147.412109"/>
      </g>
     </g>
    </g>
    <g id="ytick_7">
     <g id="line2d_25">
      <path d="M 90 112.80421 
L 648 112.80421 
" clip-path="url(#pf8bc3851c1)" style="fill: none; stroke: #b0b0b0; stroke-width: 0.8; stroke-linecap: square"/>
     </g>
     <g id="line2d_26">
      <g>
       <use xlink:href="#m10c7ff27de" x="90" y="112.80421" style="stroke: #000000; stroke-width: 0.8"/>
      </g>
     </g>
     <g id="text_14">
      <!-- −56 -->
      <g transform="translate(61.895313 116.603429) scale(0.1 -0.1)">
       <use xlink:href="#DejaVuSans-2212"/>
       <use xlink:href="#DejaVuSans-35" x="83.789062"/>
       <use xlink:href="#DejaVuSans-36" x="147.412109"/>
      </g>
     </g>
    </g>
    <g id="ytick_8">
     <g id="line2d_27">
      <path d="M 90 71.661252 
L 648 71.661252 
" clip-path="url(#pf8bc3851c1)" style="fill: none; stroke: #b0b0b0; stroke-width: 0.8; stroke-linecap: square"/>
     </g>
     <g id="line2d_28">
      <g>
       <use xlink:href="#m10c7ff27de" x="90" y="71.661252" style="stroke: #000000; stroke-width: 0.8"/>
      </g>
     </g>
     <g id="text_15">
      <!-- −54 -->
      <g transform="translate(61.895313 75.46047) scale(0.1 -0.1)">
       <use xlink:href="#DejaVuSans-2212"/>
       <use xlink:href="#DejaVuSans-35" x="83.789062"/>
       <use xlink:href="#DejaVuSans-34" x="147.412109"/>
      </g>
     </g>
    </g>
    <g id="text_16">
     <!-- Power (arbitrary units) -->
     <g transform="translate(55.815625 274.4225) rotate(-90) scale(0.1 -0.1)">
      <defs>
       <path id="DejaVuSans-50" d="M 1259 4147 
L 1259 2394 
L 2053 2394 
Q 2494 2394 2734 2622 
Q 2975 2850 2975 3272 
Q 2975 3691 2734 3919 
Q 2494 4147 2053 4147 
L 1259 4147 
z
M 628 4666 
L 2053 4666 
Q 2838 4666 3239 4311 
Q 3641 3956 3641 3272 
Q 3641 2581 3239 2228 
Q 2838 1875 2053 1875 
L 1259 1875 
L 1259 0 
L 628 0 
L 628 4666 
z
" transform="scale(0.015625)"/>
       <path id="DejaVuSans-6f" d="M 1959 3097 
Q 1497 3097 1228 2736 
Q 959 2375 959 1747 
Q 959 1119 1226 758 
Q 1494 397 1959 397 
Q 2419 397 2687 759 
Q 2956 1122 2956 1747 
Q 2956 2369 2687 2733 
Q 2419 3097 1959 3097 
z
M 1959 3584 
Q 2709 3584 3137 3096 
Q 3566 2609 3566 1747 
Q 3566 888 3137 398 
Q 2709 -91 1959 -91 
Q 1206 -91 779 398 
Q 353 888 353 1747 
Q 353 2609 779 3096 
Q 1206 3584 1959 3584 
z
" transform="scale(0.015625)"/>
       <path id="DejaVuSans-77" d="M 269 3500 
L 844 3500 
L 1563 769 
L 2278 3500 
L 2956 3500 
L 3675 769 
L 4391 3500 
L 4966 3500 
L 4050 0 
L 3372 0 
L 2619 2869 
L 1863 0 
L 1184 0 
L 269 3500 
z
" transform="scale(0.015625)"/>
       <path id="DejaVuSans-72" d="M 2631 2963 
Q 2534 3019 2420 3045 
Q 2306 3072 2169 3072 
Q 1681 3072 1420 2755 
Q 1159 2438 1159 1844 
L 1159 0 
L 581 0 
L 581 3500 
L 1159 3500 
L 1159 2956 
Q 1341 3275 1631 3429 
Q 1922 3584 2338 3584 
Q 2397 3584 2469 3576 
Q 2541 3569 2628 3553 
L 2631 2963 
z
" transform="scale(0.015625)"/>
       <path id="DejaVuSans-61" d="M 2194 1759 
Q 1497 1759 1228 1600 
Q 959 1441 959 1056 
Q 959 750 1161 570 
Q 1363 391 1709 391 
Q 2188 391 2477 730 
Q 2766 1069 2766 1631 
L 2766 1759 
L 2194 1759 
z
M 3341 1997 
L 3341 0 
L 2766 0 
L 2766 531 
Q 2569 213 2275 61 
Q 1981 -91 1556 -91 
Q 1019 -91 701 211 
Q 384 513 384 1019 
Q 384 1609 779 1909 
Q 1175 2209 1959 2209 
L 2766 2209 
L 2766 2266 
Q 2766 2663 2505 2880 
Q 2244 3097 1772 3097 
Q 1472 3097 1187 3025 
Q 903 2953 641 2809 
L 641 3341 
Q 956 3463 1253 3523 
Q 1550 3584 1831 3584 
Q 2591 3584 2966 3190 
Q 3341 2797 3341 1997 
z
" transform="scale(0.015625)"/>
       <path id="DejaVuSans-62" d="M 3116 1747 
Q 3116 2381 2855 2742 
Q 2594 3103 2138 3103 
Q 1681 3103 1420 2742 
Q 1159 2381 1159 1747 
Q 1159 1113 1420 752 
Q 1681 391 2138 391 
Q 2594 391 2855 752 
Q 3116 1113 3116 1747 
z
M 1159 2969 
Q 1341 3281 1617 3432 
Q 1894 3584 2278 3584 
Q 2916 3584 3314 3078 
Q 3713 2572 3713 1747 
Q 3713 922 3314 415 
Q 2916 -91 2278 -91 
Q 1894 -91 1617 61 
Q 1341 213 1159 525 
L 1159 0 
L 581 0 
L 581 4863 
L 1159 4863 
L 1159 2969 
z
" transform="scale(0.015625)"/>
       <path id="DejaVuSans-74" d="M 1172 4494 
L 1172 3500 
L 2356 3500 
L 2356 3053 
L 1172 3053 
L 1172 1153 
Q 1172 725 1289 603 
Q 1406 481 1766 481 
L 2356 481 
L 2356 0 
L 1766 0 
Q 1100 0 847 248 
Q 594 497 594 1153 
L 594 3053 
L 172 3053 
L 172 3500 
L 594 3500 
L 594 4494 
L 1172 4494 
z
" transform="scale(0.015625)"/>
       <path id="DejaVuSans-79" d="M 2059 -325 
Q 1816 -950 1584 -1140 
Q 1353 -1331 966 -1331 
L 506 -1331 
L 506 -850 
L 844 -850 
Q 1081 -850 1212 -737 
Q 1344 -625 1503 -206 
L 1606 56 
L 191 3500 
L 800 3500 
L 1894 763 
L 2988 3500 
L 3597 3500 
L 2059 -325 
z
" transform="scale(0.015625)"/>
       <path id="DejaVuSans-75" d="M 544 1381 
L 544 3500 
L 1119 3500 
L 1119 1403 
Q 1119 906 1312 657 
Q 1506 409 1894 409 
Q 2359 409 2629 706 
Q 2900 1003 2900 1516 
L 2900 3500 
L 3475 3500 
L 3475 0 
L 2900 0 
L 2900 538 
Q 2691 219 2414 64 
Q 2138 -91 1772 -91 
Q 1169 -91 856 284 
Q 544 659 544 1381 
z
M 1991 3584 
L 1991 3584 
z
" transform="scale(0.015625)"/>
       <path id="DejaVuSans-6e" d="M 3513 2113 
L 3513 0 
L 2938 0 
L 2938 2094 
Q 2938 2591 2744 2837 
Q 2550 3084 2163 3084 
Q 1697 3084 1428 2787 
Q 1159 2491 1159 1978 
L 1159 0 
L 581 0 
L 581 3500 
L 1159 3500 
L 1159 2956 
Q 1366 3272 1645 3428 
Q 1925 3584 2291 3584 
Q 2894 3584 3203 3211 
Q 3513 2838 3513 2113 
z
" transform="scale(0.015625)"/>
      </defs>
      <use xlink:href="#DejaVuSans-50"/>
      <use xlink:href="#DejaVuSans-6f" x="56.677734"/>
      <use xlink:href="#DejaVuSans-77" x="117.859375"/>
      <use xlink:href="#DejaVuSans-65" x="199.646484"/>
      <use xlink:href="#DejaVuSans-72" x="261.169922"/>
      <use xlink:href="#DejaVuSans-20" x="302.283203"/>
      <use xlink:href="#DejaVuSans-28" x="334.070312"/>
      <use xlink:href="#DejaVuSans-61" x="373.083984"/>
      <use xlink:href="#DejaVuSans-72" x="434.363281"/>
      <use xlink:href="#DejaVuSans-62" x="475.476562"/>
      <use xlink:href="#DejaVuSans-69" x="538.953125"/>
      <use xlink:href="#DejaVuSans-74" x="566.736328"/>
      <use xlink:href="#DejaVuSans-72" x="605.945312"/>
      <use xlink:href="#DejaVuSans-61" x="647.058594"/>
      <use xlink:href="#DejaVuSans-72" x="708.337891"/>
      <use xlink:href="#DejaVuSans-79" x="749.451172"/>
      <use xlink:href="#DejaVuSans-20" x="808.630859"/>
      <use xlink:href="#DejaVuSans-75" x="840.417969"/>
      <use xlink:href="#DejaVuSans-6e" x="903.796875"/>
      <use xlink:href="#DejaVuSans-69" x="967.175781"/>
      <use xlink:href="#DejaVuSans-74" x="994.958984"/>
      <use xlink:href="#DejaVuSans-73" x="1034.167969"/>
      <use xlink:href="#DejaVuSans-29" x="1086.267578"/>
     </g>
    </g>
   </g>
   <g id="line2d_29">
    <path d="M 115.363636 369.356018 
L 119.957014 369.230095 
L 121.577758 368.971866 
L 122.6684 368.580947 
L 123.533304 368.036797 
L 124.284072 367.298302 
L 124.979039 366.293621 
L 125.651179 364.913866 
L 126.315709 363.016776 
L 126.982776 360.405864 
L 127.659989 356.808908 
L 128.349883 351.87923 
L 129.057532 345.130274 
L 130.160856 331.829853 
L 130.916696 319.428274 
L 131.708045 301.069821 
L 132.134157 292.801589 
L 132.801224 285.599745 
L 133.5875 273.27346 
L 133.957811 271.68328 
L 134.749161 246.205469 
L 135.101717 236.378407 
L 136.364832 197.026344 
L 136.410487 197.226127 
L 136.681879 198.441229 
L 136.722461 198.11878 
L 137.090236 194.174977 
L 137.386992 187.254308 
L 137.693893 180.365368 
L 137.846076 179.826723 
L 137.879049 180.115032 
L 138.117468 182.327691 
L 138.165659 181.741451 
L 138.444661 176.894089 
L 139.29942 151.194902 
L 139.616467 144.388046 
L 139.728067 140.954741 
L 140.047651 132.471382 
L 140.412889 128.862726 
L 140.554926 126.107022 
L 141.325984 113.147429 
L 141.546649 110.84625 
L 142.135088 98.957015 
L 142.528227 84.389831 
L 143.390595 69.076611 
L 143.423568 68.685669 
L 143.494586 69.167202 
L 143.882652 71.563999 
L 143.956207 71.519705 
L 144.498991 71.075729 
L 145.051921 68.35543 
L 145.47296 67.241986 
L 145.772252 66.96457 
L 145.99038 67.033006 
L 146.236409 67.383562 
L 146.561065 68.286352 
L 146.982104 70.190017 
L 147.299151 71.317087 
L 147.753162 71.564751 
L 147.775989 71.436377 
L 148.212246 68.687953 
L 148.260437 69.259529 
L 148.742349 76.616046 
L 149.378979 92.425476 
L 149.751826 105.606883 
L 150.763841 119.635012 
L 151.517144 131.720989 
L 151.780928 134.481168 
L 152.189284 146.388677 
L 152.364294 150.677332 
L 153.368699 179.595234 
L 153.594437 182.327442 
L 153.657846 181.765847 
L 153.875974 179.82415 
L 153.954602 180.09049 
L 154.177803 181.213634 
L 154.667324 194.138854 
L 154.99198 197.59018 
L 155.103581 198.441432 
L 155.174599 198.140077 
L 155.445991 197.020091 
L 155.458673 197.410735 
L 156.163786 216.371043 
L 156.501124 226.234403 
L 157.335592 247.401841 
L 157.776921 257.004285 
L 158.355215 272.202115 
L 159.113591 274.573487 
L 159.894795 283.706203 
L 160.391925 287.500878 
L 161.051383 290.063823 
L 161.632213 291.508026 
L 162.131879 292.212458 
L 162.555454 292.46167 
L 162.938447 292.438661 
L 163.346804 292.178115 
L 163.833788 291.579816 
L 164.434909 290.458462 
L 165.180604 288.558982 
L 165.860352 286.261444 
L 166.923094 279.697638 
L 167.924963 273.706754 
L 169.322506 271.935566 
L 171.105579 250.008207 
L 172.262166 241.276744 
L 174.945652 214.879663 
L 176.371096 204.020226 
L 177.190345 197.020606 
L 177.276582 197.11197 
L 178.585352 198.444114 
L 178.623398 198.377684 
L 180.490171 194.900071 
L 181.796405 191.512542 
L 182.24788 190.184055 
L 183.264967 186.374418 
L 184.13748 183.908314 
L 184.880638 182.422174 
L 185.50966 181.619256 
L 186.042299 181.270793 
L 186.511528 181.217422 
L 186.968076 181.393786 
L 187.46267 181.838055 
L 188.028282 182.666047 
L 188.685203 184.049206 
L 189.448652 186.210282 
L 190.331311 189.418617 
L 190.95526 191.483124 
L 192.114384 194.449469 
L 192.910806 196.343203 
L 194.18153 198.442913 
L 194.308349 198.318589 
L 195.574001 197.020511 
L 195.596828 197.194436 
L 197.742603 214.34598 
L 198.40967 219.842919 
L 201.171784 246.668969 
L 202.130534 254.200258 
L 203.492568 272.083809 
L 204.971275 274.245467 
L 206.655429 286.726457 
L 208.266028 293.101176 
L 208.699748 295.106602 
L 210.163238 310.362425 
L 211.436499 321.485866 
L 212.773169 330.647203 
L 214.064184 338.009663 
L 215.768629 346.248705 
L 216.973408 351.248186 
L 218.152823 355.227835 
L 219.314483 358.39286 
L 220.465998 360.906483 
L 221.617513 362.902026 
L 222.78171 364.48564 
L 223.976343 365.742434 
L 225.229313 366.741223 
L 226.578665 367.532563 
L 228.082736 368.153903 
L 229.832836 368.630442 
L 231.993829 368.978849 
L 234.910661 369.209056 
L 239.60803 369.3299 
L 252.662759 369.359844 
L 322.580509 369.253739 
L 324.320463 369.012219 
L 325.45676 368.638095 
L 326.341955 368.115218 
L 327.102868 367.40497 
L 327.802908 366.43894 
L 328.475047 365.117947 
L 329.139578 363.298572 
L 329.806645 360.790362 
L 330.481321 357.343922 
L 331.168679 352.61682 
L 331.873792 346.138912 
L 332.923851 333.880329 
L 333.682228 322.071115 
L 334.27574 309.588711 
L 335.135572 291.946047 
L 335.73162 285.229185 
L 336.492533 273.290823 
L 336.867917 271.68328 
L 337.659266 246.205469 
L 338.011822 236.378407 
L 339.274938 197.026344 
L 339.320593 197.226127 
L 339.591985 198.441229 
L 339.632567 198.11878 
L 340.000341 194.174977 
L 340.297097 187.254308 
L 340.603999 180.365368 
L 340.756182 179.826723 
L 340.789154 180.115032 
L 341.027574 182.327691 
L 341.075765 181.741451 
L 341.354766 176.894089 
L 342.209525 151.194902 
L 342.526572 144.388046 
L 342.638173 140.954741 
L 342.957756 132.471382 
L 343.322994 128.862726 
L 343.465031 126.107022 
L 344.23609 113.147429 
L 344.456755 110.84625 
L 345.045194 98.957015 
L 345.438332 84.389831 
L 346.3007 69.076611 
L 346.333673 68.685669 
L 346.404692 69.167202 
L 346.792757 71.563999 
L 346.866312 71.519705 
L 347.409097 71.075729 
L 347.962027 68.35543 
L 348.383065 67.241986 
L 348.682358 66.96457 
L 348.900486 67.033006 
L 349.146514 67.383562 
L 349.471171 68.286352 
L 349.892209 70.190017 
L 350.209256 71.317087 
L 350.663267 71.564751 
L 350.686095 71.436377 
L 351.122352 68.687953 
L 351.170543 69.259529 
L 351.652454 76.616046 
L 352.289085 92.425476 
L 352.661932 105.606883 
L 353.673946 119.635012 
L 354.42725 131.720989 
L 354.691033 134.481168 
L 355.09939 146.388677 
L 355.2744 150.677332 
L 356.278805 179.595234 
L 356.504542 182.327442 
L 356.567951 181.765847 
L 356.78608 179.82415 
L 356.864708 180.09049 
L 357.087909 181.213634 
L 357.577429 194.138854 
L 357.902085 197.59018 
L 358.013686 198.441432 
L 358.084705 198.140077 
L 358.356097 197.020091 
L 358.368779 197.410735 
L 359.073891 216.371043 
L 359.411229 226.234403 
L 360.245697 247.401841 
L 360.687027 257.004285 
L 361.26532 272.202115 
L 362.023697 274.573487 
L 362.804901 283.706203 
L 363.302031 287.500878 
L 363.961488 290.063823 
L 364.542319 291.508026 
L 365.041985 292.212458 
L 365.46556 292.46167 
L 365.848552 292.438661 
L 366.256909 292.178115 
L 366.743893 291.579816 
L 367.345014 290.458462 
L 368.090709 288.558982 
L 368.770458 286.261444 
L 369.8332 279.697638 
L 370.835068 273.706754 
L 372.232612 271.935566 
L 374.015684 250.008207 
L 375.172272 241.276744 
L 377.855758 214.879663 
L 379.281201 204.020226 
L 380.100451 197.020606 
L 380.186688 197.11197 
L 381.495458 198.444114 
L 381.533504 198.377684 
L 383.400277 194.900071 
L 384.70651 191.512542 
L 385.157985 190.184055 
L 386.175072 186.374418 
L 387.047586 183.908314 
L 387.790744 182.422174 
L 388.419765 181.619256 
L 388.952404 181.270793 
L 389.421634 181.217422 
L 389.878182 181.393786 
L 390.372775 181.838055 
L 390.938387 182.666047 
L 391.595308 184.049206 
L 392.358758 186.210282 
L 393.241417 189.418617 
L 393.865365 191.483124 
L 395.024489 194.449469 
L 395.820911 196.343203 
L 397.091636 198.442913 
L 397.218455 198.318589 
L 398.484107 197.020511 
L 398.506934 197.194436 
L 400.652708 214.34598 
L 401.319775 219.842919 
L 404.081889 246.668969 
L 405.040639 254.200258 
L 406.402673 272.083809 
L 407.881381 274.245467 
L 409.565535 286.726457 
L 411.176134 293.101176 
L 411.609854 295.106602 
L 413.073343 310.362425 
L 414.346604 321.485866 
L 415.683274 330.647203 
L 416.97429 338.009663 
L 418.678735 346.248705 
L 419.883514 351.248186 
L 421.062928 355.227835 
L 422.224589 358.39286 
L 423.376104 360.906483 
L 424.527619 362.902026 
L 425.691815 364.48564 
L 426.886449 365.742434 
L 428.139418 366.741223 
L 429.488771 367.532563 
L 430.992842 368.153903 
L 432.742941 368.630442 
L 434.903934 368.978849 
L 437.820767 369.209056 
L 442.518136 369.3299 
L 455.572865 369.359844 
L 525.490614 369.253739 
L 527.230568 369.012219 
L 528.366865 368.638095 
L 529.25206 368.115218 
L 530.012973 367.40497 
L 530.713013 366.43894 
L 531.385153 365.117947 
L 532.049683 363.298572 
L 532.71675 360.790362 
L 533.391427 357.343922 
L 534.078784 352.61682 
L 534.783897 346.138912 
L 535.833957 333.880329 
L 536.592333 322.071115 
L 537.185845 309.588711 
L 538.045677 291.946047 
L 538.641725 285.229185 
L 539.402638 273.290823 
L 539.778022 271.68328 
L 540.569371 246.205469 
L 540.921928 236.378407 
L 542.185043 197.026344 
L 542.230698 197.226127 
L 542.50209 198.441229 
L 542.542672 198.11878 
L 542.910447 194.174977 
L 543.207203 187.254308 
L 543.514104 180.365368 
L 543.666287 179.826723 
L 543.69926 180.115032 
L 543.937679 182.327691 
L 543.98587 181.741451 
L 544.264872 176.894089 
L 545.119631 151.194902 
L 545.436678 144.388046 
L 545.548278 140.954741 
L 545.867862 132.471382 
L 546.2331 128.862726 
L 546.375137 126.107022 
L 547.146195 113.147429 
L 547.36686 110.84625 
L 547.955299 98.957015 
L 548.348438 84.389831 
L 549.210806 69.076611 
L 549.243778 68.685669 
L 549.314797 69.167202 
L 549.702863 71.563999 
L 549.776418 71.519705 
L 550.319202 71.075729 
L 550.872132 68.35543 
L 551.293171 67.241986 
L 551.592463 66.96457 
L 551.810591 67.033006 
L 552.05662 67.383562 
L 552.381276 68.286352 
L 552.802314 70.190017 
L 553.119362 71.317087 
L 553.573373 71.564751 
L 553.5962 71.436377 
L 554.032457 68.687953 
L 554.080648 69.259529 
L 554.56256 76.616046 
L 555.19919 92.425476 
L 555.572037 105.606883 
L 556.584052 119.635012 
L 557.337355 131.720989 
L 557.601138 134.481168 
L 558.009495 146.388677 
L 558.184505 150.677332 
L 559.18891 179.595234 
L 559.414648 182.327442 
L 559.478057 181.765847 
L 559.696185 179.82415 
L 559.774813 180.09049 
L 559.998014 181.213634 
L 560.487535 194.138854 
L 560.812191 197.59018 
L 560.923791 198.441432 
L 560.99481 198.140077 
L 561.266202 197.020091 
L 561.278884 197.410735 
L 561.983997 216.371043 
L 562.321335 226.234403 
L 563.155803 247.401841 
L 563.597132 257.004285 
L 564.175426 272.202115 
L 564.933802 274.573487 
L 565.715006 283.706203 
L 566.212136 287.500878 
L 566.871594 290.063823 
L 567.452424 291.508026 
L 567.95209 292.212458 
L 568.375665 292.46167 
L 568.758658 292.438661 
L 569.167014 292.178115 
L 569.653999 291.579816 
L 570.25512 290.458462 
L 571.000815 288.558982 
L 571.680563 286.261444 
L 572.743305 279.697638 
L 573.745174 273.706754 
L 575.142717 271.935566 
L 576.92579 250.008207 
L 578.082377 241.276744 
L 580.765863 214.879663 
L 582.191307 204.020226 
L 583.010556 197.020606 
L 583.096793 197.11197 
L 584.405563 198.444114 
L 584.443609 198.377684 
L 586.310382 194.900071 
L 587.616616 191.512542 
L 588.068091 190.184055 
L 589.085178 186.374418 
L 589.957691 183.908314 
L 590.700849 182.422174 
L 591.329871 181.619256 
L 591.86251 181.270793 
L 592.331739 181.217422 
L 592.788287 181.393786 
L 593.282881 181.838055 
L 593.848492 182.666047 
L 594.505414 184.049206 
L 595.268863 186.210282 
L 596.151522 189.418617 
L 596.775471 191.483124 
L 597.934595 194.449469 
L 598.731017 196.343203 
L 600.001741 198.442913 
L 600.12856 198.318589 
L 601.394212 197.020511 
L 601.417039 197.194436 
L 603.562814 214.34598 
L 604.229881 219.842919 
L 606.991995 246.668969 
L 607.950745 254.200258 
L 609.312779 272.083809 
L 610.791486 274.245467 
L 612.47564 286.726457 
L 614.086239 293.101176 
L 614.519959 295.106602 
L 615.983449 310.362425 
L 617.256709 321.485866 
L 618.59338 330.647203 
L 619.884395 338.009663 
L 621.58884 346.248705 
L 622.636364 350.65227 
L 622.636364 350.65227 
" clip-path="url(#pf8bc3851c1)" style="fill: none; stroke: #d62728; stroke-width: 1.5; stroke-linecap: square"/>
   </g>
   <g id="patch_3">
    <path d="M 90 384.48 
L 90 51.84 
" style="fill: none; stroke: #000000; stroke-width: 0.8; stroke-linejoin: miter; stroke-linecap: square"/>
   </g>
   <g id="patch_4">
    <path d="M 648 384.48 
L 648 51.84 
" style="fill: none; stroke: #000000; stroke-width: 0.8; stroke-linejoin: miter; stroke-linecap: square"/>
   </g>
   <g id="patch_5">
    <path d="M 90 384.48 
L 648 384.48 
" style="fill: none; stroke: #000000; stroke-width: 0.8; stroke-linejoin: miter; stroke-linecap: square"/>
   </g>
   <g id="patch_6">
    <path d="M 90 51.84 
L 648 51.84 
" style="fill: none; stroke: #000000; stroke-width: 0.8; stroke-linejoin: miter; stroke-linecap: square"/>
   </g>
   <g id="text_17">
    <!-- Simulated Output Power from Pulse -->
    <g transform="translate(262.315313 45.84) scale(0.12 -0.12)">
     <defs>
      <path id="DejaVuSans-53" d="M 3425 4513 
L 3425 3897 
Q 3066 4069 2747 4153 
Q 2428 4238 2131 4238 
Q 1616 4238 1336 4038 
Q 1056 3838 1056 3469 
Q 1056 3159 1242 3001 
Q 1428 2844 1947 2747 
L 2328 2669 
Q 3034 2534 3370 2195 
Q 3706 1856 3706 1288 
Q 3706 609 3251 259 
Q 2797 -91 1919 -91 
Q 1588 -91 1214 -16 
Q 841 59 441 206 
L 441 856 
Q 825 641 1194 531 
Q 1563 422 1919 422 
Q 2459 422 2753 634 
Q 3047 847 3047 1241 
Q 3047 1584 2836 1778 
Q 2625 1972 2144 2069 
L 1759 2144 
Q 1053 2284 737 2584 
Q 422 2884 422 3419 
Q 422 4038 858 4394 
Q 1294 4750 2059 4750 
Q 2388 4750 2728 4690 
Q 3069 4631 3425 4513 
z
" transform="scale(0.015625)"/>
      <path id="DejaVuSans-6c" d="M 603 4863 
L 1178 4863 
L 1178 0 
L 603 0 
L 603 4863 
z
" transform="scale(0.015625)"/>
      <path id="DejaVuSans-64" d="M 2906 2969 
L 2906 4863 
L 3481 4863 
L 3481 0 
L 2906 0 
L 2906 525 
Q 2725 213 2448 61 
Q 2172 -91 1784 -91 
Q 1150 -91 751 415 
Q 353 922 353 1747 
Q 353 2572 751 3078 
Q 1150 3584 1784 3584 
Q 2172 3584 2448 3432 
Q 2725 3281 2906 2969 
z
M 947 1747 
Q 947 1113 1208 752 
Q 1469 391 1925 391 
Q 2381 391 2643 752 
Q 2906 1113 2906 1747 
Q 2906 2381 2643 2742 
Q 2381 3103 1925 3103 
Q 1469 3103 1208 2742 
Q 947 2381 947 1747 
z
" transform="scale(0.015625)"/>
      <path id="DejaVuSans-4f" d="M 2522 4238 
Q 1834 4238 1429 3725 
Q 1025 3213 1025 2328 
Q 1025 1447 1429 934 
Q 1834 422 2522 422 
Q 3209 422 3611 934 
Q 4013 1447 4013 2328 
Q 4013 3213 3611 3725 
Q 3209 4238 2522 4238 
z
M 2522 4750 
Q 3503 4750 4090 4092 
Q 4678 3434 4678 2328 
Q 4678 1225 4090 567 
Q 3503 -91 2522 -91 
Q 1538 -91 948 565 
Q 359 1222 359 2328 
Q 359 3434 948 4092 
Q 1538 4750 2522 4750 
z
" transform="scale(0.015625)"/>
      <path id="DejaVuSans-70" d="M 1159 525 
L 1159 -1331 
L 581 -1331 
L 581 3500 
L 1159 3500 
L 1159 2969 
Q 1341 3281 1617 3432 
Q 1894 3584 2278 3584 
Q 2916 3584 3314 3078 
Q 3713 2572 3713 1747 
Q 3713 922 3314 415 
Q 2916 -91 2278 -91 
Q 1894 -91 1617 61 
Q 1341 213 1159 525 
z
M 3116 1747 
Q 3116 2381 2855 2742 
Q 2594 3103 2138 3103 
Q 1681 3103 1420 2742 
Q 1159 2381 1159 1747 
Q 1159 1113 1420 752 
Q 1681 391 2138 391 
Q 2594 391 2855 752 
Q 3116 1113 3116 1747 
z
" transform="scale(0.015625)"/>
      <path id="DejaVuSans-66" d="M 2375 4863 
L 2375 4384 
L 1825 4384 
Q 1516 4384 1395 4259 
Q 1275 4134 1275 3809 
L 1275 3500 
L 2222 3500 
L 2222 3053 
L 1275 3053 
L 1275 0 
L 697 0 
L 697 3053 
L 147 3053 
L 147 3500 
L 697 3500 
L 697 3744 
Q 697 4328 969 4595 
Q 1241 4863 1831 4863 
L 2375 4863 
z
" transform="scale(0.015625)"/>
     </defs>
     <use xlink:href="#DejaVuSans-53"/>
     <use xlink:href="#DejaVuSans-69" x="63.476562"/>
     <use xlink:href="#DejaVuSans-6d" x="91.259766"/>
     <use xlink:href="#DejaVuSans-75" x="188.671875"/>
     <use xlink:href="#DejaVuSans-6c" x="252.050781"/>
     <use xlink:href="#DejaVuSans-61" x="279.833984"/>
     <use xlink:href="#DejaVuSans-74" x="341.113281"/>
     <use xlink:href="#DejaVuSans-65" x="380.322266"/>
     <use xlink:href="#DejaVuSans-64" x="441.845703"/>
     <use xlink:href="#DejaVuSans-20" x="505.322266"/>
     <use xlink:href="#DejaVuSans-4f" x="537.109375"/>
     <use xlink:href="#DejaVuSans-75" x="615.820312"/>
     <use xlink:href="#DejaVuSans-74" x="679.199219"/>
     <use xlink:href="#DejaVuSans-70" x="718.408203"/>
     <use xlink:href="#DejaVuSans-75" x="781.884766"/>
     <use xlink:href="#DejaVuSans-74" x="845.263672"/>
     <use xlink:href="#DejaVuSans-20" x="884.472656"/>
     <use xlink:href="#DejaVuSans-50" x="916.259766"/>
     <use xlink:href="#DejaVuSans-6f" x="972.9375"/>
     <use xlink:href="#DejaVuSans-77" x="1034.119141"/>
     <use xlink:href="#DejaVuSans-65" x="1115.90625"/>
     <use xlink:href="#DejaVuSans-72" x="1177.429688"/>
     <use xlink:href="#DejaVuSans-20" x="1218.542969"/>
     <use xlink:href="#DejaVuSans-66" x="1250.330078"/>
     <use xlink:href="#DejaVuSans-72" x="1285.535156"/>
     <use xlink:href="#DejaVuSans-6f" x="1324.398438"/>
     <use xlink:href="#DejaVuSans-6d" x="1385.580078"/>
     <use xlink:href="#DejaVuSans-20" x="1482.992188"/>
     <use xlink:href="#DejaVuSans-50" x="1514.779297"/>
     <use xlink:href="#DejaVuSans-75" x="1573.332031"/>
     <use xlink:href="#DejaVuSans-6c" x="1636.710938"/>
     <use xlink:href="#DejaVuSans-73" x="1664.494141"/>
     <use xlink:href="#DejaVuSans-65" x="1716.59375"/>
    </g>
   </g>
  </g>
 </g>
 <defs>
  <clipPath id="pf8bc3851c1">
   <rect x="90" y="51.84" width="558" height="332.64"/>
  </clipPath>
 </defs>
</svg>
