<?xml version="1.0" encoding="utf-8" standalone="no"?>
<!DOCTYPE svg PUBLIC "-//W3C//DTD SVG 1.1//EN"
  "http://www.w3.org/Graphics/SVG/1.1/DTD/svg11.dtd">
<svg xmlns:xlink="http://www.w3.org/1999/xlink" width="864pt" height="504pt" viewBox="0 0 864 504" xmlns="http://www.w3.org/2000/svg" version="1.1">
 <metadata>
  <rdf:RDF xmlns:dc="http://purl.org/dc/elements/1.1/" xmlns:cc="http://creativecommons.org/ns#" xmlns:rdf="http://www.w3.org/1999/02/22-rdf-syntax-ns#">
   <cc:Work>
    <dc:type rdf:resource="http://purl.org/dc/dcmitype/StillImage"/>
    <dc:date>2025-08-08T13:23:29.663965</dc:date>
    <dc:format>image/svg+xml</dc:format>
    <dc:creator>
     <cc:Agent>
      <dc:title>Matplotlib v3.7.5, https://matplotlib.org/</dc:title>
     </cc:Agent>
    </dc:creator>
   </cc:Work>
  </rdf:RDF>
 </metadata>
 <defs>
  <style type="text/css">*{stroke-linejoin: round; stroke-linecap: butt}</style>
 </defs>
 <g id="figure_1">
  <g id="patch_1">
   <path d="M 0 504 
L 864 504 
L 864 0 
L 0 0 
z
" style="fill: #ffffff"/>
  </g>
  <g id="axes_1">
   <g id="patch_2">
    <path d="M 52.85 462.04 
L 809.215 462.04 
L 809.215 29.04 
L 52.85 29.04 
z
" style="fill: #ffffff"/>
   </g>
   <g id="matplotlib.axis_1">
    <g id="xtick_1">
     <g id="line2d_1">
      <path d="M 87.230227 462.04 
L 87.230227 29.04 
" clip-path="url(#p668bc863f1)" style="fill: none; stroke-dasharray: 2.96,1.28; stroke-dashoffset: 0; stroke: #b0b0b0; stroke-width: 0.8"/>
     </g>
     <g id="line2d_2">
      <defs>
       <path id="m8b7833bc07" d="M 0 0 
L 0 3.5 
" style="stroke: #000000; stroke-width: 0.8"/>
      </defs>
      <g>
       <use xlink:href="#m8b7833bc07" x="87.230227" y="462.04" style="stroke: #000000; stroke-width: 0.8"/>
      </g>
     </g>
     <g id="text_1">
      <!-- 0.0 -->
      <g transform="translate(79.278665 476.638438) scale(0.1 -0.1)">
       <defs>
        <path id="DejaVuSans-30" d="M 2034 4250 
Q 1547 4250 1301 3770 
Q 1056 3291 1056 2328 
Q 1056 1369 1301 889 
Q 1547 409 2034 409 
Q 2525 409 2770 889 
Q 3016 1369 3016 2328 
Q 3016 3291 2770 3770 
Q 2525 4250 2034 4250 
z
M 2034 4750 
Q 2819 4750 3233 4129 
Q 3647 3509 3647 2328 
Q 3647 1150 3233 529 
Q 2819 -91 2034 -91 
Q 1250 -91 836 529 
Q 422 1150 422 2328 
Q 422 3509 836 4129 
Q 1250 4750 2034 4750 
z
" transform="scale(0.015625)"/>
        <path id="DejaVuSans-2e" d="M 684 794 
L 1344 794 
L 1344 0 
L 684 0 
L 684 794 
z
" transform="scale(0.015625)"/>
       </defs>
       <use xlink:href="#DejaVuSans-30"/>
       <use xlink:href="#DejaVuSans-2e" x="63.623047"/>
       <use xlink:href="#DejaVuSans-30" x="95.410156"/>
      </g>
     </g>
    </g>
    <g id="xtick_2">
     <g id="line2d_3">
      <path d="M 173.18187 462.04 
L 173.18187 29.04 
" clip-path="url(#p668bc863f1)" style="fill: none; stroke-dasharray: 2.96,1.28; stroke-dashoffset: 0; stroke: #b0b0b0; stroke-width: 0.8"/>
     </g>
     <g id="line2d_4">
      <g>
       <use xlink:href="#m8b7833bc07" x="173.18187" y="462.04" style="stroke: #000000; stroke-width: 0.8"/>
      </g>
     </g>
     <g id="text_2">
      <!-- 0.5 -->
      <g transform="translate(165.230307 476.638438) scale(0.1 -0.1)">
       <defs>
        <path id="DejaVuSans-35" d="M 691 4666 
L 3169 4666 
L 3169 4134 
L 1269 4134 
L 1269 2991 
Q 1406 3038 1543 3061 
Q 1681 3084 1819 3084 
Q 2600 3084 3056 2656 
Q 3513 2228 3513 1497 
Q 3513 744 3044 326 
Q 2575 -91 1722 -91 
Q 1428 -91 1123 -41 
Q 819 9 494 109 
L 494 744 
Q 775 591 1075 516 
Q 1375 441 1709 441 
Q 2250 441 2565 725 
Q 2881 1009 2881 1497 
Q 2881 1984 2565 2268 
Q 2250 2553 1709 2553 
Q 1456 2553 1204 2497 
Q 953 2441 691 2322 
L 691 4666 
z
" transform="scale(0.015625)"/>
       </defs>
       <use xlink:href="#DejaVuSans-30"/>
       <use xlink:href="#DejaVuSans-2e" x="63.623047"/>
       <use xlink:href="#DejaVuSans-35" x="95.410156"/>
      </g>
     </g>
    </g>
    <g id="xtick_3">
     <g id="line2d_5">
      <path d="M 259.133512 462.04 
L 259.133512 29.04 
" clip-path="url(#p668bc863f1)" style="fill: none; stroke-dasharray: 2.96,1.28; stroke-dashoffset: 0; stroke: #b0b0b0; stroke-width: 0.8"/>
     </g>
     <g id="line2d_6">
      <g>
       <use xlink:href="#m8b7833bc07" x="259.133512" y="462.04" style="stroke: #000000; stroke-width: 0.8"/>
      </g>
     </g>
     <g id="text_3">
      <!-- 1.0 -->
      <g transform="translate(251.18195 476.638438) scale(0.1 -0.1)">
       <defs>
        <path id="DejaVuSans-31" d="M 794 531 
L 1825 531 
L 1825 4091 
L 703 3866 
L 703 4441 
L 1819 4666 
L 2450 4666 
L 2450 531 
L 3481 531 
L 3481 0 
L 794 0 
L 794 531 
z
" transform="scale(0.015625)"/>
       </defs>
       <use xlink:href="#DejaVuSans-31"/>
       <use xlink:href="#DejaVuSans-2e" x="63.623047"/>
       <use xlink:href="#DejaVuSans-30" x="95.410156"/>
      </g>
     </g>
    </g>
    <g id="xtick_4">
     <g id="line2d_7">
      <path d="M 345.085155 462.04 
L 345.085155 29.04 
" clip-path="url(#p668bc863f1)" style="fill: none; stroke-dasharray: 2.96,1.28; stroke-dashoffset: 0; stroke: #b0b0b0; stroke-width: 0.8"/>
     </g>
     <g id="line2d_8">
      <g>
       <use xlink:href="#m8b7833bc07" x="345.085155" y="462.04" style="stroke: #000000; stroke-width: 0.8"/>
      </g>
     </g>
     <g id="text_4">
      <!-- 1.5 -->
      <g transform="translate(337.133593 476.638438) scale(0.1 -0.1)">
       <use xlink:href="#DejaVuSans-31"/>
       <use xlink:href="#DejaVuSans-2e" x="63.623047"/>
       <use xlink:href="#DejaVuSans-35" x="95.410156"/>
      </g>
     </g>
    </g>
    <g id="xtick_5">
     <g id="line2d_9">
      <path d="M 431.036798 462.04 
L 431.036798 29.04 
" clip-path="url(#p668bc863f1)" style="fill: none; stroke-dasharray: 2.96,1.28; stroke-dashoffset: 0; stroke: #b0b0b0; stroke-width: 0.8"/>
     </g>
     <g id="line2d_10">
      <g>
       <use xlink:href="#m8b7833bc07" x="431.036798" y="462.04" style="stroke: #000000; stroke-width: 0.8"/>
      </g>
     </g>
     <g id="text_5">
      <!-- 2.0 -->
      <g transform="translate(423.085235 476.638438) scale(0.1 -0.1)">
       <defs>
        <path id="DejaVuSans-32" d="M 1228 531 
L 3431 531 
L 3431 0 
L 469 0 
L 469 531 
Q 828 903 1448 1529 
Q 2069 2156 2228 2338 
Q 2531 2678 2651 2914 
Q 2772 3150 2772 3378 
Q 2772 3750 2511 3984 
Q 2250 4219 1831 4219 
Q 1534 4219 1204 4116 
Q 875 4013 500 3803 
L 500 4441 
Q 881 4594 1212 4672 
Q 1544 4750 1819 4750 
Q 2544 4750 2975 4387 
Q 3406 4025 3406 3419 
Q 3406 3131 3298 2873 
Q 3191 2616 2906 2266 
Q 2828 2175 2409 1742 
Q 1991 1309 1228 531 
z
" transform="scale(0.015625)"/>
       </defs>
       <use xlink:href="#DejaVuSans-32"/>
       <use xlink:href="#DejaVuSans-2e" x="63.623047"/>
       <use xlink:href="#DejaVuSans-30" x="95.410156"/>
      </g>
     </g>
    </g>
    <g id="xtick_6">
     <g id="line2d_11">
      <path d="M 516.98844 462.04 
L 516.98844 29.04 
" clip-path="url(#p668bc863f1)" style="fill: none; stroke-dasharray: 2.96,1.28; stroke-dashoffset: 0; stroke: #b0b0b0; stroke-width: 0.8"/>
     </g>
     <g id="line2d_12">
      <g>
       <use xlink:href="#m8b7833bc07" x="516.98844" y="462.04" style="stroke: #000000; stroke-width: 0.8"/>
      </g>
     </g>
     <g id="text_6">
      <!-- 2.5 -->
      <g transform="translate(509.036878 476.638438) scale(0.1 -0.1)">
       <use xlink:href="#DejaVuSans-32"/>
       <use xlink:href="#DejaVuSans-2e" x="63.623047"/>
       <use xlink:href="#DejaVuSans-35" x="95.410156"/>
      </g>
     </g>
    </g>
    <g id="xtick_7">
     <g id="line2d_13">
      <path d="M 602.940083 462.04 
L 602.940083 29.04 
" clip-path="url(#p668bc863f1)" style="fill: none; stroke-dasharray: 2.96,1.28; stroke-dashoffset: 0; stroke: #b0b0b0; stroke-width: 0.8"/>
     </g>
     <g id="line2d_14">
      <g>
       <use xlink:href="#m8b7833bc07" x="602.940083" y="462.04" style="stroke: #000000; stroke-width: 0.8"/>
      </g>
     </g>
     <g id="text_7">
      <!-- 3.0 -->
      <g transform="translate(594.98852 476.638438) scale(0.1 -0.1)">
       <defs>
        <path id="DejaVuSans-33" d="M 2597 2516 
Q 3050 2419 3304 2112 
Q 3559 1806 3559 1356 
Q 3559 666 3084 287 
Q 2609 -91 1734 -91 
Q 1441 -91 1130 -33 
Q 819 25 488 141 
L 488 750 
Q 750 597 1062 519 
Q 1375 441 1716 441 
Q 2309 441 2620 675 
Q 2931 909 2931 1356 
Q 2931 1769 2642 2001 
Q 2353 2234 1838 2234 
L 1294 2234 
L 1294 2753 
L 1863 2753 
Q 2328 2753 2575 2939 
Q 2822 3125 2822 3475 
Q 2822 3834 2567 4026 
Q 2313 4219 1838 4219 
Q 1578 4219 1281 4162 
Q 984 4106 628 3988 
L 628 4550 
Q 988 4650 1302 4700 
Q 1616 4750 1894 4750 
Q 2613 4750 3031 4423 
Q 3450 4097 3450 3541 
Q 3450 3153 3228 2886 
Q 3006 2619 2597 2516 
z
" transform="scale(0.015625)"/>
       </defs>
       <use xlink:href="#DejaVuSans-33"/>
       <use xlink:href="#DejaVuSans-2e" x="63.623047"/>
       <use xlink:href="#DejaVuSans-30" x="95.410156"/>
      </g>
     </g>
    </g>
    <g id="xtick_8">
     <g id="line2d_15">
      <path d="M 688.891725 462.04 
L 688.891725 29.04 
" clip-path="url(#p668bc863f1)" style="fill: none; stroke-dasharray: 2.96,1.28; stroke-dashoffset: 0; stroke: #b0b0b0; stroke-width: 0.8"/>
     </g>
     <g id="line2d_16">
      <g>
       <use xlink:href="#m8b7833bc07" x="688.891725" y="462.04" style="stroke: #000000; stroke-width: 0.8"/>
      </g>
     </g>
     <g id="text_8">
      <!-- 3.5 -->
      <g transform="translate(680.940163 476.638438) scale(0.1 -0.1)">
       <use xlink:href="#DejaVuSans-33"/>
       <use xlink:href="#DejaVuSans-2e" x="63.623047"/>
       <use xlink:href="#DejaVuSans-35" x="95.410156"/>
      </g>
     </g>
    </g>
    <g id="xtick_9">
     <g id="line2d_17">
      <path d="M 774.843368 462.04 
L 774.843368 29.04 
" clip-path="url(#p668bc863f1)" style="fill: none; stroke-dasharray: 2.96,1.28; stroke-dashoffset: 0; stroke: #b0b0b0; stroke-width: 0.8"/>
     </g>
     <g id="line2d_18">
      <g>
       <use xlink:href="#m8b7833bc07" x="774.843368" y="462.04" style="stroke: #000000; stroke-width: 0.8"/>
      </g>
     </g>
     <g id="text_9">
      <!-- 4.0 -->
      <g transform="translate(766.891805 476.638438) scale(0.1 -0.1)">
       <defs>
        <path id="DejaVuSans-34" d="M 2419 4116 
L 825 1625 
L 2419 1625 
L 2419 4116 
z
M 2253 4666 
L 3047 4666 
L 3047 1625 
L 3713 1625 
L 3713 1100 
L 3047 1100 
L 3047 0 
L 2419 0 
L 2419 1100 
L 313 1100 
L 313 1709 
L 2253 4666 
z
" transform="scale(0.015625)"/>
       </defs>
       <use xlink:href="#DejaVuSans-34"/>
       <use xlink:href="#DejaVuSans-2e" x="63.623047"/>
       <use xlink:href="#DejaVuSans-30" x="95.410156"/>
      </g>
     </g>
    </g>
    <g id="text_10">
     <!-- Time (s) -->
     <g transform="translate(410.703594 490.316563) scale(0.1 -0.1)">
      <defs>
       <path id="DejaVuSans-54" d="M -19 4666 
L 3928 4666 
L 3928 4134 
L 2272 4134 
L 2272 0 
L 1638 0 
L 1638 4134 
L -19 4134 
L -19 4666 
z
" transform="scale(0.015625)"/>
       <path id="DejaVuSans-69" d="M 603 3500 
L 1178 3500 
L 1178 0 
L 603 0 
L 603 3500 
z
M 603 4863 
L 1178 4863 
L 1178 4134 
L 603 4134 
L 603 4863 
z
" transform="scale(0.015625)"/>
       <path id="DejaVuSans-6d" d="M 3328 2828 
Q 3544 3216 3844 3400 
Q 4144 3584 4550 3584 
Q 5097 3584 5394 3201 
Q 5691 2819 5691 2113 
L 5691 0 
L 5113 0 
L 5113 2094 
Q 5113 2597 4934 2840 
Q 4756 3084 4391 3084 
Q 3944 3084 3684 2787 
Q 3425 2491 3425 1978 
L 3425 0 
L 2847 0 
L 2847 2094 
Q 2847 2600 2669 2842 
Q 2491 3084 2119 3084 
Q 1678 3084 1418 2786 
Q 1159 2488 1159 1978 
L 1159 0 
L 581 0 
L 581 3500 
L 1159 3500 
L 1159 2956 
Q 1356 3278 1631 3431 
Q 1906 3584 2284 3584 
Q 2666 3584 2933 3390 
Q 3200 3197 3328 2828 
z
" transform="scale(0.015625)"/>
       <path id="DejaVuSans-65" d="M 3597 1894 
L 3597 1613 
L 953 1613 
Q 991 1019 1311 708 
Q 1631 397 2203 397 
Q 2534 397 2845 478 
Q 3156 559 3463 722 
L 3463 178 
Q 3153 47 2828 -22 
Q 2503 -91 2169 -91 
Q 1331 -91 842 396 
Q 353 884 353 1716 
Q 353 2575 817 3079 
Q 1281 3584 2069 3584 
Q 2775 3584 3186 3129 
Q 3597 2675 3597 1894 
z
M 3022 2063 
Q 3016 2534 2758 2815 
Q 2500 3097 2075 3097 
Q 1594 3097 1305 2825 
Q 1016 2553 972 2059 
L 3022 2063 
z
" transform="scale(0.015625)"/>
       <path id="DejaVuSans-20" transform="scale(0.015625)"/>
       <path id="DejaVuSans-28" d="M 1984 4856 
Q 1566 4138 1362 3434 
Q 1159 2731 1159 2009 
Q 1159 1288 1364 580 
Q 1569 -128 1984 -844 
L 1484 -844 
Q 1016 -109 783 600 
Q 550 1309 550 2009 
Q 550 2706 781 3412 
Q 1013 4119 1484 4856 
L 1984 4856 
z
" transform="scale(0.015625)"/>
       <path id="DejaVuSans-73" d="M 2834 3397 
L 2834 2853 
Q 2591 2978 2328 3040 
Q 2066 3103 1784 3103 
Q 1356 3103 1142 2972 
Q 928 2841 928 2578 
Q 928 2378 1081 2264 
Q 1234 2150 1697 2047 
L 1894 2003 
Q 2506 1872 2764 1633 
Q 3022 1394 3022 966 
Q 3022 478 2636 193 
Q 2250 -91 1575 -91 
Q 1294 -91 989 -36 
Q 684 19 347 128 
L 347 722 
Q 666 556 975 473 
Q 1284 391 1588 391 
Q 1994 391 2212 530 
Q 2431 669 2431 922 
Q 2431 1156 2273 1281 
Q 2116 1406 1581 1522 
L 1381 1569 
Q 847 1681 609 1914 
Q 372 2147 372 2553 
Q 372 3047 722 3315 
Q 1072 3584 1716 3584 
Q 2034 3584 2315 3537 
Q 2597 3491 2834 3397 
z
" transform="scale(0.015625)"/>
       <path id="DejaVuSans-29" d="M 513 4856 
L 1013 4856 
Q 1481 4119 1714 3412 
Q 1947 2706 1947 2009 
Q 1947 1309 1714 600 
Q 1481 -109 1013 -844 
L 513 -844 
Q 928 -128 1133 580 
Q 1338 1288 1338 2009 
Q 1338 2731 1133 3434 
Q 928 4138 513 4856 
z
" transform="scale(0.015625)"/>
      </defs>
      <use xlink:href="#DejaVuSans-54"/>
      <use xlink:href="#DejaVuSans-69" x="57.958984"/>
      <use xlink:href="#DejaVuSans-6d" x="85.742188"/>
      <use xlink:href="#DejaVuSans-65" x="183.154297"/>
      <use xlink:href="#DejaVuSans-20" x="244.677734"/>
      <use xlink:href="#DejaVuSans-28" x="276.464844"/>
      <use xlink:href="#DejaVuSans-73" x="315.478516"/>
      <use xlink:href="#DejaVuSans-29" x="367.578125"/>
     </g>
    </g>
   </g>
   <g id="matplotlib.axis_2">
    <g id="ytick_1">
     <g id="line2d_19">
      <path d="M 52.85 452.550435 
L 809.215 452.550435 
" clip-path="url(#p668bc863f1)" style="fill: none; stroke-dasharray: 2.96,1.28; stroke-dashoffset: 0; stroke: #b0b0b0; stroke-width: 0.8"/>
     </g>
     <g id="line2d_20">
      <defs>
       <path id="m1ed79ba8da" d="M 0 0 
L -3.5 0 
" style="stroke: #000000; stroke-width: 0.8"/>
      </defs>
      <g>
       <use xlink:href="#m1ed79ba8da" x="52.85" y="452.550435" style="stroke: #000000; stroke-width: 0.8"/>
      </g>
     </g>
     <g id="text_11">
      <!-- 388 -->
      <g style="fill: #1f77b4" transform="translate(26.7625 456.349653) scale(0.1 -0.1)">
       <defs>
        <path id="DejaVuSans-38" d="M 2034 2216 
Q 1584 2216 1326 1975 
Q 1069 1734 1069 1313 
Q 1069 891 1326 650 
Q 1584 409 2034 409 
Q 2484 409 2743 651 
Q 3003 894 3003 1313 
Q 3003 1734 2745 1975 
Q 2488 2216 2034 2216 
z
M 1403 2484 
Q 997 2584 770 2862 
Q 544 3141 544 3541 
Q 544 4100 942 4425 
Q 1341 4750 2034 4750 
Q 2731 4750 3128 4425 
Q 3525 4100 3525 3541 
Q 3525 3141 3298 2862 
Q 3072 2584 2669 2484 
Q 3125 2378 3379 2068 
Q 3634 1759 3634 1313 
Q 3634 634 3220 271 
Q 2806 -91 2034 -91 
Q 1263 -91 848 271 
Q 434 634 434 1313 
Q 434 1759 690 2068 
Q 947 2378 1403 2484 
z
M 1172 3481 
Q 1172 3119 1398 2916 
Q 1625 2713 2034 2713 
Q 2441 2713 2670 2916 
Q 2900 3119 2900 3481 
Q 2900 3844 2670 4047 
Q 2441 4250 2034 4250 
Q 1625 4250 1398 4047 
Q 1172 3844 1172 3481 
z
" transform="scale(0.015625)"/>
       </defs>
       <use xlink:href="#DejaVuSans-33"/>
       <use xlink:href="#DejaVuSans-38" x="63.623047"/>
       <use xlink:href="#DejaVuSans-38" x="127.246094"/>
      </g>
     </g>
    </g>
    <g id="ytick_2">
     <g id="line2d_21">
      <path d="M 52.85 400.065586 
L 809.215 400.065586 
" clip-path="url(#p668bc863f1)" style="fill: none; stroke-dasharray: 2.96,1.28; stroke-dashoffset: 0; stroke: #b0b0b0; stroke-width: 0.8"/>
     </g>
     <g id="line2d_22">
      <g>
       <use xlink:href="#m1ed79ba8da" x="52.85" y="400.065586" style="stroke: #000000; stroke-width: 0.8"/>
      </g>
     </g>
     <g id="text_12">
      <!-- 390 -->
      <g style="fill: #1f77b4" transform="translate(26.7625 403.864805) scale(0.1 -0.1)">
       <defs>
        <path id="DejaVuSans-39" d="M 703 97 
L 703 672 
Q 941 559 1184 500 
Q 1428 441 1663 441 
Q 2288 441 2617 861 
Q 2947 1281 2994 2138 
Q 2813 1869 2534 1725 
Q 2256 1581 1919 1581 
Q 1219 1581 811 2004 
Q 403 2428 403 3163 
Q 403 3881 828 4315 
Q 1253 4750 1959 4750 
Q 2769 4750 3195 4129 
Q 3622 3509 3622 2328 
Q 3622 1225 3098 567 
Q 2575 -91 1691 -91 
Q 1453 -91 1209 -44 
Q 966 3 703 97 
z
M 1959 2075 
Q 2384 2075 2632 2365 
Q 2881 2656 2881 3163 
Q 2881 3666 2632 3958 
Q 2384 4250 1959 4250 
Q 1534 4250 1286 3958 
Q 1038 3666 1038 3163 
Q 1038 2656 1286 2365 
Q 1534 2075 1959 2075 
z
" transform="scale(0.015625)"/>
       </defs>
       <use xlink:href="#DejaVuSans-33"/>
       <use xlink:href="#DejaVuSans-39" x="63.623047"/>
       <use xlink:href="#DejaVuSans-30" x="127.246094"/>
      </g>
     </g>
    </g>
    <g id="ytick_3">
     <g id="line2d_23">
      <path d="M 52.85 347.580738 
L 809.215 347.580738 
" clip-path="url(#p668bc863f1)" style="fill: none; stroke-dasharray: 2.96,1.28; stroke-dashoffset: 0; stroke: #b0b0b0; stroke-width: 0.8"/>
     </g>
     <g id="line2d_24">
      <g>
       <use xlink:href="#m1ed79ba8da" x="52.85" y="347.580738" style="stroke: #000000; stroke-width: 0.8"/>
      </g>
     </g>
     <g id="text_13">
      <!-- 392 -->
      <g style="fill: #1f77b4" transform="translate(26.7625 351.379956) scale(0.1 -0.1)">
       <use xlink:href="#DejaVuSans-33"/>
       <use xlink:href="#DejaVuSans-39" x="63.623047"/>
       <use xlink:href="#DejaVuSans-32" x="127.246094"/>
      </g>
     </g>
    </g>
    <g id="ytick_4">
     <g id="line2d_25">
      <path d="M 52.85 295.095889 
L 809.215 295.095889 
" clip-path="url(#p668bc863f1)" style="fill: none; stroke-dasharray: 2.96,1.28; stroke-dashoffset: 0; stroke: #b0b0b0; stroke-width: 0.8"/>
     </g>
     <g id="line2d_26">
      <g>
       <use xlink:href="#m1ed79ba8da" x="52.85" y="295.095889" style="stroke: #000000; stroke-width: 0.8"/>
      </g>
     </g>
     <g id="text_14">
      <!-- 394 -->
      <g style="fill: #1f77b4" transform="translate(26.7625 298.895108) scale(0.1 -0.1)">
       <use xlink:href="#DejaVuSans-33"/>
       <use xlink:href="#DejaVuSans-39" x="63.623047"/>
       <use xlink:href="#DejaVuSans-34" x="127.246094"/>
      </g>
     </g>
    </g>
    <g id="ytick_5">
     <g id="line2d_27">
      <path d="M 52.85 242.611041 
L 809.215 242.611041 
" clip-path="url(#p668bc863f1)" style="fill: none; stroke-dasharray: 2.96,1.28; stroke-dashoffset: 0; stroke: #b0b0b0; stroke-width: 0.8"/>
     </g>
     <g id="line2d_28">
      <g>
       <use xlink:href="#m1ed79ba8da" x="52.85" y="242.611041" style="stroke: #000000; stroke-width: 0.8"/>
      </g>
     </g>
     <g id="text_15">
      <!-- 396 -->
      <g style="fill: #1f77b4" transform="translate(26.7625 246.410259) scale(0.1 -0.1)">
       <defs>
        <path id="DejaVuSans-36" d="M 2113 2584 
Q 1688 2584 1439 2293 
Q 1191 2003 1191 1497 
Q 1191 994 1439 701 
Q 1688 409 2113 409 
Q 2538 409 2786 701 
Q 3034 994 3034 1497 
Q 3034 2003 2786 2293 
Q 2538 2584 2113 2584 
z
M 3366 4563 
L 3366 3988 
Q 3128 4100 2886 4159 
Q 2644 4219 2406 4219 
Q 1781 4219 1451 3797 
Q 1122 3375 1075 2522 
Q 1259 2794 1537 2939 
Q 1816 3084 2150 3084 
Q 2853 3084 3261 2657 
Q 3669 2231 3669 1497 
Q 3669 778 3244 343 
Q 2819 -91 2113 -91 
Q 1303 -91 875 529 
Q 447 1150 447 2328 
Q 447 3434 972 4092 
Q 1497 4750 2381 4750 
Q 2619 4750 2861 4703 
Q 3103 4656 3366 4563 
z
" transform="scale(0.015625)"/>
       </defs>
       <use xlink:href="#DejaVuSans-33"/>
       <use xlink:href="#DejaVuSans-39" x="63.623047"/>
       <use xlink:href="#DejaVuSans-36" x="127.246094"/>
      </g>
     </g>
    </g>
    <g id="ytick_6">
     <g id="line2d_29">
      <path d="M 52.85 190.126192 
L 809.215 190.126192 
" clip-path="url(#p668bc863f1)" style="fill: none; stroke-dasharray: 2.96,1.28; stroke-dashoffset: 0; stroke: #b0b0b0; stroke-width: 0.8"/>
     </g>
     <g id="line2d_30">
      <g>
       <use xlink:href="#m1ed79ba8da" x="52.85" y="190.126192" style="stroke: #000000; stroke-width: 0.8"/>
      </g>
     </g>
     <g id="text_16">
      <!-- 398 -->
      <g style="fill: #1f77b4" transform="translate(26.7625 193.925411) scale(0.1 -0.1)">
       <use xlink:href="#DejaVuSans-33"/>
       <use xlink:href="#DejaVuSans-39" x="63.623047"/>
       <use xlink:href="#DejaVuSans-38" x="127.246094"/>
      </g>
     </g>
    </g>
    <g id="ytick_7">
     <g id="line2d_31">
      <path d="M 52.85 137.641344 
L 809.215 137.641344 
" clip-path="url(#p668bc863f1)" style="fill: none; stroke-dasharray: 2.96,1.28; stroke-dashoffset: 0; stroke: #b0b0b0; stroke-width: 0.8"/>
     </g>
     <g id="line2d_32">
      <g>
       <use xlink:href="#m1ed79ba8da" x="52.85" y="137.641344" style="stroke: #000000; stroke-width: 0.8"/>
      </g>
     </g>
     <g id="text_17">
      <!-- 400 -->
      <g style="fill: #1f77b4" transform="translate(26.7625 141.440563) scale(0.1 -0.1)">
       <use xlink:href="#DejaVuSans-34"/>
       <use xlink:href="#DejaVuSans-30" x="63.623047"/>
       <use xlink:href="#DejaVuSans-30" x="127.246094"/>
      </g>
     </g>
    </g>
    <g id="ytick_8">
     <g id="line2d_33">
      <path d="M 52.85 85.156495 
L 809.215 85.156495 
" clip-path="url(#p668bc863f1)" style="fill: none; stroke-dasharray: 2.96,1.28; stroke-dashoffset: 0; stroke: #b0b0b0; stroke-width: 0.8"/>
     </g>
     <g id="line2d_34">
      <g>
       <use xlink:href="#m1ed79ba8da" x="52.85" y="85.156495" style="stroke: #000000; stroke-width: 0.8"/>
      </g>
     </g>
     <g id="text_18">
      <!-- 402 -->
      <g style="fill: #1f77b4" transform="translate(26.7625 88.955714) scale(0.1 -0.1)">
       <use xlink:href="#DejaVuSans-34"/>
       <use xlink:href="#DejaVuSans-30" x="63.623047"/>
       <use xlink:href="#DejaVuSans-32" x="127.246094"/>
      </g>
     </g>
    </g>
    <g id="ytick_9">
     <g id="line2d_35">
      <path d="M 52.85 32.671647 
L 809.215 32.671647 
" clip-path="url(#p668bc863f1)" style="fill: none; stroke-dasharray: 2.96,1.28; stroke-dashoffset: 0; stroke: #b0b0b0; stroke-width: 0.8"/>
     </g>
     <g id="line2d_36">
      <g>
       <use xlink:href="#m1ed79ba8da" x="52.85" y="32.671647" style="stroke: #000000; stroke-width: 0.8"/>
      </g>
     </g>
     <g id="text_19">
      <!-- 404 -->
      <g style="fill: #1f77b4" transform="translate(26.7625 36.470866) scale(0.1 -0.1)">
       <use xlink:href="#DejaVuSans-34"/>
       <use xlink:href="#DejaVuSans-30" x="63.623047"/>
       <use xlink:href="#DejaVuSans-34" x="127.246094"/>
      </g>
     </g>
    </g>
    <g id="text_20">
     <!-- Displacement (µm) -->
     <g style="fill: #1f77b4" transform="translate(20.266875 303.037812) rotate(-90) scale(0.12 -0.12)">
      <defs>
       <path id="DejaVuSans-44" d="M 1259 4147 
L 1259 519 
L 2022 519 
Q 2988 519 3436 956 
Q 3884 1394 3884 2338 
Q 3884 3275 3436 3711 
Q 2988 4147 2022 4147 
L 1259 4147 
z
M 628 4666 
L 1925 4666 
Q 3281 4666 3915 4102 
Q 4550 3538 4550 2338 
Q 4550 1131 3912 565 
Q 3275 0 1925 0 
L 628 0 
L 628 4666 
z
" transform="scale(0.015625)"/>
       <path id="DejaVuSans-70" d="M 1159 525 
L 1159 -1331 
L 581 -1331 
L 581 3500 
L 1159 3500 
L 1159 2969 
Q 1341 3281 1617 3432 
Q 1894 3584 2278 3584 
Q 2916 3584 3314 3078 
Q 3713 2572 3713 1747 
Q 3713 922 3314 415 
Q 2916 -91 2278 -91 
Q 1894 -91 1617 61 
Q 1341 213 1159 525 
z
M 3116 1747 
Q 3116 2381 2855 2742 
Q 2594 3103 2138 3103 
Q 1681 3103 1420 2742 
Q 1159 2381 1159 1747 
Q 1159 1113 1420 752 
Q 1681 391 2138 391 
Q 2594 391 2855 752 
Q 3116 1113 3116 1747 
z
" transform="scale(0.015625)"/>
       <path id="DejaVuSans-6c" d="M 603 4863 
L 1178 4863 
L 1178 0 
L 603 0 
L 603 4863 
z
" transform="scale(0.015625)"/>
       <path id="DejaVuSans-61" d="M 2194 1759 
Q 1497 1759 1228 1600 
Q 959 1441 959 1056 
Q 959 750 1161 570 
Q 1363 391 1709 391 
Q 2188 391 2477 730 
Q 2766 1069 2766 1631 
L 2766 1759 
L 2194 1759 
z
M 3341 1997 
L 3341 0 
L 2766 0 
L 2766 531 
Q 2569 213 2275 61 
Q 1981 -91 1556 -91 
Q 1019 -91 701 211 
Q 384 513 384 1019 
Q 384 1609 779 1909 
Q 1175 2209 1959 2209 
L 2766 2209 
L 2766 2266 
Q 2766 2663 2505 2880 
Q 2244 3097 1772 3097 
Q 1472 3097 1187 3025 
Q 903 2953 641 2809 
L 641 3341 
Q 956 3463 1253 3523 
Q 1550 3584 1831 3584 
Q 2591 3584 2966 3190 
Q 3341 2797 3341 1997 
z
" transform="scale(0.015625)"/>
       <path id="DejaVuSans-63" d="M 3122 3366 
L 3122 2828 
Q 2878 2963 2633 3030 
Q 2388 3097 2138 3097 
Q 1578 3097 1268 2742 
Q 959 2388 959 1747 
Q 959 1106 1268 751 
Q 1578 397 2138 397 
Q 2388 397 2633 464 
Q 2878 531 3122 666 
L 3122 134 
Q 2881 22 2623 -34 
Q 2366 -91 2075 -91 
Q 1284 -91 818 406 
Q 353 903 353 1747 
Q 353 2603 823 3093 
Q 1294 3584 2113 3584 
Q 2378 3584 2631 3529 
Q 2884 3475 3122 3366 
z
" transform="scale(0.015625)"/>
       <path id="DejaVuSans-6e" d="M 3513 2113 
L 3513 0 
L 2938 0 
L 2938 2094 
Q 2938 2591 2744 2837 
Q 2550 3084 2163 3084 
Q 1697 3084 1428 2787 
Q 1159 2491 1159 1978 
L 1159 0 
L 581 0 
L 581 3500 
L 1159 3500 
L 1159 2956 
Q 1366 3272 1645 3428 
Q 1925 3584 2291 3584 
Q 2894 3584 3203 3211 
Q 3513 2838 3513 2113 
z
" transform="scale(0.015625)"/>
       <path id="DejaVuSans-74" d="M 1172 4494 
L 1172 3500 
L 2356 3500 
L 2356 3053 
L 1172 3053 
L 1172 1153 
Q 1172 725 1289 603 
Q 1406 481 1766 481 
L 2356 481 
L 2356 0 
L 1766 0 
Q 1100 0 847 248 
Q 594 497 594 1153 
L 594 3053 
L 172 3053 
L 172 3500 
L 594 3500 
L 594 4494 
L 1172 4494 
z
" transform="scale(0.015625)"/>
       <path id="DejaVuSans-b5" d="M 544 -1331 
L 544 3500 
L 1119 3500 
L 1119 1325 
Q 1119 872 1334 640 
Q 1550 409 1972 409 
Q 2434 409 2667 671 
Q 2900 934 2900 1459 
L 2900 3500 
L 3475 3500 
L 3475 806 
Q 3475 619 3529 530 
Q 3584 441 3700 441 
Q 3728 441 3778 458 
Q 3828 475 3916 513 
L 3916 50 
Q 3788 -22 3673 -56 
Q 3559 -91 3450 -91 
Q 3234 -91 3106 31 
Q 2978 153 2931 403 
Q 2775 156 2548 32 
Q 2322 -91 2016 -91 
Q 1697 -91 1473 31 
Q 1250 153 1119 397 
L 1119 -1331 
L 544 -1331 
z
" transform="scale(0.015625)"/>
      </defs>
      <use xlink:href="#DejaVuSans-44"/>
      <use xlink:href="#DejaVuSans-69" x="77.001953"/>
      <use xlink:href="#DejaVuSans-73" x="104.785156"/>
      <use xlink:href="#DejaVuSans-70" x="156.884766"/>
      <use xlink:href="#DejaVuSans-6c" x="220.361328"/>
      <use xlink:href="#DejaVuSans-61" x="248.144531"/>
      <use xlink:href="#DejaVuSans-63" x="309.423828"/>
      <use xlink:href="#DejaVuSans-65" x="364.404297"/>
      <use xlink:href="#DejaVuSans-6d" x="425.927734"/>
      <use xlink:href="#DejaVuSans-65" x="523.339844"/>
      <use xlink:href="#DejaVuSans-6e" x="584.863281"/>
      <use xlink:href="#DejaVuSans-74" x="648.242188"/>
      <use xlink:href="#DejaVuSans-20" x="687.451172"/>
      <use xlink:href="#DejaVuSans-28" x="719.238281"/>
      <use xlink:href="#DejaVuSans-b5" x="758.251953"/>
      <use xlink:href="#DejaVuSans-6d" x="821.875"/>
      <use xlink:href="#DejaVuSans-29" x="919.287109"/>
     </g>
    </g>
   </g>
   <g id="line2d_37">
    <path d="M 87.230227 442.356711 
L 91.003504 442.238555 
L 92.138066 441.98517 
L 92.903036 441.593183 
L 93.530483 441.018969 
L 94.097764 440.186044 
L 94.647854 438.9569 
L 95.189349 437.172828 
L 95.73944 434.557945 
L 96.306721 430.722802 
L 96.899787 425.085453 
L 97.518639 416.918174 
L 98.163276 405.302077 
L 98.850889 388.68006 
L 99.598669 364.869189 
L 100.423804 331.097358 
L 101.403653 281.205758 
L 102.890617 192.218953 
L 104.386175 106.979488 
L 105.17693 73.663219 
L 105.761401 57.386049 
L 106.19116 50.689398 
L 106.483395 48.842269 
L 106.595132 48.725049 
L 106.629513 48.754707 
L 106.749845 49.101854 
L 106.947534 50.490671 
L 107.23977 54.382595 
L 107.635147 63.019676 
L 108.150857 79.673641 
L 108.829875 109.493426 
L 109.818319 163.914382 
L 112.439844 312.419654 
L 113.376717 351.085098 
L 114.184662 375.816638 
L 114.898061 391.351854 
L 115.534103 400.790354 
L 116.101384 406.204254 
L 116.582713 408.916026 
L 116.978091 410.041745 
L 117.261731 410.315625 
L 117.47661 410.257102 
L 117.734465 409.911407 
L 118.086867 409.000703 
L 118.559601 407.084917 
L 119.187048 403.515188 
L 120.003589 397.470664 
L 121.060794 387.8548 
L 122.444615 373.074277 
L 124.53324 348.056237 
L 127.283693 315.545168 
L 128.590158 302.704394 
L 129.604387 294.776978 
L 130.429523 289.941888 
L 131.099946 287.202291 
L 131.641441 285.814371 
L 132.062604 285.259399 
L 132.38922 285.148809 
L 132.681456 285.287325 
L 133.016667 285.721577 
L 133.429235 286.656276 
L 133.944945 288.433741 
L 134.563797 291.427995 
L 135.311576 296.221631 
L 136.214068 303.543014 
L 137.340035 314.626215 
L 138.878569 332.192787 
L 143.674671 388.469732 
L 145.118659 402.058709 
L 146.399338 412.109053 
L 147.576876 419.677497 
L 148.685652 425.426385 
L 149.742857 429.787894 
L 150.765681 433.101104 
L 151.762721 435.602887 
L 152.742569 437.481272 
L 153.722418 438.89339 
L 154.719457 439.951313 
L 155.776662 440.751985 
L 156.937009 441.349693 
L 158.277855 441.785477 
L 159.962507 442.088603 
L 162.343368 442.272463 
L 166.744092 442.350146 
L 192.598346 442.358182 
L 219.853612 442.247826 
L 221.013959 442.003301 
L 221.796119 441.616862 
L 222.423566 441.058551 
L 222.990847 440.247496 
L 223.540937 439.048946 
L 224.082433 437.306876 
L 224.632523 434.74998 
L 225.199804 430.994454 
L 225.784275 425.559675 
L 226.394532 417.701832 
L 227.039169 406.363675 
L 227.726782 390.094136 
L 228.465966 367.0206 
L 229.291102 333.826935 
L 230.253761 285.485382 
L 231.654772 202.283263 
L 233.296449 107.824334 
L 234.087204 74.25832 
L 234.671675 57.749936 
L 235.110028 50.77728 
L 235.410859 48.842269 
L 235.522596 48.725049 
L 235.556977 48.754707 
L 235.677309 49.101854 
L 235.874998 50.490671 
L 236.167234 54.382595 
L 236.562611 63.019676 
L 237.078321 79.673641 
L 237.757339 109.493426 
L 238.745783 163.914382 
L 241.367308 312.419654 
L 242.304181 351.085098 
L 243.112126 375.816638 
L 243.825525 391.351854 
L 244.461567 400.790354 
L 245.028848 406.204254 
L 245.510177 408.916026 
L 245.905555 410.041745 
L 246.189195 410.315625 
L 246.404074 410.257102 
L 246.661929 409.911407 
L 247.014331 409.000703 
L 247.487065 407.084917 
L 248.114512 403.515188 
L 248.931052 397.470664 
L 249.988258 387.8548 
L 251.372079 373.074277 
L 253.460704 348.056237 
L 256.211157 315.545168 
L 257.517622 302.704394 
L 258.531851 294.776978 
L 259.356987 289.941888 
L 260.02741 287.202291 
L 260.568905 285.814371 
L 260.990068 285.259399 
L 261.316684 285.148809 
L 261.60892 285.287325 
L 261.944131 285.721577 
L 262.356699 286.656276 
L 262.872409 288.433741 
L 263.491261 291.427995 
L 264.23904 296.221631 
L 265.141532 303.543014 
L 266.267499 314.626215 
L 267.806033 332.192787 
L 272.602135 388.469732 
L 274.046122 402.058709 
L 275.326802 412.109053 
L 276.504339 419.677497 
L 277.613116 425.426385 
L 278.670321 429.787894 
L 279.693145 433.101104 
L 280.690184 435.602887 
L 281.670033 437.481272 
L 282.649882 438.89339 
L 283.646921 439.951313 
L 284.704126 440.751985 
L 285.864473 441.349693 
L 287.205319 441.785477 
L 288.889971 442.088603 
L 291.270832 442.272463 
L 295.671556 442.350146 
L 321.52581 442.358182 
L 348.781076 442.247826 
L 349.941423 442.003301 
L 350.723583 441.616862 
L 351.35103 441.058551 
L 351.918311 440.247496 
L 352.468401 439.048946 
L 353.009896 437.306876 
L 353.559987 434.74998 
L 354.127268 430.994454 
L 354.711739 425.559675 
L 355.321996 417.701832 
L 355.966633 406.363675 
L 356.654246 390.094136 
L 357.39343 367.0206 
L 358.218566 333.826935 
L 359.181224 285.485382 
L 360.582236 202.283263 
L 362.223913 107.824334 
L 363.014668 74.25832 
L 363.599139 57.749936 
L 364.037492 50.77728 
L 364.338323 48.842269 
L 364.45006 48.725049 
L 364.484441 48.754707 
L 364.604773 49.101854 
L 364.802462 50.490671 
L 365.094697 54.382595 
L 365.490075 63.019676 
L 366.005785 79.673641 
L 366.684803 109.493426 
L 367.673247 163.914382 
L 370.294772 312.419654 
L 371.231645 351.085098 
L 372.03959 375.816638 
L 372.752989 391.351854 
L 373.389031 400.790354 
L 373.956312 406.204254 
L 374.437641 408.916026 
L 374.833019 410.041745 
L 375.116659 410.315625 
L 375.331538 410.257102 
L 375.589393 409.911407 
L 375.941795 409.000703 
L 376.414529 407.084917 
L 377.041976 403.515188 
L 377.858516 397.470664 
L 378.915722 387.8548 
L 380.299543 373.074277 
L 382.388168 348.056237 
L 385.13862 315.545168 
L 386.445085 302.704394 
L 387.459315 294.776978 
L 388.284451 289.941888 
L 388.954873 287.202291 
L 389.496369 285.814371 
L 389.917532 285.259399 
L 390.244148 285.148809 
L 390.536384 285.287325 
L 390.871595 285.721577 
L 391.284163 286.656276 
L 391.799873 288.433741 
L 392.418725 291.427995 
L 393.166504 296.221631 
L 394.068996 303.543014 
L 395.194963 314.626215 
L 396.733497 332.192787 
L 401.529599 388.469732 
L 402.973586 402.058709 
L 404.254266 412.109053 
L 405.431803 419.677497 
L 406.540579 425.426385 
L 407.597785 429.787894 
L 408.620609 433.101104 
L 409.617648 435.602887 
L 410.597497 437.481272 
L 411.577346 438.89339 
L 412.574385 439.951313 
L 413.63159 440.751985 
L 414.791937 441.349693 
L 416.132783 441.785477 
L 417.817435 442.088603 
L 420.198295 442.272463 
L 424.59902 442.350146 
L 450.453274 442.358182 
L 477.70854 442.247826 
L 478.868887 442.003301 
L 479.651047 441.616862 
L 480.278494 441.058551 
L 480.845774 440.247496 
L 481.395865 439.048946 
L 481.93736 437.306876 
L 482.487451 434.74998 
L 483.054732 430.994454 
L 483.639203 425.559675 
L 484.24946 417.701832 
L 484.894097 406.363675 
L 485.58171 390.094136 
L 486.320894 367.0206 
L 487.14603 333.826935 
L 488.108688 285.485382 
L 489.5097 202.283263 
L 491.151376 107.824334 
L 491.942132 74.25832 
L 492.526603 57.749936 
L 492.964956 50.77728 
L 493.265787 48.842269 
L 493.377524 48.725049 
L 493.411905 48.754707 
L 493.532237 49.101854 
L 493.729926 50.490671 
L 494.022161 54.382595 
L 494.417539 63.019676 
L 494.933249 79.673641 
L 495.612267 109.493426 
L 496.600711 163.914382 
L 499.222236 312.419654 
L 500.159109 351.085098 
L 500.967054 375.816638 
L 501.680453 391.351854 
L 502.316495 400.790354 
L 502.883776 406.204254 
L 503.365105 408.916026 
L 503.760482 410.041745 
L 504.044123 410.315625 
L 504.259002 410.257102 
L 504.516857 409.911407 
L 504.869259 409.000703 
L 505.341993 407.084917 
L 505.96944 403.515188 
L 506.78598 397.470664 
L 507.843185 387.8548 
L 509.227007 373.074277 
L 511.315632 348.056237 
L 514.066084 315.545168 
L 515.372549 302.704394 
L 516.386779 294.776978 
L 517.211914 289.941888 
L 517.882337 287.202291 
L 518.423833 285.814371 
L 518.844996 285.259399 
L 519.171612 285.148809 
L 519.463847 285.287325 
L 519.799059 285.721577 
L 520.211627 286.656276 
L 520.727337 288.433741 
L 521.346188 291.427995 
L 522.093968 296.221631 
L 522.99646 303.543014 
L 524.122426 314.626215 
L 525.660961 332.192787 
L 530.457063 388.469732 
L 531.90105 402.058709 
L 533.18173 412.109053 
L 534.359267 419.677497 
L 535.468043 425.426385 
L 536.525249 429.787894 
L 537.548073 433.101104 
L 538.545112 435.602887 
L 539.524961 437.481272 
L 540.50481 438.89339 
L 541.501849 439.951313 
L 542.559054 440.751985 
L 543.719401 441.349693 
L 545.060247 441.785477 
L 546.744899 442.088603 
L 549.125759 442.272463 
L 553.526483 442.350146 
L 579.380738 442.358182 
L 606.636003 442.247826 
L 607.796351 442.003301 
L 608.57851 441.616862 
L 609.205957 441.058551 
L 609.773238 440.247496 
L 610.323329 439.048946 
L 610.864824 437.306876 
L 611.414915 434.74998 
L 611.982196 430.994454 
L 612.566667 425.559675 
L 613.176923 417.701832 
L 613.821561 406.363675 
L 614.509174 390.094136 
L 615.248358 367.0206 
L 616.073494 333.826935 
L 617.036152 285.485382 
L 618.437164 202.283263 
L 620.07884 107.824334 
L 620.869595 74.25832 
L 621.454067 57.749936 
L 621.89242 50.77728 
L 622.193251 48.842269 
L 622.304988 48.725049 
L 622.339368 48.754707 
L 622.459701 49.101854 
L 622.65739 50.490671 
L 622.949625 54.382595 
L 623.345003 63.019676 
L 623.860713 79.673641 
L 624.539731 109.493426 
L 625.528174 163.914382 
L 628.1497 312.419654 
L 629.086572 351.085098 
L 629.894518 375.816638 
L 630.607916 391.351854 
L 631.243959 400.790354 
L 631.811239 406.204254 
L 632.292569 408.916026 
L 632.687946 410.041745 
L 632.971587 410.315625 
L 633.186466 410.257102 
L 633.444321 409.911407 
L 633.796722 409.000703 
L 634.269456 407.084917 
L 634.896903 403.515188 
L 635.713444 397.470664 
L 636.770649 387.8548 
L 638.154471 373.074277 
L 640.243096 348.056237 
L 642.993548 315.545168 
L 644.300013 302.704394 
L 645.314243 294.776978 
L 646.139378 289.941888 
L 646.809801 287.202291 
L 647.351296 285.814371 
L 647.77246 285.259399 
L 648.099076 285.148809 
L 648.391311 285.287325 
L 648.726523 285.721577 
L 649.139091 286.656276 
L 649.6548 288.433741 
L 650.273652 291.427995 
L 651.021432 296.221631 
L 651.923924 303.543014 
L 653.04989 314.626215 
L 654.588425 332.192787 
L 659.384526 388.469732 
L 660.828514 402.058709 
L 662.109193 412.109053 
L 663.286731 419.677497 
L 664.395507 425.426385 
L 665.452712 429.787894 
L 666.475537 433.101104 
L 667.472576 435.602887 
L 668.452425 437.481272 
L 669.432273 438.89339 
L 670.429312 439.951313 
L 671.486518 440.751985 
L 672.646865 441.349693 
L 673.98771 441.785477 
L 675.672363 442.088603 
L 678.053223 442.272463 
L 682.453947 442.350146 
L 708.308201 442.358182 
L 735.563467 442.247826 
L 736.723814 442.003301 
L 737.505974 441.616862 
L 738.133421 441.058551 
L 738.700702 440.247496 
L 739.250793 439.048946 
L 739.792288 437.306876 
L 740.342379 434.74998 
L 740.909659 430.994454 
L 741.494131 425.559675 
L 742.104387 417.701832 
L 742.749025 406.363675 
L 743.436638 390.094136 
L 744.175822 367.0206 
L 745.000958 333.826935 
L 745.963616 285.485382 
L 747.364628 202.283263 
L 749.006304 107.824334 
L 749.797059 74.25832 
L 750.38153 57.749936 
L 750.819884 50.77728 
L 751.120715 48.842269 
L 751.232452 48.725049 
L 751.266832 48.754707 
L 751.387165 49.101854 
L 751.584853 50.490671 
L 751.877089 54.382595 
L 752.272467 63.019676 
L 752.788176 79.673641 
L 753.467194 109.493426 
L 754.455638 163.914382 
L 757.077163 312.419654 
L 758.014036 351.085098 
L 758.821982 375.816638 
L 759.53538 391.351854 
L 760.171423 400.790354 
L 760.738703 406.204254 
L 761.220033 408.916026 
L 761.61541 410.041745 
L 761.899051 410.315625 
L 762.11393 410.257102 
L 762.371785 409.911407 
L 762.724186 409.000703 
L 763.19692 407.084917 
L 763.824367 403.515188 
L 764.640908 397.470664 
L 765.698113 387.8548 
L 767.081935 373.074277 
L 769.170559 348.056237 
L 771.921012 315.545168 
L 773.227477 302.704394 
L 774.241706 294.776978 
L 774.834773 291.143752 
L 774.834773 291.143752 
" clip-path="url(#p668bc863f1)" style="fill: none; stroke: #1f77b4; stroke-width: 1.5; stroke-linecap: square"/>
   </g>
   <g id="patch_3">
    <path d="M 52.85 462.04 
L 52.85 29.04 
" style="fill: none; stroke: #000000; stroke-width: 0.8; stroke-linejoin: miter; stroke-linecap: square"/>
   </g>
   <g id="patch_4">
    <path d="M 809.215 462.04 
L 809.215 29.04 
" style="fill: none; stroke: #000000; stroke-width: 0.8; stroke-linejoin: miter; stroke-linecap: square"/>
   </g>
   <g id="patch_5">
    <path d="M 52.85 462.04 
L 809.215 462.04 
" style="fill: none; stroke: #000000; stroke-width: 0.8; stroke-linejoin: miter; stroke-linecap: square"/>
   </g>
   <g id="patch_6">
    <path d="M 52.85 29.04 
L 809.215 29.04 
" style="fill: none; stroke: #000000; stroke-width: 0.8; stroke-linejoin: miter; stroke-linecap: square"/>
   </g>
   <g id="text_21">
    <!-- Input Pulse vs. Output Power -->
    <g transform="translate(315.665 23.04) scale(0.16 -0.16)">
     <defs>
      <path id="DejaVuSans-49" d="M 628 4666 
L 1259 4666 
L 1259 0 
L 628 0 
L 628 4666 
z
" transform="scale(0.015625)"/>
      <path id="DejaVuSans-75" d="M 544 1381 
L 544 3500 
L 1119 3500 
L 1119 1403 
Q 1119 906 1312 657 
Q 1506 409 1894 409 
Q 2359 409 2629 706 
Q 2900 1003 2900 1516 
L 2900 3500 
L 3475 3500 
L 3475 0 
L 2900 0 
L 2900 538 
Q 2691 219 2414 64 
Q 2138 -91 1772 -91 
Q 1169 -91 856 284 
Q 544 659 544 1381 
z
M 1991 3584 
L 1991 3584 
z
" transform="scale(0.015625)"/>
      <path id="DejaVuSans-50" d="M 1259 4147 
L 1259 2394 
L 2053 2394 
Q 2494 2394 2734 2622 
Q 2975 2850 2975 3272 
Q 2975 3691 2734 3919 
Q 2494 4147 2053 4147 
L 1259 4147 
z
M 628 4666 
L 2053 4666 
Q 2838 4666 3239 4311 
Q 3641 3956 3641 3272 
Q 3641 2581 3239 2228 
Q 2838 1875 2053 1875 
L 1259 1875 
L 1259 0 
L 628 0 
L 628 4666 
z
" transform="scale(0.015625)"/>
      <path id="DejaVuSans-76" d="M 191 3500 
L 800 3500 
L 1894 563 
L 2988 3500 
L 3597 3500 
L 2284 0 
L 1503 0 
L 191 3500 
z
" transform="scale(0.015625)"/>
      <path id="DejaVuSans-4f" d="M 2522 4238 
Q 1834 4238 1429 3725 
Q 1025 3213 1025 2328 
Q 1025 1447 1429 934 
Q 1834 422 2522 422 
Q 3209 422 3611 934 
Q 4013 1447 4013 2328 
Q 4013 3213 3611 3725 
Q 3209 4238 2522 4238 
z
M 2522 4750 
Q 3503 4750 4090 4092 
Q 4678 3434 4678 2328 
Q 4678 1225 4090 567 
Q 3503 -91 2522 -91 
Q 1538 -91 948 565 
Q 359 1222 359 2328 
Q 359 3434 948 4092 
Q 1538 4750 2522 4750 
z
" transform="scale(0.015625)"/>
      <path id="DejaVuSans-6f" d="M 1959 3097 
Q 1497 3097 1228 2736 
Q 959 2375 959 1747 
Q 959 1119 1226 758 
Q 1494 397 1959 397 
Q 2419 397 2687 759 
Q 2956 1122 2956 1747 
Q 2956 2369 2687 2733 
Q 2419 3097 1959 3097 
z
M 1959 3584 
Q 2709 3584 3137 3096 
Q 3566 2609 3566 1747 
Q 3566 888 3137 398 
Q 2709 -91 1959 -91 
Q 1206 -91 779 398 
Q 353 888 353 1747 
Q 353 2609 779 3096 
Q 1206 3584 1959 3584 
z
" transform="scale(0.015625)"/>
      <path id="DejaVuSans-77" d="M 269 3500 
L 844 3500 
L 1563 769 
L 2278 3500 
L 2956 3500 
L 3675 769 
L 4391 3500 
L 4966 3500 
L 4050 0 
L 3372 0 
L 2619 2869 
L 1863 0 
L 1184 0 
L 269 3500 
z
" transform="scale(0.015625)"/>
      <path id="DejaVuSans-72" d="M 2631 2963 
Q 2534 3019 2420 3045 
Q 2306 3072 2169 3072 
Q 1681 3072 1420 2755 
Q 1159 2438 1159 1844 
L 1159 0 
L 581 0 
L 581 3500 
L 1159 3500 
L 1159 2956 
Q 1341 3275 1631 3429 
Q 1922 3584 2338 3584 
Q 2397 3584 2469 3576 
Q 2541 3569 2628 3553 
L 2631 2963 
z
" transform="scale(0.015625)"/>
     </defs>
     <use xlink:href="#DejaVuSans-49"/>
     <use xlink:href="#DejaVuSans-6e" x="29.492188"/>
     <use xlink:href="#DejaVuSans-70" x="92.871094"/>
     <use xlink:href="#DejaVuSans-75" x="156.347656"/>
     <use xlink:href="#DejaVuSans-74" x="219.726562"/>
     <use xlink:href="#DejaVuSans-20" x="258.935547"/>
     <use xlink:href="#DejaVuSans-50" x="290.722656"/>
     <use xlink:href="#DejaVuSans-75" x="349.275391"/>
     <use xlink:href="#DejaVuSans-6c" x="412.654297"/>
     <use xlink:href="#DejaVuSans-73" x="440.4375"/>
     <use xlink:href="#DejaVuSans-65" x="492.537109"/>
     <use xlink:href="#DejaVuSans-20" x="554.060547"/>
     <use xlink:href="#DejaVuSans-76" x="585.847656"/>
     <use xlink:href="#DejaVuSans-73" x="645.027344"/>
     <use xlink:href="#DejaVuSans-2e" x="697.126953"/>
     <use xlink:href="#DejaVuSans-20" x="728.914062"/>
     <use xlink:href="#DejaVuSans-4f" x="760.701172"/>
     <use xlink:href="#DejaVuSans-75" x="839.412109"/>
     <use xlink:href="#DejaVuSans-74" x="902.791016"/>
     <use xlink:href="#DejaVuSans-70" x="942"/>
     <use xlink:href="#DejaVuSans-75" x="1005.476562"/>
     <use xlink:href="#DejaVuSans-74" x="1068.855469"/>
     <use xlink:href="#DejaVuSans-20" x="1108.064453"/>
     <use xlink:href="#DejaVuSans-50" x="1139.851562"/>
     <use xlink:href="#DejaVuSans-6f" x="1196.529297"/>
     <use xlink:href="#DejaVuSans-77" x="1257.710938"/>
     <use xlink:href="#DejaVuSans-65" x="1339.498047"/>
     <use xlink:href="#DejaVuSans-72" x="1401.021484"/>
    </g>
   </g>
  </g>
  <g id="axes_2">
   <g id="matplotlib.axis_3">
    <g id="ytick_10">
     <g id="line2d_38">
      <defs>
       <path id="m9746a768f2" d="M 0 0 
L 3.5 0 
" style="stroke: #000000; stroke-width: 0.8"/>
      </defs>
      <g>
       <use xlink:href="#m9746a768f2" x="809.215" y="406.258501" style="stroke: #000000; stroke-width: 0.8"/>
      </g>
     </g>
     <g id="text_22">
      <!-- −70 -->
      <g style="fill: #d62728" transform="translate(816.215 410.05772) scale(0.1 -0.1)">
       <defs>
        <path id="DejaVuSans-2212" d="M 678 2272 
L 4684 2272 
L 4684 1741 
L 678 1741 
L 678 2272 
z
" transform="scale(0.015625)"/>
        <path id="DejaVuSans-37" d="M 525 4666 
L 3525 4666 
L 3525 4397 
L 1831 0 
L 1172 0 
L 2766 4134 
L 525 4134 
L 525 4666 
z
" transform="scale(0.015625)"/>
       </defs>
       <use xlink:href="#DejaVuSans-2212"/>
       <use xlink:href="#DejaVuSans-37" x="83.789062"/>
       <use xlink:href="#DejaVuSans-30" x="147.412109"/>
      </g>
     </g>
    </g>
    <g id="ytick_11">
     <g id="line2d_39">
      <g>
       <use xlink:href="#m9746a768f2" x="809.215" y="316.555632" style="stroke: #000000; stroke-width: 0.8"/>
      </g>
     </g>
     <g id="text_23">
      <!-- −68 -->
      <g style="fill: #d62728" transform="translate(816.215 320.354851) scale(0.1 -0.1)">
       <use xlink:href="#DejaVuSans-2212"/>
       <use xlink:href="#DejaVuSans-36" x="83.789062"/>
       <use xlink:href="#DejaVuSans-38" x="147.412109"/>
      </g>
     </g>
    </g>
    <g id="ytick_12">
     <g id="line2d_40">
      <g>
       <use xlink:href="#m9746a768f2" x="809.215" y="226.852762" style="stroke: #000000; stroke-width: 0.8"/>
      </g>
     </g>
     <g id="text_24">
      <!-- −66 -->
      <g style="fill: #d62728" transform="translate(816.215 230.651981) scale(0.1 -0.1)">
       <use xlink:href="#DejaVuSans-2212"/>
       <use xlink:href="#DejaVuSans-36" x="83.789062"/>
       <use xlink:href="#DejaVuSans-36" x="147.412109"/>
      </g>
     </g>
    </g>
    <g id="ytick_13">
     <g id="line2d_41">
      <g>
       <use xlink:href="#m9746a768f2" x="809.215" y="137.149893" style="stroke: #000000; stroke-width: 0.8"/>
      </g>
     </g>
     <g id="text_25">
      <!-- −64 -->
      <g style="fill: #d62728" transform="translate(816.215 140.949112) scale(0.1 -0.1)">
       <use xlink:href="#DejaVuSans-2212"/>
       <use xlink:href="#DejaVuSans-36" x="83.789062"/>
       <use xlink:href="#DejaVuSans-34" x="147.412109"/>
      </g>
     </g>
    </g>
    <g id="ytick_14">
     <g id="line2d_42">
      <g>
       <use xlink:href="#m9746a768f2" x="809.215" y="47.447024" style="stroke: #000000; stroke-width: 0.8"/>
      </g>
     </g>
     <g id="text_26">
      <!-- −62 -->
      <g style="fill: #d62728" transform="translate(816.215 51.246243) scale(0.1 -0.1)">
       <use xlink:href="#DejaVuSans-2212"/>
       <use xlink:href="#DejaVuSans-36" x="83.789062"/>
       <use xlink:href="#DejaVuSans-32" x="147.412109"/>
      </g>
     </g>
    </g>
    <g id="text_27">
     <!-- Output Power (arbitrary units) -->
     <g style="fill: #d62728" transform="translate(850.437812 335.803437) rotate(-90) scale(0.12 -0.12)">
      <defs>
       <path id="DejaVuSans-62" d="M 3116 1747 
Q 3116 2381 2855 2742 
Q 2594 3103 2138 3103 
Q 1681 3103 1420 2742 
Q 1159 2381 1159 1747 
Q 1159 1113 1420 752 
Q 1681 391 2138 391 
Q 2594 391 2855 752 
Q 3116 1113 3116 1747 
z
M 1159 2969 
Q 1341 3281 1617 3432 
Q 1894 3584 2278 3584 
Q 2916 3584 3314 3078 
Q 3713 2572 3713 1747 
Q 3713 922 3314 415 
Q 2916 -91 2278 -91 
Q 1894 -91 1617 61 
Q 1341 213 1159 525 
L 1159 0 
L 581 0 
L 581 4863 
L 1159 4863 
L 1159 2969 
z
" transform="scale(0.015625)"/>
       <path id="DejaVuSans-79" d="M 2059 -325 
Q 1816 -950 1584 -1140 
Q 1353 -1331 966 -1331 
L 506 -1331 
L 506 -850 
L 844 -850 
Q 1081 -850 1212 -737 
Q 1344 -625 1503 -206 
L 1606 56 
L 191 3500 
L 800 3500 
L 1894 763 
L 2988 3500 
L 3597 3500 
L 2059 -325 
z
" transform="scale(0.015625)"/>
      </defs>
      <use xlink:href="#DejaVuSans-4f"/>
      <use xlink:href="#DejaVuSans-75" x="78.710938"/>
      <use xlink:href="#DejaVuSans-74" x="142.089844"/>
      <use xlink:href="#DejaVuSans-70" x="181.298828"/>
      <use xlink:href="#DejaVuSans-75" x="244.775391"/>
      <use xlink:href="#DejaVuSans-74" x="308.154297"/>
      <use xlink:href="#DejaVuSans-20" x="347.363281"/>
      <use xlink:href="#DejaVuSans-50" x="379.150391"/>
      <use xlink:href="#DejaVuSans-6f" x="435.828125"/>
      <use xlink:href="#DejaVuSans-77" x="497.009766"/>
      <use xlink:href="#DejaVuSans-65" x="578.796875"/>
      <use xlink:href="#DejaVuSans-72" x="640.320312"/>
      <use xlink:href="#DejaVuSans-20" x="681.433594"/>
      <use xlink:href="#DejaVuSans-28" x="713.220703"/>
      <use xlink:href="#DejaVuSans-61" x="752.234375"/>
      <use xlink:href="#DejaVuSans-72" x="813.513672"/>
      <use xlink:href="#DejaVuSans-62" x="854.626953"/>
      <use xlink:href="#DejaVuSans-69" x="918.103516"/>
      <use xlink:href="#DejaVuSans-74" x="945.886719"/>
      <use xlink:href="#DejaVuSans-72" x="985.095703"/>
      <use xlink:href="#DejaVuSans-61" x="1026.208984"/>
      <use xlink:href="#DejaVuSans-72" x="1087.488281"/>
      <use xlink:href="#DejaVuSans-79" x="1128.601562"/>
      <use xlink:href="#DejaVuSans-20" x="1187.78125"/>
      <use xlink:href="#DejaVuSans-75" x="1219.568359"/>
      <use xlink:href="#DejaVuSans-6e" x="1282.947266"/>
      <use xlink:href="#DejaVuSans-69" x="1346.326172"/>
      <use xlink:href="#DejaVuSans-74" x="1374.109375"/>
      <use xlink:href="#DejaVuSans-73" x="1413.318359"/>
      <use xlink:href="#DejaVuSans-29" x="1465.417969"/>
     </g>
    </g>
   </g>
   <g id="line2d_43">
    <path d="M 87.230227 97.51195 
L 89.404804 97.653064 
L 90.324486 97.925032 
L 90.969124 98.342709 
L 91.510619 98.966642 
L 92.009139 99.9014 
L 92.490468 101.305731 
L 92.971797 103.439149 
L 93.461721 106.695591 
L 93.960241 111.613346 
L 94.467356 118.953444 
L 94.991661 129.985357 
L 95.533156 146.411958 
L 96.091842 170.591576 
L 96.667718 205.695012 
L 97.269379 256.681893 
L 97.57021 288.836153 
L 97.638971 283.120557 
L 98.292204 214.986607 
L 99.005602 141.736531 
L 99.641644 126.992694 
L 100.286282 48.762654 
L 100.329258 63.33351 
L 101.042656 269.701204 
L 101.334892 300.690618 
L 101.369272 292.966422 
L 101.799031 168.982238 
L 101.850602 185.137081 
L 102.237384 318.065409 
L 102.306145 303.277406 
L 102.667142 216.883486 
L 102.701523 232.105711 
L 103.0969 412.886914 
L 103.200042 412.286932 
L 103.526659 410.420471 
L 103.535254 410.546252 
L 103.990798 442.14742 
L 104.016583 438.007654 
L 104.901885 261.445245 
L 105.649664 155.946724 
L 106.113803 118.067106 
L 106.431824 106.507678 
L 106.577942 105.213205 
L 106.612323 105.277744 
L 106.706869 106.180023 
L 106.878773 110.536778 
L 107.136628 123.580804 
L 107.497625 154.621912 
L 107.970359 216.481609 
L 108.80409 362.661028 
L 109.173682 442.358182 
L 109.268228 436.064473 
L 109.646416 410.426037 
L 109.749558 411.002367 
L 110.076174 412.861658 
L 110.127745 392.419886 
L 110.514527 217.560526 
L 110.583289 232.410262 
L 110.952881 318.770254 
L 110.995856 304.682681 
L 111.408424 169.263617 
L 111.459995 184.001837 
L 111.889754 300.693358 
L 111.94992 294.476014 
L 112.457034 232.497636 
L 113.01572 49.199791 
L 113.058696 54.337022 
L 113.789285 128.508577 
L 114.545659 141.81127 
L 114.8293 146.983521 
L 115.473937 201.429454 
L 116.049813 232.889924 
L 116.539737 248.843884 
L 116.935115 255.5435 
L 117.218755 257.388199 
L 117.330493 257.498217 
L 117.364873 257.465596 
L 117.493801 257.074043 
L 117.70868 255.520287 
L 118.026701 251.317803 
L 118.465054 242.228706 
L 119.049525 225.075343 
L 119.82309 195.231773 
L 120.820129 147.525948 
L 120.983437 144.67701 
L 122.341473 134.959122 
L 123.278346 127.094008 
L 125.409947 48.721818 
L 125.452923 52.654225 
L 127.464191 229.423841 
L 127.850974 252.047466 
L 129.019916 272.888342 
L 129.948194 285.76522 
L 130.704568 293.443244 
L 131.32342 297.678526 
L 131.804749 299.64094 
L 132.165746 300.331811 
L 132.406411 300.417608 
L 132.62129 300.240486 
L 132.896335 299.665205 
L 133.257332 298.319925 
L 133.712876 295.679509 
L 134.280156 290.961017 
L 134.96777 283.218425 
L 135.792905 271.242624 
L 136.807135 253.06003 
L 137.022014 247.130318 
L 138.41443 129.676001 
L 139.299732 48.730143 
L 139.385684 51.886837 
L 141.586046 128.860495 
L 143.502768 143.383738 
L 143.820789 146.188372 
L 145.247586 218.359033 
L 146.511075 271.563569 
L 146.983809 288.864646 
L 147.026785 287.213335 
L 148.161347 239.607384 
L 149.235742 203.468786 
L 150.258567 176.217772 
L 151.238416 155.746805 
L 152.183884 140.399904 
L 153.103566 128.907946 
L 153.997463 120.384349 
L 154.87417 114.059666 
L 155.733686 109.409891 
L 156.576013 106.019821 
L 157.409743 103.544701 
L 158.243474 101.739223 
L 159.0858 100.427551 
L 159.953912 99.474433 
L 160.890785 98.772766 
L 161.94799 98.262122 
L 163.22867 97.899623 
L 164.939107 97.662084 
L 167.655179 97.535689 
L 174.814951 97.501554 
L 217.979866 97.602172 
L 219.045666 97.839528 
L 219.741875 98.216796 
L 220.30056 98.776434 
L 220.807675 99.617226 
L 221.289004 100.869215 
L 221.770333 102.779683 
L 222.260258 105.709022 
L 222.758777 110.153304 
L 223.265892 116.818194 
L 223.790197 126.884464 
L 224.323097 141.665572 
L 224.873188 163.434998 
L 225.449064 195.651706 
L 226.04213 241.970022 
L 226.497674 288.836153 
L 226.583625 281.580848 
L 227.236858 212.909701 
L 227.933066 141.736531 
L 228.569108 126.992694 
L 229.213746 48.762654 
L 229.256721 63.33351 
L 229.97012 269.701204 
L 230.262356 300.690618 
L 230.296736 292.966422 
L 230.726495 168.982238 
L 230.778066 185.137081 
L 231.164848 318.065409 
L 231.233609 303.277406 
L 231.594606 216.883486 
L 231.628987 232.105711 
L 232.024364 412.886914 
L 232.127506 412.286932 
L 232.454123 410.420471 
L 232.462718 410.546252 
L 232.918261 442.14742 
L 232.944047 438.007654 
L 233.829349 261.445245 
L 234.577128 155.946724 
L 235.041267 118.067106 
L 235.359288 106.507678 
L 235.505406 105.213205 
L 235.539787 105.277744 
L 235.634333 106.180023 
L 235.806237 110.536778 
L 236.064092 123.580804 
L 236.425088 154.621912 
L 236.897822 216.481609 
L 237.731553 362.661028 
L 238.101145 442.358182 
L 238.195692 436.064473 
L 238.57388 410.426037 
L 238.677021 411.002367 
L 239.003638 412.861658 
L 239.055209 392.419886 
L 239.441991 217.560526 
L 239.510752 232.410262 
L 239.880344 318.770254 
L 239.92332 304.682681 
L 240.335888 169.263617 
L 240.387459 184.001837 
L 240.817217 300.693358 
L 240.877384 294.476014 
L 241.384498 232.497636 
L 241.943184 49.199791 
L 241.98616 54.337022 
L 242.716749 128.508577 
L 243.473123 141.81127 
L 243.756764 146.983521 
L 244.401401 201.429454 
L 244.977277 232.889924 
L 245.467201 248.843884 
L 245.862579 255.5435 
L 246.146219 257.388199 
L 246.257956 257.498217 
L 246.292337 257.465596 
L 246.421264 257.074043 
L 246.636144 255.520287 
L 246.954165 251.317803 
L 247.392518 242.228706 
L 247.976989 225.075343 
L 248.750554 195.231773 
L 249.747593 147.525948 
L 249.910901 144.67701 
L 251.268937 134.959122 
L 252.20581 127.094008 
L 254.337411 48.721818 
L 254.380387 52.654225 
L 256.391655 229.423841 
L 256.778437 252.047466 
L 257.94738 272.888342 
L 258.875657 285.76522 
L 259.632032 293.443244 
L 260.250884 297.678526 
L 260.732213 299.64094 
L 261.09321 300.331811 
L 261.333874 300.417608 
L 261.548754 300.240486 
L 261.823799 299.665205 
L 262.184796 298.319925 
L 262.640339 295.679509 
L 263.20762 290.961017 
L 263.895233 283.218425 
L 264.720369 271.242624 
L 265.734599 253.06003 
L 265.949478 247.130318 
L 267.341894 129.676001 
L 268.227196 48.730143 
L 268.313148 51.886837 
L 270.51351 128.860495 
L 272.430232 143.383738 
L 272.748253 146.188372 
L 274.17505 218.359033 
L 275.438539 271.563569 
L 275.911273 288.864646 
L 275.954249 287.213335 
L 277.088811 239.607384 
L 278.163206 203.468786 
L 279.186031 176.217772 
L 280.165879 155.746805 
L 281.111347 140.399904 
L 282.03103 128.907946 
L 282.924927 120.384349 
L 283.801634 114.059666 
L 284.66115 109.409891 
L 285.503476 106.019821 
L 286.337207 103.544701 
L 287.170938 101.739223 
L 288.013264 100.427551 
L 288.881376 99.474433 
L 289.818249 98.772766 
L 290.875454 98.262122 
L 292.156134 97.899623 
L 293.866571 97.662084 
L 296.582643 97.535689 
L 303.742415 97.501554 
L 346.90733 97.602172 
L 347.97313 97.839528 
L 348.669339 98.216796 
L 349.228024 98.776434 
L 349.735139 99.617226 
L 350.216468 100.869215 
L 350.697797 102.779683 
L 351.187722 105.709022 
L 351.686241 110.153304 
L 352.193356 116.818194 
L 352.717661 126.884464 
L 353.250561 141.665572 
L 353.800652 163.434998 
L 354.376528 195.651706 
L 354.969594 241.970022 
L 355.425138 288.836153 
L 355.511089 281.580848 
L 356.164322 212.909701 
L 356.86053 141.736531 
L 357.496572 126.992694 
L 358.14121 48.762654 
L 358.184185 63.33351 
L 358.897584 269.701204 
L 359.18982 300.690618 
L 359.2242 292.966422 
L 359.653958 168.982238 
L 359.705529 185.137081 
L 360.092312 318.065409 
L 360.161073 303.277406 
L 360.52207 216.883486 
L 360.556451 232.105711 
L 360.951828 412.886914 
L 361.05497 412.286932 
L 361.381586 410.420471 
L 361.390182 410.546252 
L 361.845725 442.14742 
L 361.871511 438.007654 
L 362.756813 261.445245 
L 363.504592 155.946724 
L 363.968731 118.067106 
L 364.286752 106.507678 
L 364.43287 105.213205 
L 364.46725 105.277744 
L 364.561797 106.180023 
L 364.7337 110.536778 
L 364.991555 123.580804 
L 365.352552 154.621912 
L 365.825286 216.481609 
L 366.659017 362.661028 
L 367.028609 442.358182 
L 367.123156 436.064473 
L 367.501343 410.426037 
L 367.604485 411.002367 
L 367.931102 412.861658 
L 367.982673 392.419886 
L 368.369455 217.560526 
L 368.438216 232.410262 
L 368.807808 318.770254 
L 368.850784 304.682681 
L 369.263352 169.263617 
L 369.314923 184.001837 
L 369.744681 300.693358 
L 369.804847 294.476014 
L 370.311962 232.497636 
L 370.870648 49.199791 
L 370.913624 54.337022 
L 371.644213 128.508577 
L 372.400587 141.81127 
L 372.684227 146.983521 
L 373.328865 201.429454 
L 373.904741 232.889924 
L 374.394665 248.843884 
L 374.790043 255.5435 
L 375.073683 257.388199 
L 375.18542 257.498217 
L 375.219801 257.465596 
L 375.348728 257.074043 
L 375.563607 255.520287 
L 375.881629 251.317803 
L 376.319982 242.228706 
L 376.904453 225.075343 
L 377.678018 195.231773 
L 378.675057 147.525948 
L 378.838365 144.67701 
L 380.196401 134.959122 
L 381.133274 127.094008 
L 383.264875 48.721818 
L 383.30785 52.654225 
L 385.319119 229.423841 
L 385.705901 252.047466 
L 386.874844 272.888342 
L 387.803121 285.76522 
L 388.559496 293.443244 
L 389.178348 297.678526 
L 389.659677 299.64094 
L 390.020674 300.331811 
L 390.261338 300.417608 
L 390.476217 300.240486 
L 390.751263 299.665205 
L 391.11226 298.319925 
L 391.567803 295.679509 
L 392.135084 290.961017 
L 392.822697 283.218425 
L 393.647833 271.242624 
L 394.662062 253.06003 
L 394.876942 247.130318 
L 396.269358 129.676001 
L 397.15466 48.730143 
L 397.240612 51.886837 
L 399.440974 128.860495 
L 401.357695 143.383738 
L 401.675716 146.188372 
L 403.102514 218.359033 
L 404.366003 271.563569 
L 404.838737 288.864646 
L 404.881713 287.213335 
L 406.016274 239.607384 
L 407.09067 203.468786 
L 408.113495 176.217772 
L 409.093343 155.746805 
L 410.038811 140.399904 
L 410.958494 128.907946 
L 411.852391 120.384349 
L 412.729098 114.059666 
L 413.588614 109.409891 
L 414.43094 106.019821 
L 415.264671 103.544701 
L 416.098402 101.739223 
L 416.940728 100.427551 
L 417.80884 99.474433 
L 418.745713 98.772766 
L 419.802918 98.262122 
L 421.083597 97.899623 
L 422.794035 97.662084 
L 425.510107 97.535689 
L 432.669879 97.501554 
L 475.834794 97.602172 
L 476.900594 97.839528 
L 477.596802 98.216796 
L 478.155488 98.776434 
L 478.662603 99.617226 
L 479.143932 100.869215 
L 479.625261 102.779683 
L 480.115185 105.709022 
L 480.613705 110.153304 
L 481.12082 116.818194 
L 481.645125 126.884464 
L 482.178025 141.665572 
L 482.728115 163.434998 
L 483.303991 195.651706 
L 483.897058 241.970022 
L 484.352601 288.836153 
L 484.438553 281.580848 
L 485.091786 212.909701 
L 485.787994 141.736531 
L 486.424036 126.992694 
L 487.068673 48.762654 
L 487.111649 63.33351 
L 487.825048 269.701204 
L 488.117283 300.690618 
L 488.151664 292.966422 
L 488.581422 168.982238 
L 488.632993 185.137081 
L 489.019776 318.065409 
L 489.088537 303.277406 
L 489.449534 216.883486 
L 489.483915 232.105711 
L 489.879292 412.886914 
L 489.982434 412.286932 
L 490.30905 410.420471 
L 490.317645 410.546252 
L 490.773189 442.14742 
L 490.798975 438.007654 
L 491.684277 261.445245 
L 492.432056 155.946724 
L 492.896195 118.067106 
L 493.214216 106.507678 
L 493.360334 105.213205 
L 493.394714 105.277744 
L 493.489261 106.180023 
L 493.661164 110.536778 
L 493.919019 123.580804 
L 494.280016 154.621912 
L 494.75275 216.481609 
L 495.586481 362.661028 
L 495.956073 442.358182 
L 496.05062 436.064473 
L 496.428807 410.426037 
L 496.531949 411.002367 
L 496.858565 412.861658 
L 496.910136 392.419886 
L 497.296919 217.560526 
L 497.36568 232.410262 
L 497.735272 318.770254 
L 497.778248 304.682681 
L 498.190816 169.263617 
L 498.242387 184.001837 
L 498.672145 300.693358 
L 498.732311 294.476014 
L 499.239426 232.497636 
L 499.798112 49.199791 
L 499.841087 54.337022 
L 500.571676 128.508577 
L 501.328051 141.81127 
L 501.611691 146.983521 
L 502.256329 201.429454 
L 502.832205 232.889924 
L 503.322129 248.843884 
L 503.717507 255.5435 
L 504.001147 257.388199 
L 504.112884 257.498217 
L 504.147265 257.465596 
L 504.276192 257.074043 
L 504.491071 255.520287 
L 504.809092 251.317803 
L 505.247446 242.228706 
L 505.831917 225.075343 
L 506.605482 195.231773 
L 507.602521 147.525948 
L 507.765829 144.67701 
L 509.123865 134.959122 
L 510.060738 127.094008 
L 512.192339 48.721818 
L 512.235314 52.654225 
L 514.246583 229.423841 
L 514.633365 252.047466 
L 515.802307 272.888342 
L 516.730585 285.76522 
L 517.48696 293.443244 
L 518.105812 297.678526 
L 518.587141 299.64094 
L 518.948138 300.331811 
L 519.188802 300.417608 
L 519.403681 300.240486 
L 519.678727 299.665205 
L 520.039723 298.319925 
L 520.495267 295.679509 
L 521.062548 290.961017 
L 521.750161 283.218425 
L 522.575297 271.242624 
L 523.589526 253.06003 
L 523.804405 247.130318 
L 525.196822 129.676001 
L 526.082124 48.730143 
L 526.168076 51.886837 
L 528.368438 128.860495 
L 530.285159 143.383738 
L 530.60318 146.188372 
L 532.029978 218.359033 
L 533.293467 271.563569 
L 533.766201 288.864646 
L 533.809177 287.213335 
L 534.943738 239.607384 
L 536.018134 203.468786 
L 537.040958 176.217772 
L 538.020807 155.746805 
L 538.966275 140.399904 
L 539.885958 128.907946 
L 540.779855 120.384349 
L 541.656562 114.059666 
L 542.516078 109.409891 
L 543.358404 106.019821 
L 544.192135 103.544701 
L 545.025866 101.739223 
L 545.868192 100.427551 
L 546.736304 99.474433 
L 547.673177 98.772766 
L 548.730382 98.262122 
L 550.011061 97.899623 
L 551.721499 97.662084 
L 554.437571 97.535689 
L 561.597343 97.501554 
L 604.762258 97.602172 
L 605.828058 97.839528 
L 606.524266 98.216796 
L 607.082952 98.776434 
L 607.590067 99.617226 
L 608.071396 100.869215 
L 608.552725 102.779683 
L 609.042649 105.709022 
L 609.541169 110.153304 
L 610.048284 116.818194 
L 610.572589 126.884464 
L 611.105489 141.665572 
L 611.655579 163.434998 
L 612.231455 195.651706 
L 612.824522 241.970022 
L 613.280065 288.836153 
L 613.366017 281.580848 
L 614.019249 212.909701 
L 614.715458 141.736531 
L 615.3515 126.992694 
L 615.996137 48.762654 
L 616.039113 63.33351 
L 616.752512 269.701204 
L 617.044747 300.690618 
L 617.079128 292.966422 
L 617.508886 168.982238 
L 617.560457 185.137081 
L 617.94724 318.065409 
L 618.016001 303.277406 
L 618.376998 216.883486 
L 618.411378 232.105711 
L 618.806756 412.886914 
L 618.909898 412.286932 
L 619.236514 410.420471 
L 619.245109 410.546252 
L 619.700653 442.14742 
L 619.726439 438.007654 
L 620.61174 261.445245 
L 621.35952 155.946724 
L 621.823659 118.067106 
L 622.14168 106.507678 
L 622.287797 105.213205 
L 622.322178 105.277744 
L 622.416725 106.180023 
L 622.588628 110.536778 
L 622.846483 123.580804 
L 623.20748 154.621912 
L 623.680214 216.481609 
L 624.513945 362.661028 
L 624.883537 442.358182 
L 624.978084 436.064473 
L 625.356271 410.426037 
L 625.459413 411.002367 
L 625.786029 412.861658 
L 625.8376 392.419886 
L 626.224383 217.560526 
L 626.293144 232.410262 
L 626.662736 318.770254 
L 626.705712 304.682681 
L 627.11828 169.263617 
L 627.169851 184.001837 
L 627.599609 300.693358 
L 627.659775 294.476014 
L 628.16689 232.497636 
L 628.725576 49.199791 
L 628.768551 54.337022 
L 629.49914 128.508577 
L 630.255515 141.81127 
L 630.539155 146.983521 
L 631.183792 201.429454 
L 631.759668 232.889924 
L 632.249593 248.843884 
L 632.64497 255.5435 
L 632.928611 257.388199 
L 633.040348 257.498217 
L 633.074729 257.465596 
L 633.203656 257.074043 
L 633.418535 255.520287 
L 633.736556 251.317803 
L 634.17491 242.228706 
L 634.759381 225.075343 
L 635.532946 195.231773 
L 636.529985 147.525948 
L 636.693293 144.67701 
L 638.051329 134.959122 
L 638.988202 127.094008 
L 641.119802 48.721818 
L 641.162778 52.654225 
L 643.174047 229.423841 
L 643.560829 252.047466 
L 644.729771 272.888342 
L 645.658049 285.76522 
L 646.414424 293.443244 
L 647.033275 297.678526 
L 647.514605 299.64094 
L 647.875601 300.331811 
L 648.116266 300.417608 
L 648.331145 300.240486 
L 648.60619 299.665205 
L 648.967187 298.319925 
L 649.422731 295.679509 
L 649.990012 290.961017 
L 650.677625 283.218425 
L 651.502761 271.242624 
L 652.51699 253.06003 
L 652.731869 247.130318 
L 654.124286 129.676001 
L 655.009588 48.730143 
L 655.095539 51.886837 
L 657.295902 128.860495 
L 659.212623 143.383738 
L 659.530644 146.188372 
L 660.957441 218.359033 
L 662.220931 271.563569 
L 662.693665 288.864646 
L 662.73664 287.213335 
L 663.871202 239.607384 
L 664.945598 203.468786 
L 665.968422 176.217772 
L 666.948271 155.746805 
L 667.893739 140.399904 
L 668.813422 128.907946 
L 669.707319 120.384349 
L 670.584025 114.059666 
L 671.443542 109.409891 
L 672.285868 106.019821 
L 673.119599 103.544701 
L 673.95333 101.739223 
L 674.795656 100.427551 
L 675.663768 99.474433 
L 676.60064 98.772766 
L 677.657846 98.262122 
L 678.938525 97.899623 
L 680.648963 97.662084 
L 683.365035 97.535689 
L 690.524807 97.501554 
L 733.689721 97.602172 
L 734.755522 97.839528 
L 735.45173 98.216796 
L 736.010416 98.776434 
L 736.51753 99.617226 
L 736.99886 100.869215 
L 737.480189 102.779683 
L 737.970113 105.709022 
L 738.468633 110.153304 
L 738.975747 116.818194 
L 739.500052 126.884464 
L 740.032953 141.665572 
L 740.583043 163.434998 
L 741.158919 195.651706 
L 741.751985 241.970022 
L 742.207529 288.836153 
L 742.293481 281.580848 
L 742.946713 212.909701 
L 743.642922 141.736531 
L 744.278964 126.992694 
L 744.923601 48.762654 
L 744.966577 63.33351 
L 745.679976 269.701204 
L 745.972211 300.690618 
L 746.006592 292.966422 
L 746.43635 168.982238 
L 746.487921 185.137081 
L 746.874703 318.065409 
L 746.943465 303.277406 
L 747.304462 216.883486 
L 747.338842 232.105711 
L 747.73422 412.886914 
L 747.837362 412.286932 
L 748.163978 410.420471 
L 748.172573 410.546252 
L 748.628117 442.14742 
L 748.653902 438.007654 
L 749.539204 261.445245 
L 750.286984 155.946724 
L 750.751122 118.067106 
L 751.069144 106.507678 
L 751.215261 105.213205 
L 751.249642 105.277744 
L 751.344189 106.180023 
L 751.516092 110.536778 
L 751.773947 123.580804 
L 752.134944 154.621912 
L 752.607678 216.481609 
L 753.441409 362.661028 
L 753.811001 442.358182 
L 753.905548 436.064473 
L 754.283735 410.426037 
L 754.386877 411.002367 
L 754.713493 412.861658 
L 754.765064 392.419886 
L 755.151847 217.560526 
L 755.220608 232.410262 
L 755.5902 318.770254 
L 755.633176 304.682681 
L 756.045744 169.263617 
L 756.097315 184.001837 
L 756.527073 300.693358 
L 756.587239 294.476014 
L 757.094354 232.497636 
L 757.653039 49.199791 
L 757.696015 54.337022 
L 758.426604 128.508577 
L 759.182979 141.81127 
L 759.466619 146.983521 
L 760.111256 201.429454 
L 760.687132 232.889924 
L 761.177057 248.843884 
L 761.572434 255.5435 
L 761.856075 257.388199 
L 761.967812 257.498217 
L 762.002192 257.465596 
L 762.13112 257.074043 
L 762.345999 255.520287 
L 762.66402 251.317803 
L 763.102374 242.228706 
L 763.686845 225.075343 
L 764.460409 195.231773 
L 765.457449 147.525948 
L 765.620757 144.67701 
L 766.978793 134.959122 
L 767.915665 127.094008 
L 770.047266 48.721818 
L 770.090242 52.654225 
L 772.10151 229.423841 
L 772.488293 252.047466 
L 773.657235 272.888342 
L 774.585513 285.76522 
L 774.834773 288.588822 
L 774.834773 288.588822 
" clip-path="url(#p668bc863f1)" style="fill: none; stroke: #d62728; stroke-opacity: 0.9; stroke-width: 1.5; stroke-linecap: square"/>
   </g>
   <g id="patch_7">
    <path d="M 52.85 462.04 
L 52.85 29.04 
" style="fill: none; stroke: #000000; stroke-width: 0.8; stroke-linejoin: miter; stroke-linecap: square"/>
   </g>
   <g id="patch_8">
    <path d="M 809.215 462.04 
L 809.215 29.04 
" style="fill: none; stroke: #000000; stroke-width: 0.8; stroke-linejoin: miter; stroke-linecap: square"/>
   </g>
   <g id="patch_9">
    <path d="M 52.85 462.04 
L 809.215 462.04 
" style="fill: none; stroke: #000000; stroke-width: 0.8; stroke-linejoin: miter; stroke-linecap: square"/>
   </g>
   <g id="patch_10">
    <path d="M 52.85 29.04 
L 809.215 29.04 
" style="fill: none; stroke: #000000; stroke-width: 0.8; stroke-linejoin: miter; stroke-linecap: square"/>
   </g>
  </g>
 </g>
 <defs>
  <clipPath id="p668bc863f1">
   <rect x="52.85" y="29.04" width="756.365" height="433"/>
  </clipPath>
 </defs>
</svg>
