<?xml version="1.0" encoding="utf-8" standalone="no"?>
<!DOCTYPE svg PUBLIC "-//W3C//DTD SVG 1.1//EN"
  "http://www.w3.org/Graphics/SVG/1.1/DTD/svg11.dtd">
<svg xmlns:xlink="http://www.w3.org/1999/xlink" width="720pt" height="432pt" viewBox="0 0 720 432" xmlns="http://www.w3.org/2000/svg" version="1.1">
 <metadata>
  <rdf:RDF xmlns:dc="http://purl.org/dc/elements/1.1/" xmlns:cc="http://creativecommons.org/ns#" xmlns:rdf="http://www.w3.org/1999/02/22-rdf-syntax-ns#">
   <cc:Work>
    <dc:type rdf:resource="http://purl.org/dc/dcmitype/StillImage"/>
    <dc:date>2025-08-08T13:23:29.421489</dc:date>
    <dc:format>image/svg+xml</dc:format>
    <dc:creator>
     <cc:Agent>
      <dc:title>Matplotlib v3.7.5, https://matplotlib.org/</dc:title>
     </cc:Agent>
    </dc:creator>
   </cc:Work>
  </rdf:RDF>
 </metadata>
 <defs>
  <style type="text/css">*{stroke-linejoin: round; stroke-linecap: butt}</style>
 </defs>
 <g id="figure_1">
  <g id="patch_1">
   <path d="M 0 432 
L 720 432 
L 720 0 
L 0 0 
z
" style="fill: #ffffff"/>
  </g>
  <g id="axes_1">
   <g id="patch_2">
    <path d="M 90 384.48 
L 648 384.48 
L 648 51.84 
L 90 51.84 
z
" style="fill: #ffffff"/>
   </g>
   <g id="matplotlib.axis_1">
    <g id="xtick_1">
     <g id="line2d_1">
      <path d="M 115.363636 384.48 
L 115.363636 51.84 
" clip-path="url(#pa6ed76ba73)" style="fill: none; stroke: #b0b0b0; stroke-width: 0.8; stroke-linecap: square"/>
     </g>
     <g id="line2d_2">
      <defs>
       <path id="m9415413439" d="M 0 0 
L 0 3.5 
" style="stroke: #000000; stroke-width: 0.8"/>
      </defs>
      <g>
       <use xlink:href="#m9415413439" x="115.363636" y="384.48" style="stroke: #000000; stroke-width: 0.8"/>
      </g>
     </g>
     <g id="text_1">
      <!-- 0.0 -->
      <g transform="translate(107.412074 399.078438) scale(0.1 -0.1)">
       <defs>
        <path id="DejaVuSans-30" d="M 2034 4250 
Q 1547 4250 1301 3770 
Q 1056 3291 1056 2328 
Q 1056 1369 1301 889 
Q 1547 409 2034 409 
Q 2525 409 2770 889 
Q 3016 1369 3016 2328 
Q 3016 3291 2770 3770 
Q 2525 4250 2034 4250 
z
M 2034 4750 
Q 2819 4750 3233 4129 
Q 3647 3509 3647 2328 
Q 3647 1150 3233 529 
Q 2819 -91 2034 -91 
Q 1250 -91 836 529 
Q 422 1150 422 2328 
Q 422 3509 836 4129 
Q 1250 4750 2034 4750 
z
" transform="scale(0.015625)"/>
        <path id="DejaVuSans-2e" d="M 684 794 
L 1344 794 
L 1344 0 
L 684 0 
L 684 794 
z
" transform="scale(0.015625)"/>
       </defs>
       <use xlink:href="#DejaVuSans-30"/>
       <use xlink:href="#DejaVuSans-2e" x="63.623047"/>
       <use xlink:href="#DejaVuSans-30" x="95.410156"/>
      </g>
     </g>
    </g>
    <g id="xtick_2">
     <g id="line2d_3">
      <path d="M 178.77352 384.48 
L 178.77352 51.84 
" clip-path="url(#pa6ed76ba73)" style="fill: none; stroke: #b0b0b0; stroke-width: 0.8; stroke-linecap: square"/>
     </g>
     <g id="line2d_4">
      <g>
       <use xlink:href="#m9415413439" x="178.77352" y="384.48" style="stroke: #000000; stroke-width: 0.8"/>
      </g>
     </g>
     <g id="text_2">
      <!-- 0.5 -->
      <g transform="translate(170.821957 399.078438) scale(0.1 -0.1)">
       <defs>
        <path id="DejaVuSans-35" d="M 691 4666 
L 3169 4666 
L 3169 4134 
L 1269 4134 
L 1269 2991 
Q 1406 3038 1543 3061 
Q 1681 3084 1819 3084 
Q 2600 3084 3056 2656 
Q 3513 2228 3513 1497 
Q 3513 744 3044 326 
Q 2575 -91 1722 -91 
Q 1428 -91 1123 -41 
Q 819 9 494 109 
L 494 744 
Q 775 591 1075 516 
Q 1375 441 1709 441 
Q 2250 441 2565 725 
Q 2881 1009 2881 1497 
Q 2881 1984 2565 2268 
Q 2250 2553 1709 2553 
Q 1456 2553 1204 2497 
Q 953 2441 691 2322 
L 691 4666 
z
" transform="scale(0.015625)"/>
       </defs>
       <use xlink:href="#DejaVuSans-30"/>
       <use xlink:href="#DejaVuSans-2e" x="63.623047"/>
       <use xlink:href="#DejaVuSans-35" x="95.410156"/>
      </g>
     </g>
    </g>
    <g id="xtick_3">
     <g id="line2d_5">
      <path d="M 242.183403 384.48 
L 242.183403 51.84 
" clip-path="url(#pa6ed76ba73)" style="fill: none; stroke: #b0b0b0; stroke-width: 0.8; stroke-linecap: square"/>
     </g>
     <g id="line2d_6">
      <g>
       <use xlink:href="#m9415413439" x="242.183403" y="384.48" style="stroke: #000000; stroke-width: 0.8"/>
      </g>
     </g>
     <g id="text_3">
      <!-- 1.0 -->
      <g transform="translate(234.231841 399.078438) scale(0.1 -0.1)">
       <defs>
        <path id="DejaVuSans-31" d="M 794 531 
L 1825 531 
L 1825 4091 
L 703 3866 
L 703 4441 
L 1819 4666 
L 2450 4666 
L 2450 531 
L 3481 531 
L 3481 0 
L 794 0 
L 794 531 
z
" transform="scale(0.015625)"/>
       </defs>
       <use xlink:href="#DejaVuSans-31"/>
       <use xlink:href="#DejaVuSans-2e" x="63.623047"/>
       <use xlink:href="#DejaVuSans-30" x="95.410156"/>
      </g>
     </g>
    </g>
    <g id="xtick_4">
     <g id="line2d_7">
      <path d="M 305.593287 384.48 
L 305.593287 51.84 
" clip-path="url(#pa6ed76ba73)" style="fill: none; stroke: #b0b0b0; stroke-width: 0.8; stroke-linecap: square"/>
     </g>
     <g id="line2d_8">
      <g>
       <use xlink:href="#m9415413439" x="305.593287" y="384.48" style="stroke: #000000; stroke-width: 0.8"/>
      </g>
     </g>
     <g id="text_4">
      <!-- 1.5 -->
      <g transform="translate(297.641724 399.078438) scale(0.1 -0.1)">
       <use xlink:href="#DejaVuSans-31"/>
       <use xlink:href="#DejaVuSans-2e" x="63.623047"/>
       <use xlink:href="#DejaVuSans-35" x="95.410156"/>
      </g>
     </g>
    </g>
    <g id="xtick_5">
     <g id="line2d_9">
      <path d="M 369.00317 384.48 
L 369.00317 51.84 
" clip-path="url(#pa6ed76ba73)" style="fill: none; stroke: #b0b0b0; stroke-width: 0.8; stroke-linecap: square"/>
     </g>
     <g id="line2d_10">
      <g>
       <use xlink:href="#m9415413439" x="369.00317" y="384.48" style="stroke: #000000; stroke-width: 0.8"/>
      </g>
     </g>
     <g id="text_5">
      <!-- 2.0 -->
      <g transform="translate(361.051608 399.078438) scale(0.1 -0.1)">
       <defs>
        <path id="DejaVuSans-32" d="M 1228 531 
L 3431 531 
L 3431 0 
L 469 0 
L 469 531 
Q 828 903 1448 1529 
Q 2069 2156 2228 2338 
Q 2531 2678 2651 2914 
Q 2772 3150 2772 3378 
Q 2772 3750 2511 3984 
Q 2250 4219 1831 4219 
Q 1534 4219 1204 4116 
Q 875 4013 500 3803 
L 500 4441 
Q 881 4594 1212 4672 
Q 1544 4750 1819 4750 
Q 2544 4750 2975 4387 
Q 3406 4025 3406 3419 
Q 3406 3131 3298 2873 
Q 3191 2616 2906 2266 
Q 2828 2175 2409 1742 
Q 1991 1309 1228 531 
z
" transform="scale(0.015625)"/>
       </defs>
       <use xlink:href="#DejaVuSans-32"/>
       <use xlink:href="#DejaVuSans-2e" x="63.623047"/>
       <use xlink:href="#DejaVuSans-30" x="95.410156"/>
      </g>
     </g>
    </g>
    <g id="xtick_6">
     <g id="line2d_11">
      <path d="M 432.413054 384.48 
L 432.413054 51.84 
" clip-path="url(#pa6ed76ba73)" style="fill: none; stroke: #b0b0b0; stroke-width: 0.8; stroke-linecap: square"/>
     </g>
     <g id="line2d_12">
      <g>
       <use xlink:href="#m9415413439" x="432.413054" y="384.48" style="stroke: #000000; stroke-width: 0.8"/>
      </g>
     </g>
     <g id="text_6">
      <!-- 2.5 -->
      <g transform="translate(424.461492 399.078438) scale(0.1 -0.1)">
       <use xlink:href="#DejaVuSans-32"/>
       <use xlink:href="#DejaVuSans-2e" x="63.623047"/>
       <use xlink:href="#DejaVuSans-35" x="95.410156"/>
      </g>
     </g>
    </g>
    <g id="xtick_7">
     <g id="line2d_13">
      <path d="M 495.822938 384.48 
L 495.822938 51.84 
" clip-path="url(#pa6ed76ba73)" style="fill: none; stroke: #b0b0b0; stroke-width: 0.8; stroke-linecap: square"/>
     </g>
     <g id="line2d_14">
      <g>
       <use xlink:href="#m9415413439" x="495.822938" y="384.48" style="stroke: #000000; stroke-width: 0.8"/>
      </g>
     </g>
     <g id="text_7">
      <!-- 3.0 -->
      <g transform="translate(487.871375 399.078438) scale(0.1 -0.1)">
       <defs>
        <path id="DejaVuSans-33" d="M 2597 2516 
Q 3050 2419 3304 2112 
Q 3559 1806 3559 1356 
Q 3559 666 3084 287 
Q 2609 -91 1734 -91 
Q 1441 -91 1130 -33 
Q 819 25 488 141 
L 488 750 
Q 750 597 1062 519 
Q 1375 441 1716 441 
Q 2309 441 2620 675 
Q 2931 909 2931 1356 
Q 2931 1769 2642 2001 
Q 2353 2234 1838 2234 
L 1294 2234 
L 1294 2753 
L 1863 2753 
Q 2328 2753 2575 2939 
Q 2822 3125 2822 3475 
Q 2822 3834 2567 4026 
Q 2313 4219 1838 4219 
Q 1578 4219 1281 4162 
Q 984 4106 628 3988 
L 628 4550 
Q 988 4650 1302 4700 
Q 1616 4750 1894 4750 
Q 2613 4750 3031 4423 
Q 3450 4097 3450 3541 
Q 3450 3153 3228 2886 
Q 3006 2619 2597 2516 
z
" transform="scale(0.015625)"/>
       </defs>
       <use xlink:href="#DejaVuSans-33"/>
       <use xlink:href="#DejaVuSans-2e" x="63.623047"/>
       <use xlink:href="#DejaVuSans-30" x="95.410156"/>
      </g>
     </g>
    </g>
    <g id="xtick_8">
     <g id="line2d_15">
      <path d="M 559.232821 384.48 
L 559.232821 51.84 
" clip-path="url(#pa6ed76ba73)" style="fill: none; stroke: #b0b0b0; stroke-width: 0.8; stroke-linecap: square"/>
     </g>
     <g id="line2d_16">
      <g>
       <use xlink:href="#m9415413439" x="559.232821" y="384.48" style="stroke: #000000; stroke-width: 0.8"/>
      </g>
     </g>
     <g id="text_8">
      <!-- 3.5 -->
      <g transform="translate(551.281259 399.078438) scale(0.1 -0.1)">
       <use xlink:href="#DejaVuSans-33"/>
       <use xlink:href="#DejaVuSans-2e" x="63.623047"/>
       <use xlink:href="#DejaVuSans-35" x="95.410156"/>
      </g>
     </g>
    </g>
    <g id="xtick_9">
     <g id="line2d_17">
      <path d="M 622.642705 384.48 
L 622.642705 51.84 
" clip-path="url(#pa6ed76ba73)" style="fill: none; stroke: #b0b0b0; stroke-width: 0.8; stroke-linecap: square"/>
     </g>
     <g id="line2d_18">
      <g>
       <use xlink:href="#m9415413439" x="622.642705" y="384.48" style="stroke: #000000; stroke-width: 0.8"/>
      </g>
     </g>
     <g id="text_9">
      <!-- 4.0 -->
      <g transform="translate(614.691142 399.078438) scale(0.1 -0.1)">
       <defs>
        <path id="DejaVuSans-34" d="M 2419 4116 
L 825 1625 
L 2419 1625 
L 2419 4116 
z
M 2253 4666 
L 3047 4666 
L 3047 1625 
L 3713 1625 
L 3713 1100 
L 3047 1100 
L 3047 0 
L 2419 0 
L 2419 1100 
L 313 1100 
L 313 1709 
L 2253 4666 
z
" transform="scale(0.015625)"/>
       </defs>
       <use xlink:href="#DejaVuSans-34"/>
       <use xlink:href="#DejaVuSans-2e" x="63.623047"/>
       <use xlink:href="#DejaVuSans-30" x="95.410156"/>
      </g>
     </g>
    </g>
    <g id="text_10">
     <!-- Time (s) -->
     <g transform="translate(348.671094 412.756563) scale(0.1 -0.1)">
      <defs>
       <path id="DejaVuSans-54" d="M -19 4666 
L 3928 4666 
L 3928 4134 
L 2272 4134 
L 2272 0 
L 1638 0 
L 1638 4134 
L -19 4134 
L -19 4666 
z
" transform="scale(0.015625)"/>
       <path id="DejaVuSans-69" d="M 603 3500 
L 1178 3500 
L 1178 0 
L 603 0 
L 603 3500 
z
M 603 4863 
L 1178 4863 
L 1178 4134 
L 603 4134 
L 603 4863 
z
" transform="scale(0.015625)"/>
       <path id="DejaVuSans-6d" d="M 3328 2828 
Q 3544 3216 3844 3400 
Q 4144 3584 4550 3584 
Q 5097 3584 5394 3201 
Q 5691 2819 5691 2113 
L 5691 0 
L 5113 0 
L 5113 2094 
Q 5113 2597 4934 2840 
Q 4756 3084 4391 3084 
Q 3944 3084 3684 2787 
Q 3425 2491 3425 1978 
L 3425 0 
L 2847 0 
L 2847 2094 
Q 2847 2600 2669 2842 
Q 2491 3084 2119 3084 
Q 1678 3084 1418 2786 
Q 1159 2488 1159 1978 
L 1159 0 
L 581 0 
L 581 3500 
L 1159 3500 
L 1159 2956 
Q 1356 3278 1631 3431 
Q 1906 3584 2284 3584 
Q 2666 3584 2933 3390 
Q 3200 3197 3328 2828 
z
" transform="scale(0.015625)"/>
       <path id="DejaVuSans-65" d="M 3597 1894 
L 3597 1613 
L 953 1613 
Q 991 1019 1311 708 
Q 1631 397 2203 397 
Q 2534 397 2845 478 
Q 3156 559 3463 722 
L 3463 178 
Q 3153 47 2828 -22 
Q 2503 -91 2169 -91 
Q 1331 -91 842 396 
Q 353 884 353 1716 
Q 353 2575 817 3079 
Q 1281 3584 2069 3584 
Q 2775 3584 3186 3129 
Q 3597 2675 3597 1894 
z
M 3022 2063 
Q 3016 2534 2758 2815 
Q 2500 3097 2075 3097 
Q 1594 3097 1305 2825 
Q 1016 2553 972 2059 
L 3022 2063 
z
" transform="scale(0.015625)"/>
       <path id="DejaVuSans-20" transform="scale(0.015625)"/>
       <path id="DejaVuSans-28" d="M 1984 4856 
Q 1566 4138 1362 3434 
Q 1159 2731 1159 2009 
Q 1159 1288 1364 580 
Q 1569 -128 1984 -844 
L 1484 -844 
Q 1016 -109 783 600 
Q 550 1309 550 2009 
Q 550 2706 781 3412 
Q 1013 4119 1484 4856 
L 1984 4856 
z
" transform="scale(0.015625)"/>
       <path id="DejaVuSans-73" d="M 2834 3397 
L 2834 2853 
Q 2591 2978 2328 3040 
Q 2066 3103 1784 3103 
Q 1356 3103 1142 2972 
Q 928 2841 928 2578 
Q 928 2378 1081 2264 
Q 1234 2150 1697 2047 
L 1894 2003 
Q 2506 1872 2764 1633 
Q 3022 1394 3022 966 
Q 3022 478 2636 193 
Q 2250 -91 1575 -91 
Q 1294 -91 989 -36 
Q 684 19 347 128 
L 347 722 
Q 666 556 975 473 
Q 1284 391 1588 391 
Q 1994 391 2212 530 
Q 2431 669 2431 922 
Q 2431 1156 2273 1281 
Q 2116 1406 1581 1522 
L 1381 1569 
Q 847 1681 609 1914 
Q 372 2147 372 2553 
Q 372 3047 722 3315 
Q 1072 3584 1716 3584 
Q 2034 3584 2315 3537 
Q 2597 3491 2834 3397 
z
" transform="scale(0.015625)"/>
       <path id="DejaVuSans-29" d="M 513 4856 
L 1013 4856 
Q 1481 4119 1714 3412 
Q 1947 2706 1947 2009 
Q 1947 1309 1714 600 
Q 1481 -109 1013 -844 
L 513 -844 
Q 928 -128 1133 580 
Q 1338 1288 1338 2009 
Q 1338 2731 1133 3434 
Q 928 4138 513 4856 
z
" transform="scale(0.015625)"/>
      </defs>
      <use xlink:href="#DejaVuSans-54"/>
      <use xlink:href="#DejaVuSans-69" x="57.958984"/>
      <use xlink:href="#DejaVuSans-6d" x="85.742188"/>
      <use xlink:href="#DejaVuSans-65" x="183.154297"/>
      <use xlink:href="#DejaVuSans-20" x="244.677734"/>
      <use xlink:href="#DejaVuSans-28" x="276.464844"/>
      <use xlink:href="#DejaVuSans-73" x="315.478516"/>
      <use xlink:href="#DejaVuSans-29" x="367.578125"/>
     </g>
    </g>
   </g>
   <g id="matplotlib.axis_2">
    <g id="ytick_1">
     <g id="line2d_19">
      <path d="M 90 341.627442 
L 648 341.627442 
" clip-path="url(#pa6ed76ba73)" style="fill: none; stroke: #b0b0b0; stroke-width: 0.8; stroke-linecap: square"/>
     </g>
     <g id="line2d_20">
      <defs>
       <path id="mce21ed532a" d="M 0 0 
L -3.5 0 
" style="stroke: #000000; stroke-width: 0.8"/>
      </defs>
      <g>
       <use xlink:href="#mce21ed532a" x="90" y="341.627442" style="stroke: #000000; stroke-width: 0.8"/>
      </g>
     </g>
     <g id="text_11">
      <!-- −70 -->
      <g transform="translate(61.895313 345.42666) scale(0.1 -0.1)">
       <defs>
        <path id="DejaVuSans-2212" d="M 678 2272 
L 4684 2272 
L 4684 1741 
L 678 1741 
L 678 2272 
z
" transform="scale(0.015625)"/>
        <path id="DejaVuSans-37" d="M 525 4666 
L 3525 4666 
L 3525 4397 
L 1831 0 
L 1172 0 
L 2766 4134 
L 525 4134 
L 525 4666 
z
" transform="scale(0.015625)"/>
       </defs>
       <use xlink:href="#DejaVuSans-2212"/>
       <use xlink:href="#DejaVuSans-37" x="83.789062"/>
       <use xlink:href="#DejaVuSans-30" x="147.412109"/>
      </g>
     </g>
    </g>
    <g id="ytick_2">
     <g id="line2d_21">
      <path d="M 90 272.71575 
L 648 272.71575 
" clip-path="url(#pa6ed76ba73)" style="fill: none; stroke: #b0b0b0; stroke-width: 0.8; stroke-linecap: square"/>
     </g>
     <g id="line2d_22">
      <g>
       <use xlink:href="#mce21ed532a" x="90" y="272.71575" style="stroke: #000000; stroke-width: 0.8"/>
      </g>
     </g>
     <g id="text_12">
      <!-- −68 -->
      <g transform="translate(61.895313 276.514969) scale(0.1 -0.1)">
       <defs>
        <path id="DejaVuSans-36" d="M 2113 2584 
Q 1688 2584 1439 2293 
Q 1191 2003 1191 1497 
Q 1191 994 1439 701 
Q 1688 409 2113 409 
Q 2538 409 2786 701 
Q 3034 994 3034 1497 
Q 3034 2003 2786 2293 
Q 2538 2584 2113 2584 
z
M 3366 4563 
L 3366 3988 
Q 3128 4100 2886 4159 
Q 2644 4219 2406 4219 
Q 1781 4219 1451 3797 
Q 1122 3375 1075 2522 
Q 1259 2794 1537 2939 
Q 1816 3084 2150 3084 
Q 2853 3084 3261 2657 
Q 3669 2231 3669 1497 
Q 3669 778 3244 343 
Q 2819 -91 2113 -91 
Q 1303 -91 875 529 
Q 447 1150 447 2328 
Q 447 3434 972 4092 
Q 1497 4750 2381 4750 
Q 2619 4750 2861 4703 
Q 3103 4656 3366 4563 
z
" transform="scale(0.015625)"/>
        <path id="DejaVuSans-38" d="M 2034 2216 
Q 1584 2216 1326 1975 
Q 1069 1734 1069 1313 
Q 1069 891 1326 650 
Q 1584 409 2034 409 
Q 2484 409 2743 651 
Q 3003 894 3003 1313 
Q 3003 1734 2745 1975 
Q 2488 2216 2034 2216 
z
M 1403 2484 
Q 997 2584 770 2862 
Q 544 3141 544 3541 
Q 544 4100 942 4425 
Q 1341 4750 2034 4750 
Q 2731 4750 3128 4425 
Q 3525 4100 3525 3541 
Q 3525 3141 3298 2862 
Q 3072 2584 2669 2484 
Q 3125 2378 3379 2068 
Q 3634 1759 3634 1313 
Q 3634 634 3220 271 
Q 2806 -91 2034 -91 
Q 1263 -91 848 271 
Q 434 634 434 1313 
Q 434 1759 690 2068 
Q 947 2378 1403 2484 
z
M 1172 3481 
Q 1172 3119 1398 2916 
Q 1625 2713 2034 2713 
Q 2441 2713 2670 2916 
Q 2900 3119 2900 3481 
Q 2900 3844 2670 4047 
Q 2441 4250 2034 4250 
Q 1625 4250 1398 4047 
Q 1172 3844 1172 3481 
z
" transform="scale(0.015625)"/>
       </defs>
       <use xlink:href="#DejaVuSans-2212"/>
       <use xlink:href="#DejaVuSans-36" x="83.789062"/>
       <use xlink:href="#DejaVuSans-38" x="147.412109"/>
      </g>
     </g>
    </g>
    <g id="ytick_3">
     <g id="line2d_23">
      <path d="M 90 203.804058 
L 648 203.804058 
" clip-path="url(#pa6ed76ba73)" style="fill: none; stroke: #b0b0b0; stroke-width: 0.8; stroke-linecap: square"/>
     </g>
     <g id="line2d_24">
      <g>
       <use xlink:href="#mce21ed532a" x="90" y="203.804058" style="stroke: #000000; stroke-width: 0.8"/>
      </g>
     </g>
     <g id="text_13">
      <!-- −66 -->
      <g transform="translate(61.895313 207.603277) scale(0.1 -0.1)">
       <use xlink:href="#DejaVuSans-2212"/>
       <use xlink:href="#DejaVuSans-36" x="83.789062"/>
       <use xlink:href="#DejaVuSans-36" x="147.412109"/>
      </g>
     </g>
    </g>
    <g id="ytick_4">
     <g id="line2d_25">
      <path d="M 90 134.892367 
L 648 134.892367 
" clip-path="url(#pa6ed76ba73)" style="fill: none; stroke: #b0b0b0; stroke-width: 0.8; stroke-linecap: square"/>
     </g>
     <g id="line2d_26">
      <g>
       <use xlink:href="#mce21ed532a" x="90" y="134.892367" style="stroke: #000000; stroke-width: 0.8"/>
      </g>
     </g>
     <g id="text_14">
      <!-- −64 -->
      <g transform="translate(61.895313 138.691586) scale(0.1 -0.1)">
       <use xlink:href="#DejaVuSans-2212"/>
       <use xlink:href="#DejaVuSans-36" x="83.789062"/>
       <use xlink:href="#DejaVuSans-34" x="147.412109"/>
      </g>
     </g>
    </g>
    <g id="ytick_5">
     <g id="line2d_27">
      <path d="M 90 65.980675 
L 648 65.980675 
" clip-path="url(#pa6ed76ba73)" style="fill: none; stroke: #b0b0b0; stroke-width: 0.8; stroke-linecap: square"/>
     </g>
     <g id="line2d_28">
      <g>
       <use xlink:href="#mce21ed532a" x="90" y="65.980675" style="stroke: #000000; stroke-width: 0.8"/>
      </g>
     </g>
     <g id="text_15">
      <!-- −62 -->
      <g transform="translate(61.895313 69.779894) scale(0.1 -0.1)">
       <use xlink:href="#DejaVuSans-2212"/>
       <use xlink:href="#DejaVuSans-36" x="83.789062"/>
       <use xlink:href="#DejaVuSans-32" x="147.412109"/>
      </g>
     </g>
    </g>
    <g id="text_16">
     <!-- Power (arbitrary units) -->
     <g transform="translate(55.815625 274.4225) rotate(-90) scale(0.1 -0.1)">
      <defs>
       <path id="DejaVuSans-50" d="M 1259 4147 
L 1259 2394 
L 2053 2394 
Q 2494 2394 2734 2622 
Q 2975 2850 2975 3272 
Q 2975 3691 2734 3919 
Q 2494 4147 2053 4147 
L 1259 4147 
z
M 628 4666 
L 2053 4666 
Q 2838 4666 3239 4311 
Q 3641 3956 3641 3272 
Q 3641 2581 3239 2228 
Q 2838 1875 2053 1875 
L 1259 1875 
L 1259 0 
L 628 0 
L 628 4666 
z
" transform="scale(0.015625)"/>
       <path id="DejaVuSans-6f" d="M 1959 3097 
Q 1497 3097 1228 2736 
Q 959 2375 959 1747 
Q 959 1119 1226 758 
Q 1494 397 1959 397 
Q 2419 397 2687 759 
Q 2956 1122 2956 1747 
Q 2956 2369 2687 2733 
Q 2419 3097 1959 3097 
z
M 1959 3584 
Q 2709 3584 3137 3096 
Q 3566 2609 3566 1747 
Q 3566 888 3137 398 
Q 2709 -91 1959 -91 
Q 1206 -91 779 398 
Q 353 888 353 1747 
Q 353 2609 779 3096 
Q 1206 3584 1959 3584 
z
" transform="scale(0.015625)"/>
       <path id="DejaVuSans-77" d="M 269 3500 
L 844 3500 
L 1563 769 
L 2278 3500 
L 2956 3500 
L 3675 769 
L 4391 3500 
L 4966 3500 
L 4050 0 
L 3372 0 
L 2619 2869 
L 1863 0 
L 1184 0 
L 269 3500 
z
" transform="scale(0.015625)"/>
       <path id="DejaVuSans-72" d="M 2631 2963 
Q 2534 3019 2420 3045 
Q 2306 3072 2169 3072 
Q 1681 3072 1420 2755 
Q 1159 2438 1159 1844 
L 1159 0 
L 581 0 
L 581 3500 
L 1159 3500 
L 1159 2956 
Q 1341 3275 1631 3429 
Q 1922 3584 2338 3584 
Q 2397 3584 2469 3576 
Q 2541 3569 2628 3553 
L 2631 2963 
z
" transform="scale(0.015625)"/>
       <path id="DejaVuSans-61" d="M 2194 1759 
Q 1497 1759 1228 1600 
Q 959 1441 959 1056 
Q 959 750 1161 570 
Q 1363 391 1709 391 
Q 2188 391 2477 730 
Q 2766 1069 2766 1631 
L 2766 1759 
L 2194 1759 
z
M 3341 1997 
L 3341 0 
L 2766 0 
L 2766 531 
Q 2569 213 2275 61 
Q 1981 -91 1556 -91 
Q 1019 -91 701 211 
Q 384 513 384 1019 
Q 384 1609 779 1909 
Q 1175 2209 1959 2209 
L 2766 2209 
L 2766 2266 
Q 2766 2663 2505 2880 
Q 2244 3097 1772 3097 
Q 1472 3097 1187 3025 
Q 903 2953 641 2809 
L 641 3341 
Q 956 3463 1253 3523 
Q 1550 3584 1831 3584 
Q 2591 3584 2966 3190 
Q 3341 2797 3341 1997 
z
" transform="scale(0.015625)"/>
       <path id="DejaVuSans-62" d="M 3116 1747 
Q 3116 2381 2855 2742 
Q 2594 3103 2138 3103 
Q 1681 3103 1420 2742 
Q 1159 2381 1159 1747 
Q 1159 1113 1420 752 
Q 1681 391 2138 391 
Q 2594 391 2855 752 
Q 3116 1113 3116 1747 
z
M 1159 2969 
Q 1341 3281 1617 3432 
Q 1894 3584 2278 3584 
Q 2916 3584 3314 3078 
Q 3713 2572 3713 1747 
Q 3713 922 3314 415 
Q 2916 -91 2278 -91 
Q 1894 -91 1617 61 
Q 1341 213 1159 525 
L 1159 0 
L 581 0 
L 581 4863 
L 1159 4863 
L 1159 2969 
z
" transform="scale(0.015625)"/>
       <path id="DejaVuSans-74" d="M 1172 4494 
L 1172 3500 
L 2356 3500 
L 2356 3053 
L 1172 3053 
L 1172 1153 
Q 1172 725 1289 603 
Q 1406 481 1766 481 
L 2356 481 
L 2356 0 
L 1766 0 
Q 1100 0 847 248 
Q 594 497 594 1153 
L 594 3053 
L 172 3053 
L 172 3500 
L 594 3500 
L 594 4494 
L 1172 4494 
z
" transform="scale(0.015625)"/>
       <path id="DejaVuSans-79" d="M 2059 -325 
Q 1816 -950 1584 -1140 
Q 1353 -1331 966 -1331 
L 506 -1331 
L 506 -850 
L 844 -850 
Q 1081 -850 1212 -737 
Q 1344 -625 1503 -206 
L 1606 56 
L 191 3500 
L 800 3500 
L 1894 763 
L 2988 3500 
L 3597 3500 
L 2059 -325 
z
" transform="scale(0.015625)"/>
       <path id="DejaVuSans-75" d="M 544 1381 
L 544 3500 
L 1119 3500 
L 1119 1403 
Q 1119 906 1312 657 
Q 1506 409 1894 409 
Q 2359 409 2629 706 
Q 2900 1003 2900 1516 
L 2900 3500 
L 3475 3500 
L 3475 0 
L 2900 0 
L 2900 538 
Q 2691 219 2414 64 
Q 2138 -91 1772 -91 
Q 1169 -91 856 284 
Q 544 659 544 1381 
z
M 1991 3584 
L 1991 3584 
z
" transform="scale(0.015625)"/>
       <path id="DejaVuSans-6e" d="M 3513 2113 
L 3513 0 
L 2938 0 
L 2938 2094 
Q 2938 2591 2744 2837 
Q 2550 3084 2163 3084 
Q 1697 3084 1428 2787 
Q 1159 2491 1159 1978 
L 1159 0 
L 581 0 
L 581 3500 
L 1159 3500 
L 1159 2956 
Q 1366 3272 1645 3428 
Q 1925 3584 2291 3584 
Q 2894 3584 3203 3211 
Q 3513 2838 3513 2113 
z
" transform="scale(0.015625)"/>
      </defs>
      <use xlink:href="#DejaVuSans-50"/>
      <use xlink:href="#DejaVuSans-6f" x="56.677734"/>
      <use xlink:href="#DejaVuSans-77" x="117.859375"/>
      <use xlink:href="#DejaVuSans-65" x="199.646484"/>
      <use xlink:href="#DejaVuSans-72" x="261.169922"/>
      <use xlink:href="#DejaVuSans-20" x="302.283203"/>
      <use xlink:href="#DejaVuSans-28" x="334.070312"/>
      <use xlink:href="#DejaVuSans-61" x="373.083984"/>
      <use xlink:href="#DejaVuSans-72" x="434.363281"/>
      <use xlink:href="#DejaVuSans-62" x="475.476562"/>
      <use xlink:href="#DejaVuSans-69" x="538.953125"/>
      <use xlink:href="#DejaVuSans-74" x="566.736328"/>
      <use xlink:href="#DejaVuSans-72" x="605.945312"/>
      <use xlink:href="#DejaVuSans-61" x="647.058594"/>
      <use xlink:href="#DejaVuSans-72" x="708.337891"/>
      <use xlink:href="#DejaVuSans-79" x="749.451172"/>
      <use xlink:href="#DejaVuSans-20" x="808.630859"/>
      <use xlink:href="#DejaVuSans-75" x="840.417969"/>
      <use xlink:href="#DejaVuSans-6e" x="903.796875"/>
      <use xlink:href="#DejaVuSans-69" x="967.175781"/>
      <use xlink:href="#DejaVuSans-74" x="994.958984"/>
      <use xlink:href="#DejaVuSans-73" x="1034.167969"/>
      <use xlink:href="#DejaVuSans-29" x="1086.267578"/>
     </g>
    </g>
   </g>
   <g id="line2d_29">
    <path d="M 115.363636 104.441639 
L 117.101067 104.576713 
L 117.811258 104.847667 
L 118.312196 105.277343 
L 118.743383 105.952609 
L 119.155547 107.04196 
L 119.567712 108.820042 
L 119.979876 111.657929 
L 120.404722 116.25499 
L 120.84225 123.614271 
L 121.29246 135.229683 
L 121.761694 153.559715 
L 122.24995 182.037991 
L 122.76357 226.067495 
L 122.991845 251.421044 
L 123.055255 245.847362 
L 123.613262 183.268614 
L 124.063472 138.152817 
L 124.526365 126.361161 
L 124.995598 66.991371 
L 125.033644 80.438681 
L 125.591651 240.833334 
L 125.769198 260.527902 
L 125.800903 252.744675 
L 126.111612 159.346665 
L 126.16234 176.222017 
L 126.435002 273.875594 
L 126.504753 257.801941 
L 126.752051 196.145444 
L 126.790097 213.924306 
L 127.069101 346.719532 
L 127.170557 346.105686 
L 127.38615 344.824757 
L 127.398832 345.395409 
L 127.728564 369.198089 
L 127.753928 364.512239 
L 128.502164 213.460253 
L 129.110899 133.529207 
L 129.453312 113.227411 
L 129.637201 110.35791 
L 129.656224 110.384967 
L 129.725975 111.003905 
L 129.865477 114.685347 
L 130.093752 127.657951 
L 130.423484 161.100496 
L 130.930763 239.54979 
L 131.55218 369.36 
L 131.704363 358.699661 
L 131.900934 344.829033 
L 131.996049 345.383206 
L 132.217983 346.70013 
L 132.268711 325.047205 
L 132.541374 196.665561 
L 132.611125 212.73591 
L 132.864764 274.417071 
L 132.909151 259.118614 
L 133.200837 159.562827 
L 133.251565 174.642043 
L 133.555932 260.530007 
L 133.625683 253.048508 
L 133.987119 203.444775 
L 134.386601 67.327189 
L 134.44367 74.393207 
L 135.001677 129.195109 
L 135.648458 140.414685 
L 135.72455 142.446773 
L 136.282557 189.870397 
L 136.764472 214.005404 
L 137.157613 224.19096 
L 137.449299 227.135299 
L 137.563437 227.349121 
L 137.601483 227.311553 
L 137.71562 226.886683 
L 137.912191 225.120083 
L 138.216558 220.056999 
L 138.654087 208.548979 
L 139.25648 186.158974 
L 140.068127 146.964602 
L 140.296403 140.455996 
L 141.488508 131.427098 
L 141.970423 126.692617 
L 143.530307 66.96 
L 143.568353 70.595003 
L 145.229692 220.926401 
L 145.451626 225.602198 
L 146.415456 242.675152 
L 147.163693 252.334252 
L 147.753405 257.374794 
L 148.203615 259.582855 
L 148.527005 260.264616 
L 148.729917 260.302279 
L 148.920147 260.064042 
L 149.180127 259.311927 
L 149.528882 257.537615 
L 149.979092 253.98184 
L 150.549781 247.524821 
L 151.259971 236.71934 
L 152.077959 220.925654 
L 153.282747 114.28332 
L 153.777344 66.966395 
L 153.859777 70.119985 
L 155.502093 128.842637 
L 157.138068 143.282487 
L 158.355537 206.257244 
L 159.427164 250.745578 
L 159.446187 251.442934 
L 159.496915 249.255056 
L 160.473428 207.538866 
L 161.38653 177.514854 
L 162.255245 155.870728 
L 163.085915 140.409812 
L 163.884879 129.436981 
L 164.65848 121.68748 
L 165.413057 116.238096 
L 166.148612 112.451388 
L 166.871485 109.827801 
L 167.588016 108.018112 
L 168.310889 106.769316 
L 169.059126 105.90773 
L 169.864431 105.314747 
L 170.796557 104.907329 
L 171.995003 104.638645 
L 173.789503 104.487383 
L 177.708234 104.435471 
L 211.55643 104.484011 
L 212.570988 104.678947 
L 213.1607 105.013737 
L 213.623592 105.539845 
L 214.042097 106.371986 
L 214.454261 107.731245 
L 214.866426 109.927826 
L 215.284931 113.464907 
L 215.716118 119.16917 
L 216.159987 128.250257 
L 216.616538 142.48682 
L 217.092113 164.767559 
L 217.58671 199.045208 
L 218.106671 251.421044 
L 218.208126 242.239383 
L 218.772474 177.336418 
L 219.165616 138.415921 
L 219.64119 126.361161 
L 220.110423 66.991371 
L 220.148469 80.438681 
L 220.706476 240.833334 
L 220.884024 260.527902 
L 220.915728 252.744675 
L 221.226437 159.346665 
L 221.277165 176.222017 
L 221.549827 273.875594 
L 221.619578 257.801941 
L 221.866877 196.145444 
L 221.904923 213.924306 
L 222.183926 346.719532 
L 222.285382 346.105686 
L 222.500976 344.824757 
L 222.513658 345.395409 
L 222.843389 369.198089 
L 222.868753 364.512239 
L 223.61699 213.460253 
L 224.225724 133.529207 
L 224.568138 113.227411 
L 224.752026 110.35791 
L 224.771049 110.384967 
L 224.8408 111.003905 
L 224.980302 114.685347 
L 225.208578 127.657951 
L 225.538309 161.100496 
L 226.045588 239.54979 
L 226.667005 369.36 
L 226.819189 358.699661 
L 227.015759 344.829033 
L 227.110874 345.383206 
L 227.332809 346.70013 
L 227.383537 325.047205 
L 227.656199 196.665561 
L 227.72595 212.73591 
L 227.97959 274.417071 
L 228.023976 259.118614 
L 228.315662 159.562827 
L 228.36639 174.642043 
L 228.670757 260.530007 
L 228.740508 253.048508 
L 229.101944 203.444775 
L 229.501427 67.327189 
L 229.558496 74.393207 
L 230.116503 129.195109 
L 230.763283 140.414685 
L 230.839375 142.446773 
L 231.397382 189.870397 
L 231.879297 214.005404 
L 232.272439 224.19096 
L 232.564124 227.135299 
L 232.678262 227.349121 
L 232.716308 227.311553 
L 232.830446 226.886683 
L 233.027016 225.120083 
L 233.331384 220.056999 
L 233.768912 208.548979 
L 234.371306 186.158974 
L 235.182952 146.964602 
L 235.411228 140.455996 
L 236.603334 131.427098 
L 237.085249 126.692617 
L 238.645132 66.96 
L 238.683178 70.595003 
L 240.344517 220.926401 
L 240.566451 225.602198 
L 241.530282 242.675152 
L 242.278518 252.334252 
L 242.86823 257.374794 
L 243.31844 259.582855 
L 243.641831 260.264616 
L 243.844742 260.302279 
L 244.034972 260.064042 
L 244.294953 259.311927 
L 244.643707 257.537615 
L 245.093917 253.98184 
L 245.664606 247.524821 
L 246.374797 236.71934 
L 247.192784 220.925654 
L 248.397572 114.28332 
L 248.892169 66.966395 
L 248.974602 70.119985 
L 250.616918 128.842637 
L 252.252893 143.282487 
L 253.470363 206.257244 
L 254.54199 250.745578 
L 254.561013 251.442934 
L 254.611741 249.255056 
L 255.588253 207.538866 
L 256.501355 177.514854 
L 257.370071 155.870728 
L 258.20074 140.409812 
L 258.999705 129.436981 
L 259.773305 121.68748 
L 260.527883 116.238096 
L 261.263437 112.451388 
L 261.98631 109.827801 
L 262.702842 108.018112 
L 263.425714 106.769316 
L 264.173951 105.90773 
L 264.979257 105.314747 
L 265.911382 104.907329 
L 267.109829 104.638645 
L 268.904328 104.487383 
L 272.823059 104.435471 
L 306.671255 104.484011 
L 307.685813 104.678947 
L 308.275525 105.013737 
L 308.738417 105.539845 
L 309.156922 106.371986 
L 309.569087 107.731245 
L 309.981251 109.927826 
L 310.399756 113.464907 
L 310.830943 119.16917 
L 311.274813 128.250257 
L 311.731364 142.48682 
L 312.206938 164.767559 
L 312.701535 199.045208 
L 313.221496 251.421044 
L 313.322952 242.239383 
L 313.8873 177.336418 
L 314.280441 138.415921 
L 314.756015 126.361161 
L 315.225248 66.991371 
L 315.263294 80.438681 
L 315.821301 240.833334 
L 315.998849 260.527902 
L 316.030554 252.744675 
L 316.341262 159.346665 
L 316.39199 176.222017 
L 316.664653 273.875594 
L 316.734403 257.801941 
L 316.981702 196.145444 
L 317.019748 213.924306 
L 317.298751 346.719532 
L 317.400207 346.105686 
L 317.615801 344.824757 
L 317.628483 345.395409 
L 317.958214 369.198089 
L 317.983578 364.512239 
L 318.731815 213.460253 
L 319.34055 133.529207 
L 319.682963 113.227411 
L 319.866852 110.35791 
L 319.885875 110.384967 
L 319.955626 111.003905 
L 320.095127 114.685347 
L 320.323403 127.657951 
L 320.653134 161.100496 
L 321.160413 239.54979 
L 321.78183 369.36 
L 321.934014 358.699661 
L 322.130585 344.829033 
L 322.225699 345.383206 
L 322.447634 346.70013 
L 322.498362 325.047205 
L 322.771024 196.665561 
L 322.840775 212.73591 
L 323.094415 274.417071 
L 323.138802 259.118614 
L 323.430487 159.562827 
L 323.481215 174.642043 
L 323.785583 260.530007 
L 323.855333 253.048508 
L 324.21677 203.444775 
L 324.616252 67.327189 
L 324.673321 74.393207 
L 325.231328 129.195109 
L 325.878109 140.414685 
L 325.954201 142.446773 
L 326.512208 189.870397 
L 326.994123 214.005404 
L 327.387264 224.19096 
L 327.678949 227.135299 
L 327.793087 227.349121 
L 327.831133 227.311553 
L 327.945271 226.886683 
L 328.141842 225.120083 
L 328.446209 220.056999 
L 328.883737 208.548979 
L 329.486131 186.158974 
L 330.297778 146.964602 
L 330.526053 140.455996 
L 331.718159 131.427098 
L 332.200074 126.692617 
L 333.759957 66.96 
L 333.798003 70.595003 
L 335.459342 220.926401 
L 335.681277 225.602198 
L 336.645107 242.675152 
L 337.393344 252.334252 
L 337.983055 257.374794 
L 338.433266 259.582855 
L 338.756656 260.264616 
L 338.959568 260.302279 
L 339.149797 260.064042 
L 339.409778 259.311927 
L 339.758532 257.537615 
L 340.208742 253.98184 
L 340.779431 247.524821 
L 341.489622 236.71934 
L 342.30761 220.925654 
L 343.512397 114.28332 
L 344.006994 66.966395 
L 344.089427 70.119985 
L 345.731743 128.842637 
L 347.367718 143.282487 
L 348.585188 206.257244 
L 349.656815 250.745578 
L 349.675838 251.442934 
L 349.726566 249.255056 
L 350.703078 207.538866 
L 351.61618 177.514854 
L 352.484896 155.870728 
L 353.315565 140.409812 
L 354.11453 129.436981 
L 354.88813 121.68748 
L 355.642708 116.238096 
L 356.378263 112.451388 
L 357.101135 109.827801 
L 357.817667 108.018112 
L 358.54054 106.769316 
L 359.288776 105.90773 
L 360.094082 105.314747 
L 361.026207 104.907329 
L 362.224654 104.638645 
L 364.019154 104.487383 
L 367.937884 104.435471 
L 401.78608 104.484011 
L 402.800638 104.678947 
L 403.39035 105.013737 
L 403.853242 105.539845 
L 404.271748 106.371986 
L 404.683912 107.731245 
L 405.096076 109.927826 
L 405.514581 113.464907 
L 405.945769 119.16917 
L 406.389638 128.250257 
L 406.846189 142.48682 
L 407.321763 164.767559 
L 407.81636 199.045208 
L 408.336321 251.421044 
L 408.437777 242.239383 
L 409.002125 177.336418 
L 409.395266 138.415921 
L 409.87084 126.361161 
L 410.340074 66.991371 
L 410.378119 80.438681 
L 410.936126 240.833334 
L 411.113674 260.527902 
L 411.145379 252.744675 
L 411.456088 159.346665 
L 411.506815 176.222017 
L 411.779478 273.875594 
L 411.849229 257.801941 
L 412.096527 196.145444 
L 412.134573 213.924306 
L 412.413577 346.719532 
L 412.515033 346.105686 
L 412.730626 344.824757 
L 412.743308 345.395409 
L 413.07304 369.198089 
L 413.098404 364.512239 
L 413.84664 213.460253 
L 414.455375 133.529207 
L 414.797788 113.227411 
L 414.981677 110.35791 
L 415.0007 110.384967 
L 415.070451 111.003905 
L 415.209953 114.685347 
L 415.438228 127.657951 
L 415.76796 161.100496 
L 416.275239 239.54979 
L 416.896656 369.36 
L 417.048839 358.699661 
L 417.24541 344.829033 
L 417.340525 345.383206 
L 417.562459 346.70013 
L 417.613187 325.047205 
L 417.88585 196.665561 
L 417.955601 212.73591 
L 418.20924 274.417071 
L 418.253627 259.118614 
L 418.545312 159.562827 
L 418.59604 174.642043 
L 418.900408 260.530007 
L 418.970159 253.048508 
L 419.331595 203.444775 
L 419.731077 67.327189 
L 419.788146 74.393207 
L 420.346153 129.195109 
L 420.992934 140.414685 
L 421.069026 142.446773 
L 421.627033 189.870397 
L 422.108948 214.005404 
L 422.502089 224.19096 
L 422.793775 227.135299 
L 422.907912 227.349121 
L 422.945958 227.311553 
L 423.060096 226.886683 
L 423.256667 225.120083 
L 423.561034 220.056999 
L 423.998562 208.548979 
L 424.600956 186.158974 
L 425.412603 146.964602 
L 425.640878 140.455996 
L 426.832984 131.427098 
L 427.314899 126.692617 
L 428.874783 66.96 
L 428.912828 70.595003 
L 430.574167 220.926401 
L 430.796102 225.602198 
L 431.759932 242.675152 
L 432.508169 252.334252 
L 433.097881 257.374794 
L 433.548091 259.582855 
L 433.871481 260.264616 
L 434.074393 260.302279 
L 434.264623 260.064042 
L 434.524603 259.311927 
L 434.873358 257.537615 
L 435.323568 253.98184 
L 435.894257 247.524821 
L 436.604447 236.71934 
L 437.422435 220.925654 
L 438.627223 114.28332 
L 439.12182 66.966395 
L 439.204253 70.119985 
L 440.846569 128.842637 
L 442.482544 143.282487 
L 443.700013 206.257244 
L 444.77164 250.745578 
L 444.790663 251.442934 
L 444.841391 249.255056 
L 445.817903 207.538866 
L 446.731006 177.514854 
L 447.599721 155.870728 
L 448.430391 140.409812 
L 449.229355 129.436981 
L 450.002956 121.68748 
L 450.757533 116.238096 
L 451.493088 112.451388 
L 452.215961 109.827801 
L 452.932492 108.018112 
L 453.655365 106.769316 
L 454.403602 105.90773 
L 455.208907 105.314747 
L 456.141032 104.907329 
L 457.339479 104.638645 
L 459.133979 104.487383 
L 463.05271 104.435471 
L 496.900906 104.484011 
L 497.915464 104.678947 
L 498.505176 105.013737 
L 498.968068 105.539845 
L 499.386573 106.371986 
L 499.798737 107.731245 
L 500.210901 109.927826 
L 500.629407 113.464907 
L 501.060594 119.16917 
L 501.504463 128.250257 
L 501.961014 142.48682 
L 502.436588 164.767559 
L 502.931186 199.045208 
L 503.451147 251.421044 
L 503.552602 242.239383 
L 504.11695 177.336418 
L 504.510092 138.415921 
L 504.985666 126.361161 
L 505.454899 66.991371 
L 505.492945 80.438681 
L 506.050952 240.833334 
L 506.228499 260.527902 
L 506.260204 252.744675 
L 506.570913 159.346665 
L 506.621641 176.222017 
L 506.894303 273.875594 
L 506.964054 257.801941 
L 507.211353 196.145444 
L 507.249399 213.924306 
L 507.528402 346.719532 
L 507.629858 346.105686 
L 507.845451 344.824757 
L 507.858133 345.395409 
L 508.187865 369.198089 
L 508.213229 364.512239 
L 508.961465 213.460253 
L 509.5702 133.529207 
L 509.912614 113.227411 
L 510.096502 110.35791 
L 510.115525 110.384967 
L 510.185276 111.003905 
L 510.324778 114.685347 
L 510.553054 127.657951 
L 510.882785 161.100496 
L 511.390064 239.54979 
L 512.011481 369.36 
L 512.163665 358.699661 
L 512.360235 344.829033 
L 512.45535 345.383206 
L 512.677285 346.70013 
L 512.728013 325.047205 
L 513.000675 196.665561 
L 513.070426 212.73591 
L 513.324065 274.417071 
L 513.368452 259.118614 
L 513.660138 159.562827 
L 513.710866 174.642043 
L 514.015233 260.530007 
L 514.084984 253.048508 
L 514.44642 203.444775 
L 514.845903 67.327189 
L 514.902972 74.393207 
L 515.460978 129.195109 
L 516.107759 140.414685 
L 516.183851 142.446773 
L 516.741858 189.870397 
L 517.223773 214.005404 
L 517.616915 224.19096 
L 517.9086 227.135299 
L 518.022738 227.349121 
L 518.060784 227.311553 
L 518.174922 226.886683 
L 518.371492 225.120083 
L 518.67586 220.056999 
L 519.113388 208.548979 
L 519.715782 186.158974 
L 520.527428 146.964602 
L 520.755704 140.455996 
L 521.94781 131.427098 
L 522.429725 126.692617 
L 523.989608 66.96 
L 524.027654 70.595003 
L 525.688993 220.926401 
L 525.910927 225.602198 
L 526.874758 242.675152 
L 527.622994 252.334252 
L 528.212706 257.374794 
L 528.662916 259.582855 
L 528.986307 260.264616 
L 529.189218 260.302279 
L 529.379448 260.064042 
L 529.639428 259.311927 
L 529.988183 257.537615 
L 530.438393 253.98184 
L 531.009082 247.524821 
L 531.719273 236.71934 
L 532.53726 220.925654 
L 533.742048 114.28332 
L 534.236645 66.966395 
L 534.319078 70.119985 
L 535.961394 128.842637 
L 537.597369 143.282487 
L 538.814839 206.257244 
L 539.886466 250.745578 
L 539.905489 251.442934 
L 539.956216 249.255056 
L 540.932729 207.538866 
L 541.845831 177.514854 
L 542.714546 155.870728 
L 543.545216 140.409812 
L 544.34418 129.436981 
L 545.117781 121.68748 
L 545.872359 116.238096 
L 546.607913 112.451388 
L 547.330786 109.827801 
L 548.047318 108.018112 
L 548.77019 106.769316 
L 549.518427 105.90773 
L 550.323732 105.314747 
L 551.255858 104.907329 
L 552.454305 104.638645 
L 554.248804 104.487383 
L 558.167535 104.435471 
L 592.015731 104.484011 
L 593.030289 104.678947 
L 593.620001 105.013737 
L 594.082893 105.539845 
L 594.501398 106.371986 
L 594.913563 107.731245 
L 595.325727 109.927826 
L 595.744232 113.464907 
L 596.175419 119.16917 
L 596.619288 128.250257 
L 597.07584 142.48682 
L 597.551414 164.767559 
L 598.046011 199.045208 
L 598.565972 251.421044 
L 598.667428 242.239383 
L 599.231776 177.336418 
L 599.624917 138.415921 
L 600.100491 126.361161 
L 600.569724 66.991371 
L 600.60777 80.438681 
L 601.165777 240.833334 
L 601.343325 260.527902 
L 601.37503 252.744675 
L 601.685738 159.346665 
L 601.736466 176.222017 
L 602.009129 273.875594 
L 602.078879 257.801941 
L 602.326178 196.145444 
L 602.364224 213.924306 
L 602.643227 346.719532 
L 602.744683 346.105686 
L 602.960277 344.824757 
L 602.972959 345.395409 
L 603.30269 369.198089 
L 603.328054 364.512239 
L 604.076291 213.460253 
L 604.685026 133.529207 
L 605.027439 113.227411 
L 605.211328 110.35791 
L 605.230351 110.384967 
L 605.300101 111.003905 
L 605.439603 114.685347 
L 605.667879 127.657951 
L 605.99761 161.100496 
L 606.504889 239.54979 
L 607.126306 369.36 
L 607.27849 358.699661 
L 607.47506 344.829033 
L 607.570175 345.383206 
L 607.79211 346.70013 
L 607.842838 325.047205 
L 608.1155 196.665561 
L 608.185251 212.73591 
L 608.438891 274.417071 
L 608.483278 259.118614 
L 608.774963 159.562827 
L 608.825691 174.642043 
L 609.130058 260.530007 
L 609.199809 253.048508 
L 609.561246 203.444775 
L 609.960728 67.327189 
L 610.017797 74.393207 
L 610.575804 129.195109 
L 611.222585 140.414685 
L 611.298676 142.446773 
L 611.856683 189.870397 
L 612.338599 214.005404 
L 612.73174 224.19096 
L 613.023425 227.135299 
L 613.137563 227.349121 
L 613.175609 227.311553 
L 613.289747 226.886683 
L 613.486317 225.120083 
L 613.790685 220.056999 
L 614.228213 208.548979 
L 614.830607 186.158974 
L 615.642253 146.964602 
L 615.870529 140.455996 
L 617.062635 131.427098 
L 617.54455 126.692617 
L 619.104433 66.96 
L 619.142479 70.595003 
L 620.803818 220.926401 
L 621.025753 225.602198 
L 621.989583 242.675152 
L 622.636364 251.23104 
L 622.636364 251.23104 
" clip-path="url(#pa6ed76ba73)" style="fill: none; stroke: #d62728; stroke-width: 1.5; stroke-linecap: square"/>
   </g>
   <g id="patch_3">
    <path d="M 90 384.48 
L 90 51.84 
" style="fill: none; stroke: #000000; stroke-width: 0.8; stroke-linejoin: miter; stroke-linecap: square"/>
   </g>
   <g id="patch_4">
    <path d="M 648 384.48 
L 648 51.84 
" style="fill: none; stroke: #000000; stroke-width: 0.8; stroke-linejoin: miter; stroke-linecap: square"/>
   </g>
   <g id="patch_5">
    <path d="M 90 384.48 
L 648 384.48 
" style="fill: none; stroke: #000000; stroke-width: 0.8; stroke-linejoin: miter; stroke-linecap: square"/>
   </g>
   <g id="patch_6">
    <path d="M 90 51.84 
L 648 51.84 
" style="fill: none; stroke: #000000; stroke-width: 0.8; stroke-linejoin: miter; stroke-linecap: square"/>
   </g>
   <g id="text_17">
    <!-- Simulated Output Power from Pulse -->
    <g transform="translate(262.315313 45.84) scale(0.12 -0.12)">
     <defs>
      <path id="DejaVuSans-53" d="M 3425 4513 
L 3425 3897 
Q 3066 4069 2747 4153 
Q 2428 4238 2131 4238 
Q 1616 4238 1336 4038 
Q 1056 3838 1056 3469 
Q 1056 3159 1242 3001 
Q 1428 2844 1947 2747 
L 2328 2669 
Q 3034 2534 3370 2195 
Q 3706 1856 3706 1288 
Q 3706 609 3251 259 
Q 2797 -91 1919 -91 
Q 1588 -91 1214 -16 
Q 841 59 441 206 
L 441 856 
Q 825 641 1194 531 
Q 1563 422 1919 422 
Q 2459 422 2753 634 
Q 3047 847 3047 1241 
Q 3047 1584 2836 1778 
Q 2625 1972 2144 2069 
L 1759 2144 
Q 1053 2284 737 2584 
Q 422 2884 422 3419 
Q 422 4038 858 4394 
Q 1294 4750 2059 4750 
Q 2388 4750 2728 4690 
Q 3069 4631 3425 4513 
z
" transform="scale(0.015625)"/>
      <path id="DejaVuSans-6c" d="M 603 4863 
L 1178 4863 
L 1178 0 
L 603 0 
L 603 4863 
z
" transform="scale(0.015625)"/>
      <path id="DejaVuSans-64" d="M 2906 2969 
L 2906 4863 
L 3481 4863 
L 3481 0 
L 2906 0 
L 2906 525 
Q 2725 213 2448 61 
Q 2172 -91 1784 -91 
Q 1150 -91 751 415 
Q 353 922 353 1747 
Q 353 2572 751 3078 
Q 1150 3584 1784 3584 
Q 2172 3584 2448 3432 
Q 2725 3281 2906 2969 
z
M 947 1747 
Q 947 1113 1208 752 
Q 1469 391 1925 391 
Q 2381 391 2643 752 
Q 2906 1113 2906 1747 
Q 2906 2381 2643 2742 
Q 2381 3103 1925 3103 
Q 1469 3103 1208 2742 
Q 947 2381 947 1747 
z
" transform="scale(0.015625)"/>
      <path id="DejaVuSans-4f" d="M 2522 4238 
Q 1834 4238 1429 3725 
Q 1025 3213 1025 2328 
Q 1025 1447 1429 934 
Q 1834 422 2522 422 
Q 3209 422 3611 934 
Q 4013 1447 4013 2328 
Q 4013 3213 3611 3725 
Q 3209 4238 2522 4238 
z
M 2522 4750 
Q 3503 4750 4090 4092 
Q 4678 3434 4678 2328 
Q 4678 1225 4090 567 
Q 3503 -91 2522 -91 
Q 1538 -91 948 565 
Q 359 1222 359 2328 
Q 359 3434 948 4092 
Q 1538 4750 2522 4750 
z
" transform="scale(0.015625)"/>
      <path id="DejaVuSans-70" d="M 1159 525 
L 1159 -1331 
L 581 -1331 
L 581 3500 
L 1159 3500 
L 1159 2969 
Q 1341 3281 1617 3432 
Q 1894 3584 2278 3584 
Q 2916 3584 3314 3078 
Q 3713 2572 3713 1747 
Q 3713 922 3314 415 
Q 2916 -91 2278 -91 
Q 1894 -91 1617 61 
Q 1341 213 1159 525 
z
M 3116 1747 
Q 3116 2381 2855 2742 
Q 2594 3103 2138 3103 
Q 1681 3103 1420 2742 
Q 1159 2381 1159 1747 
Q 1159 1113 1420 752 
Q 1681 391 2138 391 
Q 2594 391 2855 752 
Q 3116 1113 3116 1747 
z
" transform="scale(0.015625)"/>
      <path id="DejaVuSans-66" d="M 2375 4863 
L 2375 4384 
L 1825 4384 
Q 1516 4384 1395 4259 
Q 1275 4134 1275 3809 
L 1275 3500 
L 2222 3500 
L 2222 3053 
L 1275 3053 
L 1275 0 
L 697 0 
L 697 3053 
L 147 3053 
L 147 3500 
L 697 3500 
L 697 3744 
Q 697 4328 969 4595 
Q 1241 4863 1831 4863 
L 2375 4863 
z
" transform="scale(0.015625)"/>
     </defs>
     <use xlink:href="#DejaVuSans-53"/>
     <use xlink:href="#DejaVuSans-69" x="63.476562"/>
     <use xlink:href="#DejaVuSans-6d" x="91.259766"/>
     <use xlink:href="#DejaVuSans-75" x="188.671875"/>
     <use xlink:href="#DejaVuSans-6c" x="252.050781"/>
     <use xlink:href="#DejaVuSans-61" x="279.833984"/>
     <use xlink:href="#DejaVuSans-74" x="341.113281"/>
     <use xlink:href="#DejaVuSans-65" x="380.322266"/>
     <use xlink:href="#DejaVuSans-64" x="441.845703"/>
     <use xlink:href="#DejaVuSans-20" x="505.322266"/>
     <use xlink:href="#DejaVuSans-4f" x="537.109375"/>
     <use xlink:href="#DejaVuSans-75" x="615.820312"/>
     <use xlink:href="#DejaVuSans-74" x="679.199219"/>
     <use xlink:href="#DejaVuSans-70" x="718.408203"/>
     <use xlink:href="#DejaVuSans-75" x="781.884766"/>
     <use xlink:href="#DejaVuSans-74" x="845.263672"/>
     <use xlink:href="#DejaVuSans-20" x="884.472656"/>
     <use xlink:href="#DejaVuSans-50" x="916.259766"/>
     <use xlink:href="#DejaVuSans-6f" x="972.9375"/>
     <use xlink:href="#DejaVuSans-77" x="1034.119141"/>
     <use xlink:href="#DejaVuSans-65" x="1115.90625"/>
     <use xlink:href="#DejaVuSans-72" x="1177.429688"/>
     <use xlink:href="#DejaVuSans-20" x="1218.542969"/>
     <use xlink:href="#DejaVuSans-66" x="1250.330078"/>
     <use xlink:href="#DejaVuSans-72" x="1285.535156"/>
     <use xlink:href="#DejaVuSans-6f" x="1324.398438"/>
     <use xlink:href="#DejaVuSans-6d" x="1385.580078"/>
     <use xlink:href="#DejaVuSans-20" x="1482.992188"/>
     <use xlink:href="#DejaVuSans-50" x="1514.779297"/>
     <use xlink:href="#DejaVuSans-75" x="1573.332031"/>
     <use xlink:href="#DejaVuSans-6c" x="1636.710938"/>
     <use xlink:href="#DejaVuSans-73" x="1664.494141"/>
     <use xlink:href="#DejaVuSans-65" x="1716.59375"/>
    </g>
   </g>
  </g>
 </g>
 <defs>
  <clipPath id="pa6ed76ba73">
   <rect x="90" y="51.84" width="558" height="332.64"/>
  </clipPath>
 </defs>
</svg>
