<?xml version="1.0" encoding="utf-8" standalone="no"?>
<!DOCTYPE svg PUBLIC "-//W3C//DTD SVG 1.1//EN"
  "http://www.w3.org/Graphics/SVG/1.1/DTD/svg11.dtd">
<svg xmlns:xlink="http://www.w3.org/1999/xlink" width="864pt" height="504pt" viewBox="0 0 864 504" xmlns="http://www.w3.org/2000/svg" version="1.1">
 <metadata>
  <rdf:RDF xmlns:dc="http://purl.org/dc/elements/1.1/" xmlns:cc="http://creativecommons.org/ns#" xmlns:rdf="http://www.w3.org/1999/02/22-rdf-syntax-ns#">
   <cc:Work>
    <dc:type rdf:resource="http://purl.org/dc/dcmitype/StillImage"/>
    <dc:date>2025-08-08T13:23:29.196017</dc:date>
    <dc:format>image/svg+xml</dc:format>
    <dc:creator>
     <cc:Agent>
      <dc:title>Matplotlib v3.7.5, https://matplotlib.org/</dc:title>
     </cc:Agent>
    </dc:creator>
   </cc:Work>
  </rdf:RDF>
 </metadata>
 <defs>
  <style type="text/css">*{stroke-linejoin: round; stroke-linecap: butt}</style>
 </defs>
 <g id="figure_1">
  <g id="patch_1">
   <path d="M 0 504 
L 864 504 
L 864 0 
L 0 0 
z
" style="fill: #ffffff"/>
  </g>
  <g id="axes_1">
   <g id="patch_2">
    <path d="M 54.785 462.04 
L 815.56 462.04 
L 815.56 29.04 
L 54.785 29.04 
z
" style="fill: #ffffff"/>
   </g>
   <g id="matplotlib.axis_1">
    <g id="xtick_1">
     <g id="line2d_1">
      <defs>
       <path id="m1b958b00db" d="M 0 0 
L 0 3.5 
" style="stroke: #000000; stroke-width: 0.8"/>
      </defs>
      <g>
       <use xlink:href="#m1b958b00db" x="89.365682" y="462.04" style="stroke: #000000; stroke-width: 0.8"/>
      </g>
     </g>
     <g id="text_1">
      <!-- 0 -->
      <g transform="translate(86.184432 476.638438) scale(0.1 -0.1)">
       <defs>
        <path id="DejaVuSans-30" d="M 2034 4250 
Q 1547 4250 1301 3770 
Q 1056 3291 1056 2328 
Q 1056 1369 1301 889 
Q 1547 409 2034 409 
Q 2525 409 2770 889 
Q 3016 1369 3016 2328 
Q 3016 3291 2770 3770 
Q 2525 4250 2034 4250 
z
M 2034 4750 
Q 2819 4750 3233 4129 
Q 3647 3509 3647 2328 
Q 3647 1150 3233 529 
Q 2819 -91 2034 -91 
Q 1250 -91 836 529 
Q 422 1150 422 2328 
Q 422 3509 836 4129 
Q 1250 4750 2034 4750 
z
" transform="scale(0.015625)"/>
       </defs>
       <use xlink:href="#DejaVuSans-30"/>
      </g>
     </g>
    </g>
    <g id="xtick_2">
     <g id="line2d_2">
      <g>
       <use xlink:href="#m1b958b00db" x="227.688409" y="462.04" style="stroke: #000000; stroke-width: 0.8"/>
      </g>
     </g>
     <g id="text_2">
      <!-- 200 -->
      <g transform="translate(218.144659 476.638438) scale(0.1 -0.1)">
       <defs>
        <path id="DejaVuSans-32" d="M 1228 531 
L 3431 531 
L 3431 0 
L 469 0 
L 469 531 
Q 828 903 1448 1529 
Q 2069 2156 2228 2338 
Q 2531 2678 2651 2914 
Q 2772 3150 2772 3378 
Q 2772 3750 2511 3984 
Q 2250 4219 1831 4219 
Q 1534 4219 1204 4116 
Q 875 4013 500 3803 
L 500 4441 
Q 881 4594 1212 4672 
Q 1544 4750 1819 4750 
Q 2544 4750 2975 4387 
Q 3406 4025 3406 3419 
Q 3406 3131 3298 2873 
Q 3191 2616 2906 2266 
Q 2828 2175 2409 1742 
Q 1991 1309 1228 531 
z
" transform="scale(0.015625)"/>
       </defs>
       <use xlink:href="#DejaVuSans-32"/>
       <use xlink:href="#DejaVuSans-30" x="63.623047"/>
       <use xlink:href="#DejaVuSans-30" x="127.246094"/>
      </g>
     </g>
    </g>
    <g id="xtick_3">
     <g id="line2d_3">
      <g>
       <use xlink:href="#m1b958b00db" x="366.011136" y="462.04" style="stroke: #000000; stroke-width: 0.8"/>
      </g>
     </g>
     <g id="text_3">
      <!-- 400 -->
      <g transform="translate(356.467386 476.638438) scale(0.1 -0.1)">
       <defs>
        <path id="DejaVuSans-34" d="M 2419 4116 
L 825 1625 
L 2419 1625 
L 2419 4116 
z
M 2253 4666 
L 3047 4666 
L 3047 1625 
L 3713 1625 
L 3713 1100 
L 3047 1100 
L 3047 0 
L 2419 0 
L 2419 1100 
L 313 1100 
L 313 1709 
L 2253 4666 
z
" transform="scale(0.015625)"/>
       </defs>
       <use xlink:href="#DejaVuSans-34"/>
       <use xlink:href="#DejaVuSans-30" x="63.623047"/>
       <use xlink:href="#DejaVuSans-30" x="127.246094"/>
      </g>
     </g>
    </g>
    <g id="xtick_4">
     <g id="line2d_4">
      <g>
       <use xlink:href="#m1b958b00db" x="504.333864" y="462.04" style="stroke: #000000; stroke-width: 0.8"/>
      </g>
     </g>
     <g id="text_4">
      <!-- 600 -->
      <g transform="translate(494.790114 476.638438) scale(0.1 -0.1)">
       <defs>
        <path id="DejaVuSans-36" d="M 2113 2584 
Q 1688 2584 1439 2293 
Q 1191 2003 1191 1497 
Q 1191 994 1439 701 
Q 1688 409 2113 409 
Q 2538 409 2786 701 
Q 3034 994 3034 1497 
Q 3034 2003 2786 2293 
Q 2538 2584 2113 2584 
z
M 3366 4563 
L 3366 3988 
Q 3128 4100 2886 4159 
Q 2644 4219 2406 4219 
Q 1781 4219 1451 3797 
Q 1122 3375 1075 2522 
Q 1259 2794 1537 2939 
Q 1816 3084 2150 3084 
Q 2853 3084 3261 2657 
Q 3669 2231 3669 1497 
Q 3669 778 3244 343 
Q 2819 -91 2113 -91 
Q 1303 -91 875 529 
Q 447 1150 447 2328 
Q 447 3434 972 4092 
Q 1497 4750 2381 4750 
Q 2619 4750 2861 4703 
Q 3103 4656 3366 4563 
z
" transform="scale(0.015625)"/>
       </defs>
       <use xlink:href="#DejaVuSans-36"/>
       <use xlink:href="#DejaVuSans-30" x="63.623047"/>
       <use xlink:href="#DejaVuSans-30" x="127.246094"/>
      </g>
     </g>
    </g>
    <g id="xtick_5">
     <g id="line2d_5">
      <g>
       <use xlink:href="#m1b958b00db" x="642.656591" y="462.04" style="stroke: #000000; stroke-width: 0.8"/>
      </g>
     </g>
     <g id="text_5">
      <!-- 800 -->
      <g transform="translate(633.112841 476.638438) scale(0.1 -0.1)">
       <defs>
        <path id="DejaVuSans-38" d="M 2034 2216 
Q 1584 2216 1326 1975 
Q 1069 1734 1069 1313 
Q 1069 891 1326 650 
Q 1584 409 2034 409 
Q 2484 409 2743 651 
Q 3003 894 3003 1313 
Q 3003 1734 2745 1975 
Q 2488 2216 2034 2216 
z
M 1403 2484 
Q 997 2584 770 2862 
Q 544 3141 544 3541 
Q 544 4100 942 4425 
Q 1341 4750 2034 4750 
Q 2731 4750 3128 4425 
Q 3525 4100 3525 3541 
Q 3525 3141 3298 2862 
Q 3072 2584 2669 2484 
Q 3125 2378 3379 2068 
Q 3634 1759 3634 1313 
Q 3634 634 3220 271 
Q 2806 -91 2034 -91 
Q 1263 -91 848 271 
Q 434 634 434 1313 
Q 434 1759 690 2068 
Q 947 2378 1403 2484 
z
M 1172 3481 
Q 1172 3119 1398 2916 
Q 1625 2713 2034 2713 
Q 2441 2713 2670 2916 
Q 2900 3119 2900 3481 
Q 2900 3844 2670 4047 
Q 2441 4250 2034 4250 
Q 1625 4250 1398 4047 
Q 1172 3844 1172 3481 
z
" transform="scale(0.015625)"/>
       </defs>
       <use xlink:href="#DejaVuSans-38"/>
       <use xlink:href="#DejaVuSans-30" x="63.623047"/>
       <use xlink:href="#DejaVuSans-30" x="127.246094"/>
      </g>
     </g>
    </g>
    <g id="xtick_6">
     <g id="line2d_6">
      <g>
       <use xlink:href="#m1b958b00db" x="780.979318" y="462.04" style="stroke: #000000; stroke-width: 0.8"/>
      </g>
     </g>
     <g id="text_6">
      <!-- 1000 -->
      <g transform="translate(768.254318 476.638438) scale(0.1 -0.1)">
       <defs>
        <path id="DejaVuSans-31" d="M 794 531 
L 1825 531 
L 1825 4091 
L 703 3866 
L 703 4441 
L 1819 4666 
L 2450 4666 
L 2450 531 
L 3481 531 
L 3481 0 
L 794 0 
L 794 531 
z
" transform="scale(0.015625)"/>
       </defs>
       <use xlink:href="#DejaVuSans-31"/>
       <use xlink:href="#DejaVuSans-30" x="63.623047"/>
       <use xlink:href="#DejaVuSans-30" x="127.246094"/>
       <use xlink:href="#DejaVuSans-30" x="190.869141"/>
      </g>
     </g>
    </g>
    <g id="text_7">
     <!-- Mirror Displacement (µm) -->
     <g transform="translate(370.939687 490.316563) scale(0.1 -0.1)">
      <defs>
       <path id="DejaVuSans-4d" d="M 628 4666 
L 1569 4666 
L 2759 1491 
L 3956 4666 
L 4897 4666 
L 4897 0 
L 4281 0 
L 4281 4097 
L 3078 897 
L 2444 897 
L 1241 4097 
L 1241 0 
L 628 0 
L 628 4666 
z
" transform="scale(0.015625)"/>
       <path id="DejaVuSans-69" d="M 603 3500 
L 1178 3500 
L 1178 0 
L 603 0 
L 603 3500 
z
M 603 4863 
L 1178 4863 
L 1178 4134 
L 603 4134 
L 603 4863 
z
" transform="scale(0.015625)"/>
       <path id="DejaVuSans-72" d="M 2631 2963 
Q 2534 3019 2420 3045 
Q 2306 3072 2169 3072 
Q 1681 3072 1420 2755 
Q 1159 2438 1159 1844 
L 1159 0 
L 581 0 
L 581 3500 
L 1159 3500 
L 1159 2956 
Q 1341 3275 1631 3429 
Q 1922 3584 2338 3584 
Q 2397 3584 2469 3576 
Q 2541 3569 2628 3553 
L 2631 2963 
z
" transform="scale(0.015625)"/>
       <path id="DejaVuSans-6f" d="M 1959 3097 
Q 1497 3097 1228 2736 
Q 959 2375 959 1747 
Q 959 1119 1226 758 
Q 1494 397 1959 397 
Q 2419 397 2687 759 
Q 2956 1122 2956 1747 
Q 2956 2369 2687 2733 
Q 2419 3097 1959 3097 
z
M 1959 3584 
Q 2709 3584 3137 3096 
Q 3566 2609 3566 1747 
Q 3566 888 3137 398 
Q 2709 -91 1959 -91 
Q 1206 -91 779 398 
Q 353 888 353 1747 
Q 353 2609 779 3096 
Q 1206 3584 1959 3584 
z
" transform="scale(0.015625)"/>
       <path id="DejaVuSans-20" transform="scale(0.015625)"/>
       <path id="DejaVuSans-44" d="M 1259 4147 
L 1259 519 
L 2022 519 
Q 2988 519 3436 956 
Q 3884 1394 3884 2338 
Q 3884 3275 3436 3711 
Q 2988 4147 2022 4147 
L 1259 4147 
z
M 628 4666 
L 1925 4666 
Q 3281 4666 3915 4102 
Q 4550 3538 4550 2338 
Q 4550 1131 3912 565 
Q 3275 0 1925 0 
L 628 0 
L 628 4666 
z
" transform="scale(0.015625)"/>
       <path id="DejaVuSans-73" d="M 2834 3397 
L 2834 2853 
Q 2591 2978 2328 3040 
Q 2066 3103 1784 3103 
Q 1356 3103 1142 2972 
Q 928 2841 928 2578 
Q 928 2378 1081 2264 
Q 1234 2150 1697 2047 
L 1894 2003 
Q 2506 1872 2764 1633 
Q 3022 1394 3022 966 
Q 3022 478 2636 193 
Q 2250 -91 1575 -91 
Q 1294 -91 989 -36 
Q 684 19 347 128 
L 347 722 
Q 666 556 975 473 
Q 1284 391 1588 391 
Q 1994 391 2212 530 
Q 2431 669 2431 922 
Q 2431 1156 2273 1281 
Q 2116 1406 1581 1522 
L 1381 1569 
Q 847 1681 609 1914 
Q 372 2147 372 2553 
Q 372 3047 722 3315 
Q 1072 3584 1716 3584 
Q 2034 3584 2315 3537 
Q 2597 3491 2834 3397 
z
" transform="scale(0.015625)"/>
       <path id="DejaVuSans-70" d="M 1159 525 
L 1159 -1331 
L 581 -1331 
L 581 3500 
L 1159 3500 
L 1159 2969 
Q 1341 3281 1617 3432 
Q 1894 3584 2278 3584 
Q 2916 3584 3314 3078 
Q 3713 2572 3713 1747 
Q 3713 922 3314 415 
Q 2916 -91 2278 -91 
Q 1894 -91 1617 61 
Q 1341 213 1159 525 
z
M 3116 1747 
Q 3116 2381 2855 2742 
Q 2594 3103 2138 3103 
Q 1681 3103 1420 2742 
Q 1159 2381 1159 1747 
Q 1159 1113 1420 752 
Q 1681 391 2138 391 
Q 2594 391 2855 752 
Q 3116 1113 3116 1747 
z
" transform="scale(0.015625)"/>
       <path id="DejaVuSans-6c" d="M 603 4863 
L 1178 4863 
L 1178 0 
L 603 0 
L 603 4863 
z
" transform="scale(0.015625)"/>
       <path id="DejaVuSans-61" d="M 2194 1759 
Q 1497 1759 1228 1600 
Q 959 1441 959 1056 
Q 959 750 1161 570 
Q 1363 391 1709 391 
Q 2188 391 2477 730 
Q 2766 1069 2766 1631 
L 2766 1759 
L 2194 1759 
z
M 3341 1997 
L 3341 0 
L 2766 0 
L 2766 531 
Q 2569 213 2275 61 
Q 1981 -91 1556 -91 
Q 1019 -91 701 211 
Q 384 513 384 1019 
Q 384 1609 779 1909 
Q 1175 2209 1959 2209 
L 2766 2209 
L 2766 2266 
Q 2766 2663 2505 2880 
Q 2244 3097 1772 3097 
Q 1472 3097 1187 3025 
Q 903 2953 641 2809 
L 641 3341 
Q 956 3463 1253 3523 
Q 1550 3584 1831 3584 
Q 2591 3584 2966 3190 
Q 3341 2797 3341 1997 
z
" transform="scale(0.015625)"/>
       <path id="DejaVuSans-63" d="M 3122 3366 
L 3122 2828 
Q 2878 2963 2633 3030 
Q 2388 3097 2138 3097 
Q 1578 3097 1268 2742 
Q 959 2388 959 1747 
Q 959 1106 1268 751 
Q 1578 397 2138 397 
Q 2388 397 2633 464 
Q 2878 531 3122 666 
L 3122 134 
Q 2881 22 2623 -34 
Q 2366 -91 2075 -91 
Q 1284 -91 818 406 
Q 353 903 353 1747 
Q 353 2603 823 3093 
Q 1294 3584 2113 3584 
Q 2378 3584 2631 3529 
Q 2884 3475 3122 3366 
z
" transform="scale(0.015625)"/>
       <path id="DejaVuSans-65" d="M 3597 1894 
L 3597 1613 
L 953 1613 
Q 991 1019 1311 708 
Q 1631 397 2203 397 
Q 2534 397 2845 478 
Q 3156 559 3463 722 
L 3463 178 
Q 3153 47 2828 -22 
Q 2503 -91 2169 -91 
Q 1331 -91 842 396 
Q 353 884 353 1716 
Q 353 2575 817 3079 
Q 1281 3584 2069 3584 
Q 2775 3584 3186 3129 
Q 3597 2675 3597 1894 
z
M 3022 2063 
Q 3016 2534 2758 2815 
Q 2500 3097 2075 3097 
Q 1594 3097 1305 2825 
Q 1016 2553 972 2059 
L 3022 2063 
z
" transform="scale(0.015625)"/>
       <path id="DejaVuSans-6d" d="M 3328 2828 
Q 3544 3216 3844 3400 
Q 4144 3584 4550 3584 
Q 5097 3584 5394 3201 
Q 5691 2819 5691 2113 
L 5691 0 
L 5113 0 
L 5113 2094 
Q 5113 2597 4934 2840 
Q 4756 3084 4391 3084 
Q 3944 3084 3684 2787 
Q 3425 2491 3425 1978 
L 3425 0 
L 2847 0 
L 2847 2094 
Q 2847 2600 2669 2842 
Q 2491 3084 2119 3084 
Q 1678 3084 1418 2786 
Q 1159 2488 1159 1978 
L 1159 0 
L 581 0 
L 581 3500 
L 1159 3500 
L 1159 2956 
Q 1356 3278 1631 3431 
Q 1906 3584 2284 3584 
Q 2666 3584 2933 3390 
Q 3200 3197 3328 2828 
z
" transform="scale(0.015625)"/>
       <path id="DejaVuSans-6e" d="M 3513 2113 
L 3513 0 
L 2938 0 
L 2938 2094 
Q 2938 2591 2744 2837 
Q 2550 3084 2163 3084 
Q 1697 3084 1428 2787 
Q 1159 2491 1159 1978 
L 1159 0 
L 581 0 
L 581 3500 
L 1159 3500 
L 1159 2956 
Q 1366 3272 1645 3428 
Q 1925 3584 2291 3584 
Q 2894 3584 3203 3211 
Q 3513 2838 3513 2113 
z
" transform="scale(0.015625)"/>
       <path id="DejaVuSans-74" d="M 1172 4494 
L 1172 3500 
L 2356 3500 
L 2356 3053 
L 1172 3053 
L 1172 1153 
Q 1172 725 1289 603 
Q 1406 481 1766 481 
L 2356 481 
L 2356 0 
L 1766 0 
Q 1100 0 847 248 
Q 594 497 594 1153 
L 594 3053 
L 172 3053 
L 172 3500 
L 594 3500 
L 594 4494 
L 1172 4494 
z
" transform="scale(0.015625)"/>
       <path id="DejaVuSans-28" d="M 1984 4856 
Q 1566 4138 1362 3434 
Q 1159 2731 1159 2009 
Q 1159 1288 1364 580 
Q 1569 -128 1984 -844 
L 1484 -844 
Q 1016 -109 783 600 
Q 550 1309 550 2009 
Q 550 2706 781 3412 
Q 1013 4119 1484 4856 
L 1984 4856 
z
" transform="scale(0.015625)"/>
       <path id="DejaVuSans-b5" d="M 544 -1331 
L 544 3500 
L 1119 3500 
L 1119 1325 
Q 1119 872 1334 640 
Q 1550 409 1972 409 
Q 2434 409 2667 671 
Q 2900 934 2900 1459 
L 2900 3500 
L 3475 3500 
L 3475 806 
Q 3475 619 3529 530 
Q 3584 441 3700 441 
Q 3728 441 3778 458 
Q 3828 475 3916 513 
L 3916 50 
Q 3788 -22 3673 -56 
Q 3559 -91 3450 -91 
Q 3234 -91 3106 31 
Q 2978 153 2931 403 
Q 2775 156 2548 32 
Q 2322 -91 2016 -91 
Q 1697 -91 1473 31 
Q 1250 153 1119 397 
L 1119 -1331 
L 544 -1331 
z
" transform="scale(0.015625)"/>
       <path id="DejaVuSans-29" d="M 513 4856 
L 1013 4856 
Q 1481 4119 1714 3412 
Q 1947 2706 1947 2009 
Q 1947 1309 1714 600 
Q 1481 -109 1013 -844 
L 513 -844 
Q 928 -128 1133 580 
Q 1338 1288 1338 2009 
Q 1338 2731 1133 3434 
Q 928 4138 513 4856 
z
" transform="scale(0.015625)"/>
      </defs>
      <use xlink:href="#DejaVuSans-4d"/>
      <use xlink:href="#DejaVuSans-69" x="86.279297"/>
      <use xlink:href="#DejaVuSans-72" x="114.0625"/>
      <use xlink:href="#DejaVuSans-72" x="153.425781"/>
      <use xlink:href="#DejaVuSans-6f" x="192.289062"/>
      <use xlink:href="#DejaVuSans-72" x="253.470703"/>
      <use xlink:href="#DejaVuSans-20" x="294.583984"/>
      <use xlink:href="#DejaVuSans-44" x="326.371094"/>
      <use xlink:href="#DejaVuSans-69" x="403.373047"/>
      <use xlink:href="#DejaVuSans-73" x="431.15625"/>
      <use xlink:href="#DejaVuSans-70" x="483.255859"/>
      <use xlink:href="#DejaVuSans-6c" x="546.732422"/>
      <use xlink:href="#DejaVuSans-61" x="574.515625"/>
      <use xlink:href="#DejaVuSans-63" x="635.794922"/>
      <use xlink:href="#DejaVuSans-65" x="690.775391"/>
      <use xlink:href="#DejaVuSans-6d" x="752.298828"/>
      <use xlink:href="#DejaVuSans-65" x="849.710938"/>
      <use xlink:href="#DejaVuSans-6e" x="911.234375"/>
      <use xlink:href="#DejaVuSans-74" x="974.613281"/>
      <use xlink:href="#DejaVuSans-20" x="1013.822266"/>
      <use xlink:href="#DejaVuSans-28" x="1045.609375"/>
      <use xlink:href="#DejaVuSans-b5" x="1084.623047"/>
      <use xlink:href="#DejaVuSans-6d" x="1148.246094"/>
      <use xlink:href="#DejaVuSans-29" x="1245.658203"/>
     </g>
    </g>
   </g>
   <g id="matplotlib.axis_2">
    <g id="ytick_1">
     <g id="line2d_7">
      <defs>
       <path id="m0259ecab5e" d="M 0 0 
L -3.5 0 
" style="stroke: #000000; stroke-width: 0.8"/>
      </defs>
      <g>
       <use xlink:href="#m0259ecab5e" x="54.785" y="416.323667" style="stroke: #000000; stroke-width: 0.8"/>
      </g>
     </g>
     <g id="text_8">
      <!-- −70 -->
      <g style="fill: #1f77b4" transform="translate(26.680313 420.122886) scale(0.1 -0.1)">
       <defs>
        <path id="DejaVuSans-2212" d="M 678 2272 
L 4684 2272 
L 4684 1741 
L 678 1741 
L 678 2272 
z
" transform="scale(0.015625)"/>
        <path id="DejaVuSans-37" d="M 525 4666 
L 3525 4666 
L 3525 4397 
L 1831 0 
L 1172 0 
L 2766 4134 
L 525 4134 
L 525 4666 
z
" transform="scale(0.015625)"/>
       </defs>
       <use xlink:href="#DejaVuSans-2212"/>
       <use xlink:href="#DejaVuSans-37" x="83.789062"/>
       <use xlink:href="#DejaVuSans-30" x="147.412109"/>
      </g>
     </g>
    </g>
    <g id="ytick_2">
     <g id="line2d_8">
      <g>
       <use xlink:href="#m0259ecab5e" x="54.785" y="347.631017" style="stroke: #000000; stroke-width: 0.8"/>
      </g>
     </g>
     <g id="text_9">
      <!-- −65 -->
      <g style="fill: #1f77b4" transform="translate(26.680313 351.430236) scale(0.1 -0.1)">
       <defs>
        <path id="DejaVuSans-35" d="M 691 4666 
L 3169 4666 
L 3169 4134 
L 1269 4134 
L 1269 2991 
Q 1406 3038 1543 3061 
Q 1681 3084 1819 3084 
Q 2600 3084 3056 2656 
Q 3513 2228 3513 1497 
Q 3513 744 3044 326 
Q 2575 -91 1722 -91 
Q 1428 -91 1123 -41 
Q 819 9 494 109 
L 494 744 
Q 775 591 1075 516 
Q 1375 441 1709 441 
Q 2250 441 2565 725 
Q 2881 1009 2881 1497 
Q 2881 1984 2565 2268 
Q 2250 2553 1709 2553 
Q 1456 2553 1204 2497 
Q 953 2441 691 2322 
L 691 4666 
z
" transform="scale(0.015625)"/>
       </defs>
       <use xlink:href="#DejaVuSans-2212"/>
       <use xlink:href="#DejaVuSans-36" x="83.789062"/>
       <use xlink:href="#DejaVuSans-35" x="147.412109"/>
      </g>
     </g>
    </g>
    <g id="ytick_3">
     <g id="line2d_9">
      <g>
       <use xlink:href="#m0259ecab5e" x="54.785" y="278.938367" style="stroke: #000000; stroke-width: 0.8"/>
      </g>
     </g>
     <g id="text_10">
      <!-- −60 -->
      <g style="fill: #1f77b4" transform="translate(26.680313 282.737585) scale(0.1 -0.1)">
       <use xlink:href="#DejaVuSans-2212"/>
       <use xlink:href="#DejaVuSans-36" x="83.789062"/>
       <use xlink:href="#DejaVuSans-30" x="147.412109"/>
      </g>
     </g>
    </g>
    <g id="ytick_4">
     <g id="line2d_10">
      <g>
       <use xlink:href="#m0259ecab5e" x="54.785" y="210.245716" style="stroke: #000000; stroke-width: 0.8"/>
      </g>
     </g>
     <g id="text_11">
      <!-- −55 -->
      <g style="fill: #1f77b4" transform="translate(26.680313 214.044935) scale(0.1 -0.1)">
       <use xlink:href="#DejaVuSans-2212"/>
       <use xlink:href="#DejaVuSans-35" x="83.789062"/>
       <use xlink:href="#DejaVuSans-35" x="147.412109"/>
      </g>
     </g>
    </g>
    <g id="ytick_5">
     <g id="line2d_11">
      <g>
       <use xlink:href="#m0259ecab5e" x="54.785" y="141.553066" style="stroke: #000000; stroke-width: 0.8"/>
      </g>
     </g>
     <g id="text_12">
      <!-- −50 -->
      <g style="fill: #1f77b4" transform="translate(26.680313 145.352285) scale(0.1 -0.1)">
       <use xlink:href="#DejaVuSans-2212"/>
       <use xlink:href="#DejaVuSans-35" x="83.789062"/>
       <use xlink:href="#DejaVuSans-30" x="147.412109"/>
      </g>
     </g>
    </g>
    <g id="ytick_6">
     <g id="line2d_12">
      <g>
       <use xlink:href="#m0259ecab5e" x="54.785" y="72.860416" style="stroke: #000000; stroke-width: 0.8"/>
      </g>
     </g>
     <g id="text_13">
      <!-- −45 -->
      <g style="fill: #1f77b4" transform="translate(26.680313 76.659634) scale(0.1 -0.1)">
       <use xlink:href="#DejaVuSans-2212"/>
       <use xlink:href="#DejaVuSans-34" x="83.789062"/>
       <use xlink:href="#DejaVuSans-35" x="147.412109"/>
      </g>
     </g>
    </g>
    <g id="text_14">
     <!-- Power (arbitrary units) -->
     <g style="fill: #1f77b4" transform="translate(20.184688 313.055) rotate(-90) scale(0.12 -0.12)">
      <defs>
       <path id="DejaVuSans-50" d="M 1259 4147 
L 1259 2394 
L 2053 2394 
Q 2494 2394 2734 2622 
Q 2975 2850 2975 3272 
Q 2975 3691 2734 3919 
Q 2494 4147 2053 4147 
L 1259 4147 
z
M 628 4666 
L 2053 4666 
Q 2838 4666 3239 4311 
Q 3641 3956 3641 3272 
Q 3641 2581 3239 2228 
Q 2838 1875 2053 1875 
L 1259 1875 
L 1259 0 
L 628 0 
L 628 4666 
z
" transform="scale(0.015625)"/>
       <path id="DejaVuSans-77" d="M 269 3500 
L 844 3500 
L 1563 769 
L 2278 3500 
L 2956 3500 
L 3675 769 
L 4391 3500 
L 4966 3500 
L 4050 0 
L 3372 0 
L 2619 2869 
L 1863 0 
L 1184 0 
L 269 3500 
z
" transform="scale(0.015625)"/>
       <path id="DejaVuSans-62" d="M 3116 1747 
Q 3116 2381 2855 2742 
Q 2594 3103 2138 3103 
Q 1681 3103 1420 2742 
Q 1159 2381 1159 1747 
Q 1159 1113 1420 752 
Q 1681 391 2138 391 
Q 2594 391 2855 752 
Q 3116 1113 3116 1747 
z
M 1159 2969 
Q 1341 3281 1617 3432 
Q 1894 3584 2278 3584 
Q 2916 3584 3314 3078 
Q 3713 2572 3713 1747 
Q 3713 922 3314 415 
Q 2916 -91 2278 -91 
Q 1894 -91 1617 61 
Q 1341 213 1159 525 
L 1159 0 
L 581 0 
L 581 4863 
L 1159 4863 
L 1159 2969 
z
" transform="scale(0.015625)"/>
       <path id="DejaVuSans-79" d="M 2059 -325 
Q 1816 -950 1584 -1140 
Q 1353 -1331 966 -1331 
L 506 -1331 
L 506 -850 
L 844 -850 
Q 1081 -850 1212 -737 
Q 1344 -625 1503 -206 
L 1606 56 
L 191 3500 
L 800 3500 
L 1894 763 
L 2988 3500 
L 3597 3500 
L 2059 -325 
z
" transform="scale(0.015625)"/>
       <path id="DejaVuSans-75" d="M 544 1381 
L 544 3500 
L 1119 3500 
L 1119 1403 
Q 1119 906 1312 657 
Q 1506 409 1894 409 
Q 2359 409 2629 706 
Q 2900 1003 2900 1516 
L 2900 3500 
L 3475 3500 
L 3475 0 
L 2900 0 
L 2900 538 
Q 2691 219 2414 64 
Q 2138 -91 1772 -91 
Q 1169 -91 856 284 
Q 544 659 544 1381 
z
M 1991 3584 
L 1991 3584 
z
" transform="scale(0.015625)"/>
      </defs>
      <use xlink:href="#DejaVuSans-50"/>
      <use xlink:href="#DejaVuSans-6f" x="56.677734"/>
      <use xlink:href="#DejaVuSans-77" x="117.859375"/>
      <use xlink:href="#DejaVuSans-65" x="199.646484"/>
      <use xlink:href="#DejaVuSans-72" x="261.169922"/>
      <use xlink:href="#DejaVuSans-20" x="302.283203"/>
      <use xlink:href="#DejaVuSans-28" x="334.070312"/>
      <use xlink:href="#DejaVuSans-61" x="373.083984"/>
      <use xlink:href="#DejaVuSans-72" x="434.363281"/>
      <use xlink:href="#DejaVuSans-62" x="475.476562"/>
      <use xlink:href="#DejaVuSans-69" x="538.953125"/>
      <use xlink:href="#DejaVuSans-74" x="566.736328"/>
      <use xlink:href="#DejaVuSans-72" x="605.945312"/>
      <use xlink:href="#DejaVuSans-61" x="647.058594"/>
      <use xlink:href="#DejaVuSans-72" x="708.337891"/>
      <use xlink:href="#DejaVuSans-79" x="749.451172"/>
      <use xlink:href="#DejaVuSans-20" x="808.630859"/>
      <use xlink:href="#DejaVuSans-75" x="840.417969"/>
      <use xlink:href="#DejaVuSans-6e" x="903.796875"/>
      <use xlink:href="#DejaVuSans-69" x="967.175781"/>
      <use xlink:href="#DejaVuSans-74" x="994.958984"/>
      <use xlink:href="#DejaVuSans-73" x="1034.167969"/>
      <use xlink:href="#DejaVuSans-29" x="1086.267578"/>
     </g>
    </g>
   </g>
   <g id="line2d_13">
    <path d="M 89.365682 234.466745 
L 90.057988 238.986721 
L 91.4426 273.11323 
L 92.134906 257.97337 
L 92.827212 287.332608 
L 93.519517 284.186485 
L 94.211823 273.649033 
L 94.904129 289.104879 
L 95.596435 299.202698 
L 96.288741 313.463293 
L 96.981047 321.417902 
L 97.673353 321.253039 
L 98.365659 320.346296 
L 99.057965 322.626892 
L 99.750271 317.419989 
L 100.442577 367.016083 
L 101.134883 341.297555 
L 101.827189 353.085213 
L 102.519495 397.79039 
L 103.211801 366.974867 
L 103.904107 374.819568 
L 104.596413 410.072636 
L 105.288718 396.100551 
L 105.981024 431.394835 
L 106.67333 435.914811 
L 107.365636 412.174631 
L 108.057942 417.628828 
L 108.750248 394.850345 
L 109.442554 400.826605 
L 110.13486 375.053123 
L 110.827166 410.69087 
L 111.519472 384.14803 
L 112.211778 370.629316 
L 112.904084 365.765877 
L 113.59639 320.717237 
L 114.288696 334.263427 
L 114.981002 338.948266 
L 115.673308 320.373773 
L 116.365614 310.193523 
L 117.05792 317.887099 
L 117.750225 290.437516 
L 118.442531 283.980407 
L 119.134837 290.410039 
L 119.827143 284.997058 
L 120.519449 291.234351 
L 121.211755 288.871324 
L 121.904061 284.832196 
L 122.596367 253.288531 
L 123.288673 271.698161 
L 123.980979 253.123669 
L 124.673285 256.228576 
L 125.365591 269.28018 
L 126.057897 244.564564 
L 126.750203 245.567477 
L 127.442509 245.292706 
L 128.134815 252.161971 
L 128.827121 234.260667 
L 129.519426 229.74069 
L 130.211732 226.704475 
L 130.904038 222.885164 
L 131.596344 236.692387 
L 132.28865 225.63287 
L 132.980956 201.590442 
L 133.673262 224.492572 
L 134.365568 223.10498 
L 135.057874 219.642871 
L 135.75018 204.049639 
L 136.442486 209.751129 
L 137.134792 199.529663 
L 137.827098 186.849 
L 139.21171 198.581704 
L 139.904016 194.679962 
L 140.596322 196.672049 
L 141.288627 187.810697 
L 141.980933 199.818172 
L 142.673239 192.468058 
L 143.365545 181.765743 
L 144.057851 168.315722 
L 144.750157 173.453933 
L 145.442463 160.759531 
L 146.134769 176.352763 
L 146.827075 182.645009 
L 147.519381 169.318635 
L 148.211687 174.443107 
L 148.903993 153.642972 
L 149.596299 146.828661 
L 150.288605 144.561804 
L 150.980911 148.559716 
L 151.673217 157.530976 
L 152.365523 144.03974 
L 153.057829 169.140034 
L 153.750134 150.909005 
L 154.44244 144.850313 
L 155.134746 175.62462 
L 155.827052 165.114645 
L 156.519358 131.23543 
L 157.211664 149.631322 
L 157.90397 155.099257 
L 158.596276 137.376553 
L 159.288582 132.485636 
L 159.980888 139.27247 
L 160.673194 138.187126 
L 161.3655 149.507675 
L 162.057806 149.686276 
L 162.750112 137.568892 
L 163.442418 132.966485 
L 164.134724 122.717541 
L 164.82703 138.379465 
L 165.519335 116.329125 
L 166.211641 135.727929 
L 166.903947 124.654674 
L 167.596253 129.655499 
L 168.288559 127.319949 
L 168.980865 114.721717 
L 169.673171 115.985661 
L 170.365477 113.347864 
L 171.057783 113.952359 
L 171.750089 122.758757 
L 172.442395 117.538115 
L 173.134701 102.439471 
L 173.827007 107.206741 
L 174.519313 113.526465 
L 175.211619 122.346601 
L 175.903925 120.162175 
L 176.596231 109.020227 
L 177.288536 111.245869 
L 177.980842 101.79376 
L 178.673148 105.99775 
L 179.365454 99.609334 
L 180.05776 97.754632 
L 180.750066 100.378691 
L 181.442372 106.313736 
L 182.134678 93.633073 
L 182.826984 103.112659 
L 183.51929 85.554817 
L 184.211596 84.524428 
L 184.903902 95.968623 
L 185.596208 99.897843 
L 186.288514 90.19844 
L 186.98082 101.505251 
L 187.673126 85.472386 
L 188.365432 107.041878 
L 189.057738 98.208004 
L 189.750043 113.347864 
L 190.442349 93.220917 
L 191.134655 86.296698 
L 191.826961 93.19344 
L 192.519267 85.953235 
L 193.211573 88.343739 
L 193.903879 87.409519 
L 194.596185 90.116009 
L 195.288491 96.312086 
L 195.980797 95.611421 
L 196.673103 89.717592 
L 197.365409 82.765896 
L 198.057715 100.461122 
L 198.750021 82.875804 
L 199.442327 92.8225 
L 200.134633 73.272571 
L 200.826939 80.512777 
L 201.519244 81.350827 
L 202.21155 75.044842 
L 202.903856 79.743419 
L 203.596162 81.762983 
L 204.288468 92.506514 
L 205.67308 70.428696 
L 206.365386 81.117272 
L 207.057692 79.331263 
L 207.749998 72.516952 
L 208.442304 87.450734 
L 209.13461 71.953673 
L 209.826916 90.280872 
L 210.519222 77.078144 
L 211.211528 78.451997 
L 211.903834 74.522778 
L 213.288445 85.953235 
L 213.980751 75.704291 
L 214.673057 73.519865 
L 215.365363 68.848765 
L 216.057669 65.194316 
L 217.442281 92.094358 
L 218.134587 70.937021 
L 218.826893 89.223005 
L 219.519199 64.672252 
L 220.211505 77.874979 
L 220.903811 64.87833 
L 221.596117 70.703466 
L 222.288423 81.845414 
L 222.980729 66.334614 
L 223.673035 73.272571 
L 224.365341 76.102709 
L 225.057647 71.459085 
L 225.749952 59.54778 
L 226.442258 99.128485 
L 227.134564 59.424133 
L 227.82687 55.302574 
L 228.519176 61.32005 
L 229.211482 83.09562 
L 230.596094 63.064844 
L 231.2884 83.631423 
L 231.980706 61.086495 
L 232.673012 85.925758 
L 233.365318 67.667251 
L 234.057624 63.724293 
L 234.74993 76.542342 
L 235.442236 70.882067 
L 236.134542 67.145187 
L 236.826848 75.979062 
L 237.519153 66.458261 
L 238.211459 75.869154 
L 238.903765 75.141012 
L 239.596071 73.039016 
L 240.288377 86.241744 
L 240.980683 75.539429 
L 241.672989 75.456998 
L 242.365295 60.591908 
L 243.057601 70.414957 
L 243.749907 62.529041 
L 244.442213 56.635212 
L 245.134519 60.591908 
L 245.826825 78.809199 
L 246.519131 70.208879 
L 247.211437 68.711379 
L 247.903743 73.396218 
L 248.596049 56.374179 
L 249.288354 63.106059 
L 249.98066 73.409957 
L 250.672966 55.137712 
L 251.365272 81.22718 
L 252.057578 56.016978 
L 252.749884 67.296311 
L 253.44219 58.9845 
L 254.134496 70.566081 
L 254.826802 70.689728 
L 255.519108 73.396218 
L 256.211414 67.255095 
L 256.90372 67.58482 
L 257.596026 74.371654 
L 258.288332 72.516952 
L 258.980638 69.35709 
L 260.36525 86.887455 
L 261.057556 68.587733 
L 261.749861 67.419958 
L 262.442167 67.928283 
L 263.134473 71.184315 
L 263.826779 62.996151 
L 264.519085 66.334614 
L 265.211391 100.900755 
L 265.903697 67.818375 
L 266.596003 89.26422 
L 267.288309 67.900806 
L 267.980615 85.458648 
L 268.672921 58.091496 
L 269.365227 79.743419 
L 270.057533 80.526515 
L 270.749839 79.221355 
L 271.442145 75.141012 
L 272.134451 79.111447 
L 272.826757 80.347914 
L 273.519062 76.473649 
L 274.211368 95.006926 
L 274.903674 80.306699 
L 275.59598 94.910756 
L 276.288286 88.343739 
L 276.980592 76.226355 
L 277.672898 78.850415 
L 278.365204 85.389955 
L 279.05751 95.322912 
L 279.749816 76.597296 
L 280.442122 72.956585 
L 281.134428 87.615597 
L 281.826734 71.101884 
L 282.51904 88.687202 
L 283.211346 94.828325 
L 283.903652 74.289223 
L 284.595958 89.882454 
L 285.288263 92.740069 
L 286.672875 83.974886 
L 287.365181 91.050229 
L 288.057487 108.772933 
L 288.749793 105.269608 
L 289.442099 107.083094 
L 290.134405 101.23048 
L 290.826711 97.892017 
L 291.519017 93.880367 
L 292.211323 92.121835 
L 292.903629 85.99445 
L 293.595935 111.726717 
L 294.288241 90.95406 
L 294.980547 92.698853 
L 295.672853 103.442383 
L 296.365159 120.120959 
L 297.057465 93.468211 
L 297.74977 103.978186 
L 298.442076 101.271696 
L 299.134382 96.09227 
L 299.826688 123.885316 
L 300.518994 93.111009 
L 301.2113 104.12931 
L 301.903606 108.580594 
L 302.595912 115.971923 
L 303.288218 104.019402 
L 303.980524 109.762107 
L 304.67283 106.684677 
L 305.365136 116.590157 
L 306.057442 120.931532 
L 307.442054 135.109695 
L 308.13436 131.482723 
L 308.826666 109.707153 
L 309.518971 114.309561 
L 310.211277 122.882404 
L 310.903583 116.329125 
L 311.595889 106.354952 
L 312.288195 120.052266 
L 312.980501 117.4969 
L 313.672807 139.54724 
L 314.365113 139.876965 
L 315.057419 127.759582 
L 315.749725 142.487286 
L 316.442031 127.072655 
L 317.134337 135.398204 
L 317.826643 135.150911 
L 318.518949 134.299122 
L 319.211255 132.485636 
L 319.903561 164.001824 
L 320.595867 145.935657 
L 321.288172 148.765794 
L 321.980478 148.161299 
L 322.672784 168.425631 
L 323.36509 152.117996 
L 324.057396 165.925218 
L 324.749702 153.794096 
L 325.442008 164.633796 
L 326.134314 157.888178 
L 326.82662 160.196251 
L 327.518926 170.11547 
L 328.211232 140.275383 
L 328.903538 172.313635 
L 329.595844 191.217852 
L 330.28815 169.868176 
L 330.980456 176.792396 
L 331.672762 168.837787 
L 332.365068 199.282369 
L 333.057374 191.973471 
L 333.749679 186.862738 
L 334.441985 200.216589 
L 335.134291 194.78987 
L 335.826597 212.045464 
L 336.518903 192.138334 
L 337.211209 198.925167 
L 337.903515 213.66661 
L 338.595821 215.232803 
L 339.288127 201.79652 
L 339.980433 206.56379 
L 340.672739 200.697438 
L 341.365045 214.79317 
L 342.057351 213.185762 
L 342.749657 225.055852 
L 343.441963 209.380189 
L 344.134269 230.30397 
L 344.826575 246.501697 
L 345.51888 242.751078 
L 346.211186 255.665297 
L 346.903492 255.885113 
L 347.595798 255.775205 
L 348.288104 272.110317 
L 348.98041 256.462131 
L 349.672716 257.258966 
L 350.365022 257.492521 
L 351.057328 286.164833 
L 351.749634 299.216437 
L 352.44194 272.330134 
L 353.134246 266.01041 
L 353.826552 319.5632 
L 354.518858 295.287217 
L 355.211164 303.39295 
L 355.90347 349.526934 
L 356.595776 352.64558 
L 357.288081 276.712725 
L 357.980387 321.747626 
L 358.672693 380.41115 
L 359.364999 336.447853 
L 360.057305 331.007396 
L 360.749611 306.800106 
L 361.441917 368.266289 
L 362.134223 384.14803 
L 362.826529 343.468242 
L 363.518835 389.588488 
L 364.211141 358.250901 
L 364.903447 418.35697 
L 365.595753 417.587612 
L 366.288059 427.438138 
L 368.364977 323.561112 
L 369.057283 370.450715 
L 369.749588 366.191771 
L 370.441894 330.100653 
L 371.1342 340.555674 
L 371.826506 294.133181 
L 372.518812 331.763015 
L 373.211118 351.876223 
L 373.903424 296.990795 
L 374.59573 321.747626 
L 375.288036 269.211487 
L 375.980342 309.135656 
L 376.672648 298.117355 
L 377.364954 269.596166 
L 378.05726 264.88385 
L 378.749566 262.136144 
L 379.441872 274.006234 
L 380.134178 267.865111 
L 380.826484 269.719813 
L 381.518789 246.254404 
L 382.211095 241.047501 
L 382.903401 249.263142 
L 383.595707 243.506698 
L 384.288013 248.122844 
L 384.980319 232.969245 
L 385.672625 246.254404 
L 386.364931 242.3664 
L 387.057237 212.842298 
L 387.749543 226.992984 
L 388.441849 234.988809 
L 389.826461 208.583354 
L 390.518767 191.616269 
L 391.211073 200.051727 
L 391.903379 197.59253 
L 392.595685 195.971383 
L 393.28799 198.142071 
L 393.980296 191.533838 
L 394.672602 186.203289 
L 395.364908 208.171198 
L 396.057214 180.062166 
L 396.74952 182.974734 
L 397.441826 194.199113 
L 398.134132 166.529714 
L 398.826438 171.022213 
L 399.518744 167.546365 
L 400.21105 186.409367 
L 400.903356 170.349025 
L 401.595662 171.022213 
L 402.287968 185.681224 
L 402.980274 194.59753 
L 403.67258 182.851087 
L 404.364886 173.275332 
L 405.057192 173.714965 
L 405.749497 171.296983 
L 406.441803 155.44272 
L 407.134109 150.414418 
L 407.826415 157.6821 
L 409.211027 150.098432 
L 410.595639 144.960221 
L 411.287945 162.215815 
L 411.980251 150.909005 
L 412.672557 151.472285 
L 413.364863 167.381502 
L 414.057169 131.633847 
L 414.749475 135.274558 
L 415.441781 136.483548 
L 416.134087 140.316598 
L 416.826393 140.385291 
L 417.518698 146.498937 
L 418.211004 143.627584 
L 418.90331 148.642147 
L 419.595616 130.411118 
L 420.287922 138.983961 
L 420.980228 122.786234 
L 421.672534 134.381553 
L 422.36484 140.124259 
L 423.057146 120.656762 
L 423.749452 135.027264 
L 424.441758 126.426944 
L 425.134064 110.558942 
L 425.82637 115.724629 
L 426.518676 125.822449 
L 427.210982 133.859489 
L 427.903288 109.665938 
L 428.595594 124.215041 
L 429.287899 121.178826 
L 429.980205 112.372428 
L 430.672511 97.86454 
L 431.364817 110.600158 
L 432.057123 113.746281 
L 432.749429 97.424907 
L 433.441735 101.340388 
L 434.134041 103.813324 
L 434.826347 124.929444 
L 435.518653 104.376604 
L 436.210959 118.43112 
L 436.903265 108.539378 
L 437.595571 93.303348 
L 438.287877 109.8308 
L 438.980183 109.501075 
L 439.672489 115.985661 
L 440.364795 96.133485 
L 441.057101 89.442821 
L 441.749406 109.26752 
L 442.441712 107.838713 
L 443.134018 112.935708 
L 443.826324 95.474036 
L 444.51863 98.359127 
L 445.210936 98.757545 
L 445.903242 105.860365 
L 446.595548 98.070618 
L 447.287854 84.551905 
L 447.98016 91.531078 
L 448.672466 100.625985 
L 449.364772 94.979449 
L 450.057078 98.565205 
L 450.749384 100.419907 
L 451.44169 89.882454 
L 452.133996 92.657637 
L 452.826302 91.105183 
L 453.518607 98.029403 
L 454.210913 103.689677 
L 454.903219 94.677201 
L 455.595525 90.239656 
L 456.287831 90.926583 
L 456.980137 76.775897 
L 457.672443 105.832888 
L 458.364749 83.906194 
L 459.057055 87.134748 
L 459.749361 79.784635 
L 460.441667 85.966973 
L 461.133973 72.750507 
L 461.826279 85.925758 
L 462.518585 84.400781 
L 463.210891 85.128923 
L 463.903197 88.302523 
L 464.595503 87.615597 
L 465.287808 74.041929 
L 465.980114 76.995713 
L 466.67242 87.409519 
L 467.364726 75.141012 
L 468.057032 84.139749 
L 468.749338 70.002801 
L 469.441644 76.954497 
L 470.13395 79.894543 
L 470.826256 80.01819 
L 471.518562 91.407431 
L 472.210868 76.542342 
L 472.903174 77.95741 
L 473.59548 88.659725 
L 474.287786 81.268396 
L 474.980092 91.613509 
L 475.672398 80.705116 
L 476.364704 99.664288 
L 477.05701 77.201791 
L 477.749315 78.163488 
L 478.441621 68.752595 
L 479.133927 80.746332 
L 479.826233 80.059405 
L 480.518539 88.591032 
L 481.210845 76.995713 
L 481.903151 78.534428 
L 482.595457 78.342089 
L 483.287763 80.938671 
L 483.980069 67.502389 
L 484.672375 78.534428 
L 485.364681 78.809199 
L 486.056987 78.767983 
L 486.749293 95.487775 
L 487.441599 75.869154 
L 488.133905 66.719293 
L 488.826211 98.400343 
L 489.518516 64.974499 
L 490.210822 69.178489 
L 490.903128 76.322525 
L 491.595434 71.376654 
L 492.28774 72.668076 
L 492.980046 102.439471 
L 493.672352 74.399131 
L 494.364658 61.567344 
L 495.056964 67.145187 
L 495.74927 67.900806 
L 496.441576 74.646424 
L 497.133882 70.648512 
L 497.826188 71.857503 
L 498.518494 65.125623 
L 499.2108 64.631036 
L 499.903106 63.504477 
L 501.287717 80.705116 
L 501.980023 73.822113 
L 502.672329 76.830851 
L 503.364635 72.146012 
L 504.056941 70.524865 
L 504.749247 76.968236 
L 505.441553 68.230531 
L 506.133859 63.957848 
L 506.826165 64.040279 
L 507.518471 65.633949 
L 508.210777 78.974061 
L 508.903083 65.125623 
L 509.595389 70.085232 
L 510.287695 76.143924 
L 510.980001 67.543604 
L 511.672307 72.530691 
L 512.364613 82.72468 
L 513.749224 65.606472 
L 514.44153 85.115184 
L 515.133836 63.518215 
L 515.826142 100.090182 
L 516.518448 78.383305 
L 517.210754 95.322912 
L 517.90306 82.394955 
L 518.595366 67.02154 
L 519.287672 74.151837 
L 519.979978 70.11271 
L 520.672284 85.843326 
L 521.36459 72.91537 
L 522.749202 86.200528 
L 523.441508 73.313787 
L 524.133814 75.456998 
L 524.82612 81.804199 
L 525.518425 96.243394 
L 526.210731 70.332526 
L 526.903037 78.809199 
L 527.595343 76.363741 
L 528.287649 80.306699 
L 528.979955 88.549817 
L 529.672261 71.898718 
L 530.364567 98.716329 
L 531.056873 78.122273 
L 531.749179 90.143486 
L 532.441485 83.219267 
L 533.133791 66.815462 
L 534.518403 91.778371 
L 535.210709 75.402044 
L 536.595321 91.902018 
L 537.287626 77.558993 
L 537.979932 85.99445 
L 538.672238 102.920319 
L 539.364544 91.256307 
L 540.05685 100.818324 
L 540.749156 86.489037 
L 541.441462 109.185089 
L 542.133768 83.535253 
L 542.826074 101.518989 
L 543.51838 82.601033 
L 544.210686 103.772108 
L 544.902992 106.519814 
L 545.595298 101.024402 
L 546.287604 105.99775 
L 546.97991 88.549817 
L 547.672216 91.448647 
L 548.364522 101.79376 
L 549.056828 88.343739 
L 549.749133 93.275871 
L 550.441439 105.62681 
L 551.133745 97.191352 
L 551.826051 100.6672 
L 552.518357 90.239656 
L 553.210663 88.769633 
L 553.902969 108.979011 
L 554.595275 101.065618 
L 555.979887 114.831625 
L 556.672193 107.261695 
L 557.364499 115.683414 
L 558.056805 111.438208 
L 558.749111 112.921969 
L 559.441417 124.50355 
L 560.133723 106.231305 
L 560.826029 106.437383 
L 561.518334 108.937795 
L 562.21064 118.032702 
L 562.902946 119.887404 
L 563.595252 110.792497 
L 564.287558 119.969835 
L 564.979864 134.752493 
L 565.67217 110.435295 
L 566.364476 119.64011 
L 567.056782 125.53394 
L 567.749088 111.163437 
L 568.441394 137.046828 
L 569.1337 112.812061 
L 569.826006 148.202514 
L 570.518312 121.989399 
L 571.210618 124.847013 
L 571.902924 123.638023 
L 572.59523 149.933569 
L 573.287535 148.999349 
L 573.979841 149.851138 
L 574.672147 159.55054 
L 575.364453 133.57098 
L 576.056759 154.055128 
L 576.749065 139.712103 
L 577.441371 144.438157 
L 578.133677 153.258294 
L 578.825983 165.925218 
L 579.518289 154.769532 
L 580.210595 150.016 
L 580.902901 171.970171 
L 581.595207 146.00435 
L 582.287513 171.736616 
L 582.979819 154.906917 
L 583.672125 147.391941 
L 584.364431 169.92313 
L 585.056737 165.650448 
L 586.441348 162.573017 
L 587.133654 164.345287 
L 587.82596 154.261206 
L 588.518266 199.199938 
L 589.210572 185.186637 
L 589.902878 160.031389 
L 591.28749 193.800696 
L 591.979796 201.219502 
L 592.672102 195.572966 
L 593.364408 196.465971 
L 594.056714 208.542139 
L 594.74902 189.871476 
L 595.441326 186.766568 
L 596.133632 215.466358 
L 596.825938 221.057939 
L 597.518243 197.345237 
L 598.210549 199.447232 
L 598.902855 228.037113 
L 599.595161 231.966332 
L 600.287467 223.723214 
L 600.979773 236.046676 
L 601.672079 224.0392 
L 602.364385 238.972983 
L 603.056691 238.753166 
L 603.748997 255.733989 
L 604.441303 253.041237 
L 605.133609 259.580778 
L 605.825915 267.659033 
L 606.518221 268.304744 
L 607.210527 283.650682 
L 607.902833 267.796419 
L 608.595139 303.653982 
L 609.287444 238.06624 
L 609.97975 287.497471 
L 610.672056 299.367561 
L 611.364362 304.574464 
L 612.056668 328.506983 
L 612.748974 312.693935 
L 613.44128 352.27464 
L 614.133586 343.028609 
L 614.825892 347.424939 
L 615.518198 386.140117 
L 616.210504 378.199246 
L 616.90281 314.438728 
L 617.595116 405.483967 
L 618.287422 404.05516 
L 618.979728 373.21216 
L 619.672034 442.358182 
L 620.36434 415.018507 
L 621.056646 429.265363 
L 621.748951 421.461878 
L 623.133563 432.727472 
L 623.825869 381.276677 
L 624.518175 403.807866 
L 625.210481 352.961567 
L 625.902787 371.673445 
L 626.595093 326.10274 
L 627.287399 329.674758 
L 627.979705 339.84127 
L 628.672011 311.52616 
L 629.364317 339.277991 
L 630.056623 309.066963 
L 630.748929 290.286392 
L 631.441235 264.993759 
L 632.133541 295.850497 
L 632.825847 293.542424 
L 633.518152 277.853023 
L 634.210458 272.261441 
L 634.902764 276.918803 
L 635.59507 270.695249 
L 636.287376 258.014585 
L 636.979682 267.466694 
L 637.671988 275.174009 
L 638.364294 269.403827 
L 639.0566 255.775205 
L 639.748906 237.379313 
L 640.441212 235.964245 
L 641.133518 246.213188 
L 641.825824 246.790206 
L 642.51813 242.654909 
L 643.210436 232.158672 
L 643.902742 203.651222 
L 644.595048 241.528349 
L 645.287353 223.475921 
L 645.979659 227.473833 
L 646.671965 221.580004 
L 647.364271 207.69035 
L 648.056577 207.923905 
L 648.748883 193.223677 
L 649.441189 202.92308 
L 650.133495 189.18455 
L 650.825801 196.905604 
L 651.518107 194.927255 
L 652.210413 193.512187 
L 652.902719 203.733653 
L 653.595025 177.534276 
L 654.287331 173.234116 
L 654.979637 195.490535 
L 655.671943 186.28572 
L 656.364249 182.08173 
L 657.056555 173.797396 
L 657.74886 187.329848 
L 658.441166 178.605881 
L 659.133472 198.966383 
L 659.825778 185.942257 
L 660.518084 167.024301 
L 661.21039 165.032214 
L 661.902696 176.036776 
L 662.595002 157.6821 
L 663.287308 157.21499 
L 664.67192 173.838612 
L 665.364226 156.431894 
L 666.056532 150.744142 
L 666.748838 170.472672 
L 667.441144 150.826574 
L 668.13345 161.157948 
L 668.825756 140.852401 
L 669.518061 160.718315 
L 670.210367 149.809922 
L 670.902673 144.685451 
L 671.594979 149.232904 
L 672.287285 163.452283 
L 672.979591 143.627584 
L 673.671897 139.918181 
L 674.364203 122.26417 
L 675.056509 128.130522 
L 675.748815 126.715453 
L 676.441121 128.872403 
L 677.133427 126.46816 
L 677.825733 141.690451 
L 678.518039 128.364077 
L 679.210345 110.792497 
L 679.902651 104.623897 
L 680.594957 129.902792 
L 681.287262 97.58977 
L 681.979568 114.433208 
L 682.671874 118.788322 
L 683.36418 113.869928 
L 684.056486 100.76337 
L 684.748792 118.142611 
L 685.441098 115.06518 
L 686.82571 101.23048 
L 687.518016 100.694677 
L 688.210322 108.168438 
L 688.902628 103.689677 
L 689.594934 90.322087 
L 690.28724 97.108921 
L 690.979546 110.833713 
L 691.671852 118.183826 
L 692.364158 103.126397 
L 693.056464 109.748369 
L 693.748769 99.856627 
L 694.441075 94.635986 
L 695.133381 101.106833 
L 695.825687 95.89993 
L 696.517993 89.841239 
L 697.210299 96.779196 
L 697.902605 93.426995 
L 698.594911 93.111009 
L 699.287217 74.206791 
L 699.979523 82.930758 
L 700.671829 80.155575 
L 701.364135 82.188877 
L 702.056441 86.887455 
L 702.748747 105.915319 
L 703.441053 91.283784 
L 704.133359 96.545641 
L 704.825665 95.831238 
L 705.51797 87.972799 
L 706.210276 89.113097 
L 706.902582 91.132661 
L 707.594888 92.011926 
L 708.287194 79.180139 
L 708.9795 80.224268 
L 709.671806 91.613509 
L 710.364112 86.406606 
L 711.056418 86.489037 
L 711.748724 74.893718 
L 712.44103 89.951147 
L 713.133336 72.269659 
L 713.825642 94.03149 
L 714.517948 83.329175 
L 715.210254 74.893718 
L 715.90256 72.228443 
L 716.594866 87.327088 
L 717.287171 67.172664 
L 717.979477 101.285434 
L 718.671783 95.006926 
L 719.364089 75.704291 
L 720.056395 78.287135 
L 720.748701 67.557343 
L 721.441007 71.335439 
L 722.133313 78.726768 
L 722.825619 60.509477 
L 723.517925 71.98115 
L 724.210231 87.134748 
L 724.902537 78.795461 
L 725.594843 79.702203 
L 726.287149 66.774247 
L 726.979455 64.919545 
L 727.671761 81.680552 
L 728.364067 70.648512 
L 729.056373 66.897893 
L 729.748678 68.203054 
L 730.440984 77.476562 
L 731.13329 71.747595 
L 731.825596 63.985325 
L 732.517902 61.498651 
L 733.210208 70.167664 
L 733.902514 71.362916 
L 734.59482 66.856678 
L 735.287126 58.9845 
L 735.979432 74.522778 
L 737.364044 71.170576 
L 738.05635 75.498213 
L 738.748656 69.906632 
L 739.440962 60.275922 
L 740.133268 69.398306 
L 740.825574 62.899981 
L 741.517879 65.098146 
L 742.210185 72.750507 
L 743.594797 48.721818 
L 744.287103 90.157225 
L 744.979409 65.578995 
L 745.671715 71.541517 
L 746.364021 65.441609 
L 747.056327 61.526128 
L 747.748633 83.864978 
L 748.440939 78.493213 
L 749.825551 60.358353 
L 750.517857 65.565256 
L 751.210163 50.535304 
L 751.902469 69.92037 
L 752.594775 58.860853 
L 753.28708 77.504039 
L 753.979386 72.310874 
L 754.671692 69.645599 
L 755.363998 58.682252 
L 756.056304 57.143537 
L 756.74861 59.520303 
L 757.440916 77.600208 
L 758.133222 70.978237 
L 758.825528 85.389955 
L 759.517834 79.056493 
L 760.21014 80.828763 
L 760.902446 78.589383 
L 761.594752 65.565256 
L 762.287058 68.999889 
L 762.979364 84.895368 
L 763.67167 63.820463 
L 764.363976 62.295486 
L 765.056282 63.229706 
L 765.748587 52.554868 
L 766.440893 59.218055 
L 767.133199 83.178052 
L 767.825505 84.78546 
L 768.517811 69.728031 
L 769.210117 65.276747 
L 769.902423 66.032366 
L 770.594729 86.365391 
L 771.287035 81.515689 
L 771.979341 75.539429 
L 772.671647 87.052317 
L 773.363953 77.201791 
L 774.056259 73.643512 
L 774.748565 73.437434 
L 775.440871 81.350827 
L 776.133177 75.209704 
L 776.825483 74.522778 
L 777.517788 80.787547 
L 778.210094 66.485738 
L 778.9024 78.836676 
L 779.594706 81.872891 
L 780.287012 64.631036 
L 780.979318 79.276309 
L 780.979318 79.276309 
" clip-path="url(#pf64cbc8448)" style="fill: none; stroke: #1f77b4; stroke-width: 1.5; stroke-linecap: square"/>
   </g>
   <g id="patch_3">
    <path d="M 54.785 462.04 
L 54.785 29.04 
" style="fill: none; stroke: #000000; stroke-width: 0.8; stroke-linejoin: miter; stroke-linecap: square"/>
   </g>
   <g id="patch_4">
    <path d="M 815.56 462.04 
L 815.56 29.04 
" style="fill: none; stroke: #000000; stroke-width: 0.8; stroke-linejoin: miter; stroke-linecap: square"/>
   </g>
   <g id="patch_5">
    <path d="M 54.785 462.04 
L 815.56 462.04 
" style="fill: none; stroke: #000000; stroke-width: 0.8; stroke-linejoin: miter; stroke-linecap: square"/>
   </g>
   <g id="patch_6">
    <path d="M 54.785 29.04 
L 815.56 29.04 
" style="fill: none; stroke: #000000; stroke-width: 0.8; stroke-linejoin: miter; stroke-linecap: square"/>
   </g>
   <g id="text_15">
    <!-- Sensitivity Analysis -->
    <g transform="translate(358.02125 23.04) scale(0.16 -0.16)">
     <defs>
      <path id="DejaVuSans-53" d="M 3425 4513 
L 3425 3897 
Q 3066 4069 2747 4153 
Q 2428 4238 2131 4238 
Q 1616 4238 1336 4038 
Q 1056 3838 1056 3469 
Q 1056 3159 1242 3001 
Q 1428 2844 1947 2747 
L 2328 2669 
Q 3034 2534 3370 2195 
Q 3706 1856 3706 1288 
Q 3706 609 3251 259 
Q 2797 -91 1919 -91 
Q 1588 -91 1214 -16 
Q 841 59 441 206 
L 441 856 
Q 825 641 1194 531 
Q 1563 422 1919 422 
Q 2459 422 2753 634 
Q 3047 847 3047 1241 
Q 3047 1584 2836 1778 
Q 2625 1972 2144 2069 
L 1759 2144 
Q 1053 2284 737 2584 
Q 422 2884 422 3419 
Q 422 4038 858 4394 
Q 1294 4750 2059 4750 
Q 2388 4750 2728 4690 
Q 3069 4631 3425 4513 
z
" transform="scale(0.015625)"/>
      <path id="DejaVuSans-76" d="M 191 3500 
L 800 3500 
L 1894 563 
L 2988 3500 
L 3597 3500 
L 2284 0 
L 1503 0 
L 191 3500 
z
" transform="scale(0.015625)"/>
      <path id="DejaVuSans-41" d="M 2188 4044 
L 1331 1722 
L 3047 1722 
L 2188 4044 
z
M 1831 4666 
L 2547 4666 
L 4325 0 
L 3669 0 
L 3244 1197 
L 1141 1197 
L 716 0 
L 50 0 
L 1831 4666 
z
" transform="scale(0.015625)"/>
     </defs>
     <use xlink:href="#DejaVuSans-53"/>
     <use xlink:href="#DejaVuSans-65" x="63.476562"/>
     <use xlink:href="#DejaVuSans-6e" x="125"/>
     <use xlink:href="#DejaVuSans-73" x="188.378906"/>
     <use xlink:href="#DejaVuSans-69" x="240.478516"/>
     <use xlink:href="#DejaVuSans-74" x="268.261719"/>
     <use xlink:href="#DejaVuSans-69" x="307.470703"/>
     <use xlink:href="#DejaVuSans-76" x="335.253906"/>
     <use xlink:href="#DejaVuSans-69" x="394.433594"/>
     <use xlink:href="#DejaVuSans-74" x="422.216797"/>
     <use xlink:href="#DejaVuSans-79" x="461.425781"/>
     <use xlink:href="#DejaVuSans-20" x="520.605469"/>
     <use xlink:href="#DejaVuSans-41" x="552.392578"/>
     <use xlink:href="#DejaVuSans-6e" x="620.800781"/>
     <use xlink:href="#DejaVuSans-61" x="684.179688"/>
     <use xlink:href="#DejaVuSans-6c" x="745.458984"/>
     <use xlink:href="#DejaVuSans-79" x="773.242188"/>
     <use xlink:href="#DejaVuSans-73" x="832.421875"/>
     <use xlink:href="#DejaVuSans-69" x="884.521484"/>
     <use xlink:href="#DejaVuSans-73" x="912.304688"/>
    </g>
   </g>
  </g>
  <g id="axes_2">
   <g id="matplotlib.axis_3">
    <g id="ytick_7">
     <g id="line2d_14">
      <defs>
       <path id="m38af712628" d="M 0 0 
L 3.5 0 
" style="stroke: #000000; stroke-width: 0.8"/>
      </defs>
      <g>
       <use xlink:href="#m38af712628" x="815.56" y="456.451884" style="stroke: #000000; stroke-width: 0.8"/>
      </g>
     </g>
     <g id="text_16">
      <!-- −4 -->
      <g style="fill: #2ca02c" transform="translate(822.56 460.251102) scale(0.1 -0.1)">
       <use xlink:href="#DejaVuSans-2212"/>
       <use xlink:href="#DejaVuSans-34" x="83.789062"/>
      </g>
     </g>
    </g>
    <g id="ytick_8">
     <g id="line2d_15">
      <g>
       <use xlink:href="#m38af712628" x="815.56" y="395.114649" style="stroke: #000000; stroke-width: 0.8"/>
      </g>
     </g>
     <g id="text_17">
      <!-- −3 -->
      <g style="fill: #2ca02c" transform="translate(822.56 398.913868) scale(0.1 -0.1)">
       <defs>
        <path id="DejaVuSans-33" d="M 2597 2516 
Q 3050 2419 3304 2112 
Q 3559 1806 3559 1356 
Q 3559 666 3084 287 
Q 2609 -91 1734 -91 
Q 1441 -91 1130 -33 
Q 819 25 488 141 
L 488 750 
Q 750 597 1062 519 
Q 1375 441 1716 441 
Q 2309 441 2620 675 
Q 2931 909 2931 1356 
Q 2931 1769 2642 2001 
Q 2353 2234 1838 2234 
L 1294 2234 
L 1294 2753 
L 1863 2753 
Q 2328 2753 2575 2939 
Q 2822 3125 2822 3475 
Q 2822 3834 2567 4026 
Q 2313 4219 1838 4219 
Q 1578 4219 1281 4162 
Q 984 4106 628 3988 
L 628 4550 
Q 988 4650 1302 4700 
Q 1616 4750 1894 4750 
Q 2613 4750 3031 4423 
Q 3450 4097 3450 3541 
Q 3450 3153 3228 2886 
Q 3006 2619 2597 2516 
z
" transform="scale(0.015625)"/>
       </defs>
       <use xlink:href="#DejaVuSans-2212"/>
       <use xlink:href="#DejaVuSans-33" x="83.789062"/>
      </g>
     </g>
    </g>
    <g id="ytick_9">
     <g id="line2d_16">
      <g>
       <use xlink:href="#m38af712628" x="815.56" y="333.777415" style="stroke: #000000; stroke-width: 0.8"/>
      </g>
     </g>
     <g id="text_18">
      <!-- −2 -->
      <g style="fill: #2ca02c" transform="translate(822.56 337.576633) scale(0.1 -0.1)">
       <use xlink:href="#DejaVuSans-2212"/>
       <use xlink:href="#DejaVuSans-32" x="83.789062"/>
      </g>
     </g>
    </g>
    <g id="ytick_10">
     <g id="line2d_17">
      <g>
       <use xlink:href="#m38af712628" x="815.56" y="272.44018" style="stroke: #000000; stroke-width: 0.8"/>
      </g>
     </g>
     <g id="text_19">
      <!-- −1 -->
      <g style="fill: #2ca02c" transform="translate(822.56 276.239399) scale(0.1 -0.1)">
       <use xlink:href="#DejaVuSans-2212"/>
       <use xlink:href="#DejaVuSans-31" x="83.789062"/>
      </g>
     </g>
    </g>
    <g id="ytick_11">
     <g id="line2d_18">
      <g>
       <use xlink:href="#m38af712628" x="815.56" y="211.102946" style="stroke: #000000; stroke-width: 0.8"/>
      </g>
     </g>
     <g id="text_20">
      <!-- 0 -->
      <g style="fill: #2ca02c" transform="translate(822.56 214.902165) scale(0.1 -0.1)">
       <use xlink:href="#DejaVuSans-30"/>
      </g>
     </g>
    </g>
    <g id="ytick_12">
     <g id="line2d_19">
      <g>
       <use xlink:href="#m38af712628" x="815.56" y="149.765711" style="stroke: #000000; stroke-width: 0.8"/>
      </g>
     </g>
     <g id="text_21">
      <!-- 1 -->
      <g style="fill: #2ca02c" transform="translate(822.56 153.56493) scale(0.1 -0.1)">
       <use xlink:href="#DejaVuSans-31"/>
      </g>
     </g>
    </g>
    <g id="ytick_13">
     <g id="line2d_20">
      <g>
       <use xlink:href="#m38af712628" x="815.56" y="88.428477" style="stroke: #000000; stroke-width: 0.8"/>
      </g>
     </g>
     <g id="text_22">
      <!-- 2 -->
      <g style="fill: #2ca02c" transform="translate(822.56 92.227696) scale(0.1 -0.1)">
       <use xlink:href="#DejaVuSans-32"/>
      </g>
     </g>
    </g>
    <g id="text_23">
     <!-- Sensitivity (Power/µm) -->
     <g style="fill: #2ca02c" transform="translate(850.420312 313.185312) rotate(-90) scale(0.12 -0.12)">
      <defs>
       <path id="DejaVuSans-2f" d="M 1625 4666 
L 2156 4666 
L 531 -594 
L 0 -594 
L 1625 4666 
z
" transform="scale(0.015625)"/>
      </defs>
      <use xlink:href="#DejaVuSans-53"/>
      <use xlink:href="#DejaVuSans-65" x="63.476562"/>
      <use xlink:href="#DejaVuSans-6e" x="125"/>
      <use xlink:href="#DejaVuSans-73" x="188.378906"/>
      <use xlink:href="#DejaVuSans-69" x="240.478516"/>
      <use xlink:href="#DejaVuSans-74" x="268.261719"/>
      <use xlink:href="#DejaVuSans-69" x="307.470703"/>
      <use xlink:href="#DejaVuSans-76" x="335.253906"/>
      <use xlink:href="#DejaVuSans-69" x="394.433594"/>
      <use xlink:href="#DejaVuSans-74" x="422.216797"/>
      <use xlink:href="#DejaVuSans-79" x="461.425781"/>
      <use xlink:href="#DejaVuSans-20" x="520.605469"/>
      <use xlink:href="#DejaVuSans-28" x="552.392578"/>
      <use xlink:href="#DejaVuSans-50" x="591.40625"/>
      <use xlink:href="#DejaVuSans-6f" x="648.083984"/>
      <use xlink:href="#DejaVuSans-77" x="709.265625"/>
      <use xlink:href="#DejaVuSans-65" x="791.052734"/>
      <use xlink:href="#DejaVuSans-72" x="852.576172"/>
      <use xlink:href="#DejaVuSans-2f" x="893.689453"/>
      <use xlink:href="#DejaVuSans-b5" x="927.380859"/>
      <use xlink:href="#DejaVuSans-6d" x="991.003906"/>
      <use xlink:href="#DejaVuSans-29" x="1088.416016"/>
     </g>
    </g>
   </g>
   <g id="line2d_21">
    <path d="M 89.365682 231.262716 
L 90.750294 287.20761 
L 91.4426 216.525863 
L 92.827212 269.560152 
L 93.519517 180.587549 
L 94.904129 268.08953 
L 95.596435 265.424029 
L 96.288741 260.644509 
L 96.981047 228.474663 
L 97.673353 208.713186 
L 98.365659 214.166741 
L 99.057965 204.577063 
L 99.750271 310.094158 
L 100.442577 264.3517 
L 101.134883 180.036066 
L 101.827189 337.08619 
L 103.211801 159.876296 
L 103.904107 307.214191 
L 104.596413 258.561128 
L 105.288718 258.653042 
L 105.981024 299.891721 
L 106.67333 168.240456 
L 108.057942 172.468493 
L 108.750248 173.632735 
L 109.442554 166.953662 
L 110.13486 233.100993 
L 110.827166 231.385268 
L 111.519472 121.762688 
L 112.211778 170.109371 
L 112.904084 99.795279 
L 113.59639 140.85013 
L 114.288696 251.759504 
L 114.981002 180.12798 
L 115.673308 146.977719 
L 116.365614 205.557477 
L 117.05792 167.045576 
L 117.750225 135.488489 
L 118.442531 211.04167 
L 119.134837 213.370154 
L 119.827143 212.941223 
L 120.519449 219.742847 
L 121.211755 196.825662 
L 121.904061 131.750659 
L 122.596367 181.813067 
L 123.288673 210.73529 
L 123.980979 176.604616 
L 124.673285 247.133173 
L 125.365591 185.091327 
L 126.057897 158.221846 
L 126.750203 212.726757 
L 127.442509 225.809161 
L 128.134815 186.500673 
L 128.827121 161.101814 
L 129.519426 194.252074 
L 130.211732 195.814609 
L 130.904038 233.376734 
L 131.596344 217.230535 
L 132.28865 132.822987 
L 132.980956 208.559996 
L 133.673262 259.081973 
L 134.365568 200.28775 
L 135.057874 168.608111 
L 135.75018 189.043623 
L 136.442486 201.023061 
L 137.134792 160.029485 
L 138.519404 237.267754 
L 139.21171 214.503758 
L 139.904016 206.844271 
L 140.596322 195.783971 
L 141.288627 218.119036 
L 141.980933 221.48921 
L 142.673239 170.844681 
L 143.365545 157.241432 
L 144.057851 192.566987 
L 144.750157 194.252074 
L 145.442463 217.567553 
L 146.134769 259.909198 
L 146.827075 195.416316 
L 147.519381 192.81209 
L 148.211687 176.145046 
L 148.903993 149.520669 
L 149.596299 190.851262 
L 150.980911 240.025169 
L 151.673217 201.023061 
L 152.365523 236.992012 
L 153.057829 226.42192 
L 153.750134 156.935053 
L 154.44244 266.220615 
L 155.134746 256.29392 
L 155.827052 112.111734 
L 156.519358 176.573978 
L 157.211664 264.321062 
L 157.90397 183.773896 
L 158.596276 160.672882 
L 159.288582 215.330983 
L 159.980888 223.817694 
L 160.673194 233.928217 
L 161.3655 236.746909 
L 162.057806 184.478568 
L 162.750112 173.816562 
L 163.442418 177.983323 
L 164.134724 223.174298 
L 164.82703 196.8563 
L 165.519335 205.189822 
L 166.211641 229.669543 
L 166.903947 197.560972 
L 167.596253 217.046708 
L 168.288559 177.799496 
L 168.980865 185.826638 
L 169.673171 208.039151 
L 170.365477 206.568529 
L 171.057783 232.089941 
L 171.750089 219.09945 
L 172.442395 165.78942 
L 173.134701 188.063208 
L 173.827007 235.82777 
L 174.519313 244.865965 
L 175.211619 225.901075 
L 175.903925 181.384136 
L 176.596231 191.218917 
L 177.288536 194.987385 
L 177.980842 199.399249 
L 178.673148 206.231512 
L 179.365454 192.720177 
L 180.750066 230.190388 
L 181.442372 196.059713 
L 182.134678 203.964304 
L 182.826984 193.087832 
L 183.51929 169.649801 
L 184.211596 234.326511 
L 184.903902 245.38681 
L 185.596208 198.235007 
L 186.288514 214.687586 
L 186.98082 200.563491 
L 187.673126 223.450039 
L 188.365432 239.504324 
L 189.057738 225.165764 
L 189.750043 199.98137 
L 190.442349 150.776825 
L 191.134655 211.04167 
L 191.826961 210.336997 
L 192.519267 200.28775 
L 193.211573 214.350568 
L 193.903879 215.055241 
L 194.596185 230.956336 
L 195.288491 223.358125 
L 195.980797 196.39673 
L 196.673103 182.456464 
L 197.365409 235.061822 
L 198.057715 211.348049 
L 198.750021 194.068246 
L 199.442327 189.68702 
L 200.134633 183.651344 
L 200.826939 229.11806 
L 201.519244 198.909042 
L 202.21155 207.518306 
L 202.903856 226.084903 
L 203.596162 239.5656 
L 204.288468 209.754876 
L 204.980774 161.867762 
L 205.67308 211.011032 
L 206.365386 230.956336 
L 207.057692 191.92359 
L 207.749998 229.209973 
L 208.442304 209.84679 
L 209.13461 217.414363 
L 209.826916 222.530901 
L 210.519222 184.723672 
L 211.211528 205.404287 
L 211.903834 215.943742 
L 212.59614 236.593719 
L 213.288445 200.13456 
L 213.980751 183.375602 
L 214.673057 195.814609 
L 215.365363 192.536349 
L 216.749975 271.092049 
L 217.442281 191.739762 
L 218.134587 204.699615 
L 218.826893 197.132041 
L 219.519199 185.796 
L 220.211505 211.562515 
L 220.903811 195.109937 
L 221.596117 248.940812 
L 222.288423 201.360078 
L 222.980729 191.984866 
L 223.673035 232.886527 
L 224.365341 207.058737 
L 225.057647 174.184218 
L 225.749952 272.807774 
L 226.442258 210.827204 
L 227.134564 113.36789 
L 227.82687 215.330983 
L 228.519176 273.083516 
L 229.211482 237.849875 
L 229.903788 166.432817 
L 230.596094 234.112045 
L 231.2884 206.691081 
L 232.673012 225.778523 
L 233.365318 161.592021 
L 234.057624 230.895061 
L 234.74993 227.065317 
L 235.442236 190.146589 
L 236.134542 222.469625 
L 236.826848 209.571048 
L 237.519153 210.857842 
L 238.211459 230.466129 
L 238.903765 204.791528 
L 239.596071 235.858408 
L 240.288377 216.679052 
L 240.980683 187.052156 
L 241.672989 177.768858 
L 242.365295 199.858819 
L 243.057601 215.422897 
L 243.749907 180.373083 
L 244.442213 206.782995 
L 245.134519 260.552595 
L 245.826825 232.54951 
L 246.519131 188.584054 
L 247.211437 218.21095 
L 247.903743 183.590068 
L 248.596049 188.155122 
L 249.288354 249.094002 
L 249.98066 193.332936 
L 250.672966 228.535939 
L 251.365272 213.063774 
L 252.057578 180.036066 
L 252.749884 217.720743 
L 253.44219 218.394778 
L 254.134496 237.206478 
L 254.826802 217.414363 
L 255.519108 203.443459 
L 256.211414 198.143094 
L 256.90372 226.973403 
L 257.596026 222.101969 
L 258.288332 199.920095 
L 259.672944 250.196968 
L 260.36525 188.155122 
L 261.057556 167.688973 
L 261.749861 209.632324 
L 262.442167 219.497744 
L 263.134473 200.103922 
L 263.826779 200.28775 
L 264.519085 295.633046 
L 265.211391 214.411844 
L 265.903697 185.152603 
L 266.596003 211.286773 
L 267.288309 202.616234 
L 267.980615 189.22745 
L 268.672921 198.357559 
L 269.365227 261.134716 
L 270.057533 209.938704 
L 270.749839 199.09287 
L 272.134451 222.714728 
L 272.826757 205.22046 
L 273.519062 243.793637 
L 274.211368 219.650933 
L 274.903674 210.88848 
L 275.59598 229.026146 
L 276.288286 169.435336 
L 276.980592 189.932123 
L 277.672898 231.538457 
L 278.365204 247.837846 
L 279.05751 191.494659 
L 279.749816 161.224365 
L 280.442122 235.674581 
L 281.134428 206.966823 
L 281.826734 213.492706 
L 282.51904 264.014683 
L 283.211346 178.994376 
L 283.903652 200.073284 
L 284.595958 252.249711 
L 285.288263 207.916599 
L 285.980569 191.555935 
L 286.672875 216.893518 
L 287.365181 266.404443 
L 288.057487 242.813223 
L 288.749793 207.334478 
L 289.442099 202.095389 
L 290.134405 190.606158 
L 291.519017 198.235007 
L 292.211323 193.516763 
L 292.903629 254.823298 
L 293.595935 222.163245 
L 294.288241 168.669387 
L 294.980547 238.952841 
L 295.672853 272.256291 
L 296.365159 188.859795 
L 297.057465 175.103356 
L 297.74977 228.505301 
L 298.442076 193.516763 
L 299.134382 261.533009 
L 299.826688 204.454511 
L 300.518994 167.045576 
L 301.2113 245.601276 
L 301.903606 237.512857 
L 302.595912 200.931147 
L 303.288218 197.254593 
L 303.980524 217.046708 
L 304.67283 226.330006 
L 305.365136 242.874498 
L 306.057442 237.635409 
L 306.749748 242.721309 
L 307.442054 217.782019 
L 308.13436 154.453379 
L 308.826666 172.80551 
L 309.518971 240.484738 
L 310.211277 215.606724 
L 310.903583 174.245494 
L 311.595889 219.40583 
L 312.980501 254.578195 
L 313.672807 261.012164 
L 314.365113 184.815586 
L 315.057419 216.924156 
L 315.749725 209.571048 
L 316.442031 195.293764 
L 317.134337 229.11806 
L 317.826643 208.65191 
L 318.518949 205.159184 
L 319.211255 277.342191 
L 319.903561 241.097497 
L 320.595867 177.125461 
L 321.980478 254.94585 
L 322.672784 219.926675 
L 323.36509 205.526839 
L 324.057396 214.840776 
L 324.749702 208.222979 
L 325.442008 220.233054 
L 326.134314 201.206888 
L 326.82662 238.37072 
L 327.518926 166.67792 
L 328.211232 216.005018 
L 328.903538 324.708459 
L 329.595844 205.649391 
L 330.28815 178.9331 
L 330.980456 208.8051 
L 331.672762 261.257268 
L 332.365068 262.697251 
L 333.057374 183.40624 
L 333.749679 229.485715 
L 334.441985 228.781042 
L 335.134291 237.48222 
L 335.826597 205.189822 
L 336.518903 181.843705 
L 337.211209 259.112611 
L 337.903515 247.470191 
L 338.595821 184.631758 
L 339.288127 191.7704 
L 339.980433 208.65191 
L 340.672739 229.455077 
L 341.365045 238.952841 
L 342.057351 233.989493 
L 342.749657 202.616234 
L 343.441963 222.806642 
L 344.134269 293.886683 
L 344.826575 238.860927 
L 345.51888 231.538457 
L 346.211186 240.392825 
L 346.903492 211.348049 
L 347.595798 247.286363 
L 348.98041 177.983323 
L 349.672716 213.400792 
L 350.365022 275.56519 
L 351.057328 304.150396 
L 351.749634 180.250532 
L 352.44194 137.051024 
L 353.134246 316.436213 
L 353.826552 276.392414 
L 354.518858 175.04208 
L 355.211164 332.061567 
L 355.90347 320.939992 
L 356.595776 48.721818 
L 357.288081 142.198199 
L 357.980387 442.358182 
L 358.672693 243.885551 
L 359.364999 100.928883 
L 360.057305 144.986253 
L 360.749611 294.193062 
L 361.441917 383.594596 
L 362.134223 155.801449 
L 362.826529 223.235573 
L 363.518835 244.069378 
L 364.211141 275.25881 
L 364.903447 343.428246 
L 365.595753 231.35463 
L 366.288059 157.27207 
L 366.980365 61.038274 
L 367.672671 55.247701 
L 368.364977 234.081407 
L 369.057283 306.1725 
L 369.749588 121.119291 
L 370.441894 153.932534 
L 371.1342 130.892796 
L 371.826506 191.494659 
L 372.518812 339.874244 
L 373.211118 133.558298 
L 373.903424 143.913924 
L 374.59573 149.153014 
L 375.288036 182.977309 
L 375.980342 275.56519 
L 376.672648 122.92693 
L 377.364954 136.989748 
L 378.05726 194.46654 
L 378.749566 231.446544 
L 379.441872 223.87897 
L 380.134178 201.543906 
L 380.826484 162.909453 
L 381.518789 147.161547 
L 382.211095 217.812657 
L 382.903401 216.587139 
L 383.595707 208.559996 
L 384.288013 187.603639 
L 384.980319 206.936185 
L 385.672625 232.059303 
L 386.364931 136.591455 
L 387.057237 176.819081 
L 387.749543 260.491319 
L 388.441849 198.755852 
L 389.134155 152.216809 
L 389.826461 144.557321 
L 390.518767 192.07678 
L 391.211073 224.430453 
L 391.903379 202.003475 
L 392.595685 212.328464 
L 393.28799 201.206888 
L 393.980296 184.478568 
L 394.672602 248.205502 
L 395.364908 197.407783 
L 396.057214 154.912948 
L 396.74952 242.629395 
L 397.441826 174.429321 
L 398.134132 159.416726 
L 398.826438 213.370154 
L 399.518744 245.417448 
L 400.21105 217.353087 
L 400.903356 176.788443 
L 401.595662 245.294896 
L 402.287968 263.677666 
L 402.980274 204.791528 
L 403.67258 163.55285 
L 404.364886 190.72871 
L 405.057192 206.691081 
L 405.749497 170.354474 
L 406.441803 164.533264 
L 407.134109 216.096931 
L 407.826415 218.854347 
L 408.518721 194.190798 
L 409.903333 199.644353 
L 410.595639 243.977465 
L 411.287945 224.369178 
L 411.980251 187.14407 
L 412.672557 247.837846 
L 413.364863 166.861748 
L 414.057169 139.50206 
L 414.749475 221.918142 
L 415.441781 222.347073 
L 416.134087 219.804123 
L 416.826393 224.890023 
L 417.518698 218.333502 
L 418.211004 215.882466 
L 418.90331 181.629239 
L 419.595616 189.564468 
L 420.287922 194.098884 
L 420.980228 200.839233 
L 421.672534 249.768037 
L 422.36484 180.495635 
L 423.057146 199.736267 
L 423.749452 223.970884 
L 424.441758 156.536759 
L 425.134064 187.235984 
L 425.82637 245.141707 
L 426.518676 251.545038 
L 427.210982 175.072718 
L 427.903288 189.595106 
L 428.595594 236.777547 
L 429.287899 184.693034 
L 429.980205 159.110347 
L 430.672511 207.15065 
L 431.364817 246.520414 
L 432.057123 181.721153 
L 432.749429 183.436878 
L 434.134041 263.708304 
L 434.826347 212.359102 
L 435.518653 196.611196 
L 436.210959 220.386244 
L 436.903265 155.066138 
L 437.595571 213.982913 
L 438.287877 247.225087 
L 438.980183 224.828747 
L 439.672489 181.292222 
L 440.364795 151.910429 
L 441.057101 240.392825 
L 441.749406 252.127159 
L 443.134018 183.528792 
L 443.826324 178.596082 
L 444.51863 218.425415 
L 445.210936 227.831266 
L 445.903242 209.571048 
L 446.595548 163.583487 
L 447.287854 196.519282 
L 447.98016 246.949346 
L 448.672466 218.793071 
L 449.364772 206.507253 
L 450.057078 223.235573 
L 450.749384 191.739762 
L 451.44169 193.792505 
L 452.133996 213.829723 
L 452.826302 223.082384 
L 453.518607 239.167307 
L 454.210913 203.627286 
L 454.903219 181.108394 
L 455.595525 202.738786 
L 456.287831 181.077756 
L 456.980137 244.34512 
L 457.672443 227.004041 
L 458.364749 169.404698 
L 459.057055 201.911561 
L 459.749361 208.49872 
L 460.441667 195.416316 
L 461.133973 211.011032 
L 461.826279 237.083926 
L 462.518585 209.325945 
L 463.210891 219.804123 
L 463.903197 216.648414 
L 464.595503 179.300755 
L 465.287808 187.419812 
L 465.980114 240.91367 
L 466.67242 206.966823 
L 467.364726 203.811114 
L 468.749338 195.079299 
L 469.441644 233.162269 
L 470.13395 217.935208 
L 470.826256 236.777547 
L 471.518562 203.351545 
L 472.210868 181.108394 
L 472.903174 238.125616 
L 473.59548 218.486691 
L 474.287786 217.690105 
L 474.980092 209.84679 
L 475.672398 229.056784 
L 476.364704 203.290269 
L 477.05701 163.154556 
L 478.441621 216.86288 
L 479.133927 236.317977 
L 479.826233 228.597214 
L 480.518539 204.270683 
L 481.210845 188.675967 
L 481.903151 214.105465 
L 482.595457 216.464587 
L 483.287763 186.929604 
L 483.980069 205.741305 
L 484.672375 236.317977 
L 485.364681 211.623791 
L 486.056987 248.297415 
L 486.749293 204.638339 
L 487.441599 146.947081 
L 488.133905 261.349181 
L 489.518516 145.936029 
L 490.210822 236.409891 
L 490.903128 216.005018 
L 491.595434 202.953251 
L 492.28774 280.375348 
L 492.980046 214.963327 
L 493.672352 119.955049 
L 494.364658 194.926109 
L 495.056964 225.22704 
L 495.74927 227.831266 
L 496.441576 217.230535 
L 497.133882 204.883442 
L 497.826188 198.78649 
L 498.518494 194.987385 
L 499.2108 207.487668 
L 499.903106 226.789575 
L 500.595412 249.461657 
L 501.287717 215.913104 
L 501.980023 202.463044 
L 502.672329 207.365116 
L 503.364635 197.040127 
L 504.056941 221.856866 
L 504.749247 205.986408 
L 505.441553 182.088808 
L 506.133859 201.758371 
L 506.826165 214.840776 
L 507.518471 244.406396 
L 508.210777 209.969342 
L 508.903083 191.280193 
L 509.595389 235.674581 
L 510.287695 205.434925 
L 510.980001 203.045165 
L 511.672307 244.957879 
L 512.364613 213.952275 
L 513.056919 172.928062 
L 513.749224 236.317977 
L 514.44153 206.445978 
L 515.133836 244.49831 
L 515.826142 244.253206 
L 516.518448 200.471578 
L 517.210754 220.049227 
L 517.90306 147.988772 
L 518.595366 192.720177 
L 519.287672 217.996484 
L 519.979978 237.17584 
L 521.36459 197.132041 
L 522.056896 240.729842 
L 522.749202 197.132041 
L 523.441508 187.14407 
L 524.133814 230.037198 
L 524.82612 257.458162 
L 525.518425 185.520259 
L 526.210731 172.223389 
L 526.903037 224.553005 
L 527.595343 214.442482 
L 528.287649 238.278806 
L 528.979955 192.352521 
L 529.672261 233.775028 
L 530.364567 224.981936 
L 531.056873 191.984866 
L 531.749179 222.469625 
L 532.441485 159.079709 
L 533.133791 200.502216 
L 533.826097 266.772098 
L 534.518403 204.270683 
L 535.210709 191.92359 
L 535.903015 247.899122 
L 536.595321 198.572025 
L 537.287626 197.928628 
L 537.979932 267.660599 
L 538.672238 222.83728 
L 539.364544 206.41534 
L 540.05685 200.471578 
L 540.749156 229.761456 
L 541.441462 204.515787 
L 542.133768 194.00697 
L 542.826074 209.019565 
L 543.51838 216.127569 
L 544.210686 264.443614 
L 544.902992 204.975356 
L 545.595298 209.938704 
L 546.287604 183.283688 
L 546.97991 178.657358 
L 547.672216 240.637928 
L 548.364522 204.178769 
L 549.056828 192.107418 
L 549.749133 249.645485 
L 550.441439 219.834761 
L 551.133745 200.042646 
L 551.826051 195.600144 
L 552.518357 184.570482 
L 553.210663 252.893108 
L 553.902969 238.52391 
L 554.595275 208.958289 
L 555.287581 241.80217 
L 555.979887 209.417859 
L 556.672193 213.002499 
L 557.364499 220.416882 
L 558.056805 204.944718 
L 558.749111 240.239635 
L 559.441417 196.182265 
L 560.133723 170.814043 
L 560.826029 217.138622 
L 561.518334 236.961374 
L 562.21064 235.521391 
L 562.902946 194.956747 
L 563.595252 211.286773 
L 564.287558 264.535528 
L 564.979864 189.840209 
L 565.67217 177.401202 
L 566.364476 244.774051 
L 567.056782 192.199331 
L 567.749088 236.777547 
L 568.441394 214.7795 
L 569.1337 235.98096 
L 569.826006 231.569095 
L 570.518312 159.018433 
L 571.902924 267.04784 
L 572.59523 267.660599 
L 573.287535 210.919118 
L 573.979841 234.63289 
L 574.672147 174.796977 
L 576.056759 224.798109 
L 576.749065 189.656382 
L 577.441371 241.311963 
L 578.133677 259.020697 
L 579.518289 175.624201 
L 580.210595 249.461657 
L 580.902901 202.156665 
L 581.595207 210.582101 
L 582.287513 230.956336 
L 582.979819 156.812501 
L 583.672125 244.590224 
L 584.364431 251.820779 
L 585.056737 198.326921 
L 585.749042 204.240045 
L 586.441348 211.439963 
L 587.133654 192.566987 
L 587.82596 288.831421 
L 588.518266 280.068968 
L 589.210572 123.754154 
L 589.902878 190.299779 
L 590.595184 286.411023 
L 591.28749 267.660599 
L 591.979796 215.055241 
L 592.672102 200.502216 
L 593.364408 240.025169 
L 594.056714 196.39673 
L 594.74902 162.541797 
L 595.441326 268.181444 
L 596.133632 287.575265 
L 596.825938 170.691492 
L 597.518243 162.909453 
L 598.210549 279.548123 
L 598.902855 283.62297 
L 599.595161 201.48263 
L 600.287467 220.202417 
L 600.979773 211.807619 
L 601.672079 217.628829 
L 602.364385 243.916189 
L 603.056691 248.481243 
L 603.748997 242.966412 
L 604.441303 219.681571 
L 605.133609 243.701723 
L 605.825915 230.558043 
L 606.518221 246.765518 
L 607.210527 209.969342 
L 607.902833 255.711799 
L 608.595139 144.802425 
L 609.287444 175.072718 
L 609.97975 347.809472 
L 610.672056 249.185916 
L 611.364362 276.086035 
L 612.056668 229.209973 
L 612.748974 264.106597 
L 613.44128 278.751536 
L 614.133586 200.28775 
L 614.825892 307.244828 
L 615.518198 279.731951 
L 616.210504 51.203492 
L 616.90281 271.949912 
L 617.595116 410.954285 
L 618.287422 139.134405 
L 618.979728 296.521546 
L 619.672034 304.334223 
L 620.36434 181.904981 
L 621.056646 225.472144 
L 621.748951 206.047684 
L 622.441257 236.226064 
L 623.133563 109.139853 
L 623.825869 146.610064 
L 624.518175 147.958134 
L 625.210481 139.440784 
L 625.902787 151.205756 
L 626.595093 117.442737 
L 627.287399 241.740894 
L 627.979705 170.630216 
L 628.672011 209.84679 
L 629.364317 205.618753 
L 630.056623 101.848021 
L 630.748929 112.816407 
L 631.441235 223.511315 
L 632.133541 274.768603 
L 632.825847 170.967233 
L 633.518152 163.644763 
L 634.210458 209.019565 
L 634.902764 207.61022 
L 635.59507 168.945128 
L 636.287376 203.903028 
L 636.979682 249.369744 
L 637.671988 215.422897 
L 638.364294 167.842162 
L 639.0566 139.685888 
L 639.748906 166.923024 
L 640.441212 230.803147 
L 641.133518 235.245649 
L 641.825824 203.167717 
L 642.51813 178.473531 
L 643.210436 124.12181 
L 643.902742 231.998027 
L 644.595048 255.313506 
L 645.287353 179.760324 
L 645.979659 206.874909 
L 646.671965 166.9843 
L 647.364271 180.648825 
L 648.056577 178.841186 
L 648.748883 199.950732 
L 649.441189 202.095389 
L 650.133495 197.683524 
L 650.825801 223.909608 
L 651.518107 203.535372 
L 652.210413 230.741871 
L 652.902719 175.471012 
L 653.595025 143.0867 
L 654.287331 251.146745 
L 654.979637 240.208997 
L 655.671943 181.200308 
L 656.364249 183.25305 
L 657.056555 222.806642 
L 657.74886 221.826228 
L 658.441166 237.053288 
L 659.133472 227.46361 
L 659.825778 139.869715 
L 660.518084 164.471988 
L 661.21039 231.20144 
L 661.902696 194.711643 
L 662.595002 169.128956 
L 663.287308 227.341059 
L 663.979614 248.174864 
L 664.67192 192.07678 
L 665.364226 159.600554 
L 666.056532 242.414929 
L 666.748838 211.286773 
L 667.441144 190.330417 
L 668.13345 188.859795 
L 669.518061 231.078888 
L 670.210367 175.34846 
L 670.902673 209.816152 
L 671.594979 252.954384 
L 672.287285 198.602663 
L 672.979591 158.62014 
L 673.671897 163.460936 
L 674.364203 184.815586 
L 675.056509 221.029641 
L 675.748815 212.757395 
L 676.441121 210.551463 
L 677.133427 239.688152 
L 677.825733 215.330983 
L 678.518039 142.198199 
L 679.210345 158.160571 
L 679.902651 253.720332 
L 680.594957 195.416316 
L 681.287262 176.604616 
L 681.979568 258.3773 
L 682.671874 209.84679 
L 683.36418 170.905957 
L 684.056486 220.631348 
L 684.748792 242.99705 
L 685.441098 187.971295 
L 686.133404 180.250532 
L 686.82571 195.324402 
L 687.518016 226.57511 
L 688.210322 217.782019 
L 688.902628 171.304251 
L 689.594934 196.427368 
L 690.28724 256.845403 
L 690.979546 258.101559 
L 691.671852 193.915057 
L 692.364158 192.291245 
L 693.056464 203.811114 
L 693.748769 177.401202 
L 694.441075 213.890999 
L 695.133381 213.921637 
L 695.825687 185.979828 
L 696.517993 213.063774 
L 697.210299 219.09945 
L 697.902605 202.922613 
L 698.594911 168.240456 
L 699.287217 188.400226 
L 699.979523 224.369178 
L 700.671829 209.448497 
L 701.364135 226.115541 
L 702.056441 264.014683 
L 702.748747 220.907089 
L 703.441053 190.207865 
L 704.133359 221.244107 
L 704.825665 191.984866 
L 705.51797 196.120989 
L 706.210276 218.149674 
L 706.902582 217.567553 
L 707.594888 184.44793 
L 708.287194 184.815586 
L 708.9795 238.830289 
L 709.671806 224.890023 
L 710.364112 199.674991 
L 711.056418 185.428345 
L 711.748724 218.823709 
L 712.44103 205.251098 
L 713.825642 235.766494 
L 714.517948 168.424283 
L 715.210254 186.347483 
L 715.90256 238.830289 
L 716.594866 199.828181 
L 717.287171 242.231102 
L 717.979477 273.17543 
L 718.671783 154.055085 
L 720.056395 192.934642 
L 720.748701 195.600144 
L 721.441007 236.011598 
L 722.133313 186.960242 
L 722.825619 196.059713 
L 723.517925 270.47929 
L 724.210231 226.299368 
L 724.902537 194.527816 
L 725.594843 184.294741 
L 726.287149 178.136513 
L 726.979455 244.34512 
L 727.671761 223.87897 
L 728.364067 178.136513 
L 729.748678 234.694166 
L 730.440984 219.007537 
L 731.13329 181.01648 
L 731.825596 188.247036 
L 732.517902 224.890023 
L 733.210208 233.100993 
L 733.902514 203.7192 
L 734.59482 183.498154 
L 735.287126 228.198921 
L 735.979432 241.863446 
L 736.671738 203.627286 
L 737.364044 217.16926 
L 738.05635 208.284255 
L 738.748656 177.156099 
L 739.440962 209.969342 
L 740.133268 216.954794 
L 740.825574 201.513268 
L 741.517879 233.070355 
L 742.210185 202.493682 
L 742.902491 157.517174 
L 743.594797 275.595828 
L 744.287103 248.695709 
L 744.979409 169.588525 
L 745.671715 210.796566 
L 746.364021 188.767881 
L 747.056327 252.188435 
L 747.748633 248.940812 
L 748.440939 177.309288 
L 749.133245 170.660854 
L 749.825551 204.086856 
L 750.517857 189.196813 
L 751.210163 220.815175 
L 751.902469 229.669543 
L 752.594775 228.015093 
L 753.28708 241.097497 
L 753.979386 193.578039 
L 754.671692 180.710101 
L 755.363998 183.222413 
L 756.056304 212.971861 
L 756.74861 256.722851 
L 757.440916 236.654995 
L 758.133222 228.474663 
L 758.825528 229.11806 
L 759.517834 200.931147 
L 760.21014 210.061256 
L 760.902446 177.064185 
L 761.594752 189.717658 
L 762.287058 254.210539 
L 762.979364 199.552439 
L 763.67167 160.70352 
L 764.363976 209.785514 
L 765.056282 189.38064 
L 765.748587 202.156665 
L 766.440893 279.394933 
L 767.133199 268.120168 
L 767.825505 181.108394 
L 768.517811 167.597059 
L 769.210117 202.861338 
L 769.902423 258.132197 
L 770.594729 245.631914 
L 771.287035 186.960242 
L 771.979341 223.450039 
L 772.671647 214.810138 
L 773.363953 181.200308 
L 774.056259 202.708148 
L 774.748565 228.290835 
L 775.440871 215.055241 
L 776.133177 195.875885 
L 776.825483 223.541953 
L 777.517788 193.179746 
L 778.210094 206.752357 
L 778.9024 245.417448 
L 779.594706 179.423307 
L 780.287012 205.312373 
L 780.979318 276.423052 
L 780.979318 276.423052 
" clip-path="url(#pf64cbc8448)" style="fill: none; stroke: #2ca02c; stroke-opacity: 0.8; stroke-width: 1.5; stroke-linecap: square"/>
   </g>
   <g id="line2d_22">
    <path d="M 357.980387 462.04 
L 357.980387 29.04 
" clip-path="url(#pf64cbc8448)" style="fill: none; stroke-dasharray: 5.55,2.4; stroke-dashoffset: 0; stroke: #ff0000; stroke-width: 1.5"/>
   </g>
   <g id="patch_7">
    <path d="M 54.785 462.04 
L 54.785 29.04 
" style="fill: none; stroke: #000000; stroke-width: 0.8; stroke-linejoin: miter; stroke-linecap: square"/>
   </g>
   <g id="patch_8">
    <path d="M 815.56 462.04 
L 815.56 29.04 
" style="fill: none; stroke: #000000; stroke-width: 0.8; stroke-linejoin: miter; stroke-linecap: square"/>
   </g>
   <g id="patch_9">
    <path d="M 54.785 462.04 
L 815.56 462.04 
" style="fill: none; stroke: #000000; stroke-width: 0.8; stroke-linejoin: miter; stroke-linecap: square"/>
   </g>
   <g id="patch_10">
    <path d="M 54.785 29.04 
L 815.56 29.04 
" style="fill: none; stroke: #000000; stroke-width: 0.8; stroke-linejoin: miter; stroke-linecap: square"/>
   </g>
  </g>
  <g id="legend_1">
   <g id="patch_11">
    <path d="M 642.802187 81.074375 
L 808.56 81.074375 
Q 810.56 81.074375 810.56 79.074375 
L 810.56 36.04 
Q 810.56 34.04 808.56 34.04 
L 642.802187 34.04 
Q 640.802187 34.04 640.802187 36.04 
L 640.802187 79.074375 
Q 640.802187 81.074375 642.802187 81.074375 
z
" style="fill: #ffffff; opacity: 0.8; stroke: #cccccc; stroke-linejoin: miter"/>
   </g>
   <g id="line2d_23">
    <path d="M 644.802187 42.138437 
L 654.802187 42.138437 
L 664.802187 42.138437 
" style="fill: none; stroke: #1f77b4; stroke-width: 1.5; stroke-linecap: square"/>
   </g>
   <g id="text_24">
    <!-- Calibration Curve -->
    <g transform="translate(672.802187 45.638437) scale(0.1 -0.1)">
     <defs>
      <path id="DejaVuSans-43" d="M 4122 4306 
L 4122 3641 
Q 3803 3938 3442 4084 
Q 3081 4231 2675 4231 
Q 1875 4231 1450 3742 
Q 1025 3253 1025 2328 
Q 1025 1406 1450 917 
Q 1875 428 2675 428 
Q 3081 428 3442 575 
Q 3803 722 4122 1019 
L 4122 359 
Q 3791 134 3420 21 
Q 3050 -91 2638 -91 
Q 1578 -91 968 557 
Q 359 1206 359 2328 
Q 359 3453 968 4101 
Q 1578 4750 2638 4750 
Q 3056 4750 3426 4639 
Q 3797 4528 4122 4306 
z
" transform="scale(0.015625)"/>
     </defs>
     <use xlink:href="#DejaVuSans-43"/>
     <use xlink:href="#DejaVuSans-61" x="69.824219"/>
     <use xlink:href="#DejaVuSans-6c" x="131.103516"/>
     <use xlink:href="#DejaVuSans-69" x="158.886719"/>
     <use xlink:href="#DejaVuSans-62" x="186.669922"/>
     <use xlink:href="#DejaVuSans-72" x="250.146484"/>
     <use xlink:href="#DejaVuSans-61" x="291.259766"/>
     <use xlink:href="#DejaVuSans-74" x="352.539062"/>
     <use xlink:href="#DejaVuSans-69" x="391.748047"/>
     <use xlink:href="#DejaVuSans-6f" x="419.53125"/>
     <use xlink:href="#DejaVuSans-6e" x="480.712891"/>
     <use xlink:href="#DejaVuSans-20" x="544.091797"/>
     <use xlink:href="#DejaVuSans-43" x="575.878906"/>
     <use xlink:href="#DejaVuSans-75" x="645.703125"/>
     <use xlink:href="#DejaVuSans-72" x="709.082031"/>
     <use xlink:href="#DejaVuSans-76" x="750.195312"/>
     <use xlink:href="#DejaVuSans-65" x="809.375"/>
    </g>
   </g>
   <g id="line2d_24">
    <path d="M 644.802187 56.816562 
L 654.802187 56.816562 
L 664.802187 56.816562 
" style="fill: none; stroke: #2ca02c; stroke-opacity: 0.8; stroke-width: 1.5; stroke-linecap: square"/>
   </g>
   <g id="text_25">
    <!-- Sensitivity (Derivative) -->
    <g transform="translate(672.802187 60.316562) scale(0.1 -0.1)">
     <use xlink:href="#DejaVuSans-53"/>
     <use xlink:href="#DejaVuSans-65" x="63.476562"/>
     <use xlink:href="#DejaVuSans-6e" x="125"/>
     <use xlink:href="#DejaVuSans-73" x="188.378906"/>
     <use xlink:href="#DejaVuSans-69" x="240.478516"/>
     <use xlink:href="#DejaVuSans-74" x="268.261719"/>
     <use xlink:href="#DejaVuSans-69" x="307.470703"/>
     <use xlink:href="#DejaVuSans-76" x="335.253906"/>
     <use xlink:href="#DejaVuSans-69" x="394.433594"/>
     <use xlink:href="#DejaVuSans-74" x="422.216797"/>
     <use xlink:href="#DejaVuSans-79" x="461.425781"/>
     <use xlink:href="#DejaVuSans-20" x="520.605469"/>
     <use xlink:href="#DejaVuSans-28" x="552.392578"/>
     <use xlink:href="#DejaVuSans-44" x="591.40625"/>
     <use xlink:href="#DejaVuSans-65" x="668.408203"/>
     <use xlink:href="#DejaVuSans-72" x="729.931641"/>
     <use xlink:href="#DejaVuSans-69" x="771.044922"/>
     <use xlink:href="#DejaVuSans-76" x="798.828125"/>
     <use xlink:href="#DejaVuSans-61" x="858.007812"/>
     <use xlink:href="#DejaVuSans-74" x="919.287109"/>
     <use xlink:href="#DejaVuSans-69" x="958.496094"/>
     <use xlink:href="#DejaVuSans-76" x="986.279297"/>
     <use xlink:href="#DejaVuSans-65" x="1045.458984"/>
     <use xlink:href="#DejaVuSans-29" x="1106.982422"/>
    </g>
   </g>
   <g id="line2d_25">
    <path d="M 644.802187 71.494687 
L 654.802187 71.494687 
L 664.802187 71.494687 
" style="fill: none; stroke-dasharray: 5.55,2.4; stroke-dashoffset: 0; stroke: #ff0000; stroke-width: 1.5"/>
   </g>
   <g id="text_26">
    <!-- Optimal Offset: 388.39 µm -->
    <g transform="translate(672.802187 74.994687) scale(0.1 -0.1)">
     <defs>
      <path id="DejaVuSans-4f" d="M 2522 4238 
Q 1834 4238 1429 3725 
Q 1025 3213 1025 2328 
Q 1025 1447 1429 934 
Q 1834 422 2522 422 
Q 3209 422 3611 934 
Q 4013 1447 4013 2328 
Q 4013 3213 3611 3725 
Q 3209 4238 2522 4238 
z
M 2522 4750 
Q 3503 4750 4090 4092 
Q 4678 3434 4678 2328 
Q 4678 1225 4090 567 
Q 3503 -91 2522 -91 
Q 1538 -91 948 565 
Q 359 1222 359 2328 
Q 359 3434 948 4092 
Q 1538 4750 2522 4750 
z
" transform="scale(0.015625)"/>
      <path id="DejaVuSans-66" d="M 2375 4863 
L 2375 4384 
L 1825 4384 
Q 1516 4384 1395 4259 
Q 1275 4134 1275 3809 
L 1275 3500 
L 2222 3500 
L 2222 3053 
L 1275 3053 
L 1275 0 
L 697 0 
L 697 3053 
L 147 3053 
L 147 3500 
L 697 3500 
L 697 3744 
Q 697 4328 969 4595 
Q 1241 4863 1831 4863 
L 2375 4863 
z
" transform="scale(0.015625)"/>
      <path id="DejaVuSans-3a" d="M 750 794 
L 1409 794 
L 1409 0 
L 750 0 
L 750 794 
z
M 750 3309 
L 1409 3309 
L 1409 2516 
L 750 2516 
L 750 3309 
z
" transform="scale(0.015625)"/>
      <path id="DejaVuSans-2e" d="M 684 794 
L 1344 794 
L 1344 0 
L 684 0 
L 684 794 
z
" transform="scale(0.015625)"/>
      <path id="DejaVuSans-39" d="M 703 97 
L 703 672 
Q 941 559 1184 500 
Q 1428 441 1663 441 
Q 2288 441 2617 861 
Q 2947 1281 2994 2138 
Q 2813 1869 2534 1725 
Q 2256 1581 1919 1581 
Q 1219 1581 811 2004 
Q 403 2428 403 3163 
Q 403 3881 828 4315 
Q 1253 4750 1959 4750 
Q 2769 4750 3195 4129 
Q 3622 3509 3622 2328 
Q 3622 1225 3098 567 
Q 2575 -91 1691 -91 
Q 1453 -91 1209 -44 
Q 966 3 703 97 
z
M 1959 2075 
Q 2384 2075 2632 2365 
Q 2881 2656 2881 3163 
Q 2881 3666 2632 3958 
Q 2384 4250 1959 4250 
Q 1534 4250 1286 3958 
Q 1038 3666 1038 3163 
Q 1038 2656 1286 2365 
Q 1534 2075 1959 2075 
z
" transform="scale(0.015625)"/>
     </defs>
     <use xlink:href="#DejaVuSans-4f"/>
     <use xlink:href="#DejaVuSans-70" x="78.710938"/>
     <use xlink:href="#DejaVuSans-74" x="142.1875"/>
     <use xlink:href="#DejaVuSans-69" x="181.396484"/>
     <use xlink:href="#DejaVuSans-6d" x="209.179688"/>
     <use xlink:href="#DejaVuSans-61" x="306.591797"/>
     <use xlink:href="#DejaVuSans-6c" x="367.871094"/>
     <use xlink:href="#DejaVuSans-20" x="395.654297"/>
     <use xlink:href="#DejaVuSans-4f" x="427.441406"/>
     <use xlink:href="#DejaVuSans-66" x="506.152344"/>
     <use xlink:href="#DejaVuSans-66" x="541.357422"/>
     <use xlink:href="#DejaVuSans-73" x="576.5625"/>
     <use xlink:href="#DejaVuSans-65" x="628.662109"/>
     <use xlink:href="#DejaVuSans-74" x="690.185547"/>
     <use xlink:href="#DejaVuSans-3a" x="729.394531"/>
     <use xlink:href="#DejaVuSans-20" x="763.085938"/>
     <use xlink:href="#DejaVuSans-33" x="794.873047"/>
     <use xlink:href="#DejaVuSans-38" x="858.496094"/>
     <use xlink:href="#DejaVuSans-38" x="922.119141"/>
     <use xlink:href="#DejaVuSans-2e" x="985.742188"/>
     <use xlink:href="#DejaVuSans-33" x="1017.529297"/>
     <use xlink:href="#DejaVuSans-39" x="1081.152344"/>
     <use xlink:href="#DejaVuSans-20" x="1144.775391"/>
     <use xlink:href="#DejaVuSans-b5" x="1176.5625"/>
     <use xlink:href="#DejaVuSans-6d" x="1240.185547"/>
    </g>
   </g>
  </g>
 </g>
 <defs>
  <clipPath id="pf64cbc8448">
   <rect x="54.785" y="29.04" width="760.775" height="433"/>
  </clipPath>
 </defs>
</svg>
