<?xml version="1.0" encoding="utf-8" standalone="no"?>
<!DOCTYPE svg PUBLIC "-//W3C//DTD SVG 1.1//EN"
  "http://www.w3.org/Graphics/SVG/1.1/DTD/svg11.dtd">
<svg xmlns:xlink="http://www.w3.org/1999/xlink" width="720pt" height="432pt" viewBox="0 0 720 432" xmlns="http://www.w3.org/2000/svg" version="1.1">
 <metadata>
  <rdf:RDF xmlns:dc="http://purl.org/dc/elements/1.1/" xmlns:cc="http://creativecommons.org/ns#" xmlns:rdf="http://www.w3.org/1999/02/22-rdf-syntax-ns#">
   <cc:Work>
    <dc:type rdf:resource="http://purl.org/dc/dcmitype/StillImage"/>
    <dc:date>2025-08-08T15:22:43.340823</dc:date>
    <dc:format>image/svg+xml</dc:format>
    <dc:creator>
     <cc:Agent>
      <dc:title>Matplotlib v3.7.5, https://matplotlib.org/</dc:title>
     </cc:Agent>
    </dc:creator>
   </cc:Work>
  </rdf:RDF>
 </metadata>
 <defs>
  <style type="text/css">*{stroke-linejoin: round; stroke-linecap: butt}</style>
 </defs>
 <g id="figure_1">
  <g id="patch_1">
   <path d="M 0 432 
L 720 432 
L 720 0 
L 0 0 
z
" style="fill: #ffffff"/>
  </g>
  <g id="axes_1">
   <g id="patch_2">
    <path d="M 90 384.48 
L 648 384.48 
L 648 51.84 
L 90 51.84 
z
" style="fill: #ffffff"/>
   </g>
   <g id="matplotlib.axis_1">
    <g id="xtick_1">
     <g id="line2d_1">
      <path d="M 115.363636 384.48 
L 115.363636 51.84 
" clip-path="url(#p8a1bff13a8)" style="fill: none; stroke: #b0b0b0; stroke-width: 0.8; stroke-linecap: square"/>
     </g>
     <g id="line2d_2">
      <defs>
       <path id="m6f617fc796" d="M 0 0 
L 0 3.5 
" style="stroke: #000000; stroke-width: 0.8"/>
      </defs>
      <g>
       <use xlink:href="#m6f617fc796" x="115.363636" y="384.48" style="stroke: #000000; stroke-width: 0.8"/>
      </g>
     </g>
     <g id="text_1">
      <!-- 0 -->
      <g transform="translate(112.182386 399.078438) scale(0.1 -0.1)">
       <defs>
        <path id="DejaVuSans-30" d="M 2034 4250 
Q 1547 4250 1301 3770 
Q 1056 3291 1056 2328 
Q 1056 1369 1301 889 
Q 1547 409 2034 409 
Q 2525 409 2770 889 
Q 3016 1369 3016 2328 
Q 3016 3291 2770 3770 
Q 2525 4250 2034 4250 
z
M 2034 4750 
Q 2819 4750 3233 4129 
Q 3647 3509 3647 2328 
Q 3647 1150 3233 529 
Q 2819 -91 2034 -91 
Q 1250 -91 836 529 
Q 422 1150 422 2328 
Q 422 3509 836 4129 
Q 1250 4750 2034 4750 
z
" transform="scale(0.015625)"/>
       </defs>
       <use xlink:href="#DejaVuSans-30"/>
      </g>
     </g>
    </g>
    <g id="xtick_2">
     <g id="line2d_3">
      <path d="M 216.818182 384.48 
L 216.818182 51.84 
" clip-path="url(#p8a1bff13a8)" style="fill: none; stroke: #b0b0b0; stroke-width: 0.8; stroke-linecap: square"/>
     </g>
     <g id="line2d_4">
      <g>
       <use xlink:href="#m6f617fc796" x="216.818182" y="384.48" style="stroke: #000000; stroke-width: 0.8"/>
      </g>
     </g>
     <g id="text_2">
      <!-- 200 -->
      <g transform="translate(207.274432 399.078438) scale(0.1 -0.1)">
       <defs>
        <path id="DejaVuSans-32" d="M 1228 531 
L 3431 531 
L 3431 0 
L 469 0 
L 469 531 
Q 828 903 1448 1529 
Q 2069 2156 2228 2338 
Q 2531 2678 2651 2914 
Q 2772 3150 2772 3378 
Q 2772 3750 2511 3984 
Q 2250 4219 1831 4219 
Q 1534 4219 1204 4116 
Q 875 4013 500 3803 
L 500 4441 
Q 881 4594 1212 4672 
Q 1544 4750 1819 4750 
Q 2544 4750 2975 4387 
Q 3406 4025 3406 3419 
Q 3406 3131 3298 2873 
Q 3191 2616 2906 2266 
Q 2828 2175 2409 1742 
Q 1991 1309 1228 531 
z
" transform="scale(0.015625)"/>
       </defs>
       <use xlink:href="#DejaVuSans-32"/>
       <use xlink:href="#DejaVuSans-30" x="63.623047"/>
       <use xlink:href="#DejaVuSans-30" x="127.246094"/>
      </g>
     </g>
    </g>
    <g id="xtick_3">
     <g id="line2d_5">
      <path d="M 318.272727 384.48 
L 318.272727 51.84 
" clip-path="url(#p8a1bff13a8)" style="fill: none; stroke: #b0b0b0; stroke-width: 0.8; stroke-linecap: square"/>
     </g>
     <g id="line2d_6">
      <g>
       <use xlink:href="#m6f617fc796" x="318.272727" y="384.48" style="stroke: #000000; stroke-width: 0.8"/>
      </g>
     </g>
     <g id="text_3">
      <!-- 400 -->
      <g transform="translate(308.728977 399.078438) scale(0.1 -0.1)">
       <defs>
        <path id="DejaVuSans-34" d="M 2419 4116 
L 825 1625 
L 2419 1625 
L 2419 4116 
z
M 2253 4666 
L 3047 4666 
L 3047 1625 
L 3713 1625 
L 3713 1100 
L 3047 1100 
L 3047 0 
L 2419 0 
L 2419 1100 
L 313 1100 
L 313 1709 
L 2253 4666 
z
" transform="scale(0.015625)"/>
       </defs>
       <use xlink:href="#DejaVuSans-34"/>
       <use xlink:href="#DejaVuSans-30" x="63.623047"/>
       <use xlink:href="#DejaVuSans-30" x="127.246094"/>
      </g>
     </g>
    </g>
    <g id="xtick_4">
     <g id="line2d_7">
      <path d="M 419.727273 384.48 
L 419.727273 51.84 
" clip-path="url(#p8a1bff13a8)" style="fill: none; stroke: #b0b0b0; stroke-width: 0.8; stroke-linecap: square"/>
     </g>
     <g id="line2d_8">
      <g>
       <use xlink:href="#m6f617fc796" x="419.727273" y="384.48" style="stroke: #000000; stroke-width: 0.8"/>
      </g>
     </g>
     <g id="text_4">
      <!-- 600 -->
      <g transform="translate(410.183523 399.078438) scale(0.1 -0.1)">
       <defs>
        <path id="DejaVuSans-36" d="M 2113 2584 
Q 1688 2584 1439 2293 
Q 1191 2003 1191 1497 
Q 1191 994 1439 701 
Q 1688 409 2113 409 
Q 2538 409 2786 701 
Q 3034 994 3034 1497 
Q 3034 2003 2786 2293 
Q 2538 2584 2113 2584 
z
M 3366 4563 
L 3366 3988 
Q 3128 4100 2886 4159 
Q 2644 4219 2406 4219 
Q 1781 4219 1451 3797 
Q 1122 3375 1075 2522 
Q 1259 2794 1537 2939 
Q 1816 3084 2150 3084 
Q 2853 3084 3261 2657 
Q 3669 2231 3669 1497 
Q 3669 778 3244 343 
Q 2819 -91 2113 -91 
Q 1303 -91 875 529 
Q 447 1150 447 2328 
Q 447 3434 972 4092 
Q 1497 4750 2381 4750 
Q 2619 4750 2861 4703 
Q 3103 4656 3366 4563 
z
" transform="scale(0.015625)"/>
       </defs>
       <use xlink:href="#DejaVuSans-36"/>
       <use xlink:href="#DejaVuSans-30" x="63.623047"/>
       <use xlink:href="#DejaVuSans-30" x="127.246094"/>
      </g>
     </g>
    </g>
    <g id="xtick_5">
     <g id="line2d_9">
      <path d="M 521.181818 384.48 
L 521.181818 51.84 
" clip-path="url(#p8a1bff13a8)" style="fill: none; stroke: #b0b0b0; stroke-width: 0.8; stroke-linecap: square"/>
     </g>
     <g id="line2d_10">
      <g>
       <use xlink:href="#m6f617fc796" x="521.181818" y="384.48" style="stroke: #000000; stroke-width: 0.8"/>
      </g>
     </g>
     <g id="text_5">
      <!-- 800 -->
      <g transform="translate(511.638068 399.078438) scale(0.1 -0.1)">
       <defs>
        <path id="DejaVuSans-38" d="M 2034 2216 
Q 1584 2216 1326 1975 
Q 1069 1734 1069 1313 
Q 1069 891 1326 650 
Q 1584 409 2034 409 
Q 2484 409 2743 651 
Q 3003 894 3003 1313 
Q 3003 1734 2745 1975 
Q 2488 2216 2034 2216 
z
M 1403 2484 
Q 997 2584 770 2862 
Q 544 3141 544 3541 
Q 544 4100 942 4425 
Q 1341 4750 2034 4750 
Q 2731 4750 3128 4425 
Q 3525 4100 3525 3541 
Q 3525 3141 3298 2862 
Q 3072 2584 2669 2484 
Q 3125 2378 3379 2068 
Q 3634 1759 3634 1313 
Q 3634 634 3220 271 
Q 2806 -91 2034 -91 
Q 1263 -91 848 271 
Q 434 634 434 1313 
Q 434 1759 690 2068 
Q 947 2378 1403 2484 
z
M 1172 3481 
Q 1172 3119 1398 2916 
Q 1625 2713 2034 2713 
Q 2441 2713 2670 2916 
Q 2900 3119 2900 3481 
Q 2900 3844 2670 4047 
Q 2441 4250 2034 4250 
Q 1625 4250 1398 4047 
Q 1172 3844 1172 3481 
z
" transform="scale(0.015625)"/>
       </defs>
       <use xlink:href="#DejaVuSans-38"/>
       <use xlink:href="#DejaVuSans-30" x="63.623047"/>
       <use xlink:href="#DejaVuSans-30" x="127.246094"/>
      </g>
     </g>
    </g>
    <g id="xtick_6">
     <g id="line2d_11">
      <path d="M 622.636364 384.48 
L 622.636364 51.84 
" clip-path="url(#p8a1bff13a8)" style="fill: none; stroke: #b0b0b0; stroke-width: 0.8; stroke-linecap: square"/>
     </g>
     <g id="line2d_12">
      <g>
       <use xlink:href="#m6f617fc796" x="622.636364" y="384.48" style="stroke: #000000; stroke-width: 0.8"/>
      </g>
     </g>
     <g id="text_6">
      <!-- 1000 -->
      <g transform="translate(609.911364 399.078438) scale(0.1 -0.1)">
       <defs>
        <path id="DejaVuSans-31" d="M 794 531 
L 1825 531 
L 1825 4091 
L 703 3866 
L 703 4441 
L 1819 4666 
L 2450 4666 
L 2450 531 
L 3481 531 
L 3481 0 
L 794 0 
L 794 531 
z
" transform="scale(0.015625)"/>
       </defs>
       <use xlink:href="#DejaVuSans-31"/>
       <use xlink:href="#DejaVuSans-30" x="63.623047"/>
       <use xlink:href="#DejaVuSans-30" x="127.246094"/>
       <use xlink:href="#DejaVuSans-30" x="190.869141"/>
      </g>
     </g>
    </g>
    <g id="text_7">
     <!-- Mirror Displacement (µm) -->
     <g transform="translate(304.767187 412.756563) scale(0.1 -0.1)">
      <defs>
       <path id="DejaVuSans-4d" d="M 628 4666 
L 1569 4666 
L 2759 1491 
L 3956 4666 
L 4897 4666 
L 4897 0 
L 4281 0 
L 4281 4097 
L 3078 897 
L 2444 897 
L 1241 4097 
L 1241 0 
L 628 0 
L 628 4666 
z
" transform="scale(0.015625)"/>
       <path id="DejaVuSans-69" d="M 603 3500 
L 1178 3500 
L 1178 0 
L 603 0 
L 603 3500 
z
M 603 4863 
L 1178 4863 
L 1178 4134 
L 603 4134 
L 603 4863 
z
" transform="scale(0.015625)"/>
       <path id="DejaVuSans-72" d="M 2631 2963 
Q 2534 3019 2420 3045 
Q 2306 3072 2169 3072 
Q 1681 3072 1420 2755 
Q 1159 2438 1159 1844 
L 1159 0 
L 581 0 
L 581 3500 
L 1159 3500 
L 1159 2956 
Q 1341 3275 1631 3429 
Q 1922 3584 2338 3584 
Q 2397 3584 2469 3576 
Q 2541 3569 2628 3553 
L 2631 2963 
z
" transform="scale(0.015625)"/>
       <path id="DejaVuSans-6f" d="M 1959 3097 
Q 1497 3097 1228 2736 
Q 959 2375 959 1747 
Q 959 1119 1226 758 
Q 1494 397 1959 397 
Q 2419 397 2687 759 
Q 2956 1122 2956 1747 
Q 2956 2369 2687 2733 
Q 2419 3097 1959 3097 
z
M 1959 3584 
Q 2709 3584 3137 3096 
Q 3566 2609 3566 1747 
Q 3566 888 3137 398 
Q 2709 -91 1959 -91 
Q 1206 -91 779 398 
Q 353 888 353 1747 
Q 353 2609 779 3096 
Q 1206 3584 1959 3584 
z
" transform="scale(0.015625)"/>
       <path id="DejaVuSans-20" transform="scale(0.015625)"/>
       <path id="DejaVuSans-44" d="M 1259 4147 
L 1259 519 
L 2022 519 
Q 2988 519 3436 956 
Q 3884 1394 3884 2338 
Q 3884 3275 3436 3711 
Q 2988 4147 2022 4147 
L 1259 4147 
z
M 628 4666 
L 1925 4666 
Q 3281 4666 3915 4102 
Q 4550 3538 4550 2338 
Q 4550 1131 3912 565 
Q 3275 0 1925 0 
L 628 0 
L 628 4666 
z
" transform="scale(0.015625)"/>
       <path id="DejaVuSans-73" d="M 2834 3397 
L 2834 2853 
Q 2591 2978 2328 3040 
Q 2066 3103 1784 3103 
Q 1356 3103 1142 2972 
Q 928 2841 928 2578 
Q 928 2378 1081 2264 
Q 1234 2150 1697 2047 
L 1894 2003 
Q 2506 1872 2764 1633 
Q 3022 1394 3022 966 
Q 3022 478 2636 193 
Q 2250 -91 1575 -91 
Q 1294 -91 989 -36 
Q 684 19 347 128 
L 347 722 
Q 666 556 975 473 
Q 1284 391 1588 391 
Q 1994 391 2212 530 
Q 2431 669 2431 922 
Q 2431 1156 2273 1281 
Q 2116 1406 1581 1522 
L 1381 1569 
Q 847 1681 609 1914 
Q 372 2147 372 2553 
Q 372 3047 722 3315 
Q 1072 3584 1716 3584 
Q 2034 3584 2315 3537 
Q 2597 3491 2834 3397 
z
" transform="scale(0.015625)"/>
       <path id="DejaVuSans-70" d="M 1159 525 
L 1159 -1331 
L 581 -1331 
L 581 3500 
L 1159 3500 
L 1159 2969 
Q 1341 3281 1617 3432 
Q 1894 3584 2278 3584 
Q 2916 3584 3314 3078 
Q 3713 2572 3713 1747 
Q 3713 922 3314 415 
Q 2916 -91 2278 -91 
Q 1894 -91 1617 61 
Q 1341 213 1159 525 
z
M 3116 1747 
Q 3116 2381 2855 2742 
Q 2594 3103 2138 3103 
Q 1681 3103 1420 2742 
Q 1159 2381 1159 1747 
Q 1159 1113 1420 752 
Q 1681 391 2138 391 
Q 2594 391 2855 752 
Q 3116 1113 3116 1747 
z
" transform="scale(0.015625)"/>
       <path id="DejaVuSans-6c" d="M 603 4863 
L 1178 4863 
L 1178 0 
L 603 0 
L 603 4863 
z
" transform="scale(0.015625)"/>
       <path id="DejaVuSans-61" d="M 2194 1759 
Q 1497 1759 1228 1600 
Q 959 1441 959 1056 
Q 959 750 1161 570 
Q 1363 391 1709 391 
Q 2188 391 2477 730 
Q 2766 1069 2766 1631 
L 2766 1759 
L 2194 1759 
z
M 3341 1997 
L 3341 0 
L 2766 0 
L 2766 531 
Q 2569 213 2275 61 
Q 1981 -91 1556 -91 
Q 1019 -91 701 211 
Q 384 513 384 1019 
Q 384 1609 779 1909 
Q 1175 2209 1959 2209 
L 2766 2209 
L 2766 2266 
Q 2766 2663 2505 2880 
Q 2244 3097 1772 3097 
Q 1472 3097 1187 3025 
Q 903 2953 641 2809 
L 641 3341 
Q 956 3463 1253 3523 
Q 1550 3584 1831 3584 
Q 2591 3584 2966 3190 
Q 3341 2797 3341 1997 
z
" transform="scale(0.015625)"/>
       <path id="DejaVuSans-63" d="M 3122 3366 
L 3122 2828 
Q 2878 2963 2633 3030 
Q 2388 3097 2138 3097 
Q 1578 3097 1268 2742 
Q 959 2388 959 1747 
Q 959 1106 1268 751 
Q 1578 397 2138 397 
Q 2388 397 2633 464 
Q 2878 531 3122 666 
L 3122 134 
Q 2881 22 2623 -34 
Q 2366 -91 2075 -91 
Q 1284 -91 818 406 
Q 353 903 353 1747 
Q 353 2603 823 3093 
Q 1294 3584 2113 3584 
Q 2378 3584 2631 3529 
Q 2884 3475 3122 3366 
z
" transform="scale(0.015625)"/>
       <path id="DejaVuSans-65" d="M 3597 1894 
L 3597 1613 
L 953 1613 
Q 991 1019 1311 708 
Q 1631 397 2203 397 
Q 2534 397 2845 478 
Q 3156 559 3463 722 
L 3463 178 
Q 3153 47 2828 -22 
Q 2503 -91 2169 -91 
Q 1331 -91 842 396 
Q 353 884 353 1716 
Q 353 2575 817 3079 
Q 1281 3584 2069 3584 
Q 2775 3584 3186 3129 
Q 3597 2675 3597 1894 
z
M 3022 2063 
Q 3016 2534 2758 2815 
Q 2500 3097 2075 3097 
Q 1594 3097 1305 2825 
Q 1016 2553 972 2059 
L 3022 2063 
z
" transform="scale(0.015625)"/>
       <path id="DejaVuSans-6d" d="M 3328 2828 
Q 3544 3216 3844 3400 
Q 4144 3584 4550 3584 
Q 5097 3584 5394 3201 
Q 5691 2819 5691 2113 
L 5691 0 
L 5113 0 
L 5113 2094 
Q 5113 2597 4934 2840 
Q 4756 3084 4391 3084 
Q 3944 3084 3684 2787 
Q 3425 2491 3425 1978 
L 3425 0 
L 2847 0 
L 2847 2094 
Q 2847 2600 2669 2842 
Q 2491 3084 2119 3084 
Q 1678 3084 1418 2786 
Q 1159 2488 1159 1978 
L 1159 0 
L 581 0 
L 581 3500 
L 1159 3500 
L 1159 2956 
Q 1356 3278 1631 3431 
Q 1906 3584 2284 3584 
Q 2666 3584 2933 3390 
Q 3200 3197 3328 2828 
z
" transform="scale(0.015625)"/>
       <path id="DejaVuSans-6e" d="M 3513 2113 
L 3513 0 
L 2938 0 
L 2938 2094 
Q 2938 2591 2744 2837 
Q 2550 3084 2163 3084 
Q 1697 3084 1428 2787 
Q 1159 2491 1159 1978 
L 1159 0 
L 581 0 
L 581 3500 
L 1159 3500 
L 1159 2956 
Q 1366 3272 1645 3428 
Q 1925 3584 2291 3584 
Q 2894 3584 3203 3211 
Q 3513 2838 3513 2113 
z
" transform="scale(0.015625)"/>
       <path id="DejaVuSans-74" d="M 1172 4494 
L 1172 3500 
L 2356 3500 
L 2356 3053 
L 1172 3053 
L 1172 1153 
Q 1172 725 1289 603 
Q 1406 481 1766 481 
L 2356 481 
L 2356 0 
L 1766 0 
Q 1100 0 847 248 
Q 594 497 594 1153 
L 594 3053 
L 172 3053 
L 172 3500 
L 594 3500 
L 594 4494 
L 1172 4494 
z
" transform="scale(0.015625)"/>
       <path id="DejaVuSans-28" d="M 1984 4856 
Q 1566 4138 1362 3434 
Q 1159 2731 1159 2009 
Q 1159 1288 1364 580 
Q 1569 -128 1984 -844 
L 1484 -844 
Q 1016 -109 783 600 
Q 550 1309 550 2009 
Q 550 2706 781 3412 
Q 1013 4119 1484 4856 
L 1984 4856 
z
" transform="scale(0.015625)"/>
       <path id="DejaVuSans-b5" d="M 544 -1331 
L 544 3500 
L 1119 3500 
L 1119 1325 
Q 1119 872 1334 640 
Q 1550 409 1972 409 
Q 2434 409 2667 671 
Q 2900 934 2900 1459 
L 2900 3500 
L 3475 3500 
L 3475 806 
Q 3475 619 3529 530 
Q 3584 441 3700 441 
Q 3728 441 3778 458 
Q 3828 475 3916 513 
L 3916 50 
Q 3788 -22 3673 -56 
Q 3559 -91 3450 -91 
Q 3234 -91 3106 31 
Q 2978 153 2931 403 
Q 2775 156 2548 32 
Q 2322 -91 2016 -91 
Q 1697 -91 1473 31 
Q 1250 153 1119 397 
L 1119 -1331 
L 544 -1331 
z
" transform="scale(0.015625)"/>
       <path id="DejaVuSans-29" d="M 513 4856 
L 1013 4856 
Q 1481 4119 1714 3412 
Q 1947 2706 1947 2009 
Q 1947 1309 1714 600 
Q 1481 -109 1013 -844 
L 513 -844 
Q 928 -128 1133 580 
Q 1338 1288 1338 2009 
Q 1338 2731 1133 3434 
Q 928 4138 513 4856 
z
" transform="scale(0.015625)"/>
      </defs>
      <use xlink:href="#DejaVuSans-4d"/>
      <use xlink:href="#DejaVuSans-69" x="86.279297"/>
      <use xlink:href="#DejaVuSans-72" x="114.0625"/>
      <use xlink:href="#DejaVuSans-72" x="153.425781"/>
      <use xlink:href="#DejaVuSans-6f" x="192.289062"/>
      <use xlink:href="#DejaVuSans-72" x="253.470703"/>
      <use xlink:href="#DejaVuSans-20" x="294.583984"/>
      <use xlink:href="#DejaVuSans-44" x="326.371094"/>
      <use xlink:href="#DejaVuSans-69" x="403.373047"/>
      <use xlink:href="#DejaVuSans-73" x="431.15625"/>
      <use xlink:href="#DejaVuSans-70" x="483.255859"/>
      <use xlink:href="#DejaVuSans-6c" x="546.732422"/>
      <use xlink:href="#DejaVuSans-61" x="574.515625"/>
      <use xlink:href="#DejaVuSans-63" x="635.794922"/>
      <use xlink:href="#DejaVuSans-65" x="690.775391"/>
      <use xlink:href="#DejaVuSans-6d" x="752.298828"/>
      <use xlink:href="#DejaVuSans-65" x="849.710938"/>
      <use xlink:href="#DejaVuSans-6e" x="911.234375"/>
      <use xlink:href="#DejaVuSans-74" x="974.613281"/>
      <use xlink:href="#DejaVuSans-20" x="1013.822266"/>
      <use xlink:href="#DejaVuSans-28" x="1045.609375"/>
      <use xlink:href="#DejaVuSans-b5" x="1084.623047"/>
      <use xlink:href="#DejaVuSans-6d" x="1148.246094"/>
      <use xlink:href="#DejaVuSans-29" x="1245.658203"/>
     </g>
    </g>
   </g>
   <g id="matplotlib.axis_2">
    <g id="ytick_1">
     <g id="line2d_13">
      <path d="M 90 349.359721 
L 648 349.359721 
" clip-path="url(#p8a1bff13a8)" style="fill: none; stroke: #b0b0b0; stroke-width: 0.8; stroke-linecap: square"/>
     </g>
     <g id="line2d_14">
      <defs>
       <path id="m3b6d4dd33f" d="M 0 0 
L -3.5 0 
" style="stroke: #000000; stroke-width: 0.8"/>
      </defs>
      <g>
       <use xlink:href="#m3b6d4dd33f" x="90" y="349.359721" style="stroke: #000000; stroke-width: 0.8"/>
      </g>
     </g>
     <g id="text_8">
      <!-- −70 -->
      <g transform="translate(61.895313 353.15894) scale(0.1 -0.1)">
       <defs>
        <path id="DejaVuSans-2212" d="M 678 2272 
L 4684 2272 
L 4684 1741 
L 678 1741 
L 678 2272 
z
" transform="scale(0.015625)"/>
        <path id="DejaVuSans-37" d="M 525 4666 
L 3525 4666 
L 3525 4397 
L 1831 0 
L 1172 0 
L 2766 4134 
L 525 4134 
L 525 4666 
z
" transform="scale(0.015625)"/>
       </defs>
       <use xlink:href="#DejaVuSans-2212"/>
       <use xlink:href="#DejaVuSans-37" x="83.789062"/>
       <use xlink:href="#DejaVuSans-30" x="147.412109"/>
      </g>
     </g>
    </g>
    <g id="ytick_2">
     <g id="line2d_15">
      <path d="M 90 296.588536 
L 648 296.588536 
" clip-path="url(#p8a1bff13a8)" style="fill: none; stroke: #b0b0b0; stroke-width: 0.8; stroke-linecap: square"/>
     </g>
     <g id="line2d_16">
      <g>
       <use xlink:href="#m3b6d4dd33f" x="90" y="296.588536" style="stroke: #000000; stroke-width: 0.8"/>
      </g>
     </g>
     <g id="text_9">
      <!-- −65 -->
      <g transform="translate(61.895313 300.387754) scale(0.1 -0.1)">
       <defs>
        <path id="DejaVuSans-35" d="M 691 4666 
L 3169 4666 
L 3169 4134 
L 1269 4134 
L 1269 2991 
Q 1406 3038 1543 3061 
Q 1681 3084 1819 3084 
Q 2600 3084 3056 2656 
Q 3513 2228 3513 1497 
Q 3513 744 3044 326 
Q 2575 -91 1722 -91 
Q 1428 -91 1123 -41 
Q 819 9 494 109 
L 494 744 
Q 775 591 1075 516 
Q 1375 441 1709 441 
Q 2250 441 2565 725 
Q 2881 1009 2881 1497 
Q 2881 1984 2565 2268 
Q 2250 2553 1709 2553 
Q 1456 2553 1204 2497 
Q 953 2441 691 2322 
L 691 4666 
z
" transform="scale(0.015625)"/>
       </defs>
       <use xlink:href="#DejaVuSans-2212"/>
       <use xlink:href="#DejaVuSans-36" x="83.789062"/>
       <use xlink:href="#DejaVuSans-35" x="147.412109"/>
      </g>
     </g>
    </g>
    <g id="ytick_3">
     <g id="line2d_17">
      <path d="M 90 243.81735 
L 648 243.81735 
" clip-path="url(#p8a1bff13a8)" style="fill: none; stroke: #b0b0b0; stroke-width: 0.8; stroke-linecap: square"/>
     </g>
     <g id="line2d_18">
      <g>
       <use xlink:href="#m3b6d4dd33f" x="90" y="243.81735" style="stroke: #000000; stroke-width: 0.8"/>
      </g>
     </g>
     <g id="text_10">
      <!-- −60 -->
      <g transform="translate(61.895313 247.616569) scale(0.1 -0.1)">
       <use xlink:href="#DejaVuSans-2212"/>
       <use xlink:href="#DejaVuSans-36" x="83.789062"/>
       <use xlink:href="#DejaVuSans-30" x="147.412109"/>
      </g>
     </g>
    </g>
    <g id="ytick_4">
     <g id="line2d_19">
      <path d="M 90 191.046165 
L 648 191.046165 
" clip-path="url(#p8a1bff13a8)" style="fill: none; stroke: #b0b0b0; stroke-width: 0.8; stroke-linecap: square"/>
     </g>
     <g id="line2d_20">
      <g>
       <use xlink:href="#m3b6d4dd33f" x="90" y="191.046165" style="stroke: #000000; stroke-width: 0.8"/>
      </g>
     </g>
     <g id="text_11">
      <!-- −55 -->
      <g transform="translate(61.895313 194.845384) scale(0.1 -0.1)">
       <use xlink:href="#DejaVuSans-2212"/>
       <use xlink:href="#DejaVuSans-35" x="83.789062"/>
       <use xlink:href="#DejaVuSans-35" x="147.412109"/>
      </g>
     </g>
    </g>
    <g id="ytick_5">
     <g id="line2d_21">
      <path d="M 90 138.27498 
L 648 138.27498 
" clip-path="url(#p8a1bff13a8)" style="fill: none; stroke: #b0b0b0; stroke-width: 0.8; stroke-linecap: square"/>
     </g>
     <g id="line2d_22">
      <g>
       <use xlink:href="#m3b6d4dd33f" x="90" y="138.27498" style="stroke: #000000; stroke-width: 0.8"/>
      </g>
     </g>
     <g id="text_12">
      <!-- −50 -->
      <g transform="translate(61.895313 142.074199) scale(0.1 -0.1)">
       <use xlink:href="#DejaVuSans-2212"/>
       <use xlink:href="#DejaVuSans-35" x="83.789062"/>
       <use xlink:href="#DejaVuSans-30" x="147.412109"/>
      </g>
     </g>
    </g>
    <g id="ytick_6">
     <g id="line2d_23">
      <path d="M 90 85.503794 
L 648 85.503794 
" clip-path="url(#p8a1bff13a8)" style="fill: none; stroke: #b0b0b0; stroke-width: 0.8; stroke-linecap: square"/>
     </g>
     <g id="line2d_24">
      <g>
       <use xlink:href="#m3b6d4dd33f" x="90" y="85.503794" style="stroke: #000000; stroke-width: 0.8"/>
      </g>
     </g>
     <g id="text_13">
      <!-- −45 -->
      <g transform="translate(61.895313 89.303013) scale(0.1 -0.1)">
       <use xlink:href="#DejaVuSans-2212"/>
       <use xlink:href="#DejaVuSans-34" x="83.789062"/>
       <use xlink:href="#DejaVuSans-35" x="147.412109"/>
      </g>
     </g>
    </g>
    <g id="text_14">
     <!-- Power (arbitrary units) -->
     <g transform="translate(55.815625 274.4225) rotate(-90) scale(0.1 -0.1)">
      <defs>
       <path id="DejaVuSans-50" d="M 1259 4147 
L 1259 2394 
L 2053 2394 
Q 2494 2394 2734 2622 
Q 2975 2850 2975 3272 
Q 2975 3691 2734 3919 
Q 2494 4147 2053 4147 
L 1259 4147 
z
M 628 4666 
L 2053 4666 
Q 2838 4666 3239 4311 
Q 3641 3956 3641 3272 
Q 3641 2581 3239 2228 
Q 2838 1875 2053 1875 
L 1259 1875 
L 1259 0 
L 628 0 
L 628 4666 
z
" transform="scale(0.015625)"/>
       <path id="DejaVuSans-77" d="M 269 3500 
L 844 3500 
L 1563 769 
L 2278 3500 
L 2956 3500 
L 3675 769 
L 4391 3500 
L 4966 3500 
L 4050 0 
L 3372 0 
L 2619 2869 
L 1863 0 
L 1184 0 
L 269 3500 
z
" transform="scale(0.015625)"/>
       <path id="DejaVuSans-62" d="M 3116 1747 
Q 3116 2381 2855 2742 
Q 2594 3103 2138 3103 
Q 1681 3103 1420 2742 
Q 1159 2381 1159 1747 
Q 1159 1113 1420 752 
Q 1681 391 2138 391 
Q 2594 391 2855 752 
Q 3116 1113 3116 1747 
z
M 1159 2969 
Q 1341 3281 1617 3432 
Q 1894 3584 2278 3584 
Q 2916 3584 3314 3078 
Q 3713 2572 3713 1747 
Q 3713 922 3314 415 
Q 2916 -91 2278 -91 
Q 1894 -91 1617 61 
Q 1341 213 1159 525 
L 1159 0 
L 581 0 
L 581 4863 
L 1159 4863 
L 1159 2969 
z
" transform="scale(0.015625)"/>
       <path id="DejaVuSans-79" d="M 2059 -325 
Q 1816 -950 1584 -1140 
Q 1353 -1331 966 -1331 
L 506 -1331 
L 506 -850 
L 844 -850 
Q 1081 -850 1212 -737 
Q 1344 -625 1503 -206 
L 1606 56 
L 191 3500 
L 800 3500 
L 1894 763 
L 2988 3500 
L 3597 3500 
L 2059 -325 
z
" transform="scale(0.015625)"/>
       <path id="DejaVuSans-75" d="M 544 1381 
L 544 3500 
L 1119 3500 
L 1119 1403 
Q 1119 906 1312 657 
Q 1506 409 1894 409 
Q 2359 409 2629 706 
Q 2900 1003 2900 1516 
L 2900 3500 
L 3475 3500 
L 3475 0 
L 2900 0 
L 2900 538 
Q 2691 219 2414 64 
Q 2138 -91 1772 -91 
Q 1169 -91 856 284 
Q 544 659 544 1381 
z
M 1991 3584 
L 1991 3584 
z
" transform="scale(0.015625)"/>
      </defs>
      <use xlink:href="#DejaVuSans-50"/>
      <use xlink:href="#DejaVuSans-6f" x="56.677734"/>
      <use xlink:href="#DejaVuSans-77" x="117.859375"/>
      <use xlink:href="#DejaVuSans-65" x="199.646484"/>
      <use xlink:href="#DejaVuSans-72" x="261.169922"/>
      <use xlink:href="#DejaVuSans-20" x="302.283203"/>
      <use xlink:href="#DejaVuSans-28" x="334.070312"/>
      <use xlink:href="#DejaVuSans-61" x="373.083984"/>
      <use xlink:href="#DejaVuSans-72" x="434.363281"/>
      <use xlink:href="#DejaVuSans-62" x="475.476562"/>
      <use xlink:href="#DejaVuSans-69" x="538.953125"/>
      <use xlink:href="#DejaVuSans-74" x="566.736328"/>
      <use xlink:href="#DejaVuSans-72" x="605.945312"/>
      <use xlink:href="#DejaVuSans-61" x="647.058594"/>
      <use xlink:href="#DejaVuSans-72" x="708.337891"/>
      <use xlink:href="#DejaVuSans-79" x="749.451172"/>
      <use xlink:href="#DejaVuSans-20" x="808.630859"/>
      <use xlink:href="#DejaVuSans-75" x="840.417969"/>
      <use xlink:href="#DejaVuSans-6e" x="903.796875"/>
      <use xlink:href="#DejaVuSans-69" x="967.175781"/>
      <use xlink:href="#DejaVuSans-74" x="994.958984"/>
      <use xlink:href="#DejaVuSans-73" x="1034.167969"/>
      <use xlink:href="#DejaVuSans-29" x="1086.267578"/>
     </g>
    </g>
   </g>
   <g id="line2d_25">
    <path d="M 115.363636 209.653285 
L 115.871417 213.125629 
L 116.886978 239.342354 
L 117.394758 227.711585 
L 117.902539 250.265989 
L 118.410319 247.849069 
L 118.9181 239.753969 
L 119.42588 251.627486 
L 119.933661 259.38485 
L 120.441441 270.340148 
L 120.949222 276.451051 
L 121.457002 276.3244 
L 121.964783 275.627821 
L 122.472563 277.379824 
L 122.980344 273.379768 
L 123.488124 311.480564 
L 123.995905 291.723032 
L 124.503686 300.778568 
L 125.011466 335.122055 
L 125.519247 311.448901 
L 126.027027 317.475371 
L 126.534808 344.557543 
L 127.042588 333.823884 
L 127.550369 360.937719 
L 128.058149 364.410063 
L 128.56593 346.172341 
L 129.07371 350.362373 
L 129.581491 332.863448 
L 130.089271 337.454541 
L 130.597052 317.654793 
L 131.104832 345.032484 
L 131.612613 324.641698 
L 132.120393 314.256328 
L 132.628174 310.520128 
L 133.135954 275.912785 
L 133.643735 286.319263 
L 134.151515 289.918258 
L 134.659296 275.648929 
L 135.167076 267.82824 
L 135.674857 273.738612 
L 136.182637 252.651247 
L 136.690418 247.690755 
L 137.198198 252.630138 
L 137.705979 248.471769 
L 138.213759 253.263392 
L 138.72154 251.448064 
L 139.22932 248.345118 
L 139.737101 224.11259 
L 140.244881 238.255267 
L 140.752662 223.985939 
L 141.260442 226.371196 
L 141.768223 236.397722 
L 142.276003 217.410649 
L 142.783784 218.181108 
L 143.291564 217.970024 
L 143.799345 223.247142 
L 144.307125 209.494971 
L 144.814906 206.022627 
L 145.322686 203.690141 
L 145.830467 200.756063 
L 146.338247 211.363071 
L 146.846028 202.866911 
L 147.353808 184.396996 
L 147.861589 201.990909 
L 148.369369 200.924931 
L 148.87715 198.265263 
L 149.38493 186.286204 
L 149.892711 190.666212 
L 150.400491 182.81386 
L 150.908272 173.072299 
L 151.923833 182.085618 
L 152.431613 179.088214 
L 152.939394 180.618579 
L 153.447174 173.811096 
L 153.954955 183.035499 
L 154.462735 177.388982 
L 154.970516 169.167232 
L 155.478296 158.834634 
L 155.986077 162.781918 
L 156.493857 153.029803 
L 157.001638 165.008862 
L 157.509419 169.842703 
L 158.017199 159.605093 
L 158.52498 163.541823 
L 159.03276 147.562708 
L 159.540541 142.327807 
L 160.048321 140.586358 
L 160.556102 143.657641 
L 161.063882 150.549557 
L 161.571663 140.185297 
L 162.079443 159.467888 
L 162.587224 145.462415 
L 163.095004 140.807997 
L 163.602785 164.449488 
L 164.110565 156.375496 
L 164.618346 130.348748 
L 165.126126 144.480871 
L 165.633907 148.681457 
L 166.141687 135.066492 
L 166.649468 131.309183 
L 167.157248 136.522976 
L 167.665029 135.689192 
L 168.172809 144.385883 
L 168.68059 144.523088 
L 169.18837 135.214251 
L 169.696151 131.678582 
L 170.203931 123.805121 
L 170.711712 135.836951 
L 171.219492 118.897401 
L 171.727273 133.799983 
L 172.235053 125.293268 
L 172.742834 129.13501 
L 173.250614 127.34079 
L 173.758395 117.662555 
L 174.266175 118.633545 
L 174.773956 116.607131 
L 175.281736 117.071518 
L 175.789517 123.836783 
L 176.297297 119.826173 
L 176.805078 108.227067 
L 177.312858 111.889387 
L 177.820639 116.744336 
L 178.328419 123.520156 
L 178.8362 121.842033 
L 179.34398 113.282546 
L 179.851761 114.992333 
L 180.359541 107.731018 
L 180.867322 110.960614 
L 181.375102 106.052894 
L 181.882883 104.628072 
L 182.390663 106.643931 
L 182.898444 111.203362 
L 183.406224 101.461801 
L 183.914005 108.744224 
L 184.421785 95.25591 
L 184.929566 94.464342 
L 185.437346 103.256021 
L 185.945127 106.274533 
L 186.452907 98.823242 
L 186.960688 107.509379 
L 187.468468 95.192584 
L 187.976249 111.762736 
L 188.484029 104.976362 
L 188.99181 116.607131 
L 189.49959 101.145174 
L 190.007371 95.825838 
L 190.515152 101.124065 
L 191.022932 95.561982 
L 191.530713 97.39842 
L 192.038493 96.680732 
L 192.546274 98.759916 
L 193.054054 103.519877 
L 193.561835 102.981611 
L 194.577396 93.113399 
L 195.085176 106.707257 
L 195.592957 93.197833 
L 196.100737 100.839101 
L 196.608518 85.820422 
L 197.116298 91.382505 
L 197.624079 92.026313 
L 198.131859 87.181918 
L 198.63964 90.791467 
L 199.14742 92.34294 
L 199.655201 100.596353 
L 200.670762 83.635695 
L 201.178542 91.846891 
L 201.686323 90.47484 
L 202.194103 85.239939 
L 202.701884 96.712394 
L 203.209664 84.807215 
L 203.717445 98.886567 
L 204.225225 88.743945 
L 204.733006 89.799369 
L 205.240786 86.780857 
L 206.256347 95.561982 
L 206.764128 87.688522 
L 207.271908 86.010398 
L 208.287469 79.61453 
L 209.30303 100.279726 
L 209.810811 84.026201 
L 210.318591 98.073891 
L 210.826372 79.213469 
L 211.334152 89.356091 
L 211.841933 79.371783 
L 212.349713 83.846779 
L 212.857494 92.406266 
L 213.365274 80.490532 
L 213.873055 85.820422 
L 214.380835 87.994594 
L 214.888616 84.427262 
L 215.396396 75.276739 
L 215.904177 105.683496 
L 216.411957 75.181751 
L 216.919738 72.01548 
L 217.427518 76.638235 
L 217.935299 93.366701 
L 218.95086 77.978623 
L 219.45864 93.778316 
L 219.966421 76.458813 
L 220.474201 95.540874 
L 220.981982 81.514293 
L 221.489762 78.485227 
L 221.997543 88.33233 
L 222.505324 83.983984 
L 223.013104 81.113232 
L 223.520885 87.899606 
L 224.028665 80.58552 
L 224.536446 87.815172 
L 225.044226 87.255798 
L 225.552007 85.641 
L 226.059787 95.783621 
L 226.567568 87.561871 
L 227.075348 87.498545 
L 227.583129 76.078861 
L 228.090909 83.62514 
L 228.59869 77.567008 
L 229.10647 73.039241 
L 229.614251 76.078861 
L 230.122031 90.073779 
L 230.629812 83.466827 
L 231.137592 82.316415 
L 231.645373 85.91541 
L 232.153153 72.83871 
L 232.660934 78.010286 
L 233.168714 85.925964 
L 233.676495 71.888829 
L 234.184275 91.931325 
L 234.692056 72.5643 
L 235.199836 81.229328 
L 235.707617 74.844015 
L 236.215397 83.741237 
L 236.723178 83.836225 
L 237.230958 85.91541 
L 237.738739 81.197666 
L 238.246519 81.450967 
L 238.7543 86.664761 
L 239.26208 85.239939 
L 239.769861 82.812464 
L 240.785422 96.279671 
L 241.293202 82.221427 
L 241.800983 81.324317 
L 242.308763 81.714823 
L 242.816544 84.216178 
L 243.324324 77.925852 
L 243.832105 80.490532 
L 244.339885 107.044992 
L 244.847666 81.63039 
L 245.355446 98.105554 
L 245.863227 81.693715 
L 246.371007 95.18203 
L 246.878788 74.15799 
L 247.386568 90.791467 
L 247.894349 91.393059 
L 248.402129 90.390406 
L 248.90991 87.255798 
L 249.41769 90.305972 
L 249.925471 91.255854 
L 250.433251 88.279559 
L 250.941032 102.517225 
L 251.448812 91.224191 
L 251.956593 102.443345 
L 252.464373 97.39842 
L 252.972154 88.089583 
L 253.479934 90.105442 
L 253.987715 95.129259 
L 254.495495 102.759972 
L 255.003276 88.374547 
L 255.511057 85.577674 
L 256.018837 96.839045 
L 256.526618 84.152852 
L 257.034398 97.662276 
L 257.542179 102.38002 
L 258.049959 86.601435 
L 258.55774 98.580494 
L 259.06552 100.775776 
L 260.081081 94.042172 
L 260.588862 99.477604 
L 261.096642 113.09257 
L 261.604423 110.40124 
L 262.112203 111.794399 
L 262.619984 107.298294 
L 263.635545 101.651777 
L 264.143325 100.300835 
L 264.651106 95.593645 
L 265.158886 115.361731 
L 265.666667 99.403725 
L 266.174447 100.744113 
L 266.682228 108.997526 
L 267.190008 121.81037 
L 267.697789 101.33515 
L 268.205569 109.409141 
L 268.71335 107.329957 
L 269.22113 103.351009 
L 269.728911 124.702231 
L 270.236691 101.06074 
L 270.744472 109.525238 
L 271.252252 112.944811 
L 271.760033 118.62299 
L 272.267813 109.440804 
L 272.775594 113.852475 
L 273.283374 111.488326 
L 273.791155 119.097931 
L 274.298935 122.43307 
L 275.314496 133.325043 
L 275.822277 130.538724 
L 276.330057 113.810258 
L 276.837838 117.345928 
L 277.345618 123.931772 
L 277.853399 118.897401 
L 278.361179 111.235024 
L 278.86896 121.757599 
L 279.37674 119.794511 
L 279.884521 136.734061 
L 280.392301 136.987363 
L 280.900082 127.678526 
L 281.407862 138.992668 
L 281.915643 127.150814 
L 282.423423 133.546682 
L 282.931204 133.356705 
L 283.438984 132.702343 
L 283.946765 131.309183 
L 284.454545 155.520603 
L 284.962326 141.641781 
L 285.470106 143.815954 
L 285.977887 143.351568 
L 286.485667 158.919067 
L 286.993448 146.391188 
L 287.501229 156.998196 
L 288.009009 147.678805 
L 288.51679 156.006098 
L 289.02457 150.823968 
L 289.532351 152.597079 
L 290.040131 160.217239 
L 290.547912 137.293436 
L 291.055692 161.905917 
L 291.563473 176.428547 
L 292.071253 160.027262 
L 292.579034 165.346598 
L 293.086814 159.235695 
L 293.594595 182.623884 
L 294.102375 177.00903 
L 294.610156 173.082854 
L 295.117936 183.341572 
L 295.625717 179.172648 
L 296.133497 192.42877 
L 296.641278 177.135681 
L 297.149058 182.349474 
L 297.656839 193.67417 
L 298.164619 194.877353 
L 298.6724 184.555309 
L 299.18018 188.217629 
L 299.687961 183.71097 
L 300.195741 194.539617 
L 300.703522 193.304772 
L 301.211302 202.423633 
L 301.719083 190.381248 
L 302.226863 206.455351 
L 302.734644 218.898797 
L 303.242424 216.01749 
L 303.750205 225.938473 
L 304.257985 226.10734 
L 304.765766 226.022907 
L 305.273546 238.571894 
L 305.781327 226.550618 
L 306.289107 227.162764 
L 306.796888 227.342186 
L 307.304668 249.368879 
L 307.812449 259.395404 
L 308.320229 238.740762 
L 308.82801 233.885813 
L 309.33579 275.026229 
L 309.843571 256.376892 
L 310.351351 262.603892 
L 310.859132 298.04502 
L 311.366912 300.440832 
L 311.874693 242.107564 
L 312.382473 276.704353 
L 312.890254 321.770945 
L 313.398034 287.997387 
L 313.905815 283.817909 
L 314.413595 265.221343 
L 314.921376 312.441 
L 315.429156 324.641698 
L 315.936937 293.390602 
L 316.444717 328.821175 
L 316.952498 304.746961 
L 317.460278 350.921748 
L 317.968059 350.330711 
L 318.475839 357.898099 
L 319.999181 278.097512 
L 320.506962 314.119123 
L 321.014742 310.84731 
L 321.522523 283.121329 
L 322.030303 291.153103 
L 322.538084 255.490336 
L 323.045864 284.398392 
L 323.553645 299.849795 
L 324.061425 257.685618 
L 324.569206 276.704353 
L 325.076986 236.34495 
L 325.584767 267.015563 
L 326.092547 258.551065 
L 326.600328 236.640469 
L 327.108108 233.020366 
L 327.615889 230.909518 
L 328.123669 240.028379 
L 328.63145 235.310635 
L 329.13923 236.735457 
L 329.647011 218.70882 
L 330.154791 214.708764 
L 330.662572 221.020198 
L 331.170352 216.597973 
L 331.678133 220.144197 
L 332.185913 208.502873 
L 332.693694 218.70882 
L 333.201474 215.721971 
L 333.709255 193.040916 
L 334.217035 203.91178 
L 334.724816 210.054346 
L 336.248157 176.73462 
L 336.755938 183.214921 
L 337.263718 181.325713 
L 337.771499 180.080313 
L 338.279279 181.747882 
L 339.29484 172.57625 
L 339.802621 189.452475 
L 340.310401 167.858506 
L 340.818182 170.096004 
L 341.325962 178.718816 
L 341.833743 157.462583 
L 342.341523 160.913818 
L 342.849304 158.243596 
L 343.357084 172.734564 
L 343.864865 160.396661 
L 344.372645 160.913818 
L 344.880426 172.175189 
L 345.388206 179.024889 
L 346.403767 162.644713 
L 346.911548 162.982449 
L 347.419328 161.124903 
L 347.927109 148.945313 
L 348.434889 145.082463 
L 348.94267 150.665654 
L 349.958231 144.839715 
L 350.973792 140.892431 
L 351.481572 154.148552 
L 351.989353 145.462415 
L 352.497133 145.895139 
L 353.004914 158.116945 
L 353.512695 130.654821 
L 354.020475 133.451693 
L 354.528256 134.380466 
L 355.036036 137.325098 
L 355.543817 137.37787 
L 356.051597 142.074505 
L 356.559378 139.86867 
L 357.067158 143.720966 
L 357.574939 129.715494 
L 358.082719 136.301337 
L 358.5905 123.857892 
L 359.09828 132.765668 
L 359.606061 137.177339 
L 360.113841 122.221985 
L 360.621622 133.261717 
L 361.129402 126.654765 
L 361.637183 114.464621 
L 362.144963 118.433014 
L 363.160524 132.364607 
L 363.668305 113.778596 
L 364.176085 124.955533 
L 364.683866 122.623046 
L 365.191646 115.85778 
L 365.699427 104.712506 
L 366.207207 114.496284 
L 366.714988 116.913204 
L 367.222768 104.37477 
L 367.730549 107.382728 
L 368.238329 109.282491 
L 368.74611 125.504353 
L 369.25389 109.715214 
L 369.761671 120.512199 
L 370.269451 112.913148 
L 370.777232 101.208499 
L 371.285012 113.905246 
L 371.792793 113.651945 
L 372.300573 118.633545 
L 372.808354 103.382672 
L 373.316134 98.242759 
L 373.823915 113.472523 
L 374.331695 112.374882 
L 374.839476 116.290504 
L 375.347256 102.876069 
L 375.855037 105.092458 
L 376.362817 105.398531 
L 376.870598 110.855072 
L 377.378378 104.870819 
L 377.886159 94.48545 
L 378.393939 99.847003 
L 378.90172 106.833908 
L 379.4095 102.496116 
L 379.917281 105.250772 
L 380.425061 106.675594 
L 380.932842 98.580494 
L 381.440622 100.71245 
L 381.948403 99.519821 
L 382.963964 109.187502 
L 383.471744 102.263923 
L 383.979525 98.854904 
L 384.487305 99.382616 
L 384.995086 88.511752 
L 385.502867 110.833963 
L 386.010647 93.989401 
L 386.518428 96.469647 
L 387.026208 90.82313 
L 387.533989 95.572537 
L 388.041769 85.419361 
L 388.54955 95.540874 
L 389.05733 94.369354 
L 389.565111 94.928728 
L 390.072891 97.366757 
L 390.580672 96.839045 
L 391.088452 86.411459 
L 391.596233 88.68062 
L 392.104013 96.680732 
L 392.611794 87.255798 
L 393.119574 94.168823 
L 393.627355 83.308513 
L 394.135135 88.648957 
L 394.642916 90.907564 
L 395.150696 91.002552 
L 395.658477 99.752015 
L 396.166257 88.33233 
L 396.674038 89.419416 
L 397.181818 97.641167 
L 397.689599 91.962988 
L 398.197379 99.910328 
L 398.70516 91.530264 
L 399.21294 106.095111 
L 399.720721 88.838933 
L 400.228501 89.57773 
L 400.736282 82.348078 
L 401.244062 91.561927 
L 401.751843 91.034215 
L 402.259623 97.588396 
L 402.767404 88.68062 
L 403.275184 89.862694 
L 403.782965 89.714935 
L 404.290745 91.709686 
L 404.798526 81.387642 
L 405.306306 89.862694 
L 405.814087 90.073779 
L 406.321867 90.042116 
L 406.829648 102.886623 
L 407.337428 87.815172 
L 407.845209 80.786051 
L 408.352989 105.124121 
L 408.86077 79.445662 
L 409.36855 82.675259 
L 409.876331 88.163462 
L 410.384111 84.363937 
L 410.891892 85.356035 
L 411.399672 108.227067 
L 411.907453 86.685869 
L 412.415233 76.828212 
L 412.923014 81.113232 
L 413.430794 81.693715 
L 413.938575 86.875845 
L 414.446355 83.804562 
L 414.954136 84.733335 
L 415.461916 79.561759 
L 415.969697 79.181807 
L 416.477477 78.316359 
L 417.493038 91.530264 
L 418.000819 86.242591 
L 418.5086 88.553969 
L 419.01638 84.954974 
L 419.524161 83.709574 
L 420.031941 88.659511 
L 420.539722 81.947017 
L 421.047502 78.664649 
L 421.555283 78.727974 
L 422.063063 79.952266 
L 422.570844 90.20043 
L 423.078624 79.561759 
L 423.586405 83.371839 
L 424.094185 88.026257 
L 424.601966 81.419305 
L 425.109746 85.250493 
L 425.617527 93.081737 
L 426.633088 79.931157 
L 427.140868 94.918174 
L 427.648649 78.326913 
L 428.156429 106.422292 
L 428.66421 89.746598 
L 429.17199 102.759972 
L 430.187551 81.018244 
L 430.695332 86.495893 
L 431.203112 83.392947 
L 431.710893 95.477549 
L 432.218673 85.546011 
L 433.234234 95.751959 
L 433.742015 85.852084 
L 434.249795 87.498545 
L 434.757576 92.374603 
L 435.265356 103.467106 
L 435.773137 83.561815 
L 436.280917 90.073779 
L 436.788698 88.195125 
L 437.296478 91.224191 
L 437.804259 97.556733 
L 438.312039 84.764998 
L 438.81982 105.366869 
L 439.3276 89.546067 
L 439.835381 98.781025 
L 440.343161 93.461689 
L 440.850942 80.85993 
L 441.866503 100.036979 
L 442.374283 87.456328 
L 443.389844 100.131967 
L 443.897625 89.113344 
L 444.405405 95.593645 
L 444.913186 108.596465 
L 445.420966 99.635918 
L 445.928747 106.981667 
L 446.436527 95.973598 
L 446.944308 113.409197 
L 447.452088 93.704437 
L 447.959869 107.519933 
L 448.467649 92.986749 
L 448.97543 109.250828 
L 449.48321 111.361675 
L 449.990991 107.13998 
L 450.498771 110.960614 
L 451.006552 97.556733 
L 451.514333 99.783677 
L 452.022113 107.731018 
L 452.529894 97.39842 
L 453.037674 101.187391 
L 453.545455 110.67565 
L 454.053235 104.195348 
L 454.561016 106.86557 
L 455.068796 98.854904 
L 455.576577 97.725601 
L 456.084357 113.250884 
L 456.592138 107.171643 
L 457.607699 117.746989 
L 458.115479 111.931604 
L 458.62326 118.401351 
L 459.13104 115.140092 
L 459.638821 116.27995 
L 460.146601 125.177172 
L 460.654382 111.140036 
L 461.162162 111.29835 
L 461.669943 113.219221 
L 462.177723 120.206126 
L 462.685504 121.630948 
L 463.193284 114.644043 
L 463.701065 121.694273 
L 464.208845 133.050632 
L 464.716626 114.369633 
L 465.224406 121.440972 
L 465.732187 125.968739 
L 466.239967 114.929007 
L 466.747748 134.81319 
L 467.255528 116.195516 
L 467.763309 143.38323 
L 468.271089 123.245746 
L 468.77887 125.441028 
L 469.28665 124.512255 
L 469.794431 144.713064 
L 470.302211 143.995376 
L 470.809992 144.649739 
L 471.317772 152.10103 
L 471.825553 132.142968 
L 472.333333 147.879335 
L 472.841114 136.860712 
L 473.348894 140.49137 
L 473.856675 147.26719 
L 474.364455 156.998196 
L 474.872236 148.428156 
L 475.380016 144.77639 
L 475.887797 161.642061 
L 476.395577 141.694553 
L 476.903358 161.462639 
L 477.411138 148.533698 
L 477.918919 142.760531 
L 478.426699 160.069479 
L 478.93448 156.787112 
L 479.950041 154.422962 
L 480.457821 155.784459 
L 480.965602 148.037649 
L 481.473382 182.560558 
L 481.981163 171.795237 
L 482.488943 152.470429 
L 483.504505 178.412743 
L 484.012285 184.112031 
L 484.520066 179.77424 
L 485.027846 180.460265 
L 485.535627 189.73744 
L 486.043407 175.394231 
L 486.551188 173.008974 
L 487.058968 195.056775 
L 487.566749 199.35235 
L 488.074529 181.135736 
L 488.58231 182.750535 
L 489.09009 204.713902 
L 489.597871 207.732414 
L 490.105651 201.399872 
L 490.613432 210.867022 
L 491.121212 201.642619 
L 491.628993 213.115075 
L 492.136773 212.946207 
L 492.644554 225.991244 
L 493.152334 223.922613 
L 493.660115 228.94643 
L 494.167895 235.152322 
L 494.675676 235.648371 
L 495.183456 247.437454 
L 495.691237 235.257864 
L 496.199017 262.804423 
L 496.706798 212.418495 
L 497.214578 250.39264 
L 497.722359 259.511501 
L 498.230139 263.511557 
L 498.73792 281.897038 
L 499.2457 269.749111 
L 499.753481 300.155868 
L 500.261261 293.052866 
L 500.769042 296.430222 
L 501.276822 326.172062 
L 501.784603 320.071713 
L 502.292383 271.089499 
L 502.800164 341.032428 
L 503.307944 339.934787 
L 503.815725 316.240525 
L 504.323505 369.36 
L 504.831286 348.357068 
L 505.339066 359.301812 
L 505.846847 353.307005 
L 506.862408 361.96148 
L 507.370188 322.435862 
L 507.877969 339.744811 
L 508.385749 300.68358 
L 508.89353 315.05845 
L 509.40131 280.050046 
L 509.909091 282.794148 
L 510.416871 290.604283 
L 510.924652 268.852001 
L 511.432432 290.171559 
L 511.940213 266.962792 
L 512.447993 252.53515 
L 512.955774 233.1048 
L 513.463554 256.809616 
L 513.971335 255.036504 
L 514.479115 242.983566 
L 514.986896 238.687991 
L 515.494676 242.265877 
L 516.002457 237.484808 
L 516.510238 227.743247 
L 517.525799 240.925489 
L 518.033579 236.49271 
L 518.54136 226.022907 
L 519.04914 211.890783 
L 519.556921 210.803697 
L 520.064701 218.677158 
L 520.572482 219.120436 
L 521.080262 215.94361 
L 521.588043 207.880173 
L 522.095823 185.980131 
L 522.603604 215.078163 
L 523.111384 201.209895 
L 523.619165 204.281178 
L 524.126945 199.753411 
L 524.634726 189.083077 
L 525.142506 189.262499 
L 525.650287 177.969465 
L 526.158067 185.420757 
L 526.665848 174.86652 
L 527.173628 180.798001 
L 527.681409 179.278191 
L 528.189189 178.191104 
L 528.69697 186.043457 
L 529.20475 165.916527 
L 529.712531 162.61305 
L 530.220311 179.710914 
L 530.728092 172.639576 
L 531.235872 169.409979 
L 531.743653 163.045774 
L 532.251433 173.441698 
L 532.759214 166.739757 
L 533.266994 182.381136 
L 533.774775 172.37572 
L 534.282555 157.842535 
L 534.790336 156.312171 
L 535.298116 164.766115 
L 535.805897 150.665654 
L 536.313677 150.30681 
L 537.329238 163.077437 
L 537.837019 149.705218 
L 538.344799 145.335764 
L 538.85258 160.491649 
L 539.36036 145.39909 
L 539.868141 153.335876 
L 540.375921 137.736714 
L 540.883702 152.99814 
L 541.391482 144.618076 
L 541.899263 140.681346 
L 542.407043 144.174798 
L 542.914824 155.098434 
L 543.422604 139.86867 
L 543.930385 137.019026 
L 544.438165 123.456831 
L 544.945946 127.96349 
L 545.453726 126.876404 
L 545.961507 128.533419 
L 546.469287 126.686427 
L 546.977068 138.380522 
L 547.484848 128.142912 
L 547.992629 114.644043 
L 548.50041 109.905191 
L 549.00819 129.324987 
L 549.515971 104.501421 
L 550.023751 117.440916 
L 550.531532 120.786609 
L 551.039312 117.008192 
L 551.547093 106.93945 
L 552.054873 120.29056 
L 552.562654 117.926411 
L 553.578215 107.298294 
L 554.085995 106.886679 
L 554.593776 112.628184 
L 555.101556 109.187502 
L 555.609337 98.91823 
L 556.117117 104.132023 
L 556.624898 114.675706 
L 557.132678 120.322223 
L 557.640459 108.754779 
L 558.148239 113.841921 
L 558.65602 106.24287 
L 559.1638 102.23226 
L 559.671581 107.203306 
L 560.687142 98.548831 
L 561.194922 103.878721 
L 561.702703 101.303487 
L 562.210483 101.06074 
L 562.718264 86.53811 
L 563.226044 93.24005 
L 563.733825 91.108094 
L 564.241605 92.670121 
L 564.749386 96.279671 
L 565.257166 110.897289 
L 565.764947 99.657026 
L 566.272727 103.699299 
L 566.780508 103.150479 
L 567.288288 97.113455 
L 567.796069 97.989457 
L 568.303849 99.54093 
L 568.81163 100.216401 
L 569.31941 90.358744 
L 569.827191 91.160866 
L 570.334971 99.910328 
L 570.842752 95.910272 
L 571.350532 95.973598 
L 571.858313 87.065822 
L 572.366093 98.633265 
L 572.873874 85.049962 
L 573.381654 101.767874 
L 574.397215 87.065822 
L 574.904996 85.0183 
L 575.412776 96.617406 
L 575.920557 81.13434 
L 576.428337 107.340511 
L 576.936118 102.517225 
L 577.443898 87.688522 
L 577.951679 89.672718 
L 578.459459 81.429859 
L 578.96724 84.332274 
L 579.47502 90.010454 
L 579.982801 76.015535 
L 580.490581 84.828323 
L 580.998362 96.469647 
L 581.506143 90.063225 
L 582.013923 90.759805 
L 582.521704 80.828267 
L 583.029484 79.403445 
L 583.537265 92.279615 
L 584.045045 83.804562 
L 584.552826 80.923256 
L 585.060606 81.925908 
L 585.568387 89.050018 
L 586.076167 84.648901 
L 586.583948 78.685757 
L 587.091728 76.77544 
L 587.599509 83.435164 
L 588.107289 84.353383 
L 588.61507 80.891593 
L 589.12285 74.844015 
L 589.630631 86.780857 
L 590.646192 84.205623 
L 591.153972 87.530208 
L 591.661753 83.234634 
L 592.169533 75.836113 
L 592.677314 82.844127 
L 593.185094 77.851973 
L 593.692875 79.540651 
L 594.200655 85.419361 
L 595.216216 66.96 
L 595.723997 98.791579 
L 596.231777 79.910049 
L 596.739558 84.490588 
L 597.247338 79.804506 
L 597.755119 76.796549 
L 598.262899 93.957738 
L 598.77068 89.831032 
L 599.786241 75.899439 
L 600.294021 79.899495 
L 600.801802 68.353159 
L 601.309582 83.245188 
L 601.817363 74.749027 
L 602.325143 89.071127 
L 602.832924 85.081625 
L 603.340704 83.034103 
L 603.848485 74.611822 
L 604.356265 73.429747 
L 604.864046 75.25563 
L 605.371826 89.145006 
L 605.879607 84.057864 
L 606.387387 95.129259 
L 606.895168 90.263755 
L 607.402948 91.625252 
L 607.910729 89.904911 
L 608.418509 79.899495 
L 608.92629 82.538054 
L 609.43407 94.749306 
L 609.941851 78.559107 
L 610.449631 77.387586 
L 610.957412 78.105274 
L 611.465192 69.904632 
L 611.972973 75.023437 
L 612.480753 93.430027 
L 612.988534 94.664872 
L 613.496314 83.097428 
L 614.004095 79.677856 
L 614.511876 80.258339 
L 615.019656 95.87861 
L 615.527437 92.152964 
L 616.035217 87.561871 
L 616.542998 96.406321 
L 617.050778 88.838933 
L 617.558559 86.105386 
L 618.066339 85.947072 
L 618.57412 92.026313 
L 619.0819 87.308569 
L 619.589681 86.780857 
L 620.097461 91.593589 
L 620.605242 80.606629 
L 621.113022 90.094888 
L 621.620803 92.427374 
L 622.128583 79.181807 
L 622.636364 90.432623 
L 622.636364 90.432623 
" clip-path="url(#p8a1bff13a8)" style="fill: none; stroke: #1f77b4; stroke-width: 1.5; stroke-linecap: square"/>
   </g>
   <g id="patch_3">
    <path d="M 90 384.48 
L 90 51.84 
" style="fill: none; stroke: #000000; stroke-width: 0.8; stroke-linejoin: miter; stroke-linecap: square"/>
   </g>
   <g id="patch_4">
    <path d="M 648 384.48 
L 648 51.84 
" style="fill: none; stroke: #000000; stroke-width: 0.8; stroke-linejoin: miter; stroke-linecap: square"/>
   </g>
   <g id="patch_5">
    <path d="M 90 384.48 
L 648 384.48 
" style="fill: none; stroke: #000000; stroke-width: 0.8; stroke-linejoin: miter; stroke-linecap: square"/>
   </g>
   <g id="patch_6">
    <path d="M 90 51.84 
L 648 51.84 
" style="fill: none; stroke: #000000; stroke-width: 0.8; stroke-linejoin: miter; stroke-linecap: square"/>
   </g>
   <g id="text_15">
    <!-- Calibration Curve -->
    <g transform="translate(316.745625 45.84) scale(0.12 -0.12)">
     <defs>
      <path id="DejaVuSans-43" d="M 4122 4306 
L 4122 3641 
Q 3803 3938 3442 4084 
Q 3081 4231 2675 4231 
Q 1875 4231 1450 3742 
Q 1025 3253 1025 2328 
Q 1025 1406 1450 917 
Q 1875 428 2675 428 
Q 3081 428 3442 575 
Q 3803 722 4122 1019 
L 4122 359 
Q 3791 134 3420 21 
Q 3050 -91 2638 -91 
Q 1578 -91 968 557 
Q 359 1206 359 2328 
Q 359 3453 968 4101 
Q 1578 4750 2638 4750 
Q 3056 4750 3426 4639 
Q 3797 4528 4122 4306 
z
" transform="scale(0.015625)"/>
      <path id="DejaVuSans-76" d="M 191 3500 
L 800 3500 
L 1894 563 
L 2988 3500 
L 3597 3500 
L 2284 0 
L 1503 0 
L 191 3500 
z
" transform="scale(0.015625)"/>
     </defs>
     <use xlink:href="#DejaVuSans-43"/>
     <use xlink:href="#DejaVuSans-61" x="69.824219"/>
     <use xlink:href="#DejaVuSans-6c" x="131.103516"/>
     <use xlink:href="#DejaVuSans-69" x="158.886719"/>
     <use xlink:href="#DejaVuSans-62" x="186.669922"/>
     <use xlink:href="#DejaVuSans-72" x="250.146484"/>
     <use xlink:href="#DejaVuSans-61" x="291.259766"/>
     <use xlink:href="#DejaVuSans-74" x="352.539062"/>
     <use xlink:href="#DejaVuSans-69" x="391.748047"/>
     <use xlink:href="#DejaVuSans-6f" x="419.53125"/>
     <use xlink:href="#DejaVuSans-6e" x="480.712891"/>
     <use xlink:href="#DejaVuSans-20" x="544.091797"/>
     <use xlink:href="#DejaVuSans-43" x="575.878906"/>
     <use xlink:href="#DejaVuSans-75" x="645.703125"/>
     <use xlink:href="#DejaVuSans-72" x="709.082031"/>
     <use xlink:href="#DejaVuSans-76" x="750.195312"/>
     <use xlink:href="#DejaVuSans-65" x="809.375"/>
    </g>
   </g>
  </g>
 </g>
 <defs>
  <clipPath id="p8a1bff13a8">
   <rect x="90" y="51.84" width="558" height="332.64"/>
  </clipPath>
 </defs>
</svg>
