<?xml version="1.0" encoding="utf-8" standalone="no"?>
<!DOCTYPE svg PUBLIC "-//W3C//DTD SVG 1.1//EN"
  "http://www.w3.org/Graphics/SVG/1.1/DTD/svg11.dtd">
<svg xmlns:xlink="http://www.w3.org/1999/xlink" width="864pt" height="504pt" viewBox="0 0 864 504" xmlns="http://www.w3.org/2000/svg" version="1.1">
 <metadata>
  <rdf:RDF xmlns:dc="http://purl.org/dc/elements/1.1/" xmlns:cc="http://creativecommons.org/ns#" xmlns:rdf="http://www.w3.org/1999/02/22-rdf-syntax-ns#">
   <cc:Work>
    <dc:type rdf:resource="http://purl.org/dc/dcmitype/StillImage"/>
    <dc:date>2025-08-08T15:22:44.215493</dc:date>
    <dc:format>image/svg+xml</dc:format>
    <dc:creator>
     <cc:Agent>
      <dc:title>Matplotlib v3.7.5, https://matplotlib.org/</dc:title>
     </cc:Agent>
    </dc:creator>
   </cc:Work>
  </rdf:RDF>
 </metadata>
 <defs>
  <style type="text/css">*{stroke-linejoin: round; stroke-linecap: butt}</style>
 </defs>
 <g id="figure_1">
  <g id="patch_1">
   <path d="M 0 504 
L 864 504 
L 864 0 
L 0 0 
z
" style="fill: #ffffff"/>
  </g>
  <g id="axes_1">
   <g id="patch_2">
    <path d="M 52.85 462.04 
L 809.215 462.04 
L 809.215 29.04 
L 52.85 29.04 
z
" style="fill: #ffffff"/>
   </g>
   <g id="matplotlib.axis_1">
    <g id="xtick_1">
     <g id="line2d_1">
      <path d="M 87.230227 462.04 
L 87.230227 29.04 
" clip-path="url(#p0e8b567e77)" style="fill: none; stroke-dasharray: 2.96,1.28; stroke-dashoffset: 0; stroke: #b0b0b0; stroke-width: 0.8"/>
     </g>
     <g id="line2d_2">
      <defs>
       <path id="m0012c23907" d="M 0 0 
L 0 3.5 
" style="stroke: #000000; stroke-width: 0.8"/>
      </defs>
      <g>
       <use xlink:href="#m0012c23907" x="87.230227" y="462.04" style="stroke: #000000; stroke-width: 0.8"/>
      </g>
     </g>
     <g id="text_1">
      <!-- 0 -->
      <g transform="translate(84.048977 476.638438) scale(0.1 -0.1)">
       <defs>
        <path id="DejaVuSans-30" d="M 2034 4250 
Q 1547 4250 1301 3770 
Q 1056 3291 1056 2328 
Q 1056 1369 1301 889 
Q 1547 409 2034 409 
Q 2525 409 2770 889 
Q 3016 1369 3016 2328 
Q 3016 3291 2770 3770 
Q 2525 4250 2034 4250 
z
M 2034 4750 
Q 2819 4750 3233 4129 
Q 3647 3509 3647 2328 
Q 3647 1150 3233 529 
Q 2819 -91 2034 -91 
Q 1250 -91 836 529 
Q 422 1150 422 2328 
Q 422 3509 836 4129 
Q 1250 4750 2034 4750 
z
" transform="scale(0.015625)"/>
       </defs>
       <use xlink:href="#DejaVuSans-30"/>
      </g>
     </g>
    </g>
    <g id="xtick_2">
     <g id="line2d_3">
      <path d="M 224.751824 462.04 
L 224.751824 29.04 
" clip-path="url(#p0e8b567e77)" style="fill: none; stroke-dasharray: 2.96,1.28; stroke-dashoffset: 0; stroke: #b0b0b0; stroke-width: 0.8"/>
     </g>
     <g id="line2d_4">
      <g>
       <use xlink:href="#m0012c23907" x="224.751824" y="462.04" style="stroke: #000000; stroke-width: 0.8"/>
      </g>
     </g>
     <g id="text_2">
      <!-- 2 -->
      <g transform="translate(221.570574 476.638438) scale(0.1 -0.1)">
       <defs>
        <path id="DejaVuSans-32" d="M 1228 531 
L 3431 531 
L 3431 0 
L 469 0 
L 469 531 
Q 828 903 1448 1529 
Q 2069 2156 2228 2338 
Q 2531 2678 2651 2914 
Q 2772 3150 2772 3378 
Q 2772 3750 2511 3984 
Q 2250 4219 1831 4219 
Q 1534 4219 1204 4116 
Q 875 4013 500 3803 
L 500 4441 
Q 881 4594 1212 4672 
Q 1544 4750 1819 4750 
Q 2544 4750 2975 4387 
Q 3406 4025 3406 3419 
Q 3406 3131 3298 2873 
Q 3191 2616 2906 2266 
Q 2828 2175 2409 1742 
Q 1991 1309 1228 531 
z
" transform="scale(0.015625)"/>
       </defs>
       <use xlink:href="#DejaVuSans-32"/>
      </g>
     </g>
    </g>
    <g id="xtick_3">
     <g id="line2d_5">
      <path d="M 362.273421 462.04 
L 362.273421 29.04 
" clip-path="url(#p0e8b567e77)" style="fill: none; stroke-dasharray: 2.96,1.28; stroke-dashoffset: 0; stroke: #b0b0b0; stroke-width: 0.8"/>
     </g>
     <g id="line2d_6">
      <g>
       <use xlink:href="#m0012c23907" x="362.273421" y="462.04" style="stroke: #000000; stroke-width: 0.8"/>
      </g>
     </g>
     <g id="text_3">
      <!-- 4 -->
      <g transform="translate(359.092171 476.638438) scale(0.1 -0.1)">
       <defs>
        <path id="DejaVuSans-34" d="M 2419 4116 
L 825 1625 
L 2419 1625 
L 2419 4116 
z
M 2253 4666 
L 3047 4666 
L 3047 1625 
L 3713 1625 
L 3713 1100 
L 3047 1100 
L 3047 0 
L 2419 0 
L 2419 1100 
L 313 1100 
L 313 1709 
L 2253 4666 
z
" transform="scale(0.015625)"/>
       </defs>
       <use xlink:href="#DejaVuSans-34"/>
      </g>
     </g>
    </g>
    <g id="xtick_4">
     <g id="line2d_7">
      <path d="M 499.795017 462.04 
L 499.795017 29.04 
" clip-path="url(#p0e8b567e77)" style="fill: none; stroke-dasharray: 2.96,1.28; stroke-dashoffset: 0; stroke: #b0b0b0; stroke-width: 0.8"/>
     </g>
     <g id="line2d_8">
      <g>
       <use xlink:href="#m0012c23907" x="499.795017" y="462.04" style="stroke: #000000; stroke-width: 0.8"/>
      </g>
     </g>
     <g id="text_4">
      <!-- 6 -->
      <g transform="translate(496.613767 476.638438) scale(0.1 -0.1)">
       <defs>
        <path id="DejaVuSans-36" d="M 2113 2584 
Q 1688 2584 1439 2293 
Q 1191 2003 1191 1497 
Q 1191 994 1439 701 
Q 1688 409 2113 409 
Q 2538 409 2786 701 
Q 3034 994 3034 1497 
Q 3034 2003 2786 2293 
Q 2538 2584 2113 2584 
z
M 3366 4563 
L 3366 3988 
Q 3128 4100 2886 4159 
Q 2644 4219 2406 4219 
Q 1781 4219 1451 3797 
Q 1122 3375 1075 2522 
Q 1259 2794 1537 2939 
Q 1816 3084 2150 3084 
Q 2853 3084 3261 2657 
Q 3669 2231 3669 1497 
Q 3669 778 3244 343 
Q 2819 -91 2113 -91 
Q 1303 -91 875 529 
Q 447 1150 447 2328 
Q 447 3434 972 4092 
Q 1497 4750 2381 4750 
Q 2619 4750 2861 4703 
Q 3103 4656 3366 4563 
z
" transform="scale(0.015625)"/>
       </defs>
       <use xlink:href="#DejaVuSans-36"/>
      </g>
     </g>
    </g>
    <g id="xtick_5">
     <g id="line2d_9">
      <path d="M 637.316614 462.04 
L 637.316614 29.04 
" clip-path="url(#p0e8b567e77)" style="fill: none; stroke-dasharray: 2.96,1.28; stroke-dashoffset: 0; stroke: #b0b0b0; stroke-width: 0.8"/>
     </g>
     <g id="line2d_10">
      <g>
       <use xlink:href="#m0012c23907" x="637.316614" y="462.04" style="stroke: #000000; stroke-width: 0.8"/>
      </g>
     </g>
     <g id="text_5">
      <!-- 8 -->
      <g transform="translate(634.135364 476.638438) scale(0.1 -0.1)">
       <defs>
        <path id="DejaVuSans-38" d="M 2034 2216 
Q 1584 2216 1326 1975 
Q 1069 1734 1069 1313 
Q 1069 891 1326 650 
Q 1584 409 2034 409 
Q 2484 409 2743 651 
Q 3003 894 3003 1313 
Q 3003 1734 2745 1975 
Q 2488 2216 2034 2216 
z
M 1403 2484 
Q 997 2584 770 2862 
Q 544 3141 544 3541 
Q 544 4100 942 4425 
Q 1341 4750 2034 4750 
Q 2731 4750 3128 4425 
Q 3525 4100 3525 3541 
Q 3525 3141 3298 2862 
Q 3072 2584 2669 2484 
Q 3125 2378 3379 2068 
Q 3634 1759 3634 1313 
Q 3634 634 3220 271 
Q 2806 -91 2034 -91 
Q 1263 -91 848 271 
Q 434 634 434 1313 
Q 434 1759 690 2068 
Q 947 2378 1403 2484 
z
M 1172 3481 
Q 1172 3119 1398 2916 
Q 1625 2713 2034 2713 
Q 2441 2713 2670 2916 
Q 2900 3119 2900 3481 
Q 2900 3844 2670 4047 
Q 2441 4250 2034 4250 
Q 1625 4250 1398 4047 
Q 1172 3844 1172 3481 
z
" transform="scale(0.015625)"/>
       </defs>
       <use xlink:href="#DejaVuSans-38"/>
      </g>
     </g>
    </g>
    <g id="xtick_6">
     <g id="line2d_11">
      <path d="M 774.838211 462.04 
L 774.838211 29.04 
" clip-path="url(#p0e8b567e77)" style="fill: none; stroke-dasharray: 2.96,1.28; stroke-dashoffset: 0; stroke: #b0b0b0; stroke-width: 0.8"/>
     </g>
     <g id="line2d_12">
      <g>
       <use xlink:href="#m0012c23907" x="774.838211" y="462.04" style="stroke: #000000; stroke-width: 0.8"/>
      </g>
     </g>
     <g id="text_6">
      <!-- 10 -->
      <g transform="translate(768.475711 476.638438) scale(0.1 -0.1)">
       <defs>
        <path id="DejaVuSans-31" d="M 794 531 
L 1825 531 
L 1825 4091 
L 703 3866 
L 703 4441 
L 1819 4666 
L 2450 4666 
L 2450 531 
L 3481 531 
L 3481 0 
L 794 0 
L 794 531 
z
" transform="scale(0.015625)"/>
       </defs>
       <use xlink:href="#DejaVuSans-31"/>
       <use xlink:href="#DejaVuSans-30" x="63.623047"/>
      </g>
     </g>
    </g>
    <g id="text_7">
     <!-- Time (s) -->
     <g transform="translate(410.703594 490.316563) scale(0.1 -0.1)">
      <defs>
       <path id="DejaVuSans-54" d="M -19 4666 
L 3928 4666 
L 3928 4134 
L 2272 4134 
L 2272 0 
L 1638 0 
L 1638 4134 
L -19 4134 
L -19 4666 
z
" transform="scale(0.015625)"/>
       <path id="DejaVuSans-69" d="M 603 3500 
L 1178 3500 
L 1178 0 
L 603 0 
L 603 3500 
z
M 603 4863 
L 1178 4863 
L 1178 4134 
L 603 4134 
L 603 4863 
z
" transform="scale(0.015625)"/>
       <path id="DejaVuSans-6d" d="M 3328 2828 
Q 3544 3216 3844 3400 
Q 4144 3584 4550 3584 
Q 5097 3584 5394 3201 
Q 5691 2819 5691 2113 
L 5691 0 
L 5113 0 
L 5113 2094 
Q 5113 2597 4934 2840 
Q 4756 3084 4391 3084 
Q 3944 3084 3684 2787 
Q 3425 2491 3425 1978 
L 3425 0 
L 2847 0 
L 2847 2094 
Q 2847 2600 2669 2842 
Q 2491 3084 2119 3084 
Q 1678 3084 1418 2786 
Q 1159 2488 1159 1978 
L 1159 0 
L 581 0 
L 581 3500 
L 1159 3500 
L 1159 2956 
Q 1356 3278 1631 3431 
Q 1906 3584 2284 3584 
Q 2666 3584 2933 3390 
Q 3200 3197 3328 2828 
z
" transform="scale(0.015625)"/>
       <path id="DejaVuSans-65" d="M 3597 1894 
L 3597 1613 
L 953 1613 
Q 991 1019 1311 708 
Q 1631 397 2203 397 
Q 2534 397 2845 478 
Q 3156 559 3463 722 
L 3463 178 
Q 3153 47 2828 -22 
Q 2503 -91 2169 -91 
Q 1331 -91 842 396 
Q 353 884 353 1716 
Q 353 2575 817 3079 
Q 1281 3584 2069 3584 
Q 2775 3584 3186 3129 
Q 3597 2675 3597 1894 
z
M 3022 2063 
Q 3016 2534 2758 2815 
Q 2500 3097 2075 3097 
Q 1594 3097 1305 2825 
Q 1016 2553 972 2059 
L 3022 2063 
z
" transform="scale(0.015625)"/>
       <path id="DejaVuSans-20" transform="scale(0.015625)"/>
       <path id="DejaVuSans-28" d="M 1984 4856 
Q 1566 4138 1362 3434 
Q 1159 2731 1159 2009 
Q 1159 1288 1364 580 
Q 1569 -128 1984 -844 
L 1484 -844 
Q 1016 -109 783 600 
Q 550 1309 550 2009 
Q 550 2706 781 3412 
Q 1013 4119 1484 4856 
L 1984 4856 
z
" transform="scale(0.015625)"/>
       <path id="DejaVuSans-73" d="M 2834 3397 
L 2834 2853 
Q 2591 2978 2328 3040 
Q 2066 3103 1784 3103 
Q 1356 3103 1142 2972 
Q 928 2841 928 2578 
Q 928 2378 1081 2264 
Q 1234 2150 1697 2047 
L 1894 2003 
Q 2506 1872 2764 1633 
Q 3022 1394 3022 966 
Q 3022 478 2636 193 
Q 2250 -91 1575 -91 
Q 1294 -91 989 -36 
Q 684 19 347 128 
L 347 722 
Q 666 556 975 473 
Q 1284 391 1588 391 
Q 1994 391 2212 530 
Q 2431 669 2431 922 
Q 2431 1156 2273 1281 
Q 2116 1406 1581 1522 
L 1381 1569 
Q 847 1681 609 1914 
Q 372 2147 372 2553 
Q 372 3047 722 3315 
Q 1072 3584 1716 3584 
Q 2034 3584 2315 3537 
Q 2597 3491 2834 3397 
z
" transform="scale(0.015625)"/>
       <path id="DejaVuSans-29" d="M 513 4856 
L 1013 4856 
Q 1481 4119 1714 3412 
Q 1947 2706 1947 2009 
Q 1947 1309 1714 600 
Q 1481 -109 1013 -844 
L 513 -844 
Q 928 -128 1133 580 
Q 1338 1288 1338 2009 
Q 1338 2731 1133 3434 
Q 928 4138 513 4856 
z
" transform="scale(0.015625)"/>
      </defs>
      <use xlink:href="#DejaVuSans-54"/>
      <use xlink:href="#DejaVuSans-69" x="57.958984"/>
      <use xlink:href="#DejaVuSans-6d" x="85.742188"/>
      <use xlink:href="#DejaVuSans-65" x="183.154297"/>
      <use xlink:href="#DejaVuSans-20" x="244.677734"/>
      <use xlink:href="#DejaVuSans-28" x="276.464844"/>
      <use xlink:href="#DejaVuSans-73" x="315.478516"/>
      <use xlink:href="#DejaVuSans-29" x="367.578125"/>
     </g>
    </g>
   </g>
   <g id="matplotlib.axis_2">
    <g id="ytick_1">
     <g id="line2d_13">
      <path d="M 52.85 426.498458 
L 809.215 426.498458 
" clip-path="url(#p0e8b567e77)" style="fill: none; stroke-dasharray: 2.96,1.28; stroke-dashoffset: 0; stroke: #b0b0b0; stroke-width: 0.8"/>
     </g>
     <g id="line2d_14">
      <defs>
       <path id="m3f7d8030a5" d="M 0 0 
L -3.5 0 
" style="stroke: #000000; stroke-width: 0.8"/>
      </defs>
      <g>
       <use xlink:href="#m3f7d8030a5" x="52.85" y="426.498458" style="stroke: #000000; stroke-width: 0.8"/>
      </g>
     </g>
     <g id="text_8">
      <!-- 390 -->
      <g style="fill: #1f77b4" transform="translate(26.7625 430.297677) scale(0.1 -0.1)">
       <defs>
        <path id="DejaVuSans-33" d="M 2597 2516 
Q 3050 2419 3304 2112 
Q 3559 1806 3559 1356 
Q 3559 666 3084 287 
Q 2609 -91 1734 -91 
Q 1441 -91 1130 -33 
Q 819 25 488 141 
L 488 750 
Q 750 597 1062 519 
Q 1375 441 1716 441 
Q 2309 441 2620 675 
Q 2931 909 2931 1356 
Q 2931 1769 2642 2001 
Q 2353 2234 1838 2234 
L 1294 2234 
L 1294 2753 
L 1863 2753 
Q 2328 2753 2575 2939 
Q 2822 3125 2822 3475 
Q 2822 3834 2567 4026 
Q 2313 4219 1838 4219 
Q 1578 4219 1281 4162 
Q 984 4106 628 3988 
L 628 4550 
Q 988 4650 1302 4700 
Q 1616 4750 1894 4750 
Q 2613 4750 3031 4423 
Q 3450 4097 3450 3541 
Q 3450 3153 3228 2886 
Q 3006 2619 2597 2516 
z
" transform="scale(0.015625)"/>
        <path id="DejaVuSans-39" d="M 703 97 
L 703 672 
Q 941 559 1184 500 
Q 1428 441 1663 441 
Q 2288 441 2617 861 
Q 2947 1281 2994 2138 
Q 2813 1869 2534 1725 
Q 2256 1581 1919 1581 
Q 1219 1581 811 2004 
Q 403 2428 403 3163 
Q 403 3881 828 4315 
Q 1253 4750 1959 4750 
Q 2769 4750 3195 4129 
Q 3622 3509 3622 2328 
Q 3622 1225 3098 567 
Q 2575 -91 1691 -91 
Q 1453 -91 1209 -44 
Q 966 3 703 97 
z
M 1959 2075 
Q 2384 2075 2632 2365 
Q 2881 2656 2881 3163 
Q 2881 3666 2632 3958 
Q 2384 4250 1959 4250 
Q 1534 4250 1286 3958 
Q 1038 3666 1038 3163 
Q 1038 2656 1286 2365 
Q 1534 2075 1959 2075 
z
" transform="scale(0.015625)"/>
       </defs>
       <use xlink:href="#DejaVuSans-33"/>
       <use xlink:href="#DejaVuSans-39" x="63.623047"/>
       <use xlink:href="#DejaVuSans-30" x="127.246094"/>
      </g>
     </g>
    </g>
    <g id="ytick_2">
     <g id="line2d_15">
      <path d="M 52.85 377.293913 
L 809.215 377.293913 
" clip-path="url(#p0e8b567e77)" style="fill: none; stroke-dasharray: 2.96,1.28; stroke-dashoffset: 0; stroke: #b0b0b0; stroke-width: 0.8"/>
     </g>
     <g id="line2d_16">
      <g>
       <use xlink:href="#m3f7d8030a5" x="52.85" y="377.293913" style="stroke: #000000; stroke-width: 0.8"/>
      </g>
     </g>
     <g id="text_9">
      <!-- 395 -->
      <g style="fill: #1f77b4" transform="translate(26.7625 381.093132) scale(0.1 -0.1)">
       <defs>
        <path id="DejaVuSans-35" d="M 691 4666 
L 3169 4666 
L 3169 4134 
L 1269 4134 
L 1269 2991 
Q 1406 3038 1543 3061 
Q 1681 3084 1819 3084 
Q 2600 3084 3056 2656 
Q 3513 2228 3513 1497 
Q 3513 744 3044 326 
Q 2575 -91 1722 -91 
Q 1428 -91 1123 -41 
Q 819 9 494 109 
L 494 744 
Q 775 591 1075 516 
Q 1375 441 1709 441 
Q 2250 441 2565 725 
Q 2881 1009 2881 1497 
Q 2881 1984 2565 2268 
Q 2250 2553 1709 2553 
Q 1456 2553 1204 2497 
Q 953 2441 691 2322 
L 691 4666 
z
" transform="scale(0.015625)"/>
       </defs>
       <use xlink:href="#DejaVuSans-33"/>
       <use xlink:href="#DejaVuSans-39" x="63.623047"/>
       <use xlink:href="#DejaVuSans-35" x="127.246094"/>
      </g>
     </g>
    </g>
    <g id="ytick_3">
     <g id="line2d_17">
      <path d="M 52.85 328.089368 
L 809.215 328.089368 
" clip-path="url(#p0e8b567e77)" style="fill: none; stroke-dasharray: 2.96,1.28; stroke-dashoffset: 0; stroke: #b0b0b0; stroke-width: 0.8"/>
     </g>
     <g id="line2d_18">
      <g>
       <use xlink:href="#m3f7d8030a5" x="52.85" y="328.089368" style="stroke: #000000; stroke-width: 0.8"/>
      </g>
     </g>
     <g id="text_10">
      <!-- 400 -->
      <g style="fill: #1f77b4" transform="translate(26.7625 331.888586) scale(0.1 -0.1)">
       <use xlink:href="#DejaVuSans-34"/>
       <use xlink:href="#DejaVuSans-30" x="63.623047"/>
       <use xlink:href="#DejaVuSans-30" x="127.246094"/>
      </g>
     </g>
    </g>
    <g id="ytick_4">
     <g id="line2d_19">
      <path d="M 52.85 278.884822 
L 809.215 278.884822 
" clip-path="url(#p0e8b567e77)" style="fill: none; stroke-dasharray: 2.96,1.28; stroke-dashoffset: 0; stroke: #b0b0b0; stroke-width: 0.8"/>
     </g>
     <g id="line2d_20">
      <g>
       <use xlink:href="#m3f7d8030a5" x="52.85" y="278.884822" style="stroke: #000000; stroke-width: 0.8"/>
      </g>
     </g>
     <g id="text_11">
      <!-- 405 -->
      <g style="fill: #1f77b4" transform="translate(26.7625 282.684041) scale(0.1 -0.1)">
       <use xlink:href="#DejaVuSans-34"/>
       <use xlink:href="#DejaVuSans-30" x="63.623047"/>
       <use xlink:href="#DejaVuSans-35" x="127.246094"/>
      </g>
     </g>
    </g>
    <g id="ytick_5">
     <g id="line2d_21">
      <path d="M 52.85 229.680277 
L 809.215 229.680277 
" clip-path="url(#p0e8b567e77)" style="fill: none; stroke-dasharray: 2.96,1.28; stroke-dashoffset: 0; stroke: #b0b0b0; stroke-width: 0.8"/>
     </g>
     <g id="line2d_22">
      <g>
       <use xlink:href="#m3f7d8030a5" x="52.85" y="229.680277" style="stroke: #000000; stroke-width: 0.8"/>
      </g>
     </g>
     <g id="text_12">
      <!-- 410 -->
      <g style="fill: #1f77b4" transform="translate(26.7625 233.479495) scale(0.1 -0.1)">
       <use xlink:href="#DejaVuSans-34"/>
       <use xlink:href="#DejaVuSans-31" x="63.623047"/>
       <use xlink:href="#DejaVuSans-30" x="127.246094"/>
      </g>
     </g>
    </g>
    <g id="ytick_6">
     <g id="line2d_23">
      <path d="M 52.85 180.475731 
L 809.215 180.475731 
" clip-path="url(#p0e8b567e77)" style="fill: none; stroke-dasharray: 2.96,1.28; stroke-dashoffset: 0; stroke: #b0b0b0; stroke-width: 0.8"/>
     </g>
     <g id="line2d_24">
      <g>
       <use xlink:href="#m3f7d8030a5" x="52.85" y="180.475731" style="stroke: #000000; stroke-width: 0.8"/>
      </g>
     </g>
     <g id="text_13">
      <!-- 415 -->
      <g style="fill: #1f77b4" transform="translate(26.7625 184.27495) scale(0.1 -0.1)">
       <use xlink:href="#DejaVuSans-34"/>
       <use xlink:href="#DejaVuSans-31" x="63.623047"/>
       <use xlink:href="#DejaVuSans-35" x="127.246094"/>
      </g>
     </g>
    </g>
    <g id="ytick_7">
     <g id="line2d_25">
      <path d="M 52.85 131.271186 
L 809.215 131.271186 
" clip-path="url(#p0e8b567e77)" style="fill: none; stroke-dasharray: 2.96,1.28; stroke-dashoffset: 0; stroke: #b0b0b0; stroke-width: 0.8"/>
     </g>
     <g id="line2d_26">
      <g>
       <use xlink:href="#m3f7d8030a5" x="52.85" y="131.271186" style="stroke: #000000; stroke-width: 0.8"/>
      </g>
     </g>
     <g id="text_14">
      <!-- 420 -->
      <g style="fill: #1f77b4" transform="translate(26.7625 135.070404) scale(0.1 -0.1)">
       <use xlink:href="#DejaVuSans-34"/>
       <use xlink:href="#DejaVuSans-32" x="63.623047"/>
       <use xlink:href="#DejaVuSans-30" x="127.246094"/>
      </g>
     </g>
    </g>
    <g id="ytick_8">
     <g id="line2d_27">
      <path d="M 52.85 82.06664 
L 809.215 82.06664 
" clip-path="url(#p0e8b567e77)" style="fill: none; stroke-dasharray: 2.96,1.28; stroke-dashoffset: 0; stroke: #b0b0b0; stroke-width: 0.8"/>
     </g>
     <g id="line2d_28">
      <g>
       <use xlink:href="#m3f7d8030a5" x="52.85" y="82.06664" style="stroke: #000000; stroke-width: 0.8"/>
      </g>
     </g>
     <g id="text_15">
      <!-- 425 -->
      <g style="fill: #1f77b4" transform="translate(26.7625 85.865859) scale(0.1 -0.1)">
       <use xlink:href="#DejaVuSans-34"/>
       <use xlink:href="#DejaVuSans-32" x="63.623047"/>
       <use xlink:href="#DejaVuSans-35" x="127.246094"/>
      </g>
     </g>
    </g>
    <g id="ytick_9">
     <g id="line2d_29">
      <path d="M 52.85 32.862095 
L 809.215 32.862095 
" clip-path="url(#p0e8b567e77)" style="fill: none; stroke-dasharray: 2.96,1.28; stroke-dashoffset: 0; stroke: #b0b0b0; stroke-width: 0.8"/>
     </g>
     <g id="line2d_30">
      <g>
       <use xlink:href="#m3f7d8030a5" x="52.85" y="32.862095" style="stroke: #000000; stroke-width: 0.8"/>
      </g>
     </g>
     <g id="text_16">
      <!-- 430 -->
      <g style="fill: #1f77b4" transform="translate(26.7625 36.661314) scale(0.1 -0.1)">
       <use xlink:href="#DejaVuSans-34"/>
       <use xlink:href="#DejaVuSans-33" x="63.623047"/>
       <use xlink:href="#DejaVuSans-30" x="127.246094"/>
      </g>
     </g>
    </g>
    <g id="text_17">
     <!-- Displacement (µm) -->
     <g style="fill: #1f77b4" transform="translate(20.266875 303.037812) rotate(-90) scale(0.12 -0.12)">
      <defs>
       <path id="DejaVuSans-44" d="M 1259 4147 
L 1259 519 
L 2022 519 
Q 2988 519 3436 956 
Q 3884 1394 3884 2338 
Q 3884 3275 3436 3711 
Q 2988 4147 2022 4147 
L 1259 4147 
z
M 628 4666 
L 1925 4666 
Q 3281 4666 3915 4102 
Q 4550 3538 4550 2338 
Q 4550 1131 3912 565 
Q 3275 0 1925 0 
L 628 0 
L 628 4666 
z
" transform="scale(0.015625)"/>
       <path id="DejaVuSans-70" d="M 1159 525 
L 1159 -1331 
L 581 -1331 
L 581 3500 
L 1159 3500 
L 1159 2969 
Q 1341 3281 1617 3432 
Q 1894 3584 2278 3584 
Q 2916 3584 3314 3078 
Q 3713 2572 3713 1747 
Q 3713 922 3314 415 
Q 2916 -91 2278 -91 
Q 1894 -91 1617 61 
Q 1341 213 1159 525 
z
M 3116 1747 
Q 3116 2381 2855 2742 
Q 2594 3103 2138 3103 
Q 1681 3103 1420 2742 
Q 1159 2381 1159 1747 
Q 1159 1113 1420 752 
Q 1681 391 2138 391 
Q 2594 391 2855 752 
Q 3116 1113 3116 1747 
z
" transform="scale(0.015625)"/>
       <path id="DejaVuSans-6c" d="M 603 4863 
L 1178 4863 
L 1178 0 
L 603 0 
L 603 4863 
z
" transform="scale(0.015625)"/>
       <path id="DejaVuSans-61" d="M 2194 1759 
Q 1497 1759 1228 1600 
Q 959 1441 959 1056 
Q 959 750 1161 570 
Q 1363 391 1709 391 
Q 2188 391 2477 730 
Q 2766 1069 2766 1631 
L 2766 1759 
L 2194 1759 
z
M 3341 1997 
L 3341 0 
L 2766 0 
L 2766 531 
Q 2569 213 2275 61 
Q 1981 -91 1556 -91 
Q 1019 -91 701 211 
Q 384 513 384 1019 
Q 384 1609 779 1909 
Q 1175 2209 1959 2209 
L 2766 2209 
L 2766 2266 
Q 2766 2663 2505 2880 
Q 2244 3097 1772 3097 
Q 1472 3097 1187 3025 
Q 903 2953 641 2809 
L 641 3341 
Q 956 3463 1253 3523 
Q 1550 3584 1831 3584 
Q 2591 3584 2966 3190 
Q 3341 2797 3341 1997 
z
" transform="scale(0.015625)"/>
       <path id="DejaVuSans-63" d="M 3122 3366 
L 3122 2828 
Q 2878 2963 2633 3030 
Q 2388 3097 2138 3097 
Q 1578 3097 1268 2742 
Q 959 2388 959 1747 
Q 959 1106 1268 751 
Q 1578 397 2138 397 
Q 2388 397 2633 464 
Q 2878 531 3122 666 
L 3122 134 
Q 2881 22 2623 -34 
Q 2366 -91 2075 -91 
Q 1284 -91 818 406 
Q 353 903 353 1747 
Q 353 2603 823 3093 
Q 1294 3584 2113 3584 
Q 2378 3584 2631 3529 
Q 2884 3475 3122 3366 
z
" transform="scale(0.015625)"/>
       <path id="DejaVuSans-6e" d="M 3513 2113 
L 3513 0 
L 2938 0 
L 2938 2094 
Q 2938 2591 2744 2837 
Q 2550 3084 2163 3084 
Q 1697 3084 1428 2787 
Q 1159 2491 1159 1978 
L 1159 0 
L 581 0 
L 581 3500 
L 1159 3500 
L 1159 2956 
Q 1366 3272 1645 3428 
Q 1925 3584 2291 3584 
Q 2894 3584 3203 3211 
Q 3513 2838 3513 2113 
z
" transform="scale(0.015625)"/>
       <path id="DejaVuSans-74" d="M 1172 4494 
L 1172 3500 
L 2356 3500 
L 2356 3053 
L 1172 3053 
L 1172 1153 
Q 1172 725 1289 603 
Q 1406 481 1766 481 
L 2356 481 
L 2356 0 
L 1766 0 
Q 1100 0 847 248 
Q 594 497 594 1153 
L 594 3053 
L 172 3053 
L 172 3500 
L 594 3500 
L 594 4494 
L 1172 4494 
z
" transform="scale(0.015625)"/>
       <path id="DejaVuSans-b5" d="M 544 -1331 
L 544 3500 
L 1119 3500 
L 1119 1325 
Q 1119 872 1334 640 
Q 1550 409 1972 409 
Q 2434 409 2667 671 
Q 2900 934 2900 1459 
L 2900 3500 
L 3475 3500 
L 3475 806 
Q 3475 619 3529 530 
Q 3584 441 3700 441 
Q 3728 441 3778 458 
Q 3828 475 3916 513 
L 3916 50 
Q 3788 -22 3673 -56 
Q 3559 -91 3450 -91 
Q 3234 -91 3106 31 
Q 2978 153 2931 403 
Q 2775 156 2548 32 
Q 2322 -91 2016 -91 
Q 1697 -91 1473 31 
Q 1250 153 1119 397 
L 1119 -1331 
L 544 -1331 
z
" transform="scale(0.015625)"/>
      </defs>
      <use xlink:href="#DejaVuSans-44"/>
      <use xlink:href="#DejaVuSans-69" x="77.001953"/>
      <use xlink:href="#DejaVuSans-73" x="104.785156"/>
      <use xlink:href="#DejaVuSans-70" x="156.884766"/>
      <use xlink:href="#DejaVuSans-6c" x="220.361328"/>
      <use xlink:href="#DejaVuSans-61" x="248.144531"/>
      <use xlink:href="#DejaVuSans-63" x="309.423828"/>
      <use xlink:href="#DejaVuSans-65" x="364.404297"/>
      <use xlink:href="#DejaVuSans-6d" x="425.927734"/>
      <use xlink:href="#DejaVuSans-65" x="523.339844"/>
      <use xlink:href="#DejaVuSans-6e" x="584.863281"/>
      <use xlink:href="#DejaVuSans-74" x="648.242188"/>
      <use xlink:href="#DejaVuSans-20" x="687.451172"/>
      <use xlink:href="#DejaVuSans-28" x="719.238281"/>
      <use xlink:href="#DejaVuSans-b5" x="758.251953"/>
      <use xlink:href="#DejaVuSans-6d" x="821.875"/>
      <use xlink:href="#DejaVuSans-29" x="919.287109"/>
     </g>
    </g>
   </g>
   <g id="line2d_31">
    <path d="M 87.230227 442.356711 
L 95.278679 442.238622 
L 97.692183 441.986521 
L 99.301185 441.603256 
L 100.55607 441.080344 
L 101.621862 440.396081 
L 102.581076 439.512735 
L 103.481842 438.373424 
L 104.351666 436.904131 
L 105.211176 435.00152 
L 106.074124 432.53114 
L 106.947386 429.331519 
L 107.841277 425.175218 
L 108.755795 419.822812 
L 109.701256 412.913408 
L 110.681098 404.044007 
L 111.705633 392.655672 
L 112.78174 378.107505 
L 113.926607 359.488906 
L 115.164302 335.583795 
L 116.542956 304.454589 
L 118.179463 262.167351 
L 120.764869 188.585646 
L 123.092422 124.7575 
L 124.440133 93.602426 
L 125.495612 73.997211 
L 126.35856 61.796035 
L 127.066796 54.652779 
L 127.640948 50.87845 
L 128.084456 49.237471 
L 128.404193 48.752831 
L 128.617352 48.756157 
L 128.83051 49.020584 
L 129.115868 49.782153 
L 129.494052 51.505391 
L 129.97194 54.829558 
L 130.559844 60.625814 
L 131.268081 69.986463 
L 132.120714 84.422072 
L 133.155564 105.971039 
L 134.47921 138.53007 
L 136.538596 195.471356 
L 139.550319 277.856153 
L 141.149007 315.440338 
L 142.507033 342.379413 
L 143.724099 362.307735 
L 144.838024 377.076333 
L 145.869436 387.944118 
L 146.825211 395.792548 
L 147.712226 401.34295 
L 148.527041 405.122081 
L 149.269658 407.582789 
L 149.933199 409.071467 
L 150.517666 409.883383 
L 151.029934 410.246111 
L 151.497507 410.316934 
L 151.965081 410.159371 
L 152.487663 409.735145 
L 153.10651 408.924701 
L 153.845689 407.564788 
L 154.736141 405.429688 
L 155.801933 402.261746 
L 157.077446 397.73475 
L 158.600498 391.467211 
L 160.422659 382.98065 
L 162.643633 371.521659 
L 165.63129 354.838493 
L 171.940093 319.326057 
L 174.054487 308.878489 
L 175.776945 301.435275 
L 177.244988 296.028436 
L 178.523939 292.121405 
L 179.648178 289.361735 
L 180.638334 287.485683 
L 181.511596 286.279024 
L 182.281717 285.571819 
L 182.969325 285.22711 
L 183.605362 285.150759 
L 184.227647 285.301975 
L 184.877437 285.697644 
L 185.585673 286.403402 
L 186.372984 287.519317 
L 187.256561 289.177935 
L 188.250154 291.539202 
L 189.374393 294.813466 
L 190.646468 299.235893 
L 192.104197 305.14713 
L 193.806027 313.023173 
L 195.886041 323.763343 
L 198.801499 340.104153 
L 205.044979 375.33839 
L 207.540996 387.975683 
L 209.700085 397.797645 
L 211.666644 405.740854 
L 213.505995 412.272739 
L 215.25252 417.678538 
L 216.930283 422.168617 
L 218.556476 425.902659 
L 220.14485 429.007894 
L 221.712597 431.595914 
L 223.270029 433.747218 
L 224.837775 435.540265 
L 226.433025 437.03159 
L 228.083285 438.272355 
L 229.819495 439.300277 
L 231.689789 440.147786 
L 233.756051 440.836719 
L 236.114546 441.383662 
L 238.930301 441.800748 
L 242.516176 442.095796 
L 247.638856 442.275793 
L 257.241301 442.350936 
L 317.585778 442.358182 
L 370.170598 442.247142 
L 372.645987 442.001266 
L 374.275618 441.625206 
L 375.540817 441.110647 
L 376.613485 440.435638 
L 377.576136 439.564417 
L 378.476903 438.443308 
L 379.350165 436.989937 
L 380.213113 435.104637 
L 381.076061 432.663818 
L 381.949323 429.500595 
L 382.839775 425.40677 
L 383.754294 420.113144 
L 384.696317 413.302358 
L 385.676158 404.523924 
L 386.697256 393.284408 
L 387.769925 378.919059 
L 388.911354 360.520359 
L 390.14561 336.872035 
L 391.517388 306.112989 
L 393.136705 264.506946 
L 395.594904 194.732573 
L 398.087482 125.973078 
L 399.448946 94.318769 
L 400.507863 74.501899 
L 401.374249 62.127102 
L 402.089361 54.822491 
L 402.666952 50.964578 
L 403.113897 49.271476 
L 403.437073 48.759296 
L 403.650231 48.749982 
L 403.859952 48.995654 
L 404.141871 49.723109 
L 404.513179 51.371658 
L 404.984191 54.576115 
L 405.565219 60.197748 
L 406.266579 69.322291 
L 407.108899 83.393937 
L 408.133435 104.496089 
L 409.433014 136.193638 
L 411.403011 190.396445 
L 414.624454 278.636887 
L 416.219705 316.03372 
L 417.574293 342.812414 
L 418.787921 362.611004 
L 419.901846 377.319488 
L 420.933258 388.13535 
L 421.889033 395.939877 
L 422.772609 401.43521 
L 423.587425 405.189221 
L 424.326603 407.620177 
L 424.990145 409.095747 
L 425.574612 409.897235 
L 426.08688 410.251632 
L 426.551015 410.315853 
L 427.022026 410.151468 
L 427.548047 409.716999 
L 428.170332 408.892318 
L 428.916386 407.506604 
L 429.810277 405.346634 
L 430.882945 402.138376 
L 432.165334 397.563314 
L 433.6987 391.2256 
L 435.531175 382.659445 
L 437.769339 371.077114 
L 440.80169 354.108951 
L 446.893897 319.793584 
L 449.02892 309.197435 
L 450.761692 301.669397 
L 452.240049 296.190617 
L 453.525876 292.234978 
L 454.656991 289.436356 
L 455.650585 287.53622 
L 456.527285 286.310508 
L 457.300844 285.5888 
L 457.988452 285.234581 
L 458.624489 285.149398 
L 459.246775 285.291978 
L 459.893126 285.675993 
L 460.597924 286.366632 
L 461.381797 287.463392 
L 462.261936 289.098309 
L 463.252091 291.430998 
L 464.369454 294.660707 
L 465.634653 299.029808 
L 467.082068 304.864584 
L 468.773583 312.653637 
L 470.832969 323.244801 
L 473.68998 339.215678 
L 480.208504 375.975269 
L 482.683893 388.453306 
L 484.832668 398.179924 
L 486.79235 406.052522 
L 488.628264 412.534103 
L 490.37135 417.895514 
L 492.045675 422.346976 
L 493.671868 426.055061 
L 495.260243 429.137105 
L 496.827989 431.704506 
L 498.385421 433.837623 
L 499.953167 435.614648 
L 501.551856 437.094789 
L 503.205553 438.324958 
L 504.948639 439.3447 
L 506.825809 440.183835 
L 508.902385 440.865435 
L 511.278071 441.406084 
L 514.12133 441.817295 
L 517.755338 442.106724 
L 522.988035 442.281535 
L 533.013359 442.352239 
L 605.074676 442.358182 
L 645.213792 442.247142 
L 647.68918 442.001266 
L 649.318811 441.625206 
L 650.58401 441.110647 
L 651.656679 440.435638 
L 652.61933 439.564417 
L 653.520096 438.443308 
L 654.393358 436.989937 
L 655.256306 435.104637 
L 656.119254 432.663818 
L 656.992517 429.500595 
L 657.882969 425.40677 
L 658.797487 420.113144 
L 659.73951 413.302358 
L 660.719352 404.523924 
L 661.74045 393.284408 
L 662.813118 378.919059 
L 663.954547 360.520359 
L 665.188804 336.872035 
L 666.560582 306.112989 
L 668.179898 264.506946 
L 670.638097 194.732573 
L 673.130676 125.973078 
L 674.49214 94.318769 
L 675.551056 74.501899 
L 676.417442 62.127102 
L 677.132554 54.822491 
L 677.710145 50.964578 
L 678.15709 49.271476 
L 678.480266 48.759296 
L 678.693424 48.749982 
L 678.903145 48.995654 
L 679.185064 49.723109 
L 679.556372 51.371658 
L 680.027384 54.576115 
L 680.608413 60.197748 
L 681.309773 69.322291 
L 682.152093 83.393937 
L 683.176629 104.496089 
L 684.476208 136.193638 
L 686.446204 190.396445 
L 689.667648 278.636887 
L 691.262898 316.03372 
L 692.617486 342.812414 
L 693.831114 362.611004 
L 694.945039 377.319488 
L 695.976451 388.13535 
L 696.932226 395.939877 
L 697.815802 401.43521 
L 698.630618 405.189221 
L 699.369797 407.620177 
L 700.033338 409.095747 
L 700.617805 409.897235 
L 701.130073 410.251632 
L 701.594208 410.315853 
L 702.06522 410.151468 
L 702.59124 409.716999 
L 703.213525 408.892318 
L 703.95958 407.506604 
L 704.85347 405.346634 
L 705.926139 402.138376 
L 707.208528 397.563314 
L 708.741893 391.2256 
L 710.574369 382.659445 
L 712.812533 371.077114 
L 715.844884 354.108951 
L 721.937091 319.793584 
L 724.072113 309.197435 
L 725.804885 301.669397 
L 727.283243 296.190617 
L 728.56907 292.234978 
L 729.700185 289.436356 
L 730.693778 287.53622 
L 731.570478 286.310508 
L 732.344037 285.5888 
L 733.031645 285.234581 
L 733.667683 285.149398 
L 734.289968 285.291978 
L 734.936319 285.675993 
L 735.641118 286.366632 
L 736.424991 287.463392 
L 737.305129 289.098309 
L 738.295284 291.430998 
L 739.412647 294.660707 
L 740.677846 299.029808 
L 742.125261 304.864584 
L 743.816777 312.653637 
L 745.876163 323.244801 
L 748.733174 339.215678 
L 755.251697 375.975269 
L 757.727086 388.453306 
L 759.875861 398.179924 
L 761.835544 406.052522 
L 763.671457 412.534103 
L 765.414543 417.895514 
L 767.088869 422.346976 
L 768.715062 426.055061 
L 770.303436 429.137105 
L 771.871182 431.704506 
L 773.428614 433.837623 
L 774.834773 435.447218 
L 774.834773 435.447218 
" clip-path="url(#p0e8b567e77)" style="fill: none; stroke: #1f77b4; stroke-width: 1.5; stroke-linecap: square"/>
   </g>
   <g id="patch_3">
    <path d="M 52.85 462.04 
L 52.85 29.04 
" style="fill: none; stroke: #000000; stroke-width: 0.8; stroke-linejoin: miter; stroke-linecap: square"/>
   </g>
   <g id="patch_4">
    <path d="M 809.215 462.04 
L 809.215 29.04 
" style="fill: none; stroke: #000000; stroke-width: 0.8; stroke-linejoin: miter; stroke-linecap: square"/>
   </g>
   <g id="patch_5">
    <path d="M 52.85 462.04 
L 809.215 462.04 
" style="fill: none; stroke: #000000; stroke-width: 0.8; stroke-linejoin: miter; stroke-linecap: square"/>
   </g>
   <g id="patch_6">
    <path d="M 52.85 29.04 
L 809.215 29.04 
" style="fill: none; stroke: #000000; stroke-width: 0.8; stroke-linejoin: miter; stroke-linecap: square"/>
   </g>
   <g id="text_18">
    <!-- Input Pulse vs. Output Power -->
    <g transform="translate(315.665 23.04) scale(0.16 -0.16)">
     <defs>
      <path id="DejaVuSans-49" d="M 628 4666 
L 1259 4666 
L 1259 0 
L 628 0 
L 628 4666 
z
" transform="scale(0.015625)"/>
      <path id="DejaVuSans-75" d="M 544 1381 
L 544 3500 
L 1119 3500 
L 1119 1403 
Q 1119 906 1312 657 
Q 1506 409 1894 409 
Q 2359 409 2629 706 
Q 2900 1003 2900 1516 
L 2900 3500 
L 3475 3500 
L 3475 0 
L 2900 0 
L 2900 538 
Q 2691 219 2414 64 
Q 2138 -91 1772 -91 
Q 1169 -91 856 284 
Q 544 659 544 1381 
z
M 1991 3584 
L 1991 3584 
z
" transform="scale(0.015625)"/>
      <path id="DejaVuSans-50" d="M 1259 4147 
L 1259 2394 
L 2053 2394 
Q 2494 2394 2734 2622 
Q 2975 2850 2975 3272 
Q 2975 3691 2734 3919 
Q 2494 4147 2053 4147 
L 1259 4147 
z
M 628 4666 
L 2053 4666 
Q 2838 4666 3239 4311 
Q 3641 3956 3641 3272 
Q 3641 2581 3239 2228 
Q 2838 1875 2053 1875 
L 1259 1875 
L 1259 0 
L 628 0 
L 628 4666 
z
" transform="scale(0.015625)"/>
      <path id="DejaVuSans-76" d="M 191 3500 
L 800 3500 
L 1894 563 
L 2988 3500 
L 3597 3500 
L 2284 0 
L 1503 0 
L 191 3500 
z
" transform="scale(0.015625)"/>
      <path id="DejaVuSans-2e" d="M 684 794 
L 1344 794 
L 1344 0 
L 684 0 
L 684 794 
z
" transform="scale(0.015625)"/>
      <path id="DejaVuSans-4f" d="M 2522 4238 
Q 1834 4238 1429 3725 
Q 1025 3213 1025 2328 
Q 1025 1447 1429 934 
Q 1834 422 2522 422 
Q 3209 422 3611 934 
Q 4013 1447 4013 2328 
Q 4013 3213 3611 3725 
Q 3209 4238 2522 4238 
z
M 2522 4750 
Q 3503 4750 4090 4092 
Q 4678 3434 4678 2328 
Q 4678 1225 4090 567 
Q 3503 -91 2522 -91 
Q 1538 -91 948 565 
Q 359 1222 359 2328 
Q 359 3434 948 4092 
Q 1538 4750 2522 4750 
z
" transform="scale(0.015625)"/>
      <path id="DejaVuSans-6f" d="M 1959 3097 
Q 1497 3097 1228 2736 
Q 959 2375 959 1747 
Q 959 1119 1226 758 
Q 1494 397 1959 397 
Q 2419 397 2687 759 
Q 2956 1122 2956 1747 
Q 2956 2369 2687 2733 
Q 2419 3097 1959 3097 
z
M 1959 3584 
Q 2709 3584 3137 3096 
Q 3566 2609 3566 1747 
Q 3566 888 3137 398 
Q 2709 -91 1959 -91 
Q 1206 -91 779 398 
Q 353 888 353 1747 
Q 353 2609 779 3096 
Q 1206 3584 1959 3584 
z
" transform="scale(0.015625)"/>
      <path id="DejaVuSans-77" d="M 269 3500 
L 844 3500 
L 1563 769 
L 2278 3500 
L 2956 3500 
L 3675 769 
L 4391 3500 
L 4966 3500 
L 4050 0 
L 3372 0 
L 2619 2869 
L 1863 0 
L 1184 0 
L 269 3500 
z
" transform="scale(0.015625)"/>
      <path id="DejaVuSans-72" d="M 2631 2963 
Q 2534 3019 2420 3045 
Q 2306 3072 2169 3072 
Q 1681 3072 1420 2755 
Q 1159 2438 1159 1844 
L 1159 0 
L 581 0 
L 581 3500 
L 1159 3500 
L 1159 2956 
Q 1341 3275 1631 3429 
Q 1922 3584 2338 3584 
Q 2397 3584 2469 3576 
Q 2541 3569 2628 3553 
L 2631 2963 
z
" transform="scale(0.015625)"/>
     </defs>
     <use xlink:href="#DejaVuSans-49"/>
     <use xlink:href="#DejaVuSans-6e" x="29.492188"/>
     <use xlink:href="#DejaVuSans-70" x="92.871094"/>
     <use xlink:href="#DejaVuSans-75" x="156.347656"/>
     <use xlink:href="#DejaVuSans-74" x="219.726562"/>
     <use xlink:href="#DejaVuSans-20" x="258.935547"/>
     <use xlink:href="#DejaVuSans-50" x="290.722656"/>
     <use xlink:href="#DejaVuSans-75" x="349.275391"/>
     <use xlink:href="#DejaVuSans-6c" x="412.654297"/>
     <use xlink:href="#DejaVuSans-73" x="440.4375"/>
     <use xlink:href="#DejaVuSans-65" x="492.537109"/>
     <use xlink:href="#DejaVuSans-20" x="554.060547"/>
     <use xlink:href="#DejaVuSans-76" x="585.847656"/>
     <use xlink:href="#DejaVuSans-73" x="645.027344"/>
     <use xlink:href="#DejaVuSans-2e" x="697.126953"/>
     <use xlink:href="#DejaVuSans-20" x="728.914062"/>
     <use xlink:href="#DejaVuSans-4f" x="760.701172"/>
     <use xlink:href="#DejaVuSans-75" x="839.412109"/>
     <use xlink:href="#DejaVuSans-74" x="902.791016"/>
     <use xlink:href="#DejaVuSans-70" x="942"/>
     <use xlink:href="#DejaVuSans-75" x="1005.476562"/>
     <use xlink:href="#DejaVuSans-74" x="1068.855469"/>
     <use xlink:href="#DejaVuSans-20" x="1108.064453"/>
     <use xlink:href="#DejaVuSans-50" x="1139.851562"/>
     <use xlink:href="#DejaVuSans-6f" x="1196.529297"/>
     <use xlink:href="#DejaVuSans-77" x="1257.710938"/>
     <use xlink:href="#DejaVuSans-65" x="1339.498047"/>
     <use xlink:href="#DejaVuSans-72" x="1401.021484"/>
    </g>
   </g>
  </g>
  <g id="axes_2">
   <g id="matplotlib.axis_3">
    <g id="ytick_10">
     <g id="line2d_32">
      <defs>
       <path id="ma022d849b4" d="M 0 0 
L 3.5 0 
" style="stroke: #000000; stroke-width: 0.8"/>
      </defs>
      <g>
       <use xlink:href="#ma022d849b4" x="809.215" y="419.866409" style="stroke: #000000; stroke-width: 0.8"/>
      </g>
     </g>
     <g id="text_19">
      <!-- −70 -->
      <g style="fill: #d62728" transform="translate(816.215 423.665628) scale(0.1 -0.1)">
       <defs>
        <path id="DejaVuSans-2212" d="M 678 2272 
L 4684 2272 
L 4684 1741 
L 678 1741 
L 678 2272 
z
" transform="scale(0.015625)"/>
        <path id="DejaVuSans-37" d="M 525 4666 
L 3525 4666 
L 3525 4397 
L 1831 0 
L 1172 0 
L 2766 4134 
L 525 4134 
L 525 4666 
z
" transform="scale(0.015625)"/>
       </defs>
       <use xlink:href="#DejaVuSans-2212"/>
       <use xlink:href="#DejaVuSans-37" x="83.789062"/>
       <use xlink:href="#DejaVuSans-30" x="147.412109"/>
      </g>
     </g>
    </g>
    <g id="ytick_11">
     <g id="line2d_33">
      <g>
       <use xlink:href="#ma022d849b4" x="809.215" y="364.244103" style="stroke: #000000; stroke-width: 0.8"/>
      </g>
     </g>
     <g id="text_20">
      <!-- −68 -->
      <g style="fill: #d62728" transform="translate(816.215 368.043322) scale(0.1 -0.1)">
       <use xlink:href="#DejaVuSans-2212"/>
       <use xlink:href="#DejaVuSans-36" x="83.789062"/>
       <use xlink:href="#DejaVuSans-38" x="147.412109"/>
      </g>
     </g>
    </g>
    <g id="ytick_12">
     <g id="line2d_34">
      <g>
       <use xlink:href="#ma022d849b4" x="809.215" y="308.621797" style="stroke: #000000; stroke-width: 0.8"/>
      </g>
     </g>
     <g id="text_21">
      <!-- −66 -->
      <g style="fill: #d62728" transform="translate(816.215 312.421015) scale(0.1 -0.1)">
       <use xlink:href="#DejaVuSans-2212"/>
       <use xlink:href="#DejaVuSans-36" x="83.789062"/>
       <use xlink:href="#DejaVuSans-36" x="147.412109"/>
      </g>
     </g>
    </g>
    <g id="ytick_13">
     <g id="line2d_35">
      <g>
       <use xlink:href="#ma022d849b4" x="809.215" y="252.99949" style="stroke: #000000; stroke-width: 0.8"/>
      </g>
     </g>
     <g id="text_22">
      <!-- −64 -->
      <g style="fill: #d62728" transform="translate(816.215 256.798709) scale(0.1 -0.1)">
       <use xlink:href="#DejaVuSans-2212"/>
       <use xlink:href="#DejaVuSans-36" x="83.789062"/>
       <use xlink:href="#DejaVuSans-34" x="147.412109"/>
      </g>
     </g>
    </g>
    <g id="ytick_14">
     <g id="line2d_36">
      <g>
       <use xlink:href="#ma022d849b4" x="809.215" y="197.377184" style="stroke: #000000; stroke-width: 0.8"/>
      </g>
     </g>
     <g id="text_23">
      <!-- −62 -->
      <g style="fill: #d62728" transform="translate(816.215 201.176403) scale(0.1 -0.1)">
       <use xlink:href="#DejaVuSans-2212"/>
       <use xlink:href="#DejaVuSans-36" x="83.789062"/>
       <use xlink:href="#DejaVuSans-32" x="147.412109"/>
      </g>
     </g>
    </g>
    <g id="ytick_15">
     <g id="line2d_37">
      <g>
       <use xlink:href="#ma022d849b4" x="809.215" y="141.754878" style="stroke: #000000; stroke-width: 0.8"/>
      </g>
     </g>
     <g id="text_24">
      <!-- −60 -->
      <g style="fill: #d62728" transform="translate(816.215 145.554096) scale(0.1 -0.1)">
       <use xlink:href="#DejaVuSans-2212"/>
       <use xlink:href="#DejaVuSans-36" x="83.789062"/>
       <use xlink:href="#DejaVuSans-30" x="147.412109"/>
      </g>
     </g>
    </g>
    <g id="ytick_16">
     <g id="line2d_38">
      <g>
       <use xlink:href="#ma022d849b4" x="809.215" y="86.132571" style="stroke: #000000; stroke-width: 0.8"/>
      </g>
     </g>
     <g id="text_25">
      <!-- −58 -->
      <g style="fill: #d62728" transform="translate(816.215 89.93179) scale(0.1 -0.1)">
       <use xlink:href="#DejaVuSans-2212"/>
       <use xlink:href="#DejaVuSans-35" x="83.789062"/>
       <use xlink:href="#DejaVuSans-38" x="147.412109"/>
      </g>
     </g>
    </g>
    <g id="ytick_17">
     <g id="line2d_39">
      <g>
       <use xlink:href="#ma022d849b4" x="809.215" y="30.510265" style="stroke: #000000; stroke-width: 0.8"/>
      </g>
     </g>
     <g id="text_26">
      <!-- −56 -->
      <g style="fill: #d62728" transform="translate(816.215 34.309484) scale(0.1 -0.1)">
       <use xlink:href="#DejaVuSans-2212"/>
       <use xlink:href="#DejaVuSans-35" x="83.789062"/>
       <use xlink:href="#DejaVuSans-36" x="147.412109"/>
      </g>
     </g>
    </g>
    <g id="text_27">
     <!-- Output Power (arbitrary units) -->
     <g style="fill: #d62728" transform="translate(850.437812 335.803437) rotate(-90) scale(0.12 -0.12)">
      <defs>
       <path id="DejaVuSans-62" d="M 3116 1747 
Q 3116 2381 2855 2742 
Q 2594 3103 2138 3103 
Q 1681 3103 1420 2742 
Q 1159 2381 1159 1747 
Q 1159 1113 1420 752 
Q 1681 391 2138 391 
Q 2594 391 2855 752 
Q 3116 1113 3116 1747 
z
M 1159 2969 
Q 1341 3281 1617 3432 
Q 1894 3584 2278 3584 
Q 2916 3584 3314 3078 
Q 3713 2572 3713 1747 
Q 3713 922 3314 415 
Q 2916 -91 2278 -91 
Q 1894 -91 1617 61 
Q 1341 213 1159 525 
L 1159 0 
L 581 0 
L 581 4863 
L 1159 4863 
L 1159 2969 
z
" transform="scale(0.015625)"/>
       <path id="DejaVuSans-79" d="M 2059 -325 
Q 1816 -950 1584 -1140 
Q 1353 -1331 966 -1331 
L 506 -1331 
L 506 -850 
L 844 -850 
Q 1081 -850 1212 -737 
Q 1344 -625 1503 -206 
L 1606 56 
L 191 3500 
L 800 3500 
L 1894 763 
L 2988 3500 
L 3597 3500 
L 2059 -325 
z
" transform="scale(0.015625)"/>
      </defs>
      <use xlink:href="#DejaVuSans-4f"/>
      <use xlink:href="#DejaVuSans-75" x="78.710938"/>
      <use xlink:href="#DejaVuSans-74" x="142.089844"/>
      <use xlink:href="#DejaVuSans-70" x="181.298828"/>
      <use xlink:href="#DejaVuSans-75" x="244.775391"/>
      <use xlink:href="#DejaVuSans-74" x="308.154297"/>
      <use xlink:href="#DejaVuSans-20" x="347.363281"/>
      <use xlink:href="#DejaVuSans-50" x="379.150391"/>
      <use xlink:href="#DejaVuSans-6f" x="435.828125"/>
      <use xlink:href="#DejaVuSans-77" x="497.009766"/>
      <use xlink:href="#DejaVuSans-65" x="578.796875"/>
      <use xlink:href="#DejaVuSans-72" x="640.320312"/>
      <use xlink:href="#DejaVuSans-20" x="681.433594"/>
      <use xlink:href="#DejaVuSans-28" x="713.220703"/>
      <use xlink:href="#DejaVuSans-61" x="752.234375"/>
      <use xlink:href="#DejaVuSans-72" x="813.513672"/>
      <use xlink:href="#DejaVuSans-62" x="854.626953"/>
      <use xlink:href="#DejaVuSans-69" x="918.103516"/>
      <use xlink:href="#DejaVuSans-74" x="945.886719"/>
      <use xlink:href="#DejaVuSans-72" x="985.095703"/>
      <use xlink:href="#DejaVuSans-61" x="1026.208984"/>
      <use xlink:href="#DejaVuSans-72" x="1087.488281"/>
      <use xlink:href="#DejaVuSans-79" x="1128.601562"/>
      <use xlink:href="#DejaVuSans-20" x="1187.78125"/>
      <use xlink:href="#DejaVuSans-75" x="1219.568359"/>
      <use xlink:href="#DejaVuSans-6e" x="1282.947266"/>
      <use xlink:href="#DejaVuSans-69" x="1346.326172"/>
      <use xlink:href="#DejaVuSans-74" x="1374.109375"/>
      <use xlink:href="#DejaVuSans-73" x="1413.318359"/>
      <use xlink:href="#DejaVuSans-29" x="1465.417969"/>
     </g>
    </g>
   </g>
   <g id="line2d_40">
    <path d="M 87.230227 228.432165 
L 91.159907 228.585274 
L 92.985506 228.867757 
L 94.250705 229.280809 
L 95.254612 229.838939 
L 96.120998 230.576565 
L 96.911748 231.548492 
L 97.664678 232.839497 
L 98.396981 234.554351 
L 99.125845 236.854473 
L 99.85471 239.92616 
L 100.59045 244.037769 
L 101.333067 249.507864 
L 102.089436 256.814592 
L 102.856119 266.480076 
L 103.639992 279.315025 
L 104.437617 296.194885 
L 105.252433 318.359548 
L 106.081 347.150535 
L 106.191017 343.90881 
L 107.050527 314.581767 
L 107.934104 276.504413 
L 108.442934 257.204466 
L 109.374642 250.139773 
L 109.739075 246.159076 
L 110.718916 201.680099 
L 110.787677 198.2016 
L 110.818619 202.054996 
L 111.93942 333.600402 
L 112.424184 354.700519 
L 112.458564 350.680534 
L 113.091164 272.388959 
L 113.153048 281.580417 
L 113.692821 365.651695 
L 113.768457 357.42257 
L 114.246345 302.441926 
L 114.284163 311.128277 
L 114.762051 423.971877 
L 114.882382 423.590885 
L 115.239938 422.432432 
L 115.246815 422.726038 
L 115.69376 442.321439 
L 115.717826 438.779869 
L 116.941768 232.352744 
L 117.024281 251.730051 
L 117.330267 327.004048 
L 117.433408 324.664442 
L 117.718765 315.975049 
L 118.076321 245.476131 
L 118.162272 250.497923 
L 118.433878 266.349495 
L 118.451068 261.81432 
L 118.787996 172.760813 
L 118.846442 185.464846 
L 119.379339 277.431803 
L 119.479042 289.235739 
L 119.509984 279.853354 
L 119.822846 178.318 
L 119.898483 189.392829 
L 120.163212 228.305985 
L 120.197592 217.913051 
L 120.503578 122.425098 
L 120.565462 136.452145 
L 120.847382 202.822359 
L 120.929895 197.454433 
L 121.259946 168.953056 
L 121.665635 119.364389 
L 122.146961 109.319391 
L 122.250102 107.7667 
L 122.267292 108.902079 
L 122.617972 131.752891 
L 122.686733 129.500326 
L 122.999595 119.349231 
L 123.078669 120.112679 
L 123.391531 123.069686 
L 123.401845 122.185602 
L 123.934741 72.535588 
L 124.251041 65.06938 
L 124.292298 66.51515 
L 124.732367 81.648563 
L 124.787375 80.380457 
L 125.265263 70.048502 
L 125.313395 70.833346 
L 125.88411 79.356311 
L 125.9013 78.667075 
L 126.685173 48.727654 
L 127.331525 63.700302 
L 127.847231 71.093176 
L 128.232291 73.91961 
L 128.483268 74.51159 
L 128.607038 74.43952 
L 128.768626 73.983701 
L 129.012726 72.51975 
L 129.349654 68.974061 
L 129.786285 61.777903 
L 130.329496 48.817687 
L 130.332934 48.721818 
L 130.384504 50.336196 
L 131.054922 75.876523 
L 131.133997 79.354625 
L 131.21651 78.24404 
L 131.756282 70.055901 
L 131.821605 71.340142 
L 132.292616 81.665221 
L 132.344187 79.999851 
L 132.773942 65.085822 
L 132.849579 66.770186 
L 133.244954 78.388009 
L 133.640328 123.072168 
L 133.746907 122.083922 
L 134.035703 119.347586 
L 134.059769 120.078115 
L 134.420763 131.731918 
L 134.458582 129.31969 
L 134.792071 107.751473 
L 134.884899 109.149584 
L 135.300901 117.173868 
L 135.53125 125.945639 
L 136.046956 192.241566 
L 136.211982 202.810136 
L 136.236048 197.557955 
L 136.559224 122.32681 
L 136.607357 136.479365 
L 136.906466 228.183029 
L 136.982103 217.606856 
L 137.253708 178.486227 
L 137.288088 188.835564 
L 137.604388 289.221683 
L 137.683463 280.320487 
L 138.089152 220.72957 
L 138.316062 172.591666 
L 138.364195 184.937012 
L 138.680495 266.45179 
L 138.766446 261.561624 
L 139.051803 245.361309 
L 139.075869 249.863752 
L 139.553757 321.050907 
L 139.825362 326.989285 
L 139.832238 325.541475 
L 140.231051 232.324187 
L 140.289497 242.33572 
L 141.351852 411.787841 
L 141.561572 442.286294 
L 141.644085 438.974553 
L 142.060088 422.433562 
L 142.149477 422.703623 
L 142.586108 423.973867 
L 142.589546 423.89762 
L 143.167137 302.495214 
L 143.225583 308.291337 
L 143.81005 365.634699 
L 143.844431 360.925186 
L 144.535477 272.55106 
L 144.573295 276.20093 
L 145.394987 354.687643 
L 145.425929 353.63842 
L 146.412646 324.052854 
L 146.508912 318.603329 
L 147.416554 239.685951 
L 148.028525 198.194233 
L 148.066344 199.036566 
L 148.843341 214.688646 
L 149.537825 224.549818 
L 150.146358 230.311749 
L 150.658626 233.272525 
L 151.060876 234.485601 
L 151.35311 234.794419 
L 151.56283 234.734267 
L 151.803493 234.387417 
L 152.126669 233.475286 
L 152.552986 231.533626 
L 153.099634 227.905183 
L 153.780366 221.76388 
L 154.612372 212.090001 
L 155.585337 198.16379 
L 155.636908 200.220026 
L 156.850536 253.262044 
L 158.517985 326.749452 
L 160.302328 353.70172 
L 160.36765 354.704933 
L 160.395155 353.578634 
L 162.292953 272.433616 
L 162.378904 276.77196 
L 164.094486 365.744892 
L 164.183875 362.522256 
L 165.827258 302.391671 
L 165.871952 305.32013 
L 167.539402 423.981128 
L 167.652857 423.877678 
L 169.254984 422.427605 
L 169.268736 422.54979 
L 171.03245 442.358182 
L 171.04964 441.742081 
L 173.298119 361.044236 
L 175.274992 298.94832 
L 176.794605 254.567909 
L 177.685058 232.097229 
L 177.712562 232.93099 
L 178.905562 265.667988 
L 179.947288 288.528365 
L 180.851492 303.822377 
L 181.625051 313.441208 
L 182.274841 319.00139 
L 182.797423 321.784596 
L 183.196235 322.8899 
L 183.474717 323.137521 
L 183.674123 323.049815 
L 183.911348 322.657469 
L 184.231086 321.633944 
L 184.64365 319.475821 
L 185.15248 315.520449 
L 185.764451 308.886155 
L 186.48644 298.459432 
L 187.321883 282.957623 
L 188.277658 260.847888 
L 189.305632 232.097157 
L 189.412212 234.622758 
L 190.66022 267.352654 
L 192.358612 318.566537 
L 194.084508 374.256183 
L 195.95824 442.356841 
L 196.106075 440.733952 
L 197.732268 422.427583 
L 197.86979 422.54815 
L 199.451288 423.981977 
L 200.052945 381.094818 
L 201.159994 302.35478 
L 201.228755 304.900249 
L 202.889328 365.725164 
L 202.927147 363.765567 
L 204.680547 272.463955 
L 204.721803 274.162295 
L 206.578345 354.718126 
L 206.616163 354.120512 
L 208.716806 318.058203 
L 210.738373 208.779293 
L 210.948094 198.185722 
L 211.027169 199.702712 
L 212.876834 233.878911 
L 213.777601 247.559296 
L 215.503497 253.405708 
L 217.16407 258.941841 
L 218.721502 290.630483 
L 220.227363 316.885298 
L 221.68853 338.604304 
L 222.33832 347.164515 
L 222.376138 346.52539 
L 223.782297 324.692437 
L 225.154075 306.738591 
L 226.498348 291.969515 
L 227.815118 279.874176 
L 229.107821 269.983562 
L 230.379895 261.907275 
L 231.63478 255.321878 
L 232.872474 249.973775 
L 234.099855 245.624719 
L 235.316921 242.104032 
L 236.533987 239.244502 
L 237.754491 236.92997 
L 238.988747 235.054929 
L 240.250508 233.534444 
L 241.560401 232.299042 
L 242.949369 231.293126 
L 244.455231 230.477978 
L 246.13987 229.822366 
L 248.092677 229.306622 
L 250.471801 228.916614 
L 253.590103 228.643544 
L 258.234895 228.481058 
L 267.730761 228.418599 
L 357.185122 228.414431 
L 365.422665 228.525341 
L 367.561126 228.769146 
L 368.946656 229.141402 
L 370.012449 229.653034 
L 370.913215 230.332564 
L 371.721154 231.225397 
L 372.480961 232.406068 
L 373.216702 233.974978 
L 373.945566 236.076347 
L 374.674431 238.889854 
L 375.406733 242.645458 
L 376.14935 247.675658 
L 376.902281 254.378207 
L 377.665525 263.259326 
L 378.442522 275.015644 
L 379.23671 290.568592 
L 380.048087 311.036638 
L 380.876655 337.81258 
L 381.124194 347.150535 
L 381.189516 345.250533 
L 382.049026 316.282404 
L 382.932603 278.646339 
L 383.493003 257.15788 
L 384.42815 250.05264 
L 384.782268 246.159076 
L 385.762109 201.680099 
L 385.83087 198.2016 
L 385.861813 202.054996 
L 386.982614 333.600402 
L 387.467377 354.700519 
L 387.501758 350.680534 
L 388.134357 272.388959 
L 388.196242 281.580417 
L 388.736014 365.651695 
L 388.811651 357.42257 
L 389.289538 302.441926 
L 389.327357 311.128277 
L 389.805244 423.971877 
L 389.925576 423.590885 
L 390.283132 422.432432 
L 390.290008 422.726038 
L 390.736953 442.321439 
L 390.761019 438.779869 
L 391.984962 232.352744 
L 392.067475 251.730051 
L 392.37346 327.004048 
L 392.476601 324.664442 
L 392.761959 315.975049 
L 393.119515 245.476131 
L 393.205466 250.497923 
L 393.477071 266.349495 
L 393.494261 261.81432 
L 393.831189 172.760813 
L 393.889636 185.464846 
L 394.422532 277.431803 
L 394.522235 289.235739 
L 394.553177 279.853354 
L 394.866039 178.318 
L 394.941676 189.392829 
L 395.206405 228.305985 
L 395.240785 217.913051 
L 395.546771 122.425098 
L 395.608656 136.452145 
L 395.890575 202.822359 
L 395.973088 197.454433 
L 396.30314 168.953056 
L 396.708828 119.364389 
L 397.190154 109.319391 
L 397.293295 107.7667 
L 397.310485 108.902079 
L 397.661166 131.752891 
L 397.729926 129.500326 
L 398.042788 119.349231 
L 398.121863 120.112679 
L 398.434725 123.069686 
L 398.445039 122.185602 
L 398.977935 72.535588 
L 399.294235 65.06938 
L 399.335491 66.51515 
L 399.77556 81.648563 
L 399.830569 80.380457 
L 400.308456 70.048502 
L 400.356589 70.833346 
L 400.927303 79.356311 
L 400.944494 78.667075 
L 401.728367 48.727654 
L 402.374718 63.700302 
L 402.890424 71.093176 
L 403.275485 73.91961 
L 403.526462 74.51159 
L 403.650231 74.43952 
L 403.811819 73.983701 
L 404.05592 72.51975 
L 404.392848 68.974061 
L 404.829479 61.777903 
L 405.372689 48.817687 
L 405.376127 48.721818 
L 405.427698 50.336196 
L 406.098115 75.876523 
L 406.17719 79.354625 
L 406.259703 78.24404 
L 406.799476 70.055901 
L 406.864798 71.340142 
L 407.33581 81.665221 
L 407.38738 79.999851 
L 407.817135 65.085822 
L 407.892772 66.770186 
L 408.288147 78.388009 
L 408.683522 123.072168 
L 408.790101 122.083922 
L 409.078896 119.347586 
L 409.102962 120.078115 
L 409.463957 131.731918 
L 409.501775 129.31969 
L 409.835265 107.751473 
L 409.928092 109.149584 
L 410.344095 117.173868 
L 410.574443 125.945639 
L 411.090149 192.241566 
L 411.255175 202.810136 
L 411.279242 197.557955 
L 411.602417 122.32681 
L 411.65055 136.479365 
L 411.949659 228.183029 
L 412.025296 217.606856 
L 412.296901 178.486227 
L 412.331282 188.835564 
L 412.647582 289.221683 
L 412.726656 280.320487 
L 413.132345 220.72957 
L 413.359256 172.591666 
L 413.407388 184.937012 
L 413.723688 266.45179 
L 413.809639 261.561624 
L 414.094996 245.361309 
L 414.119063 249.863752 
L 414.59695 321.050907 
L 414.868555 326.989285 
L 414.875431 325.541475 
L 415.274244 232.324187 
L 415.332691 242.33572 
L 416.395045 411.787841 
L 416.604765 442.286294 
L 416.687278 438.974553 
L 417.103281 422.433562 
L 417.19267 422.703623 
L 417.629301 423.973867 
L 417.632739 423.89762 
L 418.21033 302.495214 
L 418.268777 308.291337 
L 418.853244 365.634699 
L 418.887624 360.925186 
L 419.57867 272.55106 
L 419.616488 276.20093 
L 420.43818 354.687643 
L 420.469122 353.63842 
L 421.45584 324.052854 
L 421.552105 318.603329 
L 422.459747 239.685951 
L 423.071719 198.194233 
L 423.109537 199.036566 
L 423.886534 214.688646 
L 424.581018 224.549818 
L 425.189551 230.311749 
L 425.701819 233.272525 
L 426.10407 234.485601 
L 426.396303 234.794419 
L 426.606024 234.734267 
L 426.846686 234.387417 
L 427.169862 233.475286 
L 427.596179 231.533626 
L 428.142827 227.905183 
L 428.823559 221.76388 
L 429.655565 212.090001 
L 430.62853 198.16379 
L 430.680101 200.220026 
L 431.893729 253.262044 
L 433.561178 326.749452 
L 435.345521 353.70172 
L 435.410844 354.704933 
L 435.438348 353.578634 
L 437.336146 272.433616 
L 437.422097 276.77196 
L 439.137679 365.744892 
L 439.227068 362.522256 
L 440.870451 302.391671 
L 440.915146 305.32013 
L 442.582595 423.981128 
L 442.69605 423.877678 
L 444.298177 422.427605 
L 444.311929 422.54979 
L 446.075644 442.358182 
L 446.092834 441.742081 
L 448.341312 361.044236 
L 450.318185 298.94832 
L 451.837799 254.567909 
L 452.728251 232.097229 
L 452.755755 232.93099 
L 453.948755 265.667988 
L 454.990481 288.528365 
L 455.894686 303.822377 
L 456.668245 313.441208 
L 457.318034 319.00139 
L 457.840616 321.784596 
L 458.239429 322.8899 
L 458.51791 323.137521 
L 458.717316 323.049815 
L 458.954541 322.657469 
L 459.274279 321.633944 
L 459.686844 319.475821 
L 460.195674 315.520449 
L 460.807645 308.886155 
L 461.529633 298.459432 
L 462.365077 282.957623 
L 463.320852 260.847888 
L 464.348826 232.097157 
L 464.455405 234.622758 
L 465.703414 267.352654 
L 467.401805 318.566537 
L 469.127701 374.256183 
L 471.001433 442.356841 
L 471.149269 440.733952 
L 472.775462 422.427583 
L 472.912983 422.54815 
L 474.494482 423.981977 
L 475.096139 381.094818 
L 476.203187 302.35478 
L 476.271948 304.900249 
L 477.932522 365.725164 
L 477.97034 363.765567 
L 479.72374 272.463955 
L 479.764997 274.162295 
L 481.621538 354.718126 
L 481.659357 354.120512 
L 483.759999 318.058203 
L 485.781567 208.779293 
L 485.991287 198.185722 
L 486.070362 199.702712 
L 487.920027 233.878911 
L 488.820794 247.559296 
L 490.54669 253.405708 
L 492.207263 258.941841 
L 493.764695 290.630483 
L 495.270557 316.885298 
L 496.731724 338.604304 
L 497.381513 347.164515 
L 497.419332 346.52539 
L 498.82549 324.692437 
L 500.197268 306.738591 
L 501.541542 291.969515 
L 502.858311 279.874176 
L 504.151014 269.983562 
L 505.423089 261.907275 
L 506.677973 255.321878 
L 507.915668 249.973775 
L 509.143048 245.624719 
L 510.360114 242.104032 
L 511.57718 239.244502 
L 512.797684 236.92997 
L 514.031941 235.054929 
L 515.293701 233.534444 
L 516.603595 232.299042 
L 517.992563 231.293126 
L 519.498424 230.477978 
L 521.183064 229.822366 
L 523.13587 229.306622 
L 525.514994 228.916614 
L 528.633296 228.643544 
L 533.278088 228.481058 
L 542.773954 228.418599 
L 632.228315 228.414431 
L 640.465859 228.525341 
L 642.604319 228.769146 
L 643.98985 229.141402 
L 645.055642 229.653034 
L 645.956408 230.332564 
L 646.764348 231.225397 
L 647.524155 232.406068 
L 648.259895 233.974978 
L 648.98876 236.076347 
L 649.717624 238.889854 
L 650.449927 242.645458 
L 651.192543 247.675658 
L 651.945474 254.378207 
L 652.708719 263.259326 
L 653.485716 275.015644 
L 654.279903 290.568592 
L 655.09128 311.036638 
L 655.919848 337.81258 
L 656.167387 347.150535 
L 656.23271 345.250533 
L 657.09222 316.282404 
L 657.975796 278.646339 
L 658.536196 257.15788 
L 659.471343 250.05264 
L 659.825461 246.159076 
L 660.805303 201.680099 
L 660.874064 198.2016 
L 660.905006 202.054996 
L 662.025807 333.600402 
L 662.510571 354.700519 
L 662.544951 350.680534 
L 663.17755 272.388959 
L 663.239435 281.580417 
L 663.779207 365.651695 
L 663.854844 357.42257 
L 664.332732 302.441926 
L 664.37055 311.128277 
L 664.848438 423.971877 
L 664.968769 423.590885 
L 665.326325 422.432432 
L 665.333201 422.726038 
L 665.780147 442.321439 
L 665.804213 438.779869 
L 667.028155 232.352744 
L 667.110668 251.730051 
L 667.416654 327.004048 
L 667.519795 324.664442 
L 667.805152 315.975049 
L 668.162708 245.476131 
L 668.248659 250.497923 
L 668.520264 266.349495 
L 668.537455 261.81432 
L 668.874382 172.760813 
L 668.932829 185.464846 
L 669.465725 277.431803 
L 669.565428 289.235739 
L 669.596371 279.853354 
L 669.909232 178.318 
L 669.984869 189.392829 
L 670.249598 228.305985 
L 670.283979 217.913051 
L 670.589964 122.425098 
L 670.651849 136.452145 
L 670.933768 202.822359 
L 671.016281 197.454433 
L 671.346333 168.953056 
L 671.752022 119.364389 
L 672.233347 109.319391 
L 672.336489 107.7667 
L 672.353679 108.902079 
L 672.704359 131.752891 
L 672.77312 129.500326 
L 673.085981 119.349231 
L 673.165056 120.112679 
L 673.477918 123.069686 
L 673.488232 122.185602 
L 674.021128 72.535588 
L 674.337428 65.06938 
L 674.378684 66.51515 
L 674.818753 81.648563 
L 674.873762 80.380457 
L 675.35165 70.048502 
L 675.399782 70.833346 
L 675.970497 79.356311 
L 675.987687 78.667075 
L 676.77156 48.727654 
L 677.417912 63.700302 
L 677.933618 71.093176 
L 678.318678 73.91961 
L 678.569655 74.51159 
L 678.693424 74.43952 
L 678.855012 73.983701 
L 679.099113 72.51975 
L 679.436041 68.974061 
L 679.872672 61.777903 
L 680.415882 48.817687 
L 680.419321 48.721818 
L 680.470891 50.336196 
L 681.141309 75.876523 
L 681.220384 79.354625 
L 681.302897 78.24404 
L 681.842669 70.055901 
L 681.907992 71.340142 
L 682.379003 81.665221 
L 682.430574 79.999851 
L 682.860329 65.085822 
L 682.935966 66.770186 
L 683.33134 78.388009 
L 683.726715 123.072168 
L 683.833294 122.083922 
L 684.12209 119.347586 
L 684.146156 120.078115 
L 684.50715 131.731918 
L 684.544968 129.31969 
L 684.878458 107.751473 
L 684.971285 109.149584 
L 685.387288 117.173868 
L 685.617637 125.945639 
L 686.133343 192.241566 
L 686.298369 202.810136 
L 686.322435 197.557955 
L 686.645611 122.32681 
L 686.693743 136.479365 
L 686.992853 228.183029 
L 687.06849 217.606856 
L 687.340095 178.486227 
L 687.374475 188.835564 
L 687.690775 289.221683 
L 687.76985 280.320487 
L 688.175539 220.72957 
L 688.402449 172.591666 
L 688.450582 184.937012 
L 688.766881 266.45179 
L 688.852832 261.561624 
L 689.13819 245.361309 
L 689.162256 249.863752 
L 689.640144 321.050907 
L 689.911749 326.989285 
L 689.918625 325.541475 
L 690.317437 232.324187 
L 690.375884 242.33572 
L 691.438238 411.787841 
L 691.647959 442.286294 
L 691.730472 438.974553 
L 692.146475 422.433562 
L 692.235864 422.703623 
L 692.672495 423.973867 
L 692.675933 423.89762 
L 693.253524 302.495214 
L 693.31197 308.291337 
L 693.896437 365.634699 
L 693.930817 360.925186 
L 694.621863 272.55106 
L 694.659682 276.20093 
L 695.481373 354.687643 
L 695.512316 353.63842 
L 696.499033 324.052854 
L 696.595298 318.603329 
L 697.502941 239.685951 
L 698.114912 198.194233 
L 698.15273 199.036566 
L 698.929727 214.688646 
L 699.624211 224.549818 
L 700.232745 230.311749 
L 700.745013 233.272525 
L 701.147263 234.485601 
L 701.439497 234.794419 
L 701.649217 234.734267 
L 701.88988 234.387417 
L 702.213056 233.475286 
L 702.639373 231.533626 
L 703.186021 227.905183 
L 703.866753 221.76388 
L 704.698758 212.090001 
L 705.671724 198.16379 
L 705.723294 200.220026 
L 706.936922 253.262044 
L 708.604372 326.749452 
L 710.388714 353.70172 
L 710.454037 354.704933 
L 710.481542 353.578634 
L 712.37934 272.433616 
L 712.465291 276.77196 
L 714.180873 365.744892 
L 714.270262 362.522256 
L 715.913645 302.391671 
L 715.958339 305.32013 
L 717.625789 423.981128 
L 717.739244 423.877678 
L 719.34137 422.427605 
L 719.355123 422.54979 
L 721.118837 442.358182 
L 721.136027 441.742081 
L 723.384505 361.044236 
L 725.361378 298.94832 
L 726.880992 254.567909 
L 727.771444 232.097229 
L 727.798949 232.93099 
L 728.991948 265.667988 
L 730.033675 288.528365 
L 730.937879 303.822377 
L 731.711438 313.441208 
L 732.361228 319.00139 
L 732.88381 321.784596 
L 733.282622 322.8899 
L 733.561104 323.137521 
L 733.76051 323.049815 
L 733.997735 322.657469 
L 734.317472 321.633944 
L 734.730037 319.475821 
L 735.238867 315.520449 
L 735.850838 308.886155 
L 736.572826 298.459432 
L 737.40827 282.957623 
L 738.364045 260.847888 
L 739.392019 232.097157 
L 739.498598 234.622758 
L 740.746607 267.352654 
L 742.444999 318.566537 
L 744.170895 374.256183 
L 746.044626 442.356841 
L 746.192462 440.733952 
L 747.818655 422.427583 
L 747.956177 422.54815 
L 749.537675 423.981977 
L 750.139332 381.094818 
L 751.246381 302.35478 
L 751.315142 304.900249 
L 752.975715 365.725164 
L 753.013533 363.765567 
L 754.766934 272.463955 
L 754.80819 274.162295 
L 756.664732 354.718126 
L 756.70255 354.120512 
L 758.803193 318.058203 
L 760.82476 208.779293 
L 761.03448 198.185722 
L 761.113555 199.702712 
L 762.963221 233.878911 
L 763.863987 247.559296 
L 765.589883 253.405708 
L 767.250457 258.941841 
L 768.807889 290.630483 
L 770.31375 316.885298 
L 771.774917 338.604304 
L 772.424707 347.164515 
L 772.462525 346.52539 
L 773.868684 324.692437 
L 774.834773 311.728005 
L 774.834773 311.728005 
" clip-path="url(#p0e8b567e77)" style="fill: none; stroke: #d62728; stroke-opacity: 0.9; stroke-width: 1.5; stroke-linecap: square"/>
   </g>
   <g id="patch_7">
    <path d="M 52.85 462.04 
L 52.85 29.04 
" style="fill: none; stroke: #000000; stroke-width: 0.8; stroke-linejoin: miter; stroke-linecap: square"/>
   </g>
   <g id="patch_8">
    <path d="M 809.215 462.04 
L 809.215 29.04 
" style="fill: none; stroke: #000000; stroke-width: 0.8; stroke-linejoin: miter; stroke-linecap: square"/>
   </g>
   <g id="patch_9">
    <path d="M 52.85 462.04 
L 809.215 462.04 
" style="fill: none; stroke: #000000; stroke-width: 0.8; stroke-linejoin: miter; stroke-linecap: square"/>
   </g>
   <g id="patch_10">
    <path d="M 52.85 29.04 
L 809.215 29.04 
" style="fill: none; stroke: #000000; stroke-width: 0.8; stroke-linejoin: miter; stroke-linecap: square"/>
   </g>
  </g>
 </g>
 <defs>
  <clipPath id="p0e8b567e77">
   <rect x="52.85" y="29.04" width="756.365" height="433"/>
  </clipPath>
 </defs>
</svg>
