<?xml version="1.0" encoding="utf-8" standalone="no"?>
<!DOCTYPE svg PUBLIC "-//W3C//DTD SVG 1.1//EN"
  "http://www.w3.org/Graphics/SVG/1.1/DTD/svg11.dtd">
<svg xmlns:xlink="http://www.w3.org/1999/xlink" width="720pt" height="432pt" viewBox="0 0 720 432" xmlns="http://www.w3.org/2000/svg" version="1.1">
 <metadata>
  <rdf:RDF xmlns:dc="http://purl.org/dc/elements/1.1/" xmlns:cc="http://creativecommons.org/ns#" xmlns:rdf="http://www.w3.org/1999/02/22-rdf-syntax-ns#">
   <cc:Work>
    <dc:type rdf:resource="http://purl.org/dc/dcmitype/StillImage"/>
    <dc:date>2025-08-08T15:22:43.934065</dc:date>
    <dc:format>image/svg+xml</dc:format>
    <dc:creator>
     <cc:Agent>
      <dc:title>Matplotlib v3.7.5, https://matplotlib.org/</dc:title>
     </cc:Agent>
    </dc:creator>
   </cc:Work>
  </rdf:RDF>
 </metadata>
 <defs>
  <style type="text/css">*{stroke-linejoin: round; stroke-linecap: butt}</style>
 </defs>
 <g id="figure_1">
  <g id="patch_1">
   <path d="M 0 432 
L 720 432 
L 720 0 
L 0 0 
z
" style="fill: #ffffff"/>
  </g>
  <g id="axes_1">
   <g id="patch_2">
    <path d="M 90 384.48 
L 648 384.48 
L 648 51.84 
L 90 51.84 
z
" style="fill: #ffffff"/>
   </g>
   <g id="matplotlib.axis_1">
    <g id="xtick_1">
     <g id="line2d_1">
      <path d="M 115.363636 384.48 
L 115.363636 51.84 
" clip-path="url(#p4890d96ada)" style="fill: none; stroke: #b0b0b0; stroke-width: 0.8; stroke-linecap: square"/>
     </g>
     <g id="line2d_2">
      <defs>
       <path id="m864116c54a" d="M 0 0 
L 0 3.5 
" style="stroke: #000000; stroke-width: 0.8"/>
      </defs>
      <g>
       <use xlink:href="#m864116c54a" x="115.363636" y="384.48" style="stroke: #000000; stroke-width: 0.8"/>
      </g>
     </g>
     <g id="text_1">
      <!-- 0 -->
      <g transform="translate(112.182386 399.078438) scale(0.1 -0.1)">
       <defs>
        <path id="DejaVuSans-30" d="M 2034 4250 
Q 1547 4250 1301 3770 
Q 1056 3291 1056 2328 
Q 1056 1369 1301 889 
Q 1547 409 2034 409 
Q 2525 409 2770 889 
Q 3016 1369 3016 2328 
Q 3016 3291 2770 3770 
Q 2525 4250 2034 4250 
z
M 2034 4750 
Q 2819 4750 3233 4129 
Q 3647 3509 3647 2328 
Q 3647 1150 3233 529 
Q 2819 -91 2034 -91 
Q 1250 -91 836 529 
Q 422 1150 422 2328 
Q 422 3509 836 4129 
Q 1250 4750 2034 4750 
z
" transform="scale(0.015625)"/>
       </defs>
       <use xlink:href="#DejaVuSans-30"/>
      </g>
     </g>
    </g>
    <g id="xtick_2">
     <g id="line2d_3">
      <path d="M 216.818689 384.48 
L 216.818689 51.84 
" clip-path="url(#p4890d96ada)" style="fill: none; stroke: #b0b0b0; stroke-width: 0.8; stroke-linecap: square"/>
     </g>
     <g id="line2d_4">
      <g>
       <use xlink:href="#m864116c54a" x="216.818689" y="384.48" style="stroke: #000000; stroke-width: 0.8"/>
      </g>
     </g>
     <g id="text_2">
      <!-- 2 -->
      <g transform="translate(213.637439 399.078438) scale(0.1 -0.1)">
       <defs>
        <path id="DejaVuSans-32" d="M 1228 531 
L 3431 531 
L 3431 0 
L 469 0 
L 469 531 
Q 828 903 1448 1529 
Q 2069 2156 2228 2338 
Q 2531 2678 2651 2914 
Q 2772 3150 2772 3378 
Q 2772 3750 2511 3984 
Q 2250 4219 1831 4219 
Q 1534 4219 1204 4116 
Q 875 4013 500 3803 
L 500 4441 
Q 881 4594 1212 4672 
Q 1544 4750 1819 4750 
Q 2544 4750 2975 4387 
Q 3406 4025 3406 3419 
Q 3406 3131 3298 2873 
Q 3191 2616 2906 2266 
Q 2828 2175 2409 1742 
Q 1991 1309 1228 531 
z
" transform="scale(0.015625)"/>
       </defs>
       <use xlink:href="#DejaVuSans-32"/>
      </g>
     </g>
    </g>
    <g id="xtick_3">
     <g id="line2d_5">
      <path d="M 318.273742 384.48 
L 318.273742 51.84 
" clip-path="url(#p4890d96ada)" style="fill: none; stroke: #b0b0b0; stroke-width: 0.8; stroke-linecap: square"/>
     </g>
     <g id="line2d_6">
      <g>
       <use xlink:href="#m864116c54a" x="318.273742" y="384.48" style="stroke: #000000; stroke-width: 0.8"/>
      </g>
     </g>
     <g id="text_3">
      <!-- 4 -->
      <g transform="translate(315.092492 399.078438) scale(0.1 -0.1)">
       <defs>
        <path id="DejaVuSans-34" d="M 2419 4116 
L 825 1625 
L 2419 1625 
L 2419 4116 
z
M 2253 4666 
L 3047 4666 
L 3047 1625 
L 3713 1625 
L 3713 1100 
L 3047 1100 
L 3047 0 
L 2419 0 
L 2419 1100 
L 313 1100 
L 313 1709 
L 2253 4666 
z
" transform="scale(0.015625)"/>
       </defs>
       <use xlink:href="#DejaVuSans-34"/>
      </g>
     </g>
    </g>
    <g id="xtick_4">
     <g id="line2d_7">
      <path d="M 419.728795 384.48 
L 419.728795 51.84 
" clip-path="url(#p4890d96ada)" style="fill: none; stroke: #b0b0b0; stroke-width: 0.8; stroke-linecap: square"/>
     </g>
     <g id="line2d_8">
      <g>
       <use xlink:href="#m864116c54a" x="419.728795" y="384.48" style="stroke: #000000; stroke-width: 0.8"/>
      </g>
     </g>
     <g id="text_4">
      <!-- 6 -->
      <g transform="translate(416.547545 399.078438) scale(0.1 -0.1)">
       <defs>
        <path id="DejaVuSans-36" d="M 2113 2584 
Q 1688 2584 1439 2293 
Q 1191 2003 1191 1497 
Q 1191 994 1439 701 
Q 1688 409 2113 409 
Q 2538 409 2786 701 
Q 3034 994 3034 1497 
Q 3034 2003 2786 2293 
Q 2538 2584 2113 2584 
z
M 3366 4563 
L 3366 3988 
Q 3128 4100 2886 4159 
Q 2644 4219 2406 4219 
Q 1781 4219 1451 3797 
Q 1122 3375 1075 2522 
Q 1259 2794 1537 2939 
Q 1816 3084 2150 3084 
Q 2853 3084 3261 2657 
Q 3669 2231 3669 1497 
Q 3669 778 3244 343 
Q 2819 -91 2113 -91 
Q 1303 -91 875 529 
Q 447 1150 447 2328 
Q 447 3434 972 4092 
Q 1497 4750 2381 4750 
Q 2619 4750 2861 4703 
Q 3103 4656 3366 4563 
z
" transform="scale(0.015625)"/>
       </defs>
       <use xlink:href="#DejaVuSans-36"/>
      </g>
     </g>
    </g>
    <g id="xtick_5">
     <g id="line2d_9">
      <path d="M 521.183847 384.48 
L 521.183847 51.84 
" clip-path="url(#p4890d96ada)" style="fill: none; stroke: #b0b0b0; stroke-width: 0.8; stroke-linecap: square"/>
     </g>
     <g id="line2d_10">
      <g>
       <use xlink:href="#m864116c54a" x="521.183847" y="384.48" style="stroke: #000000; stroke-width: 0.8"/>
      </g>
     </g>
     <g id="text_5">
      <!-- 8 -->
      <g transform="translate(518.002597 399.078438) scale(0.1 -0.1)">
       <defs>
        <path id="DejaVuSans-38" d="M 2034 2216 
Q 1584 2216 1326 1975 
Q 1069 1734 1069 1313 
Q 1069 891 1326 650 
Q 1584 409 2034 409 
Q 2484 409 2743 651 
Q 3003 894 3003 1313 
Q 3003 1734 2745 1975 
Q 2488 2216 2034 2216 
z
M 1403 2484 
Q 997 2584 770 2862 
Q 544 3141 544 3541 
Q 544 4100 942 4425 
Q 1341 4750 2034 4750 
Q 2731 4750 3128 4425 
Q 3525 4100 3525 3541 
Q 3525 3141 3298 2862 
Q 3072 2584 2669 2484 
Q 3125 2378 3379 2068 
Q 3634 1759 3634 1313 
Q 3634 634 3220 271 
Q 2806 -91 2034 -91 
Q 1263 -91 848 271 
Q 434 634 434 1313 
Q 434 1759 690 2068 
Q 947 2378 1403 2484 
z
M 1172 3481 
Q 1172 3119 1398 2916 
Q 1625 2713 2034 2713 
Q 2441 2713 2670 2916 
Q 2900 3119 2900 3481 
Q 2900 3844 2670 4047 
Q 2441 4250 2034 4250 
Q 1625 4250 1398 4047 
Q 1172 3844 1172 3481 
z
" transform="scale(0.015625)"/>
       </defs>
       <use xlink:href="#DejaVuSans-38"/>
      </g>
     </g>
    </g>
    <g id="xtick_6">
     <g id="line2d_11">
      <path d="M 622.6389 384.48 
L 622.6389 51.84 
" clip-path="url(#p4890d96ada)" style="fill: none; stroke: #b0b0b0; stroke-width: 0.8; stroke-linecap: square"/>
     </g>
     <g id="line2d_12">
      <g>
       <use xlink:href="#m864116c54a" x="622.6389" y="384.48" style="stroke: #000000; stroke-width: 0.8"/>
      </g>
     </g>
     <g id="text_6">
      <!-- 10 -->
      <g transform="translate(616.2764 399.078438) scale(0.1 -0.1)">
       <defs>
        <path id="DejaVuSans-31" d="M 794 531 
L 1825 531 
L 1825 4091 
L 703 3866 
L 703 4441 
L 1819 4666 
L 2450 4666 
L 2450 531 
L 3481 531 
L 3481 0 
L 794 0 
L 794 531 
z
" transform="scale(0.015625)"/>
       </defs>
       <use xlink:href="#DejaVuSans-31"/>
       <use xlink:href="#DejaVuSans-30" x="63.623047"/>
      </g>
     </g>
    </g>
    <g id="text_7">
     <!-- Time (s) -->
     <g transform="translate(348.671094 412.756563) scale(0.1 -0.1)">
      <defs>
       <path id="DejaVuSans-54" d="M -19 4666 
L 3928 4666 
L 3928 4134 
L 2272 4134 
L 2272 0 
L 1638 0 
L 1638 4134 
L -19 4134 
L -19 4666 
z
" transform="scale(0.015625)"/>
       <path id="DejaVuSans-69" d="M 603 3500 
L 1178 3500 
L 1178 0 
L 603 0 
L 603 3500 
z
M 603 4863 
L 1178 4863 
L 1178 4134 
L 603 4134 
L 603 4863 
z
" transform="scale(0.015625)"/>
       <path id="DejaVuSans-6d" d="M 3328 2828 
Q 3544 3216 3844 3400 
Q 4144 3584 4550 3584 
Q 5097 3584 5394 3201 
Q 5691 2819 5691 2113 
L 5691 0 
L 5113 0 
L 5113 2094 
Q 5113 2597 4934 2840 
Q 4756 3084 4391 3084 
Q 3944 3084 3684 2787 
Q 3425 2491 3425 1978 
L 3425 0 
L 2847 0 
L 2847 2094 
Q 2847 2600 2669 2842 
Q 2491 3084 2119 3084 
Q 1678 3084 1418 2786 
Q 1159 2488 1159 1978 
L 1159 0 
L 581 0 
L 581 3500 
L 1159 3500 
L 1159 2956 
Q 1356 3278 1631 3431 
Q 1906 3584 2284 3584 
Q 2666 3584 2933 3390 
Q 3200 3197 3328 2828 
z
" transform="scale(0.015625)"/>
       <path id="DejaVuSans-65" d="M 3597 1894 
L 3597 1613 
L 953 1613 
Q 991 1019 1311 708 
Q 1631 397 2203 397 
Q 2534 397 2845 478 
Q 3156 559 3463 722 
L 3463 178 
Q 3153 47 2828 -22 
Q 2503 -91 2169 -91 
Q 1331 -91 842 396 
Q 353 884 353 1716 
Q 353 2575 817 3079 
Q 1281 3584 2069 3584 
Q 2775 3584 3186 3129 
Q 3597 2675 3597 1894 
z
M 3022 2063 
Q 3016 2534 2758 2815 
Q 2500 3097 2075 3097 
Q 1594 3097 1305 2825 
Q 1016 2553 972 2059 
L 3022 2063 
z
" transform="scale(0.015625)"/>
       <path id="DejaVuSans-20" transform="scale(0.015625)"/>
       <path id="DejaVuSans-28" d="M 1984 4856 
Q 1566 4138 1362 3434 
Q 1159 2731 1159 2009 
Q 1159 1288 1364 580 
Q 1569 -128 1984 -844 
L 1484 -844 
Q 1016 -109 783 600 
Q 550 1309 550 2009 
Q 550 2706 781 3412 
Q 1013 4119 1484 4856 
L 1984 4856 
z
" transform="scale(0.015625)"/>
       <path id="DejaVuSans-73" d="M 2834 3397 
L 2834 2853 
Q 2591 2978 2328 3040 
Q 2066 3103 1784 3103 
Q 1356 3103 1142 2972 
Q 928 2841 928 2578 
Q 928 2378 1081 2264 
Q 1234 2150 1697 2047 
L 1894 2003 
Q 2506 1872 2764 1633 
Q 3022 1394 3022 966 
Q 3022 478 2636 193 
Q 2250 -91 1575 -91 
Q 1294 -91 989 -36 
Q 684 19 347 128 
L 347 722 
Q 666 556 975 473 
Q 1284 391 1588 391 
Q 1994 391 2212 530 
Q 2431 669 2431 922 
Q 2431 1156 2273 1281 
Q 2116 1406 1581 1522 
L 1381 1569 
Q 847 1681 609 1914 
Q 372 2147 372 2553 
Q 372 3047 722 3315 
Q 1072 3584 1716 3584 
Q 2034 3584 2315 3537 
Q 2597 3491 2834 3397 
z
" transform="scale(0.015625)"/>
       <path id="DejaVuSans-29" d="M 513 4856 
L 1013 4856 
Q 1481 4119 1714 3412 
Q 1947 2706 1947 2009 
Q 1947 1309 1714 600 
Q 1481 -109 1013 -844 
L 513 -844 
Q 928 -128 1133 580 
Q 1338 1288 1338 2009 
Q 1338 2731 1133 3434 
Q 928 4138 513 4856 
z
" transform="scale(0.015625)"/>
      </defs>
      <use xlink:href="#DejaVuSans-54"/>
      <use xlink:href="#DejaVuSans-69" x="57.958984"/>
      <use xlink:href="#DejaVuSans-6d" x="85.742188"/>
      <use xlink:href="#DejaVuSans-65" x="183.154297"/>
      <use xlink:href="#DejaVuSans-20" x="244.677734"/>
      <use xlink:href="#DejaVuSans-28" x="276.464844"/>
      <use xlink:href="#DejaVuSans-73" x="315.478516"/>
      <use xlink:href="#DejaVuSans-29" x="367.578125"/>
     </g>
    </g>
   </g>
   <g id="matplotlib.axis_2">
    <g id="ytick_1">
     <g id="line2d_13">
      <path d="M 90 352.081332 
L 648 352.081332 
" clip-path="url(#p4890d96ada)" style="fill: none; stroke: #b0b0b0; stroke-width: 0.8; stroke-linecap: square"/>
     </g>
     <g id="line2d_14">
      <defs>
       <path id="m842e9610b2" d="M 0 0 
L -3.5 0 
" style="stroke: #000000; stroke-width: 0.8"/>
      </defs>
      <g>
       <use xlink:href="#m842e9610b2" x="90" y="352.081332" style="stroke: #000000; stroke-width: 0.8"/>
      </g>
     </g>
     <g id="text_8">
      <!-- −70 -->
      <g transform="translate(61.895313 355.880551) scale(0.1 -0.1)">
       <defs>
        <path id="DejaVuSans-2212" d="M 678 2272 
L 4684 2272 
L 4684 1741 
L 678 1741 
L 678 2272 
z
" transform="scale(0.015625)"/>
        <path id="DejaVuSans-37" d="M 525 4666 
L 3525 4666 
L 3525 4397 
L 1831 0 
L 1172 0 
L 2766 4134 
L 525 4134 
L 525 4666 
z
" transform="scale(0.015625)"/>
       </defs>
       <use xlink:href="#DejaVuSans-2212"/>
       <use xlink:href="#DejaVuSans-37" x="83.789062"/>
       <use xlink:href="#DejaVuSans-30" x="147.412109"/>
      </g>
     </g>
    </g>
    <g id="ytick_2">
     <g id="line2d_15">
      <path d="M 90 309.351069 
L 648 309.351069 
" clip-path="url(#p4890d96ada)" style="fill: none; stroke: #b0b0b0; stroke-width: 0.8; stroke-linecap: square"/>
     </g>
     <g id="line2d_16">
      <g>
       <use xlink:href="#m842e9610b2" x="90" y="309.351069" style="stroke: #000000; stroke-width: 0.8"/>
      </g>
     </g>
     <g id="text_9">
      <!-- −68 -->
      <g transform="translate(61.895313 313.150288) scale(0.1 -0.1)">
       <use xlink:href="#DejaVuSans-2212"/>
       <use xlink:href="#DejaVuSans-36" x="83.789062"/>
       <use xlink:href="#DejaVuSans-38" x="147.412109"/>
      </g>
     </g>
    </g>
    <g id="ytick_3">
     <g id="line2d_17">
      <path d="M 90 266.620806 
L 648 266.620806 
" clip-path="url(#p4890d96ada)" style="fill: none; stroke: #b0b0b0; stroke-width: 0.8; stroke-linecap: square"/>
     </g>
     <g id="line2d_18">
      <g>
       <use xlink:href="#m842e9610b2" x="90" y="266.620806" style="stroke: #000000; stroke-width: 0.8"/>
      </g>
     </g>
     <g id="text_10">
      <!-- −66 -->
      <g transform="translate(61.895313 270.420024) scale(0.1 -0.1)">
       <use xlink:href="#DejaVuSans-2212"/>
       <use xlink:href="#DejaVuSans-36" x="83.789062"/>
       <use xlink:href="#DejaVuSans-36" x="147.412109"/>
      </g>
     </g>
    </g>
    <g id="ytick_4">
     <g id="line2d_19">
      <path d="M 90 223.890542 
L 648 223.890542 
" clip-path="url(#p4890d96ada)" style="fill: none; stroke: #b0b0b0; stroke-width: 0.8; stroke-linecap: square"/>
     </g>
     <g id="line2d_20">
      <g>
       <use xlink:href="#m842e9610b2" x="90" y="223.890542" style="stroke: #000000; stroke-width: 0.8"/>
      </g>
     </g>
     <g id="text_11">
      <!-- −64 -->
      <g transform="translate(61.895313 227.689761) scale(0.1 -0.1)">
       <use xlink:href="#DejaVuSans-2212"/>
       <use xlink:href="#DejaVuSans-36" x="83.789062"/>
       <use xlink:href="#DejaVuSans-34" x="147.412109"/>
      </g>
     </g>
    </g>
    <g id="ytick_5">
     <g id="line2d_21">
      <path d="M 90 181.160279 
L 648 181.160279 
" clip-path="url(#p4890d96ada)" style="fill: none; stroke: #b0b0b0; stroke-width: 0.8; stroke-linecap: square"/>
     </g>
     <g id="line2d_22">
      <g>
       <use xlink:href="#m842e9610b2" x="90" y="181.160279" style="stroke: #000000; stroke-width: 0.8"/>
      </g>
     </g>
     <g id="text_12">
      <!-- −62 -->
      <g transform="translate(61.895313 184.959498) scale(0.1 -0.1)">
       <use xlink:href="#DejaVuSans-2212"/>
       <use xlink:href="#DejaVuSans-36" x="83.789062"/>
       <use xlink:href="#DejaVuSans-32" x="147.412109"/>
      </g>
     </g>
    </g>
    <g id="ytick_6">
     <g id="line2d_23">
      <path d="M 90 138.430016 
L 648 138.430016 
" clip-path="url(#p4890d96ada)" style="fill: none; stroke: #b0b0b0; stroke-width: 0.8; stroke-linecap: square"/>
     </g>
     <g id="line2d_24">
      <g>
       <use xlink:href="#m842e9610b2" x="90" y="138.430016" style="stroke: #000000; stroke-width: 0.8"/>
      </g>
     </g>
     <g id="text_13">
      <!-- −60 -->
      <g transform="translate(61.895313 142.229235) scale(0.1 -0.1)">
       <use xlink:href="#DejaVuSans-2212"/>
       <use xlink:href="#DejaVuSans-36" x="83.789062"/>
       <use xlink:href="#DejaVuSans-30" x="147.412109"/>
      </g>
     </g>
    </g>
    <g id="ytick_7">
     <g id="line2d_25">
      <path d="M 90 95.699753 
L 648 95.699753 
" clip-path="url(#p4890d96ada)" style="fill: none; stroke: #b0b0b0; stroke-width: 0.8; stroke-linecap: square"/>
     </g>
     <g id="line2d_26">
      <g>
       <use xlink:href="#m842e9610b2" x="90" y="95.699753" style="stroke: #000000; stroke-width: 0.8"/>
      </g>
     </g>
     <g id="text_14">
      <!-- −58 -->
      <g transform="translate(61.895313 99.498971) scale(0.1 -0.1)">
       <defs>
        <path id="DejaVuSans-35" d="M 691 4666 
L 3169 4666 
L 3169 4134 
L 1269 4134 
L 1269 2991 
Q 1406 3038 1543 3061 
Q 1681 3084 1819 3084 
Q 2600 3084 3056 2656 
Q 3513 2228 3513 1497 
Q 3513 744 3044 326 
Q 2575 -91 1722 -91 
Q 1428 -91 1123 -41 
Q 819 9 494 109 
L 494 744 
Q 775 591 1075 516 
Q 1375 441 1709 441 
Q 2250 441 2565 725 
Q 2881 1009 2881 1497 
Q 2881 1984 2565 2268 
Q 2250 2553 1709 2553 
Q 1456 2553 1204 2497 
Q 953 2441 691 2322 
L 691 4666 
z
" transform="scale(0.015625)"/>
       </defs>
       <use xlink:href="#DejaVuSans-2212"/>
       <use xlink:href="#DejaVuSans-35" x="83.789062"/>
       <use xlink:href="#DejaVuSans-38" x="147.412109"/>
      </g>
     </g>
    </g>
    <g id="ytick_8">
     <g id="line2d_27">
      <path d="M 90 52.969489 
L 648 52.969489 
" clip-path="url(#p4890d96ada)" style="fill: none; stroke: #b0b0b0; stroke-width: 0.8; stroke-linecap: square"/>
     </g>
     <g id="line2d_28">
      <g>
       <use xlink:href="#m842e9610b2" x="90" y="52.969489" style="stroke: #000000; stroke-width: 0.8"/>
      </g>
     </g>
     <g id="text_15">
      <!-- −56 -->
      <g transform="translate(61.895313 56.768708) scale(0.1 -0.1)">
       <use xlink:href="#DejaVuSans-2212"/>
       <use xlink:href="#DejaVuSans-35" x="83.789062"/>
       <use xlink:href="#DejaVuSans-36" x="147.412109"/>
      </g>
     </g>
    </g>
    <g id="text_16">
     <!-- Power (arbitrary units) -->
     <g transform="translate(55.815625 274.4225) rotate(-90) scale(0.1 -0.1)">
      <defs>
       <path id="DejaVuSans-50" d="M 1259 4147 
L 1259 2394 
L 2053 2394 
Q 2494 2394 2734 2622 
Q 2975 2850 2975 3272 
Q 2975 3691 2734 3919 
Q 2494 4147 2053 4147 
L 1259 4147 
z
M 628 4666 
L 2053 4666 
Q 2838 4666 3239 4311 
Q 3641 3956 3641 3272 
Q 3641 2581 3239 2228 
Q 2838 1875 2053 1875 
L 1259 1875 
L 1259 0 
L 628 0 
L 628 4666 
z
" transform="scale(0.015625)"/>
       <path id="DejaVuSans-6f" d="M 1959 3097 
Q 1497 3097 1228 2736 
Q 959 2375 959 1747 
Q 959 1119 1226 758 
Q 1494 397 1959 397 
Q 2419 397 2687 759 
Q 2956 1122 2956 1747 
Q 2956 2369 2687 2733 
Q 2419 3097 1959 3097 
z
M 1959 3584 
Q 2709 3584 3137 3096 
Q 3566 2609 3566 1747 
Q 3566 888 3137 398 
Q 2709 -91 1959 -91 
Q 1206 -91 779 398 
Q 353 888 353 1747 
Q 353 2609 779 3096 
Q 1206 3584 1959 3584 
z
" transform="scale(0.015625)"/>
       <path id="DejaVuSans-77" d="M 269 3500 
L 844 3500 
L 1563 769 
L 2278 3500 
L 2956 3500 
L 3675 769 
L 4391 3500 
L 4966 3500 
L 4050 0 
L 3372 0 
L 2619 2869 
L 1863 0 
L 1184 0 
L 269 3500 
z
" transform="scale(0.015625)"/>
       <path id="DejaVuSans-72" d="M 2631 2963 
Q 2534 3019 2420 3045 
Q 2306 3072 2169 3072 
Q 1681 3072 1420 2755 
Q 1159 2438 1159 1844 
L 1159 0 
L 581 0 
L 581 3500 
L 1159 3500 
L 1159 2956 
Q 1341 3275 1631 3429 
Q 1922 3584 2338 3584 
Q 2397 3584 2469 3576 
Q 2541 3569 2628 3553 
L 2631 2963 
z
" transform="scale(0.015625)"/>
       <path id="DejaVuSans-61" d="M 2194 1759 
Q 1497 1759 1228 1600 
Q 959 1441 959 1056 
Q 959 750 1161 570 
Q 1363 391 1709 391 
Q 2188 391 2477 730 
Q 2766 1069 2766 1631 
L 2766 1759 
L 2194 1759 
z
M 3341 1997 
L 3341 0 
L 2766 0 
L 2766 531 
Q 2569 213 2275 61 
Q 1981 -91 1556 -91 
Q 1019 -91 701 211 
Q 384 513 384 1019 
Q 384 1609 779 1909 
Q 1175 2209 1959 2209 
L 2766 2209 
L 2766 2266 
Q 2766 2663 2505 2880 
Q 2244 3097 1772 3097 
Q 1472 3097 1187 3025 
Q 903 2953 641 2809 
L 641 3341 
Q 956 3463 1253 3523 
Q 1550 3584 1831 3584 
Q 2591 3584 2966 3190 
Q 3341 2797 3341 1997 
z
" transform="scale(0.015625)"/>
       <path id="DejaVuSans-62" d="M 3116 1747 
Q 3116 2381 2855 2742 
Q 2594 3103 2138 3103 
Q 1681 3103 1420 2742 
Q 1159 2381 1159 1747 
Q 1159 1113 1420 752 
Q 1681 391 2138 391 
Q 2594 391 2855 752 
Q 3116 1113 3116 1747 
z
M 1159 2969 
Q 1341 3281 1617 3432 
Q 1894 3584 2278 3584 
Q 2916 3584 3314 3078 
Q 3713 2572 3713 1747 
Q 3713 922 3314 415 
Q 2916 -91 2278 -91 
Q 1894 -91 1617 61 
Q 1341 213 1159 525 
L 1159 0 
L 581 0 
L 581 4863 
L 1159 4863 
L 1159 2969 
z
" transform="scale(0.015625)"/>
       <path id="DejaVuSans-74" d="M 1172 4494 
L 1172 3500 
L 2356 3500 
L 2356 3053 
L 1172 3053 
L 1172 1153 
Q 1172 725 1289 603 
Q 1406 481 1766 481 
L 2356 481 
L 2356 0 
L 1766 0 
Q 1100 0 847 248 
Q 594 497 594 1153 
L 594 3053 
L 172 3053 
L 172 3500 
L 594 3500 
L 594 4494 
L 1172 4494 
z
" transform="scale(0.015625)"/>
       <path id="DejaVuSans-79" d="M 2059 -325 
Q 1816 -950 1584 -1140 
Q 1353 -1331 966 -1331 
L 506 -1331 
L 506 -850 
L 844 -850 
Q 1081 -850 1212 -737 
Q 1344 -625 1503 -206 
L 1606 56 
L 191 3500 
L 800 3500 
L 1894 763 
L 2988 3500 
L 3597 3500 
L 2059 -325 
z
" transform="scale(0.015625)"/>
       <path id="DejaVuSans-75" d="M 544 1381 
L 544 3500 
L 1119 3500 
L 1119 1403 
Q 1119 906 1312 657 
Q 1506 409 1894 409 
Q 2359 409 2629 706 
Q 2900 1003 2900 1516 
L 2900 3500 
L 3475 3500 
L 3475 0 
L 2900 0 
L 2900 538 
Q 2691 219 2414 64 
Q 2138 -91 1772 -91 
Q 1169 -91 856 284 
Q 544 659 544 1381 
z
M 1991 3584 
L 1991 3584 
z
" transform="scale(0.015625)"/>
       <path id="DejaVuSans-6e" d="M 3513 2113 
L 3513 0 
L 2938 0 
L 2938 2094 
Q 2938 2591 2744 2837 
Q 2550 3084 2163 3084 
Q 1697 3084 1428 2787 
Q 1159 2491 1159 1978 
L 1159 0 
L 581 0 
L 581 3500 
L 1159 3500 
L 1159 2956 
Q 1366 3272 1645 3428 
Q 1925 3584 2291 3584 
Q 2894 3584 3203 3211 
Q 3513 2838 3513 2113 
z
" transform="scale(0.015625)"/>
      </defs>
      <use xlink:href="#DejaVuSans-50"/>
      <use xlink:href="#DejaVuSans-6f" x="56.677734"/>
      <use xlink:href="#DejaVuSans-77" x="117.859375"/>
      <use xlink:href="#DejaVuSans-65" x="199.646484"/>
      <use xlink:href="#DejaVuSans-72" x="261.169922"/>
      <use xlink:href="#DejaVuSans-20" x="302.283203"/>
      <use xlink:href="#DejaVuSans-28" x="334.070312"/>
      <use xlink:href="#DejaVuSans-61" x="373.083984"/>
      <use xlink:href="#DejaVuSans-72" x="434.363281"/>
      <use xlink:href="#DejaVuSans-62" x="475.476562"/>
      <use xlink:href="#DejaVuSans-69" x="538.953125"/>
      <use xlink:href="#DejaVuSans-74" x="566.736328"/>
      <use xlink:href="#DejaVuSans-72" x="605.945312"/>
      <use xlink:href="#DejaVuSans-61" x="647.058594"/>
      <use xlink:href="#DejaVuSans-72" x="708.337891"/>
      <use xlink:href="#DejaVuSans-79" x="749.451172"/>
      <use xlink:href="#DejaVuSans-20" x="808.630859"/>
      <use xlink:href="#DejaVuSans-75" x="840.417969"/>
      <use xlink:href="#DejaVuSans-6e" x="903.796875"/>
      <use xlink:href="#DejaVuSans-69" x="967.175781"/>
      <use xlink:href="#DejaVuSans-74" x="994.958984"/>
      <use xlink:href="#DejaVuSans-73" x="1034.167969"/>
      <use xlink:href="#DejaVuSans-29" x="1086.267578"/>
     </g>
    </g>
   </g>
   <g id="line2d_29">
    <path d="M 115.363636 205.01739 
L 118.53157 205.163861 
L 119.93165 205.440408 
L 120.900546 205.851531 
L 121.679213 206.422488 
L 122.366571 207.208735 
L 123.008275 208.293777 
L 123.632223 209.807305 
L 124.251099 211.923448 
L 124.872511 214.883557 
L 125.501533 219.022119 
L 126.140699 224.789383 
L 126.792548 232.803605 
L 127.457079 243.862096 
L 128.139364 259.132609 
L 128.839404 280.070942 
L 129.270588 296.219419 
L 129.349215 293.808807 
L 130.082228 267.289615 
L 130.840605 231.403381 
L 131.033369 226.977381 
L 131.832328 220.510898 
L 131.979438 218.204356 
L 132.742887 181.793614 
L 132.791078 188.203914 
L 133.628082 287.360373 
L 133.950202 302.019481 
L 133.980639 298.311382 
L 134.442259 238.785953 
L 134.500596 247.820905 
L 134.886125 310.432411 
L 134.957143 302.340737 
L 135.294481 261.873295 
L 135.332527 270.981571 
L 135.674938 355.235241 
L 135.791611 354.849641 
L 136.027494 354.052606 
L 136.035103 354.391007 
L 136.362296 369.331773 
L 136.38766 365.377973 
L 137.283001 208.029264 
L 137.356555 226.127228 
L 137.569611 280.74245 
L 137.671066 278.342752 
L 137.861294 271.229672 
L 138.120005 218.110934 
L 138.203705 223.207177 
L 138.383788 234.146306 
L 138.401542 229.267874 
L 138.645035 162.249448 
L 138.705908 176.033935 
L 139.144701 250.476045 
L 139.154846 251.728016 
L 139.185283 241.955639 
L 139.408484 166.5186 
L 139.484575 178.129775 
L 139.659585 204.920455 
L 139.695094 193.638588 
L 139.910686 123.580459 
L 139.974096 138.734763 
L 140.164324 185.343381 
L 140.248024 179.675018 
L 140.486444 156.241747 
L 140.803491 120.227281 
L 141.191556 112.417295 
L 141.199166 112.31956 
L 141.219457 113.714621 
L 141.470558 130.746273 
L 141.541576 128.318224 
L 141.752096 121.217512 
L 141.83326 122.032196 
L 142.041242 124.075646 
L 142.048852 123.396473 
L 142.480036 84.299183 
L 142.675337 79.518552 
L 142.718455 81.104138 
L 143.030429 92.25504 
L 143.088766 90.858237 
L 143.423568 83.343621 
L 143.476831 84.245143 
L 143.880115 90.494082 
L 143.900406 89.612751 
L 144.471091 66.964483 
L 144.488846 67.478207 
L 145.039239 80.116731 
L 145.455205 85.335482 
L 145.739279 86.710921 
L 145.843271 86.76767 
L 145.87878 86.73217 
L 146.010671 86.35586 
L 146.221191 84.95873 
L 146.523019 81.257945 
L 146.923767 73.301576 
L 147.162186 66.96 
L 147.217987 68.808192 
L 147.753162 90.492787 
L 147.895199 88.438286 
L 148.212246 83.349305 
L 148.26551 84.445459 
L 148.607921 92.267837 
L 148.658648 90.548013 
L 148.963013 79.531183 
L 149.036568 81.254021 
L 149.318106 90.628829 
L 149.60218 124.077553 
L 149.708708 123.046757 
L 149.893864 121.216248 
L 149.919227 122.030458 
L 150.177938 130.730161 
L 150.213447 128.370675 
L 150.451866 112.307862 
L 150.543176 113.744364 
L 150.865296 120.605635 
L 151.004796 127.578178 
L 151.425835 180.426089 
L 151.49939 185.333991 
L 151.522217 180.071342 
L 151.755564 123.504952 
L 151.803755 138.427064 
L 152.011738 204.825998 
L 152.085293 194.034001 
L 152.267912 166.647836 
L 152.300885 177.121563 
L 152.526622 251.717217 
L 152.607786 242.132781 
L 152.917224 191.78732 
L 153.051652 162.119506 
L 153.099843 175.032826 
L 153.320508 234.224891 
L 153.409281 228.957162 
L 153.594437 218.022726 
L 153.6198 223.017479 
L 153.99772 276.926733 
L 154.165121 280.731109 
L 154.17273 278.990676 
L 154.464414 208.007325 
L 154.525287 218.986674 
L 155.445991 369.304774 
L 155.448528 369.273553 
L 155.813766 354.053475 
L 155.902539 354.33215 
L 156.201831 355.236771 
L 156.204368 355.178196 
L 156.630479 261.914232 
L 156.693888 268.54908 
L 157.104781 310.419355 
L 157.142827 305.00105 
L 157.639957 238.910483 
L 157.685612 243.640186 
L 158.274051 302.009589 
L 158.319706 300.403351 
L 159.166855 267.058515 
L 159.94045 200.487165 
L 160.216915 181.787954 
L 160.285397 183.418361 
L 160.949928 196.682041 
L 161.530758 204.252813 
L 162.020279 208.057028 
L 162.403272 209.559194 
L 162.672127 209.905687 
L 162.847137 209.83714 
L 163.060193 209.456533 
L 163.362022 208.38858 
L 163.770378 206.026997 
L 164.303017 201.511987 
L 164.98023 193.708617 
L 165.79187 181.764567 
L 165.842598 183.873688 
L 166.892658 232.414974 
L 167.960472 280.621982 
L 169.31997 302.022871 
L 169.368161 299.965899 
L 170.740341 238.82026 
L 170.813895 242.687233 
L 172.069402 310.504008 
L 172.150566 307.456335 
L 173.347735 261.834688 
L 173.390854 264.834055 
L 174.610851 355.242348 
L 174.722451 355.136394 
L 175.876503 354.048898 
L 175.889184 354.173037 
L 177.187809 369.36 
L 177.2081 368.587576 
L 179.092628 298.884309 
L 181.020274 237.172189 
L 182.095697 207.832972 
L 182.103306 208.073476 
L 183.128002 236.935286 
L 184.003052 255.763604 
L 184.741138 267.249039 
L 185.349868 273.597104 
L 185.83178 276.584399 
L 186.186872 277.623284 
L 186.415146 277.768742 
L 186.58762 277.607325 
L 186.820966 277.017407 
L 187.14055 275.517402 
L 187.556516 272.371756 
L 188.073936 266.591531 
L 188.697885 256.910731 
L 189.433434 241.792141 
L 190.293266 219.246271 
L 190.668649 207.832916 
L 190.737131 209.518986 
L 191.810019 239.14795 
L 193.580409 295.795022 
L 195.076871 349.972916 
L 195.576537 369.35897 
L 195.665311 368.344652 
L 196.885308 354.048882 
L 197.014663 354.167594 
L 198.153496 355.243001 
L 198.156032 355.084055 
L 199.414075 261.806347 
L 199.485093 264.5437 
L 200.689872 310.488852 
L 200.730454 308.281654 
L 202.011324 238.843567 
L 202.056979 240.857842 
L 203.411404 302.033007 
L 203.462131 301.186108 
L 204.999175 273.265998 
L 206.635138 181.781415 
L 206.642747 181.905998 
L 208.235592 212.370518 
L 208.770767 219.892931 
L 210.252011 225.030106 
L 211.220907 228.455585 
L 212.56265 256.528524 
L 213.853665 279.047222 
L 215.038153 296.230159 
L 215.040689 296.185433 
L 216.253077 276.774761 
L 217.432492 261.326665 
L 218.584007 249.057111 
L 219.710158 239.34891 
L 220.813482 231.693214 
L 221.899051 225.662092 
L 222.966865 220.936907 
L 224.021998 217.237686 
L 225.069521 214.345563 
L 226.117045 212.08453 
L 227.172177 210.320014 
L 228.250137 208.93989 
L 229.371215 207.859378 
L 230.568385 207.011953 
L 231.892374 206.349076 
L 233.416736 205.839656 
L 235.273363 205.462151 
L 237.726039 205.203781 
L 241.467194 205.055974 
L 249.791581 205.005639 
L 320.064424 205.060449 
L 322.090988 205.260396 
L 323.267867 205.590178 
L 324.142917 206.061958 
L 324.875929 206.711507 
L 325.54046 207.606485 
L 326.172018 208.845805 
L 326.79343 210.581034 
L 327.412306 213.00444 
L 328.036254 216.395117 
L 328.670348 221.141672 
L 329.314588 227.739862 
L 329.971509 236.883033 
L 330.643649 249.514873 
L 331.331007 266.839041 
L 332.038656 290.596203 
L 332.180693 296.219419 
L 332.244103 294.285689 
L 332.977115 267.916045 
L 333.735492 232.219607 
L 333.943475 226.977381 
L 334.742433 220.510898 
L 334.889543 218.204356 
L 335.652992 181.793614 
L 335.701184 188.203914 
L 336.538188 287.360373 
L 336.860307 302.019481 
L 336.890744 298.311382 
L 337.352364 238.785953 
L 337.410701 247.820905 
L 337.79623 310.432411 
L 337.867249 302.340737 
L 338.204587 261.873295 
L 338.242633 270.981571 
L 338.585043 355.235241 
L 338.701717 354.849641 
L 338.9376 354.052606 
L 338.945209 354.391007 
L 339.272401 369.331773 
L 339.297765 365.377973 
L 340.193106 208.029264 
L 340.266661 226.127228 
L 340.479716 280.74245 
L 340.581172 278.342752 
L 340.7714 271.229672 
L 341.03011 218.110934 
L 341.113811 223.207177 
L 341.293893 234.146306 
L 341.311648 229.267874 
L 341.55514 162.249448 
L 341.616013 176.033935 
L 342.054806 250.476045 
L 342.064952 251.728016 
L 342.095388 241.955639 
L 342.318589 166.5186 
L 342.394681 178.129775 
L 342.569691 204.920455 
L 342.6052 193.638588 
L 342.820792 123.580459 
L 342.884201 138.734763 
L 343.074429 185.343381 
L 343.15813 179.675018 
L 343.396549 156.241747 
L 343.713596 120.227281 
L 344.101662 112.417295 
L 344.109271 112.31956 
L 344.129562 113.714621 
L 344.380663 130.746273 
L 344.451682 128.318224 
L 344.662201 121.217512 
L 344.743365 122.032196 
L 344.951348 124.075646 
L 344.958957 123.396473 
L 345.390141 84.299183 
L 345.585442 79.518552 
L 345.62856 81.104138 
L 345.940535 92.25504 
L 345.998871 90.858237 
L 346.333673 83.343621 
L 346.386937 84.245143 
L 346.790221 90.494082 
L 346.810512 89.612751 
L 347.381196 66.964483 
L 347.398951 67.478207 
L 347.949345 80.116731 
L 348.36531 85.335482 
L 348.649385 86.710921 
L 348.753376 86.76767 
L 348.788885 86.73217 
L 348.920777 86.35586 
L 349.131296 84.95873 
L 349.433125 81.257945 
L 349.833872 73.301576 
L 350.072292 66.96 
L 350.128092 68.808192 
L 350.663267 90.492787 
L 350.805304 88.438286 
L 351.122352 83.349305 
L 351.175615 84.445459 
L 351.518026 92.267837 
L 351.568754 90.548013 
L 351.873119 79.531183 
L 351.946674 81.254021 
L 352.228212 90.628829 
L 352.512286 124.077553 
L 352.618814 123.046757 
L 352.803969 121.216248 
L 352.829333 122.030458 
L 353.088043 130.730161 
L 353.123552 128.370675 
L 353.361972 112.307862 
L 353.453281 113.744364 
L 353.775401 120.605635 
L 353.914902 127.578178 
L 354.33594 180.426089 
L 354.409495 185.333991 
L 354.432323 180.071342 
L 354.665669 123.504952 
L 354.71386 138.427064 
L 354.921843 204.825998 
L 354.995398 194.034001 
L 355.178017 166.647836 
L 355.21099 177.121563 
L 355.436728 251.717217 
L 355.517892 242.132781 
L 355.82733 191.78732 
L 355.961758 162.119506 
L 356.009949 175.032826 
L 356.230613 234.224891 
L 356.319387 228.957162 
L 356.504542 218.022726 
L 356.529906 223.017479 
L 356.907826 276.926733 
L 357.075227 280.731109 
L 357.082836 278.990676 
L 357.374519 208.007325 
L 357.435392 218.986674 
L 358.356097 369.304774 
L 358.358633 369.273553 
L 358.723871 354.053475 
L 358.812645 354.33215 
L 359.111937 355.236771 
L 359.114473 355.178196 
L 359.540585 261.914232 
L 359.603994 268.54908 
L 360.014887 310.419355 
L 360.052933 305.00105 
L 360.550062 238.910483 
L 360.595717 243.640186 
L 361.184156 302.009589 
L 361.229811 300.403351 
L 362.076961 267.058515 
L 362.850556 200.487165 
L 363.127021 181.787954 
L 363.195503 183.418361 
L 363.860033 196.682041 
L 364.440864 204.252813 
L 364.930384 208.057028 
L 365.313377 209.559194 
L 365.582233 209.905687 
L 365.757243 209.83714 
L 365.970298 209.456533 
L 366.272127 208.38858 
L 366.680484 206.026997 
L 367.213123 201.511987 
L 367.890335 193.708617 
L 368.701976 181.764567 
L 368.752703 183.873688 
L 369.802763 232.414974 
L 370.870578 280.621982 
L 372.230075 302.022871 
L 372.278266 299.965899 
L 373.650446 238.82026 
L 373.724001 242.687233 
L 374.979507 310.504008 
L 375.060671 307.456335 
L 376.257841 261.834688 
L 376.300959 264.834055 
L 377.520956 355.242348 
L 377.632557 355.136394 
L 378.786608 354.048898 
L 378.79929 354.173037 
L 380.097915 369.36 
L 380.118206 368.587576 
L 382.002733 298.884309 
L 383.930379 237.172189 
L 385.005803 207.832972 
L 385.013412 208.073476 
L 386.038108 236.935286 
L 386.913158 255.763604 
L 387.651243 267.249039 
L 388.259974 273.597104 
L 388.741885 276.584399 
L 389.096978 277.623284 
L 389.325252 277.768742 
L 389.497725 277.607325 
L 389.731072 277.017407 
L 390.050655 275.517402 
L 390.466621 272.371756 
L 390.984042 266.591531 
L 391.60799 256.910731 
L 392.343539 241.792141 
L 393.203371 219.246271 
L 393.578755 207.832916 
L 393.647237 209.518986 
L 394.720124 239.14795 
L 396.490515 295.795022 
L 397.986977 349.972916 
L 398.486643 369.35897 
L 398.575416 368.344652 
L 399.795413 354.048882 
L 399.924768 354.167594 
L 401.063601 355.243001 
L 401.066138 355.084055 
L 402.32418 261.806347 
L 402.395199 264.5437 
L 403.599978 310.488852 
L 403.64056 308.281654 
L 404.92143 238.843567 
L 404.967084 240.857842 
L 406.321509 302.033007 
L 406.372237 301.186108 
L 407.909281 273.265998 
L 409.545244 181.781415 
L 409.552853 181.905998 
L 411.145697 212.370518 
L 411.680872 219.892931 
L 413.162116 225.030106 
L 414.131012 228.455585 
L 415.472755 256.528524 
L 416.763771 279.047222 
L 417.948258 296.230159 
L 417.950795 296.185433 
L 419.163183 276.774761 
L 420.342598 261.326665 
L 421.494112 249.057111 
L 422.620264 239.34891 
L 423.723587 231.693214 
L 424.809156 225.662092 
L 425.876971 220.936907 
L 426.932103 217.237686 
L 427.979627 214.345563 
L 429.02715 212.08453 
L 430.082283 210.320014 
L 431.160243 208.93989 
L 432.281321 207.859378 
L 433.478491 207.011953 
L 434.802479 206.349076 
L 436.326841 205.839656 
L 438.183469 205.462151 
L 440.636145 205.203781 
L 444.3773 205.055974 
L 452.701687 205.005639 
L 522.974529 205.060449 
L 525.001094 205.260396 
L 526.177972 205.590178 
L 527.053022 206.061958 
L 527.786035 206.711507 
L 528.450565 207.606485 
L 529.082123 208.845805 
L 529.703535 210.581034 
L 530.322411 213.00444 
L 530.94636 216.395117 
L 531.580454 221.141672 
L 532.224693 227.739862 
L 532.881615 236.883033 
L 533.553755 249.514873 
L 534.241113 266.839041 
L 534.948762 290.596203 
L 535.090799 296.219419 
L 535.154208 294.285689 
L 535.887221 267.916045 
L 536.645597 232.219607 
L 536.85358 226.977381 
L 537.652539 220.510898 
L 537.799649 218.204356 
L 538.563098 181.793614 
L 538.611289 188.203914 
L 539.448293 287.360373 
L 539.770413 302.019481 
L 539.800849 298.311382 
L 540.26247 238.785953 
L 540.320807 247.820905 
L 540.706336 310.432411 
L 540.777354 302.340737 
L 541.114692 261.873295 
L 541.152738 270.981571 
L 541.495149 355.235241 
L 541.611822 354.849641 
L 541.847705 354.052606 
L 541.855314 354.391007 
L 542.182507 369.331773 
L 542.207871 365.377973 
L 543.103211 208.029264 
L 543.176766 226.127228 
L 543.389822 280.74245 
L 543.491277 278.342752 
L 543.681505 271.229672 
L 543.940216 218.110934 
L 544.023916 223.207177 
L 544.203999 234.146306 
L 544.221753 229.267874 
L 544.465246 162.249448 
L 544.526119 176.033935 
L 544.964912 250.476045 
L 544.975057 251.728016 
L 545.005494 241.955639 
L 545.228695 166.5186 
L 545.304786 178.129775 
L 545.479796 204.920455 
L 545.515305 193.638588 
L 545.730897 123.580459 
L 545.794307 138.734763 
L 545.984535 185.343381 
L 546.068235 179.675018 
L 546.306655 156.241747 
L 546.623702 120.227281 
L 547.011767 112.417295 
L 547.019376 112.31956 
L 547.039667 113.714621 
L 547.290769 130.746273 
L 547.361787 128.318224 
L 547.572306 121.217512 
L 547.653471 122.032196 
L 547.861453 124.075646 
L 547.869063 123.396473 
L 548.300247 84.299183 
L 548.495547 79.518552 
L 548.538666 81.104138 
L 548.85064 92.25504 
L 548.908977 90.858237 
L 549.243778 83.343621 
L 549.297042 84.245143 
L 549.700326 90.494082 
L 549.720617 89.612751 
L 550.291302 66.964483 
L 550.309057 67.478207 
L 550.85945 80.116731 
L 551.275416 85.335482 
L 551.55949 86.710921 
L 551.663481 86.76767 
L 551.698991 86.73217 
L 551.830882 86.35586 
L 552.041402 84.95873 
L 552.34323 81.257945 
L 552.743978 73.301576 
L 552.982397 66.96 
L 553.038197 68.808192 
L 553.573373 90.492787 
L 553.71541 88.438286 
L 554.032457 83.349305 
L 554.085721 84.445459 
L 554.428132 92.267837 
L 554.478859 90.548013 
L 554.783224 79.531183 
L 554.856779 81.254021 
L 555.138317 90.628829 
L 555.422391 124.077553 
L 555.528919 123.046757 
L 555.714074 121.216248 
L 555.739438 122.030458 
L 555.998149 130.730161 
L 556.033658 128.370675 
L 556.272077 112.307862 
L 556.363387 113.744364 
L 556.685507 120.605635 
L 556.825007 127.578178 
L 557.246046 180.426089 
L 557.319601 185.333991 
L 557.342428 180.071342 
L 557.575775 123.504952 
L 557.623966 138.427064 
L 557.831949 204.825998 
L 557.905504 194.034001 
L 558.088123 166.647836 
L 558.121096 177.121563 
L 558.346833 251.717217 
L 558.427997 242.132781 
L 558.737435 191.78732 
L 558.871863 162.119506 
L 558.920054 175.032826 
L 559.140719 234.224891 
L 559.229492 228.957162 
L 559.414648 218.022726 
L 559.440011 223.017479 
L 559.817931 276.926733 
L 559.985332 280.731109 
L 559.992941 278.990676 
L 560.284625 208.007325 
L 560.345498 218.986674 
L 561.266202 369.304774 
L 561.268739 369.273553 
L 561.633977 354.053475 
L 561.72275 354.33215 
L 562.022042 355.236771 
L 562.024579 355.178196 
L 562.45069 261.914232 
L 562.514099 268.54908 
L 562.924992 310.419355 
L 562.963038 305.00105 
L 563.460168 238.910483 
L 563.505823 243.640186 
L 564.094262 302.009589 
L 564.139917 300.403351 
L 564.987066 267.058515 
L 565.760661 200.487165 
L 566.037126 181.787954 
L 566.105608 183.418361 
L 566.770139 196.682041 
L 567.350969 204.252813 
L 567.84049 208.057028 
L 568.223482 209.559194 
L 568.492338 209.905687 
L 568.667348 209.83714 
L 568.880404 209.456533 
L 569.182233 208.38858 
L 569.590589 206.026997 
L 570.123228 201.511987 
L 570.800441 193.708617 
L 571.612081 181.764567 
L 571.662809 183.873688 
L 572.712869 232.414974 
L 573.780683 280.621982 
L 575.140181 302.022871 
L 575.188372 299.965899 
L 576.560551 238.82026 
L 576.634106 242.687233 
L 577.889613 310.504008 
L 577.970777 307.456335 
L 579.167946 261.834688 
L 579.211065 264.834055 
L 580.431062 355.242348 
L 580.542662 355.136394 
L 581.696713 354.048898 
L 581.709395 354.173037 
L 583.00802 369.36 
L 583.028311 368.587576 
L 584.912839 298.884309 
L 586.840485 237.172189 
L 587.915908 207.832972 
L 587.923517 208.073476 
L 588.948213 236.935286 
L 589.823263 255.763604 
L 590.561349 267.249039 
L 591.170079 273.597104 
L 591.651991 276.584399 
L 592.007083 277.623284 
L 592.235357 277.768742 
L 592.407831 277.607325 
L 592.641177 277.017407 
L 592.960761 275.517402 
L 593.376726 272.371756 
L 593.894147 266.591531 
L 594.518096 256.910731 
L 595.253645 241.792141 
L 596.113476 219.246271 
L 596.48886 207.832916 
L 596.557342 209.518986 
L 597.63023 239.14795 
L 599.40062 295.795022 
L 600.897082 349.972916 
L 601.396748 369.35897 
L 601.485522 368.344652 
L 602.705519 354.048882 
L 602.834874 354.167594 
L 603.973707 355.243001 
L 603.976243 355.084055 
L 605.234286 261.806347 
L 605.305304 264.5437 
L 606.510083 310.488852 
L 606.550665 308.281654 
L 607.831535 238.843567 
L 607.87719 240.857842 
L 609.231615 302.033007 
L 609.282342 301.186108 
L 610.819386 273.265998 
L 612.455349 181.781415 
L 612.462958 181.905998 
L 614.055803 212.370518 
L 614.590978 219.892931 
L 616.072222 225.030106 
L 617.041117 228.455585 
L 618.382861 256.528524 
L 619.673876 279.047222 
L 620.858364 296.230159 
L 620.8609 296.185433 
L 622.073288 276.774761 
L 622.636364 269.007063 
L 622.636364 269.007063 
" clip-path="url(#p4890d96ada)" style="fill: none; stroke: #d62728; stroke-width: 1.5; stroke-linecap: square"/>
   </g>
   <g id="patch_3">
    <path d="M 90 384.48 
L 90 51.84 
" style="fill: none; stroke: #000000; stroke-width: 0.8; stroke-linejoin: miter; stroke-linecap: square"/>
   </g>
   <g id="patch_4">
    <path d="M 648 384.48 
L 648 51.84 
" style="fill: none; stroke: #000000; stroke-width: 0.8; stroke-linejoin: miter; stroke-linecap: square"/>
   </g>
   <g id="patch_5">
    <path d="M 90 384.48 
L 648 384.48 
" style="fill: none; stroke: #000000; stroke-width: 0.8; stroke-linejoin: miter; stroke-linecap: square"/>
   </g>
   <g id="patch_6">
    <path d="M 90 51.84 
L 648 51.84 
" style="fill: none; stroke: #000000; stroke-width: 0.8; stroke-linejoin: miter; stroke-linecap: square"/>
   </g>
   <g id="text_17">
    <!-- Simulated Output Power from Pulse -->
    <g transform="translate(262.315313 45.84) scale(0.12 -0.12)">
     <defs>
      <path id="DejaVuSans-53" d="M 3425 4513 
L 3425 3897 
Q 3066 4069 2747 4153 
Q 2428 4238 2131 4238 
Q 1616 4238 1336 4038 
Q 1056 3838 1056 3469 
Q 1056 3159 1242 3001 
Q 1428 2844 1947 2747 
L 2328 2669 
Q 3034 2534 3370 2195 
Q 3706 1856 3706 1288 
Q 3706 609 3251 259 
Q 2797 -91 1919 -91 
Q 1588 -91 1214 -16 
Q 841 59 441 206 
L 441 856 
Q 825 641 1194 531 
Q 1563 422 1919 422 
Q 2459 422 2753 634 
Q 3047 847 3047 1241 
Q 3047 1584 2836 1778 
Q 2625 1972 2144 2069 
L 1759 2144 
Q 1053 2284 737 2584 
Q 422 2884 422 3419 
Q 422 4038 858 4394 
Q 1294 4750 2059 4750 
Q 2388 4750 2728 4690 
Q 3069 4631 3425 4513 
z
" transform="scale(0.015625)"/>
      <path id="DejaVuSans-6c" d="M 603 4863 
L 1178 4863 
L 1178 0 
L 603 0 
L 603 4863 
z
" transform="scale(0.015625)"/>
      <path id="DejaVuSans-64" d="M 2906 2969 
L 2906 4863 
L 3481 4863 
L 3481 0 
L 2906 0 
L 2906 525 
Q 2725 213 2448 61 
Q 2172 -91 1784 -91 
Q 1150 -91 751 415 
Q 353 922 353 1747 
Q 353 2572 751 3078 
Q 1150 3584 1784 3584 
Q 2172 3584 2448 3432 
Q 2725 3281 2906 2969 
z
M 947 1747 
Q 947 1113 1208 752 
Q 1469 391 1925 391 
Q 2381 391 2643 752 
Q 2906 1113 2906 1747 
Q 2906 2381 2643 2742 
Q 2381 3103 1925 3103 
Q 1469 3103 1208 2742 
Q 947 2381 947 1747 
z
" transform="scale(0.015625)"/>
      <path id="DejaVuSans-4f" d="M 2522 4238 
Q 1834 4238 1429 3725 
Q 1025 3213 1025 2328 
Q 1025 1447 1429 934 
Q 1834 422 2522 422 
Q 3209 422 3611 934 
Q 4013 1447 4013 2328 
Q 4013 3213 3611 3725 
Q 3209 4238 2522 4238 
z
M 2522 4750 
Q 3503 4750 4090 4092 
Q 4678 3434 4678 2328 
Q 4678 1225 4090 567 
Q 3503 -91 2522 -91 
Q 1538 -91 948 565 
Q 359 1222 359 2328 
Q 359 3434 948 4092 
Q 1538 4750 2522 4750 
z
" transform="scale(0.015625)"/>
      <path id="DejaVuSans-70" d="M 1159 525 
L 1159 -1331 
L 581 -1331 
L 581 3500 
L 1159 3500 
L 1159 2969 
Q 1341 3281 1617 3432 
Q 1894 3584 2278 3584 
Q 2916 3584 3314 3078 
Q 3713 2572 3713 1747 
Q 3713 922 3314 415 
Q 2916 -91 2278 -91 
Q 1894 -91 1617 61 
Q 1341 213 1159 525 
z
M 3116 1747 
Q 3116 2381 2855 2742 
Q 2594 3103 2138 3103 
Q 1681 3103 1420 2742 
Q 1159 2381 1159 1747 
Q 1159 1113 1420 752 
Q 1681 391 2138 391 
Q 2594 391 2855 752 
Q 3116 1113 3116 1747 
z
" transform="scale(0.015625)"/>
      <path id="DejaVuSans-66" d="M 2375 4863 
L 2375 4384 
L 1825 4384 
Q 1516 4384 1395 4259 
Q 1275 4134 1275 3809 
L 1275 3500 
L 2222 3500 
L 2222 3053 
L 1275 3053 
L 1275 0 
L 697 0 
L 697 3053 
L 147 3053 
L 147 3500 
L 697 3500 
L 697 3744 
Q 697 4328 969 4595 
Q 1241 4863 1831 4863 
L 2375 4863 
z
" transform="scale(0.015625)"/>
     </defs>
     <use xlink:href="#DejaVuSans-53"/>
     <use xlink:href="#DejaVuSans-69" x="63.476562"/>
     <use xlink:href="#DejaVuSans-6d" x="91.259766"/>
     <use xlink:href="#DejaVuSans-75" x="188.671875"/>
     <use xlink:href="#DejaVuSans-6c" x="252.050781"/>
     <use xlink:href="#DejaVuSans-61" x="279.833984"/>
     <use xlink:href="#DejaVuSans-74" x="341.113281"/>
     <use xlink:href="#DejaVuSans-65" x="380.322266"/>
     <use xlink:href="#DejaVuSans-64" x="441.845703"/>
     <use xlink:href="#DejaVuSans-20" x="505.322266"/>
     <use xlink:href="#DejaVuSans-4f" x="537.109375"/>
     <use xlink:href="#DejaVuSans-75" x="615.820312"/>
     <use xlink:href="#DejaVuSans-74" x="679.199219"/>
     <use xlink:href="#DejaVuSans-70" x="718.408203"/>
     <use xlink:href="#DejaVuSans-75" x="781.884766"/>
     <use xlink:href="#DejaVuSans-74" x="845.263672"/>
     <use xlink:href="#DejaVuSans-20" x="884.472656"/>
     <use xlink:href="#DejaVuSans-50" x="916.259766"/>
     <use xlink:href="#DejaVuSans-6f" x="972.9375"/>
     <use xlink:href="#DejaVuSans-77" x="1034.119141"/>
     <use xlink:href="#DejaVuSans-65" x="1115.90625"/>
     <use xlink:href="#DejaVuSans-72" x="1177.429688"/>
     <use xlink:href="#DejaVuSans-20" x="1218.542969"/>
     <use xlink:href="#DejaVuSans-66" x="1250.330078"/>
     <use xlink:href="#DejaVuSans-72" x="1285.535156"/>
     <use xlink:href="#DejaVuSans-6f" x="1324.398438"/>
     <use xlink:href="#DejaVuSans-6d" x="1385.580078"/>
     <use xlink:href="#DejaVuSans-20" x="1482.992188"/>
     <use xlink:href="#DejaVuSans-50" x="1514.779297"/>
     <use xlink:href="#DejaVuSans-75" x="1573.332031"/>
     <use xlink:href="#DejaVuSans-6c" x="1636.710938"/>
     <use xlink:href="#DejaVuSans-73" x="1664.494141"/>
     <use xlink:href="#DejaVuSans-65" x="1716.59375"/>
    </g>
   </g>
  </g>
 </g>
 <defs>
  <clipPath id="p4890d96ada">
   <rect x="90" y="51.84" width="558" height="332.64"/>
  </clipPath>
 </defs>
</svg>
