<?xml version="1.0" encoding="utf-8" standalone="no"?>
<!DOCTYPE svg PUBLIC "-//W3C//DTD SVG 1.1//EN"
  "http://www.w3.org/Graphics/SVG/1.1/DTD/svg11.dtd">
<svg xmlns:xlink="http://www.w3.org/1999/xlink" width="720pt" height="432pt" viewBox="0 0 720 432" xmlns="http://www.w3.org/2000/svg" version="1.1">
 <metadata>
  <rdf:RDF xmlns:dc="http://purl.org/dc/elements/1.1/" xmlns:cc="http://creativecommons.org/ns#" xmlns:rdf="http://www.w3.org/1999/02/22-rdf-syntax-ns#">
   <cc:Work>
    <dc:type rdf:resource="http://purl.org/dc/dcmitype/StillImage"/>
    <dc:date>2025-08-08T12:12:47.974610</dc:date>
    <dc:format>image/svg+xml</dc:format>
    <dc:creator>
     <cc:Agent>
      <dc:title>Matplotlib v3.7.5, https://matplotlib.org/</dc:title>
     </cc:Agent>
    </dc:creator>
   </cc:Work>
  </rdf:RDF>
 </metadata>
 <defs>
  <style type="text/css">*{stroke-linejoin: round; stroke-linecap: butt}</style>
 </defs>
 <g id="figure_1">
  <g id="patch_1">
   <path d="M 0 432 
L 720 432 
L 720 0 
L 0 0 
z
" style="fill: #ffffff"/>
  </g>
  <g id="axes_1">
   <g id="patch_2">
    <path d="M 90 384.48 
L 648 384.48 
L 648 51.84 
L 90 51.84 
z
" style="fill: #ffffff"/>
   </g>
   <g id="matplotlib.axis_1">
    <g id="xtick_1">
     <g id="line2d_1">
      <path d="M 115.363636 384.48 
L 115.363636 51.84 
" clip-path="url(#p8fa2e0a84d)" style="fill: none; stroke: #b0b0b0; stroke-width: 0.8; stroke-linecap: square"/>
     </g>
     <g id="line2d_2">
      <defs>
       <path id="m91d01439be" d="M 0 0 
L 0 3.5 
" style="stroke: #000000; stroke-width: 0.8"/>
      </defs>
      <g>
       <use xlink:href="#m91d01439be" x="115.363636" y="384.48" style="stroke: #000000; stroke-width: 0.8"/>
      </g>
     </g>
     <g id="text_1">
      <!-- 0.0 -->
      <g transform="translate(107.412074 399.078438) scale(0.1 -0.1)">
       <defs>
        <path id="DejaVuSans-30" d="M 2034 4250 
Q 1547 4250 1301 3770 
Q 1056 3291 1056 2328 
Q 1056 1369 1301 889 
Q 1547 409 2034 409 
Q 2525 409 2770 889 
Q 3016 1369 3016 2328 
Q 3016 3291 2770 3770 
Q 2525 4250 2034 4250 
z
M 2034 4750 
Q 2819 4750 3233 4129 
Q 3647 3509 3647 2328 
Q 3647 1150 3233 529 
Q 2819 -91 2034 -91 
Q 1250 -91 836 529 
Q 422 1150 422 2328 
Q 422 3509 836 4129 
Q 1250 4750 2034 4750 
z
" transform="scale(0.015625)"/>
        <path id="DejaVuSans-2e" d="M 684 794 
L 1344 794 
L 1344 0 
L 684 0 
L 684 794 
z
" transform="scale(0.015625)"/>
       </defs>
       <use xlink:href="#DejaVuSans-30"/>
       <use xlink:href="#DejaVuSans-2e" x="63.623047"/>
       <use xlink:href="#DejaVuSans-30" x="95.410156"/>
      </g>
     </g>
    </g>
    <g id="xtick_2">
     <g id="line2d_3">
      <path d="M 183.002255 384.48 
L 183.002255 51.84 
" clip-path="url(#p8fa2e0a84d)" style="fill: none; stroke: #b0b0b0; stroke-width: 0.8; stroke-linecap: square"/>
     </g>
     <g id="line2d_4">
      <g>
       <use xlink:href="#m91d01439be" x="183.002255" y="384.48" style="stroke: #000000; stroke-width: 0.8"/>
      </g>
     </g>
     <g id="text_2">
      <!-- 0.2 -->
      <g transform="translate(175.050692 399.078438) scale(0.1 -0.1)">
       <defs>
        <path id="DejaVuSans-32" d="M 1228 531 
L 3431 531 
L 3431 0 
L 469 0 
L 469 531 
Q 828 903 1448 1529 
Q 2069 2156 2228 2338 
Q 2531 2678 2651 2914 
Q 2772 3150 2772 3378 
Q 2772 3750 2511 3984 
Q 2250 4219 1831 4219 
Q 1534 4219 1204 4116 
Q 875 4013 500 3803 
L 500 4441 
Q 881 4594 1212 4672 
Q 1544 4750 1819 4750 
Q 2544 4750 2975 4387 
Q 3406 4025 3406 3419 
Q 3406 3131 3298 2873 
Q 3191 2616 2906 2266 
Q 2828 2175 2409 1742 
Q 1991 1309 1228 531 
z
" transform="scale(0.015625)"/>
       </defs>
       <use xlink:href="#DejaVuSans-30"/>
       <use xlink:href="#DejaVuSans-2e" x="63.623047"/>
       <use xlink:href="#DejaVuSans-32" x="95.410156"/>
      </g>
     </g>
    </g>
    <g id="xtick_3">
     <g id="line2d_5">
      <path d="M 250.640873 384.48 
L 250.640873 51.84 
" clip-path="url(#p8fa2e0a84d)" style="fill: none; stroke: #b0b0b0; stroke-width: 0.8; stroke-linecap: square"/>
     </g>
     <g id="line2d_6">
      <g>
       <use xlink:href="#m91d01439be" x="250.640873" y="384.48" style="stroke: #000000; stroke-width: 0.8"/>
      </g>
     </g>
     <g id="text_3">
      <!-- 0.4 -->
      <g transform="translate(242.68931 399.078438) scale(0.1 -0.1)">
       <defs>
        <path id="DejaVuSans-34" d="M 2419 4116 
L 825 1625 
L 2419 1625 
L 2419 4116 
z
M 2253 4666 
L 3047 4666 
L 3047 1625 
L 3713 1625 
L 3713 1100 
L 3047 1100 
L 3047 0 
L 2419 0 
L 2419 1100 
L 313 1100 
L 313 1709 
L 2253 4666 
z
" transform="scale(0.015625)"/>
       </defs>
       <use xlink:href="#DejaVuSans-30"/>
       <use xlink:href="#DejaVuSans-2e" x="63.623047"/>
       <use xlink:href="#DejaVuSans-34" x="95.410156"/>
      </g>
     </g>
    </g>
    <g id="xtick_4">
     <g id="line2d_7">
      <path d="M 318.279491 384.48 
L 318.279491 51.84 
" clip-path="url(#p8fa2e0a84d)" style="fill: none; stroke: #b0b0b0; stroke-width: 0.8; stroke-linecap: square"/>
     </g>
     <g id="line2d_8">
      <g>
       <use xlink:href="#m91d01439be" x="318.279491" y="384.48" style="stroke: #000000; stroke-width: 0.8"/>
      </g>
     </g>
     <g id="text_4">
      <!-- 0.6 -->
      <g transform="translate(310.327929 399.078438) scale(0.1 -0.1)">
       <defs>
        <path id="DejaVuSans-36" d="M 2113 2584 
Q 1688 2584 1439 2293 
Q 1191 2003 1191 1497 
Q 1191 994 1439 701 
Q 1688 409 2113 409 
Q 2538 409 2786 701 
Q 3034 994 3034 1497 
Q 3034 2003 2786 2293 
Q 2538 2584 2113 2584 
z
M 3366 4563 
L 3366 3988 
Q 3128 4100 2886 4159 
Q 2644 4219 2406 4219 
Q 1781 4219 1451 3797 
Q 1122 3375 1075 2522 
Q 1259 2794 1537 2939 
Q 1816 3084 2150 3084 
Q 2853 3084 3261 2657 
Q 3669 2231 3669 1497 
Q 3669 778 3244 343 
Q 2819 -91 2113 -91 
Q 1303 -91 875 529 
Q 447 1150 447 2328 
Q 447 3434 972 4092 
Q 1497 4750 2381 4750 
Q 2619 4750 2861 4703 
Q 3103 4656 3366 4563 
z
" transform="scale(0.015625)"/>
       </defs>
       <use xlink:href="#DejaVuSans-30"/>
       <use xlink:href="#DejaVuSans-2e" x="63.623047"/>
       <use xlink:href="#DejaVuSans-36" x="95.410156"/>
      </g>
     </g>
    </g>
    <g id="xtick_5">
     <g id="line2d_9">
      <path d="M 385.918109 384.48 
L 385.918109 51.84 
" clip-path="url(#p8fa2e0a84d)" style="fill: none; stroke: #b0b0b0; stroke-width: 0.8; stroke-linecap: square"/>
     </g>
     <g id="line2d_10">
      <g>
       <use xlink:href="#m91d01439be" x="385.918109" y="384.48" style="stroke: #000000; stroke-width: 0.8"/>
      </g>
     </g>
     <g id="text_5">
      <!-- 0.8 -->
      <g transform="translate(377.966547 399.078438) scale(0.1 -0.1)">
       <defs>
        <path id="DejaVuSans-38" d="M 2034 2216 
Q 1584 2216 1326 1975 
Q 1069 1734 1069 1313 
Q 1069 891 1326 650 
Q 1584 409 2034 409 
Q 2484 409 2743 651 
Q 3003 894 3003 1313 
Q 3003 1734 2745 1975 
Q 2488 2216 2034 2216 
z
M 1403 2484 
Q 997 2584 770 2862 
Q 544 3141 544 3541 
Q 544 4100 942 4425 
Q 1341 4750 2034 4750 
Q 2731 4750 3128 4425 
Q 3525 4100 3525 3541 
Q 3525 3141 3298 2862 
Q 3072 2584 2669 2484 
Q 3125 2378 3379 2068 
Q 3634 1759 3634 1313 
Q 3634 634 3220 271 
Q 2806 -91 2034 -91 
Q 1263 -91 848 271 
Q 434 634 434 1313 
Q 434 1759 690 2068 
Q 947 2378 1403 2484 
z
M 1172 3481 
Q 1172 3119 1398 2916 
Q 1625 2713 2034 2713 
Q 2441 2713 2670 2916 
Q 2900 3119 2900 3481 
Q 2900 3844 2670 4047 
Q 2441 4250 2034 4250 
Q 1625 4250 1398 4047 
Q 1172 3844 1172 3481 
z
" transform="scale(0.015625)"/>
       </defs>
       <use xlink:href="#DejaVuSans-30"/>
       <use xlink:href="#DejaVuSans-2e" x="63.623047"/>
       <use xlink:href="#DejaVuSans-38" x="95.410156"/>
      </g>
     </g>
    </g>
    <g id="xtick_6">
     <g id="line2d_11">
      <path d="M 453.556728 384.48 
L 453.556728 51.84 
" clip-path="url(#p8fa2e0a84d)" style="fill: none; stroke: #b0b0b0; stroke-width: 0.8; stroke-linecap: square"/>
     </g>
     <g id="line2d_12">
      <g>
       <use xlink:href="#m91d01439be" x="453.556728" y="384.48" style="stroke: #000000; stroke-width: 0.8"/>
      </g>
     </g>
     <g id="text_6">
      <!-- 1.0 -->
      <g transform="translate(445.605165 399.078438) scale(0.1 -0.1)">
       <defs>
        <path id="DejaVuSans-31" d="M 794 531 
L 1825 531 
L 1825 4091 
L 703 3866 
L 703 4441 
L 1819 4666 
L 2450 4666 
L 2450 531 
L 3481 531 
L 3481 0 
L 794 0 
L 794 531 
z
" transform="scale(0.015625)"/>
       </defs>
       <use xlink:href="#DejaVuSans-31"/>
       <use xlink:href="#DejaVuSans-2e" x="63.623047"/>
       <use xlink:href="#DejaVuSans-30" x="95.410156"/>
      </g>
     </g>
    </g>
    <g id="xtick_7">
     <g id="line2d_13">
      <path d="M 521.195346 384.48 
L 521.195346 51.84 
" clip-path="url(#p8fa2e0a84d)" style="fill: none; stroke: #b0b0b0; stroke-width: 0.8; stroke-linecap: square"/>
     </g>
     <g id="line2d_14">
      <g>
       <use xlink:href="#m91d01439be" x="521.195346" y="384.48" style="stroke: #000000; stroke-width: 0.8"/>
      </g>
     </g>
     <g id="text_7">
      <!-- 1.2 -->
      <g transform="translate(513.243783 399.078438) scale(0.1 -0.1)">
       <use xlink:href="#DejaVuSans-31"/>
       <use xlink:href="#DejaVuSans-2e" x="63.623047"/>
       <use xlink:href="#DejaVuSans-32" x="95.410156"/>
      </g>
     </g>
    </g>
    <g id="xtick_8">
     <g id="line2d_15">
      <path d="M 588.833964 384.48 
L 588.833964 51.84 
" clip-path="url(#p8fa2e0a84d)" style="fill: none; stroke: #b0b0b0; stroke-width: 0.8; stroke-linecap: square"/>
     </g>
     <g id="line2d_16">
      <g>
       <use xlink:href="#m91d01439be" x="588.833964" y="384.48" style="stroke: #000000; stroke-width: 0.8"/>
      </g>
     </g>
     <g id="text_8">
      <!-- 1.4 -->
      <g transform="translate(580.882402 399.078438) scale(0.1 -0.1)">
       <use xlink:href="#DejaVuSans-31"/>
       <use xlink:href="#DejaVuSans-2e" x="63.623047"/>
       <use xlink:href="#DejaVuSans-34" x="95.410156"/>
      </g>
     </g>
    </g>
    <g id="text_9">
     <!-- Time (s) -->
     <g transform="translate(348.671094 412.756563) scale(0.1 -0.1)">
      <defs>
       <path id="DejaVuSans-54" d="M -19 4666 
L 3928 4666 
L 3928 4134 
L 2272 4134 
L 2272 0 
L 1638 0 
L 1638 4134 
L -19 4134 
L -19 4666 
z
" transform="scale(0.015625)"/>
       <path id="DejaVuSans-69" d="M 603 3500 
L 1178 3500 
L 1178 0 
L 603 0 
L 603 3500 
z
M 603 4863 
L 1178 4863 
L 1178 4134 
L 603 4134 
L 603 4863 
z
" transform="scale(0.015625)"/>
       <path id="DejaVuSans-6d" d="M 3328 2828 
Q 3544 3216 3844 3400 
Q 4144 3584 4550 3584 
Q 5097 3584 5394 3201 
Q 5691 2819 5691 2113 
L 5691 0 
L 5113 0 
L 5113 2094 
Q 5113 2597 4934 2840 
Q 4756 3084 4391 3084 
Q 3944 3084 3684 2787 
Q 3425 2491 3425 1978 
L 3425 0 
L 2847 0 
L 2847 2094 
Q 2847 2600 2669 2842 
Q 2491 3084 2119 3084 
Q 1678 3084 1418 2786 
Q 1159 2488 1159 1978 
L 1159 0 
L 581 0 
L 581 3500 
L 1159 3500 
L 1159 2956 
Q 1356 3278 1631 3431 
Q 1906 3584 2284 3584 
Q 2666 3584 2933 3390 
Q 3200 3197 3328 2828 
z
" transform="scale(0.015625)"/>
       <path id="DejaVuSans-65" d="M 3597 1894 
L 3597 1613 
L 953 1613 
Q 991 1019 1311 708 
Q 1631 397 2203 397 
Q 2534 397 2845 478 
Q 3156 559 3463 722 
L 3463 178 
Q 3153 47 2828 -22 
Q 2503 -91 2169 -91 
Q 1331 -91 842 396 
Q 353 884 353 1716 
Q 353 2575 817 3079 
Q 1281 3584 2069 3584 
Q 2775 3584 3186 3129 
Q 3597 2675 3597 1894 
z
M 3022 2063 
Q 3016 2534 2758 2815 
Q 2500 3097 2075 3097 
Q 1594 3097 1305 2825 
Q 1016 2553 972 2059 
L 3022 2063 
z
" transform="scale(0.015625)"/>
       <path id="DejaVuSans-20" transform="scale(0.015625)"/>
       <path id="DejaVuSans-28" d="M 1984 4856 
Q 1566 4138 1362 3434 
Q 1159 2731 1159 2009 
Q 1159 1288 1364 580 
Q 1569 -128 1984 -844 
L 1484 -844 
Q 1016 -109 783 600 
Q 550 1309 550 2009 
Q 550 2706 781 3412 
Q 1013 4119 1484 4856 
L 1984 4856 
z
" transform="scale(0.015625)"/>
       <path id="DejaVuSans-73" d="M 2834 3397 
L 2834 2853 
Q 2591 2978 2328 3040 
Q 2066 3103 1784 3103 
Q 1356 3103 1142 2972 
Q 928 2841 928 2578 
Q 928 2378 1081 2264 
Q 1234 2150 1697 2047 
L 1894 2003 
Q 2506 1872 2764 1633 
Q 3022 1394 3022 966 
Q 3022 478 2636 193 
Q 2250 -91 1575 -91 
Q 1294 -91 989 -36 
Q 684 19 347 128 
L 347 722 
Q 666 556 975 473 
Q 1284 391 1588 391 
Q 1994 391 2212 530 
Q 2431 669 2431 922 
Q 2431 1156 2273 1281 
Q 2116 1406 1581 1522 
L 1381 1569 
Q 847 1681 609 1914 
Q 372 2147 372 2553 
Q 372 3047 722 3315 
Q 1072 3584 1716 3584 
Q 2034 3584 2315 3537 
Q 2597 3491 2834 3397 
z
" transform="scale(0.015625)"/>
       <path id="DejaVuSans-29" d="M 513 4856 
L 1013 4856 
Q 1481 4119 1714 3412 
Q 1947 2706 1947 2009 
Q 1947 1309 1714 600 
Q 1481 -109 1013 -844 
L 513 -844 
Q 928 -128 1133 580 
Q 1338 1288 1338 2009 
Q 1338 2731 1133 3434 
Q 928 4138 513 4856 
z
" transform="scale(0.015625)"/>
      </defs>
      <use xlink:href="#DejaVuSans-54"/>
      <use xlink:href="#DejaVuSans-69" x="57.958984"/>
      <use xlink:href="#DejaVuSans-6d" x="85.742188"/>
      <use xlink:href="#DejaVuSans-65" x="183.154297"/>
      <use xlink:href="#DejaVuSans-20" x="244.677734"/>
      <use xlink:href="#DejaVuSans-28" x="276.464844"/>
      <use xlink:href="#DejaVuSans-73" x="315.478516"/>
      <use xlink:href="#DejaVuSans-29" x="367.578125"/>
     </g>
    </g>
   </g>
   <g id="matplotlib.axis_2">
    <g id="ytick_1">
     <g id="line2d_17">
      <path d="M 90 372.57968 
L 648 372.57968 
" clip-path="url(#p8fa2e0a84d)" style="fill: none; stroke: #b0b0b0; stroke-width: 0.8; stroke-linecap: square"/>
     </g>
     <g id="line2d_18">
      <defs>
       <path id="m153a30ac05" d="M 0 0 
L -3.5 0 
" style="stroke: #000000; stroke-width: 0.8"/>
      </defs>
      <g>
       <use xlink:href="#m153a30ac05" x="90" y="372.57968" style="stroke: #000000; stroke-width: 0.8"/>
      </g>
     </g>
     <g id="text_10">
      <!-- −47.0 -->
      <g transform="translate(52.354687 376.378898) scale(0.1 -0.1)">
       <defs>
        <path id="DejaVuSans-2212" d="M 678 2272 
L 4684 2272 
L 4684 1741 
L 678 1741 
L 678 2272 
z
" transform="scale(0.015625)"/>
        <path id="DejaVuSans-37" d="M 525 4666 
L 3525 4666 
L 3525 4397 
L 1831 0 
L 1172 0 
L 2766 4134 
L 525 4134 
L 525 4666 
z
" transform="scale(0.015625)"/>
       </defs>
       <use xlink:href="#DejaVuSans-2212"/>
       <use xlink:href="#DejaVuSans-34" x="83.789062"/>
       <use xlink:href="#DejaVuSans-37" x="147.412109"/>
       <use xlink:href="#DejaVuSans-2e" x="211.035156"/>
       <use xlink:href="#DejaVuSans-30" x="242.822266"/>
      </g>
     </g>
    </g>
    <g id="ytick_2">
     <g id="line2d_19">
      <path d="M 90 315.454456 
L 648 315.454456 
" clip-path="url(#p8fa2e0a84d)" style="fill: none; stroke: #b0b0b0; stroke-width: 0.8; stroke-linecap: square"/>
     </g>
     <g id="line2d_20">
      <g>
       <use xlink:href="#m153a30ac05" x="90" y="315.454456" style="stroke: #000000; stroke-width: 0.8"/>
      </g>
     </g>
     <g id="text_11">
      <!-- −46.5 -->
      <g transform="translate(52.354687 319.253675) scale(0.1 -0.1)">
       <defs>
        <path id="DejaVuSans-35" d="M 691 4666 
L 3169 4666 
L 3169 4134 
L 1269 4134 
L 1269 2991 
Q 1406 3038 1543 3061 
Q 1681 3084 1819 3084 
Q 2600 3084 3056 2656 
Q 3513 2228 3513 1497 
Q 3513 744 3044 326 
Q 2575 -91 1722 -91 
Q 1428 -91 1123 -41 
Q 819 9 494 109 
L 494 744 
Q 775 591 1075 516 
Q 1375 441 1709 441 
Q 2250 441 2565 725 
Q 2881 1009 2881 1497 
Q 2881 1984 2565 2268 
Q 2250 2553 1709 2553 
Q 1456 2553 1204 2497 
Q 953 2441 691 2322 
L 691 4666 
z
" transform="scale(0.015625)"/>
       </defs>
       <use xlink:href="#DejaVuSans-2212"/>
       <use xlink:href="#DejaVuSans-34" x="83.789062"/>
       <use xlink:href="#DejaVuSans-36" x="147.412109"/>
       <use xlink:href="#DejaVuSans-2e" x="211.035156"/>
       <use xlink:href="#DejaVuSans-35" x="242.822266"/>
      </g>
     </g>
    </g>
    <g id="ytick_3">
     <g id="line2d_21">
      <path d="M 90 258.329232 
L 648 258.329232 
" clip-path="url(#p8fa2e0a84d)" style="fill: none; stroke: #b0b0b0; stroke-width: 0.8; stroke-linecap: square"/>
     </g>
     <g id="line2d_22">
      <g>
       <use xlink:href="#m153a30ac05" x="90" y="258.329232" style="stroke: #000000; stroke-width: 0.8"/>
      </g>
     </g>
     <g id="text_12">
      <!-- −46.0 -->
      <g transform="translate(52.354687 262.128451) scale(0.1 -0.1)">
       <use xlink:href="#DejaVuSans-2212"/>
       <use xlink:href="#DejaVuSans-34" x="83.789062"/>
       <use xlink:href="#DejaVuSans-36" x="147.412109"/>
       <use xlink:href="#DejaVuSans-2e" x="211.035156"/>
       <use xlink:href="#DejaVuSans-30" x="242.822266"/>
      </g>
     </g>
    </g>
    <g id="ytick_4">
     <g id="line2d_23">
      <path d="M 90 201.204008 
L 648 201.204008 
" clip-path="url(#p8fa2e0a84d)" style="fill: none; stroke: #b0b0b0; stroke-width: 0.8; stroke-linecap: square"/>
     </g>
     <g id="line2d_24">
      <g>
       <use xlink:href="#m153a30ac05" x="90" y="201.204008" style="stroke: #000000; stroke-width: 0.8"/>
      </g>
     </g>
     <g id="text_13">
      <!-- −45.5 -->
      <g transform="translate(52.354687 205.003227) scale(0.1 -0.1)">
       <use xlink:href="#DejaVuSans-2212"/>
       <use xlink:href="#DejaVuSans-34" x="83.789062"/>
       <use xlink:href="#DejaVuSans-35" x="147.412109"/>
       <use xlink:href="#DejaVuSans-2e" x="211.035156"/>
       <use xlink:href="#DejaVuSans-35" x="242.822266"/>
      </g>
     </g>
    </g>
    <g id="ytick_5">
     <g id="line2d_25">
      <path d="M 90 144.078784 
L 648 144.078784 
" clip-path="url(#p8fa2e0a84d)" style="fill: none; stroke: #b0b0b0; stroke-width: 0.8; stroke-linecap: square"/>
     </g>
     <g id="line2d_26">
      <g>
       <use xlink:href="#m153a30ac05" x="90" y="144.078784" style="stroke: #000000; stroke-width: 0.8"/>
      </g>
     </g>
     <g id="text_14">
      <!-- −45.0 -->
      <g transform="translate(52.354687 147.878003) scale(0.1 -0.1)">
       <use xlink:href="#DejaVuSans-2212"/>
       <use xlink:href="#DejaVuSans-34" x="83.789062"/>
       <use xlink:href="#DejaVuSans-35" x="147.412109"/>
       <use xlink:href="#DejaVuSans-2e" x="211.035156"/>
       <use xlink:href="#DejaVuSans-30" x="242.822266"/>
      </g>
     </g>
    </g>
    <g id="ytick_6">
     <g id="line2d_27">
      <path d="M 90 86.95356 
L 648 86.95356 
" clip-path="url(#p8fa2e0a84d)" style="fill: none; stroke: #b0b0b0; stroke-width: 0.8; stroke-linecap: square"/>
     </g>
     <g id="line2d_28">
      <g>
       <use xlink:href="#m153a30ac05" x="90" y="86.95356" style="stroke: #000000; stroke-width: 0.8"/>
      </g>
     </g>
     <g id="text_15">
      <!-- −44.5 -->
      <g transform="translate(52.354687 90.752779) scale(0.1 -0.1)">
       <use xlink:href="#DejaVuSans-2212"/>
       <use xlink:href="#DejaVuSans-34" x="83.789062"/>
       <use xlink:href="#DejaVuSans-34" x="147.412109"/>
       <use xlink:href="#DejaVuSans-2e" x="211.035156"/>
       <use xlink:href="#DejaVuSans-35" x="242.822266"/>
      </g>
     </g>
    </g>
    <g id="text_16">
     <!-- Power (arbitrary units) -->
     <g transform="translate(46.275 274.4225) rotate(-90) scale(0.1 -0.1)">
      <defs>
       <path id="DejaVuSans-50" d="M 1259 4147 
L 1259 2394 
L 2053 2394 
Q 2494 2394 2734 2622 
Q 2975 2850 2975 3272 
Q 2975 3691 2734 3919 
Q 2494 4147 2053 4147 
L 1259 4147 
z
M 628 4666 
L 2053 4666 
Q 2838 4666 3239 4311 
Q 3641 3956 3641 3272 
Q 3641 2581 3239 2228 
Q 2838 1875 2053 1875 
L 1259 1875 
L 1259 0 
L 628 0 
L 628 4666 
z
" transform="scale(0.015625)"/>
       <path id="DejaVuSans-6f" d="M 1959 3097 
Q 1497 3097 1228 2736 
Q 959 2375 959 1747 
Q 959 1119 1226 758 
Q 1494 397 1959 397 
Q 2419 397 2687 759 
Q 2956 1122 2956 1747 
Q 2956 2369 2687 2733 
Q 2419 3097 1959 3097 
z
M 1959 3584 
Q 2709 3584 3137 3096 
Q 3566 2609 3566 1747 
Q 3566 888 3137 398 
Q 2709 -91 1959 -91 
Q 1206 -91 779 398 
Q 353 888 353 1747 
Q 353 2609 779 3096 
Q 1206 3584 1959 3584 
z
" transform="scale(0.015625)"/>
       <path id="DejaVuSans-77" d="M 269 3500 
L 844 3500 
L 1563 769 
L 2278 3500 
L 2956 3500 
L 3675 769 
L 4391 3500 
L 4966 3500 
L 4050 0 
L 3372 0 
L 2619 2869 
L 1863 0 
L 1184 0 
L 269 3500 
z
" transform="scale(0.015625)"/>
       <path id="DejaVuSans-72" d="M 2631 2963 
Q 2534 3019 2420 3045 
Q 2306 3072 2169 3072 
Q 1681 3072 1420 2755 
Q 1159 2438 1159 1844 
L 1159 0 
L 581 0 
L 581 3500 
L 1159 3500 
L 1159 2956 
Q 1341 3275 1631 3429 
Q 1922 3584 2338 3584 
Q 2397 3584 2469 3576 
Q 2541 3569 2628 3553 
L 2631 2963 
z
" transform="scale(0.015625)"/>
       <path id="DejaVuSans-61" d="M 2194 1759 
Q 1497 1759 1228 1600 
Q 959 1441 959 1056 
Q 959 750 1161 570 
Q 1363 391 1709 391 
Q 2188 391 2477 730 
Q 2766 1069 2766 1631 
L 2766 1759 
L 2194 1759 
z
M 3341 1997 
L 3341 0 
L 2766 0 
L 2766 531 
Q 2569 213 2275 61 
Q 1981 -91 1556 -91 
Q 1019 -91 701 211 
Q 384 513 384 1019 
Q 384 1609 779 1909 
Q 1175 2209 1959 2209 
L 2766 2209 
L 2766 2266 
Q 2766 2663 2505 2880 
Q 2244 3097 1772 3097 
Q 1472 3097 1187 3025 
Q 903 2953 641 2809 
L 641 3341 
Q 956 3463 1253 3523 
Q 1550 3584 1831 3584 
Q 2591 3584 2966 3190 
Q 3341 2797 3341 1997 
z
" transform="scale(0.015625)"/>
       <path id="DejaVuSans-62" d="M 3116 1747 
Q 3116 2381 2855 2742 
Q 2594 3103 2138 3103 
Q 1681 3103 1420 2742 
Q 1159 2381 1159 1747 
Q 1159 1113 1420 752 
Q 1681 391 2138 391 
Q 2594 391 2855 752 
Q 3116 1113 3116 1747 
z
M 1159 2969 
Q 1341 3281 1617 3432 
Q 1894 3584 2278 3584 
Q 2916 3584 3314 3078 
Q 3713 2572 3713 1747 
Q 3713 922 3314 415 
Q 2916 -91 2278 -91 
Q 1894 -91 1617 61 
Q 1341 213 1159 525 
L 1159 0 
L 581 0 
L 581 4863 
L 1159 4863 
L 1159 2969 
z
" transform="scale(0.015625)"/>
       <path id="DejaVuSans-74" d="M 1172 4494 
L 1172 3500 
L 2356 3500 
L 2356 3053 
L 1172 3053 
L 1172 1153 
Q 1172 725 1289 603 
Q 1406 481 1766 481 
L 2356 481 
L 2356 0 
L 1766 0 
Q 1100 0 847 248 
Q 594 497 594 1153 
L 594 3053 
L 172 3053 
L 172 3500 
L 594 3500 
L 594 4494 
L 1172 4494 
z
" transform="scale(0.015625)"/>
       <path id="DejaVuSans-79" d="M 2059 -325 
Q 1816 -950 1584 -1140 
Q 1353 -1331 966 -1331 
L 506 -1331 
L 506 -850 
L 844 -850 
Q 1081 -850 1212 -737 
Q 1344 -625 1503 -206 
L 1606 56 
L 191 3500 
L 800 3500 
L 1894 763 
L 2988 3500 
L 3597 3500 
L 2059 -325 
z
" transform="scale(0.015625)"/>
       <path id="DejaVuSans-75" d="M 544 1381 
L 544 3500 
L 1119 3500 
L 1119 1403 
Q 1119 906 1312 657 
Q 1506 409 1894 409 
Q 2359 409 2629 706 
Q 2900 1003 2900 1516 
L 2900 3500 
L 3475 3500 
L 3475 0 
L 2900 0 
L 2900 538 
Q 2691 219 2414 64 
Q 2138 -91 1772 -91 
Q 1169 -91 856 284 
Q 544 659 544 1381 
z
M 1991 3584 
L 1991 3584 
z
" transform="scale(0.015625)"/>
       <path id="DejaVuSans-6e" d="M 3513 2113 
L 3513 0 
L 2938 0 
L 2938 2094 
Q 2938 2591 2744 2837 
Q 2550 3084 2163 3084 
Q 1697 3084 1428 2787 
Q 1159 2491 1159 1978 
L 1159 0 
L 581 0 
L 581 3500 
L 1159 3500 
L 1159 2956 
Q 1366 3272 1645 3428 
Q 1925 3584 2291 3584 
Q 2894 3584 3203 3211 
Q 3513 2838 3513 2113 
z
" transform="scale(0.015625)"/>
      </defs>
      <use xlink:href="#DejaVuSans-50"/>
      <use xlink:href="#DejaVuSans-6f" x="56.677734"/>
      <use xlink:href="#DejaVuSans-77" x="117.859375"/>
      <use xlink:href="#DejaVuSans-65" x="199.646484"/>
      <use xlink:href="#DejaVuSans-72" x="261.169922"/>
      <use xlink:href="#DejaVuSans-20" x="302.283203"/>
      <use xlink:href="#DejaVuSans-28" x="334.070312"/>
      <use xlink:href="#DejaVuSans-61" x="373.083984"/>
      <use xlink:href="#DejaVuSans-72" x="434.363281"/>
      <use xlink:href="#DejaVuSans-62" x="475.476562"/>
      <use xlink:href="#DejaVuSans-69" x="538.953125"/>
      <use xlink:href="#DejaVuSans-74" x="566.736328"/>
      <use xlink:href="#DejaVuSans-72" x="605.945312"/>
      <use xlink:href="#DejaVuSans-61" x="647.058594"/>
      <use xlink:href="#DejaVuSans-72" x="708.337891"/>
      <use xlink:href="#DejaVuSans-79" x="749.451172"/>
      <use xlink:href="#DejaVuSans-20" x="808.630859"/>
      <use xlink:href="#DejaVuSans-75" x="840.417969"/>
      <use xlink:href="#DejaVuSans-6e" x="903.796875"/>
      <use xlink:href="#DejaVuSans-69" x="967.175781"/>
      <use xlink:href="#DejaVuSans-74" x="994.958984"/>
      <use xlink:href="#DejaVuSans-73" x="1034.167969"/>
      <use xlink:href="#DejaVuSans-29" x="1086.267578"/>
     </g>
    </g>
   </g>
   <g id="line2d_29">
    <path d="M 115.363636 146.094593 
L 120.740907 146.222569 
L 122.719336 146.481985 
L 124.055199 146.873867 
L 125.103597 147.411307 
L 125.999809 148.123706 
L 126.811473 149.059582 
L 127.572407 150.281161 
L 128.316432 151.903614 
L 129.060457 154.077386 
L 129.804481 156.959523 
L 130.565416 160.839001 
L 131.34326 166.032141 
L 132.138014 172.939876 
L 132.628394 178.173378 
L 132.679123 177.531152 
L 133.490786 162.92591 
L 134.336269 143.523797 
L 135.198661 118.460252 
L 135.858138 100.457726 
L 136.788169 80.88677 
L 137.244729 70.052402 
L 137.346187 70.103673 
L 138.428405 70.723539 
L 138.529863 71.866608 
L 139.409165 83.84463 
L 139.527533 97.545246 
L 140.254648 194.484114 
L 140.322287 185.417629 
L 140.998673 80.308811 
L 141.100131 85.514096 
L 141.945613 142.024406 
L 142.300716 170.980301 
L 142.351445 165.961291 
L 142.892554 100.131023 
L 142.960193 104.613717 
L 143.535121 153.726545 
L 143.991682 225.740801 
L 144.042411 219.327535 
L 145.02317 84.49767 
L 145.04008 87.389755 
L 145.53046 244.87517 
L 145.581189 229.11985 
L 146.03775 66.96 
L 146.071569 87.398832 
L 146.545039 369.36 
L 146.595768 351.332594 
L 147.052329 190.482546 
L 147.103058 203.437229 
L 147.576528 330.389483 
L 147.627257 321.043215 
L 148.709475 96.558811 
L 148.794023 104.913997 
L 149.318223 154.477914 
L 149.368952 152.417845 
L 150.011519 121.6744 
L 150.028428 122.426796 
L 150.857001 251.128867 
L 150.873911 250.905539 
L 151.651755 176.22144 
L 152.108316 144.69359 
L 152.142135 145.728278 
L 152.683244 158.699962 
L 153.089076 163.93384 
L 153.35963 165.256244 
L 153.461088 165.303727 
L 153.494907 165.265183 
L 153.630185 164.839266 
L 153.85001 163.221158 
L 154.154384 159.096357 
L 154.560216 150.228471 
L 154.763131 144.852551 
L 154.780041 145.881322 
L 155.33806 186.762515 
L 155.997536 251.735476 
L 156.065175 243.134308 
L 156.843019 121.701549 
L 156.995206 127.968055 
L 157.553225 154.430028 
L 157.587044 151.373395 
L 158.178882 96.156762 
L 158.212701 103.378864 
L 159.311829 329.449565 
L 159.328738 325.02546 
L 159.836028 190.26808 
L 159.886757 207.181002 
L 160.360227 367.88469 
L 160.394046 347.900582 
L 160.867517 67.071762 
L 160.935155 89.725177 
L 161.374806 243.873445 
L 161.425535 231.877718 
L 161.899006 84.004969 
L 161.966644 92.869296 
L 162.964314 225.617193 
L 163.015043 217.781617 
L 163.708339 127.754234 
L 164.097261 100.436812 
L 164.13108 102.890289 
L 164.722918 170.884361 
L 164.773647 167.776463 
L 165.720588 102.435535 
L 166.126419 80.27866 
L 166.160239 83.280005 
L 166.971902 194.91484 
L 166.988812 192.842448 
L 167.986481 83.652246 
L 169.01797 72.565939 
L 169.322344 70.681546 
L 170.776574 70.144889 
L 171.148587 70.074256 
L 171.926431 78.814303 
L 172.619727 84.315506 
L 173.228474 87.557586 
L 173.752674 89.278547 
L 174.175415 90.00914 
L 174.513608 90.203335 
L 174.801072 90.113017 
L 175.122356 89.750535 
L 175.528187 88.922755 
L 176.052387 87.289369 
L 176.694953 84.502467 
L 177.489707 79.999582 
L 178.453558 73.188311 
L 178.859389 70.046662 
L 178.960847 70.063003 
L 182.308959 70.718758 
L 182.376597 70.806335 
L 184.405756 80.132286 
L 185.20051 84.257594 
L 187.787687 194.779129 
L 187.872235 190.933005 
L 190.307225 79.788742 
L 190.391774 81.117217 
L 194.9912 157.573726 
L 195.853592 171.344915 
L 195.887411 170.601776 
L 197.4431 138.895004 
L 198.778962 115.983266 
L 199.928819 99.864201 
L 200.926488 106.280932 
L 201.788881 110.492867 
L 202.532906 113.099093 
L 203.141653 114.509322 
L 203.648943 115.182557 
L 204.054775 115.39087 
L 204.409877 115.331888 
L 204.78189 115.028687 
L 205.221541 114.352645 
L 205.74574 113.099092 
L 206.371397 110.971809 
L 207.098512 107.650494 
L 207.943995 102.669863 
L 208.349827 99.864194 
L 208.383646 100.286984 
L 209.415135 114.680394 
L 210.581901 134.219406 
L 211.934674 160.783767 
L 212.425054 171.345228 
L 212.492692 170.360844 
L 214.200567 141.985432 
L 216.618648 101.475646 
L 217.97142 79.811266 
L 217.98833 80.578883 
L 220.490959 194.885325 
L 220.541688 192.729291 
L 223.128865 83.70964 
L 225.699132 71.481582 
L 225.969687 70.706143 
L 229.097973 70.069923 
L 230.907306 86.965975 
L 232.598271 100.74389 
L 233.393025 107.586014 
L 234.965623 128.666805 
L 236.470582 145.951026 
L 237.924813 160.175359 
L 239.328314 171.804449 
L 240.224526 178.232526 
L 240.258345 178.063527 
L 241.611117 171.880124 
L 242.94698 166.787375 
L 244.249023 162.66964 
L 245.534157 159.314164 
L 246.819291 156.56282 
L 248.104425 154.324952 
L 249.406468 152.498037 
L 250.725421 151.023227 
L 252.095103 149.820031 
L 253.549333 148.83754 
L 255.121931 148.043881 
L 256.880535 147.407755 
L 258.926604 146.909369 
L 261.429232 146.537018 
L 264.743525 146.282071 
L 269.816421 146.137872 
L 281.382625 146.090953 
L 373.286597 146.160396 
L 375.755407 146.372889 
L 377.260366 146.716153 
L 378.393313 147.199494 
L 379.323344 147.835191 
L 380.151917 148.670017 
L 380.929761 149.77396 
L 381.690696 151.257135 
L 382.434721 153.213911 
L 383.178745 155.81824 
L 383.93968 159.337396 
L 384.700614 163.950104 
L 385.478458 170.08012 
L 386.273212 178.173378 
L 386.35776 176.991862 
L 387.186333 161.89013 
L 388.031816 142.205887 
L 388.911118 116.241634 
L 389.486047 100.774716 
L 390.416078 81.281837 
L 390.889548 70.052402 
L 390.991006 70.103673 
L 392.073224 70.723539 
L 392.174682 71.866608 
L 393.053984 83.84463 
L 393.172351 97.545246 
L 393.899466 194.484114 
L 393.967105 185.417629 
L 394.643491 80.308811 
L 394.744949 85.514096 
L 395.590432 142.024406 
L 395.945535 170.980301 
L 395.996264 165.961291 
L 396.537372 100.131023 
L 396.605011 104.613717 
L 397.179939 153.726545 
L 397.6365 225.740801 
L 397.687229 219.327535 
L 398.667989 84.49767 
L 398.684899 87.389755 
L 399.175279 244.87517 
L 399.226008 229.11985 
L 399.682568 66.96 
L 399.716388 87.398832 
L 400.189858 369.36 
L 400.240587 351.332594 
L 400.697147 190.482546 
L 400.747876 203.437229 
L 401.221347 330.389483 
L 401.272076 321.043215 
L 402.354294 96.558811 
L 402.438842 104.913997 
L 402.963041 154.477914 
L 403.01377 152.417845 
L 403.656337 121.6744 
L 403.673247 122.426796 
L 404.50182 251.128867 
L 404.518729 250.905539 
L 405.296574 176.22144 
L 405.753134 144.69359 
L 405.786954 145.728278 
L 406.328062 158.699962 
L 406.733894 163.93384 
L 407.004449 165.256244 
L 407.105907 165.303727 
L 407.139726 165.265183 
L 407.275003 164.839266 
L 407.494829 163.221158 
L 407.799202 159.096357 
L 408.205034 150.228471 
L 408.40795 144.852551 
L 408.42486 145.881322 
L 408.982878 186.762515 
L 409.642355 251.735476 
L 409.709993 243.134308 
L 410.487837 121.701549 
L 410.640024 127.968055 
L 411.198043 154.430028 
L 411.231862 151.373395 
L 411.8237 96.156762 
L 411.857519 103.378864 
L 412.956647 329.449565 
L 412.973557 325.02546 
L 413.480846 190.26808 
L 413.531575 207.181002 
L 414.005046 367.88469 
L 414.038865 347.900582 
L 414.512335 67.071762 
L 414.579974 89.725177 
L 415.019625 243.873445 
L 415.070354 231.877718 
L 415.543824 84.004969 
L 415.611463 92.869296 
L 416.609132 225.617193 
L 416.659861 217.781617 
L 417.353157 127.754234 
L 417.742079 100.436812 
L 417.775899 102.890289 
L 418.367737 170.884361 
L 418.418465 167.776463 
L 419.365406 102.435535 
L 419.771238 80.27866 
L 419.805057 83.280005 
L 420.616721 194.91484 
L 420.63363 192.842448 
L 421.6313 83.652246 
L 422.662789 72.565939 
L 422.967163 70.681546 
L 424.421393 70.144889 
L 424.793405 70.074256 
L 425.571249 78.814303 
L 426.264545 84.315506 
L 426.873293 87.557586 
L 427.397492 89.278547 
L 427.820233 90.00914 
L 428.158426 90.203335 
L 428.445891 90.113017 
L 428.767174 89.750535 
L 429.173006 88.922755 
L 429.697205 87.289369 
L 430.339772 84.502467 
L 431.134526 79.999582 
L 432.098376 73.188311 
L 432.504208 70.046662 
L 432.605666 70.063003 
L 435.953777 70.718758 
L 436.021416 70.806335 
L 438.050574 80.132286 
L 438.845328 84.257594 
L 441.432505 194.779129 
L 441.517054 190.933005 
L 443.952044 79.788742 
L 444.036592 81.117217 
L 448.636018 157.573726 
L 449.498411 171.344915 
L 449.53223 170.601776 
L 451.087918 138.895004 
L 452.423781 115.983266 
L 453.573637 99.864201 
L 454.571307 106.280932 
L 455.433699 110.492867 
L 456.177724 113.099093 
L 456.786472 114.509322 
L 457.293761 115.182557 
L 457.699593 115.39087 
L 458.054696 115.331888 
L 458.426708 115.028687 
L 458.866359 114.352645 
L 459.390558 113.099092 
L 460.016216 110.971809 
L 460.743331 107.650494 
L 461.588814 102.669863 
L 461.994645 99.864194 
L 462.028465 100.286984 
L 463.059954 114.680394 
L 464.22672 134.219406 
L 465.579492 160.783767 
L 466.069872 171.345228 
L 466.137511 170.360844 
L 467.845386 141.985432 
L 470.263466 101.475646 
L 471.616239 79.811266 
L 471.633148 80.578883 
L 474.135777 194.885325 
L 474.186506 192.729291 
L 476.773683 83.70964 
L 479.343951 71.481582 
L 479.614505 70.706143 
L 482.742791 70.069923 
L 484.552124 86.965975 
L 486.24309 100.74389 
L 487.037844 107.586014 
L 488.610442 128.666805 
L 490.115401 145.951026 
L 491.569631 160.175359 
L 492.973132 171.804449 
L 493.869344 178.232526 
L 493.903163 178.063527 
L 495.255936 171.880124 
L 496.591799 166.787375 
L 497.893842 162.66964 
L 499.178976 159.314164 
L 500.464109 156.56282 
L 501.749243 154.324952 
L 503.051287 152.498037 
L 504.37024 151.023227 
L 505.739922 149.820031 
L 507.194152 148.83754 
L 508.76675 148.043881 
L 510.525354 147.407755 
L 512.571422 146.909369 
L 515.074051 146.537018 
L 518.388343 146.282071 
L 523.46124 146.137872 
L 535.027443 146.090953 
L 622.636364 146.089592 
L 622.636364 146.089592 
" clip-path="url(#p8fa2e0a84d)" style="fill: none; stroke: #d62728; stroke-width: 1.5; stroke-linecap: square"/>
   </g>
   <g id="patch_3">
    <path d="M 90 384.48 
L 90 51.84 
" style="fill: none; stroke: #000000; stroke-width: 0.8; stroke-linejoin: miter; stroke-linecap: square"/>
   </g>
   <g id="patch_4">
    <path d="M 648 384.48 
L 648 51.84 
" style="fill: none; stroke: #000000; stroke-width: 0.8; stroke-linejoin: miter; stroke-linecap: square"/>
   </g>
   <g id="patch_5">
    <path d="M 90 384.48 
L 648 384.48 
" style="fill: none; stroke: #000000; stroke-width: 0.8; stroke-linejoin: miter; stroke-linecap: square"/>
   </g>
   <g id="patch_6">
    <path d="M 90 51.84 
L 648 51.84 
" style="fill: none; stroke: #000000; stroke-width: 0.8; stroke-linejoin: miter; stroke-linecap: square"/>
   </g>
   <g id="text_17">
    <!-- Simulated Output Power from Pulse -->
    <g transform="translate(262.315313 45.84) scale(0.12 -0.12)">
     <defs>
      <path id="DejaVuSans-53" d="M 3425 4513 
L 3425 3897 
Q 3066 4069 2747 4153 
Q 2428 4238 2131 4238 
Q 1616 4238 1336 4038 
Q 1056 3838 1056 3469 
Q 1056 3159 1242 3001 
Q 1428 2844 1947 2747 
L 2328 2669 
Q 3034 2534 3370 2195 
Q 3706 1856 3706 1288 
Q 3706 609 3251 259 
Q 2797 -91 1919 -91 
Q 1588 -91 1214 -16 
Q 841 59 441 206 
L 441 856 
Q 825 641 1194 531 
Q 1563 422 1919 422 
Q 2459 422 2753 634 
Q 3047 847 3047 1241 
Q 3047 1584 2836 1778 
Q 2625 1972 2144 2069 
L 1759 2144 
Q 1053 2284 737 2584 
Q 422 2884 422 3419 
Q 422 4038 858 4394 
Q 1294 4750 2059 4750 
Q 2388 4750 2728 4690 
Q 3069 4631 3425 4513 
z
" transform="scale(0.015625)"/>
      <path id="DejaVuSans-6c" d="M 603 4863 
L 1178 4863 
L 1178 0 
L 603 0 
L 603 4863 
z
" transform="scale(0.015625)"/>
      <path id="DejaVuSans-64" d="M 2906 2969 
L 2906 4863 
L 3481 4863 
L 3481 0 
L 2906 0 
L 2906 525 
Q 2725 213 2448 61 
Q 2172 -91 1784 -91 
Q 1150 -91 751 415 
Q 353 922 353 1747 
Q 353 2572 751 3078 
Q 1150 3584 1784 3584 
Q 2172 3584 2448 3432 
Q 2725 3281 2906 2969 
z
M 947 1747 
Q 947 1113 1208 752 
Q 1469 391 1925 391 
Q 2381 391 2643 752 
Q 2906 1113 2906 1747 
Q 2906 2381 2643 2742 
Q 2381 3103 1925 3103 
Q 1469 3103 1208 2742 
Q 947 2381 947 1747 
z
" transform="scale(0.015625)"/>
      <path id="DejaVuSans-4f" d="M 2522 4238 
Q 1834 4238 1429 3725 
Q 1025 3213 1025 2328 
Q 1025 1447 1429 934 
Q 1834 422 2522 422 
Q 3209 422 3611 934 
Q 4013 1447 4013 2328 
Q 4013 3213 3611 3725 
Q 3209 4238 2522 4238 
z
M 2522 4750 
Q 3503 4750 4090 4092 
Q 4678 3434 4678 2328 
Q 4678 1225 4090 567 
Q 3503 -91 2522 -91 
Q 1538 -91 948 565 
Q 359 1222 359 2328 
Q 359 3434 948 4092 
Q 1538 4750 2522 4750 
z
" transform="scale(0.015625)"/>
      <path id="DejaVuSans-70" d="M 1159 525 
L 1159 -1331 
L 581 -1331 
L 581 3500 
L 1159 3500 
L 1159 2969 
Q 1341 3281 1617 3432 
Q 1894 3584 2278 3584 
Q 2916 3584 3314 3078 
Q 3713 2572 3713 1747 
Q 3713 922 3314 415 
Q 2916 -91 2278 -91 
Q 1894 -91 1617 61 
Q 1341 213 1159 525 
z
M 3116 1747 
Q 3116 2381 2855 2742 
Q 2594 3103 2138 3103 
Q 1681 3103 1420 2742 
Q 1159 2381 1159 1747 
Q 1159 1113 1420 752 
Q 1681 391 2138 391 
Q 2594 391 2855 752 
Q 3116 1113 3116 1747 
z
" transform="scale(0.015625)"/>
      <path id="DejaVuSans-66" d="M 2375 4863 
L 2375 4384 
L 1825 4384 
Q 1516 4384 1395 4259 
Q 1275 4134 1275 3809 
L 1275 3500 
L 2222 3500 
L 2222 3053 
L 1275 3053 
L 1275 0 
L 697 0 
L 697 3053 
L 147 3053 
L 147 3500 
L 697 3500 
L 697 3744 
Q 697 4328 969 4595 
Q 1241 4863 1831 4863 
L 2375 4863 
z
" transform="scale(0.015625)"/>
     </defs>
     <use xlink:href="#DejaVuSans-53"/>
     <use xlink:href="#DejaVuSans-69" x="63.476562"/>
     <use xlink:href="#DejaVuSans-6d" x="91.259766"/>
     <use xlink:href="#DejaVuSans-75" x="188.671875"/>
     <use xlink:href="#DejaVuSans-6c" x="252.050781"/>
     <use xlink:href="#DejaVuSans-61" x="279.833984"/>
     <use xlink:href="#DejaVuSans-74" x="341.113281"/>
     <use xlink:href="#DejaVuSans-65" x="380.322266"/>
     <use xlink:href="#DejaVuSans-64" x="441.845703"/>
     <use xlink:href="#DejaVuSans-20" x="505.322266"/>
     <use xlink:href="#DejaVuSans-4f" x="537.109375"/>
     <use xlink:href="#DejaVuSans-75" x="615.820312"/>
     <use xlink:href="#DejaVuSans-74" x="679.199219"/>
     <use xlink:href="#DejaVuSans-70" x="718.408203"/>
     <use xlink:href="#DejaVuSans-75" x="781.884766"/>
     <use xlink:href="#DejaVuSans-74" x="845.263672"/>
     <use xlink:href="#DejaVuSans-20" x="884.472656"/>
     <use xlink:href="#DejaVuSans-50" x="916.259766"/>
     <use xlink:href="#DejaVuSans-6f" x="972.9375"/>
     <use xlink:href="#DejaVuSans-77" x="1034.119141"/>
     <use xlink:href="#DejaVuSans-65" x="1115.90625"/>
     <use xlink:href="#DejaVuSans-72" x="1177.429688"/>
     <use xlink:href="#DejaVuSans-20" x="1218.542969"/>
     <use xlink:href="#DejaVuSans-66" x="1250.330078"/>
     <use xlink:href="#DejaVuSans-72" x="1285.535156"/>
     <use xlink:href="#DejaVuSans-6f" x="1324.398438"/>
     <use xlink:href="#DejaVuSans-6d" x="1385.580078"/>
     <use xlink:href="#DejaVuSans-20" x="1482.992188"/>
     <use xlink:href="#DejaVuSans-50" x="1514.779297"/>
     <use xlink:href="#DejaVuSans-75" x="1573.332031"/>
     <use xlink:href="#DejaVuSans-6c" x="1636.710938"/>
     <use xlink:href="#DejaVuSans-73" x="1664.494141"/>
     <use xlink:href="#DejaVuSans-65" x="1716.59375"/>
    </g>
   </g>
  </g>
 </g>
 <defs>
  <clipPath id="p8fa2e0a84d">
   <rect x="90" y="51.84" width="558" height="332.64"/>
  </clipPath>
 </defs>
</svg>
