<?xml version="1.0" encoding="utf-8" standalone="no"?>
<!DOCTYPE svg PUBLIC "-//W3C//DTD SVG 1.1//EN"
  "http://www.w3.org/Graphics/SVG/1.1/DTD/svg11.dtd">
<svg xmlns:xlink="http://www.w3.org/1999/xlink" width="720pt" height="432pt" viewBox="0 0 720 432" xmlns="http://www.w3.org/2000/svg" version="1.1">
 <metadata>
  <rdf:RDF xmlns:dc="http://purl.org/dc/elements/1.1/" xmlns:cc="http://creativecommons.org/ns#" xmlns:rdf="http://www.w3.org/1999/02/22-rdf-syntax-ns#">
   <cc:Work>
    <dc:type rdf:resource="http://purl.org/dc/dcmitype/StillImage"/>
    <dc:date>2025-08-08T12:04:07.996959</dc:date>
    <dc:format>image/svg+xml</dc:format>
    <dc:creator>
     <cc:Agent>
      <dc:title>Matplotlib v3.7.5, https://matplotlib.org/</dc:title>
     </cc:Agent>
    </dc:creator>
   </cc:Work>
  </rdf:RDF>
 </metadata>
 <defs>
  <style type="text/css">*{stroke-linejoin: round; stroke-linecap: butt}</style>
 </defs>
 <g id="figure_1">
  <g id="patch_1">
   <path d="M 0 432 
L 720 432 
L 720 0 
L 0 0 
z
" style="fill: #ffffff"/>
  </g>
  <g id="axes_1">
   <g id="patch_2">
    <path d="M 90 384.48 
L 648 384.48 
L 648 51.84 
L 90 51.84 
z
" style="fill: #ffffff"/>
   </g>
   <g id="matplotlib.axis_1">
    <g id="xtick_1">
     <g id="line2d_1">
      <path d="M 115.363636 384.48 
L 115.363636 51.84 
" clip-path="url(#pa0c246f2f3)" style="fill: none; stroke: #b0b0b0; stroke-width: 0.8; stroke-linecap: square"/>
     </g>
     <g id="line2d_2">
      <defs>
       <path id="mc99bf8b51b" d="M 0 0 
L 0 3.5 
" style="stroke: #000000; stroke-width: 0.8"/>
      </defs>
      <g>
       <use xlink:href="#mc99bf8b51b" x="115.363636" y="384.48" style="stroke: #000000; stroke-width: 0.8"/>
      </g>
     </g>
     <g id="text_1">
      <!-- 0.00 -->
      <g transform="translate(104.230824 399.078438) scale(0.1 -0.1)">
       <defs>
        <path id="DejaVuSans-30" d="M 2034 4250 
Q 1547 4250 1301 3770 
Q 1056 3291 1056 2328 
Q 1056 1369 1301 889 
Q 1547 409 2034 409 
Q 2525 409 2770 889 
Q 3016 1369 3016 2328 
Q 3016 3291 2770 3770 
Q 2525 4250 2034 4250 
z
M 2034 4750 
Q 2819 4750 3233 4129 
Q 3647 3509 3647 2328 
Q 3647 1150 3233 529 
Q 2819 -91 2034 -91 
Q 1250 -91 836 529 
Q 422 1150 422 2328 
Q 422 3509 836 4129 
Q 1250 4750 2034 4750 
z
" transform="scale(0.015625)"/>
        <path id="DejaVuSans-2e" d="M 684 794 
L 1344 794 
L 1344 0 
L 684 0 
L 684 794 
z
" transform="scale(0.015625)"/>
       </defs>
       <use xlink:href="#DejaVuSans-30"/>
       <use xlink:href="#DejaVuSans-2e" x="63.623047"/>
       <use xlink:href="#DejaVuSans-30" x="95.410156"/>
       <use xlink:href="#DejaVuSans-30" x="159.033203"/>
      </g>
     </g>
    </g>
    <g id="xtick_2">
     <g id="line2d_3">
      <path d="M 216.868934 384.48 
L 216.868934 51.84 
" clip-path="url(#pa0c246f2f3)" style="fill: none; stroke: #b0b0b0; stroke-width: 0.8; stroke-linecap: square"/>
     </g>
     <g id="line2d_4">
      <g>
       <use xlink:href="#mc99bf8b51b" x="216.868934" y="384.48" style="stroke: #000000; stroke-width: 0.8"/>
      </g>
     </g>
     <g id="text_2">
      <!-- 0.02 -->
      <g transform="translate(205.736122 399.078438) scale(0.1 -0.1)">
       <defs>
        <path id="DejaVuSans-32" d="M 1228 531 
L 3431 531 
L 3431 0 
L 469 0 
L 469 531 
Q 828 903 1448 1529 
Q 2069 2156 2228 2338 
Q 2531 2678 2651 2914 
Q 2772 3150 2772 3378 
Q 2772 3750 2511 3984 
Q 2250 4219 1831 4219 
Q 1534 4219 1204 4116 
Q 875 4013 500 3803 
L 500 4441 
Q 881 4594 1212 4672 
Q 1544 4750 1819 4750 
Q 2544 4750 2975 4387 
Q 3406 4025 3406 3419 
Q 3406 3131 3298 2873 
Q 3191 2616 2906 2266 
Q 2828 2175 2409 1742 
Q 1991 1309 1228 531 
z
" transform="scale(0.015625)"/>
       </defs>
       <use xlink:href="#DejaVuSans-30"/>
       <use xlink:href="#DejaVuSans-2e" x="63.623047"/>
       <use xlink:href="#DejaVuSans-30" x="95.410156"/>
       <use xlink:href="#DejaVuSans-32" x="159.033203"/>
      </g>
     </g>
    </g>
    <g id="xtick_3">
     <g id="line2d_5">
      <path d="M 318.374233 384.48 
L 318.374233 51.84 
" clip-path="url(#pa0c246f2f3)" style="fill: none; stroke: #b0b0b0; stroke-width: 0.8; stroke-linecap: square"/>
     </g>
     <g id="line2d_6">
      <g>
       <use xlink:href="#mc99bf8b51b" x="318.374233" y="384.48" style="stroke: #000000; stroke-width: 0.8"/>
      </g>
     </g>
     <g id="text_3">
      <!-- 0.04 -->
      <g transform="translate(307.24142 399.078438) scale(0.1 -0.1)">
       <defs>
        <path id="DejaVuSans-34" d="M 2419 4116 
L 825 1625 
L 2419 1625 
L 2419 4116 
z
M 2253 4666 
L 3047 4666 
L 3047 1625 
L 3713 1625 
L 3713 1100 
L 3047 1100 
L 3047 0 
L 2419 0 
L 2419 1100 
L 313 1100 
L 313 1709 
L 2253 4666 
z
" transform="scale(0.015625)"/>
       </defs>
       <use xlink:href="#DejaVuSans-30"/>
       <use xlink:href="#DejaVuSans-2e" x="63.623047"/>
       <use xlink:href="#DejaVuSans-30" x="95.410156"/>
       <use xlink:href="#DejaVuSans-34" x="159.033203"/>
      </g>
     </g>
    </g>
    <g id="xtick_4">
     <g id="line2d_7">
      <path d="M 419.879531 384.48 
L 419.879531 51.84 
" clip-path="url(#pa0c246f2f3)" style="fill: none; stroke: #b0b0b0; stroke-width: 0.8; stroke-linecap: square"/>
     </g>
     <g id="line2d_8">
      <g>
       <use xlink:href="#mc99bf8b51b" x="419.879531" y="384.48" style="stroke: #000000; stroke-width: 0.8"/>
      </g>
     </g>
     <g id="text_4">
      <!-- 0.06 -->
      <g transform="translate(408.746718 399.078438) scale(0.1 -0.1)">
       <defs>
        <path id="DejaVuSans-36" d="M 2113 2584 
Q 1688 2584 1439 2293 
Q 1191 2003 1191 1497 
Q 1191 994 1439 701 
Q 1688 409 2113 409 
Q 2538 409 2786 701 
Q 3034 994 3034 1497 
Q 3034 2003 2786 2293 
Q 2538 2584 2113 2584 
z
M 3366 4563 
L 3366 3988 
Q 3128 4100 2886 4159 
Q 2644 4219 2406 4219 
Q 1781 4219 1451 3797 
Q 1122 3375 1075 2522 
Q 1259 2794 1537 2939 
Q 1816 3084 2150 3084 
Q 2853 3084 3261 2657 
Q 3669 2231 3669 1497 
Q 3669 778 3244 343 
Q 2819 -91 2113 -91 
Q 1303 -91 875 529 
Q 447 1150 447 2328 
Q 447 3434 972 4092 
Q 1497 4750 2381 4750 
Q 2619 4750 2861 4703 
Q 3103 4656 3366 4563 
z
" transform="scale(0.015625)"/>
       </defs>
       <use xlink:href="#DejaVuSans-30"/>
       <use xlink:href="#DejaVuSans-2e" x="63.623047"/>
       <use xlink:href="#DejaVuSans-30" x="95.410156"/>
       <use xlink:href="#DejaVuSans-36" x="159.033203"/>
      </g>
     </g>
    </g>
    <g id="xtick_5">
     <g id="line2d_9">
      <path d="M 521.384829 384.48 
L 521.384829 51.84 
" clip-path="url(#pa0c246f2f3)" style="fill: none; stroke: #b0b0b0; stroke-width: 0.8; stroke-linecap: square"/>
     </g>
     <g id="line2d_10">
      <g>
       <use xlink:href="#mc99bf8b51b" x="521.384829" y="384.48" style="stroke: #000000; stroke-width: 0.8"/>
      </g>
     </g>
     <g id="text_5">
      <!-- 0.08 -->
      <g transform="translate(510.252016 399.078438) scale(0.1 -0.1)">
       <defs>
        <path id="DejaVuSans-38" d="M 2034 2216 
Q 1584 2216 1326 1975 
Q 1069 1734 1069 1313 
Q 1069 891 1326 650 
Q 1584 409 2034 409 
Q 2484 409 2743 651 
Q 3003 894 3003 1313 
Q 3003 1734 2745 1975 
Q 2488 2216 2034 2216 
z
M 1403 2484 
Q 997 2584 770 2862 
Q 544 3141 544 3541 
Q 544 4100 942 4425 
Q 1341 4750 2034 4750 
Q 2731 4750 3128 4425 
Q 3525 4100 3525 3541 
Q 3525 3141 3298 2862 
Q 3072 2584 2669 2484 
Q 3125 2378 3379 2068 
Q 3634 1759 3634 1313 
Q 3634 634 3220 271 
Q 2806 -91 2034 -91 
Q 1263 -91 848 271 
Q 434 634 434 1313 
Q 434 1759 690 2068 
Q 947 2378 1403 2484 
z
M 1172 3481 
Q 1172 3119 1398 2916 
Q 1625 2713 2034 2713 
Q 2441 2713 2670 2916 
Q 2900 3119 2900 3481 
Q 2900 3844 2670 4047 
Q 2441 4250 2034 4250 
Q 1625 4250 1398 4047 
Q 1172 3844 1172 3481 
z
" transform="scale(0.015625)"/>
       </defs>
       <use xlink:href="#DejaVuSans-30"/>
       <use xlink:href="#DejaVuSans-2e" x="63.623047"/>
       <use xlink:href="#DejaVuSans-30" x="95.410156"/>
       <use xlink:href="#DejaVuSans-38" x="159.033203"/>
      </g>
     </g>
    </g>
    <g id="xtick_6">
     <g id="line2d_11">
      <path d="M 622.890127 384.48 
L 622.890127 51.84 
" clip-path="url(#pa0c246f2f3)" style="fill: none; stroke: #b0b0b0; stroke-width: 0.8; stroke-linecap: square"/>
     </g>
     <g id="line2d_12">
      <g>
       <use xlink:href="#mc99bf8b51b" x="622.890127" y="384.48" style="stroke: #000000; stroke-width: 0.8"/>
      </g>
     </g>
     <g id="text_6">
      <!-- 0.10 -->
      <g transform="translate(611.757314 399.078438) scale(0.1 -0.1)">
       <defs>
        <path id="DejaVuSans-31" d="M 794 531 
L 1825 531 
L 1825 4091 
L 703 3866 
L 703 4441 
L 1819 4666 
L 2450 4666 
L 2450 531 
L 3481 531 
L 3481 0 
L 794 0 
L 794 531 
z
" transform="scale(0.015625)"/>
       </defs>
       <use xlink:href="#DejaVuSans-30"/>
       <use xlink:href="#DejaVuSans-2e" x="63.623047"/>
       <use xlink:href="#DejaVuSans-31" x="95.410156"/>
       <use xlink:href="#DejaVuSans-30" x="159.033203"/>
      </g>
     </g>
    </g>
    <g id="text_7">
     <!-- Time (s) -->
     <g transform="translate(348.671094 412.756563) scale(0.1 -0.1)">
      <defs>
       <path id="DejaVuSans-54" d="M -19 4666 
L 3928 4666 
L 3928 4134 
L 2272 4134 
L 2272 0 
L 1638 0 
L 1638 4134 
L -19 4134 
L -19 4666 
z
" transform="scale(0.015625)"/>
       <path id="DejaVuSans-69" d="M 603 3500 
L 1178 3500 
L 1178 0 
L 603 0 
L 603 3500 
z
M 603 4863 
L 1178 4863 
L 1178 4134 
L 603 4134 
L 603 4863 
z
" transform="scale(0.015625)"/>
       <path id="DejaVuSans-6d" d="M 3328 2828 
Q 3544 3216 3844 3400 
Q 4144 3584 4550 3584 
Q 5097 3584 5394 3201 
Q 5691 2819 5691 2113 
L 5691 0 
L 5113 0 
L 5113 2094 
Q 5113 2597 4934 2840 
Q 4756 3084 4391 3084 
Q 3944 3084 3684 2787 
Q 3425 2491 3425 1978 
L 3425 0 
L 2847 0 
L 2847 2094 
Q 2847 2600 2669 2842 
Q 2491 3084 2119 3084 
Q 1678 3084 1418 2786 
Q 1159 2488 1159 1978 
L 1159 0 
L 581 0 
L 581 3500 
L 1159 3500 
L 1159 2956 
Q 1356 3278 1631 3431 
Q 1906 3584 2284 3584 
Q 2666 3584 2933 3390 
Q 3200 3197 3328 2828 
z
" transform="scale(0.015625)"/>
       <path id="DejaVuSans-65" d="M 3597 1894 
L 3597 1613 
L 953 1613 
Q 991 1019 1311 708 
Q 1631 397 2203 397 
Q 2534 397 2845 478 
Q 3156 559 3463 722 
L 3463 178 
Q 3153 47 2828 -22 
Q 2503 -91 2169 -91 
Q 1331 -91 842 396 
Q 353 884 353 1716 
Q 353 2575 817 3079 
Q 1281 3584 2069 3584 
Q 2775 3584 3186 3129 
Q 3597 2675 3597 1894 
z
M 3022 2063 
Q 3016 2534 2758 2815 
Q 2500 3097 2075 3097 
Q 1594 3097 1305 2825 
Q 1016 2553 972 2059 
L 3022 2063 
z
" transform="scale(0.015625)"/>
       <path id="DejaVuSans-20" transform="scale(0.015625)"/>
       <path id="DejaVuSans-28" d="M 1984 4856 
Q 1566 4138 1362 3434 
Q 1159 2731 1159 2009 
Q 1159 1288 1364 580 
Q 1569 -128 1984 -844 
L 1484 -844 
Q 1016 -109 783 600 
Q 550 1309 550 2009 
Q 550 2706 781 3412 
Q 1013 4119 1484 4856 
L 1984 4856 
z
" transform="scale(0.015625)"/>
       <path id="DejaVuSans-73" d="M 2834 3397 
L 2834 2853 
Q 2591 2978 2328 3040 
Q 2066 3103 1784 3103 
Q 1356 3103 1142 2972 
Q 928 2841 928 2578 
Q 928 2378 1081 2264 
Q 1234 2150 1697 2047 
L 1894 2003 
Q 2506 1872 2764 1633 
Q 3022 1394 3022 966 
Q 3022 478 2636 193 
Q 2250 -91 1575 -91 
Q 1294 -91 989 -36 
Q 684 19 347 128 
L 347 722 
Q 666 556 975 473 
Q 1284 391 1588 391 
Q 1994 391 2212 530 
Q 2431 669 2431 922 
Q 2431 1156 2273 1281 
Q 2116 1406 1581 1522 
L 1381 1569 
Q 847 1681 609 1914 
Q 372 2147 372 2553 
Q 372 3047 722 3315 
Q 1072 3584 1716 3584 
Q 2034 3584 2315 3537 
Q 2597 3491 2834 3397 
z
" transform="scale(0.015625)"/>
       <path id="DejaVuSans-29" d="M 513 4856 
L 1013 4856 
Q 1481 4119 1714 3412 
Q 1947 2706 1947 2009 
Q 1947 1309 1714 600 
Q 1481 -109 1013 -844 
L 513 -844 
Q 928 -128 1133 580 
Q 1338 1288 1338 2009 
Q 1338 2731 1133 3434 
Q 928 4138 513 4856 
z
" transform="scale(0.015625)"/>
      </defs>
      <use xlink:href="#DejaVuSans-54"/>
      <use xlink:href="#DejaVuSans-69" x="57.958984"/>
      <use xlink:href="#DejaVuSans-6d" x="85.742188"/>
      <use xlink:href="#DejaVuSans-65" x="183.154297"/>
      <use xlink:href="#DejaVuSans-20" x="244.677734"/>
      <use xlink:href="#DejaVuSans-28" x="276.464844"/>
      <use xlink:href="#DejaVuSans-73" x="315.478516"/>
      <use xlink:href="#DejaVuSans-29" x="367.578125"/>
     </g>
    </g>
   </g>
   <g id="matplotlib.axis_2">
    <g id="ytick_1">
     <g id="line2d_13">
      <path d="M 90 369.36 
L 648 369.36 
" clip-path="url(#pa0c246f2f3)" style="fill: none; stroke: #b0b0b0; stroke-width: 0.8; stroke-linecap: square"/>
     </g>
     <g id="line2d_14">
      <defs>
       <path id="m3c497ab500" d="M 0 0 
L -3.5 0 
" style="stroke: #000000; stroke-width: 0.8"/>
      </defs>
      <g>
       <use xlink:href="#m3c497ab500" x="90" y="369.36" style="stroke: #000000; stroke-width: 0.8"/>
      </g>
     </g>
     <g id="text_8">
      <!-- 585 -->
      <g transform="translate(63.9125 373.159219) scale(0.1 -0.1)">
       <defs>
        <path id="DejaVuSans-35" d="M 691 4666 
L 3169 4666 
L 3169 4134 
L 1269 4134 
L 1269 2991 
Q 1406 3038 1543 3061 
Q 1681 3084 1819 3084 
Q 2600 3084 3056 2656 
Q 3513 2228 3513 1497 
Q 3513 744 3044 326 
Q 2575 -91 1722 -91 
Q 1428 -91 1123 -41 
Q 819 9 494 109 
L 494 744 
Q 775 591 1075 516 
Q 1375 441 1709 441 
Q 2250 441 2565 725 
Q 2881 1009 2881 1497 
Q 2881 1984 2565 2268 
Q 2250 2553 1709 2553 
Q 1456 2553 1204 2497 
Q 953 2441 691 2322 
L 691 4666 
z
" transform="scale(0.015625)"/>
       </defs>
       <use xlink:href="#DejaVuSans-35"/>
       <use xlink:href="#DejaVuSans-38" x="63.623047"/>
       <use xlink:href="#DejaVuSans-35" x="127.246094"/>
      </g>
     </g>
    </g>
    <g id="ytick_2">
     <g id="line2d_15">
      <path d="M 90 318.96 
L 648 318.96 
" clip-path="url(#pa0c246f2f3)" style="fill: none; stroke: #b0b0b0; stroke-width: 0.8; stroke-linecap: square"/>
     </g>
     <g id="line2d_16">
      <g>
       <use xlink:href="#m3c497ab500" x="90" y="318.96" style="stroke: #000000; stroke-width: 0.8"/>
      </g>
     </g>
     <g id="text_9">
      <!-- 590 -->
      <g transform="translate(63.9125 322.759219) scale(0.1 -0.1)">
       <defs>
        <path id="DejaVuSans-39" d="M 703 97 
L 703 672 
Q 941 559 1184 500 
Q 1428 441 1663 441 
Q 2288 441 2617 861 
Q 2947 1281 2994 2138 
Q 2813 1869 2534 1725 
Q 2256 1581 1919 1581 
Q 1219 1581 811 2004 
Q 403 2428 403 3163 
Q 403 3881 828 4315 
Q 1253 4750 1959 4750 
Q 2769 4750 3195 4129 
Q 3622 3509 3622 2328 
Q 3622 1225 3098 567 
Q 2575 -91 1691 -91 
Q 1453 -91 1209 -44 
Q 966 3 703 97 
z
M 1959 2075 
Q 2384 2075 2632 2365 
Q 2881 2656 2881 3163 
Q 2881 3666 2632 3958 
Q 2384 4250 1959 4250 
Q 1534 4250 1286 3958 
Q 1038 3666 1038 3163 
Q 1038 2656 1286 2365 
Q 1534 2075 1959 2075 
z
" transform="scale(0.015625)"/>
       </defs>
       <use xlink:href="#DejaVuSans-35"/>
       <use xlink:href="#DejaVuSans-39" x="63.623047"/>
       <use xlink:href="#DejaVuSans-30" x="127.246094"/>
      </g>
     </g>
    </g>
    <g id="ytick_3">
     <g id="line2d_17">
      <path d="M 90 268.56 
L 648 268.56 
" clip-path="url(#pa0c246f2f3)" style="fill: none; stroke: #b0b0b0; stroke-width: 0.8; stroke-linecap: square"/>
     </g>
     <g id="line2d_18">
      <g>
       <use xlink:href="#m3c497ab500" x="90" y="268.56" style="stroke: #000000; stroke-width: 0.8"/>
      </g>
     </g>
     <g id="text_10">
      <!-- 595 -->
      <g transform="translate(63.9125 272.359219) scale(0.1 -0.1)">
       <use xlink:href="#DejaVuSans-35"/>
       <use xlink:href="#DejaVuSans-39" x="63.623047"/>
       <use xlink:href="#DejaVuSans-35" x="127.246094"/>
      </g>
     </g>
    </g>
    <g id="ytick_4">
     <g id="line2d_19">
      <path d="M 90 218.16 
L 648 218.16 
" clip-path="url(#pa0c246f2f3)" style="fill: none; stroke: #b0b0b0; stroke-width: 0.8; stroke-linecap: square"/>
     </g>
     <g id="line2d_20">
      <g>
       <use xlink:href="#m3c497ab500" x="90" y="218.16" style="stroke: #000000; stroke-width: 0.8"/>
      </g>
     </g>
     <g id="text_11">
      <!-- 600 -->
      <g transform="translate(63.9125 221.959219) scale(0.1 -0.1)">
       <use xlink:href="#DejaVuSans-36"/>
       <use xlink:href="#DejaVuSans-30" x="63.623047"/>
       <use xlink:href="#DejaVuSans-30" x="127.246094"/>
      </g>
     </g>
    </g>
    <g id="ytick_5">
     <g id="line2d_21">
      <path d="M 90 167.76 
L 648 167.76 
" clip-path="url(#pa0c246f2f3)" style="fill: none; stroke: #b0b0b0; stroke-width: 0.8; stroke-linecap: square"/>
     </g>
     <g id="line2d_22">
      <g>
       <use xlink:href="#m3c497ab500" x="90" y="167.76" style="stroke: #000000; stroke-width: 0.8"/>
      </g>
     </g>
     <g id="text_12">
      <!-- 605 -->
      <g transform="translate(63.9125 171.559219) scale(0.1 -0.1)">
       <use xlink:href="#DejaVuSans-36"/>
       <use xlink:href="#DejaVuSans-30" x="63.623047"/>
       <use xlink:href="#DejaVuSans-35" x="127.246094"/>
      </g>
     </g>
    </g>
    <g id="ytick_6">
     <g id="line2d_23">
      <path d="M 90 117.36 
L 648 117.36 
" clip-path="url(#pa0c246f2f3)" style="fill: none; stroke: #b0b0b0; stroke-width: 0.8; stroke-linecap: square"/>
     </g>
     <g id="line2d_24">
      <g>
       <use xlink:href="#m3c497ab500" x="90" y="117.36" style="stroke: #000000; stroke-width: 0.8"/>
      </g>
     </g>
     <g id="text_13">
      <!-- 610 -->
      <g transform="translate(63.9125 121.159219) scale(0.1 -0.1)">
       <use xlink:href="#DejaVuSans-36"/>
       <use xlink:href="#DejaVuSans-31" x="63.623047"/>
       <use xlink:href="#DejaVuSans-30" x="127.246094"/>
      </g>
     </g>
    </g>
    <g id="ytick_7">
     <g id="line2d_25">
      <path d="M 90 66.96 
L 648 66.96 
" clip-path="url(#pa0c246f2f3)" style="fill: none; stroke: #b0b0b0; stroke-width: 0.8; stroke-linecap: square"/>
     </g>
     <g id="line2d_26">
      <g>
       <use xlink:href="#m3c497ab500" x="90" y="66.96" style="stroke: #000000; stroke-width: 0.8"/>
      </g>
     </g>
     <g id="text_14">
      <!-- 615 -->
      <g transform="translate(63.9125 70.759219) scale(0.1 -0.1)">
       <use xlink:href="#DejaVuSans-36"/>
       <use xlink:href="#DejaVuSans-31" x="63.623047"/>
       <use xlink:href="#DejaVuSans-35" x="127.246094"/>
      </g>
     </g>
    </g>
    <g id="text_15">
     <!-- Displacement (µm) -->
     <g transform="translate(57.832812 266.074844) rotate(-90) scale(0.1 -0.1)">
      <defs>
       <path id="DejaVuSans-44" d="M 1259 4147 
L 1259 519 
L 2022 519 
Q 2988 519 3436 956 
Q 3884 1394 3884 2338 
Q 3884 3275 3436 3711 
Q 2988 4147 2022 4147 
L 1259 4147 
z
M 628 4666 
L 1925 4666 
Q 3281 4666 3915 4102 
Q 4550 3538 4550 2338 
Q 4550 1131 3912 565 
Q 3275 0 1925 0 
L 628 0 
L 628 4666 
z
" transform="scale(0.015625)"/>
       <path id="DejaVuSans-70" d="M 1159 525 
L 1159 -1331 
L 581 -1331 
L 581 3500 
L 1159 3500 
L 1159 2969 
Q 1341 3281 1617 3432 
Q 1894 3584 2278 3584 
Q 2916 3584 3314 3078 
Q 3713 2572 3713 1747 
Q 3713 922 3314 415 
Q 2916 -91 2278 -91 
Q 1894 -91 1617 61 
Q 1341 213 1159 525 
z
M 3116 1747 
Q 3116 2381 2855 2742 
Q 2594 3103 2138 3103 
Q 1681 3103 1420 2742 
Q 1159 2381 1159 1747 
Q 1159 1113 1420 752 
Q 1681 391 2138 391 
Q 2594 391 2855 752 
Q 3116 1113 3116 1747 
z
" transform="scale(0.015625)"/>
       <path id="DejaVuSans-6c" d="M 603 4863 
L 1178 4863 
L 1178 0 
L 603 0 
L 603 4863 
z
" transform="scale(0.015625)"/>
       <path id="DejaVuSans-61" d="M 2194 1759 
Q 1497 1759 1228 1600 
Q 959 1441 959 1056 
Q 959 750 1161 570 
Q 1363 391 1709 391 
Q 2188 391 2477 730 
Q 2766 1069 2766 1631 
L 2766 1759 
L 2194 1759 
z
M 3341 1997 
L 3341 0 
L 2766 0 
L 2766 531 
Q 2569 213 2275 61 
Q 1981 -91 1556 -91 
Q 1019 -91 701 211 
Q 384 513 384 1019 
Q 384 1609 779 1909 
Q 1175 2209 1959 2209 
L 2766 2209 
L 2766 2266 
Q 2766 2663 2505 2880 
Q 2244 3097 1772 3097 
Q 1472 3097 1187 3025 
Q 903 2953 641 2809 
L 641 3341 
Q 956 3463 1253 3523 
Q 1550 3584 1831 3584 
Q 2591 3584 2966 3190 
Q 3341 2797 3341 1997 
z
" transform="scale(0.015625)"/>
       <path id="DejaVuSans-63" d="M 3122 3366 
L 3122 2828 
Q 2878 2963 2633 3030 
Q 2388 3097 2138 3097 
Q 1578 3097 1268 2742 
Q 959 2388 959 1747 
Q 959 1106 1268 751 
Q 1578 397 2138 397 
Q 2388 397 2633 464 
Q 2878 531 3122 666 
L 3122 134 
Q 2881 22 2623 -34 
Q 2366 -91 2075 -91 
Q 1284 -91 818 406 
Q 353 903 353 1747 
Q 353 2603 823 3093 
Q 1294 3584 2113 3584 
Q 2378 3584 2631 3529 
Q 2884 3475 3122 3366 
z
" transform="scale(0.015625)"/>
       <path id="DejaVuSans-6e" d="M 3513 2113 
L 3513 0 
L 2938 0 
L 2938 2094 
Q 2938 2591 2744 2837 
Q 2550 3084 2163 3084 
Q 1697 3084 1428 2787 
Q 1159 2491 1159 1978 
L 1159 0 
L 581 0 
L 581 3500 
L 1159 3500 
L 1159 2956 
Q 1366 3272 1645 3428 
Q 1925 3584 2291 3584 
Q 2894 3584 3203 3211 
Q 3513 2838 3513 2113 
z
" transform="scale(0.015625)"/>
       <path id="DejaVuSans-74" d="M 1172 4494 
L 1172 3500 
L 2356 3500 
L 2356 3053 
L 1172 3053 
L 1172 1153 
Q 1172 725 1289 603 
Q 1406 481 1766 481 
L 2356 481 
L 2356 0 
L 1766 0 
Q 1100 0 847 248 
Q 594 497 594 1153 
L 594 3053 
L 172 3053 
L 172 3500 
L 594 3500 
L 594 4494 
L 1172 4494 
z
" transform="scale(0.015625)"/>
       <path id="DejaVuSans-b5" d="M 544 -1331 
L 544 3500 
L 1119 3500 
L 1119 1325 
Q 1119 872 1334 640 
Q 1550 409 1972 409 
Q 2434 409 2667 671 
Q 2900 934 2900 1459 
L 2900 3500 
L 3475 3500 
L 3475 806 
Q 3475 619 3529 530 
Q 3584 441 3700 441 
Q 3728 441 3778 458 
Q 3828 475 3916 513 
L 3916 50 
Q 3788 -22 3673 -56 
Q 3559 -91 3450 -91 
Q 3234 -91 3106 31 
Q 2978 153 2931 403 
Q 2775 156 2548 32 
Q 2322 -91 2016 -91 
Q 1697 -91 1473 31 
Q 1250 153 1119 397 
L 1119 -1331 
L 544 -1331 
z
" transform="scale(0.015625)"/>
      </defs>
      <use xlink:href="#DejaVuSans-44"/>
      <use xlink:href="#DejaVuSans-69" x="77.001953"/>
      <use xlink:href="#DejaVuSans-73" x="104.785156"/>
      <use xlink:href="#DejaVuSans-70" x="156.884766"/>
      <use xlink:href="#DejaVuSans-6c" x="220.361328"/>
      <use xlink:href="#DejaVuSans-61" x="248.144531"/>
      <use xlink:href="#DejaVuSans-63" x="309.423828"/>
      <use xlink:href="#DejaVuSans-65" x="364.404297"/>
      <use xlink:href="#DejaVuSans-6d" x="425.927734"/>
      <use xlink:href="#DejaVuSans-65" x="523.339844"/>
      <use xlink:href="#DejaVuSans-6e" x="584.863281"/>
      <use xlink:href="#DejaVuSans-74" x="648.242188"/>
      <use xlink:href="#DejaVuSans-20" x="687.451172"/>
      <use xlink:href="#DejaVuSans-28" x="719.238281"/>
      <use xlink:href="#DejaVuSans-b5" x="758.251953"/>
      <use xlink:href="#DejaVuSans-6d" x="821.875"/>
      <use xlink:href="#DejaVuSans-29" x="919.287109"/>
     </g>
    </g>
   </g>
   <g id="line2d_27">
    <path d="M 115.363636 218.16 
L 116.378689 129.28687 
L 116.886216 95.83663 
L 117.393742 74.360255 
L 117.647506 68.821523 
L 117.901269 66.96 
L 118.155032 68.821523 
L 118.408795 74.360255 
L 118.916322 95.83663 
L 119.423848 129.28687 
L 120.438901 218.16 
L 121.453954 307.03313 
L 121.961481 340.48337 
L 122.469007 361.959745 
L 122.72277 367.498477 
L 122.976534 369.36 
L 123.230297 367.498477 
L 123.48406 361.959745 
L 123.991587 340.48337 
L 124.499113 307.03313 
L 125.514166 218.16 
L 126.529219 129.28687 
L 127.036746 95.83663 
L 127.544272 74.360255 
L 127.798035 68.821523 
L 128.051799 66.96 
L 128.305562 68.821523 
L 128.559325 74.360255 
L 129.066852 95.83663 
L 129.574378 129.28687 
L 130.589431 218.16 
L 131.604484 307.03313 
L 132.112011 340.48337 
L 132.619537 361.959745 
L 132.8733 367.498477 
L 133.127064 369.36 
L 133.380827 367.498477 
L 133.63459 361.959745 
L 134.142117 340.48337 
L 134.649643 307.03313 
L 135.664696 218.16 
L 136.679749 129.28687 
L 137.187275 95.83663 
L 137.694802 74.360255 
L 137.948565 68.821523 
L 138.202328 66.96 
L 138.456092 68.821523 
L 138.709855 74.360255 
L 139.217381 95.83663 
L 139.724908 129.28687 
L 140.739961 218.16 
L 141.755014 307.03313 
L 142.26254 340.48337 
L 142.770067 361.959745 
L 143.02383 367.498477 
L 143.277593 369.36 
L 143.531357 367.498477 
L 143.78512 361.959745 
L 144.292646 340.48337 
L 144.800173 307.03313 
L 145.815226 218.16 
L 146.830279 129.28687 
L 147.337805 95.83663 
L 147.845332 74.360255 
L 148.099095 68.821523 
L 148.352858 66.96 
L 148.606621 68.821523 
L 148.860385 74.360255 
L 149.367911 95.83663 
L 149.875438 129.28687 
L 150.890491 218.16 
L 151.905544 307.03313 
L 152.41307 340.48337 
L 152.920597 361.959745 
L 153.17436 367.498477 
L 153.428123 369.36 
L 153.681886 367.498477 
L 153.93565 361.959745 
L 154.443176 340.48337 
L 154.950703 307.03313 
L 155.965756 218.16 
L 156.980809 129.28687 
L 157.488335 95.83663 
L 157.995862 74.360255 
L 158.249625 68.821523 
L 158.503388 66.96 
L 158.757151 68.821523 
L 159.010915 74.360255 
L 159.518441 95.83663 
L 160.025968 129.28687 
L 161.041021 218.16 
L 162.056073 307.03313 
L 162.5636 340.48337 
L 163.071126 361.959745 
L 163.32489 367.498477 
L 163.578653 369.36 
L 163.832416 367.498477 
L 164.086179 361.959745 
L 164.593706 340.48337 
L 165.101232 307.03313 
L 166.116285 218.16 
L 167.131338 129.28687 
L 167.638865 95.83663 
L 168.146391 74.360255 
L 168.400155 68.821523 
L 168.653918 66.96 
L 168.907681 68.821523 
L 169.161444 74.360255 
L 169.668971 95.83663 
L 170.176497 129.28687 
L 171.19155 218.16 
L 172.206603 307.03313 
L 172.71413 340.48337 
L 173.221656 361.959745 
L 173.47542 367.498477 
L 173.729183 369.36 
L 173.982946 367.498477 
L 174.236709 361.959745 
L 174.744236 340.48337 
L 175.251762 307.03313 
L 176.266815 218.16 
L 177.281868 129.28687 
L 177.789395 95.83663 
L 178.296921 74.360255 
L 178.550684 68.821523 
L 178.804448 66.96 
L 179.058211 68.821523 
L 179.311974 74.360255 
L 179.819501 95.83663 
L 180.327027 129.28687 
L 181.34208 218.16 
L 182.357133 307.03313 
L 182.86466 340.48337 
L 183.372186 361.959745 
L 183.625949 367.498477 
L 183.879713 369.36 
L 184.133476 367.498477 
L 184.387239 361.959745 
L 184.894766 340.48337 
L 185.402292 307.03313 
L 186.417345 218.16 
L 187.432398 129.28687 
L 187.939925 95.83663 
L 188.447451 74.360255 
L 188.701214 68.821523 
L 188.954977 66.96 
L 189.208741 68.821523 
L 189.462504 74.360255 
L 189.97003 95.83663 
L 190.477557 129.28687 
L 191.49261 218.16 
L 192.507663 307.03313 
L 193.015189 340.48337 
L 193.522716 361.959745 
L 193.776479 367.498477 
L 194.030242 369.36 
L 194.284006 367.498477 
L 194.537769 361.959745 
L 195.045295 340.48337 
L 195.552822 307.03313 
L 196.567875 218.16 
L 197.582928 129.28687 
L 198.090454 95.83663 
L 198.597981 74.360255 
L 198.851744 68.821523 
L 199.105507 66.96 
L 199.359271 68.821523 
L 199.613034 74.360255 
L 200.12056 95.83663 
L 200.628087 129.28687 
L 201.64314 218.16 
L 202.658193 307.03313 
L 203.165719 340.48337 
L 203.673246 361.959745 
L 203.927009 367.498477 
L 204.180772 369.36 
L 204.434535 367.498477 
L 204.688299 361.959745 
L 205.195825 340.48337 
L 205.703352 307.03313 
L 206.718405 218.16 
L 207.733458 129.28687 
L 208.240984 95.83663 
L 208.748511 74.360255 
L 209.002274 68.821523 
L 209.256037 66.96 
L 209.5098 68.821523 
L 209.763564 74.360255 
L 210.27109 95.83663 
L 210.778617 129.28687 
L 211.79367 218.16 
L 212.808723 307.03313 
L 213.316249 340.48337 
L 213.823776 361.959745 
L 214.077539 367.498477 
L 214.331302 369.36 
L 214.585065 367.498477 
L 214.838829 361.959745 
L 215.346355 340.48337 
L 215.853881 307.03313 
L 216.868934 218.16 
L 217.883987 129.28687 
L 218.391514 95.83663 
L 218.89904 74.360255 
L 219.152804 68.821523 
L 219.406567 66.96 
L 219.66033 68.821523 
L 219.914093 74.360255 
L 220.42162 95.83663 
L 220.929146 129.28687 
L 221.944199 218.16 
L 222.959252 307.03313 
L 223.466779 340.48337 
L 223.974305 361.959745 
L 224.228069 367.498477 
L 224.481832 369.36 
L 224.735595 367.498477 
L 224.989358 361.959745 
L 225.496885 340.48337 
L 226.004411 307.03313 
L 227.019464 218.16 
L 228.034517 129.28687 
L 228.542044 95.83663 
L 229.04957 74.360255 
L 229.303333 68.821523 
L 229.557097 66.96 
L 229.81086 68.821523 
L 230.064623 74.360255 
L 230.57215 95.83663 
L 231.079676 129.28687 
L 232.094729 218.16 
L 233.109782 307.03313 
L 233.617309 340.48337 
L 234.124835 361.959745 
L 234.378598 367.498477 
L 234.632362 369.36 
L 234.886125 367.498477 
L 235.139888 361.959745 
L 235.647415 340.48337 
L 236.154941 307.03313 
L 237.169994 218.16 
L 238.185047 129.28687 
L 238.692574 95.83663 
L 239.2001 74.360255 
L 239.453863 68.821523 
L 239.707627 66.96 
L 239.96139 68.821523 
L 240.215153 74.360255 
L 240.72268 95.83663 
L 241.230206 129.28687 
L 242.245259 218.16 
L 243.260312 307.03313 
L 243.767838 340.48337 
L 244.275365 361.959745 
L 244.529128 367.498477 
L 244.782891 369.36 
L 245.036655 367.498477 
L 245.290418 361.959745 
L 245.797944 340.48337 
L 246.305471 307.03313 
L 247.320524 218.16 
L 248.335577 129.28687 
L 248.843103 95.83663 
L 249.35063 74.360255 
L 249.604393 68.821523 
L 249.858156 66.96 
L 250.11192 68.821523 
L 250.365683 74.360255 
L 250.873209 95.83663 
L 251.380736 129.28687 
L 252.395789 218.16 
L 253.410842 307.03313 
L 253.918368 340.48337 
L 254.425895 361.959745 
L 254.679658 367.498477 
L 254.933421 369.36 
L 255.187185 367.498477 
L 255.440948 361.959745 
L 255.948474 340.48337 
L 256.456001 307.03313 
L 257.471054 218.16 
L 258.486107 129.28687 
L 258.993633 95.83663 
L 259.50116 74.360255 
L 259.754923 68.821523 
L 260.008686 66.96 
L 260.262449 68.821523 
L 260.516213 74.360255 
L 261.023739 95.83663 
L 261.531266 129.28687 
L 262.546319 218.16 
L 263.561372 307.03313 
L 264.068898 340.48337 
L 264.576425 361.959745 
L 264.830188 367.498477 
L 265.083951 369.36 
L 265.337714 367.498477 
L 265.591478 361.959745 
L 266.099004 340.48337 
L 266.606531 307.03313 
L 267.621584 218.16 
L 268.636637 129.28687 
L 269.144163 95.83663 
L 269.651689 74.360255 
L 269.905453 68.821523 
L 270.159216 66.96 
L 270.412979 68.821523 
L 270.666742 74.360255 
L 271.174269 95.83663 
L 271.681795 129.28687 
L 272.696848 218.16 
L 273.711901 307.03313 
L 274.219428 340.48337 
L 274.726954 361.959745 
L 274.980718 367.498477 
L 275.234481 369.36 
L 275.488244 367.498477 
L 275.742007 361.959745 
L 276.249534 340.48337 
L 276.75706 307.03313 
L 277.772113 218.16 
L 278.787166 129.28687 
L 279.294693 95.83663 
L 279.802219 74.360255 
L 280.055983 68.821523 
L 280.309746 66.96 
L 280.563509 68.821523 
L 280.817272 74.360255 
L 281.324799 95.83663 
L 281.832325 129.28687 
L 282.847378 218.16 
L 283.862431 307.03313 
L 284.369958 340.48337 
L 284.877484 361.959745 
L 285.131247 367.498477 
L 285.385011 369.36 
L 285.638774 367.498477 
L 285.892537 361.959745 
L 286.400064 340.48337 
L 286.90759 307.03313 
L 287.922643 218.16 
L 288.937696 129.28687 
L 289.445223 95.83663 
L 289.952749 74.360255 
L 290.206512 68.821523 
L 290.460276 66.96 
L 290.714039 68.821523 
L 290.967802 74.360255 
L 291.475329 95.83663 
L 291.982855 129.28687 
L 292.997908 218.16 
L 294.012961 307.03313 
L 294.520488 340.48337 
L 295.028014 361.959745 
L 295.281777 367.498477 
L 295.53554 369.36 
L 295.789304 367.498477 
L 296.043067 361.959745 
L 296.550593 340.48337 
L 297.05812 307.03313 
L 298.073173 218.16 
L 299.088226 129.28687 
L 299.595752 95.83663 
L 300.103279 74.360255 
L 300.357042 68.821523 
L 300.610805 66.96 
L 300.864569 68.821523 
L 301.118332 74.360255 
L 301.625858 95.83663 
L 302.133385 129.28687 
L 303.148438 218.16 
L 304.163491 307.03313 
L 304.671017 340.48337 
L 305.178544 361.959745 
L 305.432307 367.498477 
L 305.68607 369.36 
L 305.939834 367.498477 
L 306.193597 361.959745 
L 306.701123 340.48337 
L 307.20865 307.03313 
L 308.223703 218.16 
L 309.238756 129.28687 
L 309.746282 95.83663 
L 310.253809 74.360255 
L 310.507572 68.821523 
L 310.761335 66.96 
L 311.015098 68.821523 
L 311.268862 74.360255 
L 311.776388 95.83663 
L 312.283915 129.28687 
L 313.298968 218.16 
L 314.314021 307.03313 
L 314.821547 340.48337 
L 315.329074 361.959745 
L 315.582837 367.498477 
L 315.8366 369.36 
L 316.090363 367.498477 
L 316.344127 361.959745 
L 316.851653 340.48337 
L 317.35918 307.03313 
L 318.374233 218.16 
L 319.389286 129.28687 
L 319.896812 95.83663 
L 320.404339 74.360255 
L 320.658102 68.821523 
L 320.911865 66.96 
L 321.165628 68.821523 
L 321.419392 74.360255 
L 321.926918 95.83663 
L 322.434444 129.28687 
L 323.449497 218.16 
L 324.46455 307.03313 
L 324.972077 340.48337 
L 325.479603 361.959745 
L 325.733367 367.498477 
L 325.98713 369.36 
L 326.240893 367.498477 
L 326.494656 361.959745 
L 327.002183 340.48337 
L 327.509709 307.03313 
L 328.524762 218.16 
L 329.539815 129.28687 
L 330.047342 95.83663 
L 330.554868 74.360255 
L 330.808632 68.821523 
L 331.062395 66.96 
L 331.316158 68.821523 
L 331.569921 74.360255 
L 332.077448 95.83663 
L 332.584974 129.28687 
L 333.600027 218.16 
L 334.61508 307.03313 
L 335.122607 340.48337 
L 335.630133 361.959745 
L 335.883896 367.498477 
L 336.13766 369.36 
L 336.391423 367.498477 
L 336.645186 361.959745 
L 337.152713 340.48337 
L 337.660239 307.03313 
L 338.675292 218.16 
L 339.690345 129.28687 
L 340.197872 95.83663 
L 340.705398 74.360255 
L 340.959161 68.821523 
L 341.212925 66.96 
L 341.466688 68.821523 
L 341.720451 74.360255 
L 342.227978 95.83663 
L 342.735504 129.28687 
L 343.750557 218.16 
L 344.76561 307.03313 
L 345.273137 340.48337 
L 345.780663 361.959745 
L 346.034426 367.498477 
L 346.28819 369.36 
L 346.541953 367.498477 
L 346.795716 361.959745 
L 347.303243 340.48337 
L 347.810769 307.03313 
L 348.825822 218.16 
L 349.840875 129.28687 
L 350.348401 95.83663 
L 350.855928 74.360255 
L 351.109691 68.821523 
L 351.363454 66.96 
L 351.617218 68.821523 
L 351.870981 74.360255 
L 352.378507 95.83663 
L 352.886034 129.28687 
L 353.901087 218.16 
L 354.91614 307.03313 
L 355.423666 340.48337 
L 355.931193 361.959745 
L 356.184956 367.498477 
L 356.438719 369.36 
L 356.692483 367.498477 
L 356.946246 361.959745 
L 357.453772 340.48337 
L 357.961299 307.03313 
L 358.976352 218.16 
L 359.991405 129.28687 
L 360.498931 95.83663 
L 361.006458 74.360255 
L 361.260221 68.821523 
L 361.513984 66.96 
L 361.767748 68.821523 
L 362.021511 74.360255 
L 362.529037 95.83663 
L 363.036564 129.28687 
L 364.051617 218.16 
L 365.06667 307.03313 
L 365.574196 340.48337 
L 366.081723 361.959745 
L 366.335486 367.498477 
L 366.589249 369.36 
L 366.843012 367.498477 
L 367.096776 361.959745 
L 367.604302 340.48337 
L 368.111829 307.03313 
L 369.126882 218.16 
L 370.141935 129.28687 
L 370.649461 95.83663 
L 371.156988 74.360255 
L 371.410751 68.821523 
L 371.664514 66.96 
L 371.918277 68.821523 
L 372.172041 74.360255 
L 372.679567 95.83663 
L 373.187094 129.28687 
L 374.202147 218.16 
L 375.2172 307.03313 
L 375.724726 340.48337 
L 376.232252 361.959745 
L 376.486016 367.498477 
L 376.739779 369.36 
L 376.993542 367.498477 
L 377.247305 361.959745 
L 377.754832 340.48337 
L 378.262358 307.03313 
L 379.277411 218.16 
L 380.292464 129.28687 
L 380.799991 95.83663 
L 381.307517 74.360255 
L 381.561281 68.821523 
L 381.815044 66.96 
L 382.068807 68.821523 
L 382.32257 74.360255 
L 382.830097 95.83663 
L 383.337623 129.28687 
L 384.352676 218.16 
L 385.367729 307.03313 
L 385.875256 340.48337 
L 386.382782 361.959745 
L 386.636546 367.498477 
L 386.890309 369.36 
L 387.144072 367.498477 
L 387.397835 361.959745 
L 387.905362 340.48337 
L 388.412888 307.03313 
L 389.427941 218.16 
L 390.442994 129.28687 
L 390.950521 95.83663 
L 391.458047 74.360255 
L 391.71181 68.821523 
L 391.965574 66.96 
L 392.219337 68.821523 
L 392.4731 74.360255 
L 392.980627 95.83663 
L 393.488153 129.28687 
L 394.503206 218.16 
L 395.518259 307.03313 
L 396.025786 340.48337 
L 396.533312 361.959745 
L 396.787075 367.498477 
L 397.040839 369.36 
L 397.294602 367.498477 
L 397.548365 361.959745 
L 398.055892 340.48337 
L 398.563418 307.03313 
L 399.578471 218.16 
L 400.593524 129.28687 
L 401.101051 95.83663 
L 401.608577 74.360255 
L 401.86234 68.821523 
L 402.116104 66.96 
L 402.369867 68.821523 
L 402.62363 74.360255 
L 403.131156 95.83663 
L 403.638683 129.28687 
L 404.653736 218.16 
L 405.668789 307.03313 
L 406.176315 340.48337 
L 406.683842 361.959745 
L 406.937605 367.498477 
L 407.191368 369.36 
L 407.445132 367.498477 
L 407.698895 361.959745 
L 408.206421 340.48337 
L 408.713948 307.03313 
L 409.729001 218.16 
L 410.744054 129.28687 
L 411.25158 95.83663 
L 411.759107 74.360255 
L 412.01287 68.821523 
L 412.266633 66.96 
L 412.520397 68.821523 
L 412.77416 74.360255 
L 413.281686 95.83663 
L 413.789213 129.28687 
L 414.804266 218.16 
L 415.819319 307.03313 
L 416.326845 340.48337 
L 416.834372 361.959745 
L 417.088135 367.498477 
L 417.341898 369.36 
L 417.595661 367.498477 
L 417.849425 361.959745 
L 418.356951 340.48337 
L 418.864478 307.03313 
L 419.879531 218.16 
L 420.894584 129.28687 
L 421.40211 95.83663 
L 421.909637 74.360255 
L 422.1634 68.821523 
L 422.417163 66.96 
L 422.670926 68.821523 
L 422.92469 74.360255 
L 423.432216 95.83663 
L 423.939743 129.28687 
L 424.954796 218.16 
L 425.969849 307.03313 
L 426.477375 340.48337 
L 426.984902 361.959745 
L 427.238665 367.498477 
L 427.492428 369.36 
L 427.746191 367.498477 
L 427.999955 361.959745 
L 428.507481 340.48337 
L 429.015008 307.03313 
L 430.03006 218.16 
L 431.045113 129.28687 
L 431.55264 95.83663 
L 432.060166 74.360255 
L 432.31393 68.821523 
L 432.567693 66.96 
L 432.821456 68.821523 
L 433.075219 74.360255 
L 433.582746 95.83663 
L 434.090272 129.28687 
L 435.105325 218.16 
L 436.120378 307.03313 
L 436.627905 340.48337 
L 437.135431 361.959745 
L 437.389195 367.498477 
L 437.642958 369.36 
L 437.896721 367.498477 
L 438.150484 361.959745 
L 438.658011 340.48337 
L 439.165537 307.03313 
L 440.18059 218.16 
L 441.195643 129.28687 
L 441.70317 95.83663 
L 442.210696 74.360255 
L 442.46446 68.821523 
L 442.718223 66.96 
L 442.971986 68.821523 
L 443.225749 74.360255 
L 443.733276 95.83663 
L 444.240802 129.28687 
L 445.255855 218.16 
L 446.270908 307.03313 
L 446.778435 340.48337 
L 447.285961 361.959745 
L 447.539724 367.498477 
L 447.793488 369.36 
L 448.047251 367.498477 
L 448.301014 361.959745 
L 448.808541 340.48337 
L 449.316067 307.03313 
L 450.33112 218.16 
L 451.346173 129.28687 
L 451.8537 95.83663 
L 452.361226 74.360255 
L 452.614989 68.821523 
L 452.868753 66.96 
L 453.122516 68.821523 
L 453.376279 74.360255 
L 453.883806 95.83663 
L 454.391332 129.28687 
L 455.406385 218.16 
L 456.421438 307.03313 
L 456.928964 340.48337 
L 457.436491 361.959745 
L 457.690254 367.498477 
L 457.944017 369.36 
L 458.197781 367.498477 
L 458.451544 361.959745 
L 458.95907 340.48337 
L 459.466597 307.03313 
L 460.48165 218.16 
L 461.496703 129.28687 
L 462.004229 95.83663 
L 462.511756 74.360255 
L 462.765519 68.821523 
L 463.019282 66.96 
L 463.273046 68.821523 
L 463.526809 74.360255 
L 464.034335 95.83663 
L 464.541862 129.28687 
L 465.556915 218.16 
L 466.571968 307.03313 
L 467.079494 340.48337 
L 467.587021 361.959745 
L 467.840784 367.498477 
L 468.094547 369.36 
L 468.348311 367.498477 
L 468.602074 361.959745 
L 469.1096 340.48337 
L 469.617127 307.03313 
L 470.63218 218.16 
L 471.647233 129.28687 
L 472.154759 95.83663 
L 472.662286 74.360255 
L 472.916049 68.821523 
L 473.169812 66.96 
L 473.423575 68.821523 
L 473.677339 74.360255 
L 474.184865 95.83663 
L 474.692392 129.28687 
L 475.707445 218.16 
L 476.722498 307.03313 
L 477.230024 340.48337 
L 477.737551 361.959745 
L 477.991314 367.498477 
L 478.245077 369.36 
L 478.49884 367.498477 
L 478.752604 361.959745 
L 479.26013 340.48337 
L 479.767657 307.03313 
L 480.78271 218.16 
L 481.797763 129.28687 
L 482.305289 95.83663 
L 482.812815 74.360255 
L 483.066579 68.821523 
L 483.320342 66.96 
L 483.574105 68.821523 
L 483.827868 74.360255 
L 484.335395 95.83663 
L 484.842921 129.28687 
L 485.857974 218.16 
L 486.873027 307.03313 
L 487.380554 340.48337 
L 487.88808 361.959745 
L 488.141844 367.498477 
L 488.395607 369.36 
L 488.64937 367.498477 
L 488.903133 361.959745 
L 489.41066 340.48337 
L 489.918186 307.03313 
L 490.933239 218.16 
L 491.948292 129.28687 
L 492.455819 95.83663 
L 492.963345 74.360255 
L 493.217109 68.821523 
L 493.470872 66.96 
L 493.724635 68.821523 
L 493.978398 74.360255 
L 494.485925 95.83663 
L 494.993451 129.28687 
L 496.008504 218.16 
L 497.023557 307.03313 
L 497.531084 340.48337 
L 498.03861 361.959745 
L 498.292373 367.498477 
L 498.546137 369.36 
L 498.7999 367.498477 
L 499.053663 361.959745 
L 499.56119 340.48337 
L 500.068716 307.03313 
L 501.083769 218.16 
L 502.098822 129.28687 
L 502.606349 95.83663 
L 503.113875 74.360255 
L 503.367638 68.821523 
L 503.621402 66.96 
L 503.875165 68.821523 
L 504.128928 74.360255 
L 504.636455 95.83663 
L 505.143981 129.28687 
L 506.159034 218.16 
L 507.174087 307.03313 
L 507.681614 340.48337 
L 508.18914 361.959745 
L 508.442903 367.498477 
L 508.696667 369.36 
L 508.95043 367.498477 
L 509.204193 361.959745 
L 509.711719 340.48337 
L 510.219246 307.03313 
L 511.234299 218.16 
L 512.249352 129.28687 
L 512.756878 95.83663 
L 513.264405 74.360255 
L 513.518168 68.821523 
L 513.771931 66.96 
L 514.025695 68.821523 
L 514.279458 74.360255 
L 514.786984 95.83663 
L 515.294511 129.28687 
L 516.309564 218.16 
L 517.324617 307.03313 
L 517.832143 340.48337 
L 518.33967 361.959745 
L 518.593433 367.498477 
L 518.847196 369.36 
L 519.10096 367.498477 
L 519.354723 361.959745 
L 519.862249 340.48337 
L 520.369776 307.03313 
L 521.384829 218.16 
L 522.399882 129.28687 
L 522.907408 95.83663 
L 523.414935 74.360255 
L 523.668698 68.821523 
L 523.922461 66.96 
L 524.176224 68.821523 
L 524.429988 74.360255 
L 524.937514 95.83663 
L 525.445041 129.28687 
L 526.460094 218.16 
L 527.475147 307.03313 
L 527.982673 340.48337 
L 528.4902 361.959745 
L 528.743963 367.498477 
L 528.997726 369.36 
L 529.251489 367.498477 
L 529.505253 361.959745 
L 530.012779 340.48337 
L 530.520306 307.03313 
L 531.535359 218.16 
L 532.550412 129.28687 
L 533.057938 95.83663 
L 533.565465 74.360255 
L 533.819228 68.821523 
L 534.072991 66.96 
L 534.326754 68.821523 
L 534.580518 74.360255 
L 535.088044 95.83663 
L 535.595571 129.28687 
L 536.610623 218.16 
L 537.625676 307.03313 
L 538.133203 340.48337 
L 538.640729 361.959745 
L 538.894493 367.498477 
L 539.148256 369.36 
L 539.402019 367.498477 
L 539.655782 361.959745 
L 540.163309 340.48337 
L 540.670835 307.03313 
L 541.685888 218.16 
L 542.700941 129.28687 
L 543.208468 95.83663 
L 543.715994 74.360255 
L 543.969758 68.821523 
L 544.223521 66.96 
L 544.477284 68.821523 
L 544.731047 74.360255 
L 545.238574 95.83663 
L 545.7461 129.28687 
L 546.761153 218.16 
L 547.776206 307.03313 
L 548.283733 340.48337 
L 548.791259 361.959745 
L 549.045023 367.498477 
L 549.298786 369.36 
L 549.552549 367.498477 
L 549.806312 361.959745 
L 550.313839 340.48337 
L 550.821365 307.03313 
L 551.836418 218.16 
L 552.851471 129.28687 
L 553.358998 95.83663 
L 553.866524 74.360255 
L 554.120287 68.821523 
L 554.374051 66.96 
L 554.627814 68.821523 
L 554.881577 74.360255 
L 555.389104 95.83663 
L 555.89663 129.28687 
L 556.911683 218.16 
L 557.926736 307.03313 
L 558.434263 340.48337 
L 558.941789 361.959745 
L 559.195552 367.498477 
L 559.449316 369.36 
L 559.703079 367.498477 
L 559.956842 361.959745 
L 560.464369 340.48337 
L 560.971895 307.03313 
L 561.986948 218.16 
L 563.002001 129.28687 
L 563.509527 95.83663 
L 564.017054 74.360255 
L 564.270817 68.821523 
L 564.52458 66.96 
L 564.778344 68.821523 
L 565.032107 74.360255 
L 565.539633 95.83663 
L 566.04716 129.28687 
L 567.062213 218.16 
L 568.077266 307.03313 
L 568.584792 340.48337 
L 569.092319 361.959745 
L 569.346082 367.498477 
L 569.599845 369.36 
L 569.853609 367.498477 
L 570.107372 361.959745 
L 570.614898 340.48337 
L 571.122425 307.03313 
L 572.137478 218.16 
L 573.152531 129.28687 
L 573.660057 95.83663 
L 574.167584 74.360255 
L 574.421347 68.821523 
L 574.67511 66.96 
L 574.928874 68.821523 
L 575.182637 74.360255 
L 575.690163 95.83663 
L 576.19769 129.28687 
L 577.212743 218.16 
L 578.227796 307.03313 
L 578.735322 340.48337 
L 579.242849 361.959745 
L 579.496612 367.498477 
L 579.750375 369.36 
L 580.004138 367.498477 
L 580.257902 361.959745 
L 580.765428 340.48337 
L 581.272955 307.03313 
L 582.288008 218.16 
L 583.303061 129.28687 
L 583.810587 95.83663 
L 584.318114 74.360255 
L 584.571877 68.821523 
L 584.82564 66.96 
L 585.079403 68.821523 
L 585.333167 74.360255 
L 585.840693 95.83663 
L 586.34822 129.28687 
L 587.363273 218.16 
L 588.378326 307.03313 
L 588.885852 340.48337 
L 589.393379 361.959745 
L 589.647142 367.498477 
L 589.900905 369.36 
L 590.154668 367.498477 
L 590.408431 361.959745 
L 590.915958 340.48337 
L 591.423484 307.03313 
L 592.438537 218.16 
L 593.45359 129.28687 
L 593.961117 95.83663 
L 594.468643 74.360255 
L 594.722407 68.821523 
L 594.97617 66.96 
L 595.229933 68.821523 
L 595.483696 74.360255 
L 595.991223 95.83663 
L 596.498749 129.28687 
L 597.513802 218.16 
L 598.528855 307.03313 
L 599.036382 340.48337 
L 599.543908 361.959745 
L 599.797672 367.498477 
L 600.051435 369.36 
L 600.305198 367.498477 
L 600.558961 361.959745 
L 601.066488 340.48337 
L 601.574014 307.03313 
L 602.589067 218.16 
L 603.60412 129.28687 
L 604.111647 95.83663 
L 604.619173 74.360255 
L 604.872936 68.821523 
L 605.1267 66.96 
L 605.380463 68.821523 
L 605.634226 74.360255 
L 606.141753 95.83663 
L 606.649279 129.28687 
L 607.664332 218.16 
L 608.679385 307.03313 
L 609.186912 340.48337 
L 609.694438 361.959745 
L 609.948201 367.498477 
L 610.201965 369.36 
L 610.455728 367.498477 
L 610.709491 361.959745 
L 611.217018 340.48337 
L 611.724544 307.03313 
L 612.739597 218.16 
L 613.75465 129.28687 
L 614.262177 95.83663 
L 614.769703 74.360255 
L 615.023466 68.821523 
L 615.27723 66.96 
L 615.530993 68.821523 
L 615.784756 74.360255 
L 616.292283 95.83663 
L 616.799809 129.28687 
L 617.814862 218.16 
L 618.829915 307.03313 
L 619.337441 340.48337 
L 619.844968 361.959745 
L 620.098731 367.498477 
L 620.352494 369.36 
L 620.606258 367.498477 
L 620.860021 361.959745 
L 621.367547 340.48337 
L 621.875074 307.03313 
L 622.636364 241.812891 
L 622.636364 241.812891 
" clip-path="url(#pa0c246f2f3)" style="fill: none; stroke: #1f77b4; stroke-width: 1.5; stroke-linecap: square"/>
   </g>
   <g id="patch_3">
    <path d="M 90 384.48 
L 90 51.84 
" style="fill: none; stroke: #000000; stroke-width: 0.8; stroke-linejoin: miter; stroke-linecap: square"/>
   </g>
   <g id="patch_4">
    <path d="M 648 384.48 
L 648 51.84 
" style="fill: none; stroke: #000000; stroke-width: 0.8; stroke-linejoin: miter; stroke-linecap: square"/>
   </g>
   <g id="patch_5">
    <path d="M 90 384.48 
L 648 384.48 
" style="fill: none; stroke: #000000; stroke-width: 0.8; stroke-linejoin: miter; stroke-linecap: square"/>
   </g>
   <g id="patch_6">
    <path d="M 90 51.84 
L 648 51.84 
" style="fill: none; stroke: #000000; stroke-width: 0.8; stroke-linejoin: miter; stroke-linecap: square"/>
   </g>
   <g id="text_16">
    <!-- Input Signal: Mirror Vibration -->
    <g transform="translate(282.534375 45.84) scale(0.12 -0.12)">
     <defs>
      <path id="DejaVuSans-49" d="M 628 4666 
L 1259 4666 
L 1259 0 
L 628 0 
L 628 4666 
z
" transform="scale(0.015625)"/>
      <path id="DejaVuSans-75" d="M 544 1381 
L 544 3500 
L 1119 3500 
L 1119 1403 
Q 1119 906 1312 657 
Q 1506 409 1894 409 
Q 2359 409 2629 706 
Q 2900 1003 2900 1516 
L 2900 3500 
L 3475 3500 
L 3475 0 
L 2900 0 
L 2900 538 
Q 2691 219 2414 64 
Q 2138 -91 1772 -91 
Q 1169 -91 856 284 
Q 544 659 544 1381 
z
M 1991 3584 
L 1991 3584 
z
" transform="scale(0.015625)"/>
      <path id="DejaVuSans-53" d="M 3425 4513 
L 3425 3897 
Q 3066 4069 2747 4153 
Q 2428 4238 2131 4238 
Q 1616 4238 1336 4038 
Q 1056 3838 1056 3469 
Q 1056 3159 1242 3001 
Q 1428 2844 1947 2747 
L 2328 2669 
Q 3034 2534 3370 2195 
Q 3706 1856 3706 1288 
Q 3706 609 3251 259 
Q 2797 -91 1919 -91 
Q 1588 -91 1214 -16 
Q 841 59 441 206 
L 441 856 
Q 825 641 1194 531 
Q 1563 422 1919 422 
Q 2459 422 2753 634 
Q 3047 847 3047 1241 
Q 3047 1584 2836 1778 
Q 2625 1972 2144 2069 
L 1759 2144 
Q 1053 2284 737 2584 
Q 422 2884 422 3419 
Q 422 4038 858 4394 
Q 1294 4750 2059 4750 
Q 2388 4750 2728 4690 
Q 3069 4631 3425 4513 
z
" transform="scale(0.015625)"/>
      <path id="DejaVuSans-67" d="M 2906 1791 
Q 2906 2416 2648 2759 
Q 2391 3103 1925 3103 
Q 1463 3103 1205 2759 
Q 947 2416 947 1791 
Q 947 1169 1205 825 
Q 1463 481 1925 481 
Q 2391 481 2648 825 
Q 2906 1169 2906 1791 
z
M 3481 434 
Q 3481 -459 3084 -895 
Q 2688 -1331 1869 -1331 
Q 1566 -1331 1297 -1286 
Q 1028 -1241 775 -1147 
L 775 -588 
Q 1028 -725 1275 -790 
Q 1522 -856 1778 -856 
Q 2344 -856 2625 -561 
Q 2906 -266 2906 331 
L 2906 616 
Q 2728 306 2450 153 
Q 2172 0 1784 0 
Q 1141 0 747 490 
Q 353 981 353 1791 
Q 353 2603 747 3093 
Q 1141 3584 1784 3584 
Q 2172 3584 2450 3431 
Q 2728 3278 2906 2969 
L 2906 3500 
L 3481 3500 
L 3481 434 
z
" transform="scale(0.015625)"/>
      <path id="DejaVuSans-3a" d="M 750 794 
L 1409 794 
L 1409 0 
L 750 0 
L 750 794 
z
M 750 3309 
L 1409 3309 
L 1409 2516 
L 750 2516 
L 750 3309 
z
" transform="scale(0.015625)"/>
      <path id="DejaVuSans-4d" d="M 628 4666 
L 1569 4666 
L 2759 1491 
L 3956 4666 
L 4897 4666 
L 4897 0 
L 4281 0 
L 4281 4097 
L 3078 897 
L 2444 897 
L 1241 4097 
L 1241 0 
L 628 0 
L 628 4666 
z
" transform="scale(0.015625)"/>
      <path id="DejaVuSans-72" d="M 2631 2963 
Q 2534 3019 2420 3045 
Q 2306 3072 2169 3072 
Q 1681 3072 1420 2755 
Q 1159 2438 1159 1844 
L 1159 0 
L 581 0 
L 581 3500 
L 1159 3500 
L 1159 2956 
Q 1341 3275 1631 3429 
Q 1922 3584 2338 3584 
Q 2397 3584 2469 3576 
Q 2541 3569 2628 3553 
L 2631 2963 
z
" transform="scale(0.015625)"/>
      <path id="DejaVuSans-6f" d="M 1959 3097 
Q 1497 3097 1228 2736 
Q 959 2375 959 1747 
Q 959 1119 1226 758 
Q 1494 397 1959 397 
Q 2419 397 2687 759 
Q 2956 1122 2956 1747 
Q 2956 2369 2687 2733 
Q 2419 3097 1959 3097 
z
M 1959 3584 
Q 2709 3584 3137 3096 
Q 3566 2609 3566 1747 
Q 3566 888 3137 398 
Q 2709 -91 1959 -91 
Q 1206 -91 779 398 
Q 353 888 353 1747 
Q 353 2609 779 3096 
Q 1206 3584 1959 3584 
z
" transform="scale(0.015625)"/>
      <path id="DejaVuSans-56" d="M 1831 0 
L 50 4666 
L 709 4666 
L 2188 738 
L 3669 4666 
L 4325 4666 
L 2547 0 
L 1831 0 
z
" transform="scale(0.015625)"/>
      <path id="DejaVuSans-62" d="M 3116 1747 
Q 3116 2381 2855 2742 
Q 2594 3103 2138 3103 
Q 1681 3103 1420 2742 
Q 1159 2381 1159 1747 
Q 1159 1113 1420 752 
Q 1681 391 2138 391 
Q 2594 391 2855 752 
Q 3116 1113 3116 1747 
z
M 1159 2969 
Q 1341 3281 1617 3432 
Q 1894 3584 2278 3584 
Q 2916 3584 3314 3078 
Q 3713 2572 3713 1747 
Q 3713 922 3314 415 
Q 2916 -91 2278 -91 
Q 1894 -91 1617 61 
Q 1341 213 1159 525 
L 1159 0 
L 581 0 
L 581 4863 
L 1159 4863 
L 1159 2969 
z
" transform="scale(0.015625)"/>
     </defs>
     <use xlink:href="#DejaVuSans-49"/>
     <use xlink:href="#DejaVuSans-6e" x="29.492188"/>
     <use xlink:href="#DejaVuSans-70" x="92.871094"/>
     <use xlink:href="#DejaVuSans-75" x="156.347656"/>
     <use xlink:href="#DejaVuSans-74" x="219.726562"/>
     <use xlink:href="#DejaVuSans-20" x="258.935547"/>
     <use xlink:href="#DejaVuSans-53" x="290.722656"/>
     <use xlink:href="#DejaVuSans-69" x="354.199219"/>
     <use xlink:href="#DejaVuSans-67" x="381.982422"/>
     <use xlink:href="#DejaVuSans-6e" x="445.458984"/>
     <use xlink:href="#DejaVuSans-61" x="508.837891"/>
     <use xlink:href="#DejaVuSans-6c" x="570.117188"/>
     <use xlink:href="#DejaVuSans-3a" x="597.900391"/>
     <use xlink:href="#DejaVuSans-20" x="631.591797"/>
     <use xlink:href="#DejaVuSans-4d" x="663.378906"/>
     <use xlink:href="#DejaVuSans-69" x="749.658203"/>
     <use xlink:href="#DejaVuSans-72" x="777.441406"/>
     <use xlink:href="#DejaVuSans-72" x="816.804688"/>
     <use xlink:href="#DejaVuSans-6f" x="855.667969"/>
     <use xlink:href="#DejaVuSans-72" x="916.849609"/>
     <use xlink:href="#DejaVuSans-20" x="957.962891"/>
     <use xlink:href="#DejaVuSans-56" x="989.75"/>
     <use xlink:href="#DejaVuSans-69" x="1055.908203"/>
     <use xlink:href="#DejaVuSans-62" x="1083.691406"/>
     <use xlink:href="#DejaVuSans-72" x="1147.167969"/>
     <use xlink:href="#DejaVuSans-61" x="1188.28125"/>
     <use xlink:href="#DejaVuSans-74" x="1249.560547"/>
     <use xlink:href="#DejaVuSans-69" x="1288.769531"/>
     <use xlink:href="#DejaVuSans-6f" x="1316.552734"/>
     <use xlink:href="#DejaVuSans-6e" x="1377.734375"/>
    </g>
   </g>
  </g>
 </g>
 <defs>
  <clipPath id="pa0c246f2f3">
   <rect x="90" y="51.84" width="558" height="332.64"/>
  </clipPath>
 </defs>
</svg>
