<?xml version="1.0" encoding="utf-8" standalone="no"?>
<!DOCTYPE svg PUBLIC "-//W3C//DTD SVG 1.1//EN"
  "http://www.w3.org/Graphics/SVG/1.1/DTD/svg11.dtd">
<svg xmlns:xlink="http://www.w3.org/1999/xlink" width="720pt" height="432pt" viewBox="0 0 720 432" xmlns="http://www.w3.org/2000/svg" version="1.1">
 <metadata>
  <rdf:RDF xmlns:dc="http://purl.org/dc/elements/1.1/" xmlns:cc="http://creativecommons.org/ns#" xmlns:rdf="http://www.w3.org/1999/02/22-rdf-syntax-ns#">
   <cc:Work>
    <dc:type rdf:resource="http://purl.org/dc/dcmitype/StillImage"/>
    <dc:date>2025-08-08T12:04:08.085839</dc:date>
    <dc:format>image/svg+xml</dc:format>
    <dc:creator>
     <cc:Agent>
      <dc:title>Matplotlib v3.7.5, https://matplotlib.org/</dc:title>
     </cc:Agent>
    </dc:creator>
   </cc:Work>
  </rdf:RDF>
 </metadata>
 <defs>
  <style type="text/css">*{stroke-linejoin: round; stroke-linecap: butt}</style>
 </defs>
 <g id="figure_1">
  <g id="patch_1">
   <path d="M 0 432 
L 720 432 
L 720 0 
L 0 0 
z
" style="fill: #ffffff"/>
  </g>
  <g id="axes_1">
   <g id="patch_2">
    <path d="M 90 384.48 
L 648 384.48 
L 648 51.84 
L 90 51.84 
z
" style="fill: #ffffff"/>
   </g>
   <g id="matplotlib.axis_1">
    <g id="xtick_1">
     <g id="line2d_1">
      <path d="M 115.363636 384.48 
L 115.363636 51.84 
" clip-path="url(#pe3686091bc)" style="fill: none; stroke: #b0b0b0; stroke-width: 0.8; stroke-linecap: square"/>
     </g>
     <g id="line2d_2">
      <defs>
       <path id="m91f55a190d" d="M 0 0 
L 0 3.5 
" style="stroke: #000000; stroke-width: 0.8"/>
      </defs>
      <g>
       <use xlink:href="#m91f55a190d" x="115.363636" y="384.48" style="stroke: #000000; stroke-width: 0.8"/>
      </g>
     </g>
     <g id="text_1">
      <!-- 0.00 -->
      <g transform="translate(104.230824 399.078438) scale(0.1 -0.1)">
       <defs>
        <path id="DejaVuSans-30" d="M 2034 4250 
Q 1547 4250 1301 3770 
Q 1056 3291 1056 2328 
Q 1056 1369 1301 889 
Q 1547 409 2034 409 
Q 2525 409 2770 889 
Q 3016 1369 3016 2328 
Q 3016 3291 2770 3770 
Q 2525 4250 2034 4250 
z
M 2034 4750 
Q 2819 4750 3233 4129 
Q 3647 3509 3647 2328 
Q 3647 1150 3233 529 
Q 2819 -91 2034 -91 
Q 1250 -91 836 529 
Q 422 1150 422 2328 
Q 422 3509 836 4129 
Q 1250 4750 2034 4750 
z
" transform="scale(0.015625)"/>
        <path id="DejaVuSans-2e" d="M 684 794 
L 1344 794 
L 1344 0 
L 684 0 
L 684 794 
z
" transform="scale(0.015625)"/>
       </defs>
       <use xlink:href="#DejaVuSans-30"/>
       <use xlink:href="#DejaVuSans-2e" x="63.623047"/>
       <use xlink:href="#DejaVuSans-30" x="95.410156"/>
       <use xlink:href="#DejaVuSans-30" x="159.033203"/>
      </g>
     </g>
    </g>
    <g id="xtick_2">
     <g id="line2d_3">
      <path d="M 216.868934 384.48 
L 216.868934 51.84 
" clip-path="url(#pe3686091bc)" style="fill: none; stroke: #b0b0b0; stroke-width: 0.8; stroke-linecap: square"/>
     </g>
     <g id="line2d_4">
      <g>
       <use xlink:href="#m91f55a190d" x="216.868934" y="384.48" style="stroke: #000000; stroke-width: 0.8"/>
      </g>
     </g>
     <g id="text_2">
      <!-- 0.02 -->
      <g transform="translate(205.736122 399.078438) scale(0.1 -0.1)">
       <defs>
        <path id="DejaVuSans-32" d="M 1228 531 
L 3431 531 
L 3431 0 
L 469 0 
L 469 531 
Q 828 903 1448 1529 
Q 2069 2156 2228 2338 
Q 2531 2678 2651 2914 
Q 2772 3150 2772 3378 
Q 2772 3750 2511 3984 
Q 2250 4219 1831 4219 
Q 1534 4219 1204 4116 
Q 875 4013 500 3803 
L 500 4441 
Q 881 4594 1212 4672 
Q 1544 4750 1819 4750 
Q 2544 4750 2975 4387 
Q 3406 4025 3406 3419 
Q 3406 3131 3298 2873 
Q 3191 2616 2906 2266 
Q 2828 2175 2409 1742 
Q 1991 1309 1228 531 
z
" transform="scale(0.015625)"/>
       </defs>
       <use xlink:href="#DejaVuSans-30"/>
       <use xlink:href="#DejaVuSans-2e" x="63.623047"/>
       <use xlink:href="#DejaVuSans-30" x="95.410156"/>
       <use xlink:href="#DejaVuSans-32" x="159.033203"/>
      </g>
     </g>
    </g>
    <g id="xtick_3">
     <g id="line2d_5">
      <path d="M 318.374233 384.48 
L 318.374233 51.84 
" clip-path="url(#pe3686091bc)" style="fill: none; stroke: #b0b0b0; stroke-width: 0.8; stroke-linecap: square"/>
     </g>
     <g id="line2d_6">
      <g>
       <use xlink:href="#m91f55a190d" x="318.374233" y="384.48" style="stroke: #000000; stroke-width: 0.8"/>
      </g>
     </g>
     <g id="text_3">
      <!-- 0.04 -->
      <g transform="translate(307.24142 399.078438) scale(0.1 -0.1)">
       <defs>
        <path id="DejaVuSans-34" d="M 2419 4116 
L 825 1625 
L 2419 1625 
L 2419 4116 
z
M 2253 4666 
L 3047 4666 
L 3047 1625 
L 3713 1625 
L 3713 1100 
L 3047 1100 
L 3047 0 
L 2419 0 
L 2419 1100 
L 313 1100 
L 313 1709 
L 2253 4666 
z
" transform="scale(0.015625)"/>
       </defs>
       <use xlink:href="#DejaVuSans-30"/>
       <use xlink:href="#DejaVuSans-2e" x="63.623047"/>
       <use xlink:href="#DejaVuSans-30" x="95.410156"/>
       <use xlink:href="#DejaVuSans-34" x="159.033203"/>
      </g>
     </g>
    </g>
    <g id="xtick_4">
     <g id="line2d_7">
      <path d="M 419.879531 384.48 
L 419.879531 51.84 
" clip-path="url(#pe3686091bc)" style="fill: none; stroke: #b0b0b0; stroke-width: 0.8; stroke-linecap: square"/>
     </g>
     <g id="line2d_8">
      <g>
       <use xlink:href="#m91f55a190d" x="419.879531" y="384.48" style="stroke: #000000; stroke-width: 0.8"/>
      </g>
     </g>
     <g id="text_4">
      <!-- 0.06 -->
      <g transform="translate(408.746718 399.078438) scale(0.1 -0.1)">
       <defs>
        <path id="DejaVuSans-36" d="M 2113 2584 
Q 1688 2584 1439 2293 
Q 1191 2003 1191 1497 
Q 1191 994 1439 701 
Q 1688 409 2113 409 
Q 2538 409 2786 701 
Q 3034 994 3034 1497 
Q 3034 2003 2786 2293 
Q 2538 2584 2113 2584 
z
M 3366 4563 
L 3366 3988 
Q 3128 4100 2886 4159 
Q 2644 4219 2406 4219 
Q 1781 4219 1451 3797 
Q 1122 3375 1075 2522 
Q 1259 2794 1537 2939 
Q 1816 3084 2150 3084 
Q 2853 3084 3261 2657 
Q 3669 2231 3669 1497 
Q 3669 778 3244 343 
Q 2819 -91 2113 -91 
Q 1303 -91 875 529 
Q 447 1150 447 2328 
Q 447 3434 972 4092 
Q 1497 4750 2381 4750 
Q 2619 4750 2861 4703 
Q 3103 4656 3366 4563 
z
" transform="scale(0.015625)"/>
       </defs>
       <use xlink:href="#DejaVuSans-30"/>
       <use xlink:href="#DejaVuSans-2e" x="63.623047"/>
       <use xlink:href="#DejaVuSans-30" x="95.410156"/>
       <use xlink:href="#DejaVuSans-36" x="159.033203"/>
      </g>
     </g>
    </g>
    <g id="xtick_5">
     <g id="line2d_9">
      <path d="M 521.384829 384.48 
L 521.384829 51.84 
" clip-path="url(#pe3686091bc)" style="fill: none; stroke: #b0b0b0; stroke-width: 0.8; stroke-linecap: square"/>
     </g>
     <g id="line2d_10">
      <g>
       <use xlink:href="#m91f55a190d" x="521.384829" y="384.48" style="stroke: #000000; stroke-width: 0.8"/>
      </g>
     </g>
     <g id="text_5">
      <!-- 0.08 -->
      <g transform="translate(510.252016 399.078438) scale(0.1 -0.1)">
       <defs>
        <path id="DejaVuSans-38" d="M 2034 2216 
Q 1584 2216 1326 1975 
Q 1069 1734 1069 1313 
Q 1069 891 1326 650 
Q 1584 409 2034 409 
Q 2484 409 2743 651 
Q 3003 894 3003 1313 
Q 3003 1734 2745 1975 
Q 2488 2216 2034 2216 
z
M 1403 2484 
Q 997 2584 770 2862 
Q 544 3141 544 3541 
Q 544 4100 942 4425 
Q 1341 4750 2034 4750 
Q 2731 4750 3128 4425 
Q 3525 4100 3525 3541 
Q 3525 3141 3298 2862 
Q 3072 2584 2669 2484 
Q 3125 2378 3379 2068 
Q 3634 1759 3634 1313 
Q 3634 634 3220 271 
Q 2806 -91 2034 -91 
Q 1263 -91 848 271 
Q 434 634 434 1313 
Q 434 1759 690 2068 
Q 947 2378 1403 2484 
z
M 1172 3481 
Q 1172 3119 1398 2916 
Q 1625 2713 2034 2713 
Q 2441 2713 2670 2916 
Q 2900 3119 2900 3481 
Q 2900 3844 2670 4047 
Q 2441 4250 2034 4250 
Q 1625 4250 1398 4047 
Q 1172 3844 1172 3481 
z
" transform="scale(0.015625)"/>
       </defs>
       <use xlink:href="#DejaVuSans-30"/>
       <use xlink:href="#DejaVuSans-2e" x="63.623047"/>
       <use xlink:href="#DejaVuSans-30" x="95.410156"/>
       <use xlink:href="#DejaVuSans-38" x="159.033203"/>
      </g>
     </g>
    </g>
    <g id="xtick_6">
     <g id="line2d_11">
      <path d="M 622.890127 384.48 
L 622.890127 51.84 
" clip-path="url(#pe3686091bc)" style="fill: none; stroke: #b0b0b0; stroke-width: 0.8; stroke-linecap: square"/>
     </g>
     <g id="line2d_12">
      <g>
       <use xlink:href="#m91f55a190d" x="622.890127" y="384.48" style="stroke: #000000; stroke-width: 0.8"/>
      </g>
     </g>
     <g id="text_6">
      <!-- 0.10 -->
      <g transform="translate(611.757314 399.078438) scale(0.1 -0.1)">
       <defs>
        <path id="DejaVuSans-31" d="M 794 531 
L 1825 531 
L 1825 4091 
L 703 3866 
L 703 4441 
L 1819 4666 
L 2450 4666 
L 2450 531 
L 3481 531 
L 3481 0 
L 794 0 
L 794 531 
z
" transform="scale(0.015625)"/>
       </defs>
       <use xlink:href="#DejaVuSans-30"/>
       <use xlink:href="#DejaVuSans-2e" x="63.623047"/>
       <use xlink:href="#DejaVuSans-31" x="95.410156"/>
       <use xlink:href="#DejaVuSans-30" x="159.033203"/>
      </g>
     </g>
    </g>
    <g id="text_7">
     <!-- Time (s) -->
     <g transform="translate(348.671094 412.756563) scale(0.1 -0.1)">
      <defs>
       <path id="DejaVuSans-54" d="M -19 4666 
L 3928 4666 
L 3928 4134 
L 2272 4134 
L 2272 0 
L 1638 0 
L 1638 4134 
L -19 4134 
L -19 4666 
z
" transform="scale(0.015625)"/>
       <path id="DejaVuSans-69" d="M 603 3500 
L 1178 3500 
L 1178 0 
L 603 0 
L 603 3500 
z
M 603 4863 
L 1178 4863 
L 1178 4134 
L 603 4134 
L 603 4863 
z
" transform="scale(0.015625)"/>
       <path id="DejaVuSans-6d" d="M 3328 2828 
Q 3544 3216 3844 3400 
Q 4144 3584 4550 3584 
Q 5097 3584 5394 3201 
Q 5691 2819 5691 2113 
L 5691 0 
L 5113 0 
L 5113 2094 
Q 5113 2597 4934 2840 
Q 4756 3084 4391 3084 
Q 3944 3084 3684 2787 
Q 3425 2491 3425 1978 
L 3425 0 
L 2847 0 
L 2847 2094 
Q 2847 2600 2669 2842 
Q 2491 3084 2119 3084 
Q 1678 3084 1418 2786 
Q 1159 2488 1159 1978 
L 1159 0 
L 581 0 
L 581 3500 
L 1159 3500 
L 1159 2956 
Q 1356 3278 1631 3431 
Q 1906 3584 2284 3584 
Q 2666 3584 2933 3390 
Q 3200 3197 3328 2828 
z
" transform="scale(0.015625)"/>
       <path id="DejaVuSans-65" d="M 3597 1894 
L 3597 1613 
L 953 1613 
Q 991 1019 1311 708 
Q 1631 397 2203 397 
Q 2534 397 2845 478 
Q 3156 559 3463 722 
L 3463 178 
Q 3153 47 2828 -22 
Q 2503 -91 2169 -91 
Q 1331 -91 842 396 
Q 353 884 353 1716 
Q 353 2575 817 3079 
Q 1281 3584 2069 3584 
Q 2775 3584 3186 3129 
Q 3597 2675 3597 1894 
z
M 3022 2063 
Q 3016 2534 2758 2815 
Q 2500 3097 2075 3097 
Q 1594 3097 1305 2825 
Q 1016 2553 972 2059 
L 3022 2063 
z
" transform="scale(0.015625)"/>
       <path id="DejaVuSans-20" transform="scale(0.015625)"/>
       <path id="DejaVuSans-28" d="M 1984 4856 
Q 1566 4138 1362 3434 
Q 1159 2731 1159 2009 
Q 1159 1288 1364 580 
Q 1569 -128 1984 -844 
L 1484 -844 
Q 1016 -109 783 600 
Q 550 1309 550 2009 
Q 550 2706 781 3412 
Q 1013 4119 1484 4856 
L 1984 4856 
z
" transform="scale(0.015625)"/>
       <path id="DejaVuSans-73" d="M 2834 3397 
L 2834 2853 
Q 2591 2978 2328 3040 
Q 2066 3103 1784 3103 
Q 1356 3103 1142 2972 
Q 928 2841 928 2578 
Q 928 2378 1081 2264 
Q 1234 2150 1697 2047 
L 1894 2003 
Q 2506 1872 2764 1633 
Q 3022 1394 3022 966 
Q 3022 478 2636 193 
Q 2250 -91 1575 -91 
Q 1294 -91 989 -36 
Q 684 19 347 128 
L 347 722 
Q 666 556 975 473 
Q 1284 391 1588 391 
Q 1994 391 2212 530 
Q 2431 669 2431 922 
Q 2431 1156 2273 1281 
Q 2116 1406 1581 1522 
L 1381 1569 
Q 847 1681 609 1914 
Q 372 2147 372 2553 
Q 372 3047 722 3315 
Q 1072 3584 1716 3584 
Q 2034 3584 2315 3537 
Q 2597 3491 2834 3397 
z
" transform="scale(0.015625)"/>
       <path id="DejaVuSans-29" d="M 513 4856 
L 1013 4856 
Q 1481 4119 1714 3412 
Q 1947 2706 1947 2009 
Q 1947 1309 1714 600 
Q 1481 -109 1013 -844 
L 513 -844 
Q 928 -128 1133 580 
Q 1338 1288 1338 2009 
Q 1338 2731 1133 3434 
Q 928 4138 513 4856 
z
" transform="scale(0.015625)"/>
      </defs>
      <use xlink:href="#DejaVuSans-54"/>
      <use xlink:href="#DejaVuSans-69" x="57.958984"/>
      <use xlink:href="#DejaVuSans-6d" x="85.742188"/>
      <use xlink:href="#DejaVuSans-65" x="183.154297"/>
      <use xlink:href="#DejaVuSans-20" x="244.677734"/>
      <use xlink:href="#DejaVuSans-28" x="276.464844"/>
      <use xlink:href="#DejaVuSans-73" x="315.478516"/>
      <use xlink:href="#DejaVuSans-29" x="367.578125"/>
     </g>
    </g>
   </g>
   <g id="matplotlib.axis_2">
    <g id="ytick_1">
     <g id="line2d_13">
      <path d="M 90 374.601601 
L 648 374.601601 
" clip-path="url(#pe3686091bc)" style="fill: none; stroke: #b0b0b0; stroke-width: 0.8; stroke-linecap: square"/>
     </g>
     <g id="line2d_14">
      <defs>
       <path id="mc66b28824e" d="M 0 0 
L -3.5 0 
" style="stroke: #000000; stroke-width: 0.8"/>
      </defs>
      <g>
       <use xlink:href="#mc66b28824e" x="90" y="374.601601" style="stroke: #000000; stroke-width: 0.8"/>
      </g>
     </g>
     <g id="text_8">
      <!-- −45.6 -->
      <g transform="translate(52.354687 378.40082) scale(0.1 -0.1)">
       <defs>
        <path id="DejaVuSans-2212" d="M 678 2272 
L 4684 2272 
L 4684 1741 
L 678 1741 
L 678 2272 
z
" transform="scale(0.015625)"/>
        <path id="DejaVuSans-35" d="M 691 4666 
L 3169 4666 
L 3169 4134 
L 1269 4134 
L 1269 2991 
Q 1406 3038 1543 3061 
Q 1681 3084 1819 3084 
Q 2600 3084 3056 2656 
Q 3513 2228 3513 1497 
Q 3513 744 3044 326 
Q 2575 -91 1722 -91 
Q 1428 -91 1123 -41 
Q 819 9 494 109 
L 494 744 
Q 775 591 1075 516 
Q 1375 441 1709 441 
Q 2250 441 2565 725 
Q 2881 1009 2881 1497 
Q 2881 1984 2565 2268 
Q 2250 2553 1709 2553 
Q 1456 2553 1204 2497 
Q 953 2441 691 2322 
L 691 4666 
z
" transform="scale(0.015625)"/>
       </defs>
       <use xlink:href="#DejaVuSans-2212"/>
       <use xlink:href="#DejaVuSans-34" x="83.789062"/>
       <use xlink:href="#DejaVuSans-35" x="147.412109"/>
       <use xlink:href="#DejaVuSans-2e" x="211.035156"/>
       <use xlink:href="#DejaVuSans-36" x="242.822266"/>
      </g>
     </g>
    </g>
    <g id="ytick_2">
     <g id="line2d_15">
      <path d="M 90 329.418072 
L 648 329.418072 
" clip-path="url(#pe3686091bc)" style="fill: none; stroke: #b0b0b0; stroke-width: 0.8; stroke-linecap: square"/>
     </g>
     <g id="line2d_16">
      <g>
       <use xlink:href="#mc66b28824e" x="90" y="329.418072" style="stroke: #000000; stroke-width: 0.8"/>
      </g>
     </g>
     <g id="text_9">
      <!-- −45.4 -->
      <g transform="translate(52.354687 333.217291) scale(0.1 -0.1)">
       <use xlink:href="#DejaVuSans-2212"/>
       <use xlink:href="#DejaVuSans-34" x="83.789062"/>
       <use xlink:href="#DejaVuSans-35" x="147.412109"/>
       <use xlink:href="#DejaVuSans-2e" x="211.035156"/>
       <use xlink:href="#DejaVuSans-34" x="242.822266"/>
      </g>
     </g>
    </g>
    <g id="ytick_3">
     <g id="line2d_17">
      <path d="M 90 284.234543 
L 648 284.234543 
" clip-path="url(#pe3686091bc)" style="fill: none; stroke: #b0b0b0; stroke-width: 0.8; stroke-linecap: square"/>
     </g>
     <g id="line2d_18">
      <g>
       <use xlink:href="#mc66b28824e" x="90" y="284.234543" style="stroke: #000000; stroke-width: 0.8"/>
      </g>
     </g>
     <g id="text_10">
      <!-- −45.2 -->
      <g transform="translate(52.354687 288.033762) scale(0.1 -0.1)">
       <use xlink:href="#DejaVuSans-2212"/>
       <use xlink:href="#DejaVuSans-34" x="83.789062"/>
       <use xlink:href="#DejaVuSans-35" x="147.412109"/>
       <use xlink:href="#DejaVuSans-2e" x="211.035156"/>
       <use xlink:href="#DejaVuSans-32" x="242.822266"/>
      </g>
     </g>
    </g>
    <g id="ytick_4">
     <g id="line2d_19">
      <path d="M 90 239.051015 
L 648 239.051015 
" clip-path="url(#pe3686091bc)" style="fill: none; stroke: #b0b0b0; stroke-width: 0.8; stroke-linecap: square"/>
     </g>
     <g id="line2d_20">
      <g>
       <use xlink:href="#mc66b28824e" x="90" y="239.051015" style="stroke: #000000; stroke-width: 0.8"/>
      </g>
     </g>
     <g id="text_11">
      <!-- −45.0 -->
      <g transform="translate(52.354687 242.850233) scale(0.1 -0.1)">
       <use xlink:href="#DejaVuSans-2212"/>
       <use xlink:href="#DejaVuSans-34" x="83.789062"/>
       <use xlink:href="#DejaVuSans-35" x="147.412109"/>
       <use xlink:href="#DejaVuSans-2e" x="211.035156"/>
       <use xlink:href="#DejaVuSans-30" x="242.822266"/>
      </g>
     </g>
    </g>
    <g id="ytick_5">
     <g id="line2d_21">
      <path d="M 90 193.867486 
L 648 193.867486 
" clip-path="url(#pe3686091bc)" style="fill: none; stroke: #b0b0b0; stroke-width: 0.8; stroke-linecap: square"/>
     </g>
     <g id="line2d_22">
      <g>
       <use xlink:href="#mc66b28824e" x="90" y="193.867486" style="stroke: #000000; stroke-width: 0.8"/>
      </g>
     </g>
     <g id="text_12">
      <!-- −44.8 -->
      <g transform="translate(52.354687 197.666705) scale(0.1 -0.1)">
       <use xlink:href="#DejaVuSans-2212"/>
       <use xlink:href="#DejaVuSans-34" x="83.789062"/>
       <use xlink:href="#DejaVuSans-34" x="147.412109"/>
       <use xlink:href="#DejaVuSans-2e" x="211.035156"/>
       <use xlink:href="#DejaVuSans-38" x="242.822266"/>
      </g>
     </g>
    </g>
    <g id="ytick_6">
     <g id="line2d_23">
      <path d="M 90 148.683957 
L 648 148.683957 
" clip-path="url(#pe3686091bc)" style="fill: none; stroke: #b0b0b0; stroke-width: 0.8; stroke-linecap: square"/>
     </g>
     <g id="line2d_24">
      <g>
       <use xlink:href="#mc66b28824e" x="90" y="148.683957" style="stroke: #000000; stroke-width: 0.8"/>
      </g>
     </g>
     <g id="text_13">
      <!-- −44.6 -->
      <g transform="translate(52.354687 152.483176) scale(0.1 -0.1)">
       <use xlink:href="#DejaVuSans-2212"/>
       <use xlink:href="#DejaVuSans-34" x="83.789062"/>
       <use xlink:href="#DejaVuSans-34" x="147.412109"/>
       <use xlink:href="#DejaVuSans-2e" x="211.035156"/>
       <use xlink:href="#DejaVuSans-36" x="242.822266"/>
      </g>
     </g>
    </g>
    <g id="ytick_7">
     <g id="line2d_25">
      <path d="M 90 103.500428 
L 648 103.500428 
" clip-path="url(#pe3686091bc)" style="fill: none; stroke: #b0b0b0; stroke-width: 0.8; stroke-linecap: square"/>
     </g>
     <g id="line2d_26">
      <g>
       <use xlink:href="#mc66b28824e" x="90" y="103.500428" style="stroke: #000000; stroke-width: 0.8"/>
      </g>
     </g>
     <g id="text_14">
      <!-- −44.4 -->
      <g transform="translate(52.354687 107.299647) scale(0.1 -0.1)">
       <use xlink:href="#DejaVuSans-2212"/>
       <use xlink:href="#DejaVuSans-34" x="83.789062"/>
       <use xlink:href="#DejaVuSans-34" x="147.412109"/>
       <use xlink:href="#DejaVuSans-2e" x="211.035156"/>
       <use xlink:href="#DejaVuSans-34" x="242.822266"/>
      </g>
     </g>
    </g>
    <g id="ytick_8">
     <g id="line2d_27">
      <path d="M 90 58.316899 
L 648 58.316899 
" clip-path="url(#pe3686091bc)" style="fill: none; stroke: #b0b0b0; stroke-width: 0.8; stroke-linecap: square"/>
     </g>
     <g id="line2d_28">
      <g>
       <use xlink:href="#mc66b28824e" x="90" y="58.316899" style="stroke: #000000; stroke-width: 0.8"/>
      </g>
     </g>
     <g id="text_15">
      <!-- −44.2 -->
      <g transform="translate(52.354687 62.116118) scale(0.1 -0.1)">
       <use xlink:href="#DejaVuSans-2212"/>
       <use xlink:href="#DejaVuSans-34" x="83.789062"/>
       <use xlink:href="#DejaVuSans-34" x="147.412109"/>
       <use xlink:href="#DejaVuSans-2e" x="211.035156"/>
       <use xlink:href="#DejaVuSans-32" x="242.822266"/>
      </g>
     </g>
    </g>
    <g id="text_16">
     <!-- Power (arbitrary units) -->
     <g transform="translate(46.275 274.4225) rotate(-90) scale(0.1 -0.1)">
      <defs>
       <path id="DejaVuSans-50" d="M 1259 4147 
L 1259 2394 
L 2053 2394 
Q 2494 2394 2734 2622 
Q 2975 2850 2975 3272 
Q 2975 3691 2734 3919 
Q 2494 4147 2053 4147 
L 1259 4147 
z
M 628 4666 
L 2053 4666 
Q 2838 4666 3239 4311 
Q 3641 3956 3641 3272 
Q 3641 2581 3239 2228 
Q 2838 1875 2053 1875 
L 1259 1875 
L 1259 0 
L 628 0 
L 628 4666 
z
" transform="scale(0.015625)"/>
       <path id="DejaVuSans-6f" d="M 1959 3097 
Q 1497 3097 1228 2736 
Q 959 2375 959 1747 
Q 959 1119 1226 758 
Q 1494 397 1959 397 
Q 2419 397 2687 759 
Q 2956 1122 2956 1747 
Q 2956 2369 2687 2733 
Q 2419 3097 1959 3097 
z
M 1959 3584 
Q 2709 3584 3137 3096 
Q 3566 2609 3566 1747 
Q 3566 888 3137 398 
Q 2709 -91 1959 -91 
Q 1206 -91 779 398 
Q 353 888 353 1747 
Q 353 2609 779 3096 
Q 1206 3584 1959 3584 
z
" transform="scale(0.015625)"/>
       <path id="DejaVuSans-77" d="M 269 3500 
L 844 3500 
L 1563 769 
L 2278 3500 
L 2956 3500 
L 3675 769 
L 4391 3500 
L 4966 3500 
L 4050 0 
L 3372 0 
L 2619 2869 
L 1863 0 
L 1184 0 
L 269 3500 
z
" transform="scale(0.015625)"/>
       <path id="DejaVuSans-72" d="M 2631 2963 
Q 2534 3019 2420 3045 
Q 2306 3072 2169 3072 
Q 1681 3072 1420 2755 
Q 1159 2438 1159 1844 
L 1159 0 
L 581 0 
L 581 3500 
L 1159 3500 
L 1159 2956 
Q 1341 3275 1631 3429 
Q 1922 3584 2338 3584 
Q 2397 3584 2469 3576 
Q 2541 3569 2628 3553 
L 2631 2963 
z
" transform="scale(0.015625)"/>
       <path id="DejaVuSans-61" d="M 2194 1759 
Q 1497 1759 1228 1600 
Q 959 1441 959 1056 
Q 959 750 1161 570 
Q 1363 391 1709 391 
Q 2188 391 2477 730 
Q 2766 1069 2766 1631 
L 2766 1759 
L 2194 1759 
z
M 3341 1997 
L 3341 0 
L 2766 0 
L 2766 531 
Q 2569 213 2275 61 
Q 1981 -91 1556 -91 
Q 1019 -91 701 211 
Q 384 513 384 1019 
Q 384 1609 779 1909 
Q 1175 2209 1959 2209 
L 2766 2209 
L 2766 2266 
Q 2766 2663 2505 2880 
Q 2244 3097 1772 3097 
Q 1472 3097 1187 3025 
Q 903 2953 641 2809 
L 641 3341 
Q 956 3463 1253 3523 
Q 1550 3584 1831 3584 
Q 2591 3584 2966 3190 
Q 3341 2797 3341 1997 
z
" transform="scale(0.015625)"/>
       <path id="DejaVuSans-62" d="M 3116 1747 
Q 3116 2381 2855 2742 
Q 2594 3103 2138 3103 
Q 1681 3103 1420 2742 
Q 1159 2381 1159 1747 
Q 1159 1113 1420 752 
Q 1681 391 2138 391 
Q 2594 391 2855 752 
Q 3116 1113 3116 1747 
z
M 1159 2969 
Q 1341 3281 1617 3432 
Q 1894 3584 2278 3584 
Q 2916 3584 3314 3078 
Q 3713 2572 3713 1747 
Q 3713 922 3314 415 
Q 2916 -91 2278 -91 
Q 1894 -91 1617 61 
Q 1341 213 1159 525 
L 1159 0 
L 581 0 
L 581 4863 
L 1159 4863 
L 1159 2969 
z
" transform="scale(0.015625)"/>
       <path id="DejaVuSans-74" d="M 1172 4494 
L 1172 3500 
L 2356 3500 
L 2356 3053 
L 1172 3053 
L 1172 1153 
Q 1172 725 1289 603 
Q 1406 481 1766 481 
L 2356 481 
L 2356 0 
L 1766 0 
Q 1100 0 847 248 
Q 594 497 594 1153 
L 594 3053 
L 172 3053 
L 172 3500 
L 594 3500 
L 594 4494 
L 1172 4494 
z
" transform="scale(0.015625)"/>
       <path id="DejaVuSans-79" d="M 2059 -325 
Q 1816 -950 1584 -1140 
Q 1353 -1331 966 -1331 
L 506 -1331 
L 506 -850 
L 844 -850 
Q 1081 -850 1212 -737 
Q 1344 -625 1503 -206 
L 1606 56 
L 191 3500 
L 800 3500 
L 1894 763 
L 2988 3500 
L 3597 3500 
L 2059 -325 
z
" transform="scale(0.015625)"/>
       <path id="DejaVuSans-75" d="M 544 1381 
L 544 3500 
L 1119 3500 
L 1119 1403 
Q 1119 906 1312 657 
Q 1506 409 1894 409 
Q 2359 409 2629 706 
Q 2900 1003 2900 1516 
L 2900 3500 
L 3475 3500 
L 3475 0 
L 2900 0 
L 2900 538 
Q 2691 219 2414 64 
Q 2138 -91 1772 -91 
Q 1169 -91 856 284 
Q 544 659 544 1381 
z
M 1991 3584 
L 1991 3584 
z
" transform="scale(0.015625)"/>
       <path id="DejaVuSans-6e" d="M 3513 2113 
L 3513 0 
L 2938 0 
L 2938 2094 
Q 2938 2591 2744 2837 
Q 2550 3084 2163 3084 
Q 1697 3084 1428 2787 
Q 1159 2491 1159 1978 
L 1159 0 
L 581 0 
L 581 3500 
L 1159 3500 
L 1159 2956 
Q 1366 3272 1645 3428 
Q 1925 3584 2291 3584 
Q 2894 3584 3203 3211 
Q 3513 2838 3513 2113 
z
" transform="scale(0.015625)"/>
      </defs>
      <use xlink:href="#DejaVuSans-50"/>
      <use xlink:href="#DejaVuSans-6f" x="56.677734"/>
      <use xlink:href="#DejaVuSans-77" x="117.859375"/>
      <use xlink:href="#DejaVuSans-65" x="199.646484"/>
      <use xlink:href="#DejaVuSans-72" x="261.169922"/>
      <use xlink:href="#DejaVuSans-20" x="302.283203"/>
      <use xlink:href="#DejaVuSans-28" x="334.070312"/>
      <use xlink:href="#DejaVuSans-61" x="373.083984"/>
      <use xlink:href="#DejaVuSans-72" x="434.363281"/>
      <use xlink:href="#DejaVuSans-62" x="475.476562"/>
      <use xlink:href="#DejaVuSans-69" x="538.953125"/>
      <use xlink:href="#DejaVuSans-74" x="566.736328"/>
      <use xlink:href="#DejaVuSans-72" x="605.945312"/>
      <use xlink:href="#DejaVuSans-61" x="647.058594"/>
      <use xlink:href="#DejaVuSans-72" x="708.337891"/>
      <use xlink:href="#DejaVuSans-79" x="749.451172"/>
      <use xlink:href="#DejaVuSans-20" x="808.630859"/>
      <use xlink:href="#DejaVuSans-75" x="840.417969"/>
      <use xlink:href="#DejaVuSans-6e" x="903.796875"/>
      <use xlink:href="#DejaVuSans-69" x="967.175781"/>
      <use xlink:href="#DejaVuSans-74" x="994.958984"/>
      <use xlink:href="#DejaVuSans-73" x="1034.167969"/>
      <use xlink:href="#DejaVuSans-29" x="1086.267578"/>
     </g>
    </g>
   </g>
   <g id="line2d_29">
    <path d="M 115.363636 243.027165 
L 115.6174 110.631064 
L 115.871163 126.935247 
L 116.124926 128.419189 
L 116.378689 263.63442 
L 116.632453 233.300558 
L 116.886216 324.55979 
L 117.139979 153.251004 
L 117.393742 328.795961 
L 117.647506 369.36 
L 117.901269 303.839677 
L 118.155032 369.36 
L 118.408795 328.795961 
L 118.662559 153.251004 
L 118.916322 324.55979 
L 119.170085 233.300558 
L 119.423848 263.63442 
L 119.677612 128.419189 
L 119.931375 126.935247 
L 120.185138 110.631064 
L 120.438901 243.027165 
L 120.946428 333.767498 
L 121.200191 92.667656 
L 121.707717 215.563392 
L 121.961481 188.207853 
L 122.215244 145.669018 
L 122.469007 66.96 
L 122.72277 137.857111 
L 122.976534 176.785853 
L 123.230297 137.857111 
L 123.48406 66.96 
L 123.737823 145.669018 
L 124.24535 215.563392 
L 124.752876 92.667656 
L 125.00664 333.767498 
L 125.260403 300.040222 
L 125.514166 243.027165 
L 125.767929 110.631064 
L 126.021693 126.935247 
L 126.275456 128.419189 
L 126.529219 263.63442 
L 126.782982 233.300558 
L 127.036746 324.55979 
L 127.290509 153.251004 
L 127.544272 328.795961 
L 127.798035 369.36 
L 128.051799 303.839677 
L 128.305562 369.36 
L 128.559325 328.795961 
L 128.813088 153.251004 
L 129.066852 324.55979 
L 129.320615 233.300558 
L 129.574378 263.63442 
L 129.828141 128.419189 
L 130.081905 126.935247 
L 130.335668 110.631064 
L 130.589431 243.027165 
L 131.096958 333.767498 
L 131.350721 92.667656 
L 131.858247 215.563392 
L 132.112011 188.207853 
L 132.365774 145.669018 
L 132.619537 66.96 
L 132.8733 137.857111 
L 133.127064 176.785853 
L 133.380827 137.857111 
L 133.63459 66.96 
L 133.888353 145.669018 
L 134.39588 215.563392 
L 134.903406 92.667656 
L 135.157169 333.767498 
L 135.410933 300.040222 
L 135.664696 243.027165 
L 135.918459 110.631064 
L 136.172222 126.935247 
L 136.425986 128.419189 
L 136.679749 263.63442 
L 136.933512 233.300558 
L 137.187275 324.55979 
L 137.441039 153.251004 
L 137.694802 328.795961 
L 137.948565 369.36 
L 138.202328 303.839677 
L 138.456092 369.36 
L 138.709855 328.795961 
L 138.963618 153.251004 
L 139.217381 324.55979 
L 139.471145 233.300558 
L 139.724908 263.63442 
L 139.978671 128.419189 
L 140.232434 126.935247 
L 140.486198 110.631064 
L 140.739961 243.027165 
L 141.247487 333.767498 
L 141.501251 92.667656 
L 142.008777 215.563392 
L 142.26254 188.207853 
L 142.516304 145.669018 
L 142.770067 66.96 
L 143.02383 137.857111 
L 143.277593 176.785853 
L 143.531357 137.857111 
L 143.78512 66.96 
L 144.038883 145.669018 
L 144.54641 215.563392 
L 145.053936 92.667656 
L 145.307699 333.767498 
L 145.561463 300.040222 
L 145.815226 243.027165 
L 146.068989 110.631064 
L 146.322752 126.935247 
L 146.576516 128.419189 
L 146.830279 263.63442 
L 147.084042 233.300558 
L 147.337805 324.55979 
L 147.591569 153.251004 
L 147.845332 328.795961 
L 148.099095 369.36 
L 148.352858 303.839677 
L 148.606621 369.36 
L 148.860385 328.795961 
L 149.114148 153.251004 
L 149.367911 324.55979 
L 149.621674 233.300558 
L 149.875438 263.63442 
L 150.129201 128.419189 
L 150.382964 126.935247 
L 150.636727 110.631064 
L 150.890491 243.027165 
L 151.398017 333.767498 
L 151.65178 92.667656 
L 152.159307 215.563392 
L 152.41307 188.207853 
L 152.666833 145.669018 
L 152.920597 66.96 
L 153.17436 137.857111 
L 153.428123 176.785853 
L 153.681886 137.857111 
L 153.93565 66.96 
L 154.189413 145.669018 
L 154.696939 215.563392 
L 155.204466 92.667656 
L 155.458229 333.767498 
L 155.711992 300.040222 
L 155.965756 243.027165 
L 156.219519 110.631064 
L 156.473282 126.935247 
L 156.727045 128.419189 
L 156.980809 263.63442 
L 157.234572 233.300558 
L 157.488335 324.55979 
L 157.742098 153.251004 
L 157.995862 328.795961 
L 158.249625 369.36 
L 158.503388 303.839677 
L 158.757151 369.36 
L 159.010915 328.795961 
L 159.264678 153.251004 
L 159.518441 324.55979 
L 159.772204 233.300558 
L 160.025968 263.63442 
L 160.279731 128.419189 
L 160.533494 126.935247 
L 160.787257 110.631064 
L 161.041021 243.027165 
L 161.548547 333.767498 
L 161.80231 92.667656 
L 162.309837 215.563392 
L 162.5636 188.207853 
L 162.817363 145.669018 
L 163.071126 66.96 
L 163.32489 137.857111 
L 163.578653 176.785853 
L 163.832416 137.857111 
L 164.086179 66.96 
L 164.339943 145.669018 
L 164.847469 215.563392 
L 165.354996 92.667656 
L 165.608759 333.767498 
L 165.862522 300.040222 
L 166.116285 243.027165 
L 166.370049 110.631064 
L 166.623812 126.935247 
L 166.877575 128.419189 
L 167.131338 263.63442 
L 167.385102 233.300558 
L 167.638865 324.55979 
L 167.892628 153.251004 
L 168.146391 328.795961 
L 168.400155 369.36 
L 168.653918 303.839677 
L 168.907681 369.36 
L 169.161444 328.795961 
L 169.415208 153.251004 
L 169.668971 324.55979 
L 169.922734 233.300558 
L 170.176497 263.63442 
L 170.430261 128.419189 
L 170.684024 126.935247 
L 170.937787 110.631064 
L 171.19155 243.027165 
L 171.699077 333.767498 
L 171.95284 92.667656 
L 172.460367 215.563392 
L 172.71413 188.207853 
L 172.967893 145.669018 
L 173.221656 66.96 
L 173.47542 137.857111 
L 173.729183 176.785853 
L 173.982946 137.857111 
L 174.236709 66.96 
L 174.490473 145.669018 
L 174.997999 215.563392 
L 175.505525 92.667656 
L 175.759289 333.767498 
L 176.013052 300.040222 
L 176.266815 243.027165 
L 176.520578 110.631064 
L 176.774342 126.935247 
L 177.028105 128.419189 
L 177.281868 263.63442 
L 177.535631 233.300558 
L 177.789395 324.55979 
L 178.043158 153.251004 
L 178.296921 328.795961 
L 178.550684 369.36 
L 178.804448 303.839677 
L 179.058211 369.36 
L 179.311974 328.795961 
L 179.565737 153.251004 
L 179.819501 324.55979 
L 180.073264 233.300558 
L 180.327027 263.63442 
L 180.58079 128.419189 
L 180.834554 126.935247 
L 181.088317 110.631064 
L 181.34208 243.027165 
L 181.849607 333.767498 
L 182.10337 92.667656 
L 182.610896 215.563392 
L 182.86466 188.207853 
L 183.118423 145.669018 
L 183.372186 66.96 
L 183.625949 137.857111 
L 183.879713 176.785853 
L 184.133476 137.857111 
L 184.387239 66.96 
L 184.641002 145.669018 
L 185.148529 215.563392 
L 185.656055 92.667656 
L 185.909819 333.767498 
L 186.163582 300.040222 
L 186.417345 243.027165 
L 186.671108 110.631064 
L 186.924872 126.935247 
L 187.178635 128.419189 
L 187.432398 263.63442 
L 187.686161 233.300558 
L 187.939925 324.55979 
L 188.193688 153.251004 
L 188.447451 328.795961 
L 188.701214 369.36 
L 188.954977 303.839677 
L 189.208741 369.36 
L 189.462504 328.795961 
L 189.716267 153.251004 
L 189.97003 324.55979 
L 190.223794 233.300558 
L 190.477557 263.63442 
L 190.73132 128.419189 
L 190.985083 126.935247 
L 191.238847 110.631064 
L 191.49261 243.027165 
L 192.000136 333.767498 
L 192.2539 92.667656 
L 192.761426 215.563392 
L 193.015189 188.207853 
L 193.268953 145.669018 
L 193.522716 66.96 
L 193.776479 137.857111 
L 194.030242 176.785853 
L 194.284006 137.857111 
L 194.537769 66.96 
L 194.791532 145.669018 
L 195.299059 215.563392 
L 195.806585 92.667656 
L 196.060348 333.767498 
L 196.314112 300.040222 
L 196.567875 243.027165 
L 196.821638 110.631064 
L 197.075401 126.935247 
L 197.329165 128.419189 
L 197.582928 263.63442 
L 197.836691 233.300558 
L 198.090454 324.55979 
L 198.344218 153.251004 
L 198.597981 328.795961 
L 198.851744 369.36 
L 199.105507 303.839677 
L 199.359271 369.36 
L 199.613034 328.795961 
L 199.866797 153.251004 
L 200.12056 324.55979 
L 200.374324 233.300558 
L 200.628087 263.63442 
L 200.88185 128.419189 
L 201.135613 126.935247 
L 201.389377 110.631064 
L 201.64314 243.027165 
L 202.150666 333.767498 
L 202.404429 92.667656 
L 202.911956 215.563392 
L 203.165719 188.207853 
L 203.419482 145.669018 
L 203.673246 66.96 
L 203.927009 137.857111 
L 204.180772 176.785853 
L 204.434535 137.857111 
L 204.688299 66.96 
L 204.942062 145.669018 
L 205.449588 215.563392 
L 205.957115 92.667656 
L 206.210878 333.767498 
L 206.464641 300.040222 
L 206.718405 243.027165 
L 206.972168 110.631064 
L 207.225931 126.935247 
L 207.479694 128.419189 
L 207.733458 263.63442 
L 207.987221 233.300558 
L 208.240984 324.55979 
L 208.494747 153.251004 
L 208.748511 328.795961 
L 209.002274 369.36 
L 209.256037 303.839677 
L 209.5098 369.36 
L 209.763564 328.795961 
L 210.017327 153.251004 
L 210.27109 324.55979 
L 210.524853 233.300558 
L 210.778617 263.63442 
L 211.03238 128.419189 
L 211.286143 126.935247 
L 211.539906 110.631064 
L 211.79367 243.027165 
L 212.301196 333.767498 
L 212.554959 92.667656 
L 213.062486 215.563392 
L 213.316249 188.207853 
L 213.570012 145.669018 
L 213.823776 66.96 
L 214.077539 137.857111 
L 214.331302 176.785853 
L 214.585065 137.857111 
L 214.838829 66.96 
L 215.092592 145.669018 
L 215.600118 215.563392 
L 216.107645 92.667656 
L 216.361408 333.767498 
L 216.615171 300.040222 
L 216.868934 243.027165 
L 217.122698 110.631064 
L 217.376461 126.935247 
L 217.630224 128.419189 
L 217.883987 263.63442 
L 218.137751 233.300558 
L 218.391514 324.55979 
L 218.645277 153.251004 
L 218.89904 328.795961 
L 219.152804 369.36 
L 219.406567 303.839677 
L 219.66033 369.36 
L 219.914093 328.795961 
L 220.167857 153.251004 
L 220.42162 324.55979 
L 220.675383 233.300558 
L 220.929146 263.63442 
L 221.18291 128.419189 
L 221.436673 126.935247 
L 221.690436 110.631064 
L 221.944199 243.027165 
L 222.451726 333.767498 
L 222.705489 92.667656 
L 223.213016 215.563392 
L 223.466779 188.207853 
L 223.720542 145.669018 
L 223.974305 66.96 
L 224.228069 137.857111 
L 224.481832 176.785853 
L 224.735595 137.857111 
L 224.989358 66.96 
L 225.243122 145.669018 
L 225.750648 215.563392 
L 226.258175 92.667656 
L 226.511938 333.767498 
L 226.765701 300.040222 
L 227.019464 243.027165 
L 227.273228 110.631064 
L 227.526991 126.935247 
L 227.780754 128.419189 
L 228.034517 263.63442 
L 228.288281 233.300558 
L 228.542044 324.55979 
L 228.795807 153.251004 
L 229.04957 328.795961 
L 229.303333 369.36 
L 229.557097 303.839677 
L 229.81086 369.36 
L 230.064623 328.795961 
L 230.318386 153.251004 
L 230.57215 324.55979 
L 230.825913 233.300558 
L 231.079676 263.63442 
L 231.333439 128.419189 
L 231.587203 126.935247 
L 231.840966 110.631064 
L 232.094729 243.027165 
L 232.602256 333.767498 
L 232.856019 92.667656 
L 233.363545 215.563392 
L 233.617309 188.207853 
L 233.871072 145.669018 
L 234.124835 66.96 
L 234.378598 137.857111 
L 234.632362 176.785853 
L 234.886125 137.857111 
L 235.139888 66.96 
L 235.393651 145.669018 
L 235.901178 215.563392 
L 236.408704 92.667656 
L 236.662468 333.767498 
L 236.916231 300.040222 
L 237.169994 243.027165 
L 237.423757 110.631064 
L 237.677521 126.935247 
L 237.931284 128.419189 
L 238.185047 263.63442 
L 238.43881 233.300558 
L 238.692574 324.55979 
L 238.946337 153.251004 
L 239.2001 328.795961 
L 239.453863 369.36 
L 239.707627 303.839677 
L 239.96139 369.36 
L 240.215153 328.795961 
L 240.468916 153.251004 
L 240.72268 324.55979 
L 240.976443 233.300558 
L 241.230206 263.63442 
L 241.483969 128.419189 
L 241.737733 126.935247 
L 241.991496 110.631064 
L 242.245259 243.027165 
L 242.752785 333.767498 
L 243.006549 92.667656 
L 243.514075 215.563392 
L 243.767838 188.207853 
L 244.021602 145.669018 
L 244.275365 66.96 
L 244.529128 137.857111 
L 244.782891 176.785853 
L 245.036655 137.857111 
L 245.290418 66.96 
L 245.544181 145.669018 
L 246.051708 215.563392 
L 246.559234 92.667656 
L 246.812997 333.767498 
L 247.066761 300.040222 
L 247.320524 243.027165 
L 247.574287 110.631064 
L 247.82805 126.935247 
L 248.081814 128.419189 
L 248.335577 263.63442 
L 248.58934 233.300558 
L 248.843103 324.55979 
L 249.096867 153.251004 
L 249.35063 328.795961 
L 249.604393 369.36 
L 249.858156 303.839677 
L 250.11192 369.36 
L 250.365683 328.795961 
L 250.619446 153.251004 
L 250.873209 324.55979 
L 251.126973 233.300558 
L 251.380736 263.63442 
L 251.634499 128.419189 
L 251.888262 126.935247 
L 252.142026 110.631064 
L 252.395789 243.027165 
L 252.903315 333.767498 
L 253.157079 92.667656 
L 253.664605 215.563392 
L 253.918368 188.207853 
L 254.172132 145.669018 
L 254.425895 66.96 
L 254.679658 137.857111 
L 254.933421 176.785853 
L 255.187185 137.857111 
L 255.440948 66.96 
L 255.694711 145.669018 
L 256.202237 215.563392 
L 256.709764 92.667656 
L 256.963527 333.767498 
L 257.21729 300.040222 
L 257.471054 243.027165 
L 257.724817 110.631064 
L 257.97858 126.935247 
L 258.232343 128.419189 
L 258.486107 263.63442 
L 258.73987 233.300558 
L 258.993633 324.55979 
L 259.247396 153.251004 
L 259.50116 328.795961 
L 259.754923 369.36 
L 260.008686 303.839677 
L 260.262449 369.36 
L 260.516213 328.795961 
L 260.769976 153.251004 
L 261.023739 324.55979 
L 261.277502 233.300558 
L 261.531266 263.63442 
L 261.785029 128.419189 
L 262.038792 126.935247 
L 262.292555 110.631064 
L 262.546319 243.027165 
L 263.053845 333.767498 
L 263.307608 92.667656 
L 263.815135 215.563392 
L 264.068898 188.207853 
L 264.322661 145.669018 
L 264.576425 66.96 
L 264.830188 137.857111 
L 265.083951 176.785853 
L 265.337714 137.857111 
L 265.591478 66.96 
L 265.845241 145.669018 
L 266.352767 215.563392 
L 266.860294 92.667656 
L 267.114057 333.767498 
L 267.36782 300.040222 
L 267.621584 243.027165 
L 267.875347 110.631064 
L 268.12911 126.935247 
L 268.382873 128.419189 
L 268.636637 263.63442 
L 268.8904 233.300558 
L 269.144163 324.55979 
L 269.397926 153.251004 
L 269.651689 328.795961 
L 269.905453 369.36 
L 270.159216 303.839677 
L 270.412979 369.36 
L 270.666742 328.795961 
L 270.920506 153.251004 
L 271.174269 324.55979 
L 271.428032 233.300558 
L 271.681795 263.63442 
L 271.935559 128.419189 
L 272.189322 126.935247 
L 272.443085 110.631064 
L 272.696848 243.027165 
L 273.204375 333.767498 
L 273.458138 92.667656 
L 273.965665 215.563392 
L 274.219428 188.207853 
L 274.473191 145.669018 
L 274.726954 66.96 
L 274.980718 137.857111 
L 275.234481 176.785853 
L 275.488244 137.857111 
L 275.742007 66.96 
L 275.995771 145.669018 
L 276.503297 215.563392 
L 277.010824 92.667656 
L 277.264587 333.767498 
L 277.51835 300.040222 
L 277.772113 243.027165 
L 278.025877 110.631064 
L 278.27964 126.935247 
L 278.533403 128.419189 
L 278.787166 263.63442 
L 279.04093 233.300558 
L 279.294693 324.55979 
L 279.548456 153.251004 
L 279.802219 328.795961 
L 280.055983 369.36 
L 280.309746 303.839677 
L 280.563509 369.36 
L 280.817272 328.795961 
L 281.071036 153.251004 
L 281.324799 324.55979 
L 281.578562 233.300558 
L 281.832325 263.63442 
L 282.086088 128.419189 
L 282.339852 126.935247 
L 282.593615 110.631064 
L 282.847378 243.027165 
L 283.354905 333.767498 
L 283.608668 92.667656 
L 284.116194 215.563392 
L 284.369958 188.207853 
L 284.623721 145.669018 
L 284.877484 66.96 
L 285.131247 137.857111 
L 285.385011 176.785853 
L 285.638774 137.857111 
L 285.892537 66.96 
L 286.1463 145.669018 
L 286.653827 215.563392 
L 287.161353 92.667656 
L 287.415117 333.767498 
L 287.66888 300.040222 
L 287.922643 243.027165 
L 288.176406 110.631064 
L 288.43017 126.935247 
L 288.683933 128.419189 
L 288.937696 263.63442 
L 289.191459 233.300558 
L 289.445223 324.55979 
L 289.698986 153.251004 
L 289.952749 328.795961 
L 290.206512 369.36 
L 290.460276 303.839677 
L 290.714039 369.36 
L 290.967802 328.795961 
L 291.221565 153.251004 
L 291.475329 324.55979 
L 291.729092 233.300558 
L 291.982855 263.63442 
L 292.236618 128.419189 
L 292.490382 126.935247 
L 292.744145 110.631064 
L 292.997908 243.027165 
L 293.505435 333.767498 
L 293.759198 92.667656 
L 294.266724 215.563392 
L 294.520488 188.207853 
L 294.774251 145.669018 
L 295.028014 66.96 
L 295.281777 137.857111 
L 295.53554 176.785853 
L 295.789304 137.857111 
L 296.043067 66.96 
L 296.29683 145.669018 
L 296.804357 215.563392 
L 297.311883 92.667656 
L 297.565646 333.767498 
L 297.81941 300.040222 
L 298.073173 243.027165 
L 298.326936 110.631064 
L 298.580699 126.935247 
L 298.834463 128.419189 
L 299.088226 263.63442 
L 299.341989 233.300558 
L 299.595752 324.55979 
L 299.849516 153.251004 
L 300.103279 328.795961 
L 300.357042 369.36 
L 300.610805 303.839677 
L 300.864569 369.36 
L 301.118332 328.795961 
L 301.372095 153.251004 
L 301.625858 324.55979 
L 301.879622 233.300558 
L 302.133385 263.63442 
L 302.387148 128.419189 
L 302.640911 126.935247 
L 302.894675 110.631064 
L 303.148438 243.027165 
L 303.655964 333.767498 
L 303.909728 92.667656 
L 304.417254 215.563392 
L 304.671017 188.207853 
L 304.924781 145.669018 
L 305.178544 66.96 
L 305.432307 137.857111 
L 305.68607 176.785853 
L 305.939834 137.857111 
L 306.193597 66.96 
L 306.44736 145.669018 
L 306.954887 215.563392 
L 307.462413 92.667656 
L 307.716176 333.767498 
L 307.96994 300.040222 
L 308.223703 243.027165 
L 308.477466 110.631064 
L 308.731229 126.935247 
L 308.984992 128.419189 
L 309.238756 263.63442 
L 309.492519 233.300558 
L 309.746282 324.55979 
L 310.000045 153.251004 
L 310.253809 328.795961 
L 310.507572 369.36 
L 310.761335 303.839677 
L 311.015098 369.36 
L 311.268862 328.795961 
L 311.522625 153.251004 
L 311.776388 324.55979 
L 312.030151 233.300558 
L 312.283915 263.63442 
L 312.537678 128.419189 
L 312.791441 126.935247 
L 313.045204 110.631064 
L 313.298968 243.027165 
L 313.806494 333.767498 
L 314.060257 92.667656 
L 314.567784 215.563392 
L 314.821547 188.207853 
L 315.07531 145.669018 
L 315.329074 66.96 
L 315.582837 137.857111 
L 315.8366 176.785853 
L 316.090363 137.857111 
L 316.344127 66.96 
L 316.59789 145.669018 
L 317.105416 215.563392 
L 317.612943 92.667656 
L 317.866706 333.767498 
L 318.120469 300.040222 
L 318.374233 243.027165 
L 318.627996 110.631064 
L 318.881759 126.935247 
L 319.135522 128.419189 
L 319.389286 263.63442 
L 319.643049 233.300558 
L 319.896812 324.55979 
L 320.150575 153.251004 
L 320.404339 328.795961 
L 320.658102 369.36 
L 320.911865 303.839677 
L 321.165628 369.36 
L 321.419392 328.795961 
L 321.673155 153.251004 
L 321.926918 324.55979 
L 322.180681 233.300558 
L 322.434444 263.63442 
L 322.688208 128.419189 
L 322.941971 126.935247 
L 323.195734 110.631064 
L 323.449497 243.027165 
L 323.957024 333.767498 
L 324.210787 92.667656 
L 324.718314 215.563392 
L 324.972077 188.207853 
L 325.22584 145.669018 
L 325.479603 66.96 
L 325.733367 137.857111 
L 325.98713 176.785853 
L 326.240893 137.857111 
L 326.494656 66.96 
L 326.74842 145.669018 
L 327.255946 215.563392 
L 327.763473 92.667656 
L 328.017236 333.767498 
L 328.270999 300.040222 
L 328.524762 243.027165 
L 328.778526 110.631064 
L 329.032289 126.935247 
L 329.286052 128.419189 
L 329.539815 263.63442 
L 329.793579 233.300558 
L 330.047342 324.55979 
L 330.301105 153.251004 
L 330.554868 328.795961 
L 330.808632 369.36 
L 331.062395 303.839677 
L 331.316158 369.36 
L 331.569921 328.795961 
L 331.823685 153.251004 
L 332.077448 324.55979 
L 332.331211 233.300558 
L 332.584974 263.63442 
L 332.838738 128.419189 
L 333.092501 126.935247 
L 333.346264 110.631064 
L 333.600027 243.027165 
L 334.107554 333.767498 
L 334.361317 92.667656 
L 334.868844 215.563392 
L 335.122607 188.207853 
L 335.37637 145.669018 
L 335.630133 66.96 
L 335.883896 137.857111 
L 336.13766 176.785853 
L 336.391423 137.857111 
L 336.645186 66.96 
L 336.898949 145.669018 
L 337.406476 215.563392 
L 337.914002 92.667656 
L 338.167766 333.767498 
L 338.421529 300.040222 
L 338.675292 243.027165 
L 338.929055 110.631064 
L 339.182819 126.935247 
L 339.436582 128.419189 
L 339.690345 263.63442 
L 339.944108 233.300558 
L 340.197872 324.55979 
L 340.451635 153.251004 
L 340.705398 328.795961 
L 340.959161 369.36 
L 341.212925 303.839677 
L 341.466688 369.36 
L 341.720451 328.795961 
L 341.974214 153.251004 
L 342.227978 324.55979 
L 342.481741 233.300558 
L 342.735504 263.63442 
L 342.989267 128.419189 
L 343.243031 126.935247 
L 343.496794 110.631064 
L 343.750557 243.027165 
L 344.258084 333.767498 
L 344.511847 92.667656 
L 345.019373 215.563392 
L 345.273137 188.207853 
L 345.5269 145.669018 
L 345.780663 66.96 
L 346.034426 137.857111 
L 346.28819 176.785853 
L 346.541953 137.857111 
L 346.795716 66.96 
L 347.049479 145.669018 
L 347.557006 215.563392 
L 348.064532 92.667656 
L 348.318296 333.767498 
L 348.572059 300.040222 
L 348.825822 243.027165 
L 349.079585 110.631064 
L 349.333348 126.935247 
L 349.587112 128.419189 
L 349.840875 263.63442 
L 350.094638 233.300558 
L 350.348401 324.55979 
L 350.602165 153.251004 
L 350.855928 328.795961 
L 351.109691 369.36 
L 351.363454 303.839677 
L 351.617218 369.36 
L 351.870981 328.795961 
L 352.124744 153.251004 
L 352.378507 324.55979 
L 352.632271 233.300558 
L 352.886034 263.63442 
L 353.139797 128.419189 
L 353.39356 126.935247 
L 353.647324 110.631064 
L 353.901087 243.027165 
L 354.408613 333.767498 
L 354.662377 92.667656 
L 355.169903 215.563392 
L 355.423666 188.207853 
L 355.67743 145.669018 
L 355.931193 66.96 
L 356.184956 137.857111 
L 356.438719 176.785853 
L 356.692483 137.857111 
L 356.946246 66.96 
L 357.200009 145.669018 
L 357.707536 215.563392 
L 358.215062 92.667656 
L 358.468825 333.767498 
L 358.722589 300.040222 
L 358.976352 243.027165 
L 359.230115 110.631064 
L 359.483878 126.935247 
L 359.737642 128.419189 
L 359.991405 263.63442 
L 360.245168 233.300558 
L 360.498931 324.55979 
L 360.752695 153.251004 
L 361.006458 328.795961 
L 361.260221 369.36 
L 361.513984 303.839677 
L 361.767748 369.36 
L 362.021511 328.795961 
L 362.275274 153.251004 
L 362.529037 324.55979 
L 362.7828 233.300558 
L 363.036564 263.63442 
L 363.290327 128.419189 
L 363.54409 126.935247 
L 363.797853 110.631064 
L 364.051617 243.027165 
L 364.559143 333.767498 
L 364.812906 92.667656 
L 365.320433 215.563392 
L 365.574196 188.207853 
L 365.827959 145.669018 
L 366.081723 66.96 
L 366.335486 137.857111 
L 366.589249 176.785853 
L 366.843012 137.857111 
L 367.096776 66.96 
L 367.350539 145.669018 
L 367.858065 215.563392 
L 368.365592 92.667656 
L 368.619355 333.767498 
L 368.873118 300.040222 
L 369.126882 243.027165 
L 369.380645 110.631064 
L 369.634408 126.935247 
L 369.888171 128.419189 
L 370.141935 263.63442 
L 370.395698 233.300558 
L 370.649461 324.55979 
L 370.903224 153.251004 
L 371.156988 328.795961 
L 371.410751 369.36 
L 371.664514 303.839677 
L 371.918277 369.36 
L 372.172041 328.795961 
L 372.425804 153.251004 
L 372.679567 324.55979 
L 372.93333 233.300558 
L 373.187094 263.63442 
L 373.440857 128.419189 
L 373.69462 126.935247 
L 373.948383 110.631064 
L 374.202147 243.027165 
L 374.709673 333.767498 
L 374.963436 92.667656 
L 375.470963 215.563392 
L 375.724726 188.207853 
L 375.978489 145.669018 
L 376.232252 66.96 
L 376.486016 137.857111 
L 376.739779 176.785853 
L 376.993542 137.857111 
L 377.247305 66.96 
L 377.501069 145.669018 
L 378.008595 215.563392 
L 378.516122 92.667656 
L 378.769885 333.767498 
L 379.023648 300.040222 
L 379.277411 243.027165 
L 379.531175 110.631064 
L 379.784938 126.935247 
L 380.038701 128.419189 
L 380.292464 263.63442 
L 380.546228 233.300558 
L 380.799991 324.55979 
L 381.053754 153.251004 
L 381.307517 328.795961 
L 381.561281 369.36 
L 381.815044 303.839677 
L 382.068807 369.36 
L 382.32257 328.795961 
L 382.576334 153.251004 
L 382.830097 324.55979 
L 383.08386 233.300558 
L 383.337623 263.63442 
L 383.591387 128.419189 
L 383.84515 126.935247 
L 384.098913 110.631064 
L 384.352676 243.027165 
L 384.860203 333.767498 
L 385.113966 92.667656 
L 385.621493 215.563392 
L 385.875256 188.207853 
L 386.129019 145.669018 
L 386.382782 66.96 
L 386.636546 137.857111 
L 386.890309 176.785853 
L 387.144072 137.857111 
L 387.397835 66.96 
L 387.651599 145.669018 
L 388.159125 215.563392 
L 388.666652 92.667656 
L 388.920415 333.767498 
L 389.174178 300.040222 
L 389.427941 243.027165 
L 389.681704 110.631064 
L 389.935468 126.935247 
L 390.189231 128.419189 
L 390.442994 263.63442 
L 390.696757 233.300558 
L 390.950521 324.55979 
L 391.204284 153.251004 
L 391.458047 328.795961 
L 391.71181 369.36 
L 391.965574 303.839677 
L 392.219337 369.36 
L 392.4731 328.795961 
L 392.726863 153.251004 
L 392.980627 324.55979 
L 393.23439 233.300558 
L 393.488153 263.63442 
L 393.741916 128.419189 
L 393.99568 126.935247 
L 394.249443 110.631064 
L 394.503206 243.027165 
L 395.010733 333.767498 
L 395.264496 92.667656 
L 395.772022 215.563392 
L 396.025786 188.207853 
L 396.279549 145.669018 
L 396.533312 66.96 
L 396.787075 137.857111 
L 397.040839 176.785853 
L 397.294602 137.857111 
L 397.548365 66.96 
L 397.802128 145.669018 
L 398.309655 215.563392 
L 398.817181 92.667656 
L 399.070945 333.767498 
L 399.324708 300.040222 
L 399.578471 243.027165 
L 399.832234 110.631064 
L 400.085998 126.935247 
L 400.339761 128.419189 
L 400.593524 263.63442 
L 400.847287 233.300558 
L 401.101051 324.55979 
L 401.354814 153.251004 
L 401.608577 328.795961 
L 401.86234 369.36 
L 402.116104 303.839677 
L 402.369867 369.36 
L 402.62363 328.795961 
L 402.877393 153.251004 
L 403.131156 324.55979 
L 403.38492 233.300558 
L 403.638683 263.63442 
L 403.892446 128.419189 
L 404.146209 126.935247 
L 404.399973 110.631064 
L 404.653736 243.027165 
L 405.161262 333.767498 
L 405.415026 92.667656 
L 405.922552 215.563392 
L 406.176315 188.207853 
L 406.430079 145.669018 
L 406.683842 66.96 
L 406.937605 137.857111 
L 407.191368 176.785853 
L 407.445132 137.857111 
L 407.698895 66.96 
L 407.952658 145.669018 
L 408.460185 215.563392 
L 408.967711 92.667656 
L 409.221474 333.767498 
L 409.475238 300.040222 
L 409.729001 243.027165 
L 409.982764 110.631064 
L 410.236527 126.935247 
L 410.490291 128.419189 
L 410.744054 263.63442 
L 410.997817 233.300558 
L 411.25158 324.55979 
L 411.505344 153.251004 
L 411.759107 328.795961 
L 412.01287 369.36 
L 412.266633 303.839677 
L 412.520397 369.36 
L 412.77416 328.795961 
L 413.027923 153.251004 
L 413.281686 324.55979 
L 413.53545 233.300558 
L 413.789213 263.63442 
L 414.042976 128.419189 
L 414.296739 126.935247 
L 414.550503 110.631064 
L 414.804266 243.027165 
L 415.311792 333.767498 
L 415.565556 92.667656 
L 416.073082 215.563392 
L 416.326845 188.207853 
L 416.580608 145.669018 
L 416.834372 66.96 
L 417.088135 137.857111 
L 417.341898 176.785853 
L 417.595661 137.857111 
L 417.849425 66.96 
L 418.103188 145.669018 
L 418.610714 215.563392 
L 419.118241 92.667656 
L 419.372004 333.767498 
L 419.625767 300.040222 
L 419.879531 243.027165 
L 420.133294 110.631064 
L 420.387057 126.935247 
L 420.64082 128.419189 
L 420.894584 263.63442 
L 421.148347 233.300558 
L 421.40211 324.55979 
L 421.655873 153.251004 
L 421.909637 328.795961 
L 422.1634 369.36 
L 422.417163 303.839677 
L 422.670926 369.36 
L 422.92469 328.795961 
L 423.178453 153.251004 
L 423.432216 324.55979 
L 423.685979 233.300558 
L 423.939743 263.63442 
L 424.193506 128.419189 
L 424.447269 126.935247 
L 424.701032 110.631064 
L 424.954796 243.027165 
L 425.462322 333.767498 
L 425.716085 92.667656 
L 426.223612 215.563392 
L 426.477375 188.207853 
L 426.731138 145.669018 
L 426.984902 66.96 
L 427.238665 137.857111 
L 427.492428 176.785853 
L 427.746191 137.857111 
L 427.999955 66.96 
L 428.253718 145.669018 
L 428.761244 215.563392 
L 429.268771 92.667656 
L 429.522534 333.767498 
L 429.776297 300.040222 
L 430.03006 243.027165 
L 430.283824 110.631064 
L 430.537587 126.935247 
L 430.79135 128.419189 
L 431.045113 263.63442 
L 431.298877 233.300558 
L 431.55264 324.55979 
L 431.806403 153.251004 
L 432.060166 328.795961 
L 432.31393 369.36 
L 432.567693 303.839677 
L 432.821456 369.36 
L 433.075219 328.795961 
L 433.328983 153.251004 
L 433.582746 324.55979 
L 433.836509 233.300558 
L 434.090272 263.63442 
L 434.344036 128.419189 
L 434.597799 126.935247 
L 434.851562 110.631064 
L 435.105325 243.027165 
L 435.612852 333.767498 
L 435.866615 92.667656 
L 436.374142 215.563392 
L 436.627905 188.207853 
L 436.881668 145.669018 
L 437.135431 66.96 
L 437.389195 137.857111 
L 437.642958 176.785853 
L 437.896721 137.857111 
L 438.150484 66.96 
L 438.404248 145.669018 
L 438.911774 215.563392 
L 439.419301 92.667656 
L 439.673064 333.767498 
L 439.926827 300.040222 
L 440.18059 243.027165 
L 440.434354 110.631064 
L 440.688117 126.935247 
L 440.94188 128.419189 
L 441.195643 263.63442 
L 441.449407 233.300558 
L 441.70317 324.55979 
L 441.956933 153.251004 
L 442.210696 328.795961 
L 442.46446 369.36 
L 442.718223 303.839677 
L 442.971986 369.36 
L 443.225749 328.795961 
L 443.479512 153.251004 
L 443.733276 324.55979 
L 443.987039 233.300558 
L 444.240802 263.63442 
L 444.494565 128.419189 
L 444.748329 126.935247 
L 445.002092 110.631064 
L 445.255855 243.027165 
L 445.763382 333.767498 
L 446.017145 92.667656 
L 446.524671 215.563392 
L 446.778435 188.207853 
L 447.032198 145.669018 
L 447.285961 66.96 
L 447.539724 137.857111 
L 447.793488 176.785853 
L 448.047251 137.857111 
L 448.301014 66.96 
L 448.554777 145.669018 
L 449.062304 215.563392 
L 449.56983 92.667656 
L 449.823594 333.767498 
L 450.077357 300.040222 
L 450.33112 243.027165 
L 450.584883 110.631064 
L 450.838647 126.935247 
L 451.09241 128.419189 
L 451.346173 263.63442 
L 451.599936 233.300558 
L 451.8537 324.55979 
L 452.107463 153.251004 
L 452.361226 328.795961 
L 452.614989 369.36 
L 452.868753 303.839677 
L 453.122516 369.36 
L 453.376279 328.795961 
L 453.630042 153.251004 
L 453.883806 324.55979 
L 454.137569 233.300558 
L 454.391332 263.63442 
L 454.645095 128.419189 
L 454.898859 126.935247 
L 455.152622 110.631064 
L 455.406385 243.027165 
L 455.913912 333.767498 
L 456.167675 92.667656 
L 456.675201 215.563392 
L 456.928964 188.207853 
L 457.182728 145.669018 
L 457.436491 66.96 
L 457.690254 137.857111 
L 457.944017 176.785853 
L 458.197781 137.857111 
L 458.451544 66.96 
L 458.705307 145.669018 
L 459.212834 215.563392 
L 459.72036 92.667656 
L 459.974123 333.767498 
L 460.227887 300.040222 
L 460.48165 243.027165 
L 460.735413 110.631064 
L 460.989176 126.935247 
L 461.24294 128.419189 
L 461.496703 263.63442 
L 461.750466 233.300558 
L 462.004229 324.55979 
L 462.257993 153.251004 
L 462.511756 328.795961 
L 462.765519 369.36 
L 463.019282 303.839677 
L 463.273046 369.36 
L 463.526809 328.795961 
L 463.780572 153.251004 
L 464.034335 324.55979 
L 464.288099 233.300558 
L 464.541862 263.63442 
L 464.795625 128.419189 
L 465.049388 126.935247 
L 465.303152 110.631064 
L 465.556915 243.027165 
L 466.064441 333.767498 
L 466.318205 92.667656 
L 466.825731 215.563392 
L 467.079494 188.207853 
L 467.333258 145.669018 
L 467.587021 66.96 
L 467.840784 137.857111 
L 468.094547 176.785853 
L 468.348311 137.857111 
L 468.602074 66.96 
L 468.855837 145.669018 
L 469.363363 215.563392 
L 469.87089 92.667656 
L 470.124653 333.767498 
L 470.378416 300.040222 
L 470.63218 243.027165 
L 470.885943 110.631064 
L 471.139706 126.935247 
L 471.393469 128.419189 
L 471.647233 263.63442 
L 471.900996 233.300558 
L 472.154759 324.55979 
L 472.408522 153.251004 
L 472.662286 328.795961 
L 472.916049 369.36 
L 473.169812 303.839677 
L 473.423575 369.36 
L 473.677339 328.795961 
L 473.931102 153.251004 
L 474.184865 324.55979 
L 474.438628 233.300558 
L 474.692392 263.63442 
L 474.946155 128.419189 
L 475.199918 126.935247 
L 475.453681 110.631064 
L 475.707445 243.027165 
L 476.214971 333.767498 
L 476.468734 92.667656 
L 476.976261 215.563392 
L 477.230024 188.207853 
L 477.483787 145.669018 
L 477.737551 66.96 
L 477.991314 137.857111 
L 478.245077 176.785853 
L 478.49884 137.857111 
L 478.752604 66.96 
L 479.006367 145.669018 
L 479.513893 215.563392 
L 480.02142 92.667656 
L 480.275183 333.767498 
L 480.528946 300.040222 
L 480.78271 243.027165 
L 481.036473 110.631064 
L 481.290236 126.935247 
L 481.543999 128.419189 
L 481.797763 263.63442 
L 482.051526 233.300558 
L 482.305289 324.55979 
L 482.559052 153.251004 
L 482.812815 328.795961 
L 483.066579 369.36 
L 483.320342 303.839677 
L 483.574105 369.36 
L 483.827868 328.795961 
L 484.081632 153.251004 
L 484.335395 324.55979 
L 484.589158 233.300558 
L 484.842921 263.63442 
L 485.096685 128.419189 
L 485.350448 126.935247 
L 485.604211 110.631064 
L 485.857974 243.027165 
L 486.365501 333.767498 
L 486.619264 92.667656 
L 487.126791 215.563392 
L 487.380554 188.207853 
L 487.634317 145.669018 
L 487.88808 66.96 
L 488.141844 137.857111 
L 488.395607 176.785853 
L 488.64937 137.857111 
L 488.903133 66.96 
L 489.156897 145.669018 
L 489.664423 215.563392 
L 490.17195 92.667656 
L 490.425713 333.767498 
L 490.679476 300.040222 
L 490.933239 243.027165 
L 491.187003 110.631064 
L 491.440766 126.935247 
L 491.694529 128.419189 
L 491.948292 263.63442 
L 492.202056 233.300558 
L 492.455819 324.55979 
L 492.709582 153.251004 
L 492.963345 328.795961 
L 493.217109 369.36 
L 493.470872 303.839677 
L 493.724635 369.36 
L 493.978398 328.795961 
L 494.232162 153.251004 
L 494.485925 324.55979 
L 494.739688 233.300558 
L 494.993451 263.63442 
L 495.247215 128.419189 
L 495.500978 126.935247 
L 495.754741 110.631064 
L 496.008504 243.027165 
L 496.516031 333.767498 
L 496.769794 92.667656 
L 497.27732 215.563392 
L 497.531084 188.207853 
L 497.784847 145.669018 
L 498.03861 66.96 
L 498.292373 137.857111 
L 498.546137 176.785853 
L 498.7999 137.857111 
L 499.053663 66.96 
L 499.307426 145.669018 
L 499.814953 215.563392 
L 500.322479 92.667656 
L 500.576243 333.767498 
L 500.830006 300.040222 
L 501.083769 243.027165 
L 501.337532 110.631064 
L 501.591296 126.935247 
L 501.845059 128.419189 
L 502.098822 263.63442 
L 502.352585 233.300558 
L 502.606349 324.55979 
L 502.860112 153.251004 
L 503.113875 328.795961 
L 503.367638 369.36 
L 503.621402 303.839677 
L 503.875165 369.36 
L 504.128928 328.795961 
L 504.382691 153.251004 
L 504.636455 324.55979 
L 504.890218 233.300558 
L 505.143981 263.63442 
L 505.397744 128.419189 
L 505.651508 126.935247 
L 505.905271 110.631064 
L 506.159034 243.027165 
L 506.666561 333.767498 
L 506.920324 92.667656 
L 507.42785 215.563392 
L 507.681614 188.207853 
L 507.935377 145.669018 
L 508.18914 66.96 
L 508.442903 137.857111 
L 508.696667 176.785853 
L 508.95043 137.857111 
L 509.204193 66.96 
L 509.457956 145.669018 
L 509.965483 215.563392 
L 510.473009 92.667656 
L 510.726772 333.767498 
L 510.980536 300.040222 
L 511.234299 243.027165 
L 511.488062 110.631064 
L 511.741825 126.935247 
L 511.995589 128.419189 
L 512.249352 263.63442 
L 512.503115 233.300558 
L 512.756878 324.55979 
L 513.010642 153.251004 
L 513.264405 328.795961 
L 513.518168 369.36 
L 513.771931 303.839677 
L 514.025695 369.36 
L 514.279458 328.795961 
L 514.533221 153.251004 
L 514.786984 324.55979 
L 515.040748 233.300558 
L 515.294511 263.63442 
L 515.548274 128.419189 
L 515.802037 126.935247 
L 516.055801 110.631064 
L 516.309564 243.027165 
L 516.81709 333.767498 
L 517.070854 92.667656 
L 517.57838 215.563392 
L 517.832143 188.207853 
L 518.085907 145.669018 
L 518.33967 66.96 
L 518.593433 137.857111 
L 518.847196 176.785853 
L 519.10096 137.857111 
L 519.354723 66.96 
L 519.608486 145.669018 
L 520.116013 215.563392 
L 520.623539 92.667656 
L 520.877302 333.767498 
L 521.131066 300.040222 
L 521.384829 243.027165 
L 521.638592 110.631064 
L 521.892355 126.935247 
L 522.146119 128.419189 
L 522.399882 263.63442 
L 522.653645 233.300558 
L 522.907408 324.55979 
L 523.161171 153.251004 
L 523.414935 328.795961 
L 523.668698 369.36 
L 523.922461 303.839677 
L 524.176224 369.36 
L 524.429988 328.795961 
L 524.683751 153.251004 
L 524.937514 324.55979 
L 525.191277 233.300558 
L 525.445041 263.63442 
L 525.698804 128.419189 
L 525.952567 126.935247 
L 526.20633 110.631064 
L 526.460094 243.027165 
L 526.96762 333.767498 
L 527.221383 92.667656 
L 527.72891 215.563392 
L 527.982673 188.207853 
L 528.236436 145.669018 
L 528.4902 66.96 
L 528.743963 137.857111 
L 528.997726 176.785853 
L 529.251489 137.857111 
L 529.505253 66.96 
L 529.759016 145.669018 
L 530.266542 215.563392 
L 530.774069 92.667656 
L 531.027832 333.767498 
L 531.281595 300.040222 
L 531.535359 243.027165 
L 531.789122 110.631064 
L 532.042885 126.935247 
L 532.296648 128.419189 
L 532.550412 263.63442 
L 532.804175 233.300558 
L 533.057938 324.55979 
L 533.311701 153.251004 
L 533.565465 328.795961 
L 533.819228 369.36 
L 534.072991 303.839677 
L 534.326754 369.36 
L 534.580518 328.795961 
L 534.834281 153.251004 
L 535.088044 324.55979 
L 535.341807 233.300558 
L 535.595571 263.63442 
L 535.849334 128.419189 
L 536.103097 126.935247 
L 536.35686 110.631064 
L 536.610623 243.027165 
L 537.11815 333.767498 
L 537.371913 92.667656 
L 537.87944 215.563392 
L 538.133203 188.207853 
L 538.386966 145.669018 
L 538.640729 66.96 
L 538.894493 137.857111 
L 539.148256 176.785853 
L 539.402019 137.857111 
L 539.655782 66.96 
L 539.909546 145.669018 
L 540.417072 215.563392 
L 540.924599 92.667656 
L 541.178362 333.767498 
L 541.432125 300.040222 
L 541.685888 243.027165 
L 541.939652 110.631064 
L 542.193415 126.935247 
L 542.447178 128.419189 
L 542.700941 263.63442 
L 542.954705 233.300558 
L 543.208468 324.55979 
L 543.462231 153.251004 
L 543.715994 328.795961 
L 543.969758 369.36 
L 544.223521 303.839677 
L 544.477284 369.36 
L 544.731047 328.795961 
L 544.984811 153.251004 
L 545.238574 324.55979 
L 545.492337 233.300558 
L 545.7461 263.63442 
L 545.999864 128.419189 
L 546.253627 126.935247 
L 546.50739 110.631064 
L 546.761153 243.027165 
L 547.26868 333.767498 
L 547.522443 92.667656 
L 548.02997 215.563392 
L 548.283733 188.207853 
L 548.537496 145.669018 
L 548.791259 66.96 
L 549.045023 137.857111 
L 549.298786 176.785853 
L 549.552549 137.857111 
L 549.806312 66.96 
L 550.060075 145.669018 
L 550.567602 215.563392 
L 551.075128 92.667656 
L 551.328892 333.767498 
L 551.582655 300.040222 
L 551.836418 243.027165 
L 552.090181 110.631064 
L 552.343945 126.935247 
L 552.597708 128.419189 
L 552.851471 263.63442 
L 553.105234 233.300558 
L 553.358998 324.55979 
L 553.612761 153.251004 
L 553.866524 328.795961 
L 554.120287 369.36 
L 554.374051 303.839677 
L 554.627814 369.36 
L 554.881577 328.795961 
L 555.13534 153.251004 
L 555.389104 324.55979 
L 555.642867 233.300558 
L 555.89663 263.63442 
L 556.150393 128.419189 
L 556.404157 126.935247 
L 556.65792 110.631064 
L 556.911683 243.027165 
L 557.41921 333.767498 
L 557.672973 92.667656 
L 558.180499 215.563392 
L 558.434263 188.207853 
L 558.688026 145.669018 
L 558.941789 66.96 
L 559.195552 137.857111 
L 559.449316 176.785853 
L 559.703079 137.857111 
L 559.956842 66.96 
L 560.210605 145.669018 
L 560.718132 215.563392 
L 561.225658 92.667656 
L 561.479422 333.767498 
L 561.733185 300.040222 
L 561.986948 243.027165 
L 562.240711 110.631064 
L 562.494475 126.935247 
L 562.748238 128.419189 
L 563.002001 263.63442 
L 563.255764 233.300558 
L 563.509527 324.55979 
L 563.763291 153.251004 
L 564.017054 328.795961 
L 564.270817 369.36 
L 564.52458 303.839677 
L 564.778344 369.36 
L 565.032107 328.795961 
L 565.28587 153.251004 
L 565.539633 324.55979 
L 565.793397 233.300558 
L 566.04716 263.63442 
L 566.300923 128.419189 
L 566.554686 126.935247 
L 566.80845 110.631064 
L 567.062213 243.027165 
L 567.569739 333.767498 
L 567.823503 92.667656 
L 568.331029 215.563392 
L 568.584792 188.207853 
L 568.838556 145.669018 
L 569.092319 66.96 
L 569.346082 137.857111 
L 569.599845 176.785853 
L 569.853609 137.857111 
L 570.107372 66.96 
L 570.361135 145.669018 
L 570.868662 215.563392 
L 571.376188 92.667656 
L 571.629951 333.767498 
L 571.883715 300.040222 
L 572.137478 243.027165 
L 572.391241 110.631064 
L 572.645004 126.935247 
L 572.898768 128.419189 
L 573.152531 263.63442 
L 573.406294 233.300558 
L 573.660057 324.55979 
L 573.913821 153.251004 
L 574.167584 328.795961 
L 574.421347 369.36 
L 574.67511 303.839677 
L 574.928874 369.36 
L 575.182637 328.795961 
L 575.4364 153.251004 
L 575.690163 324.55979 
L 575.943927 233.300558 
L 576.19769 263.63442 
L 576.451453 128.419189 
L 576.705216 126.935247 
L 576.958979 110.631064 
L 577.212743 243.027165 
L 577.720269 333.767498 
L 577.974032 92.667656 
L 578.481559 215.563392 
L 578.735322 188.207853 
L 578.989085 145.669018 
L 579.242849 66.96 
L 579.496612 137.857111 
L 579.750375 176.785853 
L 580.004138 137.857111 
L 580.257902 66.96 
L 580.511665 145.669018 
L 581.019191 215.563392 
L 581.526718 92.667656 
L 581.780481 333.767498 
L 582.034244 300.040222 
L 582.288008 243.027165 
L 582.541771 110.631064 
L 582.795534 126.935247 
L 583.049297 128.419189 
L 583.303061 263.63442 
L 583.556824 233.300558 
L 583.810587 324.55979 
L 584.06435 153.251004 
L 584.318114 328.795961 
L 584.571877 369.36 
L 584.82564 303.839677 
L 585.079403 369.36 
L 585.333167 328.795961 
L 585.58693 153.251004 
L 585.840693 324.55979 
L 586.094456 233.300558 
L 586.34822 263.63442 
L 586.601983 128.419189 
L 586.855746 126.935247 
L 587.109509 110.631064 
L 587.363273 243.027165 
L 587.870799 333.767498 
L 588.124562 92.667656 
L 588.632089 215.563392 
L 588.885852 188.207853 
L 589.139615 145.669018 
L 589.393379 66.96 
L 589.647142 137.857111 
L 589.900905 176.785853 
L 590.154668 137.857111 
L 590.408431 66.96 
L 590.662195 145.669018 
L 591.169721 215.563392 
L 591.677248 92.667656 
L 591.931011 333.767498 
L 592.184774 300.040222 
L 592.438537 243.027165 
L 592.692301 110.631064 
L 592.946064 126.935247 
L 593.199827 128.419189 
L 593.45359 263.63442 
L 593.707354 233.300558 
L 593.961117 324.55979 
L 594.21488 153.251004 
L 594.468643 328.795961 
L 594.722407 369.36 
L 594.97617 303.839677 
L 595.229933 369.36 
L 595.483696 328.795961 
L 595.73746 153.251004 
L 595.991223 324.55979 
L 596.244986 233.300558 
L 596.498749 263.63442 
L 596.752513 128.419189 
L 597.006276 126.935247 
L 597.260039 110.631064 
L 597.513802 243.027165 
L 598.021329 333.767498 
L 598.275092 92.667656 
L 598.782619 215.563392 
L 599.036382 188.207853 
L 599.290145 145.669018 
L 599.543908 66.96 
L 599.797672 137.857111 
L 600.051435 176.785853 
L 600.305198 137.857111 
L 600.558961 66.96 
L 600.812725 145.669018 
L 601.320251 215.563392 
L 601.827778 92.667656 
L 602.081541 333.767498 
L 602.335304 300.040222 
L 602.589067 243.027165 
L 602.842831 110.631064 
L 603.096594 126.935247 
L 603.350357 128.419189 
L 603.60412 263.63442 
L 603.857883 233.300558 
L 604.111647 324.55979 
L 604.36541 153.251004 
L 604.619173 328.795961 
L 604.872936 369.36 
L 605.1267 303.839677 
L 605.380463 369.36 
L 605.634226 328.795961 
L 605.887989 153.251004 
L 606.141753 324.55979 
L 606.395516 233.300558 
L 606.649279 263.63442 
L 606.903042 128.419189 
L 607.156806 126.935247 
L 607.410569 110.631064 
L 607.664332 243.027165 
L 608.171859 333.767498 
L 608.425622 92.667656 
L 608.933148 215.563392 
L 609.186912 188.207853 
L 609.440675 145.669018 
L 609.694438 66.96 
L 609.948201 137.857111 
L 610.201965 176.785853 
L 610.455728 137.857111 
L 610.709491 66.96 
L 610.963254 145.669018 
L 611.470781 215.563392 
L 611.978307 92.667656 
L 612.232071 333.767498 
L 612.485834 300.040222 
L 612.739597 243.027165 
L 612.99336 110.631064 
L 613.247124 126.935247 
L 613.500887 128.419189 
L 613.75465 263.63442 
L 614.008413 233.300558 
L 614.262177 324.55979 
L 614.51594 153.251004 
L 614.769703 328.795961 
L 615.023466 369.36 
L 615.27723 303.839677 
L 615.530993 369.36 
L 615.784756 328.795961 
L 616.038519 153.251004 
L 616.292283 324.55979 
L 616.546046 233.300558 
L 616.799809 263.63442 
L 617.053572 128.419189 
L 617.307335 126.935247 
L 617.561099 110.631064 
L 617.814862 243.027165 
L 618.322388 333.767498 
L 618.576152 92.667656 
L 619.083678 215.563392 
L 619.337441 188.207853 
L 619.591205 145.669018 
L 619.844968 66.96 
L 620.098731 137.857111 
L 620.352494 176.785853 
L 620.606258 137.857111 
L 620.860021 66.96 
L 621.113784 145.669018 
L 621.621311 215.563392 
L 622.128837 92.667656 
L 622.3826 333.767498 
L 622.636364 300.040222 
L 622.636364 300.040222 
" clip-path="url(#pe3686091bc)" style="fill: none; stroke: #d62728; stroke-width: 1.5; stroke-linecap: square"/>
   </g>
   <g id="patch_3">
    <path d="M 90 384.48 
L 90 51.84 
" style="fill: none; stroke: #000000; stroke-width: 0.8; stroke-linejoin: miter; stroke-linecap: square"/>
   </g>
   <g id="patch_4">
    <path d="M 648 384.48 
L 648 51.84 
" style="fill: none; stroke: #000000; stroke-width: 0.8; stroke-linejoin: miter; stroke-linecap: square"/>
   </g>
   <g id="patch_5">
    <path d="M 90 384.48 
L 648 384.48 
" style="fill: none; stroke: #000000; stroke-width: 0.8; stroke-linejoin: miter; stroke-linecap: square"/>
   </g>
   <g id="patch_6">
    <path d="M 90 51.84 
L 648 51.84 
" style="fill: none; stroke: #000000; stroke-width: 0.8; stroke-linejoin: miter; stroke-linecap: square"/>
   </g>
   <g id="text_17">
    <!-- Simulated Output Power -->
    <g transform="translate(295.888125 45.84) scale(0.12 -0.12)">
     <defs>
      <path id="DejaVuSans-53" d="M 3425 4513 
L 3425 3897 
Q 3066 4069 2747 4153 
Q 2428 4238 2131 4238 
Q 1616 4238 1336 4038 
Q 1056 3838 1056 3469 
Q 1056 3159 1242 3001 
Q 1428 2844 1947 2747 
L 2328 2669 
Q 3034 2534 3370 2195 
Q 3706 1856 3706 1288 
Q 3706 609 3251 259 
Q 2797 -91 1919 -91 
Q 1588 -91 1214 -16 
Q 841 59 441 206 
L 441 856 
Q 825 641 1194 531 
Q 1563 422 1919 422 
Q 2459 422 2753 634 
Q 3047 847 3047 1241 
Q 3047 1584 2836 1778 
Q 2625 1972 2144 2069 
L 1759 2144 
Q 1053 2284 737 2584 
Q 422 2884 422 3419 
Q 422 4038 858 4394 
Q 1294 4750 2059 4750 
Q 2388 4750 2728 4690 
Q 3069 4631 3425 4513 
z
" transform="scale(0.015625)"/>
      <path id="DejaVuSans-6c" d="M 603 4863 
L 1178 4863 
L 1178 0 
L 603 0 
L 603 4863 
z
" transform="scale(0.015625)"/>
      <path id="DejaVuSans-64" d="M 2906 2969 
L 2906 4863 
L 3481 4863 
L 3481 0 
L 2906 0 
L 2906 525 
Q 2725 213 2448 61 
Q 2172 -91 1784 -91 
Q 1150 -91 751 415 
Q 353 922 353 1747 
Q 353 2572 751 3078 
Q 1150 3584 1784 3584 
Q 2172 3584 2448 3432 
Q 2725 3281 2906 2969 
z
M 947 1747 
Q 947 1113 1208 752 
Q 1469 391 1925 391 
Q 2381 391 2643 752 
Q 2906 1113 2906 1747 
Q 2906 2381 2643 2742 
Q 2381 3103 1925 3103 
Q 1469 3103 1208 2742 
Q 947 2381 947 1747 
z
" transform="scale(0.015625)"/>
      <path id="DejaVuSans-4f" d="M 2522 4238 
Q 1834 4238 1429 3725 
Q 1025 3213 1025 2328 
Q 1025 1447 1429 934 
Q 1834 422 2522 422 
Q 3209 422 3611 934 
Q 4013 1447 4013 2328 
Q 4013 3213 3611 3725 
Q 3209 4238 2522 4238 
z
M 2522 4750 
Q 3503 4750 4090 4092 
Q 4678 3434 4678 2328 
Q 4678 1225 4090 567 
Q 3503 -91 2522 -91 
Q 1538 -91 948 565 
Q 359 1222 359 2328 
Q 359 3434 948 4092 
Q 1538 4750 2522 4750 
z
" transform="scale(0.015625)"/>
      <path id="DejaVuSans-70" d="M 1159 525 
L 1159 -1331 
L 581 -1331 
L 581 3500 
L 1159 3500 
L 1159 2969 
Q 1341 3281 1617 3432 
Q 1894 3584 2278 3584 
Q 2916 3584 3314 3078 
Q 3713 2572 3713 1747 
Q 3713 922 3314 415 
Q 2916 -91 2278 -91 
Q 1894 -91 1617 61 
Q 1341 213 1159 525 
z
M 3116 1747 
Q 3116 2381 2855 2742 
Q 2594 3103 2138 3103 
Q 1681 3103 1420 2742 
Q 1159 2381 1159 1747 
Q 1159 1113 1420 752 
Q 1681 391 2138 391 
Q 2594 391 2855 752 
Q 3116 1113 3116 1747 
z
" transform="scale(0.015625)"/>
     </defs>
     <use xlink:href="#DejaVuSans-53"/>
     <use xlink:href="#DejaVuSans-69" x="63.476562"/>
     <use xlink:href="#DejaVuSans-6d" x="91.259766"/>
     <use xlink:href="#DejaVuSans-75" x="188.671875"/>
     <use xlink:href="#DejaVuSans-6c" x="252.050781"/>
     <use xlink:href="#DejaVuSans-61" x="279.833984"/>
     <use xlink:href="#DejaVuSans-74" x="341.113281"/>
     <use xlink:href="#DejaVuSans-65" x="380.322266"/>
     <use xlink:href="#DejaVuSans-64" x="441.845703"/>
     <use xlink:href="#DejaVuSans-20" x="505.322266"/>
     <use xlink:href="#DejaVuSans-4f" x="537.109375"/>
     <use xlink:href="#DejaVuSans-75" x="615.820312"/>
     <use xlink:href="#DejaVuSans-74" x="679.199219"/>
     <use xlink:href="#DejaVuSans-70" x="718.408203"/>
     <use xlink:href="#DejaVuSans-75" x="781.884766"/>
     <use xlink:href="#DejaVuSans-74" x="845.263672"/>
     <use xlink:href="#DejaVuSans-20" x="884.472656"/>
     <use xlink:href="#DejaVuSans-50" x="916.259766"/>
     <use xlink:href="#DejaVuSans-6f" x="972.9375"/>
     <use xlink:href="#DejaVuSans-77" x="1034.119141"/>
     <use xlink:href="#DejaVuSans-65" x="1115.90625"/>
     <use xlink:href="#DejaVuSans-72" x="1177.429688"/>
    </g>
   </g>
  </g>
 </g>
 <defs>
  <clipPath id="pe3686091bc">
   <rect x="90" y="51.84" width="558" height="332.64"/>
  </clipPath>
 </defs>
</svg>
