<?xml version="1.0" encoding="utf-8" standalone="no"?>
<!DOCTYPE svg PUBLIC "-//W3C//DTD SVG 1.1//EN"
  "http://www.w3.org/Graphics/SVG/1.1/DTD/svg11.dtd">
<svg xmlns:xlink="http://www.w3.org/1999/xlink" width="864pt" height="504pt" viewBox="0 0 864 504" xmlns="http://www.w3.org/2000/svg" version="1.1">
 <metadata>
  <rdf:RDF xmlns:dc="http://purl.org/dc/elements/1.1/" xmlns:cc="http://creativecommons.org/ns#" xmlns:rdf="http://www.w3.org/1999/02/22-rdf-syntax-ns#">
   <cc:Work>
    <dc:type rdf:resource="http://purl.org/dc/dcmitype/StillImage"/>
    <dc:date>2025-08-08T15:51:39.818299</dc:date>
    <dc:format>image/svg+xml</dc:format>
    <dc:creator>
     <cc:Agent>
      <dc:title>Matplotlib v3.7.5, https://matplotlib.org/</dc:title>
     </cc:Agent>
    </dc:creator>
   </cc:Work>
  </rdf:RDF>
 </metadata>
 <defs>
  <style type="text/css">*{stroke-linejoin: round; stroke-linecap: butt}</style>
 </defs>
 <g id="figure_1">
  <g id="patch_1">
   <path d="M 0 504 
L 864 504 
L 864 0 
L 0 0 
z
" style="fill: #ffffff"/>
  </g>
  <g id="axes_1">
   <g id="patch_2">
    <path d="M 52.805 462.04 
L 809.215 462.04 
L 809.215 10.8 
L 52.805 10.8 
z
" style="fill: #ffffff"/>
   </g>
   <g id="matplotlib.axis_1">
    <g id="xtick_1">
     <g id="line2d_1">
      <path d="M 87.187273 462.04 
L 87.187273 10.8 
" clip-path="url(#p246aebdfcf)" style="fill: none; stroke-dasharray: 2.96,1.28; stroke-dashoffset: 0; stroke: #b0b0b0; stroke-width: 0.8"/>
     </g>
     <g id="line2d_2">
      <defs>
       <path id="mb5b4cd0e17" d="M 0 0 
L 0 3.5 
" style="stroke: #000000; stroke-width: 0.8"/>
      </defs>
      <g>
       <use xlink:href="#mb5b4cd0e17" x="87.187273" y="462.04" style="stroke: #000000; stroke-width: 0.8"/>
      </g>
     </g>
     <g id="text_1">
      <!-- 0 -->
      <g transform="translate(84.006023 476.638438) scale(0.1 -0.1)">
       <defs>
        <path id="DejaVuSans-30" d="M 2034 4250 
Q 1547 4250 1301 3770 
Q 1056 3291 1056 2328 
Q 1056 1369 1301 889 
Q 1547 409 2034 409 
Q 2525 409 2770 889 
Q 3016 1369 3016 2328 
Q 3016 3291 2770 3770 
Q 2525 4250 2034 4250 
z
M 2034 4750 
Q 2819 4750 3233 4129 
Q 3647 3509 3647 2328 
Q 3647 1150 3233 529 
Q 2819 -91 2034 -91 
Q 1250 -91 836 529 
Q 422 1150 422 2328 
Q 422 3509 836 4129 
Q 1250 4750 2034 4750 
z
" transform="scale(0.015625)"/>
       </defs>
       <use xlink:href="#DejaVuSans-30"/>
      </g>
     </g>
    </g>
    <g id="xtick_2">
     <g id="line2d_3">
      <path d="M 224.717051 462.04 
L 224.717051 10.8 
" clip-path="url(#p246aebdfcf)" style="fill: none; stroke-dasharray: 2.96,1.28; stroke-dashoffset: 0; stroke: #b0b0b0; stroke-width: 0.8"/>
     </g>
     <g id="line2d_4">
      <g>
       <use xlink:href="#mb5b4cd0e17" x="224.717051" y="462.04" style="stroke: #000000; stroke-width: 0.8"/>
      </g>
     </g>
     <g id="text_2">
      <!-- 2 -->
      <g transform="translate(221.535801 476.638438) scale(0.1 -0.1)">
       <defs>
        <path id="DejaVuSans-32" d="M 1228 531 
L 3431 531 
L 3431 0 
L 469 0 
L 469 531 
Q 828 903 1448 1529 
Q 2069 2156 2228 2338 
Q 2531 2678 2651 2914 
Q 2772 3150 2772 3378 
Q 2772 3750 2511 3984 
Q 2250 4219 1831 4219 
Q 1534 4219 1204 4116 
Q 875 4013 500 3803 
L 500 4441 
Q 881 4594 1212 4672 
Q 1544 4750 1819 4750 
Q 2544 4750 2975 4387 
Q 3406 4025 3406 3419 
Q 3406 3131 3298 2873 
Q 3191 2616 2906 2266 
Q 2828 2175 2409 1742 
Q 1991 1309 1228 531 
z
" transform="scale(0.015625)"/>
       </defs>
       <use xlink:href="#DejaVuSans-32"/>
      </g>
     </g>
    </g>
    <g id="xtick_3">
     <g id="line2d_5">
      <path d="M 362.24683 462.04 
L 362.24683 10.8 
" clip-path="url(#p246aebdfcf)" style="fill: none; stroke-dasharray: 2.96,1.28; stroke-dashoffset: 0; stroke: #b0b0b0; stroke-width: 0.8"/>
     </g>
     <g id="line2d_6">
      <g>
       <use xlink:href="#mb5b4cd0e17" x="362.24683" y="462.04" style="stroke: #000000; stroke-width: 0.8"/>
      </g>
     </g>
     <g id="text_3">
      <!-- 4 -->
      <g transform="translate(359.06558 476.638438) scale(0.1 -0.1)">
       <defs>
        <path id="DejaVuSans-34" d="M 2419 4116 
L 825 1625 
L 2419 1625 
L 2419 4116 
z
M 2253 4666 
L 3047 4666 
L 3047 1625 
L 3713 1625 
L 3713 1100 
L 3047 1100 
L 3047 0 
L 2419 0 
L 2419 1100 
L 313 1100 
L 313 1709 
L 2253 4666 
z
" transform="scale(0.015625)"/>
       </defs>
       <use xlink:href="#DejaVuSans-34"/>
      </g>
     </g>
    </g>
    <g id="xtick_4">
     <g id="line2d_7">
      <path d="M 499.776608 462.04 
L 499.776608 10.8 
" clip-path="url(#p246aebdfcf)" style="fill: none; stroke-dasharray: 2.96,1.28; stroke-dashoffset: 0; stroke: #b0b0b0; stroke-width: 0.8"/>
     </g>
     <g id="line2d_8">
      <g>
       <use xlink:href="#mb5b4cd0e17" x="499.776608" y="462.04" style="stroke: #000000; stroke-width: 0.8"/>
      </g>
     </g>
     <g id="text_4">
      <!-- 6 -->
      <g transform="translate(496.595358 476.638438) scale(0.1 -0.1)">
       <defs>
        <path id="DejaVuSans-36" d="M 2113 2584 
Q 1688 2584 1439 2293 
Q 1191 2003 1191 1497 
Q 1191 994 1439 701 
Q 1688 409 2113 409 
Q 2538 409 2786 701 
Q 3034 994 3034 1497 
Q 3034 2003 2786 2293 
Q 2538 2584 2113 2584 
z
M 3366 4563 
L 3366 3988 
Q 3128 4100 2886 4159 
Q 2644 4219 2406 4219 
Q 1781 4219 1451 3797 
Q 1122 3375 1075 2522 
Q 1259 2794 1537 2939 
Q 1816 3084 2150 3084 
Q 2853 3084 3261 2657 
Q 3669 2231 3669 1497 
Q 3669 778 3244 343 
Q 2819 -91 2113 -91 
Q 1303 -91 875 529 
Q 447 1150 447 2328 
Q 447 3434 972 4092 
Q 1497 4750 2381 4750 
Q 2619 4750 2861 4703 
Q 3103 4656 3366 4563 
z
" transform="scale(0.015625)"/>
       </defs>
       <use xlink:href="#DejaVuSans-36"/>
      </g>
     </g>
    </g>
    <g id="xtick_5">
     <g id="line2d_9">
      <path d="M 637.306387 462.04 
L 637.306387 10.8 
" clip-path="url(#p246aebdfcf)" style="fill: none; stroke-dasharray: 2.96,1.28; stroke-dashoffset: 0; stroke: #b0b0b0; stroke-width: 0.8"/>
     </g>
     <g id="line2d_10">
      <g>
       <use xlink:href="#mb5b4cd0e17" x="637.306387" y="462.04" style="stroke: #000000; stroke-width: 0.8"/>
      </g>
     </g>
     <g id="text_5">
      <!-- 8 -->
      <g transform="translate(634.125137 476.638438) scale(0.1 -0.1)">
       <defs>
        <path id="DejaVuSans-38" d="M 2034 2216 
Q 1584 2216 1326 1975 
Q 1069 1734 1069 1313 
Q 1069 891 1326 650 
Q 1584 409 2034 409 
Q 2484 409 2743 651 
Q 3003 894 3003 1313 
Q 3003 1734 2745 1975 
Q 2488 2216 2034 2216 
z
M 1403 2484 
Q 997 2584 770 2862 
Q 544 3141 544 3541 
Q 544 4100 942 4425 
Q 1341 4750 2034 4750 
Q 2731 4750 3128 4425 
Q 3525 4100 3525 3541 
Q 3525 3141 3298 2862 
Q 3072 2584 2669 2484 
Q 3125 2378 3379 2068 
Q 3634 1759 3634 1313 
Q 3634 634 3220 271 
Q 2806 -91 2034 -91 
Q 1263 -91 848 271 
Q 434 634 434 1313 
Q 434 1759 690 2068 
Q 947 2378 1403 2484 
z
M 1172 3481 
Q 1172 3119 1398 2916 
Q 1625 2713 2034 2713 
Q 2441 2713 2670 2916 
Q 2900 3119 2900 3481 
Q 2900 3844 2670 4047 
Q 2441 4250 2034 4250 
Q 1625 4250 1398 4047 
Q 1172 3844 1172 3481 
z
" transform="scale(0.015625)"/>
       </defs>
       <use xlink:href="#DejaVuSans-38"/>
      </g>
     </g>
    </g>
    <g id="xtick_6">
     <g id="line2d_11">
      <path d="M 774.836166 462.04 
L 774.836166 10.8 
" clip-path="url(#p246aebdfcf)" style="fill: none; stroke-dasharray: 2.96,1.28; stroke-dashoffset: 0; stroke: #b0b0b0; stroke-width: 0.8"/>
     </g>
     <g id="line2d_12">
      <g>
       <use xlink:href="#mb5b4cd0e17" x="774.836166" y="462.04" style="stroke: #000000; stroke-width: 0.8"/>
      </g>
     </g>
     <g id="text_6">
      <!-- 10 -->
      <g transform="translate(768.473666 476.638438) scale(0.1 -0.1)">
       <defs>
        <path id="DejaVuSans-31" d="M 794 531 
L 1825 531 
L 1825 4091 
L 703 3866 
L 703 4441 
L 1819 4666 
L 2450 4666 
L 2450 531 
L 3481 531 
L 3481 0 
L 794 0 
L 794 531 
z
" transform="scale(0.015625)"/>
       </defs>
       <use xlink:href="#DejaVuSans-31"/>
       <use xlink:href="#DejaVuSans-30" x="63.623047"/>
      </g>
     </g>
    </g>
    <g id="text_7">
     <!-- Time (s) -->
     <g transform="translate(410.681094 490.316563) scale(0.1 -0.1)">
      <defs>
       <path id="DejaVuSans-54" d="M -19 4666 
L 3928 4666 
L 3928 4134 
L 2272 4134 
L 2272 0 
L 1638 0 
L 1638 4134 
L -19 4134 
L -19 4666 
z
" transform="scale(0.015625)"/>
       <path id="DejaVuSans-69" d="M 603 3500 
L 1178 3500 
L 1178 0 
L 603 0 
L 603 3500 
z
M 603 4863 
L 1178 4863 
L 1178 4134 
L 603 4134 
L 603 4863 
z
" transform="scale(0.015625)"/>
       <path id="DejaVuSans-6d" d="M 3328 2828 
Q 3544 3216 3844 3400 
Q 4144 3584 4550 3584 
Q 5097 3584 5394 3201 
Q 5691 2819 5691 2113 
L 5691 0 
L 5113 0 
L 5113 2094 
Q 5113 2597 4934 2840 
Q 4756 3084 4391 3084 
Q 3944 3084 3684 2787 
Q 3425 2491 3425 1978 
L 3425 0 
L 2847 0 
L 2847 2094 
Q 2847 2600 2669 2842 
Q 2491 3084 2119 3084 
Q 1678 3084 1418 2786 
Q 1159 2488 1159 1978 
L 1159 0 
L 581 0 
L 581 3500 
L 1159 3500 
L 1159 2956 
Q 1356 3278 1631 3431 
Q 1906 3584 2284 3584 
Q 2666 3584 2933 3390 
Q 3200 3197 3328 2828 
z
" transform="scale(0.015625)"/>
       <path id="DejaVuSans-65" d="M 3597 1894 
L 3597 1613 
L 953 1613 
Q 991 1019 1311 708 
Q 1631 397 2203 397 
Q 2534 397 2845 478 
Q 3156 559 3463 722 
L 3463 178 
Q 3153 47 2828 -22 
Q 2503 -91 2169 -91 
Q 1331 -91 842 396 
Q 353 884 353 1716 
Q 353 2575 817 3079 
Q 1281 3584 2069 3584 
Q 2775 3584 3186 3129 
Q 3597 2675 3597 1894 
z
M 3022 2063 
Q 3016 2534 2758 2815 
Q 2500 3097 2075 3097 
Q 1594 3097 1305 2825 
Q 1016 2553 972 2059 
L 3022 2063 
z
" transform="scale(0.015625)"/>
       <path id="DejaVuSans-20" transform="scale(0.015625)"/>
       <path id="DejaVuSans-28" d="M 1984 4856 
Q 1566 4138 1362 3434 
Q 1159 2731 1159 2009 
Q 1159 1288 1364 580 
Q 1569 -128 1984 -844 
L 1484 -844 
Q 1016 -109 783 600 
Q 550 1309 550 2009 
Q 550 2706 781 3412 
Q 1013 4119 1484 4856 
L 1984 4856 
z
" transform="scale(0.015625)"/>
       <path id="DejaVuSans-73" d="M 2834 3397 
L 2834 2853 
Q 2591 2978 2328 3040 
Q 2066 3103 1784 3103 
Q 1356 3103 1142 2972 
Q 928 2841 928 2578 
Q 928 2378 1081 2264 
Q 1234 2150 1697 2047 
L 1894 2003 
Q 2506 1872 2764 1633 
Q 3022 1394 3022 966 
Q 3022 478 2636 193 
Q 2250 -91 1575 -91 
Q 1294 -91 989 -36 
Q 684 19 347 128 
L 347 722 
Q 666 556 975 473 
Q 1284 391 1588 391 
Q 1994 391 2212 530 
Q 2431 669 2431 922 
Q 2431 1156 2273 1281 
Q 2116 1406 1581 1522 
L 1381 1569 
Q 847 1681 609 1914 
Q 372 2147 372 2553 
Q 372 3047 722 3315 
Q 1072 3584 1716 3584 
Q 2034 3584 2315 3537 
Q 2597 3491 2834 3397 
z
" transform="scale(0.015625)"/>
       <path id="DejaVuSans-29" d="M 513 4856 
L 1013 4856 
Q 1481 4119 1714 3412 
Q 1947 2706 1947 2009 
Q 1947 1309 1714 600 
Q 1481 -109 1013 -844 
L 513 -844 
Q 928 -128 1133 580 
Q 1338 1288 1338 2009 
Q 1338 2731 1133 3434 
Q 928 4138 513 4856 
z
" transform="scale(0.015625)"/>
      </defs>
      <use xlink:href="#DejaVuSans-54"/>
      <use xlink:href="#DejaVuSans-69" x="57.958984"/>
      <use xlink:href="#DejaVuSans-6d" x="85.742188"/>
      <use xlink:href="#DejaVuSans-65" x="183.154297"/>
      <use xlink:href="#DejaVuSans-20" x="244.677734"/>
      <use xlink:href="#DejaVuSans-28" x="276.464844"/>
      <use xlink:href="#DejaVuSans-73" x="315.478516"/>
      <use xlink:href="#DejaVuSans-29" x="367.578125"/>
     </g>
    </g>
   </g>
   <g id="matplotlib.axis_2">
    <g id="ytick_1">
     <g id="line2d_13">
      <path d="M 52.805 441.529091 
L 809.215 441.529091 
" clip-path="url(#p246aebdfcf)" style="fill: none; stroke-dasharray: 2.96,1.28; stroke-dashoffset: 0; stroke: #b0b0b0; stroke-width: 0.8"/>
     </g>
     <g id="line2d_14">
      <defs>
       <path id="mfb9c9b7473" d="M 0 0 
L -3.5 0 
" style="stroke: #000000; stroke-width: 0.8"/>
      </defs>
      <g>
       <use xlink:href="#mfb9c9b7473" x="52.805" y="441.529091" style="stroke: #000000; stroke-width: 0.8"/>
      </g>
     </g>
     <g id="text_8">
      <!-- 450 -->
      <g style="fill: #1f77b4" transform="translate(26.7175 445.32831) scale(0.1 -0.1)">
       <defs>
        <path id="DejaVuSans-35" d="M 691 4666 
L 3169 4666 
L 3169 4134 
L 1269 4134 
L 1269 2991 
Q 1406 3038 1543 3061 
Q 1681 3084 1819 3084 
Q 2600 3084 3056 2656 
Q 3513 2228 3513 1497 
Q 3513 744 3044 326 
Q 2575 -91 1722 -91 
Q 1428 -91 1123 -41 
Q 819 9 494 109 
L 494 744 
Q 775 591 1075 516 
Q 1375 441 1709 441 
Q 2250 441 2565 725 
Q 2881 1009 2881 1497 
Q 2881 1984 2565 2268 
Q 2250 2553 1709 2553 
Q 1456 2553 1204 2497 
Q 953 2441 691 2322 
L 691 4666 
z
" transform="scale(0.015625)"/>
       </defs>
       <use xlink:href="#DejaVuSans-34"/>
       <use xlink:href="#DejaVuSans-35" x="63.623047"/>
       <use xlink:href="#DejaVuSans-30" x="127.246094"/>
      </g>
     </g>
    </g>
    <g id="ytick_2">
     <g id="line2d_15">
      <path d="M 52.805 390.251818 
L 809.215 390.251818 
" clip-path="url(#p246aebdfcf)" style="fill: none; stroke-dasharray: 2.96,1.28; stroke-dashoffset: 0; stroke: #b0b0b0; stroke-width: 0.8"/>
     </g>
     <g id="line2d_16">
      <g>
       <use xlink:href="#mfb9c9b7473" x="52.805" y="390.251818" style="stroke: #000000; stroke-width: 0.8"/>
      </g>
     </g>
     <g id="text_9">
      <!-- 455 -->
      <g style="fill: #1f77b4" transform="translate(26.7175 394.051037) scale(0.1 -0.1)">
       <use xlink:href="#DejaVuSans-34"/>
       <use xlink:href="#DejaVuSans-35" x="63.623047"/>
       <use xlink:href="#DejaVuSans-35" x="127.246094"/>
      </g>
     </g>
    </g>
    <g id="ytick_3">
     <g id="line2d_17">
      <path d="M 52.805 338.974545 
L 809.215 338.974545 
" clip-path="url(#p246aebdfcf)" style="fill: none; stroke-dasharray: 2.96,1.28; stroke-dashoffset: 0; stroke: #b0b0b0; stroke-width: 0.8"/>
     </g>
     <g id="line2d_18">
      <g>
       <use xlink:href="#mfb9c9b7473" x="52.805" y="338.974545" style="stroke: #000000; stroke-width: 0.8"/>
      </g>
     </g>
     <g id="text_10">
      <!-- 460 -->
      <g style="fill: #1f77b4" transform="translate(26.7175 342.773764) scale(0.1 -0.1)">
       <use xlink:href="#DejaVuSans-34"/>
       <use xlink:href="#DejaVuSans-36" x="63.623047"/>
       <use xlink:href="#DejaVuSans-30" x="127.246094"/>
      </g>
     </g>
    </g>
    <g id="ytick_4">
     <g id="line2d_19">
      <path d="M 52.805 287.697273 
L 809.215 287.697273 
" clip-path="url(#p246aebdfcf)" style="fill: none; stroke-dasharray: 2.96,1.28; stroke-dashoffset: 0; stroke: #b0b0b0; stroke-width: 0.8"/>
     </g>
     <g id="line2d_20">
      <g>
       <use xlink:href="#mfb9c9b7473" x="52.805" y="287.697273" style="stroke: #000000; stroke-width: 0.8"/>
      </g>
     </g>
     <g id="text_11">
      <!-- 465 -->
      <g style="fill: #1f77b4" transform="translate(26.7175 291.496491) scale(0.1 -0.1)">
       <use xlink:href="#DejaVuSans-34"/>
       <use xlink:href="#DejaVuSans-36" x="63.623047"/>
       <use xlink:href="#DejaVuSans-35" x="127.246094"/>
      </g>
     </g>
    </g>
    <g id="ytick_5">
     <g id="line2d_21">
      <path d="M 52.805 236.42 
L 809.215 236.42 
" clip-path="url(#p246aebdfcf)" style="fill: none; stroke-dasharray: 2.96,1.28; stroke-dashoffset: 0; stroke: #b0b0b0; stroke-width: 0.8"/>
     </g>
     <g id="line2d_22">
      <g>
       <use xlink:href="#mfb9c9b7473" x="52.805" y="236.42" style="stroke: #000000; stroke-width: 0.8"/>
      </g>
     </g>
     <g id="text_12">
      <!-- 470 -->
      <g style="fill: #1f77b4" transform="translate(26.7175 240.219219) scale(0.1 -0.1)">
       <defs>
        <path id="DejaVuSans-37" d="M 525 4666 
L 3525 4666 
L 3525 4397 
L 1831 0 
L 1172 0 
L 2766 4134 
L 525 4134 
L 525 4666 
z
" transform="scale(0.015625)"/>
       </defs>
       <use xlink:href="#DejaVuSans-34"/>
       <use xlink:href="#DejaVuSans-37" x="63.623047"/>
       <use xlink:href="#DejaVuSans-30" x="127.246094"/>
      </g>
     </g>
    </g>
    <g id="ytick_6">
     <g id="line2d_23">
      <path d="M 52.805 185.142727 
L 809.215 185.142727 
" clip-path="url(#p246aebdfcf)" style="fill: none; stroke-dasharray: 2.96,1.28; stroke-dashoffset: 0; stroke: #b0b0b0; stroke-width: 0.8"/>
     </g>
     <g id="line2d_24">
      <g>
       <use xlink:href="#mfb9c9b7473" x="52.805" y="185.142727" style="stroke: #000000; stroke-width: 0.8"/>
      </g>
     </g>
     <g id="text_13">
      <!-- 475 -->
      <g style="fill: #1f77b4" transform="translate(26.7175 188.941946) scale(0.1 -0.1)">
       <use xlink:href="#DejaVuSans-34"/>
       <use xlink:href="#DejaVuSans-37" x="63.623047"/>
       <use xlink:href="#DejaVuSans-35" x="127.246094"/>
      </g>
     </g>
    </g>
    <g id="ytick_7">
     <g id="line2d_25">
      <path d="M 52.805 133.865455 
L 809.215 133.865455 
" clip-path="url(#p246aebdfcf)" style="fill: none; stroke-dasharray: 2.96,1.28; stroke-dashoffset: 0; stroke: #b0b0b0; stroke-width: 0.8"/>
     </g>
     <g id="line2d_26">
      <g>
       <use xlink:href="#mfb9c9b7473" x="52.805" y="133.865455" style="stroke: #000000; stroke-width: 0.8"/>
      </g>
     </g>
     <g id="text_14">
      <!-- 480 -->
      <g style="fill: #1f77b4" transform="translate(26.7175 137.664673) scale(0.1 -0.1)">
       <use xlink:href="#DejaVuSans-34"/>
       <use xlink:href="#DejaVuSans-38" x="63.623047"/>
       <use xlink:href="#DejaVuSans-30" x="127.246094"/>
      </g>
     </g>
    </g>
    <g id="ytick_8">
     <g id="line2d_27">
      <path d="M 52.805 82.588182 
L 809.215 82.588182 
" clip-path="url(#p246aebdfcf)" style="fill: none; stroke-dasharray: 2.96,1.28; stroke-dashoffset: 0; stroke: #b0b0b0; stroke-width: 0.8"/>
     </g>
     <g id="line2d_28">
      <g>
       <use xlink:href="#mfb9c9b7473" x="52.805" y="82.588182" style="stroke: #000000; stroke-width: 0.8"/>
      </g>
     </g>
     <g id="text_15">
      <!-- 485 -->
      <g style="fill: #1f77b4" transform="translate(26.7175 86.387401) scale(0.1 -0.1)">
       <use xlink:href="#DejaVuSans-34"/>
       <use xlink:href="#DejaVuSans-38" x="63.623047"/>
       <use xlink:href="#DejaVuSans-35" x="127.246094"/>
      </g>
     </g>
    </g>
    <g id="ytick_9">
     <g id="line2d_29">
      <path d="M 52.805 31.310909 
L 809.215 31.310909 
" clip-path="url(#p246aebdfcf)" style="fill: none; stroke-dasharray: 2.96,1.28; stroke-dashoffset: 0; stroke: #b0b0b0; stroke-width: 0.8"/>
     </g>
     <g id="line2d_30">
      <g>
       <use xlink:href="#mfb9c9b7473" x="52.805" y="31.310909" style="stroke: #000000; stroke-width: 0.8"/>
      </g>
     </g>
     <g id="text_16">
      <!-- 490 -->
      <g style="fill: #1f77b4" transform="translate(26.7175 35.110128) scale(0.1 -0.1)">
       <defs>
        <path id="DejaVuSans-39" d="M 703 97 
L 703 672 
Q 941 559 1184 500 
Q 1428 441 1663 441 
Q 2288 441 2617 861 
Q 2947 1281 2994 2138 
Q 2813 1869 2534 1725 
Q 2256 1581 1919 1581 
Q 1219 1581 811 2004 
Q 403 2428 403 3163 
Q 403 3881 828 4315 
Q 1253 4750 1959 4750 
Q 2769 4750 3195 4129 
Q 3622 3509 3622 2328 
Q 3622 1225 3098 567 
Q 2575 -91 1691 -91 
Q 1453 -91 1209 -44 
Q 966 3 703 97 
z
M 1959 2075 
Q 2384 2075 2632 2365 
Q 2881 2656 2881 3163 
Q 2881 3666 2632 3958 
Q 2384 4250 1959 4250 
Q 1534 4250 1286 3958 
Q 1038 3666 1038 3163 
Q 1038 2656 1286 2365 
Q 1534 2075 1959 2075 
z
" transform="scale(0.015625)"/>
       </defs>
       <use xlink:href="#DejaVuSans-34"/>
       <use xlink:href="#DejaVuSans-39" x="63.623047"/>
       <use xlink:href="#DejaVuSans-30" x="127.246094"/>
      </g>
     </g>
    </g>
    <g id="text_17">
     <!-- Displacement (µm) -->
     <g style="fill: #1f77b4" transform="translate(20.221875 293.917813) rotate(-90) scale(0.12 -0.12)">
      <defs>
       <path id="DejaVuSans-44" d="M 1259 4147 
L 1259 519 
L 2022 519 
Q 2988 519 3436 956 
Q 3884 1394 3884 2338 
Q 3884 3275 3436 3711 
Q 2988 4147 2022 4147 
L 1259 4147 
z
M 628 4666 
L 1925 4666 
Q 3281 4666 3915 4102 
Q 4550 3538 4550 2338 
Q 4550 1131 3912 565 
Q 3275 0 1925 0 
L 628 0 
L 628 4666 
z
" transform="scale(0.015625)"/>
       <path id="DejaVuSans-70" d="M 1159 525 
L 1159 -1331 
L 581 -1331 
L 581 3500 
L 1159 3500 
L 1159 2969 
Q 1341 3281 1617 3432 
Q 1894 3584 2278 3584 
Q 2916 3584 3314 3078 
Q 3713 2572 3713 1747 
Q 3713 922 3314 415 
Q 2916 -91 2278 -91 
Q 1894 -91 1617 61 
Q 1341 213 1159 525 
z
M 3116 1747 
Q 3116 2381 2855 2742 
Q 2594 3103 2138 3103 
Q 1681 3103 1420 2742 
Q 1159 2381 1159 1747 
Q 1159 1113 1420 752 
Q 1681 391 2138 391 
Q 2594 391 2855 752 
Q 3116 1113 3116 1747 
z
" transform="scale(0.015625)"/>
       <path id="DejaVuSans-6c" d="M 603 4863 
L 1178 4863 
L 1178 0 
L 603 0 
L 603 4863 
z
" transform="scale(0.015625)"/>
       <path id="DejaVuSans-61" d="M 2194 1759 
Q 1497 1759 1228 1600 
Q 959 1441 959 1056 
Q 959 750 1161 570 
Q 1363 391 1709 391 
Q 2188 391 2477 730 
Q 2766 1069 2766 1631 
L 2766 1759 
L 2194 1759 
z
M 3341 1997 
L 3341 0 
L 2766 0 
L 2766 531 
Q 2569 213 2275 61 
Q 1981 -91 1556 -91 
Q 1019 -91 701 211 
Q 384 513 384 1019 
Q 384 1609 779 1909 
Q 1175 2209 1959 2209 
L 2766 2209 
L 2766 2266 
Q 2766 2663 2505 2880 
Q 2244 3097 1772 3097 
Q 1472 3097 1187 3025 
Q 903 2953 641 2809 
L 641 3341 
Q 956 3463 1253 3523 
Q 1550 3584 1831 3584 
Q 2591 3584 2966 3190 
Q 3341 2797 3341 1997 
z
" transform="scale(0.015625)"/>
       <path id="DejaVuSans-63" d="M 3122 3366 
L 3122 2828 
Q 2878 2963 2633 3030 
Q 2388 3097 2138 3097 
Q 1578 3097 1268 2742 
Q 959 2388 959 1747 
Q 959 1106 1268 751 
Q 1578 397 2138 397 
Q 2388 397 2633 464 
Q 2878 531 3122 666 
L 3122 134 
Q 2881 22 2623 -34 
Q 2366 -91 2075 -91 
Q 1284 -91 818 406 
Q 353 903 353 1747 
Q 353 2603 823 3093 
Q 1294 3584 2113 3584 
Q 2378 3584 2631 3529 
Q 2884 3475 3122 3366 
z
" transform="scale(0.015625)"/>
       <path id="DejaVuSans-6e" d="M 3513 2113 
L 3513 0 
L 2938 0 
L 2938 2094 
Q 2938 2591 2744 2837 
Q 2550 3084 2163 3084 
Q 1697 3084 1428 2787 
Q 1159 2491 1159 1978 
L 1159 0 
L 581 0 
L 581 3500 
L 1159 3500 
L 1159 2956 
Q 1366 3272 1645 3428 
Q 1925 3584 2291 3584 
Q 2894 3584 3203 3211 
Q 3513 2838 3513 2113 
z
" transform="scale(0.015625)"/>
       <path id="DejaVuSans-74" d="M 1172 4494 
L 1172 3500 
L 2356 3500 
L 2356 3053 
L 1172 3053 
L 1172 1153 
Q 1172 725 1289 603 
Q 1406 481 1766 481 
L 2356 481 
L 2356 0 
L 1766 0 
Q 1100 0 847 248 
Q 594 497 594 1153 
L 594 3053 
L 172 3053 
L 172 3500 
L 594 3500 
L 594 4494 
L 1172 4494 
z
" transform="scale(0.015625)"/>
       <path id="DejaVuSans-b5" d="M 544 -1331 
L 544 3500 
L 1119 3500 
L 1119 1325 
Q 1119 872 1334 640 
Q 1550 409 1972 409 
Q 2434 409 2667 671 
Q 2900 934 2900 1459 
L 2900 3500 
L 3475 3500 
L 3475 806 
Q 3475 619 3529 530 
Q 3584 441 3700 441 
Q 3728 441 3778 458 
Q 3828 475 3916 513 
L 3916 50 
Q 3788 -22 3673 -56 
Q 3559 -91 3450 -91 
Q 3234 -91 3106 31 
Q 2978 153 2931 403 
Q 2775 156 2548 32 
Q 2322 -91 2016 -91 
Q 1697 -91 1473 31 
Q 1250 153 1119 397 
L 1119 -1331 
L 544 -1331 
z
" transform="scale(0.015625)"/>
      </defs>
      <use xlink:href="#DejaVuSans-44"/>
      <use xlink:href="#DejaVuSans-69" x="77.001953"/>
      <use xlink:href="#DejaVuSans-73" x="104.785156"/>
      <use xlink:href="#DejaVuSans-70" x="156.884766"/>
      <use xlink:href="#DejaVuSans-6c" x="220.361328"/>
      <use xlink:href="#DejaVuSans-61" x="248.144531"/>
      <use xlink:href="#DejaVuSans-63" x="309.423828"/>
      <use xlink:href="#DejaVuSans-65" x="364.404297"/>
      <use xlink:href="#DejaVuSans-6d" x="425.927734"/>
      <use xlink:href="#DejaVuSans-65" x="523.339844"/>
      <use xlink:href="#DejaVuSans-6e" x="584.863281"/>
      <use xlink:href="#DejaVuSans-74" x="648.242188"/>
      <use xlink:href="#DejaVuSans-20" x="687.451172"/>
      <use xlink:href="#DejaVuSans-28" x="719.238281"/>
      <use xlink:href="#DejaVuSans-b5" x="758.251953"/>
      <use xlink:href="#DejaVuSans-6d" x="821.875"/>
      <use xlink:href="#DejaVuSans-29" x="919.287109"/>
     </g>
    </g>
   </g>
   <g id="line2d_31">
    <path d="M 87.187273 441.527558 
L 95.157123 441.409213 
L 97.560456 441.15714 
L 99.162678 440.774216 
L 100.414199 440.250881 
L 101.476617 439.56603 
L 102.432449 438.681856 
L 103.32983 437.541265 
L 104.196268 436.069854 
L 105.055829 434.154882 
L 105.91539 431.675653 
L 106.785266 428.462142 
L 107.675771 424.283834 
L 108.586906 418.897105 
L 109.525547 411.962342 
L 110.49857 403.051692 
L 111.516291 391.594301 
L 112.585585 376.9307 
L 113.720205 358.180428 
L 114.94422 334.107666 
L 116.298889 302.882849 
L 117.887358 260.833729 
L 120.166914 193.827352 
L 122.972521 112.634057 
L 124.340942 79.354004 
L 125.406798 58.471172 
L 126.276674 45.454927 
L 126.991829 37.787831 
L 127.572892 33.702835 
L 128.023302 31.901863 
L 128.346497 31.354812 
L 128.559668 31.336323 
L 128.765963 31.577537 
L 129.041023 32.294604 
L 129.408915 33.955617 
L 129.876516 37.21017 
L 130.450703 42.911064 
L 131.145228 52.201354 
L 131.980722 66.58284 
L 132.995004 88.151839 
L 134.277469 120.513742 
L 136.185695 174.992374 
L 139.58268 271.992821 
L 141.167711 310.576533 
L 142.518941 338.303687 
L 143.729203 358.789802 
L 144.839756 374.002934 
L 145.867791 385.187421 
L 146.823623 393.28266 
L 147.707252 398.977815 
L 148.518677 402.849998 
L 149.2579 405.366422 
L 149.918043 406.884286 
L 150.499106 407.707862 
L 151.004528 408.070062 
L 151.461815 408.137752 
L 151.922539 407.975945 
L 152.438276 407.543034 
L 153.046845 406.720633 
L 153.779192 405.330127 
L 154.659382 403.14998 
L 155.714923 399.906166 
L 156.980197 395.258259 
L 158.489586 388.823258 
L 160.294665 380.106535 
L 162.491703 368.343592 
L 165.421087 351.348443 
L 172.032831 312.605638 
L 174.119846 301.931084 
L 175.821777 294.327851 
L 177.279592 288.783813 
L 178.548305 284.787765 
L 179.662296 281.972294 
L 180.642196 280.063268 
L 181.505195 278.838765 
L 182.265047 278.123255 
L 182.942381 277.775688 
L 183.564703 277.699127 
L 184.173273 277.84946 
L 184.809348 278.243921 
L 185.503873 278.949592 
L 186.277478 280.069012 
L 187.150792 281.745889 
L 188.13413 284.14157 
L 189.244683 287.463105 
L 190.503081 291.962936 
L 191.940267 297.966178 
L 193.61813 305.977425 
L 195.657009 316.859588 
L 198.45574 333.117322 
L 205.263464 373.086236 
L 207.714932 385.900006 
L 209.850082 395.91654 
L 211.803005 404.043867 
L 213.628713 410.719395 
L 215.365026 416.250419 
L 217.036013 420.850782 
L 218.655426 424.674425 
L 220.237019 427.852975 
L 221.794543 430.496221 
L 223.345192 432.698627 
L 224.902716 434.53083 
L 226.484309 436.052909 
L 228.117475 437.318853 
L 229.833159 438.368371 
L 231.676058 439.233978 
L 233.708061 439.939508 
L 236.018561 440.501311 
L 238.76228 440.932122 
L 242.22803 441.240186 
L 247.096585 441.432346 
L 255.809096 441.5181 
L 297.649093 441.529091 
L 370.058521 441.41815 
L 372.527181 441.172497 
L 374.15347 440.796236 
L 375.415306 440.2813 
L 376.4846 439.605757 
L 377.44387 438.733781 
L 378.341252 437.611507 
L 379.211128 436.156141 
L 380.070689 434.267342 
L 380.93025 431.820448 
L 381.800126 428.646807 
L 382.687193 424.53548 
L 383.598328 419.212988 
L 384.536969 412.355669 
L 385.509992 403.537438 
L 386.524274 392.231496 
L 387.59013 377.754617 
L 388.721312 359.229504 
L 389.938451 335.493615 
L 391.286243 304.662701 
L 392.85752 263.332189 
L 395.057997 198.902294 
L 398.045831 112.270314 
L 399.410814 79.128555 
L 400.473232 58.353318 
L 401.343108 45.367779 
L 402.058262 37.728066 
L 402.635888 33.684535 
L 403.086298 31.892757 
L 403.409493 31.352354 
L 403.622664 31.338256 
L 403.828958 31.583714 
L 404.107456 32.318303 
L 404.475348 33.994258 
L 404.94295 37.267446 
L 405.520575 43.030215 
L 406.218538 52.410634 
L 407.054032 66.846742 
L 408.071752 88.551572 
L 409.361094 121.163672 
L 411.289949 176.312086 
L 414.628484 271.632636 
L 416.216953 310.34572 
L 417.568183 338.111299 
L 418.781884 358.685048 
L 419.892437 373.918968 
L 420.920472 385.121394 
L 421.876304 393.231845 
L 422.759932 398.939659 
L 423.571358 402.82224 
L 424.310581 405.347127 
L 424.970724 406.871769 
L 425.551787 407.700736 
L 426.057209 408.067213 
L 426.514495 408.138465 
L 426.97522 407.979968 
L 427.487519 407.554153 
L 428.096088 406.737201 
L 428.824996 405.359968 
L 429.701748 403.197408 
L 430.753851 399.975466 
L 432.015687 395.353508 
L 433.521638 388.948084 
L 435.323278 380.263968 
L 437.513439 368.554732 
L 440.422194 351.696752 
L 447.140524 312.345616 
L 449.217224 301.750319 
L 450.915716 294.186204 
L 452.366655 288.688689 
L 453.631929 284.719914 
L 454.745921 281.918937 
L 455.72582 280.023257 
L 456.585381 278.814826 
L 457.341795 278.111038 
L 458.015691 277.77148 
L 458.638013 277.700066 
L 459.246583 277.855427 
L 459.882658 278.255118 
L 460.577183 278.966442 
L 461.354227 280.097829 
L 462.227541 281.783213 
L 463.210879 284.1881 
L 464.321431 287.519448 
L 465.579829 292.029508 
L 467.020453 298.058493 
L 468.701755 306.099211 
L 470.74751 317.032471 
L 473.563433 333.404749 
L 480.278324 372.841135 
L 482.736669 385.712463 
L 484.875257 395.764423 
L 486.82818 403.909582 
L 488.657326 410.613661 
L 490.397078 416.168869 
L 492.068064 420.780572 
L 493.687477 424.614432 
L 495.26907 427.802103 
L 496.826595 430.453439 
L 498.377243 432.662997 
L 499.934768 434.501488 
L 501.51636 436.02907 
L 503.149526 437.299827 
L 504.86521 438.353538 
L 506.704671 439.221375 
L 508.733235 439.929396 
L 511.036859 440.493099 
L 513.770263 440.925841 
L 517.218823 441.23587 
L 522.052994 441.429988 
L 530.645167 441.517429 
L 570.415341 441.529091 
L 645.118078 441.41815 
L 647.586738 441.172497 
L 649.213028 440.796236 
L 650.474863 440.2813 
L 651.544157 439.605757 
L 652.503427 438.733781 
L 653.400809 437.611507 
L 654.270685 436.156141 
L 655.130246 434.267342 
L 655.989807 431.820448 
L 656.859683 428.646807 
L 657.74675 424.53548 
L 658.657885 419.212988 
L 659.596526 412.355669 
L 660.569549 403.537438 
L 661.583831 392.231496 
L 662.649687 377.754617 
L 663.780869 359.229504 
L 664.998008 335.493615 
L 666.3458 304.662701 
L 667.917077 263.332189 
L 670.117554 198.902294 
L 673.105388 112.270314 
L 674.470371 79.128555 
L 675.532789 58.353318 
L 676.402665 45.367779 
L 677.11782 37.728066 
L 677.695445 33.684535 
L 678.145855 31.892757 
L 678.46905 31.352354 
L 678.682221 31.338256 
L 678.888516 31.583714 
L 679.167013 32.318303 
L 679.534905 33.994258 
L 680.002507 37.267446 
L 680.580132 43.030215 
L 681.278095 52.410634 
L 682.113589 66.846742 
L 683.131309 88.551572 
L 684.420651 121.163672 
L 686.349506 176.312086 
L 689.688041 271.632636 
L 691.27651 310.34572 
L 692.62774 338.111299 
L 693.841441 358.685048 
L 694.951994 373.918968 
L 695.980029 385.121394 
L 696.935861 393.231845 
L 697.81949 398.939659 
L 698.630915 402.82224 
L 699.370138 405.347127 
L 700.030281 406.871769 
L 700.611344 407.700736 
L 701.116766 408.067213 
L 701.574052 408.138465 
L 702.034777 407.979968 
L 702.547076 407.554153 
L 703.155645 406.737201 
L 703.884553 405.359968 
L 704.761305 403.197408 
L 705.813408 399.975466 
L 707.075244 395.353508 
L 708.581195 388.948084 
L 710.382835 380.263968 
L 712.572997 368.554732 
L 715.481751 351.696752 
L 722.200081 312.345616 
L 724.276781 301.750319 
L 725.975273 294.186204 
L 727.426213 288.688689 
L 728.691487 284.719914 
L 729.805478 281.918937 
L 730.785377 280.023257 
L 731.644939 278.814826 
L 732.401352 278.111038 
L 733.075248 277.77148 
L 733.697571 277.700066 
L 734.30614 277.855427 
L 734.942215 278.255118 
L 735.63674 278.966442 
L 736.413784 280.097829 
L 737.287098 281.783213 
L 738.270436 284.1881 
L 739.380989 287.519448 
L 740.639386 292.029508 
L 742.080011 298.058493 
L 743.761312 306.099211 
L 745.807068 317.032471 
L 748.62299 333.404749 
L 755.337881 372.841135 
L 757.796226 385.712463 
L 759.934814 395.764423 
L 761.887737 403.909582 
L 763.716883 410.613661 
L 765.456635 416.168869 
L 767.127621 420.780572 
L 768.747035 424.614432 
L 770.328627 427.802103 
L 771.886152 430.453439 
L 773.4368 432.662997 
L 774.832727 434.327005 
L 774.832727 434.327005 
" clip-path="url(#p246aebdfcf)" style="fill: none; stroke: #1f77b4; stroke-width: 1.5; stroke-linecap: square"/>
   </g>
   <g id="patch_3">
    <path d="M 52.805 462.04 
L 52.805 10.8 
" style="fill: none; stroke: #000000; stroke-width: 0.8; stroke-linejoin: miter; stroke-linecap: square"/>
   </g>
   <g id="patch_4">
    <path d="M 809.215 462.04 
L 809.215 10.8 
" style="fill: none; stroke: #000000; stroke-width: 0.8; stroke-linejoin: miter; stroke-linecap: square"/>
   </g>
   <g id="patch_5">
    <path d="M 52.805 462.04 
L 809.215 462.04 
" style="fill: none; stroke: #000000; stroke-width: 0.8; stroke-linejoin: miter; stroke-linecap: square"/>
   </g>
   <g id="patch_6">
    <path d="M 52.805 10.8 
L 809.215 10.8 
" style="fill: none; stroke: #000000; stroke-width: 0.8; stroke-linejoin: miter; stroke-linecap: square"/>
   </g>
  </g>
  <g id="axes_2">
   <g id="matplotlib.axis_3">
    <g id="ytick_10">
     <g id="line2d_32">
      <defs>
       <path id="m172cea38b2" d="M 0 0 
L 3.5 0 
" style="stroke: #000000; stroke-width: 0.8"/>
      </defs>
      <g>
       <use xlink:href="#m172cea38b2" x="809.215" y="439.502762" style="stroke: #000000; stroke-width: 0.8"/>
      </g>
     </g>
     <g id="text_18">
      <!-- −53 -->
      <g style="fill: #d62728" transform="translate(816.215 443.301981) scale(0.1 -0.1)">
       <defs>
        <path id="DejaVuSans-2212" d="M 678 2272 
L 4684 2272 
L 4684 1741 
L 678 1741 
L 678 2272 
z
" transform="scale(0.015625)"/>
        <path id="DejaVuSans-33" d="M 2597 2516 
Q 3050 2419 3304 2112 
Q 3559 1806 3559 1356 
Q 3559 666 3084 287 
Q 2609 -91 1734 -91 
Q 1441 -91 1130 -33 
Q 819 25 488 141 
L 488 750 
Q 750 597 1062 519 
Q 1375 441 1716 441 
Q 2309 441 2620 675 
Q 2931 909 2931 1356 
Q 2931 1769 2642 2001 
Q 2353 2234 1838 2234 
L 1294 2234 
L 1294 2753 
L 1863 2753 
Q 2328 2753 2575 2939 
Q 2822 3125 2822 3475 
Q 2822 3834 2567 4026 
Q 2313 4219 1838 4219 
Q 1578 4219 1281 4162 
Q 984 4106 628 3988 
L 628 4550 
Q 988 4650 1302 4700 
Q 1616 4750 1894 4750 
Q 2613 4750 3031 4423 
Q 3450 4097 3450 3541 
Q 3450 3153 3228 2886 
Q 3006 2619 2597 2516 
z
" transform="scale(0.015625)"/>
       </defs>
       <use xlink:href="#DejaVuSans-2212"/>
       <use xlink:href="#DejaVuSans-35" x="83.789062"/>
       <use xlink:href="#DejaVuSans-33" x="147.412109"/>
      </g>
     </g>
    </g>
    <g id="ytick_11">
     <g id="line2d_33">
      <g>
       <use xlink:href="#m172cea38b2" x="809.215" y="350.653415" style="stroke: #000000; stroke-width: 0.8"/>
      </g>
     </g>
     <g id="text_19">
      <!-- −52 -->
      <g style="fill: #d62728" transform="translate(816.215 354.452634) scale(0.1 -0.1)">
       <use xlink:href="#DejaVuSans-2212"/>
       <use xlink:href="#DejaVuSans-35" x="83.789062"/>
       <use xlink:href="#DejaVuSans-32" x="147.412109"/>
      </g>
     </g>
    </g>
    <g id="ytick_12">
     <g id="line2d_34">
      <g>
       <use xlink:href="#m172cea38b2" x="809.215" y="261.804068" style="stroke: #000000; stroke-width: 0.8"/>
      </g>
     </g>
     <g id="text_20">
      <!-- −51 -->
      <g style="fill: #d62728" transform="translate(816.215 265.603287) scale(0.1 -0.1)">
       <use xlink:href="#DejaVuSans-2212"/>
       <use xlink:href="#DejaVuSans-35" x="83.789062"/>
       <use xlink:href="#DejaVuSans-31" x="147.412109"/>
      </g>
     </g>
    </g>
    <g id="ytick_13">
     <g id="line2d_35">
      <g>
       <use xlink:href="#m172cea38b2" x="809.215" y="172.954721" style="stroke: #000000; stroke-width: 0.8"/>
      </g>
     </g>
     <g id="text_21">
      <!-- −50 -->
      <g style="fill: #d62728" transform="translate(816.215 176.75394) scale(0.1 -0.1)">
       <use xlink:href="#DejaVuSans-2212"/>
       <use xlink:href="#DejaVuSans-35" x="83.789062"/>
       <use xlink:href="#DejaVuSans-30" x="147.412109"/>
      </g>
     </g>
    </g>
    <g id="ytick_14">
     <g id="line2d_36">
      <g>
       <use xlink:href="#m172cea38b2" x="809.215" y="84.105374" style="stroke: #000000; stroke-width: 0.8"/>
      </g>
     </g>
     <g id="text_22">
      <!-- −49 -->
      <g style="fill: #d62728" transform="translate(816.215 87.904593) scale(0.1 -0.1)">
       <use xlink:href="#DejaVuSans-2212"/>
       <use xlink:href="#DejaVuSans-34" x="83.789062"/>
       <use xlink:href="#DejaVuSans-39" x="147.412109"/>
      </g>
     </g>
    </g>
    <g id="text_23">
     <!-- Output Power (arbitrary units) -->
     <g style="fill: #d62728" transform="translate(850.437813 326.683438) rotate(-90) scale(0.12 -0.12)">
      <defs>
       <path id="DejaVuSans-4f" d="M 2522 4238 
Q 1834 4238 1429 3725 
Q 1025 3213 1025 2328 
Q 1025 1447 1429 934 
Q 1834 422 2522 422 
Q 3209 422 3611 934 
Q 4013 1447 4013 2328 
Q 4013 3213 3611 3725 
Q 3209 4238 2522 4238 
z
M 2522 4750 
Q 3503 4750 4090 4092 
Q 4678 3434 4678 2328 
Q 4678 1225 4090 567 
Q 3503 -91 2522 -91 
Q 1538 -91 948 565 
Q 359 1222 359 2328 
Q 359 3434 948 4092 
Q 1538 4750 2522 4750 
z
" transform="scale(0.015625)"/>
       <path id="DejaVuSans-75" d="M 544 1381 
L 544 3500 
L 1119 3500 
L 1119 1403 
Q 1119 906 1312 657 
Q 1506 409 1894 409 
Q 2359 409 2629 706 
Q 2900 1003 2900 1516 
L 2900 3500 
L 3475 3500 
L 3475 0 
L 2900 0 
L 2900 538 
Q 2691 219 2414 64 
Q 2138 -91 1772 -91 
Q 1169 -91 856 284 
Q 544 659 544 1381 
z
M 1991 3584 
L 1991 3584 
z
" transform="scale(0.015625)"/>
       <path id="DejaVuSans-50" d="M 1259 4147 
L 1259 2394 
L 2053 2394 
Q 2494 2394 2734 2622 
Q 2975 2850 2975 3272 
Q 2975 3691 2734 3919 
Q 2494 4147 2053 4147 
L 1259 4147 
z
M 628 4666 
L 2053 4666 
Q 2838 4666 3239 4311 
Q 3641 3956 3641 3272 
Q 3641 2581 3239 2228 
Q 2838 1875 2053 1875 
L 1259 1875 
L 1259 0 
L 628 0 
L 628 4666 
z
" transform="scale(0.015625)"/>
       <path id="DejaVuSans-6f" d="M 1959 3097 
Q 1497 3097 1228 2736 
Q 959 2375 959 1747 
Q 959 1119 1226 758 
Q 1494 397 1959 397 
Q 2419 397 2687 759 
Q 2956 1122 2956 1747 
Q 2956 2369 2687 2733 
Q 2419 3097 1959 3097 
z
M 1959 3584 
Q 2709 3584 3137 3096 
Q 3566 2609 3566 1747 
Q 3566 888 3137 398 
Q 2709 -91 1959 -91 
Q 1206 -91 779 398 
Q 353 888 353 1747 
Q 353 2609 779 3096 
Q 1206 3584 1959 3584 
z
" transform="scale(0.015625)"/>
       <path id="DejaVuSans-77" d="M 269 3500 
L 844 3500 
L 1563 769 
L 2278 3500 
L 2956 3500 
L 3675 769 
L 4391 3500 
L 4966 3500 
L 4050 0 
L 3372 0 
L 2619 2869 
L 1863 0 
L 1184 0 
L 269 3500 
z
" transform="scale(0.015625)"/>
       <path id="DejaVuSans-72" d="M 2631 2963 
Q 2534 3019 2420 3045 
Q 2306 3072 2169 3072 
Q 1681 3072 1420 2755 
Q 1159 2438 1159 1844 
L 1159 0 
L 581 0 
L 581 3500 
L 1159 3500 
L 1159 2956 
Q 1341 3275 1631 3429 
Q 1922 3584 2338 3584 
Q 2397 3584 2469 3576 
Q 2541 3569 2628 3553 
L 2631 2963 
z
" transform="scale(0.015625)"/>
       <path id="DejaVuSans-62" d="M 3116 1747 
Q 3116 2381 2855 2742 
Q 2594 3103 2138 3103 
Q 1681 3103 1420 2742 
Q 1159 2381 1159 1747 
Q 1159 1113 1420 752 
Q 1681 391 2138 391 
Q 2594 391 2855 752 
Q 3116 1113 3116 1747 
z
M 1159 2969 
Q 1341 3281 1617 3432 
Q 1894 3584 2278 3584 
Q 2916 3584 3314 3078 
Q 3713 2572 3713 1747 
Q 3713 922 3314 415 
Q 2916 -91 2278 -91 
Q 1894 -91 1617 61 
Q 1341 213 1159 525 
L 1159 0 
L 581 0 
L 581 4863 
L 1159 4863 
L 1159 2969 
z
" transform="scale(0.015625)"/>
       <path id="DejaVuSans-79" d="M 2059 -325 
Q 1816 -950 1584 -1140 
Q 1353 -1331 966 -1331 
L 506 -1331 
L 506 -850 
L 844 -850 
Q 1081 -850 1212 -737 
Q 1344 -625 1503 -206 
L 1606 56 
L 191 3500 
L 800 3500 
L 1894 763 
L 2988 3500 
L 3597 3500 
L 2059 -325 
z
" transform="scale(0.015625)"/>
      </defs>
      <use xlink:href="#DejaVuSans-4f"/>
      <use xlink:href="#DejaVuSans-75" x="78.710938"/>
      <use xlink:href="#DejaVuSans-74" x="142.089844"/>
      <use xlink:href="#DejaVuSans-70" x="181.298828"/>
      <use xlink:href="#DejaVuSans-75" x="244.775391"/>
      <use xlink:href="#DejaVuSans-74" x="308.154297"/>
      <use xlink:href="#DejaVuSans-20" x="347.363281"/>
      <use xlink:href="#DejaVuSans-50" x="379.150391"/>
      <use xlink:href="#DejaVuSans-6f" x="435.828125"/>
      <use xlink:href="#DejaVuSans-77" x="497.009766"/>
      <use xlink:href="#DejaVuSans-65" x="578.796875"/>
      <use xlink:href="#DejaVuSans-72" x="640.320312"/>
      <use xlink:href="#DejaVuSans-20" x="681.433594"/>
      <use xlink:href="#DejaVuSans-28" x="713.220703"/>
      <use xlink:href="#DejaVuSans-61" x="752.234375"/>
      <use xlink:href="#DejaVuSans-72" x="813.513672"/>
      <use xlink:href="#DejaVuSans-62" x="854.626953"/>
      <use xlink:href="#DejaVuSans-69" x="918.103516"/>
      <use xlink:href="#DejaVuSans-74" x="945.886719"/>
      <use xlink:href="#DejaVuSans-72" x="985.095703"/>
      <use xlink:href="#DejaVuSans-61" x="1026.208984"/>
      <use xlink:href="#DejaVuSans-72" x="1087.488281"/>
      <use xlink:href="#DejaVuSans-79" x="1128.601562"/>
      <use xlink:href="#DejaVuSans-20" x="1187.78125"/>
      <use xlink:href="#DejaVuSans-75" x="1219.568359"/>
      <use xlink:href="#DejaVuSans-6e" x="1282.947266"/>
      <use xlink:href="#DejaVuSans-69" x="1346.326172"/>
      <use xlink:href="#DejaVuSans-74" x="1374.109375"/>
      <use xlink:href="#DejaVuSans-73" x="1413.318359"/>
      <use xlink:href="#DejaVuSans-29" x="1465.417969"/>
     </g>
    </g>
   </g>
   <g id="line2d_37">
    <path d="M 87.187273 401.811654 
L 92.59907 401.943998 
L 94.679207 402.207083 
L 96.085449 402.600626 
L 97.185688 403.135015 
L 98.124328 403.838038 
L 98.973575 404.756558 
L 99.774686 405.959997 
L 100.551729 407.542493 
L 101.321896 409.636353 
L 102.092062 412.401711 
L 102.869106 416.056032 
L 103.656464 420.872927 
L 103.897141 421.774878 
L 104.736072 423.998167 
L 105.581881 426.898112 
L 106.438003 430.660637 
L 107.778919 436.739934 
L 108.703807 440.399818 
L 108.95136 441.527207 
L 109.033878 441.35773 
L 110.030969 438.96634 
L 110.343849 438.44501 
L 111.162151 437.876451 
L 112.059533 393.383812 
L 113.568922 297.571601 
L 114.590081 254.321623 
L 115.071435 230.166492 
L 115.404945 227.647592 
L 115.439327 228.240623 
L 115.851917 235.890478 
L 115.910367 234.85324 
L 116.274821 228.244075 
L 116.305765 229.696203 
L 116.88339 252.550615 
L 117.07937 256.500045 
L 117.144697 255.681083 
L 117.495398 249.941364 
L 118.069585 216.683208 
L 118.423724 183.817645 
L 118.702221 166.117181 
L 119.200767 149.248862 
L 119.248902 147.413991 
L 119.314229 149.112249 
L 119.647739 161.042087 
L 120.09471 187.95631 
L 120.276937 192.373795 
L 120.314758 190.71185 
L 120.82018 163.651879 
L 121.115869 151.108114 
L 121.339355 144.701061 
L 121.820709 115.606232 
L 122.123275 110.41954 
L 122.394896 110.012015 
L 122.75935 106.404869 
L 123.374796 69.35776 
L 123.753003 58.29751 
L 124.093389 49.234586 
L 124.42346 37.376438 
L 124.50254 38.086371 
L 124.922006 41.666286 
L 124.966703 41.284121 
L 125.489316 37.131514 
L 125.506507 37.586916 
L 126.173527 53.382092 
L 126.204471 53.097831 
L 126.933379 47.459672 
L 127.191247 45.143888 
L 127.727613 35.977605 
L 128.133326 32.264385 
L 128.408386 31.340797 
L 128.528724 31.342845 
L 128.542477 31.358822 
L 128.690322 31.734432 
L 128.917246 33.035619 
L 129.237003 36.352297 
L 129.65303 43.23923 
L 129.959034 47.186466 
L 130.55385 51.52285 
L 130.763583 53.374125 
L 130.797966 52.719973 
L 131.451232 37.123654 
L 131.5922 38.186737 
L 132.021981 41.652433 
L 132.083869 41.146393 
L 132.523964 37.379848 
L 132.548032 38.223861 
L 133.273502 59.871925 
L 133.521055 67.1073 
L 133.96115 89.480161 
L 134.335919 108.271931 
L 134.714126 110.300466 
L 134.958241 110.671878 
L 135.367392 124.318549 
L 135.814364 150.256486 
L 136.061918 157.228208 
L 136.680802 191.095489 
L 136.711746 192.386751 
L 136.780511 190.732739 
L 137.107144 180.225239 
L 137.571307 152.35311 
L 137.756972 147.419696 
L 137.801669 148.961905 
L 138.595904 182.554257 
L 139.173529 230.223421 
L 139.589557 250.81243 
L 139.758031 253.512576 
L 140.009022 256.496178 
L 140.046843 255.754925 
L 140.500691 244.790826 
L 140.854831 228.235542 
L 140.930472 229.530562 
L 141.308679 235.894172 
L 141.360253 235.011881 
L 141.790033 227.649373 
L 141.858798 228.11764 
L 142.319523 232.043317 
L 143.062184 270.951424 
L 144.403099 320.076163 
L 146.142851 406.995445 
L 147.074615 434.913141 
L 147.301539 437.928028 
L 148.683713 438.373923 
L 149.98337 438.800969 
L 150.781042 439.077118 
L 151.595906 439.125167 
L 152.465782 438.950302 
L 154.704079 438.343949 
L 156.832353 437.854281 
L 158.290168 414.561814 
L 159.38353 394.050076 
L 163.169037 305.472077 
L 166.834206 258.776466 
L 168.388292 230.908546 
L 170.007705 227.640242 
L 170.03865 227.777877 
L 171.826537 235.903352 
L 171.860919 235.771675 
L 173.803527 228.23262 
L 173.810404 228.279958 
L 175.550155 244.035997 
L 176.254996 249.01038 
L 177.668114 252.981885 
L 178.905882 255.831124 
L 179.256583 256.519592 
L 179.325348 256.440776 
L 180.45653 255.322066 
L 181.488004 254.602531 
L 182.440397 254.200333 
L 183.344656 254.055244 
L 184.228284 254.137587 
L 185.125666 254.447216 
L 186.067745 255.014302 
L 187.078589 255.892248 
L 187.663091 256.517881 
L 187.728417 256.392563 
L 188.808026 254.065174 
L 190.025165 250.888246 
L 190.85722 248.197561 
L 192.332227 235.561586 
L 193.112708 228.232704 
L 193.205541 228.573686 
L 195.089699 235.903023 
L 195.189408 235.463701 
L 196.90853 227.640676 
L 197.021992 227.866313 
L 198.655158 231.33234 
L 200.666531 267.764345 
L 203.836593 306.782912 
L 206.683459 374.280235 
L 207.979677 404.970072 
L 209.856959 437.888272 
L 212.552542 438.769699 
L 214.605174 440.817108 
L 215.409724 441.52785 
L 215.450982 441.448721 
L 217.173543 438.390866 
L 218.858283 435.842627 
L 219.796923 434.351206 
L 221.323504 430.784153 
L 222.826017 427.823359 
L 224.318215 425.362934 
L 225.810413 423.322519 
L 227.319802 421.628945 
L 227.622368 421.167164 
L 228.946092 417.376857 
L 230.259501 414.270307 
L 231.569473 411.726538 
L 232.88632 409.642495 
L 234.223797 407.933322 
L 235.599095 406.531189 
L 237.036281 405.380871 
L 238.569738 404.43835 
L 240.244163 403.671987 
L 242.131759 403.056421 
L 244.345989 402.574791 
L 247.079393 402.217205 
L 250.748 401.975783 
L 256.520813 401.843707 
L 270.944248 401.8057 
L 366.936595 401.899748 
L 369.326175 402.132326 
L 370.842441 402.493645 
L 372.001129 402.993529 
L 372.970714 403.65335 
L 373.837152 404.515791 
L 374.648578 405.646615 
L 375.429059 407.128535 
L 376.199226 409.086303 
L 376.969393 411.677745 
L 377.746436 415.110027 
L 378.533794 419.644703 
L 378.977327 421.822799 
L 379.816259 424.060464 
L 380.662067 426.978327 
L 381.51819 430.762996 
L 382.814408 436.655532 
L 383.739296 440.293712 
L 384.010917 441.527207 
L 384.093435 441.35773 
L 385.090526 438.96634 
L 385.403406 438.44501 
L 386.221708 437.876451 
L 387.11909 393.383812 
L 388.62848 297.571601 
L 389.649638 254.321623 
L 390.130992 230.166492 
L 390.464502 227.647592 
L 390.498885 228.240623 
L 390.911474 235.890478 
L 390.969924 234.85324 
L 391.334378 228.244075 
L 391.365322 229.696203 
L 391.942947 252.550615 
L 392.138927 256.500045 
L 392.204254 255.681083 
L 392.554955 249.941364 
L 393.129142 216.683208 
L 393.483281 183.817645 
L 393.761779 166.117181 
L 394.260324 149.248862 
L 394.308459 147.413991 
L 394.373786 149.112249 
L 394.707296 161.042087 
L 395.154268 187.95631 
L 395.336495 192.373795 
L 395.374315 190.71185 
L 395.879737 163.651879 
L 396.175426 151.108114 
L 396.398912 144.701061 
L 396.880266 115.606232 
L 397.182832 110.41954 
L 397.454453 110.012015 
L 397.818907 106.404869 
L 398.434353 69.35776 
L 398.81256 58.29751 
L 399.152946 49.234586 
L 399.483017 37.376438 
L 399.562097 38.086371 
L 399.981563 41.666286 
L 400.02626 41.284121 
L 400.548873 37.131514 
L 400.566064 37.586916 
L 401.233084 53.382092 
L 401.264028 53.097831 
L 401.992936 47.459672 
L 402.250804 45.143888 
L 402.78717 35.977605 
L 403.192883 32.264385 
L 403.467943 31.340797 
L 403.588281 31.342845 
L 403.602034 31.358822 
L 403.749879 31.734432 
L 403.976803 33.035619 
L 404.29656 36.352297 
L 404.712587 43.23923 
L 405.018591 47.186466 
L 405.613407 51.52285 
L 405.82314 53.374125 
L 405.857523 52.719973 
L 406.510789 37.123654 
L 406.651757 38.186737 
L 407.081538 41.652433 
L 407.143426 41.146393 
L 407.583521 37.379848 
L 407.607589 38.223861 
L 408.333059 59.871925 
L 408.580612 67.1073 
L 409.020708 89.480161 
L 409.395476 108.271931 
L 409.773683 110.300466 
L 410.017798 110.671878 
L 410.42695 124.318549 
L 410.873921 150.256486 
L 411.121475 157.228208 
L 411.740359 191.095489 
L 411.771303 192.386751 
L 411.840068 190.732739 
L 412.166701 180.225239 
L 412.630864 152.35311 
L 412.816529 147.419696 
L 412.861227 148.961905 
L 413.655461 182.554257 
L 414.233086 230.223421 
L 414.649114 250.81243 
L 414.817588 253.512576 
L 415.06858 256.496178 
L 415.1064 255.754925 
L 415.560249 244.790826 
L 415.914388 228.235542 
L 415.990029 229.530562 
L 416.368236 235.894172 
L 416.41981 235.011881 
L 416.84959 227.649373 
L 416.918355 228.11764 
L 417.37908 232.043317 
L 418.121741 270.951424 
L 419.462656 320.076163 
L 421.202408 406.995445 
L 422.134172 434.913141 
L 422.361096 437.928028 
L 423.74327 438.373923 
L 425.042927 438.800969 
L 425.840599 439.077118 
L 426.655463 439.125167 
L 427.525339 438.950302 
L 429.763636 438.343949 
L 431.89191 437.854281 
L 433.349725 414.561814 
L 434.443087 394.050076 
L 438.228594 305.472077 
L 441.893763 258.776466 
L 443.447849 230.908546 
L 445.067262 227.640242 
L 445.098207 227.777877 
L 446.886094 235.903352 
L 446.920476 235.771675 
L 448.863084 228.23262 
L 448.869961 228.279958 
L 450.609713 244.035997 
L 451.314553 249.01038 
L 452.727671 252.981885 
L 453.965439 255.831124 
L 454.31614 256.519592 
L 454.384905 256.440776 
L 455.516087 255.322066 
L 456.547561 254.602531 
L 457.499954 254.200333 
L 458.404213 254.055244 
L 459.287842 254.137587 
L 460.185223 254.447216 
L 461.127302 255.014302 
L 462.138146 255.892248 
L 462.722648 256.517881 
L 462.787974 256.392563 
L 463.867583 254.065174 
L 465.084722 250.888246 
L 465.916777 248.197561 
L 467.391784 235.561586 
L 468.172265 228.232704 
L 468.265098 228.573686 
L 470.149256 235.903023 
L 470.248965 235.463701 
L 471.968087 227.640676 
L 472.081549 227.866313 
L 473.714715 231.33234 
L 475.726088 267.764345 
L 478.89615 306.782912 
L 481.743016 374.280235 
L 483.039234 404.970072 
L 484.916516 437.888272 
L 487.612099 438.769699 
L 489.664731 440.817108 
L 490.469281 441.52785 
L 490.51054 441.448721 
L 492.2331 438.390866 
L 493.91784 435.842627 
L 494.856481 434.351206 
L 496.383061 430.784153 
L 497.885574 427.823359 
L 499.377772 425.362934 
L 500.86997 423.322519 
L 502.379359 421.628945 
L 502.681925 421.167164 
L 504.005649 417.376857 
L 505.319058 414.270307 
L 506.62903 411.726538 
L 507.945877 409.642495 
L 509.283354 407.933322 
L 510.658652 406.531189 
L 512.095838 405.380871 
L 513.629295 404.43835 
L 515.30372 403.671987 
L 517.191317 403.056421 
L 519.405546 402.574791 
L 522.13895 402.217205 
L 525.807557 401.975783 
L 531.58037 401.843707 
L 546.003805 401.8057 
L 641.996152 401.899748 
L 644.385732 402.132326 
L 645.901998 402.493645 
L 647.060687 402.993529 
L 648.030271 403.65335 
L 648.896709 404.515791 
L 649.708135 405.646615 
L 650.488616 407.128535 
L 651.258783 409.086303 
L 652.02895 411.677745 
L 652.805993 415.110027 
L 653.593351 419.644703 
L 654.036885 421.822799 
L 654.875816 424.060464 
L 655.721624 426.978327 
L 656.577747 430.762996 
L 657.873965 436.655532 
L 658.798853 440.293712 
L 659.070474 441.527207 
L 659.152992 441.35773 
L 660.150083 438.96634 
L 660.462963 438.44501 
L 661.281266 437.876451 
L 662.178647 393.383812 
L 663.688037 297.571601 
L 664.709195 254.321623 
L 665.19055 230.166492 
L 665.524059 227.647592 
L 665.558442 228.240623 
L 665.971031 235.890478 
L 666.029481 234.85324 
L 666.393935 228.244075 
L 666.424879 229.696203 
L 667.002504 252.550615 
L 667.198484 256.500045 
L 667.263811 255.681083 
L 667.614512 249.941364 
L 668.188699 216.683208 
L 668.542838 183.817645 
L 668.821336 166.117181 
L 669.319881 149.248862 
L 669.368017 147.413991 
L 669.433343 149.112249 
L 669.766853 161.042087 
L 670.213825 187.95631 
L 670.396052 192.373795 
L 670.433872 190.71185 
L 670.939294 163.651879 
L 671.234983 151.108114 
L 671.458469 144.701061 
L 671.939823 115.606232 
L 672.242389 110.41954 
L 672.51401 110.012015 
L 672.878464 106.404869 
L 673.49391 69.35776 
L 673.872117 58.29751 
L 674.212503 49.234586 
L 674.542575 37.376438 
L 674.621654 38.086371 
L 675.04112 41.666286 
L 675.085817 41.284121 
L 675.60843 37.131514 
L 675.625622 37.586916 
L 676.292641 53.382092 
L 676.323585 53.097831 
L 677.052493 47.459672 
L 677.310361 45.143888 
L 677.846727 35.977605 
L 678.25244 32.264385 
L 678.5275 31.340797 
L 678.647838 31.342845 
L 678.661591 31.358822 
L 678.809436 31.734432 
L 679.03636 33.035619 
L 679.356117 36.352297 
L 679.772144 43.23923 
L 680.078148 47.186466 
L 680.672964 51.52285 
L 680.882697 53.374125 
L 680.91708 52.719973 
L 681.570346 37.123654 
L 681.711314 38.186737 
L 682.141095 41.652433 
L 682.202983 41.146393 
L 682.643078 37.379848 
L 682.667146 38.223861 
L 683.392616 59.871925 
L 683.640169 67.1073 
L 684.080265 89.480161 
L 684.455033 108.271931 
L 684.83324 110.300466 
L 685.077356 110.671878 
L 685.486507 124.318549 
L 685.933478 150.256486 
L 686.181032 157.228208 
L 686.799916 191.095489 
L 686.83086 192.386751 
L 686.899625 190.732739 
L 687.226258 180.225239 
L 687.690421 152.35311 
L 687.876087 147.419696 
L 687.920784 148.961905 
L 688.715018 182.554257 
L 689.292643 230.223421 
L 689.708671 250.81243 
L 689.877145 253.512576 
L 690.128137 256.496178 
L 690.165957 255.754925 
L 690.619806 244.790826 
L 690.973945 228.235542 
L 691.049586 229.530562 
L 691.427793 235.894172 
L 691.479367 235.011881 
L 691.909147 227.649373 
L 691.977912 228.11764 
L 692.438637 232.043317 
L 693.181298 270.951424 
L 694.522213 320.076163 
L 696.261965 406.995445 
L 697.193729 434.913141 
L 697.420653 437.928028 
L 698.802827 438.373923 
L 700.102484 438.800969 
L 700.900157 439.077118 
L 701.715021 439.125167 
L 702.584896 438.950302 
L 704.823193 438.343949 
L 706.951467 437.854281 
L 708.409282 414.561814 
L 709.502644 394.050076 
L 713.288151 305.472077 
L 716.95332 258.776466 
L 718.507406 230.908546 
L 720.12682 227.640242 
L 720.157764 227.777877 
L 721.945651 235.903352 
L 721.980033 235.771675 
L 723.922641 228.23262 
L 723.929518 228.279958 
L 725.66927 244.035997 
L 726.37411 249.01038 
L 727.787228 252.981885 
L 729.024996 255.831124 
L 729.375697 256.519592 
L 729.444462 256.440776 
L 730.575645 255.322066 
L 731.607118 254.602531 
L 732.559512 254.200333 
L 733.46377 254.055244 
L 734.347399 254.137587 
L 735.244781 254.447216 
L 736.186859 255.014302 
L 737.197703 255.892248 
L 737.782205 256.517881 
L 737.847532 256.392563 
L 738.92714 254.065174 
L 740.144279 250.888246 
L 740.976334 248.197561 
L 742.451341 235.561586 
L 743.231822 228.232704 
L 743.324655 228.573686 
L 745.208813 235.903023 
L 745.308522 235.463701 
L 747.027644 227.640676 
L 747.141106 227.866313 
L 748.774272 231.33234 
L 750.785645 267.764345 
L 753.955707 306.782912 
L 756.802573 374.280235 
L 758.098791 404.970072 
L 759.976073 437.888272 
L 762.671657 438.769699 
L 764.724289 440.817108 
L 765.528838 441.52785 
L 765.570097 441.448721 
L 767.292657 438.390866 
L 768.977397 435.842627 
L 769.916038 434.351206 
L 771.442618 430.784153 
L 772.945131 427.823359 
L 774.437329 425.362934 
L 774.832727 424.783715 
L 774.832727 424.783715 
" clip-path="url(#p246aebdfcf)" style="fill: none; stroke: #d62728; stroke-opacity: 0.9; stroke-width: 1.5; stroke-linecap: square"/>
   </g>
   <g id="patch_7">
    <path d="M 52.805 462.04 
L 52.805 10.8 
" style="fill: none; stroke: #000000; stroke-width: 0.8; stroke-linejoin: miter; stroke-linecap: square"/>
   </g>
   <g id="patch_8">
    <path d="M 809.215 462.04 
L 809.215 10.8 
" style="fill: none; stroke: #000000; stroke-width: 0.8; stroke-linejoin: miter; stroke-linecap: square"/>
   </g>
   <g id="patch_9">
    <path d="M 52.805 462.04 
L 809.215 462.04 
" style="fill: none; stroke: #000000; stroke-width: 0.8; stroke-linejoin: miter; stroke-linecap: square"/>
   </g>
   <g id="patch_10">
    <path d="M 52.805 10.8 
L 809.215 10.8 
" style="fill: none; stroke: #000000; stroke-width: 0.8; stroke-linejoin: miter; stroke-linecap: square"/>
   </g>
  </g>
 </g>
 <defs>
  <clipPath id="p246aebdfcf">
   <rect x="52.805" y="10.8" width="756.41" height="451.24"/>
  </clipPath>
 </defs>
</svg>
