<?xml version="1.0" encoding="utf-8" standalone="no"?>
<!DOCTYPE svg PUBLIC "-//W3C//DTD SVG 1.1//EN"
  "http://www.w3.org/Graphics/SVG/1.1/DTD/svg11.dtd">
<svg xmlns:xlink="http://www.w3.org/1999/xlink" width="720pt" height="432pt" viewBox="0 0 720 432" xmlns="http://www.w3.org/2000/svg" version="1.1">
 <metadata>
  <rdf:RDF xmlns:dc="http://purl.org/dc/elements/1.1/" xmlns:cc="http://creativecommons.org/ns#" xmlns:rdf="http://www.w3.org/1999/02/22-rdf-syntax-ns#">
   <cc:Work>
    <dc:type rdf:resource="http://purl.org/dc/dcmitype/StillImage"/>
    <dc:date>2025-08-08T15:51:39.566622</dc:date>
    <dc:format>image/svg+xml</dc:format>
    <dc:creator>
     <cc:Agent>
      <dc:title>Matplotlib v3.7.5, https://matplotlib.org/</dc:title>
     </cc:Agent>
    </dc:creator>
   </cc:Work>
  </rdf:RDF>
 </metadata>
 <defs>
  <style type="text/css">*{stroke-linejoin: round; stroke-linecap: butt}</style>
 </defs>
 <g id="figure_1">
  <g id="patch_1">
   <path d="M 0 432 
L 720 432 
L 720 0 
L 0 0 
z
" style="fill: #ffffff"/>
  </g>
  <g id="axes_1">
   <g id="patch_2">
    <path d="M 90 384.48 
L 648 384.48 
L 648 51.84 
L 90 51.84 
z
" style="fill: #ffffff"/>
   </g>
   <g id="matplotlib.axis_1">
    <g id="xtick_1">
     <g id="line2d_1">
      <path d="M 115.363636 384.48 
L 115.363636 51.84 
" clip-path="url(#p45e860c8cc)" style="fill: none; stroke: #b0b0b0; stroke-width: 0.8; stroke-linecap: square"/>
     </g>
     <g id="line2d_2">
      <defs>
       <path id="m3b74b22cbb" d="M 0 0 
L 0 3.5 
" style="stroke: #000000; stroke-width: 0.8"/>
      </defs>
      <g>
       <use xlink:href="#m3b74b22cbb" x="115.363636" y="384.48" style="stroke: #000000; stroke-width: 0.8"/>
      </g>
     </g>
     <g id="text_1">
      <!-- 0 -->
      <g transform="translate(112.182386 399.078438) scale(0.1 -0.1)">
       <defs>
        <path id="DejaVuSans-30" d="M 2034 4250 
Q 1547 4250 1301 3770 
Q 1056 3291 1056 2328 
Q 1056 1369 1301 889 
Q 1547 409 2034 409 
Q 2525 409 2770 889 
Q 3016 1369 3016 2328 
Q 3016 3291 2770 3770 
Q 2525 4250 2034 4250 
z
M 2034 4750 
Q 2819 4750 3233 4129 
Q 3647 3509 3647 2328 
Q 3647 1150 3233 529 
Q 2819 -91 2034 -91 
Q 1250 -91 836 529 
Q 422 1150 422 2328 
Q 422 3509 836 4129 
Q 1250 4750 2034 4750 
z
" transform="scale(0.015625)"/>
       </defs>
       <use xlink:href="#DejaVuSans-30"/>
      </g>
     </g>
    </g>
    <g id="xtick_2">
     <g id="line2d_3">
      <path d="M 216.818689 384.48 
L 216.818689 51.84 
" clip-path="url(#p45e860c8cc)" style="fill: none; stroke: #b0b0b0; stroke-width: 0.8; stroke-linecap: square"/>
     </g>
     <g id="line2d_4">
      <g>
       <use xlink:href="#m3b74b22cbb" x="216.818689" y="384.48" style="stroke: #000000; stroke-width: 0.8"/>
      </g>
     </g>
     <g id="text_2">
      <!-- 2 -->
      <g transform="translate(213.637439 399.078438) scale(0.1 -0.1)">
       <defs>
        <path id="DejaVuSans-32" d="M 1228 531 
L 3431 531 
L 3431 0 
L 469 0 
L 469 531 
Q 828 903 1448 1529 
Q 2069 2156 2228 2338 
Q 2531 2678 2651 2914 
Q 2772 3150 2772 3378 
Q 2772 3750 2511 3984 
Q 2250 4219 1831 4219 
Q 1534 4219 1204 4116 
Q 875 4013 500 3803 
L 500 4441 
Q 881 4594 1212 4672 
Q 1544 4750 1819 4750 
Q 2544 4750 2975 4387 
Q 3406 4025 3406 3419 
Q 3406 3131 3298 2873 
Q 3191 2616 2906 2266 
Q 2828 2175 2409 1742 
Q 1991 1309 1228 531 
z
" transform="scale(0.015625)"/>
       </defs>
       <use xlink:href="#DejaVuSans-32"/>
      </g>
     </g>
    </g>
    <g id="xtick_3">
     <g id="line2d_5">
      <path d="M 318.273742 384.48 
L 318.273742 51.84 
" clip-path="url(#p45e860c8cc)" style="fill: none; stroke: #b0b0b0; stroke-width: 0.8; stroke-linecap: square"/>
     </g>
     <g id="line2d_6">
      <g>
       <use xlink:href="#m3b74b22cbb" x="318.273742" y="384.48" style="stroke: #000000; stroke-width: 0.8"/>
      </g>
     </g>
     <g id="text_3">
      <!-- 4 -->
      <g transform="translate(315.092492 399.078438) scale(0.1 -0.1)">
       <defs>
        <path id="DejaVuSans-34" d="M 2419 4116 
L 825 1625 
L 2419 1625 
L 2419 4116 
z
M 2253 4666 
L 3047 4666 
L 3047 1625 
L 3713 1625 
L 3713 1100 
L 3047 1100 
L 3047 0 
L 2419 0 
L 2419 1100 
L 313 1100 
L 313 1709 
L 2253 4666 
z
" transform="scale(0.015625)"/>
       </defs>
       <use xlink:href="#DejaVuSans-34"/>
      </g>
     </g>
    </g>
    <g id="xtick_4">
     <g id="line2d_7">
      <path d="M 419.728795 384.48 
L 419.728795 51.84 
" clip-path="url(#p45e860c8cc)" style="fill: none; stroke: #b0b0b0; stroke-width: 0.8; stroke-linecap: square"/>
     </g>
     <g id="line2d_8">
      <g>
       <use xlink:href="#m3b74b22cbb" x="419.728795" y="384.48" style="stroke: #000000; stroke-width: 0.8"/>
      </g>
     </g>
     <g id="text_4">
      <!-- 6 -->
      <g transform="translate(416.547545 399.078438) scale(0.1 -0.1)">
       <defs>
        <path id="DejaVuSans-36" d="M 2113 2584 
Q 1688 2584 1439 2293 
Q 1191 2003 1191 1497 
Q 1191 994 1439 701 
Q 1688 409 2113 409 
Q 2538 409 2786 701 
Q 3034 994 3034 1497 
Q 3034 2003 2786 2293 
Q 2538 2584 2113 2584 
z
M 3366 4563 
L 3366 3988 
Q 3128 4100 2886 4159 
Q 2644 4219 2406 4219 
Q 1781 4219 1451 3797 
Q 1122 3375 1075 2522 
Q 1259 2794 1537 2939 
Q 1816 3084 2150 3084 
Q 2853 3084 3261 2657 
Q 3669 2231 3669 1497 
Q 3669 778 3244 343 
Q 2819 -91 2113 -91 
Q 1303 -91 875 529 
Q 447 1150 447 2328 
Q 447 3434 972 4092 
Q 1497 4750 2381 4750 
Q 2619 4750 2861 4703 
Q 3103 4656 3366 4563 
z
" transform="scale(0.015625)"/>
       </defs>
       <use xlink:href="#DejaVuSans-36"/>
      </g>
     </g>
    </g>
    <g id="xtick_5">
     <g id="line2d_9">
      <path d="M 521.183847 384.48 
L 521.183847 51.84 
" clip-path="url(#p45e860c8cc)" style="fill: none; stroke: #b0b0b0; stroke-width: 0.8; stroke-linecap: square"/>
     </g>
     <g id="line2d_10">
      <g>
       <use xlink:href="#m3b74b22cbb" x="521.183847" y="384.48" style="stroke: #000000; stroke-width: 0.8"/>
      </g>
     </g>
     <g id="text_5">
      <!-- 8 -->
      <g transform="translate(518.002597 399.078438) scale(0.1 -0.1)">
       <defs>
        <path id="DejaVuSans-38" d="M 2034 2216 
Q 1584 2216 1326 1975 
Q 1069 1734 1069 1313 
Q 1069 891 1326 650 
Q 1584 409 2034 409 
Q 2484 409 2743 651 
Q 3003 894 3003 1313 
Q 3003 1734 2745 1975 
Q 2488 2216 2034 2216 
z
M 1403 2484 
Q 997 2584 770 2862 
Q 544 3141 544 3541 
Q 544 4100 942 4425 
Q 1341 4750 2034 4750 
Q 2731 4750 3128 4425 
Q 3525 4100 3525 3541 
Q 3525 3141 3298 2862 
Q 3072 2584 2669 2484 
Q 3125 2378 3379 2068 
Q 3634 1759 3634 1313 
Q 3634 634 3220 271 
Q 2806 -91 2034 -91 
Q 1263 -91 848 271 
Q 434 634 434 1313 
Q 434 1759 690 2068 
Q 947 2378 1403 2484 
z
M 1172 3481 
Q 1172 3119 1398 2916 
Q 1625 2713 2034 2713 
Q 2441 2713 2670 2916 
Q 2900 3119 2900 3481 
Q 2900 3844 2670 4047 
Q 2441 4250 2034 4250 
Q 1625 4250 1398 4047 
Q 1172 3844 1172 3481 
z
" transform="scale(0.015625)"/>
       </defs>
       <use xlink:href="#DejaVuSans-38"/>
      </g>
     </g>
    </g>
    <g id="xtick_6">
     <g id="line2d_11">
      <path d="M 622.6389 384.48 
L 622.6389 51.84 
" clip-path="url(#p45e860c8cc)" style="fill: none; stroke: #b0b0b0; stroke-width: 0.8; stroke-linecap: square"/>
     </g>
     <g id="line2d_12">
      <g>
       <use xlink:href="#m3b74b22cbb" x="622.6389" y="384.48" style="stroke: #000000; stroke-width: 0.8"/>
      </g>
     </g>
     <g id="text_6">
      <!-- 10 -->
      <g transform="translate(616.2764 399.078438) scale(0.1 -0.1)">
       <defs>
        <path id="DejaVuSans-31" d="M 794 531 
L 1825 531 
L 1825 4091 
L 703 3866 
L 703 4441 
L 1819 4666 
L 2450 4666 
L 2450 531 
L 3481 531 
L 3481 0 
L 794 0 
L 794 531 
z
" transform="scale(0.015625)"/>
       </defs>
       <use xlink:href="#DejaVuSans-31"/>
       <use xlink:href="#DejaVuSans-30" x="63.623047"/>
      </g>
     </g>
    </g>
    <g id="text_7">
     <!-- Time (s) -->
     <g transform="translate(348.671094 412.756563) scale(0.1 -0.1)">
      <defs>
       <path id="DejaVuSans-54" d="M -19 4666 
L 3928 4666 
L 3928 4134 
L 2272 4134 
L 2272 0 
L 1638 0 
L 1638 4134 
L -19 4134 
L -19 4666 
z
" transform="scale(0.015625)"/>
       <path id="DejaVuSans-69" d="M 603 3500 
L 1178 3500 
L 1178 0 
L 603 0 
L 603 3500 
z
M 603 4863 
L 1178 4863 
L 1178 4134 
L 603 4134 
L 603 4863 
z
" transform="scale(0.015625)"/>
       <path id="DejaVuSans-6d" d="M 3328 2828 
Q 3544 3216 3844 3400 
Q 4144 3584 4550 3584 
Q 5097 3584 5394 3201 
Q 5691 2819 5691 2113 
L 5691 0 
L 5113 0 
L 5113 2094 
Q 5113 2597 4934 2840 
Q 4756 3084 4391 3084 
Q 3944 3084 3684 2787 
Q 3425 2491 3425 1978 
L 3425 0 
L 2847 0 
L 2847 2094 
Q 2847 2600 2669 2842 
Q 2491 3084 2119 3084 
Q 1678 3084 1418 2786 
Q 1159 2488 1159 1978 
L 1159 0 
L 581 0 
L 581 3500 
L 1159 3500 
L 1159 2956 
Q 1356 3278 1631 3431 
Q 1906 3584 2284 3584 
Q 2666 3584 2933 3390 
Q 3200 3197 3328 2828 
z
" transform="scale(0.015625)"/>
       <path id="DejaVuSans-65" d="M 3597 1894 
L 3597 1613 
L 953 1613 
Q 991 1019 1311 708 
Q 1631 397 2203 397 
Q 2534 397 2845 478 
Q 3156 559 3463 722 
L 3463 178 
Q 3153 47 2828 -22 
Q 2503 -91 2169 -91 
Q 1331 -91 842 396 
Q 353 884 353 1716 
Q 353 2575 817 3079 
Q 1281 3584 2069 3584 
Q 2775 3584 3186 3129 
Q 3597 2675 3597 1894 
z
M 3022 2063 
Q 3016 2534 2758 2815 
Q 2500 3097 2075 3097 
Q 1594 3097 1305 2825 
Q 1016 2553 972 2059 
L 3022 2063 
z
" transform="scale(0.015625)"/>
       <path id="DejaVuSans-20" transform="scale(0.015625)"/>
       <path id="DejaVuSans-28" d="M 1984 4856 
Q 1566 4138 1362 3434 
Q 1159 2731 1159 2009 
Q 1159 1288 1364 580 
Q 1569 -128 1984 -844 
L 1484 -844 
Q 1016 -109 783 600 
Q 550 1309 550 2009 
Q 550 2706 781 3412 
Q 1013 4119 1484 4856 
L 1984 4856 
z
" transform="scale(0.015625)"/>
       <path id="DejaVuSans-73" d="M 2834 3397 
L 2834 2853 
Q 2591 2978 2328 3040 
Q 2066 3103 1784 3103 
Q 1356 3103 1142 2972 
Q 928 2841 928 2578 
Q 928 2378 1081 2264 
Q 1234 2150 1697 2047 
L 1894 2003 
Q 2506 1872 2764 1633 
Q 3022 1394 3022 966 
Q 3022 478 2636 193 
Q 2250 -91 1575 -91 
Q 1294 -91 989 -36 
Q 684 19 347 128 
L 347 722 
Q 666 556 975 473 
Q 1284 391 1588 391 
Q 1994 391 2212 530 
Q 2431 669 2431 922 
Q 2431 1156 2273 1281 
Q 2116 1406 1581 1522 
L 1381 1569 
Q 847 1681 609 1914 
Q 372 2147 372 2553 
Q 372 3047 722 3315 
Q 1072 3584 1716 3584 
Q 2034 3584 2315 3537 
Q 2597 3491 2834 3397 
z
" transform="scale(0.015625)"/>
       <path id="DejaVuSans-29" d="M 513 4856 
L 1013 4856 
Q 1481 4119 1714 3412 
Q 1947 2706 1947 2009 
Q 1947 1309 1714 600 
Q 1481 -109 1013 -844 
L 513 -844 
Q 928 -128 1133 580 
Q 1338 1288 1338 2009 
Q 1338 2731 1133 3434 
Q 928 4138 513 4856 
z
" transform="scale(0.015625)"/>
      </defs>
      <use xlink:href="#DejaVuSans-54"/>
      <use xlink:href="#DejaVuSans-69" x="57.958984"/>
      <use xlink:href="#DejaVuSans-6d" x="85.742188"/>
      <use xlink:href="#DejaVuSans-65" x="183.154297"/>
      <use xlink:href="#DejaVuSans-20" x="244.677734"/>
      <use xlink:href="#DejaVuSans-28" x="276.464844"/>
      <use xlink:href="#DejaVuSans-73" x="315.478516"/>
      <use xlink:href="#DejaVuSans-29" x="367.578125"/>
     </g>
    </g>
   </g>
   <g id="matplotlib.axis_2">
    <g id="ytick_1">
     <g id="line2d_13">
      <path d="M 90 367.866254 
L 648 367.866254 
" clip-path="url(#p45e860c8cc)" style="fill: none; stroke: #b0b0b0; stroke-width: 0.8; stroke-linecap: square"/>
     </g>
     <g id="line2d_14">
      <defs>
       <path id="m06ad1ae8f2" d="M 0 0 
L -3.5 0 
" style="stroke: #000000; stroke-width: 0.8"/>
      </defs>
      <g>
       <use xlink:href="#m06ad1ae8f2" x="90" y="367.866254" style="stroke: #000000; stroke-width: 0.8"/>
      </g>
     </g>
     <g id="text_8">
      <!-- −53 -->
      <g transform="translate(61.895313 371.665472) scale(0.1 -0.1)">
       <defs>
        <path id="DejaVuSans-2212" d="M 678 2272 
L 4684 2272 
L 4684 1741 
L 678 1741 
L 678 2272 
z
" transform="scale(0.015625)"/>
        <path id="DejaVuSans-35" d="M 691 4666 
L 3169 4666 
L 3169 4134 
L 1269 4134 
L 1269 2991 
Q 1406 3038 1543 3061 
Q 1681 3084 1819 3084 
Q 2600 3084 3056 2656 
Q 3513 2228 3513 1497 
Q 3513 744 3044 326 
Q 2575 -91 1722 -91 
Q 1428 -91 1123 -41 
Q 819 9 494 109 
L 494 744 
Q 775 591 1075 516 
Q 1375 441 1709 441 
Q 2250 441 2565 725 
Q 2881 1009 2881 1497 
Q 2881 1984 2565 2268 
Q 2250 2553 1709 2553 
Q 1456 2553 1204 2497 
Q 953 2441 691 2322 
L 691 4666 
z
" transform="scale(0.015625)"/>
        <path id="DejaVuSans-33" d="M 2597 2516 
Q 3050 2419 3304 2112 
Q 3559 1806 3559 1356 
Q 3559 666 3084 287 
Q 2609 -91 1734 -91 
Q 1441 -91 1130 -33 
Q 819 25 488 141 
L 488 750 
Q 750 597 1062 519 
Q 1375 441 1716 441 
Q 2309 441 2620 675 
Q 2931 909 2931 1356 
Q 2931 1769 2642 2001 
Q 2353 2234 1838 2234 
L 1294 2234 
L 1294 2753 
L 1863 2753 
Q 2328 2753 2575 2939 
Q 2822 3125 2822 3475 
Q 2822 3834 2567 4026 
Q 2313 4219 1838 4219 
Q 1578 4219 1281 4162 
Q 984 4106 628 3988 
L 628 4550 
Q 988 4650 1302 4700 
Q 1616 4750 1894 4750 
Q 2613 4750 3031 4423 
Q 3450 4097 3450 3541 
Q 3450 3153 3228 2886 
Q 3006 2619 2597 2516 
z
" transform="scale(0.015625)"/>
       </defs>
       <use xlink:href="#DejaVuSans-2212"/>
       <use xlink:href="#DejaVuSans-35" x="83.789062"/>
       <use xlink:href="#DejaVuSans-33" x="147.412109"/>
      </g>
     </g>
    </g>
    <g id="ytick_2">
     <g id="line2d_15">
      <path d="M 90 302.369297 
L 648 302.369297 
" clip-path="url(#p45e860c8cc)" style="fill: none; stroke: #b0b0b0; stroke-width: 0.8; stroke-linecap: square"/>
     </g>
     <g id="line2d_16">
      <g>
       <use xlink:href="#m06ad1ae8f2" x="90" y="302.369297" style="stroke: #000000; stroke-width: 0.8"/>
      </g>
     </g>
     <g id="text_9">
      <!-- −52 -->
      <g transform="translate(61.895313 306.168516) scale(0.1 -0.1)">
       <use xlink:href="#DejaVuSans-2212"/>
       <use xlink:href="#DejaVuSans-35" x="83.789062"/>
       <use xlink:href="#DejaVuSans-32" x="147.412109"/>
      </g>
     </g>
    </g>
    <g id="ytick_3">
     <g id="line2d_17">
      <path d="M 90 236.87234 
L 648 236.87234 
" clip-path="url(#p45e860c8cc)" style="fill: none; stroke: #b0b0b0; stroke-width: 0.8; stroke-linecap: square"/>
     </g>
     <g id="line2d_18">
      <g>
       <use xlink:href="#m06ad1ae8f2" x="90" y="236.87234" style="stroke: #000000; stroke-width: 0.8"/>
      </g>
     </g>
     <g id="text_10">
      <!-- −51 -->
      <g transform="translate(61.895313 240.671559) scale(0.1 -0.1)">
       <use xlink:href="#DejaVuSans-2212"/>
       <use xlink:href="#DejaVuSans-35" x="83.789062"/>
       <use xlink:href="#DejaVuSans-31" x="147.412109"/>
      </g>
     </g>
    </g>
    <g id="ytick_4">
     <g id="line2d_19">
      <path d="M 90 171.375383 
L 648 171.375383 
" clip-path="url(#p45e860c8cc)" style="fill: none; stroke: #b0b0b0; stroke-width: 0.8; stroke-linecap: square"/>
     </g>
     <g id="line2d_20">
      <g>
       <use xlink:href="#m06ad1ae8f2" x="90" y="171.375383" style="stroke: #000000; stroke-width: 0.8"/>
      </g>
     </g>
     <g id="text_11">
      <!-- −50 -->
      <g transform="translate(61.895313 175.174602) scale(0.1 -0.1)">
       <use xlink:href="#DejaVuSans-2212"/>
       <use xlink:href="#DejaVuSans-35" x="83.789062"/>
       <use xlink:href="#DejaVuSans-30" x="147.412109"/>
      </g>
     </g>
    </g>
    <g id="ytick_5">
     <g id="line2d_21">
      <path d="M 90 105.878427 
L 648 105.878427 
" clip-path="url(#p45e860c8cc)" style="fill: none; stroke: #b0b0b0; stroke-width: 0.8; stroke-linecap: square"/>
     </g>
     <g id="line2d_22">
      <g>
       <use xlink:href="#m06ad1ae8f2" x="90" y="105.878427" style="stroke: #000000; stroke-width: 0.8"/>
      </g>
     </g>
     <g id="text_12">
      <!-- −49 -->
      <g transform="translate(61.895313 109.677646) scale(0.1 -0.1)">
       <defs>
        <path id="DejaVuSans-39" d="M 703 97 
L 703 672 
Q 941 559 1184 500 
Q 1428 441 1663 441 
Q 2288 441 2617 861 
Q 2947 1281 2994 2138 
Q 2813 1869 2534 1725 
Q 2256 1581 1919 1581 
Q 1219 1581 811 2004 
Q 403 2428 403 3163 
Q 403 3881 828 4315 
Q 1253 4750 1959 4750 
Q 2769 4750 3195 4129 
Q 3622 3509 3622 2328 
Q 3622 1225 3098 567 
Q 2575 -91 1691 -91 
Q 1453 -91 1209 -44 
Q 966 3 703 97 
z
M 1959 2075 
Q 2384 2075 2632 2365 
Q 2881 2656 2881 3163 
Q 2881 3666 2632 3958 
Q 2384 4250 1959 4250 
Q 1534 4250 1286 3958 
Q 1038 3666 1038 3163 
Q 1038 2656 1286 2365 
Q 1534 2075 1959 2075 
z
" transform="scale(0.015625)"/>
       </defs>
       <use xlink:href="#DejaVuSans-2212"/>
       <use xlink:href="#DejaVuSans-34" x="83.789062"/>
       <use xlink:href="#DejaVuSans-39" x="147.412109"/>
      </g>
     </g>
    </g>
    <g id="text_13">
     <!-- Power (arbitrary units) -->
     <g transform="translate(55.815625 274.4225) rotate(-90) scale(0.1 -0.1)">
      <defs>
       <path id="DejaVuSans-50" d="M 1259 4147 
L 1259 2394 
L 2053 2394 
Q 2494 2394 2734 2622 
Q 2975 2850 2975 3272 
Q 2975 3691 2734 3919 
Q 2494 4147 2053 4147 
L 1259 4147 
z
M 628 4666 
L 2053 4666 
Q 2838 4666 3239 4311 
Q 3641 3956 3641 3272 
Q 3641 2581 3239 2228 
Q 2838 1875 2053 1875 
L 1259 1875 
L 1259 0 
L 628 0 
L 628 4666 
z
" transform="scale(0.015625)"/>
       <path id="DejaVuSans-6f" d="M 1959 3097 
Q 1497 3097 1228 2736 
Q 959 2375 959 1747 
Q 959 1119 1226 758 
Q 1494 397 1959 397 
Q 2419 397 2687 759 
Q 2956 1122 2956 1747 
Q 2956 2369 2687 2733 
Q 2419 3097 1959 3097 
z
M 1959 3584 
Q 2709 3584 3137 3096 
Q 3566 2609 3566 1747 
Q 3566 888 3137 398 
Q 2709 -91 1959 -91 
Q 1206 -91 779 398 
Q 353 888 353 1747 
Q 353 2609 779 3096 
Q 1206 3584 1959 3584 
z
" transform="scale(0.015625)"/>
       <path id="DejaVuSans-77" d="M 269 3500 
L 844 3500 
L 1563 769 
L 2278 3500 
L 2956 3500 
L 3675 769 
L 4391 3500 
L 4966 3500 
L 4050 0 
L 3372 0 
L 2619 2869 
L 1863 0 
L 1184 0 
L 269 3500 
z
" transform="scale(0.015625)"/>
       <path id="DejaVuSans-72" d="M 2631 2963 
Q 2534 3019 2420 3045 
Q 2306 3072 2169 3072 
Q 1681 3072 1420 2755 
Q 1159 2438 1159 1844 
L 1159 0 
L 581 0 
L 581 3500 
L 1159 3500 
L 1159 2956 
Q 1341 3275 1631 3429 
Q 1922 3584 2338 3584 
Q 2397 3584 2469 3576 
Q 2541 3569 2628 3553 
L 2631 2963 
z
" transform="scale(0.015625)"/>
       <path id="DejaVuSans-61" d="M 2194 1759 
Q 1497 1759 1228 1600 
Q 959 1441 959 1056 
Q 959 750 1161 570 
Q 1363 391 1709 391 
Q 2188 391 2477 730 
Q 2766 1069 2766 1631 
L 2766 1759 
L 2194 1759 
z
M 3341 1997 
L 3341 0 
L 2766 0 
L 2766 531 
Q 2569 213 2275 61 
Q 1981 -91 1556 -91 
Q 1019 -91 701 211 
Q 384 513 384 1019 
Q 384 1609 779 1909 
Q 1175 2209 1959 2209 
L 2766 2209 
L 2766 2266 
Q 2766 2663 2505 2880 
Q 2244 3097 1772 3097 
Q 1472 3097 1187 3025 
Q 903 2953 641 2809 
L 641 3341 
Q 956 3463 1253 3523 
Q 1550 3584 1831 3584 
Q 2591 3584 2966 3190 
Q 3341 2797 3341 1997 
z
" transform="scale(0.015625)"/>
       <path id="DejaVuSans-62" d="M 3116 1747 
Q 3116 2381 2855 2742 
Q 2594 3103 2138 3103 
Q 1681 3103 1420 2742 
Q 1159 2381 1159 1747 
Q 1159 1113 1420 752 
Q 1681 391 2138 391 
Q 2594 391 2855 752 
Q 3116 1113 3116 1747 
z
M 1159 2969 
Q 1341 3281 1617 3432 
Q 1894 3584 2278 3584 
Q 2916 3584 3314 3078 
Q 3713 2572 3713 1747 
Q 3713 922 3314 415 
Q 2916 -91 2278 -91 
Q 1894 -91 1617 61 
Q 1341 213 1159 525 
L 1159 0 
L 581 0 
L 581 4863 
L 1159 4863 
L 1159 2969 
z
" transform="scale(0.015625)"/>
       <path id="DejaVuSans-74" d="M 1172 4494 
L 1172 3500 
L 2356 3500 
L 2356 3053 
L 1172 3053 
L 1172 1153 
Q 1172 725 1289 603 
Q 1406 481 1766 481 
L 2356 481 
L 2356 0 
L 1766 0 
Q 1100 0 847 248 
Q 594 497 594 1153 
L 594 3053 
L 172 3053 
L 172 3500 
L 594 3500 
L 594 4494 
L 1172 4494 
z
" transform="scale(0.015625)"/>
       <path id="DejaVuSans-79" d="M 2059 -325 
Q 1816 -950 1584 -1140 
Q 1353 -1331 966 -1331 
L 506 -1331 
L 506 -850 
L 844 -850 
Q 1081 -850 1212 -737 
Q 1344 -625 1503 -206 
L 1606 56 
L 191 3500 
L 800 3500 
L 1894 763 
L 2988 3500 
L 3597 3500 
L 2059 -325 
z
" transform="scale(0.015625)"/>
       <path id="DejaVuSans-75" d="M 544 1381 
L 544 3500 
L 1119 3500 
L 1119 1403 
Q 1119 906 1312 657 
Q 1506 409 1894 409 
Q 2359 409 2629 706 
Q 2900 1003 2900 1516 
L 2900 3500 
L 3475 3500 
L 3475 0 
L 2900 0 
L 2900 538 
Q 2691 219 2414 64 
Q 2138 -91 1772 -91 
Q 1169 -91 856 284 
Q 544 659 544 1381 
z
M 1991 3584 
L 1991 3584 
z
" transform="scale(0.015625)"/>
       <path id="DejaVuSans-6e" d="M 3513 2113 
L 3513 0 
L 2938 0 
L 2938 2094 
Q 2938 2591 2744 2837 
Q 2550 3084 2163 3084 
Q 1697 3084 1428 2787 
Q 1159 2491 1159 1978 
L 1159 0 
L 581 0 
L 581 3500 
L 1159 3500 
L 1159 2956 
Q 1366 3272 1645 3428 
Q 1925 3584 2291 3584 
Q 2894 3584 3203 3211 
Q 3513 2838 3513 2113 
z
" transform="scale(0.015625)"/>
      </defs>
      <use xlink:href="#DejaVuSans-50"/>
      <use xlink:href="#DejaVuSans-6f" x="56.677734"/>
      <use xlink:href="#DejaVuSans-77" x="117.859375"/>
      <use xlink:href="#DejaVuSans-65" x="199.646484"/>
      <use xlink:href="#DejaVuSans-72" x="261.169922"/>
      <use xlink:href="#DejaVuSans-20" x="302.283203"/>
      <use xlink:href="#DejaVuSans-28" x="334.070312"/>
      <use xlink:href="#DejaVuSans-61" x="373.083984"/>
      <use xlink:href="#DejaVuSans-72" x="434.363281"/>
      <use xlink:href="#DejaVuSans-62" x="475.476562"/>
      <use xlink:href="#DejaVuSans-69" x="538.953125"/>
      <use xlink:href="#DejaVuSans-74" x="566.736328"/>
      <use xlink:href="#DejaVuSans-72" x="605.945312"/>
      <use xlink:href="#DejaVuSans-61" x="647.058594"/>
      <use xlink:href="#DejaVuSans-72" x="708.337891"/>
      <use xlink:href="#DejaVuSans-79" x="749.451172"/>
      <use xlink:href="#DejaVuSans-20" x="808.630859"/>
      <use xlink:href="#DejaVuSans-75" x="840.417969"/>
      <use xlink:href="#DejaVuSans-6e" x="903.796875"/>
      <use xlink:href="#DejaVuSans-69" x="967.175781"/>
      <use xlink:href="#DejaVuSans-74" x="994.958984"/>
      <use xlink:href="#DejaVuSans-73" x="1034.167969"/>
      <use xlink:href="#DejaVuSans-29" x="1086.267578"/>
     </g>
    </g>
   </g>
   <g id="line2d_23">
    <path d="M 115.363636 340.081549 
L 119.726204 340.209807 
L 121.316512 340.470325 
L 122.389399 340.863933 
L 123.239085 341.410078 
L 123.979707 342.154187 
L 124.667065 343.170758 
L 125.329059 344.563178 
L 125.98598 346.48839 
L 126.645438 349.145588 
L 127.315042 352.818757 
L 127.766517 354.976789 
L 128.481775 356.974507 
L 129.204642 359.683974 
L 129.942727 363.354529 
L 130.394202 365.283208 
L 131.180479 368.28322 
L 131.418898 369.358611 
L 131.500063 369.19022 
L 132.666796 366.942695 
L 133.052325 366.555436 
L 133.765047 330.201099 
L 134.860761 261.877886 
L 135.629283 228.035235 
L 135.961548 213.343229 
L 136.179677 211.693255 
L 136.21265 212.268917 
L 136.509406 217.769653 
L 136.567742 216.734049 
L 136.82138 212.132964 
L 136.851817 213.575969 
L 137.31851 231.030122 
L 137.414892 232.96238 
L 137.480838 232.135472 
L 137.731939 227.634784 
L 138.208778 199.111633 
L 138.470025 172.694344 
L 138.650107 165.2817 
L 139.015346 152.547557 
L 139.119337 155.316747 
L 139.324783 163.80815 
L 139.682413 183.489208 
L 139.773722 185.690517 
L 139.811768 184.019916 
L 140.227733 160.911066 
L 140.43318 154.471293 
L 140.567608 149.751967 
L 140.955673 127.941114 
L 141.166193 125.246922 
L 141.341203 124.936656 
L 141.607522 122.131065 
L 142.124943 92.302617 
L 142.398872 85.633558 
L 142.619536 79.043435 
L 142.832592 71.431318 
L 142.916292 72.179713 
L 143.200366 74.593659 
L 143.251094 74.161461 
L 143.618869 71.250768 
L 143.63916 71.787086 
L 144.123607 83.230185 
L 144.169262 82.813725 
L 144.790674 78.223058 
L 144.876911 77.102681 
L 145.335995 69.620224 
L 145.663188 67.229692 
L 145.828052 66.961704 
L 145.85088 66.974144 
L 145.96248 67.208402 
L 146.147636 68.231402 
L 146.421564 71.189846 
L 146.791875 77.897054 
L 146.944058 78.835897 
L 147.461479 82.786271 
L 147.50967 83.224312 
L 147.542643 82.580389 
L 148.016945 71.244974 
L 148.141228 72.185163 
L 148.437984 74.583447 
L 148.49632 74.105871 
L 148.808294 71.433832 
L 148.831122 72.234285 
L 149.429707 89.409994 
L 149.576817 94.692685 
L 149.911618 112.913851 
L 150.175401 123.923381 
L 150.456939 125.22008 
L 150.604049 125.462421 
L 150.921096 136.689914 
L 151.276189 155.431695 
L 151.428371 160.458454 
L 151.897601 185.700068 
L 151.910283 185.395216 
L 152.201966 175.740332 
L 152.57735 154.97401 
L 152.668659 152.551762 
L 152.714314 154.159667 
L 153.302753 180.004954 
L 153.779592 217.425934 
L 154.177803 231.160673 
L 154.329986 232.95953 
L 154.370568 232.165347 
L 154.712979 223.366418 
L 154.953934 212.126674 
L 155.032562 213.472914 
L 155.288736 217.772376 
L 155.339464 216.899161 
L 155.643829 211.694568 
L 155.717384 212.199318 
L 156.036967 215.089506 
L 156.648234 245.82929 
L 157.594302 281.041861 
L 158.956336 347.289528 
L 159.658912 366.684417 
L 160.848473 367.061765 
L 161.738741 367.373638 
L 162.428635 367.576997 
L 163.141357 367.554342 
L 163.922561 367.300774 
L 164.617528 367.102741 
L 166.687211 366.684304 
L 166.745548 366.575764 
L 168.006127 346.210074 
L 168.736603 331.597562 
L 171.422626 268.968976 
L 174.172058 233.614572 
L 175.298209 214.029815 
L 176.459869 211.687837 
L 176.492842 211.83665 
L 177.801612 217.779143 
L 177.842194 217.620101 
L 179.260029 212.12452 
L 179.27271 212.232975 
L 180.756491 225.493805 
L 181.129338 227.626743 
L 182.329044 230.911616 
L 183.282721 232.97679 
L 183.292867 232.965098 
L 184.269372 232.010903 
L 185.144422 231.452692 
L 185.948453 231.19497 
L 186.714439 231.180032 
L 187.477888 231.389241 
L 188.276846 231.84505 
L 189.141751 232.604769 
L 189.484162 232.975529 
L 189.542498 232.86353 
L 190.473348 230.818765 
L 191.543699 227.901727 
L 191.875964 226.558753 
L 193.156834 215.417022 
L 193.504318 212.124582 
L 193.585482 212.422663 
L 194.962734 217.778901 
L 195.048971 217.399071 
L 196.304477 211.688157 
L 196.408469 211.894881 
L 197.598029 214.506694 
L 199.152828 242.170313 
L 201.445712 270.723096 
L 203.725915 325.199063 
L 204.61111 344.99387 
L 205.897053 366.687617 
L 207.880499 367.36401 
L 209.645817 369.094108 
L 209.952718 369.359085 
L 210.00091 369.266823 
L 211.482153 366.678143 
L 212.930424 364.583608 
L 213.191671 364.062265 
L 214.50805 361.031959 
L 215.801602 358.596324 
L 217.085009 356.640837 
L 218.378561 355.066498 
L 218.997436 354.238795 
L 220.138806 351.045154 
L 221.272566 348.512463 
L 222.406326 346.50857 
L 223.552768 344.922921 
L 224.729647 343.667574 
L 225.964862 342.671947 
L 227.29646 341.884488 
L 228.782776 341.267221 
L 230.515121 340.794717 
L 232.658359 340.450199 
L 235.565046 340.223217 
L 240.285243 340.105125 
L 253.799056 340.076867 
L 322.337017 340.18442 
L 324.051607 340.427214 
L 325.170149 340.802009 
L 326.042662 341.326166 
L 326.79343 342.039333 
L 327.485861 343.013449 
L 328.150391 344.348028 
L 328.807313 346.190523 
L 329.466771 348.737942 
L 330.133837 352.250044 
L 330.701986 355.037767 
L 331.417244 357.056854 
L 332.142648 359.804832 
L 332.883269 363.528603 
L 333.294162 365.249536 
L 334.080439 368.239274 
L 334.329004 369.358611 
L 334.412704 369.184768 
L 335.576901 366.942695 
L 335.96243 366.555436 
L 336.675152 330.201099 
L 337.770867 261.877886 
L 338.539389 228.035235 
L 338.871654 213.343229 
L 339.089782 211.693255 
L 339.122755 212.268917 
L 339.419511 217.769653 
L 339.477848 216.734049 
L 339.731485 212.132964 
L 339.761922 213.575969 
L 340.228615 231.030122 
L 340.324998 232.96238 
L 340.390943 232.135472 
L 340.642045 227.634784 
L 341.118883 199.111633 
L 341.38013 172.694344 
L 341.560213 165.2817 
L 341.925451 152.547557 
L 342.029442 155.316747 
L 342.234889 163.80815 
L 342.592518 183.489208 
L 342.683828 185.690517 
L 342.721873 184.019916 
L 343.137839 160.911066 
L 343.343285 154.471293 
L 343.477713 149.751967 
L 343.865779 127.941114 
L 344.076298 125.246922 
L 344.251308 124.936656 
L 344.517628 122.131065 
L 345.035048 92.302617 
L 345.308977 85.633558 
L 345.529642 79.043435 
L 345.742697 71.431318 
L 345.826398 72.179713 
L 346.110472 74.593659 
L 346.161199 74.161461 
L 346.528974 71.250768 
L 346.549265 71.787086 
L 347.033713 83.230185 
L 347.079368 82.813725 
L 347.70078 78.223058 
L 347.787017 77.102681 
L 348.246101 69.620224 
L 348.573293 67.229692 
L 348.738158 66.961704 
L 348.760985 66.974144 
L 348.872586 67.208402 
L 349.057741 68.231402 
L 349.33167 71.189846 
L 349.701981 77.897054 
L 349.854163 78.835897 
L 350.371584 82.786271 
L 350.419775 83.224312 
L 350.452748 82.580389 
L 350.927051 71.244974 
L 351.051333 72.185163 
L 351.348089 74.583447 
L 351.406426 74.105871 
L 351.7184 71.433832 
L 351.741227 72.234285 
L 352.339812 89.409994 
L 352.486922 94.692685 
L 352.821724 112.913851 
L 353.085507 123.923381 
L 353.367045 125.22008 
L 353.514154 125.462421 
L 353.831201 136.689914 
L 354.186294 155.431695 
L 354.338477 160.458454 
L 354.807706 185.700068 
L 354.820388 185.395216 
L 355.112071 175.740332 
L 355.487455 154.97401 
L 355.578765 152.551762 
L 355.624419 154.159667 
L 356.212859 180.004954 
L 356.689698 217.425934 
L 357.087909 231.160673 
L 357.240091 232.95953 
L 357.280673 232.165347 
L 357.623084 223.366418 
L 357.86404 212.126674 
L 357.942667 213.472914 
L 358.198841 217.772376 
L 358.249569 216.899161 
L 358.553934 211.694568 
L 358.627489 212.199318 
L 358.947072 215.089506 
L 359.558339 245.82929 
L 360.504408 281.041861 
L 361.866442 347.289528 
L 362.569018 366.684417 
L 363.758578 367.061765 
L 364.648846 367.373638 
L 365.338741 367.576997 
L 366.051463 367.554342 
L 366.832666 367.300774 
L 367.527634 367.102741 
L 369.597317 366.684304 
L 369.655653 366.575764 
L 370.916232 346.210074 
L 371.646709 331.597562 
L 374.332731 268.968976 
L 377.082163 233.614572 
L 378.208314 214.029815 
L 379.369975 211.687837 
L 379.402947 211.83665 
L 380.711718 217.779143 
L 380.7523 217.620101 
L 382.170134 212.12452 
L 382.182816 212.232975 
L 383.666596 225.493805 
L 384.039443 227.626743 
L 385.239149 230.911616 
L 386.192827 232.97679 
L 386.202972 232.965098 
L 387.179477 232.010903 
L 388.054527 231.452692 
L 388.858558 231.19497 
L 389.624544 231.180032 
L 390.387993 231.389241 
L 391.186952 231.84505 
L 392.051856 232.604769 
L 392.394267 232.975529 
L 392.452604 232.86353 
L 393.383454 230.818765 
L 394.453805 227.901727 
L 394.78607 226.558753 
L 396.06694 215.417022 
L 396.414423 212.124582 
L 396.495587 212.422663 
L 397.87284 217.778901 
L 397.959077 217.399071 
L 399.214583 211.688157 
L 399.318574 211.894881 
L 400.508135 214.506694 
L 402.062933 242.170313 
L 404.355818 270.723096 
L 406.63602 325.199063 
L 407.521215 344.99387 
L 408.807158 366.687617 
L 410.790604 367.36401 
L 412.555922 369.094108 
L 412.862824 369.359085 
L 412.911015 369.266823 
L 414.392259 366.678143 
L 415.84053 364.583608 
L 416.101776 364.062265 
L 417.418156 361.031959 
L 418.711708 358.596324 
L 419.995114 356.640837 
L 421.288666 355.066498 
L 421.907542 354.238795 
L 423.048911 351.045154 
L 424.182671 348.512463 
L 425.316432 346.50857 
L 426.462874 344.922921 
L 427.639752 343.667574 
L 428.874968 342.671947 
L 430.206565 341.884488 
L 431.692882 341.267221 
L 433.425227 340.794717 
L 435.568465 340.450199 
L 438.475152 340.223217 
L 443.195348 340.105125 
L 456.709161 340.076867 
L 525.247122 340.18442 
L 526.961713 340.427214 
L 528.080254 340.802009 
L 528.952768 341.326166 
L 529.703535 342.039333 
L 530.395966 343.013449 
L 531.060497 344.348028 
L 531.717418 346.190523 
L 532.376876 348.737942 
L 533.043943 352.250044 
L 533.612091 355.037767 
L 534.327349 357.056854 
L 535.052753 359.804832 
L 535.793375 363.528603 
L 536.204268 365.249536 
L 536.990544 368.239274 
L 537.239109 369.358611 
L 537.32281 369.184768 
L 538.487007 366.942695 
L 538.872536 366.555436 
L 539.585257 330.201099 
L 540.680972 261.877886 
L 541.449494 228.035235 
L 541.781759 213.343229 
L 541.999888 211.693255 
L 542.032861 212.268917 
L 542.329617 217.769653 
L 542.387953 216.734049 
L 542.641591 212.132964 
L 542.672027 213.575969 
L 543.138721 231.030122 
L 543.235103 232.96238 
L 543.301049 232.135472 
L 543.55215 227.634784 
L 544.028989 199.111633 
L 544.290236 172.694344 
L 544.470318 165.2817 
L 544.835556 152.547557 
L 544.939548 155.316747 
L 545.144994 163.80815 
L 545.502623 183.489208 
L 545.593933 185.690517 
L 545.631979 184.019916 
L 546.047944 160.911066 
L 546.253391 154.471293 
L 546.387819 149.751967 
L 546.775884 127.941114 
L 546.986404 125.246922 
L 547.161414 124.936656 
L 547.427733 122.131065 
L 547.945154 92.302617 
L 548.219082 85.633558 
L 548.439747 79.043435 
L 548.652803 71.431318 
L 548.736503 72.179713 
L 549.020577 74.593659 
L 549.071305 74.161461 
L 549.439079 71.250768 
L 549.45937 71.787086 
L 549.943818 83.230185 
L 549.989473 82.813725 
L 550.610885 78.223058 
L 550.697122 77.102681 
L 551.156206 69.620224 
L 551.483399 67.229692 
L 551.648263 66.961704 
L 551.671091 66.974144 
L 551.782691 67.208402 
L 551.967847 68.231402 
L 552.241775 71.189846 
L 552.612086 77.897054 
L 552.764269 78.835897 
L 553.28169 82.786271 
L 553.329881 83.224312 
L 553.362854 82.580389 
L 553.837156 71.244974 
L 553.961438 72.185163 
L 554.258194 74.583447 
L 554.316531 74.105871 
L 554.628505 71.433832 
L 554.651333 72.234285 
L 555.249918 89.409994 
L 555.397027 94.692685 
L 555.731829 112.913851 
L 555.995612 123.923381 
L 556.27715 125.22008 
L 556.42426 125.462421 
L 556.741307 136.689914 
L 557.0964 155.431695 
L 557.248582 160.458454 
L 557.717812 185.700068 
L 557.730494 185.395216 
L 558.022177 175.740332 
L 558.397561 154.97401 
L 558.48887 152.551762 
L 558.534525 154.159667 
L 559.122964 180.004954 
L 559.599803 217.425934 
L 559.998014 231.160673 
L 560.150197 232.95953 
L 560.190779 232.165347 
L 560.533189 223.366418 
L 560.774145 212.126674 
L 560.852773 213.472914 
L 561.108947 217.772376 
L 561.159674 216.899161 
L 561.46404 211.694568 
L 561.537595 212.199318 
L 561.857178 215.089506 
L 562.468445 245.82929 
L 563.414513 281.041861 
L 564.776547 347.289528 
L 565.479123 366.684417 
L 566.668684 367.061765 
L 567.558952 367.373638 
L 568.248846 367.576997 
L 568.961568 367.554342 
L 569.742772 367.300774 
L 570.437739 367.102741 
L 572.507422 366.684304 
L 572.565759 366.575764 
L 573.826338 346.210074 
L 574.556814 331.597562 
L 577.242837 268.968976 
L 579.992269 233.614572 
L 581.11842 214.029815 
L 582.28008 211.687837 
L 582.313053 211.83665 
L 583.621823 217.779143 
L 583.662405 217.620101 
L 585.080239 212.12452 
L 585.092921 212.232975 
L 586.576702 225.493805 
L 586.949549 227.626743 
L 588.149255 230.911616 
L 589.102932 232.97679 
L 589.113078 232.965098 
L 590.089583 232.010903 
L 590.964633 231.452692 
L 591.768664 231.19497 
L 592.534649 231.180032 
L 593.298099 231.389241 
L 594.097057 231.84505 
L 594.961962 232.604769 
L 595.304372 232.975529 
L 595.362709 232.86353 
L 596.293559 230.818765 
L 597.36391 227.901727 
L 597.696175 226.558753 
L 598.977045 215.417022 
L 599.324529 212.124582 
L 599.405693 212.422663 
L 600.782945 217.778901 
L 600.869182 217.399071 
L 602.124688 211.688157 
L 602.22868 211.894881 
L 603.41824 214.506694 
L 604.973039 242.170313 
L 607.265923 270.723096 
L 609.546125 325.199063 
L 610.431321 344.99387 
L 611.717264 366.687617 
L 613.70071 367.36401 
L 615.466028 369.094108 
L 615.772929 369.359085 
L 615.82112 369.266823 
L 617.302364 366.678143 
L 618.750635 364.583608 
L 619.011882 364.062265 
L 620.328261 361.031959 
L 621.621813 358.596324 
L 622.636364 357.015833 
L 622.636364 357.015833 
" clip-path="url(#p45e860c8cc)" style="fill: none; stroke: #d62728; stroke-width: 1.5; stroke-linecap: square"/>
   </g>
   <g id="patch_3">
    <path d="M 90 384.48 
L 90 51.84 
" style="fill: none; stroke: #000000; stroke-width: 0.8; stroke-linejoin: miter; stroke-linecap: square"/>
   </g>
   <g id="patch_4">
    <path d="M 648 384.48 
L 648 51.84 
" style="fill: none; stroke: #000000; stroke-width: 0.8; stroke-linejoin: miter; stroke-linecap: square"/>
   </g>
   <g id="patch_5">
    <path d="M 90 384.48 
L 648 384.48 
" style="fill: none; stroke: #000000; stroke-width: 0.8; stroke-linejoin: miter; stroke-linecap: square"/>
   </g>
   <g id="patch_6">
    <path d="M 90 51.84 
L 648 51.84 
" style="fill: none; stroke: #000000; stroke-width: 0.8; stroke-linejoin: miter; stroke-linecap: square"/>
   </g>
   <g id="text_14">
    <!-- Simulated Output Power from Pulse -->
    <g transform="translate(262.315313 45.84) scale(0.12 -0.12)">
     <defs>
      <path id="DejaVuSans-53" d="M 3425 4513 
L 3425 3897 
Q 3066 4069 2747 4153 
Q 2428 4238 2131 4238 
Q 1616 4238 1336 4038 
Q 1056 3838 1056 3469 
Q 1056 3159 1242 3001 
Q 1428 2844 1947 2747 
L 2328 2669 
Q 3034 2534 3370 2195 
Q 3706 1856 3706 1288 
Q 3706 609 3251 259 
Q 2797 -91 1919 -91 
Q 1588 -91 1214 -16 
Q 841 59 441 206 
L 441 856 
Q 825 641 1194 531 
Q 1563 422 1919 422 
Q 2459 422 2753 634 
Q 3047 847 3047 1241 
Q 3047 1584 2836 1778 
Q 2625 1972 2144 2069 
L 1759 2144 
Q 1053 2284 737 2584 
Q 422 2884 422 3419 
Q 422 4038 858 4394 
Q 1294 4750 2059 4750 
Q 2388 4750 2728 4690 
Q 3069 4631 3425 4513 
z
" transform="scale(0.015625)"/>
      <path id="DejaVuSans-6c" d="M 603 4863 
L 1178 4863 
L 1178 0 
L 603 0 
L 603 4863 
z
" transform="scale(0.015625)"/>
      <path id="DejaVuSans-64" d="M 2906 2969 
L 2906 4863 
L 3481 4863 
L 3481 0 
L 2906 0 
L 2906 525 
Q 2725 213 2448 61 
Q 2172 -91 1784 -91 
Q 1150 -91 751 415 
Q 353 922 353 1747 
Q 353 2572 751 3078 
Q 1150 3584 1784 3584 
Q 2172 3584 2448 3432 
Q 2725 3281 2906 2969 
z
M 947 1747 
Q 947 1113 1208 752 
Q 1469 391 1925 391 
Q 2381 391 2643 752 
Q 2906 1113 2906 1747 
Q 2906 2381 2643 2742 
Q 2381 3103 1925 3103 
Q 1469 3103 1208 2742 
Q 947 2381 947 1747 
z
" transform="scale(0.015625)"/>
      <path id="DejaVuSans-4f" d="M 2522 4238 
Q 1834 4238 1429 3725 
Q 1025 3213 1025 2328 
Q 1025 1447 1429 934 
Q 1834 422 2522 422 
Q 3209 422 3611 934 
Q 4013 1447 4013 2328 
Q 4013 3213 3611 3725 
Q 3209 4238 2522 4238 
z
M 2522 4750 
Q 3503 4750 4090 4092 
Q 4678 3434 4678 2328 
Q 4678 1225 4090 567 
Q 3503 -91 2522 -91 
Q 1538 -91 948 565 
Q 359 1222 359 2328 
Q 359 3434 948 4092 
Q 1538 4750 2522 4750 
z
" transform="scale(0.015625)"/>
      <path id="DejaVuSans-70" d="M 1159 525 
L 1159 -1331 
L 581 -1331 
L 581 3500 
L 1159 3500 
L 1159 2969 
Q 1341 3281 1617 3432 
Q 1894 3584 2278 3584 
Q 2916 3584 3314 3078 
Q 3713 2572 3713 1747 
Q 3713 922 3314 415 
Q 2916 -91 2278 -91 
Q 1894 -91 1617 61 
Q 1341 213 1159 525 
z
M 3116 1747 
Q 3116 2381 2855 2742 
Q 2594 3103 2138 3103 
Q 1681 3103 1420 2742 
Q 1159 2381 1159 1747 
Q 1159 1113 1420 752 
Q 1681 391 2138 391 
Q 2594 391 2855 752 
Q 3116 1113 3116 1747 
z
" transform="scale(0.015625)"/>
      <path id="DejaVuSans-66" d="M 2375 4863 
L 2375 4384 
L 1825 4384 
Q 1516 4384 1395 4259 
Q 1275 4134 1275 3809 
L 1275 3500 
L 2222 3500 
L 2222 3053 
L 1275 3053 
L 1275 0 
L 697 0 
L 697 3053 
L 147 3053 
L 147 3500 
L 697 3500 
L 697 3744 
Q 697 4328 969 4595 
Q 1241 4863 1831 4863 
L 2375 4863 
z
" transform="scale(0.015625)"/>
     </defs>
     <use xlink:href="#DejaVuSans-53"/>
     <use xlink:href="#DejaVuSans-69" x="63.476562"/>
     <use xlink:href="#DejaVuSans-6d" x="91.259766"/>
     <use xlink:href="#DejaVuSans-75" x="188.671875"/>
     <use xlink:href="#DejaVuSans-6c" x="252.050781"/>
     <use xlink:href="#DejaVuSans-61" x="279.833984"/>
     <use xlink:href="#DejaVuSans-74" x="341.113281"/>
     <use xlink:href="#DejaVuSans-65" x="380.322266"/>
     <use xlink:href="#DejaVuSans-64" x="441.845703"/>
     <use xlink:href="#DejaVuSans-20" x="505.322266"/>
     <use xlink:href="#DejaVuSans-4f" x="537.109375"/>
     <use xlink:href="#DejaVuSans-75" x="615.820312"/>
     <use xlink:href="#DejaVuSans-74" x="679.199219"/>
     <use xlink:href="#DejaVuSans-70" x="718.408203"/>
     <use xlink:href="#DejaVuSans-75" x="781.884766"/>
     <use xlink:href="#DejaVuSans-74" x="845.263672"/>
     <use xlink:href="#DejaVuSans-20" x="884.472656"/>
     <use xlink:href="#DejaVuSans-50" x="916.259766"/>
     <use xlink:href="#DejaVuSans-6f" x="972.9375"/>
     <use xlink:href="#DejaVuSans-77" x="1034.119141"/>
     <use xlink:href="#DejaVuSans-65" x="1115.90625"/>
     <use xlink:href="#DejaVuSans-72" x="1177.429688"/>
     <use xlink:href="#DejaVuSans-20" x="1218.542969"/>
     <use xlink:href="#DejaVuSans-66" x="1250.330078"/>
     <use xlink:href="#DejaVuSans-72" x="1285.535156"/>
     <use xlink:href="#DejaVuSans-6f" x="1324.398438"/>
     <use xlink:href="#DejaVuSans-6d" x="1385.580078"/>
     <use xlink:href="#DejaVuSans-20" x="1482.992188"/>
     <use xlink:href="#DejaVuSans-50" x="1514.779297"/>
     <use xlink:href="#DejaVuSans-75" x="1573.332031"/>
     <use xlink:href="#DejaVuSans-6c" x="1636.710938"/>
     <use xlink:href="#DejaVuSans-73" x="1664.494141"/>
     <use xlink:href="#DejaVuSans-65" x="1716.59375"/>
    </g>
   </g>
  </g>
 </g>
 <defs>
  <clipPath id="p45e860c8cc">
   <rect x="90" y="51.84" width="558" height="332.64"/>
  </clipPath>
 </defs>
</svg>
