<?xml version="1.0" encoding="utf-8" standalone="no"?>
<!DOCTYPE svg PUBLIC "-//W3C//DTD SVG 1.1//EN"
  "http://www.w3.org/Graphics/SVG/1.1/DTD/svg11.dtd">
<svg xmlns:xlink="http://www.w3.org/1999/xlink" width="864pt" height="504pt" viewBox="0 0 864 504" xmlns="http://www.w3.org/2000/svg" version="1.1">
 <metadata>
  <rdf:RDF xmlns:dc="http://purl.org/dc/elements/1.1/" xmlns:cc="http://creativecommons.org/ns#" xmlns:rdf="http://www.w3.org/1999/02/22-rdf-syntax-ns#">
   <cc:Work>
    <dc:type rdf:resource="http://purl.org/dc/dcmitype/StillImage"/>
    <dc:date>2025-08-08T15:51:39.323929</dc:date>
    <dc:format>image/svg+xml</dc:format>
    <dc:creator>
     <cc:Agent>
      <dc:title>Matplotlib v3.7.5, https://matplotlib.org/</dc:title>
     </cc:Agent>
    </dc:creator>
   </cc:Work>
  </rdf:RDF>
 </metadata>
 <defs>
  <style type="text/css">*{stroke-linejoin: round; stroke-linecap: butt}</style>
 </defs>
 <g id="figure_1">
  <g id="patch_1">
   <path d="M 0 504 
L 864 504 
L 864 0 
L 0 0 
z
" style="fill: #ffffff"/>
  </g>
  <g id="axes_1">
   <g id="patch_2">
    <path d="M 54.785 462.04 
L 806.02 462.04 
L 806.02 29.04 
L 54.785 29.04 
z
" style="fill: #ffffff"/>
   </g>
   <g id="matplotlib.axis_1">
    <g id="xtick_1">
     <g id="line2d_1">
      <defs>
       <path id="mba7ef7fa09" d="M 0 0 
L 0 3.5 
" style="stroke: #000000; stroke-width: 0.8"/>
      </defs>
      <g>
       <use xlink:href="#mba7ef7fa09" x="88.932045" y="462.04" style="stroke: #000000; stroke-width: 0.8"/>
      </g>
     </g>
     <g id="text_1">
      <!-- 0 -->
      <g transform="translate(85.750795 476.638438) scale(0.1 -0.1)">
       <defs>
        <path id="DejaVuSans-30" d="M 2034 4250 
Q 1547 4250 1301 3770 
Q 1056 3291 1056 2328 
Q 1056 1369 1301 889 
Q 1547 409 2034 409 
Q 2525 409 2770 889 
Q 3016 1369 3016 2328 
Q 3016 3291 2770 3770 
Q 2525 4250 2034 4250 
z
M 2034 4750 
Q 2819 4750 3233 4129 
Q 3647 3509 3647 2328 
Q 3647 1150 3233 529 
Q 2819 -91 2034 -91 
Q 1250 -91 836 529 
Q 422 1150 422 2328 
Q 422 3509 836 4129 
Q 1250 4750 2034 4750 
z
" transform="scale(0.015625)"/>
       </defs>
       <use xlink:href="#DejaVuSans-30"/>
      </g>
     </g>
    </g>
    <g id="xtick_2">
     <g id="line2d_2">
      <g>
       <use xlink:href="#mba7ef7fa09" x="225.520227" y="462.04" style="stroke: #000000; stroke-width: 0.8"/>
      </g>
     </g>
     <g id="text_2">
      <!-- 200 -->
      <g transform="translate(215.976477 476.638438) scale(0.1 -0.1)">
       <defs>
        <path id="DejaVuSans-32" d="M 1228 531 
L 3431 531 
L 3431 0 
L 469 0 
L 469 531 
Q 828 903 1448 1529 
Q 2069 2156 2228 2338 
Q 2531 2678 2651 2914 
Q 2772 3150 2772 3378 
Q 2772 3750 2511 3984 
Q 2250 4219 1831 4219 
Q 1534 4219 1204 4116 
Q 875 4013 500 3803 
L 500 4441 
Q 881 4594 1212 4672 
Q 1544 4750 1819 4750 
Q 2544 4750 2975 4387 
Q 3406 4025 3406 3419 
Q 3406 3131 3298 2873 
Q 3191 2616 2906 2266 
Q 2828 2175 2409 1742 
Q 1991 1309 1228 531 
z
" transform="scale(0.015625)"/>
       </defs>
       <use xlink:href="#DejaVuSans-32"/>
       <use xlink:href="#DejaVuSans-30" x="63.623047"/>
       <use xlink:href="#DejaVuSans-30" x="127.246094"/>
      </g>
     </g>
    </g>
    <g id="xtick_3">
     <g id="line2d_3">
      <g>
       <use xlink:href="#mba7ef7fa09" x="362.108409" y="462.04" style="stroke: #000000; stroke-width: 0.8"/>
      </g>
     </g>
     <g id="text_3">
      <!-- 400 -->
      <g transform="translate(352.564659 476.638438) scale(0.1 -0.1)">
       <defs>
        <path id="DejaVuSans-34" d="M 2419 4116 
L 825 1625 
L 2419 1625 
L 2419 4116 
z
M 2253 4666 
L 3047 4666 
L 3047 1625 
L 3713 1625 
L 3713 1100 
L 3047 1100 
L 3047 0 
L 2419 0 
L 2419 1100 
L 313 1100 
L 313 1709 
L 2253 4666 
z
" transform="scale(0.015625)"/>
       </defs>
       <use xlink:href="#DejaVuSans-34"/>
       <use xlink:href="#DejaVuSans-30" x="63.623047"/>
       <use xlink:href="#DejaVuSans-30" x="127.246094"/>
      </g>
     </g>
    </g>
    <g id="xtick_4">
     <g id="line2d_4">
      <g>
       <use xlink:href="#mba7ef7fa09" x="498.696591" y="462.04" style="stroke: #000000; stroke-width: 0.8"/>
      </g>
     </g>
     <g id="text_4">
      <!-- 600 -->
      <g transform="translate(489.152841 476.638438) scale(0.1 -0.1)">
       <defs>
        <path id="DejaVuSans-36" d="M 2113 2584 
Q 1688 2584 1439 2293 
Q 1191 2003 1191 1497 
Q 1191 994 1439 701 
Q 1688 409 2113 409 
Q 2538 409 2786 701 
Q 3034 994 3034 1497 
Q 3034 2003 2786 2293 
Q 2538 2584 2113 2584 
z
M 3366 4563 
L 3366 3988 
Q 3128 4100 2886 4159 
Q 2644 4219 2406 4219 
Q 1781 4219 1451 3797 
Q 1122 3375 1075 2522 
Q 1259 2794 1537 2939 
Q 1816 3084 2150 3084 
Q 2853 3084 3261 2657 
Q 3669 2231 3669 1497 
Q 3669 778 3244 343 
Q 2819 -91 2113 -91 
Q 1303 -91 875 529 
Q 447 1150 447 2328 
Q 447 3434 972 4092 
Q 1497 4750 2381 4750 
Q 2619 4750 2861 4703 
Q 3103 4656 3366 4563 
z
" transform="scale(0.015625)"/>
       </defs>
       <use xlink:href="#DejaVuSans-36"/>
       <use xlink:href="#DejaVuSans-30" x="63.623047"/>
       <use xlink:href="#DejaVuSans-30" x="127.246094"/>
      </g>
     </g>
    </g>
    <g id="xtick_5">
     <g id="line2d_5">
      <g>
       <use xlink:href="#mba7ef7fa09" x="635.284773" y="462.04" style="stroke: #000000; stroke-width: 0.8"/>
      </g>
     </g>
     <g id="text_5">
      <!-- 800 -->
      <g transform="translate(625.741023 476.638438) scale(0.1 -0.1)">
       <defs>
        <path id="DejaVuSans-38" d="M 2034 2216 
Q 1584 2216 1326 1975 
Q 1069 1734 1069 1313 
Q 1069 891 1326 650 
Q 1584 409 2034 409 
Q 2484 409 2743 651 
Q 3003 894 3003 1313 
Q 3003 1734 2745 1975 
Q 2488 2216 2034 2216 
z
M 1403 2484 
Q 997 2584 770 2862 
Q 544 3141 544 3541 
Q 544 4100 942 4425 
Q 1341 4750 2034 4750 
Q 2731 4750 3128 4425 
Q 3525 4100 3525 3541 
Q 3525 3141 3298 2862 
Q 3072 2584 2669 2484 
Q 3125 2378 3379 2068 
Q 3634 1759 3634 1313 
Q 3634 634 3220 271 
Q 2806 -91 2034 -91 
Q 1263 -91 848 271 
Q 434 634 434 1313 
Q 434 1759 690 2068 
Q 947 2378 1403 2484 
z
M 1172 3481 
Q 1172 3119 1398 2916 
Q 1625 2713 2034 2713 
Q 2441 2713 2670 2916 
Q 2900 3119 2900 3481 
Q 2900 3844 2670 4047 
Q 2441 4250 2034 4250 
Q 1625 4250 1398 4047 
Q 1172 3844 1172 3481 
z
" transform="scale(0.015625)"/>
       </defs>
       <use xlink:href="#DejaVuSans-38"/>
       <use xlink:href="#DejaVuSans-30" x="63.623047"/>
       <use xlink:href="#DejaVuSans-30" x="127.246094"/>
      </g>
     </g>
    </g>
    <g id="xtick_6">
     <g id="line2d_6">
      <g>
       <use xlink:href="#mba7ef7fa09" x="771.872955" y="462.04" style="stroke: #000000; stroke-width: 0.8"/>
      </g>
     </g>
     <g id="text_6">
      <!-- 1000 -->
      <g transform="translate(759.147955 476.638438) scale(0.1 -0.1)">
       <defs>
        <path id="DejaVuSans-31" d="M 794 531 
L 1825 531 
L 1825 4091 
L 703 3866 
L 703 4441 
L 1819 4666 
L 2450 4666 
L 2450 531 
L 3481 531 
L 3481 0 
L 794 0 
L 794 531 
z
" transform="scale(0.015625)"/>
       </defs>
       <use xlink:href="#DejaVuSans-31"/>
       <use xlink:href="#DejaVuSans-30" x="63.623047"/>
       <use xlink:href="#DejaVuSans-30" x="127.246094"/>
       <use xlink:href="#DejaVuSans-30" x="190.869141"/>
      </g>
     </g>
    </g>
    <g id="text_7">
     <!-- Mirror Displacement (µm) -->
     <g transform="translate(366.169687 490.316563) scale(0.1 -0.1)">
      <defs>
       <path id="DejaVuSans-4d" d="M 628 4666 
L 1569 4666 
L 2759 1491 
L 3956 4666 
L 4897 4666 
L 4897 0 
L 4281 0 
L 4281 4097 
L 3078 897 
L 2444 897 
L 1241 4097 
L 1241 0 
L 628 0 
L 628 4666 
z
" transform="scale(0.015625)"/>
       <path id="DejaVuSans-69" d="M 603 3500 
L 1178 3500 
L 1178 0 
L 603 0 
L 603 3500 
z
M 603 4863 
L 1178 4863 
L 1178 4134 
L 603 4134 
L 603 4863 
z
" transform="scale(0.015625)"/>
       <path id="DejaVuSans-72" d="M 2631 2963 
Q 2534 3019 2420 3045 
Q 2306 3072 2169 3072 
Q 1681 3072 1420 2755 
Q 1159 2438 1159 1844 
L 1159 0 
L 581 0 
L 581 3500 
L 1159 3500 
L 1159 2956 
Q 1341 3275 1631 3429 
Q 1922 3584 2338 3584 
Q 2397 3584 2469 3576 
Q 2541 3569 2628 3553 
L 2631 2963 
z
" transform="scale(0.015625)"/>
       <path id="DejaVuSans-6f" d="M 1959 3097 
Q 1497 3097 1228 2736 
Q 959 2375 959 1747 
Q 959 1119 1226 758 
Q 1494 397 1959 397 
Q 2419 397 2687 759 
Q 2956 1122 2956 1747 
Q 2956 2369 2687 2733 
Q 2419 3097 1959 3097 
z
M 1959 3584 
Q 2709 3584 3137 3096 
Q 3566 2609 3566 1747 
Q 3566 888 3137 398 
Q 2709 -91 1959 -91 
Q 1206 -91 779 398 
Q 353 888 353 1747 
Q 353 2609 779 3096 
Q 1206 3584 1959 3584 
z
" transform="scale(0.015625)"/>
       <path id="DejaVuSans-20" transform="scale(0.015625)"/>
       <path id="DejaVuSans-44" d="M 1259 4147 
L 1259 519 
L 2022 519 
Q 2988 519 3436 956 
Q 3884 1394 3884 2338 
Q 3884 3275 3436 3711 
Q 2988 4147 2022 4147 
L 1259 4147 
z
M 628 4666 
L 1925 4666 
Q 3281 4666 3915 4102 
Q 4550 3538 4550 2338 
Q 4550 1131 3912 565 
Q 3275 0 1925 0 
L 628 0 
L 628 4666 
z
" transform="scale(0.015625)"/>
       <path id="DejaVuSans-73" d="M 2834 3397 
L 2834 2853 
Q 2591 2978 2328 3040 
Q 2066 3103 1784 3103 
Q 1356 3103 1142 2972 
Q 928 2841 928 2578 
Q 928 2378 1081 2264 
Q 1234 2150 1697 2047 
L 1894 2003 
Q 2506 1872 2764 1633 
Q 3022 1394 3022 966 
Q 3022 478 2636 193 
Q 2250 -91 1575 -91 
Q 1294 -91 989 -36 
Q 684 19 347 128 
L 347 722 
Q 666 556 975 473 
Q 1284 391 1588 391 
Q 1994 391 2212 530 
Q 2431 669 2431 922 
Q 2431 1156 2273 1281 
Q 2116 1406 1581 1522 
L 1381 1569 
Q 847 1681 609 1914 
Q 372 2147 372 2553 
Q 372 3047 722 3315 
Q 1072 3584 1716 3584 
Q 2034 3584 2315 3537 
Q 2597 3491 2834 3397 
z
" transform="scale(0.015625)"/>
       <path id="DejaVuSans-70" d="M 1159 525 
L 1159 -1331 
L 581 -1331 
L 581 3500 
L 1159 3500 
L 1159 2969 
Q 1341 3281 1617 3432 
Q 1894 3584 2278 3584 
Q 2916 3584 3314 3078 
Q 3713 2572 3713 1747 
Q 3713 922 3314 415 
Q 2916 -91 2278 -91 
Q 1894 -91 1617 61 
Q 1341 213 1159 525 
z
M 3116 1747 
Q 3116 2381 2855 2742 
Q 2594 3103 2138 3103 
Q 1681 3103 1420 2742 
Q 1159 2381 1159 1747 
Q 1159 1113 1420 752 
Q 1681 391 2138 391 
Q 2594 391 2855 752 
Q 3116 1113 3116 1747 
z
" transform="scale(0.015625)"/>
       <path id="DejaVuSans-6c" d="M 603 4863 
L 1178 4863 
L 1178 0 
L 603 0 
L 603 4863 
z
" transform="scale(0.015625)"/>
       <path id="DejaVuSans-61" d="M 2194 1759 
Q 1497 1759 1228 1600 
Q 959 1441 959 1056 
Q 959 750 1161 570 
Q 1363 391 1709 391 
Q 2188 391 2477 730 
Q 2766 1069 2766 1631 
L 2766 1759 
L 2194 1759 
z
M 3341 1997 
L 3341 0 
L 2766 0 
L 2766 531 
Q 2569 213 2275 61 
Q 1981 -91 1556 -91 
Q 1019 -91 701 211 
Q 384 513 384 1019 
Q 384 1609 779 1909 
Q 1175 2209 1959 2209 
L 2766 2209 
L 2766 2266 
Q 2766 2663 2505 2880 
Q 2244 3097 1772 3097 
Q 1472 3097 1187 3025 
Q 903 2953 641 2809 
L 641 3341 
Q 956 3463 1253 3523 
Q 1550 3584 1831 3584 
Q 2591 3584 2966 3190 
Q 3341 2797 3341 1997 
z
" transform="scale(0.015625)"/>
       <path id="DejaVuSans-63" d="M 3122 3366 
L 3122 2828 
Q 2878 2963 2633 3030 
Q 2388 3097 2138 3097 
Q 1578 3097 1268 2742 
Q 959 2388 959 1747 
Q 959 1106 1268 751 
Q 1578 397 2138 397 
Q 2388 397 2633 464 
Q 2878 531 3122 666 
L 3122 134 
Q 2881 22 2623 -34 
Q 2366 -91 2075 -91 
Q 1284 -91 818 406 
Q 353 903 353 1747 
Q 353 2603 823 3093 
Q 1294 3584 2113 3584 
Q 2378 3584 2631 3529 
Q 2884 3475 3122 3366 
z
" transform="scale(0.015625)"/>
       <path id="DejaVuSans-65" d="M 3597 1894 
L 3597 1613 
L 953 1613 
Q 991 1019 1311 708 
Q 1631 397 2203 397 
Q 2534 397 2845 478 
Q 3156 559 3463 722 
L 3463 178 
Q 3153 47 2828 -22 
Q 2503 -91 2169 -91 
Q 1331 -91 842 396 
Q 353 884 353 1716 
Q 353 2575 817 3079 
Q 1281 3584 2069 3584 
Q 2775 3584 3186 3129 
Q 3597 2675 3597 1894 
z
M 3022 2063 
Q 3016 2534 2758 2815 
Q 2500 3097 2075 3097 
Q 1594 3097 1305 2825 
Q 1016 2553 972 2059 
L 3022 2063 
z
" transform="scale(0.015625)"/>
       <path id="DejaVuSans-6d" d="M 3328 2828 
Q 3544 3216 3844 3400 
Q 4144 3584 4550 3584 
Q 5097 3584 5394 3201 
Q 5691 2819 5691 2113 
L 5691 0 
L 5113 0 
L 5113 2094 
Q 5113 2597 4934 2840 
Q 4756 3084 4391 3084 
Q 3944 3084 3684 2787 
Q 3425 2491 3425 1978 
L 3425 0 
L 2847 0 
L 2847 2094 
Q 2847 2600 2669 2842 
Q 2491 3084 2119 3084 
Q 1678 3084 1418 2786 
Q 1159 2488 1159 1978 
L 1159 0 
L 581 0 
L 581 3500 
L 1159 3500 
L 1159 2956 
Q 1356 3278 1631 3431 
Q 1906 3584 2284 3584 
Q 2666 3584 2933 3390 
Q 3200 3197 3328 2828 
z
" transform="scale(0.015625)"/>
       <path id="DejaVuSans-6e" d="M 3513 2113 
L 3513 0 
L 2938 0 
L 2938 2094 
Q 2938 2591 2744 2837 
Q 2550 3084 2163 3084 
Q 1697 3084 1428 2787 
Q 1159 2491 1159 1978 
L 1159 0 
L 581 0 
L 581 3500 
L 1159 3500 
L 1159 2956 
Q 1366 3272 1645 3428 
Q 1925 3584 2291 3584 
Q 2894 3584 3203 3211 
Q 3513 2838 3513 2113 
z
" transform="scale(0.015625)"/>
       <path id="DejaVuSans-74" d="M 1172 4494 
L 1172 3500 
L 2356 3500 
L 2356 3053 
L 1172 3053 
L 1172 1153 
Q 1172 725 1289 603 
Q 1406 481 1766 481 
L 2356 481 
L 2356 0 
L 1766 0 
Q 1100 0 847 248 
Q 594 497 594 1153 
L 594 3053 
L 172 3053 
L 172 3500 
L 594 3500 
L 594 4494 
L 1172 4494 
z
" transform="scale(0.015625)"/>
       <path id="DejaVuSans-28" d="M 1984 4856 
Q 1566 4138 1362 3434 
Q 1159 2731 1159 2009 
Q 1159 1288 1364 580 
Q 1569 -128 1984 -844 
L 1484 -844 
Q 1016 -109 783 600 
Q 550 1309 550 2009 
Q 550 2706 781 3412 
Q 1013 4119 1484 4856 
L 1984 4856 
z
" transform="scale(0.015625)"/>
       <path id="DejaVuSans-b5" d="M 544 -1331 
L 544 3500 
L 1119 3500 
L 1119 1325 
Q 1119 872 1334 640 
Q 1550 409 1972 409 
Q 2434 409 2667 671 
Q 2900 934 2900 1459 
L 2900 3500 
L 3475 3500 
L 3475 806 
Q 3475 619 3529 530 
Q 3584 441 3700 441 
Q 3728 441 3778 458 
Q 3828 475 3916 513 
L 3916 50 
Q 3788 -22 3673 -56 
Q 3559 -91 3450 -91 
Q 3234 -91 3106 31 
Q 2978 153 2931 403 
Q 2775 156 2548 32 
Q 2322 -91 2016 -91 
Q 1697 -91 1473 31 
Q 1250 153 1119 397 
L 1119 -1331 
L 544 -1331 
z
" transform="scale(0.015625)"/>
       <path id="DejaVuSans-29" d="M 513 4856 
L 1013 4856 
Q 1481 4119 1714 3412 
Q 1947 2706 1947 2009 
Q 1947 1309 1714 600 
Q 1481 -109 1013 -844 
L 513 -844 
Q 928 -128 1133 580 
Q 1338 1288 1338 2009 
Q 1338 2731 1133 3434 
Q 928 4138 513 4856 
z
" transform="scale(0.015625)"/>
      </defs>
      <use xlink:href="#DejaVuSans-4d"/>
      <use xlink:href="#DejaVuSans-69" x="86.279297"/>
      <use xlink:href="#DejaVuSans-72" x="114.0625"/>
      <use xlink:href="#DejaVuSans-72" x="153.425781"/>
      <use xlink:href="#DejaVuSans-6f" x="192.289062"/>
      <use xlink:href="#DejaVuSans-72" x="253.470703"/>
      <use xlink:href="#DejaVuSans-20" x="294.583984"/>
      <use xlink:href="#DejaVuSans-44" x="326.371094"/>
      <use xlink:href="#DejaVuSans-69" x="403.373047"/>
      <use xlink:href="#DejaVuSans-73" x="431.15625"/>
      <use xlink:href="#DejaVuSans-70" x="483.255859"/>
      <use xlink:href="#DejaVuSans-6c" x="546.732422"/>
      <use xlink:href="#DejaVuSans-61" x="574.515625"/>
      <use xlink:href="#DejaVuSans-63" x="635.794922"/>
      <use xlink:href="#DejaVuSans-65" x="690.775391"/>
      <use xlink:href="#DejaVuSans-6d" x="752.298828"/>
      <use xlink:href="#DejaVuSans-65" x="849.710938"/>
      <use xlink:href="#DejaVuSans-6e" x="911.234375"/>
      <use xlink:href="#DejaVuSans-74" x="974.613281"/>
      <use xlink:href="#DejaVuSans-20" x="1013.822266"/>
      <use xlink:href="#DejaVuSans-28" x="1045.609375"/>
      <use xlink:href="#DejaVuSans-b5" x="1084.623047"/>
      <use xlink:href="#DejaVuSans-6d" x="1148.246094"/>
      <use xlink:href="#DejaVuSans-29" x="1245.658203"/>
     </g>
    </g>
   </g>
   <g id="matplotlib.axis_2">
    <g id="ytick_1">
     <g id="line2d_7">
      <defs>
       <path id="mdc3eebefbc" d="M 0 0 
L -3.5 0 
" style="stroke: #000000; stroke-width: 0.8"/>
      </defs>
      <g>
       <use xlink:href="#mdc3eebefbc" x="54.785" y="427.162566" style="stroke: #000000; stroke-width: 0.8"/>
      </g>
     </g>
     <g id="text_8">
      <!-- −70 -->
      <g style="fill: #1f77b4" transform="translate(26.680313 430.961785) scale(0.1 -0.1)">
       <defs>
        <path id="DejaVuSans-2212" d="M 678 2272 
L 4684 2272 
L 4684 1741 
L 678 1741 
L 678 2272 
z
" transform="scale(0.015625)"/>
        <path id="DejaVuSans-37" d="M 525 4666 
L 3525 4666 
L 3525 4397 
L 1831 0 
L 1172 0 
L 2766 4134 
L 525 4134 
L 525 4666 
z
" transform="scale(0.015625)"/>
       </defs>
       <use xlink:href="#DejaVuSans-2212"/>
       <use xlink:href="#DejaVuSans-37" x="83.789062"/>
       <use xlink:href="#DejaVuSans-30" x="147.412109"/>
      </g>
     </g>
    </g>
    <g id="ytick_2">
     <g id="line2d_8">
      <g>
       <use xlink:href="#mdc3eebefbc" x="54.785" y="354.146213" style="stroke: #000000; stroke-width: 0.8"/>
      </g>
     </g>
     <g id="text_9">
      <!-- −65 -->
      <g style="fill: #1f77b4" transform="translate(26.680313 357.945431) scale(0.1 -0.1)">
       <defs>
        <path id="DejaVuSans-35" d="M 691 4666 
L 3169 4666 
L 3169 4134 
L 1269 4134 
L 1269 2991 
Q 1406 3038 1543 3061 
Q 1681 3084 1819 3084 
Q 2600 3084 3056 2656 
Q 3513 2228 3513 1497 
Q 3513 744 3044 326 
Q 2575 -91 1722 -91 
Q 1428 -91 1123 -41 
Q 819 9 494 109 
L 494 744 
Q 775 591 1075 516 
Q 1375 441 1709 441 
Q 2250 441 2565 725 
Q 2881 1009 2881 1497 
Q 2881 1984 2565 2268 
Q 2250 2553 1709 2553 
Q 1456 2553 1204 2497 
Q 953 2441 691 2322 
L 691 4666 
z
" transform="scale(0.015625)"/>
       </defs>
       <use xlink:href="#DejaVuSans-2212"/>
       <use xlink:href="#DejaVuSans-36" x="83.789062"/>
       <use xlink:href="#DejaVuSans-35" x="147.412109"/>
      </g>
     </g>
    </g>
    <g id="ytick_3">
     <g id="line2d_9">
      <g>
       <use xlink:href="#mdc3eebefbc" x="54.785" y="281.129859" style="stroke: #000000; stroke-width: 0.8"/>
      </g>
     </g>
     <g id="text_10">
      <!-- −60 -->
      <g style="fill: #1f77b4" transform="translate(26.680313 284.929078) scale(0.1 -0.1)">
       <use xlink:href="#DejaVuSans-2212"/>
       <use xlink:href="#DejaVuSans-36" x="83.789062"/>
       <use xlink:href="#DejaVuSans-30" x="147.412109"/>
      </g>
     </g>
    </g>
    <g id="ytick_4">
     <g id="line2d_10">
      <g>
       <use xlink:href="#mdc3eebefbc" x="54.785" y="208.113506" style="stroke: #000000; stroke-width: 0.8"/>
      </g>
     </g>
     <g id="text_11">
      <!-- −55 -->
      <g style="fill: #1f77b4" transform="translate(26.680313 211.912724) scale(0.1 -0.1)">
       <use xlink:href="#DejaVuSans-2212"/>
       <use xlink:href="#DejaVuSans-35" x="83.789062"/>
       <use xlink:href="#DejaVuSans-35" x="147.412109"/>
      </g>
     </g>
    </g>
    <g id="ytick_5">
     <g id="line2d_11">
      <g>
       <use xlink:href="#mdc3eebefbc" x="54.785" y="135.097152" style="stroke: #000000; stroke-width: 0.8"/>
      </g>
     </g>
     <g id="text_12">
      <!-- −50 -->
      <g style="fill: #1f77b4" transform="translate(26.680313 138.896371) scale(0.1 -0.1)">
       <use xlink:href="#DejaVuSans-2212"/>
       <use xlink:href="#DejaVuSans-35" x="83.789062"/>
       <use xlink:href="#DejaVuSans-30" x="147.412109"/>
      </g>
     </g>
    </g>
    <g id="ytick_6">
     <g id="line2d_12">
      <g>
       <use xlink:href="#mdc3eebefbc" x="54.785" y="62.080799" style="stroke: #000000; stroke-width: 0.8"/>
      </g>
     </g>
     <g id="text_13">
      <!-- −45 -->
      <g style="fill: #1f77b4" transform="translate(26.680313 65.880018) scale(0.1 -0.1)">
       <use xlink:href="#DejaVuSans-2212"/>
       <use xlink:href="#DejaVuSans-34" x="83.789062"/>
       <use xlink:href="#DejaVuSans-35" x="147.412109"/>
      </g>
     </g>
    </g>
    <g id="text_14">
     <!-- Power (arbitrary units) -->
     <g style="fill: #1f77b4" transform="translate(20.184688 313.055) rotate(-90) scale(0.12 -0.12)">
      <defs>
       <path id="DejaVuSans-50" d="M 1259 4147 
L 1259 2394 
L 2053 2394 
Q 2494 2394 2734 2622 
Q 2975 2850 2975 3272 
Q 2975 3691 2734 3919 
Q 2494 4147 2053 4147 
L 1259 4147 
z
M 628 4666 
L 2053 4666 
Q 2838 4666 3239 4311 
Q 3641 3956 3641 3272 
Q 3641 2581 3239 2228 
Q 2838 1875 2053 1875 
L 1259 1875 
L 1259 0 
L 628 0 
L 628 4666 
z
" transform="scale(0.015625)"/>
       <path id="DejaVuSans-77" d="M 269 3500 
L 844 3500 
L 1563 769 
L 2278 3500 
L 2956 3500 
L 3675 769 
L 4391 3500 
L 4966 3500 
L 4050 0 
L 3372 0 
L 2619 2869 
L 1863 0 
L 1184 0 
L 269 3500 
z
" transform="scale(0.015625)"/>
       <path id="DejaVuSans-62" d="M 3116 1747 
Q 3116 2381 2855 2742 
Q 2594 3103 2138 3103 
Q 1681 3103 1420 2742 
Q 1159 2381 1159 1747 
Q 1159 1113 1420 752 
Q 1681 391 2138 391 
Q 2594 391 2855 752 
Q 3116 1113 3116 1747 
z
M 1159 2969 
Q 1341 3281 1617 3432 
Q 1894 3584 2278 3584 
Q 2916 3584 3314 3078 
Q 3713 2572 3713 1747 
Q 3713 922 3314 415 
Q 2916 -91 2278 -91 
Q 1894 -91 1617 61 
Q 1341 213 1159 525 
L 1159 0 
L 581 0 
L 581 4863 
L 1159 4863 
L 1159 2969 
z
" transform="scale(0.015625)"/>
       <path id="DejaVuSans-79" d="M 2059 -325 
Q 1816 -950 1584 -1140 
Q 1353 -1331 966 -1331 
L 506 -1331 
L 506 -850 
L 844 -850 
Q 1081 -850 1212 -737 
Q 1344 -625 1503 -206 
L 1606 56 
L 191 3500 
L 800 3500 
L 1894 763 
L 2988 3500 
L 3597 3500 
L 2059 -325 
z
" transform="scale(0.015625)"/>
       <path id="DejaVuSans-75" d="M 544 1381 
L 544 3500 
L 1119 3500 
L 1119 1403 
Q 1119 906 1312 657 
Q 1506 409 1894 409 
Q 2359 409 2629 706 
Q 2900 1003 2900 1516 
L 2900 3500 
L 3475 3500 
L 3475 0 
L 2900 0 
L 2900 538 
Q 2691 219 2414 64 
Q 2138 -91 1772 -91 
Q 1169 -91 856 284 
Q 544 659 544 1381 
z
M 1991 3584 
L 1991 3584 
z
" transform="scale(0.015625)"/>
      </defs>
      <use xlink:href="#DejaVuSans-50"/>
      <use xlink:href="#DejaVuSans-6f" x="56.677734"/>
      <use xlink:href="#DejaVuSans-77" x="117.859375"/>
      <use xlink:href="#DejaVuSans-65" x="199.646484"/>
      <use xlink:href="#DejaVuSans-72" x="261.169922"/>
      <use xlink:href="#DejaVuSans-20" x="302.283203"/>
      <use xlink:href="#DejaVuSans-28" x="334.070312"/>
      <use xlink:href="#DejaVuSans-61" x="373.083984"/>
      <use xlink:href="#DejaVuSans-72" x="434.363281"/>
      <use xlink:href="#DejaVuSans-62" x="475.476562"/>
      <use xlink:href="#DejaVuSans-69" x="538.953125"/>
      <use xlink:href="#DejaVuSans-74" x="566.736328"/>
      <use xlink:href="#DejaVuSans-72" x="605.945312"/>
      <use xlink:href="#DejaVuSans-61" x="647.058594"/>
      <use xlink:href="#DejaVuSans-72" x="708.337891"/>
      <use xlink:href="#DejaVuSans-79" x="749.451172"/>
      <use xlink:href="#DejaVuSans-20" x="808.630859"/>
      <use xlink:href="#DejaVuSans-75" x="840.417969"/>
      <use xlink:href="#DejaVuSans-6e" x="903.796875"/>
      <use xlink:href="#DejaVuSans-69" x="967.175781"/>
      <use xlink:href="#DejaVuSans-74" x="994.958984"/>
      <use xlink:href="#DejaVuSans-73" x="1034.167969"/>
      <use xlink:href="#DejaVuSans-29" x="1086.267578"/>
     </g>
    </g>
   </g>
   <g id="line2d_13">
    <path d="M 88.932045 229.869213 
L 89.61567 245.639214 
L 90.299295 257.426964 
L 90.982919 266.084695 
L 91.666544 272.464639 
L 92.350168 279.971181 
L 93.033793 284.213887 
L 93.717417 291.001944 
L 94.401042 301.207166 
L 95.084666 307.256662 
L 95.768291 317.092878 
L 96.451915 320.208759 
L 97.13554 326.657381 
L 97.819164 331.416404 
L 98.502789 332.43553 
L 99.870038 355.286637 
L 100.553663 363.55939 
L 101.237287 375.726105 
L 101.920912 383.042982 
L 102.604536 389.059986 
L 103.288161 406.55443 
L 104.65541 424.114498 
L 105.339034 433.263995 
L 106.022659 435.243012 
L 106.706283 424.689502 
L 107.389908 420.51826 
L 108.073532 411.071861 
L 108.757157 404.590108 
L 109.440781 404.071235 
L 110.808031 383.175963 
L 112.17528 360.271828 
L 112.858904 342.729558 
L 113.542529 336.677598 
L 114.226153 329.407359 
L 114.909778 320.941204 
L 115.593402 316.110351 
L 116.277027 304.395699 
L 116.960651 296.311967 
L 117.644276 293.084279 
L 118.3279 293.149264 
L 119.011525 287.940277 
L 119.695149 288.173564 
L 120.378774 283.071547 
L 121.062399 274.241131 
L 121.746023 270.11735 
L 122.429648 263.725681 
L 123.113272 258.78074 
L 123.796897 254.906127 
L 124.480521 255.939217 
L 125.164146 251.545093 
L 125.84777 249.320832 
L 126.531395 243.804812 
L 127.215019 236.259758 
L 127.898644 235.033357 
L 128.582268 233.328608 
L 129.265893 226.772287 
L 129.949517 221.962791 
L 130.633142 221.404946 
L 131.316767 221.455236 
L 132.684016 216.886877 
L 134.051265 210.798956 
L 134.734889 206.548126 
L 135.418514 198.434823 
L 136.102138 193.662292 
L 137.469387 190.455778 
L 138.153012 189.748615 
L 138.836636 192.28712 
L 139.520261 194.300363 
L 140.88751 186.739246 
L 142.254759 173.261431 
L 142.938384 170.398186 
L 143.622008 165.99959 
L 144.989257 169.278207 
L 145.672882 168.584734 
L 146.356506 163.413989 
L 147.723755 150.30153 
L 148.40738 142.647135 
L 149.091004 142.861164 
L 149.774629 143.799789 
L 150.458253 144.410936 
L 151.141878 147.740482 
L 151.825503 154.004372 
L 152.509127 153.278224 
L 153.192752 150.897982 
L 153.876376 151.664015 
L 154.560001 147.778998 
L 155.243625 145.486375 
L 155.92725 140.579585 
L 156.610874 132.272971 
L 157.294499 131.865175 
L 157.978123 135.805776 
L 158.661748 134.497962 
L 159.345372 135.562267 
L 160.028997 135.48633 
L 160.712621 135.833887 
L 161.396246 130.16791 
L 162.079871 126.649982 
L 162.763495 121.519123 
L 163.44712 119.605638 
L 164.130744 121.206521 
L 164.814369 120.945397 
L 165.497993 120.046565 
L 166.181618 116.194679 
L 166.865242 114.029561 
L 167.548867 109.667564 
L 168.232491 110.197115 
L 168.916116 107.695393 
L 169.59974 105.714915 
L 170.283365 104.538257 
L 170.966989 103.772133 
L 171.650614 105.205352 
L 172.334239 105.174503 
L 173.017863 105.607125 
L 173.701488 106.292566 
L 174.385112 107.299279 
L 175.068737 104.313732 
L 176.435986 94.125942 
L 177.11961 93.126531 
L 177.803235 91.808495 
L 178.486859 92.14364 
L 179.170484 92.07108 
L 179.854108 88.491088 
L 180.537733 86.165152 
L 181.221357 85.169848 
L 181.904982 82.36675 
L 182.588607 82.904333 
L 183.272231 82.41129 
L 183.955856 83.436074 
L 184.63948 85.765296 
L 185.323105 89.422776 
L 186.006729 90.949183 
L 186.690354 90.911124 
L 187.373978 91.814701 
L 188.057603 89.14641 
L 188.741227 87.505732 
L 189.424852 81.661503 
L 190.108476 78.664091 
L 190.792101 76.245515 
L 191.475725 79.602898 
L 192.15935 82.017823 
L 192.842975 80.468598 
L 193.526599 83.135886 
L 194.210224 82.363738 
L 194.893848 83.612135 
L 195.577473 81.178683 
L 196.261097 77.878526 
L 196.944722 76.160086 
L 197.628346 73.901143 
L 198.311971 71.196434 
L 198.995595 66.581253 
L 199.67922 68.802319 
L 201.046469 72.095996 
L 201.730094 71.354515 
L 202.413718 71.796081 
L 203.097343 70.075542 
L 203.780967 69.589071 
L 204.464592 66.523479 
L 205.148216 66.591384 
L 205.831841 68.99563 
L 206.515465 70.985052 
L 207.19909 69.470145 
L 207.882714 68.964233 
L 208.566339 70.184154 
L 209.249963 69.198707 
L 209.933588 70.346068 
L 210.617212 67.969659 
L 211.300837 66.19527 
L 211.984462 62.829034 
L 212.668086 64.155924 
L 213.351711 62.097319 
L 214.035335 65.13197 
L 214.71896 67.014605 
L 215.402584 69.491868 
L 216.086209 69.40151 
L 218.137082 60.612805 
L 218.820707 61.032284 
L 219.504331 59.894415 
L 220.187956 63.79212 
L 220.87158 58.882044 
L 221.555205 63.671643 
L 222.23883 64.274758 
L 222.922454 62.099966 
L 223.606079 59.337757 
L 224.289703 57.443257 
L 224.973328 57.84366 
L 225.656952 56.397754 
L 226.340577 58.814595 
L 227.024201 54.63304 
L 227.707826 62.473627 
L 228.39145 65.049096 
L 229.758699 60.294089 
L 230.442324 61.69363 
L 231.125948 61.006728 
L 231.809573 59.573509 
L 232.493198 60.221072 
L 233.176822 57.959208 
L 233.860447 60.860422 
L 234.544071 60.539332 
L 235.227696 61.47166 
L 235.91132 64.187503 
L 236.594945 67.425413 
L 237.278569 66.320402 
L 237.962194 66.67873 
L 238.645818 64.163773 
L 239.329443 60.53057 
L 240.013067 54.553452 
L 240.696692 51.153537 
L 242.063941 52.706777 
L 242.747566 57.259894 
L 243.43119 57.365129 
L 244.114815 57.652448 
L 244.798439 59.434686 
L 245.482064 55.00305 
L 246.165688 54.218307 
L 246.849313 54.003547 
L 247.532937 54.514023 
L 248.216562 53.303777 
L 248.900186 54.653484 
L 249.583811 53.587354 
L 250.267435 54.139723 
L 250.95106 56.594533 
L 251.634684 54.906942 
L 252.318309 58.828012 
L 253.685558 60.049119 
L 254.369183 58.603486 
L 255.052807 61.789372 
L 255.736432 63.994649 
L 256.420056 65.667819 
L 257.103681 64.976536 
L 257.787305 64.052058 
L 258.47093 62.342563 
L 259.154554 56.653311 
L 259.838179 57.428014 
L 260.521803 56.912428 
L 261.205428 63.494669 
L 261.889052 65.151045 
L 262.572677 69.815056 
L 263.256302 68.932471 
L 263.939926 68.444174 
L 264.623551 65.939804 
L 265.307175 62.548286 
L 265.9908 65.19595 
L 266.674424 63.73398 
L 267.358049 67.06024 
L 268.041673 65.342348 
L 268.725298 70.38504 
L 269.408922 68.468817 
L 270.092547 70.920432 
L 270.776171 75.068857 
L 271.459796 77.262359 
L 272.14342 76.649113 
L 272.827045 75.067396 
L 273.51067 76.244968 
L 274.877919 73.328512 
L 276.245168 70.993084 
L 276.928792 70.678383 
L 277.612417 72.066972 
L 278.296041 70.258265 
L 278.979666 70.110407 
L 279.66329 74.483631 
L 280.346915 77.136588 
L 281.030539 76.80409 
L 281.714164 77.206593 
L 282.397788 76.916992 
L 283.081413 79.816106 
L 283.765038 86.262629 
L 284.448662 88.945341 
L 285.132287 92.538749 
L 285.815911 95.324323 
L 286.499536 96.060511 
L 287.18316 90.086404 
L 287.866785 87.328941 
L 288.550409 86.180759 
L 289.234034 84.072594 
L 289.917658 83.093171 
L 290.601283 87.924572 
L 291.968532 93.226107 
L 292.652156 95.192437 
L 293.335781 91.037168 
L 294.019406 96.801809 
L 294.70303 96.331219 
L 295.386655 94.012584 
L 296.070279 92.405494 
L 296.753904 97.442528 
L 297.437528 97.570854 
L 298.121153 99.225313 
L 298.804777 98.918644 
L 299.488402 97.214443 
L 300.172026 101.392347 
L 300.855651 102.082991 
L 301.539275 105.66134 
L 302.2229 112.432876 
L 302.906524 117.791273 
L 304.273774 119.070519 
L 304.957398 117.475203 
L 306.324647 108.386219 
L 307.008272 103.722755 
L 307.691896 104.959652 
L 308.375521 111.595379 
L 309.059145 113.939751 
L 310.426394 124.490614 
L 311.110019 128.567209 
L 312.477268 129.333789 
L 313.160892 123.769943 
L 313.844517 126.576509 
L 314.528142 130.631837 
L 315.211766 133.25997 
L 315.895391 136.68471 
L 316.579015 141.447932 
L 317.26264 144.799109 
L 317.946264 149.591446 
L 318.629889 150.856728 
L 319.313513 150.632568 
L 319.997138 154.447034 
L 320.680762 154.489931 
L 321.364387 157.71698 
L 322.048011 153.279228 
L 322.731636 152.223594 
L 323.41526 154.566689 
L 324.78251 162.181473 
L 325.466134 163.743293 
L 326.149759 167.983809 
L 327.517008 179.428849 
L 328.200632 179.847598 
L 328.884257 181.088602 
L 329.567881 190.072534 
L 330.251506 193.690038 
L 330.93513 195.142972 
L 331.618755 194.175232 
L 332.302379 199.528973 
L 332.986004 202.470802 
L 333.669628 203.65248 
L 334.353253 203.718743 
L 335.036878 203.338966 
L 336.404127 207.111813 
L 337.087751 205.632684 
L 337.771376 206.980292 
L 338.455 213.644221 
L 339.138625 218.910616 
L 340.505874 233.779393 
L 341.189498 240.667756 
L 342.556747 258.000834 
L 343.240372 260.054145 
L 343.923996 258.356606 
L 344.607621 259.518205 
L 345.97487 271.711571 
L 346.658495 270.971368 
L 347.342119 276.94009 
L 348.025744 285.504178 
L 348.709368 287.860233 
L 349.392993 294.24168 
L 350.076617 309.336807 
L 350.760242 316.052029 
L 351.443866 320.132274 
L 352.127491 329.988752 
L 352.811115 333.470354 
L 353.49474 343.722854 
L 354.861989 332.416728 
L 356.229238 353.515534 
L 356.912863 355.670885 
L 357.596487 352.433705 
L 359.647361 398.823185 
L 360.330985 407.401055 
L 361.01461 417.836096 
L 361.698234 416.17114 
L 362.381859 403.38908 
L 363.065483 396.721318 
L 363.749108 375.411678 
L 364.432733 365.562046 
L 365.116357 349.981542 
L 365.799982 342.023672 
L 366.483606 344.791814 
L 367.167231 339.499954 
L 367.850855 332.342434 
L 368.53448 323.351109 
L 369.218104 320.466963 
L 370.585353 313.457211 
L 371.952602 286.748011 
L 372.636227 283.966544 
L 373.319851 275.59522 
L 374.003476 276.721953 
L 374.687101 268.344696 
L 375.370725 264.516083 
L 376.05435 263.320897 
L 376.737974 258.287514 
L 377.421599 254.16638 
L 378.105223 246.582172 
L 378.788848 243.197133 
L 379.472472 244.105731 
L 380.156097 243.221776 
L 380.839721 238.63498 
L 381.523346 234.883218 
L 382.20697 232.921268 
L 382.890595 230.087595 
L 383.574219 224.656638 
L 384.257844 216.283944 
L 384.941469 210.50972 
L 385.625093 206.139326 
L 386.308718 198.530931 
L 386.992342 193.588271 
L 387.675967 189.99751 
L 388.359591 192.705686 
L 389.043216 193.457389 
L 389.72684 189.615178 
L 390.410465 190.338496 
L 391.094089 187.73236 
L 391.777714 183.975303 
L 392.461338 178.069741 
L 393.144963 174.872355 
L 393.828587 170.096629 
L 394.512212 169.245349 
L 395.195837 166.708305 
L 395.879461 168.774302 
L 396.563086 175.931913 
L 397.24671 178.141388 
L 397.930335 179.240284 
L 398.613959 178.749158 
L 399.297584 178.640546 
L 399.981208 172.215837 
L 400.664833 163.799607 
L 401.348457 157.066587 
L 402.715706 150.067695 
L 403.399331 144.662203 
L 404.082955 144.084918 
L 404.76658 145.444117 
L 405.450205 144.181756 
L 406.133829 147.51979 
L 406.817454 148.832167 
L 407.501078 148.03565 
L 408.184703 145.035408 
L 408.868327 140.815884 
L 409.551952 134.654399 
L 410.235576 133.055524 
L 410.919201 130.891958 
L 411.602825 132.431417 
L 412.28645 136.922196 
L 412.970074 138.293626 
L 413.653699 135.832518 
L 414.337323 132.013307 
L 415.020948 130.89424 
L 415.704573 126.40921 
L 416.388197 124.836986 
L 417.071822 124.779303 
L 417.755446 124.309169 
L 418.439071 119.729309 
L 419.122695 116.977688 
L 419.80632 115.562996 
L 420.489944 112.81028 
L 421.173569 113.518629 
L 421.857193 112.771763 
L 422.540818 115.446444 
L 423.224442 114.268872 
L 423.908067 109.460472 
L 425.275316 102.226468 
L 425.958941 100.692486 
L 426.642565 94.119736 
L 427.32619 95.403546 
L 428.009814 96.430795 
L 428.693439 99.854897 
L 429.377063 101.717544 
L 430.060688 101.334573 
L 430.744312 102.674971 
L 431.427937 100.66985 
L 432.111561 100.761669 
L 433.47881 97.161871 
L 434.162435 94.111795 
L 434.846059 94.322174 
L 435.529684 97.050156 
L 436.213309 94.909682 
L 436.896933 94.142462 
L 437.580558 92.936323 
L 438.264182 95.687762 
L 438.947807 96.484279 
L 439.631431 91.671771 
L 440.315056 87.901937 
L 440.99868 86.129374 
L 441.682305 86.438233 
L 442.365929 85.064156 
L 443.049554 85.67503 
L 443.733178 85.399028 
L 444.416803 87.10542 
L 445.100427 87.559217 
L 445.784052 85.251261 
L 446.467677 84.916207 
L 447.151301 86.234517 
L 447.834926 86.028703 
L 448.51855 87.381696 
L 449.202175 84.795456 
L 449.885799 84.755297 
L 450.569424 83.177505 
L 451.253048 81.105301 
L 451.936673 78.373759 
L 452.620297 79.037113 
L 453.303922 76.611875 
L 453.987546 74.632675 
L 454.671171 73.421334 
L 455.354795 69.333696 
L 456.722045 73.879055 
L 457.405669 75.23004 
L 458.089294 73.699435 
L 458.772918 75.158575 
L 459.456543 71.952154 
L 460.140167 71.991035 
L 461.507416 67.707439 
L 462.191041 67.169126 
L 462.874665 67.034137 
L 463.55829 68.057005 
L 464.241914 68.199387 
L 465.609163 70.402381 
L 466.292788 72.126389 
L 466.976413 73.342933 
L 467.660037 72.222862 
L 468.343662 75.128365 
L 469.027286 75.998172 
L 469.710911 78.957708 
L 470.394535 76.294984 
L 471.07816 72.790929 
L 471.761784 70.045514 
L 472.445409 68.439519 
L 473.129033 68.335288 
L 473.812658 66.795374 
L 474.496282 69.533669 
L 475.179907 71.511409 
L 475.863531 70.881825 
L 476.547156 67.937623 
L 477.230781 66.402546 
L 477.914405 63.483078 
L 478.59803 67.097753 
L 479.281654 69.639361 
L 479.965279 67.609141 
L 480.648903 71.471432 
L 481.332528 73.309528 
L 482.016152 70.216098 
L 482.699777 68.317126 
L 483.383401 65.493948 
L 484.067026 59.479956 
L 484.75065 64.146158 
L 485.434275 67.48337 
L 486.117899 65.577278 
L 486.801524 68.847955 
L 488.168773 63.83958 
L 488.852398 61.819765 
L 489.536022 59.352269 
L 490.219647 55.741154 
L 490.903271 58.823448 
L 491.586896 58.807567 
L 492.27052 56.341257 
L 493.637769 56.405238 
L 495.005018 61.321885 
L 496.372267 65.223058 
L 497.055892 65.710077 
L 497.739517 63.392629 
L 499.106766 57.523483 
L 500.474015 56.749601 
L 501.157639 55.908635 
L 501.841264 56.834848 
L 502.524888 58.75536 
L 503.208513 59.29842 
L 504.575762 62.880419 
L 505.259386 60.877307 
L 505.943011 64.873583 
L 506.626635 61.556815 
L 507.31026 63.833009 
L 507.993885 65.335412 
L 508.677509 68.226494 
L 509.361134 72.185258 
L 510.044758 74.925745 
L 510.728383 75.697527 
L 511.412007 70.818027 
L 512.095632 70.71051 
L 512.779256 64.400894 
L 513.462881 63.950383 
L 514.146505 63.709064 
L 514.83013 66.714964 
L 515.513754 68.667878 
L 516.197379 67.108249 
L 516.881004 70.493652 
L 517.564628 69.739576 
L 518.248253 71.432186 
L 519.615502 68.601524 
L 520.299126 71.498813 
L 520.982751 68.477214 
L 521.666375 69.310422 
L 522.35 68.901257 
L 523.033624 73.882067 
L 523.717249 76.360881 
L 524.400873 75.727008 
L 525.084498 72.350184 
L 526.451747 71.461392 
L 527.135372 67.216039 
L 527.818996 70.630466 
L 528.502621 70.076729 
L 529.186245 70.934671 
L 529.86987 75.338013 
L 530.553494 75.5023 
L 531.237119 78.652408 
L 531.920743 81.063956 
L 532.604368 84.943588 
L 533.287992 85.240674 
L 533.971617 89.302026 
L 534.655241 86.038468 
L 535.338866 83.328558 
L 536.02249 85.314329 
L 536.706115 85.576092 
L 537.38974 90.097813 
L 538.073364 89.894827 
L 538.756989 91.804387 
L 539.440613 91.246725 
L 540.124238 91.163669 
L 540.807862 85.384059 
L 541.491487 84.372418 
L 542.175111 84.581336 
L 542.858736 86.396249 
L 543.54236 89.41009 
L 544.225985 86.951447 
L 544.909609 86.687675 
L 545.593234 88.013196 
L 546.276858 87.44166 
L 546.960483 89.091647 
L 547.644108 92.495305 
L 549.011357 101.263108 
L 549.694981 102.476458 
L 550.378606 104.352156 
L 551.06223 106.929634 
L 551.745855 106.184228 
L 552.429479 104.193528 
L 553.113104 103.927749 
L 553.796728 103.950293 
L 554.480353 103.819958 
L 555.163977 102.514061 
L 555.847602 106.129192 
L 556.531226 110.454133 
L 557.214851 111.675788 
L 557.898476 113.769441 
L 558.5821 111.076141 
L 559.265725 113.746258 
L 559.949349 112.017231 
L 560.632974 114.027006 
L 561.316598 115.569933 
L 562.000223 120.313349 
L 562.683847 118.192224 
L 563.367472 119.440986 
L 564.051096 123.434068 
L 564.734721 124.410844 
L 565.418345 133.736128 
L 566.10197 134.202702 
L 566.785594 142.5053 
L 567.469219 144.687029 
L 568.152844 143.584756 
L 568.836468 138.782835 
L 569.520093 140.121499 
L 570.203717 142.30414 
L 570.887342 142.331065 
L 571.570966 150.004536 
L 572.254591 149.020458 
L 572.938215 154.066983 
L 573.62184 155.832975 
L 574.305464 152.579184 
L 574.989089 151.539796 
L 575.672713 153.793172 
L 576.356338 155.101808 
L 577.039962 154.427593 
L 577.723587 158.8219 
L 578.407212 153.311173 
L 579.090836 158.157086 
L 579.774461 164.868019 
L 580.458085 164.902428 
L 581.14171 166.283167 
L 581.825334 168.973272 
L 583.192583 179.266387 
L 583.876208 182.588814 
L 584.559832 184.845658 
L 585.243457 192.886584 
L 585.927081 195.840461 
L 586.610706 194.403134 
L 587.977955 198.680523 
L 588.66158 198.470327 
L 589.345204 200.009512 
L 590.028829 204.630443 
L 591.396078 217.12847 
L 592.079702 217.738156 
L 592.763327 222.900869 
L 593.446951 228.986234 
L 594.130576 232.828629 
L 594.8142 234.022172 
L 595.497825 238.724334 
L 596.181449 246.01091 
L 596.865074 250.913684 
L 597.548698 260.852214 
L 598.232323 263.071911 
L 598.915948 275.304797 
L 599.599572 274.544332 
L 600.283197 275.294666 
L 600.966821 276.420578 
L 601.650446 277.278247 
L 602.33407 284.734403 
L 603.017695 288.930744 
L 605.068568 330.134055 
L 605.752193 338.34018 
L 606.435817 356.701146 
L 607.119442 357.812272 
L 607.803066 362.115765 
L 608.486691 374.522065 
L 609.170316 372.800978 
L 609.85394 384.829236 
L 611.221189 403.976497 
L 612.588438 433.812622 
L 613.955687 438.526557 
L 614.639312 442.358182 
L 615.322936 426.692341 
L 616.006561 421.450497 
L 618.057434 369.553393 
L 618.741059 351.662105 
L 619.424684 346.120529 
L 620.108308 337.092239 
L 620.791933 335.709127 
L 621.475557 321.889687 
L 622.159182 315.317576 
L 623.526431 296.864427 
L 624.210055 290.532084 
L 624.89368 282.498733 
L 625.577304 283.511379 
L 626.260929 281.696192 
L 626.944553 278.111089 
L 627.628178 270.985241 
L 628.311802 270.291859 
L 628.995427 272.074097 
L 629.679052 269.712566 
L 630.362676 263.289317 
L 632.41355 247.409082 
L 633.097174 244.660016 
L 633.780799 237.409583 
L 634.464423 236.056225 
L 635.148048 234.082046 
L 637.198921 223.594616 
L 637.882546 222.248011 
L 638.56617 218.884969 
L 639.249795 216.281206 
L 639.93342 205.176697 
L 641.984293 191.393856 
L 642.667918 193.441874 
L 643.351542 193.221638 
L 644.718791 187.119753 
L 645.402416 186.560082 
L 646.08604 184.278778 
L 646.769665 180.660178 
L 647.453289 179.10922 
L 648.136914 175.831424 
L 648.820538 179.912126 
L 649.504163 182.588631 
L 650.187788 180.816433 
L 650.871412 179.494746 
L 651.555037 179.373174 
L 652.238661 176.456627 
L 653.60591 162.677528 
L 654.289535 158.414834 
L 654.973159 159.028171 
L 655.656784 157.542653 
L 656.340408 157.720722 
L 657.024033 155.292746 
L 657.707657 157.989239 
L 658.391282 154.09117 
L 659.074906 151.245449 
L 659.758531 149.399413 
L 660.442156 149.054776 
L 661.12578 145.54917 
L 661.809405 144.322677 
L 662.493029 146.460779 
L 663.176654 146.734225 
L 663.860278 145.476153 
L 664.543903 139.213267 
L 665.227527 134.88358 
L 665.911152 129.653418 
L 666.594776 121.946268 
L 667.278401 118.69987 
L 667.962025 122.050134 
L 668.64565 123.308388 
L 669.329275 120.703621 
L 670.012899 119.894417 
L 672.063773 105.542049 
L 672.747397 103.290316 
L 673.431022 102.54701 
L 674.114646 104.014821 
L 674.798271 104.703456 
L 675.481895 103.467472 
L 676.16552 105.898369 
L 676.849144 101.409232 
L 677.532769 99.370981 
L 678.216393 99.785166 
L 678.900018 97.823308 
L 679.583643 91.585703 
L 680.267267 89.332054 
L 680.950892 91.952063 
L 681.634516 93.721249 
L 682.318141 96.193765 
L 683.001765 97.807336 
L 684.369014 99.696542 
L 685.052639 96.93835 
L 685.736263 91.323027 
L 686.419888 87.895639 
L 687.103512 87.023094 
L 687.787137 86.629718 
L 688.470761 85.082958 
L 689.154386 82.613271 
L 689.838011 78.534304 
L 690.521635 75.511427 
L 691.20526 71.51369 
L 691.888884 71.413749 
L 692.572509 73.244452 
L 693.256133 76.929496 
L 693.939758 83.164727 
L 694.623382 85.110157 
L 695.307007 86.396796 
L 695.990631 85.663256 
L 696.674256 84.721892 
L 697.35788 81.279171 
L 698.725129 77.015838 
L 699.408754 76.074201 
L 700.092379 77.195093 
L 700.776003 74.699668 
L 701.459628 75.094321 
L 702.143252 72.750587 
L 702.826877 74.245871 
L 703.510501 74.473865 
L 704.194126 73.103256 
L 704.87775 71.158557 
L 705.561375 72.16025 
L 706.244999 68.858268 
L 706.928624 67.171499 
L 707.612248 71.580135 
L 708.295873 71.334435 
L 708.979497 75.184496 
L 709.663122 76.081411 
L 711.030371 71.090834 
L 711.713996 67.541601 
L 712.39762 58.32356 
L 713.081245 58.188297 
L 714.448494 63.802433 
L 715.132118 66.664401 
L 715.815743 64.80869 
L 716.499367 65.111708 
L 717.182992 66.650436 
L 717.866616 63.31724 
L 718.550241 58.998779 
L 719.233865 59.307273 
L 719.91749 60.421411 
L 720.601115 62.063823 
L 721.284739 59.954745 
L 721.968364 56.838225 
L 722.651988 57.744175 
L 723.335613 58.312425 
L 724.019237 55.499926 
L 724.702862 53.928523 
L 726.070111 57.032996 
L 726.753735 58.790956 
L 727.43736 60.026849 
L 728.120984 59.914951 
L 728.804609 60.952149 
L 729.488233 60.252743 
L 730.171858 56.112442 
L 730.855483 55.885453 
L 731.539107 56.296991 
L 732.222732 50.795391 
L 732.906356 53.042287 
L 733.589981 54.593337 
L 734.273605 55.531232 
L 734.95723 57.727381 
L 735.640854 55.819008 
L 736.324479 56.571076 
L 737.008103 60.834866 
L 737.691728 63.292414 
L 738.375352 59.152478 
L 739.058977 62.502195 
L 739.742601 58.738749 
L 740.426226 57.599877 
L 741.793475 48.721818 
L 742.4771 50.144268 
L 743.160724 54.371732 
L 743.844349 57.330081 
L 744.527973 57.529416 
L 745.211598 56.057771 
L 745.895222 53.437214 
L 746.578847 52.353013 
L 747.262471 51.945947 
L 747.946096 55.598316 
L 748.62972 60.787679 
L 749.313345 67.72907 
L 749.996969 70.2715 
L 750.680594 68.104739 
L 751.364219 67.144392 
L 752.047843 66.392415 
L 752.731468 62.477917 
L 753.415092 61.243028 
L 754.098717 57.411586 
L 754.782341 52.188726 
L 755.465966 50.809721 
L 756.14959 51.719505 
L 756.833215 53.39377 
L 757.516839 58.531565 
L 758.200464 59.125371 
L 758.884088 61.710515 
L 759.567713 65.331761 
L 760.251337 64.108372 
L 760.934962 63.512741 
L 761.618587 66.314378 
L 762.302211 70.115245 
L 762.985836 70.452124 
L 763.66946 69.807572 
L 764.353085 66.934196 
L 765.036709 65.987174 
L 765.720334 66.95747 
L 766.403958 64.39277 
L 767.087583 64.639931 
L 767.771207 66.638297 
L 768.454832 64.97033 
L 769.138456 64.445358 
L 769.822081 63.583356 
L 770.505705 63.265131 
L 771.18933 63.842505 
L 771.872955 65.667301 
L 771.872955 65.667301 
" clip-path="url(#p729f020ffb)" style="fill: none; stroke: #1f77b4; stroke-width: 1.5; stroke-linecap: square"/>
   </g>
   <g id="patch_3">
    <path d="M 54.785 462.04 
L 54.785 29.04 
" style="fill: none; stroke: #000000; stroke-width: 0.8; stroke-linejoin: miter; stroke-linecap: square"/>
   </g>
   <g id="patch_4">
    <path d="M 806.02 462.04 
L 806.02 29.04 
" style="fill: none; stroke: #000000; stroke-width: 0.8; stroke-linejoin: miter; stroke-linecap: square"/>
   </g>
   <g id="patch_5">
    <path d="M 54.785 462.04 
L 806.02 462.04 
" style="fill: none; stroke: #000000; stroke-width: 0.8; stroke-linejoin: miter; stroke-linecap: square"/>
   </g>
   <g id="patch_6">
    <path d="M 54.785 29.04 
L 806.02 29.04 
" style="fill: none; stroke: #000000; stroke-width: 0.8; stroke-linejoin: miter; stroke-linecap: square"/>
   </g>
   <g id="text_15">
    <!-- Sensitivity Analysis -->
    <g transform="translate(353.25125 23.04) scale(0.16 -0.16)">
     <defs>
      <path id="DejaVuSans-53" d="M 3425 4513 
L 3425 3897 
Q 3066 4069 2747 4153 
Q 2428 4238 2131 4238 
Q 1616 4238 1336 4038 
Q 1056 3838 1056 3469 
Q 1056 3159 1242 3001 
Q 1428 2844 1947 2747 
L 2328 2669 
Q 3034 2534 3370 2195 
Q 3706 1856 3706 1288 
Q 3706 609 3251 259 
Q 2797 -91 1919 -91 
Q 1588 -91 1214 -16 
Q 841 59 441 206 
L 441 856 
Q 825 641 1194 531 
Q 1563 422 1919 422 
Q 2459 422 2753 634 
Q 3047 847 3047 1241 
Q 3047 1584 2836 1778 
Q 2625 1972 2144 2069 
L 1759 2144 
Q 1053 2284 737 2584 
Q 422 2884 422 3419 
Q 422 4038 858 4394 
Q 1294 4750 2059 4750 
Q 2388 4750 2728 4690 
Q 3069 4631 3425 4513 
z
" transform="scale(0.015625)"/>
      <path id="DejaVuSans-76" d="M 191 3500 
L 800 3500 
L 1894 563 
L 2988 3500 
L 3597 3500 
L 2284 0 
L 1503 0 
L 191 3500 
z
" transform="scale(0.015625)"/>
      <path id="DejaVuSans-41" d="M 2188 4044 
L 1331 1722 
L 3047 1722 
L 2188 4044 
z
M 1831 4666 
L 2547 4666 
L 4325 0 
L 3669 0 
L 3244 1197 
L 1141 1197 
L 716 0 
L 50 0 
L 1831 4666 
z
" transform="scale(0.015625)"/>
     </defs>
     <use xlink:href="#DejaVuSans-53"/>
     <use xlink:href="#DejaVuSans-65" x="63.476562"/>
     <use xlink:href="#DejaVuSans-6e" x="125"/>
     <use xlink:href="#DejaVuSans-73" x="188.378906"/>
     <use xlink:href="#DejaVuSans-69" x="240.478516"/>
     <use xlink:href="#DejaVuSans-74" x="268.261719"/>
     <use xlink:href="#DejaVuSans-69" x="307.470703"/>
     <use xlink:href="#DejaVuSans-76" x="335.253906"/>
     <use xlink:href="#DejaVuSans-69" x="394.433594"/>
     <use xlink:href="#DejaVuSans-74" x="422.216797"/>
     <use xlink:href="#DejaVuSans-79" x="461.425781"/>
     <use xlink:href="#DejaVuSans-20" x="520.605469"/>
     <use xlink:href="#DejaVuSans-41" x="552.392578"/>
     <use xlink:href="#DejaVuSans-6e" x="620.800781"/>
     <use xlink:href="#DejaVuSans-61" x="684.179688"/>
     <use xlink:href="#DejaVuSans-6c" x="745.458984"/>
     <use xlink:href="#DejaVuSans-79" x="773.242188"/>
     <use xlink:href="#DejaVuSans-73" x="832.421875"/>
     <use xlink:href="#DejaVuSans-69" x="884.521484"/>
     <use xlink:href="#DejaVuSans-73" x="912.304688"/>
    </g>
   </g>
  </g>
  <g id="axes_2">
   <g id="matplotlib.axis_3">
    <g id="ytick_7">
     <g id="line2d_14">
      <defs>
       <path id="md026aa4e3e" d="M 0 0 
L 3.5 0 
" style="stroke: #000000; stroke-width: 0.8"/>
      </defs>
      <g>
       <use xlink:href="#md026aa4e3e" x="806.02" y="428.649598" style="stroke: #000000; stroke-width: 0.8"/>
      </g>
     </g>
     <g id="text_16">
      <!-- −1.0 -->
      <g style="fill: #2ca02c" transform="translate(813.02 432.448816) scale(0.1 -0.1)">
       <defs>
        <path id="DejaVuSans-2e" d="M 684 794 
L 1344 794 
L 1344 0 
L 684 0 
L 684 794 
z
" transform="scale(0.015625)"/>
       </defs>
       <use xlink:href="#DejaVuSans-2212"/>
       <use xlink:href="#DejaVuSans-31" x="83.789062"/>
       <use xlink:href="#DejaVuSans-2e" x="147.412109"/>
       <use xlink:href="#DejaVuSans-30" x="179.199219"/>
      </g>
     </g>
    </g>
    <g id="ytick_8">
     <g id="line2d_15">
      <g>
       <use xlink:href="#md026aa4e3e" x="806.02" y="342.910902" style="stroke: #000000; stroke-width: 0.8"/>
      </g>
     </g>
     <g id="text_17">
      <!-- −0.5 -->
      <g style="fill: #2ca02c" transform="translate(813.02 346.710121) scale(0.1 -0.1)">
       <use xlink:href="#DejaVuSans-2212"/>
       <use xlink:href="#DejaVuSans-30" x="83.789062"/>
       <use xlink:href="#DejaVuSans-2e" x="147.412109"/>
       <use xlink:href="#DejaVuSans-35" x="179.199219"/>
      </g>
     </g>
    </g>
    <g id="ytick_9">
     <g id="line2d_16">
      <g>
       <use xlink:href="#md026aa4e3e" x="806.02" y="257.172207" style="stroke: #000000; stroke-width: 0.8"/>
      </g>
     </g>
     <g id="text_18">
      <!-- 0.0 -->
      <g style="fill: #2ca02c" transform="translate(813.02 260.971426) scale(0.1 -0.1)">
       <use xlink:href="#DejaVuSans-30"/>
       <use xlink:href="#DejaVuSans-2e" x="63.623047"/>
       <use xlink:href="#DejaVuSans-30" x="95.410156"/>
      </g>
     </g>
    </g>
    <g id="ytick_10">
     <g id="line2d_17">
      <g>
       <use xlink:href="#md026aa4e3e" x="806.02" y="171.433511" style="stroke: #000000; stroke-width: 0.8"/>
      </g>
     </g>
     <g id="text_19">
      <!-- 0.5 -->
      <g style="fill: #2ca02c" transform="translate(813.02 175.23273) scale(0.1 -0.1)">
       <use xlink:href="#DejaVuSans-30"/>
       <use xlink:href="#DejaVuSans-2e" x="63.623047"/>
       <use xlink:href="#DejaVuSans-35" x="95.410156"/>
      </g>
     </g>
    </g>
    <g id="ytick_11">
     <g id="line2d_18">
      <g>
       <use xlink:href="#md026aa4e3e" x="806.02" y="85.694816" style="stroke: #000000; stroke-width: 0.8"/>
      </g>
     </g>
     <g id="text_20">
      <!-- 1.0 -->
      <g style="fill: #2ca02c" transform="translate(813.02 89.494035) scale(0.1 -0.1)">
       <use xlink:href="#DejaVuSans-31"/>
       <use xlink:href="#DejaVuSans-2e" x="63.623047"/>
       <use xlink:href="#DejaVuSans-30" x="95.410156"/>
      </g>
     </g>
    </g>
    <g id="text_21">
     <!-- Sensitivity (Power/µm) -->
     <g style="fill: #2ca02c" transform="translate(850.420937 313.185312) rotate(-90) scale(0.12 -0.12)">
      <defs>
       <path id="DejaVuSans-2f" d="M 1625 4666 
L 2156 4666 
L 531 -594 
L 0 -594 
L 1625 4666 
z
" transform="scale(0.015625)"/>
      </defs>
      <use xlink:href="#DejaVuSans-53"/>
      <use xlink:href="#DejaVuSans-65" x="63.476562"/>
      <use xlink:href="#DejaVuSans-6e" x="125"/>
      <use xlink:href="#DejaVuSans-73" x="188.378906"/>
      <use xlink:href="#DejaVuSans-69" x="240.478516"/>
      <use xlink:href="#DejaVuSans-74" x="268.261719"/>
      <use xlink:href="#DejaVuSans-69" x="307.470703"/>
      <use xlink:href="#DejaVuSans-76" x="335.253906"/>
      <use xlink:href="#DejaVuSans-69" x="394.433594"/>
      <use xlink:href="#DejaVuSans-74" x="422.216797"/>
      <use xlink:href="#DejaVuSans-79" x="461.425781"/>
      <use xlink:href="#DejaVuSans-20" x="520.605469"/>
      <use xlink:href="#DejaVuSans-28" x="552.392578"/>
      <use xlink:href="#DejaVuSans-50" x="591.40625"/>
      <use xlink:href="#DejaVuSans-6f" x="648.083984"/>
      <use xlink:href="#DejaVuSans-77" x="709.265625"/>
      <use xlink:href="#DejaVuSans-65" x="791.052734"/>
      <use xlink:href="#DejaVuSans-72" x="852.576172"/>
      <use xlink:href="#DejaVuSans-2f" x="893.689453"/>
      <use xlink:href="#DejaVuSans-b5" x="927.380859"/>
      <use xlink:href="#DejaVuSans-6d" x="991.003906"/>
      <use xlink:href="#DejaVuSans-29" x="1088.416016"/>
     </g>
    </g>
   </g>
   <g id="line2d_19">
    <path d="M 88.932045 442.164624 
L 89.61567 418.807422 
L 90.299295 377.091637 
L 90.982919 345.373089 
L 91.666544 338.620987 
L 92.350168 326.085389 
L 93.033793 321.871238 
L 93.717417 356.843341 
L 94.401042 352.511442 
L 95.084666 350.347099 
L 96.451915 313.271146 
L 97.13554 322.90871 
L 97.819164 291.06294 
L 98.502789 328.89371 
L 99.186413 391.201418 
L 99.870038 373.979821 
L 100.553663 377.056368 
L 101.237287 371.449846 
L 101.920912 335.37978 
L 102.604536 395.074538 
L 103.288161 415.722789 
L 103.971785 360.167746 
L 104.65541 357.892589 
L 105.339034 322.444578 
L 106.022659 206.880003 
L 106.706283 170.806725 
L 107.389908 177.300289 
L 108.073532 163.748386 
L 108.757157 216.11125 
L 109.440781 194.112359 
L 110.124406 134.614603 
L 110.808031 124.555734 
L 111.491655 122.831968 
L 112.17528 90.016179 
L 112.858904 118.784331 
L 113.542529 179.033156 
L 114.226153 164.873116 
L 114.909778 179.180907 
L 116.277027 141.048211 
L 117.644276 238.621918 
L 118.3279 227.000953 
L 119.011525 227.988103 
L 119.695149 228.615511 
L 120.378774 175.453933 
L 121.062399 181.19161 
L 121.746023 195.495654 
L 122.429648 190.679281 
L 123.113272 205.442639 
L 123.796897 240.505747 
L 124.480521 237.458644 
L 125.164146 218.353216 
L 125.84777 211.772928 
L 126.531395 180.564738 
L 127.215019 205.724758 
L 127.898644 239.980052 
L 128.582268 208.718329 
L 129.265893 190.507975 
L 129.949517 225.690998 
L 130.633142 254.195231 
L 131.316767 243.304993 
L 132.000391 230.377285 
L 133.36764 221.46456 
L 134.051265 215.104293 
L 134.734889 184.652525 
L 135.418514 181.592573 
L 136.102138 219.461351 
L 136.785763 238.364959 
L 137.469387 243.935613 
L 138.153012 267.913623 
L 138.836636 283.869698 
L 140.203885 212.823783 
L 141.571135 178.120416 
L 142.254759 200.318986 
L 142.938384 214.579133 
L 143.622008 241.388508 
L 144.305633 276.402366 
L 144.989257 262.319414 
L 145.672882 222.776656 
L 146.356506 190.431423 
L 147.040131 180.263346 
L 147.723755 171.780492 
L 148.40738 213.532025 
L 149.091004 263.932902 
L 149.774629 266.262127 
L 150.458253 280.285657 
L 151.141878 313.440846 
L 151.825503 289.652879 
L 152.509127 238.952217 
L 153.192752 247.704343 
L 153.876376 238.878341 
L 154.560001 220.93833 
L 155.243625 214.945299 
L 155.92725 179.67127 
L 156.610874 206.05934 
L 157.294499 277.893263 
L 157.978123 272.614364 
L 158.661748 255.743944 
L 159.345372 262.969306 
L 160.028997 258.765352 
L 160.712621 225.977935 
L 161.396246 203.305598 
L 162.079871 206.444243 
L 162.763495 215.854827 
L 163.44712 255.338698 
L 164.130744 265.03033 
L 164.814369 250.368685 
L 165.497993 229.307694 
L 166.181618 221.880512 
L 166.865242 218.888547 
L 167.548867 234.693659 
L 168.232491 245.604775 
L 168.916116 230.882638 
L 170.283365 245.777152 
L 170.966989 261.084941 
L 171.650614 265.397567 
L 172.334239 259.528734 
L 173.017863 263.730011 
L 173.701488 267.097243 
L 174.385112 245.565696 
L 175.068737 210.877854 
L 175.752361 197.417492 
L 177.11961 243.579618 
L 178.486859 258.712354 
L 179.170484 235.748796 
L 179.854108 222.53201 
L 180.537733 237.692048 
L 181.221357 234.893337 
L 181.904982 243.884221 
L 182.588607 257.433448 
L 183.272231 260.291045 
L 184.63948 292.286172 
L 185.323105 287.5774 
L 186.006729 265.901849 
L 186.690354 262.248751 
L 188.057603 231.898696 
L 188.741227 213.270784 
L 189.424852 205.313089 
L 190.108476 225.405667 
L 190.792101 262.678621 
L 191.475725 291.028679 
L 192.15935 262.249821 
L 192.842975 263.730011 
L 193.526599 268.287819 
L 194.210224 259.965564 
L 194.893848 250.221469 
L 195.577473 223.542715 
L 196.261097 227.736498 
L 196.944722 233.843553 
L 197.628346 228.058767 
L 198.311971 214.238662 
L 198.995595 243.12994 
L 199.67922 279.315637 
L 200.362844 276.490696 
L 201.046469 263.025516 
L 201.730094 255.413109 
L 203.097343 244.227368 
L 203.780967 236.338196 
L 204.464592 239.589796 
L 205.148216 271.672182 
L 205.831841 282.942505 
L 206.515465 259.955393 
L 207.19909 245.319444 
L 207.882714 261.360101 
L 208.566339 258.547472 
L 209.249963 258.121884 
L 209.933588 249.96344 
L 210.617212 232.826425 
L 211.300837 227.02076 
L 211.984462 245.210771 
L 212.668086 252.880458 
L 213.351711 262.897036 
L 214.035335 286.013699 
L 214.71896 282.744432 
L 215.402584 271.172183 
L 216.086209 238.468278 
L 216.769833 223.036292 
L 217.453458 223.797532 
L 218.137082 242.219877 
L 218.820707 252.958617 
L 219.504331 273.359545 
L 220.187956 251.234316 
L 220.87158 256.46557 
L 221.555205 288.802238 
L 222.23883 247.953807 
L 222.922454 228.215084 
L 223.606079 229.859085 
L 224.289703 248.408839 
L 224.973328 251.03999 
L 225.656952 262.867058 
L 226.340577 246.821582 
L 227.024201 278.633626 
L 227.707826 318.265784 
L 228.39145 258.076381 
L 229.075075 229.282533 
L 229.758699 251.693094 
L 230.442324 261.352071 
L 231.125948 244.737004 
L 231.809573 252.564078 
L 232.493198 247.703808 
L 233.860447 272.305478 
L 234.544071 260.757318 
L 235.227696 278.569921 
L 235.91132 292.092917 
L 236.594945 269.682356 
L 237.278569 252.792664 
L 237.962194 244.522871 
L 239.329443 200.804531 
L 240.013067 202.172837 
L 240.696692 241.914203 
L 242.063941 288.30438 
L 242.747566 284.494965 
L 243.43119 259.474665 
L 244.114815 269.310837 
L 244.798439 241.632619 
L 245.482064 226.576435 
L 246.165688 251.309797 
L 246.849313 258.906679 
L 247.532937 253.067824 
L 248.216562 257.990193 
L 248.900186 258.83548 
L 249.583811 254.158829 
L 250.267435 274.810292 
L 250.95106 261.672199 
L 251.634684 270.272291 
L 252.318309 284.124516 
L 253.001934 264.3344 
L 253.685558 251.901338 
L 254.369183 267.379363 
L 255.052807 288.793137 
L 255.736432 279.920561 
L 257.103681 247.695243 
L 257.787305 241.72309 
L 258.47093 213.776136 
L 259.154554 228.346775 
L 260.521803 292.755122 
L 261.205428 305.494393 
L 261.889052 294.243342 
L 262.572677 279.351505 
L 263.256302 249.131536 
L 263.939926 239.619239 
L 264.623551 222.590896 
L 265.307175 252.809259 
L 265.9908 264.126692 
L 266.674424 268.106877 
L 267.358049 266.605809 
L 268.041673 276.673244 
L 268.725298 275.50997 
L 269.408922 260.312458 
L 270.092547 295.883596 
L 270.776171 294.36968 
L 271.459796 266.440927 
L 272.14342 244.298032 
L 272.827045 254.801761 
L 273.51067 254.868142 
L 274.194294 240.066241 
L 274.877919 242.973623 
L 275.561543 243.474158 
L 276.245168 247.931859 
L 276.928792 263.470911 
L 278.296041 245.696317 
L 278.979666 281.955355 
L 279.66329 298.383056 
L 280.346915 270.782462 
L 281.030539 257.582806 
L 281.714164 257.834411 
L 282.397788 272.477855 
L 283.081413 311.987422 
L 283.765038 310.718153 
L 284.448662 293.983706 
L 285.132287 294.587024 
L 285.815911 277.828488 
L 286.499536 226.450097 
L 287.18316 205.958698 
L 287.866785 234.264324 
L 288.550409 238.072668 
L 289.234034 239.062495 
L 289.917658 279.765315 
L 290.601283 301.325235 
L 291.284907 288.267442 
L 291.968532 283.98533 
L 292.652156 244.333364 
L 294.019406 288.223545 
L 294.70303 240.812492 
L 295.386655 234.146551 
L 296.070279 277.289945 
L 296.753904 287.468728 
L 297.437528 267.628827 
L 298.121153 265.077439 
L 298.804777 245.377795 
L 299.488402 271.681282 
L 300.172026 285.727832 
L 300.855651 282.211243 
L 301.539275 317.877669 
L 302.2229 328.318229 
L 302.906524 292.1866 
L 303.590149 264.675406 
L 304.273774 251.732709 
L 304.957398 219.350003 
L 305.641023 203.862342 
L 306.324647 204.97476 
L 307.008272 237.074276 
L 307.691896 303.347716 
L 308.375521 309.843422 
L 309.059145 302.77973 
L 309.74277 319.056468 
L 310.426394 311.110015 
L 311.110019 283.716058 
L 311.793643 261.668452 
L 312.477268 226.401382 
L 313.160892 240.999858 
L 313.844517 297.419461 
L 314.528142 296.372888 
L 315.211766 292.674287 
L 315.895391 305.197284 
L 316.579015 304.765808 
L 317.26264 304.936578 
L 317.946264 292.702124 
L 318.629889 263.278727 
L 319.313513 278.230522 
L 319.997138 279.7969 
L 320.680762 276.35151 
L 322.048011 224.951706 
L 322.731636 264.723586 
L 323.41526 294.791521 
L 324.098885 301.835406 
L 324.78251 287.119692 
L 325.466134 291.204803 
L 326.149759 314.855191 
L 326.833383 324.301106 
L 328.200632 266.907201 
L 328.884257 317.144801 
L 329.567881 331.083749 
L 330.251506 286.911984 
L 330.93513 260.018026 
L 332.302379 305.82844 
L 332.986004 281.357925 
L 333.669628 264.491787 
L 334.353253 255.333345 
L 335.720502 279.301184 
L 336.404127 258.788371 
L 337.087751 256.400795 
L 337.771376 304.16249 
L 338.455 327.14746 
L 339.138625 334.338026 
L 339.822249 344.382441 
L 340.505874 338.508255 
L 341.873123 358.836378 
L 342.556747 318.947261 
L 343.240372 259.258927 
L 343.923996 254.028743 
L 344.607621 297.263144 
L 345.291246 328.690284 
L 345.97487 291.07097 
L 346.658495 287.839177 
L 347.342119 342.411888 
L 348.025744 321.222417 
L 348.709368 308.420512 
L 349.392993 383.139334 
L 350.076617 385.097039 
L 350.760242 320.491155 
L 351.443866 338.915641 
L 352.127491 335.404405 
L 352.811115 337.727207 
L 353.49474 283.217665 
L 354.178365 190.858082 
L 355.545614 380.923599 
L 356.229238 327.647995 
L 356.912863 250.826929 
L 357.596487 325.088578 
L 358.280112 424.27256 
L 358.963736 442.358182 
L 359.647361 412.47333 
L 360.330985 368.689144 
L 361.01461 308.611625 
L 361.698234 172.435737 
L 362.381859 143.09264 
L 363.065483 93.075596 
L 363.749108 74.412887 
L 364.432733 108.016148 
L 365.116357 119.111953 
L 365.799982 226.732752 
L 366.483606 242.36977 
L 367.167231 184.152526 
L 367.850855 162.453955 
L 368.53448 187.518687 
L 369.218104 218.714565 
L 369.901729 216.057717 
L 370.585353 152.824422 
L 371.268978 100.51402 
L 371.952602 168.974287 
L 373.319851 214.68031 
L 374.003476 214.645514 
L 374.687101 185.580789 
L 375.370725 227.705984 
L 376.05435 220.639615 
L 377.421599 188.516544 
L 378.105223 192.833988 
L 378.788848 242.647071 
L 379.472472 257.316746 
L 380.156097 225.084468 
L 380.839721 208.263833 
L 381.523346 223.659417 
L 382.20697 229.044311 
L 382.890595 208.697451 
L 383.574219 176.209285 
L 384.257844 174.195905 
L 384.941469 197.670704 
L 385.625093 186.912692 
L 386.308718 183.556167 
L 386.992342 207.120902 
L 387.675967 251.995556 
L 388.359591 277.465534 
L 389.043216 239.045365 
L 389.72684 238.878877 
L 390.410465 246.128864 
L 391.094089 219.850002 
L 391.777714 200.497787 
L 392.461338 203.780436 
L 393.144963 210.407298 
L 394.512212 237.29858 
L 395.195837 254.409364 
L 395.879461 311.271685 
L 396.563086 312.113225 
L 397.24671 276.576884 
L 397.930335 260.736976 
L 398.613959 253.654547 
L 399.297584 218.852145 
L 399.981208 170.125248 
L 400.664833 168.3169 
L 401.348457 196.216745 
L 402.032082 216.121421 
L 402.715706 205.88054 
L 403.399331 222.081261 
L 404.082955 261.758387 
L 404.76658 257.740193 
L 405.450205 269.346704 
L 406.133829 284.448391 
L 408.184703 214.82592 
L 408.868327 196.284197 
L 409.551952 211.655155 
L 410.235576 235.104258 
L 410.919201 253.511614 
L 411.602825 292.541525 
L 412.28645 291.55598 
L 412.970074 250.78089 
L 413.653699 220.336082 
L 414.337323 228.207589 
L 415.020948 224.302349 
L 415.704573 221.644431 
L 416.388197 247.612266 
L 417.071822 254.076388 
L 417.755446 227.552344 
L 418.439071 214.170675 
L 419.122695 232.735418 
L 419.80632 232.728994 
L 421.857193 268.479468 
L 422.540818 265.953241 
L 423.224442 222.062525 
L 423.908067 209.040599 
L 424.591691 214.742409 
L 425.275316 225.673867 
L 425.958941 209.623574 
L 426.642565 226.150847 
L 427.32619 270.727323 
L 428.009814 283.280834 
L 428.693439 288.180718 
L 429.377063 265.850993 
L 430.060688 262.787829 
L 430.744312 253.273391 
L 431.427937 245.950064 
L 432.111561 246.666336 
L 432.795186 236.058218 
L 433.47881 229.21294 
L 434.162435 240.516454 
L 434.846059 274.406652 
L 435.529684 260.618132 
L 436.213309 240.117633 
L 436.896933 245.597816 
L 437.580558 266.235896 
L 438.264182 277.982128 
L 438.947807 233.617108 
L 439.631431 206.833964 
L 440.315056 224.664233 
L 440.99868 248.587104 
L 441.682305 250.924359 
L 442.365929 252.695769 
L 443.733178 265.561914 
L 444.416803 269.84242 
L 445.100427 246.296958 
L 445.784052 241.670092 
L 446.467677 262.939327 
L 447.151301 263.697356 
L 447.834926 263.900782 
L 448.51855 249.938815 
L 449.202175 241.767523 
L 449.885799 247.682395 
L 450.569424 235.763786 
L 451.253048 228.996667 
L 451.936673 245.041607 
L 452.620297 246.838178 
L 453.303922 231.33874 
L 453.987546 238.458642 
L 454.671171 226.091961 
L 455.354795 247.179183 
L 456.03842 283.832225 
L 456.722045 277.773884 
L 457.405669 256.118675 
L 458.089294 256.753043 
L 459.456543 238.593545 
L 460.140167 244.984862 
L 460.823792 232.047518 
L 461.507416 241.305532 
L 462.191041 253.22307 
L 462.874665 262.379907 
L 463.55829 264.006777 
L 464.241914 264.016949 
L 464.925539 270.093491 
L 465.609163 274.195732 
L 466.292788 274.4195 
L 466.976413 257.738052 
L 467.660037 267.644351 
L 468.343662 279.315637 
L 469.027286 279.632553 
L 469.710911 258.913103 
L 470.394535 221.002034 
L 471.07816 220.517024 
L 471.761784 231.649767 
L 472.445409 247.141175 
L 473.129033 247.528755 
L 473.812658 264.201103 
L 474.496282 284.833294 
L 475.179907 265.079581 
L 475.863531 236.210787 
L 476.547156 230.899768 
L 477.230781 231.044843 
L 478.59803 293.280817 
L 479.281654 260.171666 
L 479.965279 267.917906 
L 480.648903 290.606838 
L 481.332528 249.809265 
L 482.016152 227.890138 
L 482.699777 229.475253 
L 483.383401 205.33932 
L 484.067026 249.266974 
L 484.75065 304.114845 
L 485.434275 265.566197 
L 486.117899 265.17594 
L 486.801524 261.234834 
L 487.485149 227.796455 
L 488.168773 231.070539 
L 488.852398 230.852659 
L 489.536022 221.519164 
L 490.219647 254.070499 
L 490.903271 275.157722 
L 491.586896 242.613346 
L 492.27052 243.108527 
L 494.321394 286.009951 
L 495.005018 282.663597 
L 495.688643 280.053859 
L 496.372267 271.485351 
L 497.055892 246.436144 
L 497.739517 225.705452 
L 498.423141 222.747748 
L 499.79039 252.633135 
L 500.474015 250.154018 
L 501.157639 257.672206 
L 501.841264 273.86918 
L 502.524888 271.621861 
L 503.208513 271.268542 
L 503.892137 278.181806 
L 504.575762 255.521781 
L 505.259386 268.862765 
L 505.943011 261.157746 
L 506.626635 251.068898 
L 507.31026 279.334909 
L 507.993885 282.941434 
L 508.677509 297.348797 
L 509.361134 296.465501 
L 510.044758 277.772814 
L 510.728383 233.079101 
L 511.412007 227.921722 
L 512.095632 219.533621 
L 512.779256 217.521847 
L 513.462881 253.114398 
L 514.146505 273.387382 
L 514.83013 286.257274 
L 515.513754 259.478948 
L 516.197379 267.880968 
L 516.881004 272.605799 
L 517.564628 262.677015 
L 518.248253 259.130448 
L 518.931877 240.569452 
L 519.615502 265.532471 
L 520.299126 256.443086 
L 520.982751 244.336576 
L 521.666375 259.659355 
L 522.35 283.9864 
L 523.033624 300.925343 
L 524.400873 233.648158 
L 525.084498 234.958648 
L 525.768122 251.959154 
L 526.451747 229.466152 
L 527.818996 273.951086 
L 528.502621 258.956465 
L 529.186245 288.031361 
L 529.86987 283.962846 
L 530.553494 276.612216 
L 531.237119 289.793135 
L 531.920743 294.072036 
L 532.604368 281.670023 
L 533.287992 282.735867 
L 533.971617 261.851535 
L 534.655241 222.135865 
L 535.338866 252.924891 
L 536.706115 285.228903 
L 537.38974 282.502998 
L 538.073364 267.181825 
L 538.756989 265.101529 
L 539.440613 253.414183 
L 540.124238 222.785757 
L 540.807862 217.339299 
L 541.491487 252.463971 
L 542.858736 285.494428 
L 543.54236 260.428625 
L 544.225985 241.204354 
L 544.909609 263.399712 
L 545.593234 261.594576 
L 546.276858 263.497678 
L 546.960483 286.813483 
L 547.644108 300.983159 
L 548.327732 308.598242 
L 549.694981 275.290484 
L 550.378606 283.291541 
L 551.06223 267.917906 
L 551.745855 241.124055 
L 552.429479 243.937219 
L 553.113104 255.74555 
L 553.796728 256.539981 
L 554.480353 248.748239 
L 555.163977 270.716616 
L 555.847602 303.743325 
L 557.214851 276.617569 
L 557.898476 253.655082 
L 558.5821 257.036233 
L 559.265725 262.692005 
L 559.949349 258.818885 
L 560.632974 278.009965 
L 561.316598 294.043663 
L 562.683847 252.055513 
L 563.367472 287.917336 
L 564.051096 286.322049 
L 564.734721 317.597156 
L 565.418345 314.604656 
L 566.10197 308.606272 
L 566.785594 318.666212 
L 567.469219 263.503566 
L 568.152844 222.542181 
L 568.836468 236.859073 
L 569.520093 277.825811 
L 570.203717 270.132035 
L 570.887342 302.337546 
L 571.570966 296.407685 
L 572.254591 280.999789 
L 572.938215 297.129846 
L 573.62184 248.445777 
L 574.305464 231.991308 
L 574.989089 264.292644 
L 575.672713 278.064569 
L 576.356338 260.893292 
L 577.039962 278.991762 
L 577.723587 250.624038 
L 578.407212 253.272856 
L 579.090836 324.956886 
L 580.458085 265.472514 
L 581.14171 281.049039 
L 581.825334 303.951034 
L 582.508959 317.544693 
L 583.192583 306.03133 
L 583.876208 289.896454 
L 584.559832 317.571995 
L 585.243457 321.660318 
L 585.927081 266.067266 
L 586.610706 261.872948 
L 587.29433 282.260493 
L 587.977955 267.896492 
L 588.66158 264.967161 
L 590.028829 322.758817 
L 590.712453 330.477219 
L 591.396078 295.569892 
L 592.079702 291.029215 
L 592.763327 323.145861 
L 593.446951 315.401763 
L 594.130576 286.709629 
L 594.8142 291.752447 
L 595.497825 327.490072 
L 596.181449 328.66673 
L 596.865074 344.221307 
L 597.548698 328.484182 
L 598.232323 341.941332 
L 598.915948 324.461705 
L 599.599572 257.112785 
L 600.283197 268.177006 
L 600.966821 268.806555 
L 601.650446 305.935506 
L 602.33407 325.517913 
L 603.017695 359.079953 
L 603.701319 403.961567 
L 604.384944 421.548261 
L 605.068568 400.185343 
L 605.752193 412.996884 
L 606.435817 371.382395 
L 607.119442 288.930717 
L 607.803066 355.180603 
L 608.486691 319.844475 
L 609.170316 317.627134 
L 609.85394 381.729807 
L 610.537565 369.477152 
L 611.221189 405.187475 
L 611.904814 432.170833 
L 613.272063 284.820981 
L 613.955687 292.864865 
L 614.639312 187.760657 
L 615.322936 134.541798 
L 616.006561 129.003799 
L 616.690185 48.721818 
L 617.37381 50.202008 
L 618.057434 56.290863 
L 618.741059 119.730796 
L 619.424684 171.715181 
L 620.108308 196.105931 
L 621.475557 137.569095 
L 622.159182 163.398815 
L 622.842806 148.938454 
L 623.526431 167.023005 
L 624.210055 172.912717 
L 625.577304 252.465042 
L 626.944553 194.348975 
L 627.628178 211.309867 
L 628.311802 263.558705 
L 628.995427 253.774461 
L 629.679052 205.6466 
L 630.362676 188.463011 
L 631.046301 198.746719 
L 631.729925 195.064177 
L 632.41355 206.330753 
L 633.097174 198.52188 
L 633.780799 206.708161 
L 634.464423 237.65511 
L 635.148048 224.656203 
L 635.831672 215.524527 
L 636.515297 216.596795 
L 637.198921 229.409407 
L 637.882546 229.548593 
L 638.56617 222.174944 
L 639.249795 176.768706 
L 639.93342 164.287999 
L 640.617044 197.794365 
L 641.300669 204.083969 
L 641.984293 247.721474 
L 642.667918 267.892745 
L 643.351542 237.253612 
L 644.035167 221.382654 
L 644.718791 236.726846 
L 645.402416 240.508959 
L 646.08604 222.567342 
L 646.769665 226.85106 
L 647.453289 228.849986 
L 648.820538 296.805436 
L 649.504163 262.476266 
L 650.187788 239.025557 
L 650.871412 248.707018 
L 651.555037 239.352645 
L 652.238661 196.177666 
L 652.922286 176.353289 
L 653.60591 195.239231 
L 654.289535 235.767533 
L 654.973159 252.056584 
L 655.656784 249.503591 
L 656.340408 243.975763 
L 657.024033 258.747151 
L 657.707657 250.124575 
L 658.391282 217.617671 
L 659.074906 229.653518 
L 659.758531 244.323193 
L 660.442156 234.589269 
L 661.12578 229.416902 
L 661.809405 262.519093 
L 662.493029 271.316722 
L 663.176654 251.397056 
L 663.860278 213.059328 
L 664.543903 195.043299 
L 665.227527 201.100569 
L 665.911152 181.290647 
L 666.594776 192.926065 
L 667.278401 257.781414 
L 667.962025 284.202674 
L 668.64565 249.274469 
L 670.012899 223.270767 
L 670.696524 194.991372 
L 671.380148 202.146071 
L 673.431022 261.421664 
L 674.114646 269.820472 
L 674.798271 253.961827 
L 675.481895 264.18076 
L 676.16552 245.099958 
L 676.849144 218.886941 
L 677.532769 247.646527 
L 678.216393 248.094599 
L 678.900018 209.079678 
L 679.583643 207.368225 
L 680.267267 259.321025 
L 680.950892 282.916274 
L 682.318141 281.138439 
L 683.001765 272.42914 
L 683.68539 268.253023 
L 684.369014 246.282504 
L 685.052639 208.058801 
L 685.736263 204.133755 
L 686.419888 231.951694 
L 687.103512 249.747166 
L 687.787137 245.792676 
L 688.470761 233.614432 
L 689.154386 218.762209 
L 689.838011 215.517568 
L 690.521635 215.994013 
L 691.20526 233.137987 
L 691.888884 267.323688 
L 692.572509 289.523864 
L 693.256133 315.357866 
L 693.939758 305.154458 
L 694.623382 276.129347 
L 695.307007 260.416313 
L 695.990631 247.348348 
L 696.674256 231.458119 
L 697.35788 225.140142 
L 698.725129 238.482732 
L 699.408754 258.223597 
L 700.092379 249.110122 
L 700.776003 244.850494 
L 701.459628 245.740214 
L 702.143252 252.19577 
L 702.826877 267.279791 
L 703.510501 250.470398 
L 704.194126 237.726844 
L 704.87775 251.641167 
L 705.561375 243.68026 
L 706.244999 227.911551 
L 706.928624 273.136847 
L 707.612248 281.589188 
L 708.295873 278.312963 
L 708.979497 285.014771 
L 709.663122 247.437748 
L 710.346747 227.900844 
L 711.030371 222.078585 
L 711.713996 182.287968 
L 712.39762 202.312023 
L 713.081245 271.922717 
L 713.764869 290.100951 
L 714.448494 291.343454 
L 715.132118 263.074231 
L 715.815743 248.065156 
L 716.499367 267.974651 
L 717.182992 246.647064 
L 717.866616 212.292734 
L 718.550241 233.65244 
L 719.233865 265.516411 
L 719.91749 273.340273 
L 720.601115 254.43506 
L 721.284739 226.522367 
L 721.968364 244.206491 
L 722.651988 265.818873 
L 723.335613 244.008953 
L 724.019237 231.459189 
L 724.702862 256.7327 
L 725.386486 275.380955 
L 726.070111 276.914678 
L 726.753735 274.732134 
L 727.43736 263.764808 
L 728.120984 262.599392 
L 728.804609 259.153467 
L 729.488233 228.785746 
L 730.171858 231.556619 
L 730.855483 258.254646 
L 731.539107 227.317333 
L 732.222732 238.082304 
L 732.906356 279.4484 
L 733.589981 271.770683 
L 734.273605 275.554402 
L 734.95723 258.860105 
L 735.640854 250.390099 
L 736.324479 286.591856 
L 737.008103 296.595051 
L 737.691728 247.304451 
L 738.375352 252.537311 
L 739.058977 254.745552 
L 739.742601 228.418509 
L 740.426226 222.177621 
L 741.109851 205.099492 
L 741.793475 241.757351 
L 742.4771 290.3108 
L 743.160724 299.31935 
L 744.527973 249.709693 
L 745.211598 233.170107 
L 745.895222 235.442587 
L 746.578847 248.425434 
L 747.262471 276.20697 
L 747.946096 309.03186 
L 748.62972 328.323047 
L 749.313345 312.797914 
L 749.996969 259.375629 
L 750.680594 238.830697 
L 751.364219 247.128862 
L 752.047843 229.801805 
L 752.731468 226.969368 
L 753.415092 227.45652 
L 754.098717 204.065768 
L 754.782341 218.450111 
L 755.465966 254.42007 
L 756.14959 272.328498 
L 756.833215 297.12717 
L 757.516839 290.789922 
L 758.200464 275.817785 
L 758.884088 293.574713 
L 760.251337 246.50306 
L 761.618587 295.89805 
L 762.302211 281.441437 
L 762.985836 255.367606 
L 763.66946 236.53841 
L 764.353085 234.764323 
L 765.036709 257.308716 
L 765.720334 247.82051 
L 766.403958 243.579083 
L 767.087583 270.342955 
L 767.771207 259.110105 
L 768.454832 244.309901 
L 769.138456 249.037154 
L 769.822081 250.249791 
L 770.505705 258.692197 
L 771.18933 271.261719 
L 771.872955 278.578258 
L 771.872955 278.578258 
" clip-path="url(#p729f020ffb)" style="fill: none; stroke: #2ca02c; stroke-opacity: 0.8; stroke-width: 1.5; stroke-linecap: square"/>
   </g>
   <g id="line2d_20">
    <path d="M 396.255455 462.04 
L 396.255455 29.04 
" clip-path="url(#p729f020ffb)" style="fill: none; stroke-dasharray: 5.55,2.4; stroke-dashoffset: 0; stroke: #ff0000; stroke-width: 1.5"/>
   </g>
   <g id="patch_7">
    <path d="M 54.785 462.04 
L 54.785 29.04 
" style="fill: none; stroke: #000000; stroke-width: 0.8; stroke-linejoin: miter; stroke-linecap: square"/>
   </g>
   <g id="patch_8">
    <path d="M 806.02 462.04 
L 806.02 29.04 
" style="fill: none; stroke: #000000; stroke-width: 0.8; stroke-linejoin: miter; stroke-linecap: square"/>
   </g>
   <g id="patch_9">
    <path d="M 54.785 462.04 
L 806.02 462.04 
" style="fill: none; stroke: #000000; stroke-width: 0.8; stroke-linejoin: miter; stroke-linecap: square"/>
   </g>
   <g id="patch_10">
    <path d="M 54.785 29.04 
L 806.02 29.04 
" style="fill: none; stroke: #000000; stroke-width: 0.8; stroke-linejoin: miter; stroke-linecap: square"/>
   </g>
  </g>
  <g id="legend_1">
   <g id="patch_11">
    <path d="M 633.262187 81.074375 
L 799.02 81.074375 
Q 801.02 81.074375 801.02 79.074375 
L 801.02 36.04 
Q 801.02 34.04 799.02 34.04 
L 633.262187 34.04 
Q 631.262187 34.04 631.262187 36.04 
L 631.262187 79.074375 
Q 631.262187 81.074375 633.262187 81.074375 
z
" style="fill: #ffffff; opacity: 0.8; stroke: #cccccc; stroke-linejoin: miter"/>
   </g>
   <g id="line2d_21">
    <path d="M 635.262187 42.138437 
L 645.262187 42.138437 
L 655.262187 42.138437 
" style="fill: none; stroke: #1f77b4; stroke-width: 1.5; stroke-linecap: square"/>
   </g>
   <g id="text_22">
    <!-- Calibration Curve -->
    <g transform="translate(663.262187 45.638437) scale(0.1 -0.1)">
     <defs>
      <path id="DejaVuSans-43" d="M 4122 4306 
L 4122 3641 
Q 3803 3938 3442 4084 
Q 3081 4231 2675 4231 
Q 1875 4231 1450 3742 
Q 1025 3253 1025 2328 
Q 1025 1406 1450 917 
Q 1875 428 2675 428 
Q 3081 428 3442 575 
Q 3803 722 4122 1019 
L 4122 359 
Q 3791 134 3420 21 
Q 3050 -91 2638 -91 
Q 1578 -91 968 557 
Q 359 1206 359 2328 
Q 359 3453 968 4101 
Q 1578 4750 2638 4750 
Q 3056 4750 3426 4639 
Q 3797 4528 4122 4306 
z
" transform="scale(0.015625)"/>
     </defs>
     <use xlink:href="#DejaVuSans-43"/>
     <use xlink:href="#DejaVuSans-61" x="69.824219"/>
     <use xlink:href="#DejaVuSans-6c" x="131.103516"/>
     <use xlink:href="#DejaVuSans-69" x="158.886719"/>
     <use xlink:href="#DejaVuSans-62" x="186.669922"/>
     <use xlink:href="#DejaVuSans-72" x="250.146484"/>
     <use xlink:href="#DejaVuSans-61" x="291.259766"/>
     <use xlink:href="#DejaVuSans-74" x="352.539062"/>
     <use xlink:href="#DejaVuSans-69" x="391.748047"/>
     <use xlink:href="#DejaVuSans-6f" x="419.53125"/>
     <use xlink:href="#DejaVuSans-6e" x="480.712891"/>
     <use xlink:href="#DejaVuSans-20" x="544.091797"/>
     <use xlink:href="#DejaVuSans-43" x="575.878906"/>
     <use xlink:href="#DejaVuSans-75" x="645.703125"/>
     <use xlink:href="#DejaVuSans-72" x="709.082031"/>
     <use xlink:href="#DejaVuSans-76" x="750.195312"/>
     <use xlink:href="#DejaVuSans-65" x="809.375"/>
    </g>
   </g>
   <g id="line2d_22">
    <path d="M 635.262187 56.816562 
L 645.262187 56.816562 
L 655.262187 56.816562 
" style="fill: none; stroke: #2ca02c; stroke-opacity: 0.8; stroke-width: 1.5; stroke-linecap: square"/>
   </g>
   <g id="text_23">
    <!-- Sensitivity (Derivative) -->
    <g transform="translate(663.262187 60.316562) scale(0.1 -0.1)">
     <use xlink:href="#DejaVuSans-53"/>
     <use xlink:href="#DejaVuSans-65" x="63.476562"/>
     <use xlink:href="#DejaVuSans-6e" x="125"/>
     <use xlink:href="#DejaVuSans-73" x="188.378906"/>
     <use xlink:href="#DejaVuSans-69" x="240.478516"/>
     <use xlink:href="#DejaVuSans-74" x="268.261719"/>
     <use xlink:href="#DejaVuSans-69" x="307.470703"/>
     <use xlink:href="#DejaVuSans-76" x="335.253906"/>
     <use xlink:href="#DejaVuSans-69" x="394.433594"/>
     <use xlink:href="#DejaVuSans-74" x="422.216797"/>
     <use xlink:href="#DejaVuSans-79" x="461.425781"/>
     <use xlink:href="#DejaVuSans-20" x="520.605469"/>
     <use xlink:href="#DejaVuSans-28" x="552.392578"/>
     <use xlink:href="#DejaVuSans-44" x="591.40625"/>
     <use xlink:href="#DejaVuSans-65" x="668.408203"/>
     <use xlink:href="#DejaVuSans-72" x="729.931641"/>
     <use xlink:href="#DejaVuSans-69" x="771.044922"/>
     <use xlink:href="#DejaVuSans-76" x="798.828125"/>
     <use xlink:href="#DejaVuSans-61" x="858.007812"/>
     <use xlink:href="#DejaVuSans-74" x="919.287109"/>
     <use xlink:href="#DejaVuSans-69" x="958.496094"/>
     <use xlink:href="#DejaVuSans-76" x="986.279297"/>
     <use xlink:href="#DejaVuSans-65" x="1045.458984"/>
     <use xlink:href="#DejaVuSans-29" x="1106.982422"/>
    </g>
   </g>
   <g id="line2d_23">
    <path d="M 635.262187 71.494687 
L 645.262187 71.494687 
L 655.262187 71.494687 
" style="fill: none; stroke-dasharray: 5.55,2.4; stroke-dashoffset: 0; stroke: #ff0000; stroke-width: 1.5"/>
   </g>
   <g id="text_24">
    <!-- Optimal Offset: 450.00 µm -->
    <g transform="translate(663.262187 74.994687) scale(0.1 -0.1)">
     <defs>
      <path id="DejaVuSans-4f" d="M 2522 4238 
Q 1834 4238 1429 3725 
Q 1025 3213 1025 2328 
Q 1025 1447 1429 934 
Q 1834 422 2522 422 
Q 3209 422 3611 934 
Q 4013 1447 4013 2328 
Q 4013 3213 3611 3725 
Q 3209 4238 2522 4238 
z
M 2522 4750 
Q 3503 4750 4090 4092 
Q 4678 3434 4678 2328 
Q 4678 1225 4090 567 
Q 3503 -91 2522 -91 
Q 1538 -91 948 565 
Q 359 1222 359 2328 
Q 359 3434 948 4092 
Q 1538 4750 2522 4750 
z
" transform="scale(0.015625)"/>
      <path id="DejaVuSans-66" d="M 2375 4863 
L 2375 4384 
L 1825 4384 
Q 1516 4384 1395 4259 
Q 1275 4134 1275 3809 
L 1275 3500 
L 2222 3500 
L 2222 3053 
L 1275 3053 
L 1275 0 
L 697 0 
L 697 3053 
L 147 3053 
L 147 3500 
L 697 3500 
L 697 3744 
Q 697 4328 969 4595 
Q 1241 4863 1831 4863 
L 2375 4863 
z
" transform="scale(0.015625)"/>
      <path id="DejaVuSans-3a" d="M 750 794 
L 1409 794 
L 1409 0 
L 750 0 
L 750 794 
z
M 750 3309 
L 1409 3309 
L 1409 2516 
L 750 2516 
L 750 3309 
z
" transform="scale(0.015625)"/>
     </defs>
     <use xlink:href="#DejaVuSans-4f"/>
     <use xlink:href="#DejaVuSans-70" x="78.710938"/>
     <use xlink:href="#DejaVuSans-74" x="142.1875"/>
     <use xlink:href="#DejaVuSans-69" x="181.396484"/>
     <use xlink:href="#DejaVuSans-6d" x="209.179688"/>
     <use xlink:href="#DejaVuSans-61" x="306.591797"/>
     <use xlink:href="#DejaVuSans-6c" x="367.871094"/>
     <use xlink:href="#DejaVuSans-20" x="395.654297"/>
     <use xlink:href="#DejaVuSans-4f" x="427.441406"/>
     <use xlink:href="#DejaVuSans-66" x="506.152344"/>
     <use xlink:href="#DejaVuSans-66" x="541.357422"/>
     <use xlink:href="#DejaVuSans-73" x="576.5625"/>
     <use xlink:href="#DejaVuSans-65" x="628.662109"/>
     <use xlink:href="#DejaVuSans-74" x="690.185547"/>
     <use xlink:href="#DejaVuSans-3a" x="729.394531"/>
     <use xlink:href="#DejaVuSans-20" x="763.085938"/>
     <use xlink:href="#DejaVuSans-34" x="794.873047"/>
     <use xlink:href="#DejaVuSans-35" x="858.496094"/>
     <use xlink:href="#DejaVuSans-30" x="922.119141"/>
     <use xlink:href="#DejaVuSans-2e" x="985.742188"/>
     <use xlink:href="#DejaVuSans-30" x="1017.529297"/>
     <use xlink:href="#DejaVuSans-30" x="1081.152344"/>
     <use xlink:href="#DejaVuSans-20" x="1144.775391"/>
     <use xlink:href="#DejaVuSans-b5" x="1176.5625"/>
     <use xlink:href="#DejaVuSans-6d" x="1240.185547"/>
    </g>
   </g>
  </g>
 </g>
 <defs>
  <clipPath id="p729f020ffb">
   <rect x="54.785" y="29.04" width="751.235" height="433"/>
  </clipPath>
 </defs>
</svg>
